<svg xmlns="http://www.w3.org/2000/svg" viewBox="0 0 53.63 89.15"><defs><style>.cls-3{fill:#959e96}.cls-4{fill:#b9c4ba}.cls-5{fill:#abb5ac}.cls-15{fill:#ba8552}.cls-18{fill:#fabf96}.cls-20{fill:#335359}.cls-21{fill:#36a9e1}.cls-22{fill:#3bbaf7}.cls-23{fill:#63614d}</style></defs><g style="isolation:isolate"><g id="Слой_2" data-name="Слой 2"><g id="Layer_3" data-name="Layer 3"><path fill="#a6d6d2" d="M43.25 57.81L.01 82.77 0 24.96 43.23 0l.02 57.81z"/><path class="cls-3" d="M42.1 68.48L17.84 82.49v-8.54l24.26-14v8.53z"/><path class="cls-4" d="M42.1 59.95l-24.26 14-8.67-5.01 24.25-14 8.68 5.01z"/><path class="cls-5" d="M9.17 68.94v8.54l8.67 5.01v-8.54l-8.67-5.01z"/><path class="cls-3" d="M45.94 70.7L21.69 84.71v-6.54l24.25-14v6.53z"/><path class="cls-4" d="M45.94 64.17l-24.25 14-3.85-2.22 24.26-14 3.84 2.22z"/><path class="cls-5" d="M17.84 75.95v6.54l3.85 2.22v-6.54l-3.85-2.22z"/><path class="cls-3" d="M49.79 72.92L25.53 86.93v-4.54l24.26-14v4.53z"/><path class="cls-4" d="M49.79 68.39l-24.26 14-3.84-2.22 24.25-14 3.85 2.22z"/><path class="cls-5" d="M21.69 80.17v4.54l3.84 2.22v-4.54l-3.84-2.22z"/><path class="cls-3" d="M53.63 75.14L29.38 89.15v-2.54l24.25-14v2.53z"/><path class="cls-4" d="M53.63 72.61l-24.25 14-3.85-2.22 24.26-14 3.84 2.22z"/><path class="cls-5" d="M25.53 84.39v2.54l3.85 2.22v-2.54l-3.85-2.22zm6.05-71.48v43.1L12.53 66.99v-43.1l17.49-10.08 1.56-.9z"/><path fill="#879aa8" d="M30.02 13.81l-10.26 5.91-7.23 4.17v3.17l17.49 10V13.81z"/><path fill="#8db0a1" d="M12.53 27.06v38.16L30.02 55.1V37.06l-17.49-10z"/><path fill="#9d9e7f" d="M30.02 38.21l-10.26-5.87v-2.3l10.26 5.87v2.3z"/><path d="M24 31a2.54 2.54 0 011.41 2.08 5.84 5.84 0 01-.71 3.61 14.72 14.72 0 01-1.76 2.76 18.7 18.7 0 01-1.63 1.75A7.35 7.35 0 0020 42.92c-.19-.42-.29-.9-.46-1.34a14.09 14.09 0 01-1.1-3.58c-.1-1 0-2-.12-3.05-.08-.69-.16-1.39-.19-2.08-.06-1.28.09-2.42 1.49-2.75A6.48 6.48 0 0124 31z" fill="#21b510"/><path fill="#2148a5" d="M19.76 19.72v32.86l-7.23 12.37V23.89l7.23-4.17z"/><path class="cls-4" d="M30.02 55.11l1.56.89-19.04 10.99V65.2l17.48-10.09zM18.69 34.74a.58.58 0 01.2-.13 1.42 1.42 0 011.39.41 1.18 1.18 0 01.16 1.45 4.85 4.85 0 01-1 1.53c-.38.41-.73.86-1.15 1.23-.11.09-.41.36-.57.29s0-.4 0-.55A10.13 10.13 0 0119 36.58c-.27-.16-.76-.16-.81-.55a1.74 1.74 0 01.11-.71 1.64 1.64 0 01.39-.58z"/><path fill="#f7b880" d="M30.71 50.33v4.51l-.65-.38-1.4-.81-4.78-2.76v-4.51l6.83 3.95z"/><path fill="#eda86a" d="M37.55 46.38v4.51l-.17.11-2 1.15-.48.28-1.12.63-.59.35-.23.13-.26.15-1.99 1.15v-4.51l2.77-1.6.28-.16.18-.11.01-.01.12-.06.06-.04.36-.21.05-.02v-.01l.27-.16 2.74-1.57z"/><path fill="#f7c68d" d="M37.55 46.38l-2.73 1.58-1.06.61-3.05 1.76-6.83-3.95 3.04-1.76 1.06-.61 2.73-1.58 6.84 3.95z"/><path fill="#d69e67" d="M34.54 48.12l-1.06.61-1.3-.75-2.38-1.38-.47-.27-2.38-1.37-.31-.18 1.06-.61 1.37.79 2.38 1.37.47.27 2.38 1.38.24.14z"/><path class="cls-15" d="M33.48 48.73v1.51l.18-.38.17.18.18-.38.18.17.17-.38.18.18v-1.51l-1.06.61z"/><path class="cls-15" d="M27.24 44.44l-.1.06 6.81 4 .12-.07c-1.85-1.1-6.68-3.87-6.83-3.99z"/><path d="M25.32 48.53v2.74l4.92 2.84v-2.75zm4.79 5.36l-4.66-2.69v-2.45l4.66 2.69zm-4.33-4.09v-.5l.23.14.12.53.07-.42.73.42v.5c0 .34-.23.49-.51.36v.51l.41.24v.15l-.95-.55V51l.41.24v-.51a1.29 1.29 0 01-.51-.93zm4.16 3.72L29 53v-.15l.95.55zm-.75-1.42l-.1-.06.17-.6.17.79-.1-.06v.7h-.12zm.43.25l-.1-.06.17-.6.17.79-.1-.06v.7h-.12zm-2.56-1.79h.28a1.33 1.33 0 01.52.16v-.17l.13.07v.17a2.57 2.57 0 01.51.43l.28.31-.78-.42v.72c0 .25 0 .53-.29.38a.54.54 0 01-.21-.21.7.7 0 01-.09-.35l.13.08a.45.45 0 00.05.22.27.27 0 00.1.11c.08 0 .16.06.16-.31V51l-.79-.45zm.11-.41a.58.58 0 01.11-.21 1.92 1.92 0 01.11.34c0 .07 0 .1-.11.06a.24.24 0 01-.1-.2zm.41.24a.58.58 0 01.11-.21 1.92 1.92 0 01.11.34c0 .07 0 .1-.11.06a.24.24 0 01-.1-.2zm.46.27a.58.58 0 01.11-.21 1.92 1.92 0 01.11.34c0 .07 0 .1-.11.06a.24.24 0 01-.1-.21zm.41.24a.58.58 0 01.11-.21 1.92 1.92 0 01.11.34c0 .07 0 .1-.11.06a.24.24 0 01-.1-.21z" fill="#453224"/><path d="M24.77 51.57a.81.81 0 01-.4-.48c.11 0 .23.08.32.12a2.59 2.59 0 00.57.19 5.32 5.32 0 01.62.11c.15.05.31.17.48.15s-.11-.47-.14-.64-.06-.53.15-.65c.44-.24.79.56.92.87a7.59 7.59 0 01.32.85.79.79 0 01-.76 1.12 1.6 1.6 0 01-1.24-.34 4.73 4.73 0 01-.55-.64 1 1 0 01-.29-.66z" style="mix-blend-mode:multiply" fill="#ebe4d3"/><path class="cls-18" d="M26.33 54.44c-1.05-.16-2.12-2.33-2-3.36.33.14.59.4.94.54s.74.48 1.13.4c0-.29-.63-1.76.34-1.44.29.1.29.62.44.86.32.5.94.77 1.06 1.4.16.86-1.13 1.71-1.91 1.6z"/><path d="M28.36 73.85c-1.07-.72-4-2.23-2.64-3.7.52-.57 1.55-.39 2.26-.38 1.22 0 1.79.9 2.67 1.61s2.2 1.38 1.69 2.55c-.8 1.84-2.74.78-3.9 0zm13.79 5.55a4.26 4.26 0 01-.9-.45c-.91-.59-2.92-1.89-1.78-3.14.52-.57 1.55-.39 2.26-.38s.94.34 1.48.56a2.36 2.36 0 001.24.17c.9 0 1.87.1 2.09 1.15a1.57 1.57 0 01-1 1.7 4.17 4.17 0 01-3.39.39z" fill="#1f3336"/><path class="cls-20" d="M33.9 66.17c-.22.15-.76.39-.91.62s0 .31-.08.68a23.16 23.16 0 00.24 4.08 2.22 2.22 0 01-4.06 1.23c-.71-1.12-.33-2.61-.48-3.85s-.55-3.83.37-5S31.09 62.06 32 61s2.2-1.93 3.31-2.91c.25-.22.81-.88 1.25-.91 1.91-.12 3.33 2.58 3 4.2-.19 1-1.59 1.72-2.26 2.41a22.67 22.67 0 01-3.4 2.38z"/><path class="cls-20" d="M42.78 77.48c-1.16-1.15-1.35-3.07-1.89-4.54-1.12-3.09-2.52-6.06-3.44-9.22-.77-2.63-.83-6 2.85-5.81a2 2 0 011.32.55c.86.92 1 3.21 1.33 4.41.47 1.87.93 3.74 1.56 5.56a39.4 39.4 0 011.11 5.24c.16.77.89 2.49.61 3.27s-1.92 1.08-2.71 1a1.36 1.36 0 01-.74-.46z"/><path class="cls-21" d="M39.27 60.39a5.53 5.53 0 002.86-1.14c.79-.88.42-2.61.41-3.66 0-1.67-.17-3.34-.09-5 .06-1.18.51-2.2.51-3.37 0-1.93-.58-3.59-2.8-3.57a8.13 8.13 0 00-6.1 2.6 5.09 5.09 0 00-1.2 2.82c-.1 1.16.52 2.21.35 3.32a19.66 19.66 0 00-.21 3.2c0 1.55.31 3.69 1.49 4.79s3.39.32 4.78.01z"/><path class="cls-21" d="M32.23 51.17c-.1.26-.2.51-.32.77a2.81 2.81 0 01-.22.37c-.28.22-1-.05-1.38-.13a6.86 6.86 0 00-2.55-.49A2.72 2.72 0 0026 53.58c-.47 2.22 1.9 2.09 3.4 2.23a23.35 23.35 0 002.87.26 1.2 1.2 0 001.12-.56 7 7 0 01.82-.9 16.39 16.39 0 002-2.62 9.54 9.54 0 001.34-2.31 3.36 3.36 0 00-.67-3.48c-1.1-1.24-2.51-.25-3 .91-.33.76-.59 1.58-1 2.32a18.69 18.69 0 00-.65 1.74z"/><path class="cls-22" d="M35.45 44.77c-.34 0-.9.61-.85 1a13.5 13.5 0 001.89-.24 11.12 11.12 0 011.58 0c.75.07 2.41-.2 2.57-1.12.36-1.87-4.39.05-5.19.36z"/><path class="cls-18" d="M40.24 43c.1-.17.19-.35.28-.52a6.25 6.25 0 00.61-3.51 4.13 4.13 0 00-1.87-3 3.56 3.56 0 00-5.12 2.31 15.41 15.41 0 00-.25 3.39c0 1 .08 2.24.94 2.81a2.38 2.38 0 001.3.31c1.59.04 3.25-.35 4.11-1.79z"/><path class="cls-23" d="M35.95 41c.51-.84 1.31.5 1.35 1a1.29 1.29 0 01-.63 1.13c.08.2.26.19.37.31s.06.3.31.41c.53.22 1.75-.28 2.23-.54a1.65 1.65 0 000 .26c.19 0 .3-.15.44-.29 0 .33 0 .83.37 1 .27-.52.09-1.2.31-1.75a10.68 10.68 0 00.64-2.3 5.18 5.18 0 00-.34-3.37c-.66-1.23-2.57-1.7-3.9-1.5a3.32 3.32 0 00-2.1 1.07 5.38 5.38 0 00-.74 2.93c0 .53.05.34.36.55a.91.91 0 01.48.54c.09.24 0 .64.13.83s.39.25.47.33c.17-.09.2-.34.25-.61z"/><path class="cls-21" d="M34.76 38.78c-.32-.06-.61-.39-.88-.56s-.68-.3-1-.5a3.7 3.7 0 01-.89-1c-.29-.43-.37-.76 0-1.17a3 3 0 01.74-.61 2.24 2.24 0 011.94-.06 4.31 4.31 0 011.49.78c.32.25.78.6.68 1.07s-.69.93-1.06 1.2a2.28 2.28 0 01-1 .45c0 .06 0 .17-.02.4z"/><path class="cls-22" d="M34.9 38.53c-.32-.06-.61-.39-.88-.56s-.68-.3-1-.5a3.7 3.7 0 01-.89-1c-.29-.43-.37-.76 0-1.17a3 3 0 01.74-.61 2.24 2.24 0 011.94-.06 4.31 4.31 0 011.49.78c.32.25.78.6.68 1.07s-.69.93-1.06 1.2a2.28 2.28 0 01-1 .45c0 .06 0 .17-.02.4z"/><path class="cls-21" d="M41.42 36a3.55 3.55 0 00-2.22-1.54 4 4 0 00-3.18.46 4.6 4.6 0 00-1.44 1.33 2.85 2.85 0 00-.4.86A2.74 2.74 0 0034 38c.09.51.83 1 1.21 1.26a10.73 10.73 0 001.68.92 5.7 5.7 0 001.84.58 5 5 0 002.24-.39c.72-.36.8-1.57.85-2.21a4.35 4.35 0 00-.4-2.16zm-.3 3.83a5.09 5.09 0 01-1.26.42.7.7 0 00-.25.07 1 1 0 010-.7c.07-.21.06-.16.24-.17a1.83 1.83 0 00.46-.07 1.65 1.65 0 00.93-.6 2.62 2.62 0 010 1z"/><path class="cls-18" d="M26.46 28.33v.05A13.5 13.5 0 0125 31a3 3 0 01-1.56 1.33 2.2 2.2 0 01-2.3-1.12 5.38 5.38 0 01-.59-2.65 7.49 7.49 0 01.25-2.46 3.13 3.13 0 014-2.1 2.76 2.76 0 011.87 1.7 3.92 3.92 0 01-.21 2.63z"/><path class="cls-23" d="M21.3 27.42c-.16-.42-.39-.71-.63-.16a2.55 2.55 0 00.24 1.74.44.44 0 00-.24.36A5.23 5.23 0 0120.9 25c1.16-1.78 4.79-2.11 5.87-.11a7.8 7.8 0 01.52.88 4.05 4.05 0 01.14 1.06h-.11c0-.11-.11-.21-.13-.32 0 .42-.24 1-.69 1.06 0-.24.09-.4 0-.64a2.08 2.08 0 00-.53-.8c-.11.38-.45.91-.91.82v-.31c-.25.19-.61.49-.95.43a1 1 0 01.23-.4 2 2 0 01-1.13.36 5.66 5.66 0 00-.1-.73 4.14 4.14 0 00-.81.82c-.16.29 0 .68-.24 1a1.33 1.33 0 01-.63.32 2.76 2.76 0 00-.13-1.02z"/><path d="M23.59 36.42c.58-.25.07-2.39.17-2.9a1.54 1.54 0 011-1.41c1.47-.52 1.35 2.79 1.33 3.44 0 1.08-.22 2.65-1.36 3.11a5.51 5.51 0 01-2.77 0 11.65 11.65 0 01-2-.22c-.09-.79.3-2.33 1.2-2.26.76.05 1.76.53 2.43.24z" fill="#23c211"/><path d="M20.19 38.26c-.14-.09 0-.5 0-.63a2.12 2.12 0 01.33-.85c.18-.27.62-.76.63-.06a2.93 2.93 0 01-.14 1 1.41 1.41 0 01-.39.56c-.07.05-.37.07-.43-.02z" fill="#1da30e"/><path class="cls-18" d="M21.14 36.75a3 3 0 00-2.14-.36c-.59.1-1.19 1.06-.65 1.54a1.39 1.39 0 001.48.22 2 2 0 01.53-.24c.1 0 .26.13.36.09.28-.11.54-.92.42-1.25z"/></g></g></g></svg>