<svg xmlns="http://www.w3.org/2000/svg" viewBox="0 0 37.81 86.32"><defs><style>.cls-2{fill:#1f3336}.cls-6{fill:#edb58e}.cls-11{fill:#ba8552}.cls-14{fill:#36a9e1}.cls-15{fill:#3bbaf7}.cls-16{fill:#fabf96}.cls-18{fill:#d1ccc0;mix-blend-mode:multiply}</style></defs><g style="isolation:isolate"><g id="Слой_2" data-name="Слой 2"><g id="Layer_3" data-name="Layer 3"><path class="cls-2" d="M20.13 74.45c-.05.64-3.34 3.68-6.27 6a5.54 5.54 0 01-3.22 1 10.07 10.07 0 01-1.34 0 11 11 0 01-2.08-.44l-.41-.14c-1.7-.62-2.94-1.66-2.8-2.83.34-2.81 2.7-3.95 4.6-4.32a7.89 7.89 0 002.46-1 4.87 4.87 0 001.14-.94l4.14-.92 2.89-.64c.46.32.72 1.61.84 2.71a10.52 10.52 0 01.05 1.52z"/><path d="M19.91 53c-.65 3.44-1 5.89-1 5.89S20 69.07 20.59 71a1.75 1.75 0 01-.53 1.86 5.44 5.44 0 01-3 1.13h-.9a13 13 0 01-1.36 0h-.43l-.37-.08a8.68 8.68 0 01-1.22-.3l-.3-.12-.31-.13a1.6 1.6 0 01-.29-.15l-.15-.09a.57.57 0 00-.13-.08 2 2 0 01-.39-.3v-.05s-.05 0-.08-.06a1.86 1.86 0 01-.51-.9 116 116 0 01-2-13.21 12.25 12.25 0 01.08-1.61v-.56c.28-2.51.9-6.51 1.4-9.56.38-2.29.69-4 .75-4.26.15-.62 11.54-.53 11.54-.53-.44 1.63-.85 3.31-1.22 5-.49 2.1-.91 4.22-1.26 6z" fill="#335359"/><path class="cls-2" d="M29.57 79.36c-.06.65-3.35 3.68-6.27 6a6.66 6.66 0 01-4.9.89c-2.67-.36-5.16-1.73-5-3.36a4.63 4.63 0 011.36-2.76 5 5 0 011-.76 7.49 7.49 0 012.2-.79 5.36 5.36 0 00.64-.18 7.81 7.81 0 001.82-.83 5 5 0 001.14-.93l1.14-.26L28.66 75c.46.32.71 1.6.84 2.71a12 12 0 01.07 1.65z"/><path d="M29.5 77.74a6.15 6.15 0 01-3.65 1.2 11.21 11.21 0 01-1.42 0l-.7-.07c-.23 0-.46-.07-.68-.12l-.62-.16-.62-.22h-.07a.67.67 0 01-.12-.06 3.4 3.4 0 01-.5-.26l-.33-.23a3.41 3.41 0 01-.28-.26 2.05 2.05 0 01-.37-.52 1.74 1.74 0 01-.14-.38c-.11-.46-.21-.95-.31-1.45-.28-1.36-.53-2.84-.75-4.27-.5-3.23-.83-6.28-.94-7.49a49.74 49.74 0 01.69-6.22c.42-2.84.93-6 1.27-7.9.18-1 .31-1.73.34-1.86.17-.61 9.35-.64 9.35-.64-.34 1.27-.63 2.56-.89 3.82a89.34 89.34 0 00-1.57 12.55S29.48 74 30 75.88a1.75 1.75 0 01-.5 1.86z" fill="#335257"/><path d="M18.68 64.54c-.15-1.95 2.12-15.38 2.29-16s6-.61 8.37-.64c.09-.38.19-.76.29-1.13 0 0-9.18 0-9.35.64s-2.44 14-2.29 16a116.72 116.72 0 002 13.21 2 2 0 00.69 1.07 117.05 117.05 0 01-2-13.15z" fill="#426970"/><path class="cls-6" d="M29.35 56.09a4.21 4.21 0 01-1.73 1.81 4.72 4.72 0 01-3.4.54 15.93 15.93 0 01-4.52-1.84l1.3-.73 3.35-1.94 3.58 1.54z"/><path fill="#f7b880" d="M14.47 42.91v16.71l-1.39-.81-2.95-1.71L0 51.26V34.55l14.47 8.36z"/><path fill="#eda86a" d="M28.94 34.55v16.72l-.37.21-4.23 2.46-1.01.58-2.36 1.35-1.27.72-.47.28-.56.32v.01l-4.2 2.42V42.91l5.86-3.39.58-.33.39-.22.02-.02.25-.15.14-.07.76-.45.09-.05h.01l.58-.35 5.79-3.33z"/><path fill="#f7c68d" d="M28.94 34.55l-5.79 3.34-2.24 1.29-6.44 3.73L0 34.55l6.44-3.72 2.24-1.29 5.79-3.35 14.47 8.36z"/><path fill="#d69e67" d="M22.57 38.23l-2.25 1.29-2.75-1.58-5.04-2.91-1-.58-5.04-2.91-.64-.37 2.25-1.29 2.88 1.66 5.04 2.91 1 .58 5.03 2.91.52.29z"/><path class="cls-11" d="M20.33 39.52v3.21l.37-.8.37.36.38-.79.37.36.37-.8.38.37v-3.2l-2.24 1.29z"/><path class="cls-11" d="M7.12 30.44l-.21.12s-.09.1 14.41 8.39l.25-.14c-3.9-2.24-14.14-8.1-14.45-8.37z"/><path d="M3 46.26v5.8l10.41 6v-5.8zM13.18 57.6l-9.86-5.7v-5.17l9.86 5.69zM4 49v-1l.5.29.26 1.12.15-.88 1.54.89v1c0 .73-.48 1-1.09.77v1.07l.87.5V53l-2-1.16v-.31l.87.5V51A2.73 2.73 0 014 49zm8.81 7.87l-2-1.16v-.31l2 1.16zm-1.59-3l-.22-.19.36-1.27.36 1.68-.21-.09v1.47l-.14-.08-.14-.08zm.92.53l-.22-.13.36-1.27.36 1.68-.22-.13V56l-.14-.08-.14-.08zm-5.41-3.8h.58a2.81 2.81 0 011.1.34v-.36l.27.16v.36a5.44 5.44 0 011.1.9l.6.65v.06l-1.68-1v1.53c0 .54-.07 1.12-.61.8a1.13 1.13 0 01-.41-.44 1.48 1.48 0 01-.19-.75l.27.18a1 1 0 00.11.47.57.57 0 00.21.23c.17.1.34.13.34-.65v-1.5l-1.67-1s-.04-.04-.01-.04zm.27-.93a1.22 1.22 0 01.23-.45 4.07 4.07 0 01.23.71c0 .15-.1.21-.23.13a.51.51 0 01-.23-.39zm.88.51a1.22 1.22 0 01.23-.45 4.07 4.07 0 01.23.71c0 .15-.1.21-.23.13a.51.51 0 01-.26-.4zm1 .56a1.22 1.22 0 01.23-.45 4.07 4.07 0 01.23.71c0 .15-.1.21-.23.13a.51.51 0 01-.28-.39zm.88.51a1.22 1.22 0 01.23-.45 4.07 4.07 0 01.23.71c0 .15-.1.21-.23.13a.51.51 0 01-.28-.4z" fill="#453224"/><path d="M23.33 54.51L19.7 56.6l2.24-1.6s-.29-3.34 1.32-3.34c.93.01.54 1.56.07 2.85z" fill="#de924e"/><path class="cls-14" d="M37.77 29.7a114.08 114.08 0 01-2.7 14.11c-.79 2.6-4.09 10.4-4.69 12s-7 .42-6.06-1.91 4.38-10.62 4.62-11v-8.35L14.47 26.2l-9.22 5.32c1.66-2.69 5.51-10.71 7.58-12.14s6.06-3.53 12.56-.73c1.46.63 2.91 1.29 4.28 2a20.9 20.9 0 016.79 4.94 6.08 6.08 0 011.28 2.74 4.68 4.68 0 01.03 1.37z"/><path class="cls-15" d="M30.63 20.22l-10.09-.41c-3.49 1.35-3.71 3.85-3.71 3.85a4.05 4.05 0 013.77.13c2.08 1.1 4.23 4.47 4.23 4.47 8.17-3.18 7.29-6.67 5.8-8.04z"/><path class="cls-6" d="M22.57 56.24c-.63-.78-.74-4.2.68-4.57s1.07 2.26 1.07 2.26z"/><path class="cls-16" d="M34.82 10.68v.73a14.17 14.17 0 01-.1 1.6 18.56 18.56 0 01-2.11 6.62 9.28 9.28 0 01-1 1.54c-.1.11-.19.22-.3.32A10.22 10.22 0 0124 24.67a8.81 8.81 0 01-2.82-.49 9.14 9.14 0 01-1.85-.88c-2.08-1.27-2.51-4-2.58-7.21v-4.53a12.26 12.26 0 01.27-2.65 9.39 9.39 0 01.48-1.58c.09-.24.2-.47.3-.69C20.62 1 28.21.1 31.83 3.46a3.24 3.24 0 01.42.41 10.47 10.47 0 012.57 6.81z"/><path class="cls-16" d="M36.59 16.66c-.38 2-2.48 2.71-4 3a9.91 9.91 0 01-1.58.16l.26-3.21.15-1.94c1.28-1.24 2.41-1.71 3.29-1.64h.05c1.44.13 2.24 1.68 1.83 3.63z"/><path d="M34.83 13h-.12c-2.91.28-3.1 3.38-3.1 3.38l-.33.19-1.17.67s-.13-2.35-.06-3.36a1.37 1.37 0 01.06-.39l.18-.19.32-.33c1.13-1.14 3.82-3.72 4.13-2.67 0 .12.06.23.08.35a4.7 4.7 0 01.1.62 6.67 6.67 0 01-.09 1.73z" fill="#63614d"/><path class="cls-14" d="M35.39 10.27a1.72 1.72 0 01-.47 1 .35.35 0 01-.1.11A7.41 7.41 0 0131 13.2c-.23.05-.48.1-.73.13s-.5.08-.76.1a15.25 15.25 0 01-4.24-.15c-5.08-.89-7.19-2.77-8-3.94a1.42 1.42 0 01-.22-.43A3 3 0 0117 7.18c0-.23.12-.52.22-.85a7.06 7.06 0 01.23-.7c.91-2.43 3.29-6 10.09-5.59a10 10 0 014.07 1.42c3.89 2.46 3.88 7.14 3.78 8.81z"/><path class="cls-14" d="M17.21 6.33c-5.08 3-7.61 6-2.26 8.93C23.24 19.81 31 13.2 31 13.2z"/><path id="_Контур_" data-name="&lt;Контур&gt;" class="cls-15" d="M17.45 5.63c-5.08 3-7.85 5.85-2.49 8.8C23.24 19 31 12.37 31 12.37c-8.27.52-14.72-3.85-13.55-6.74z"/><path class="cls-18" d="M37.74 28.35v-.11a5 5 0 00-.13-.55v-.07a5.52 5.52 0 00-.26-.64l-.06-.11q-.13-.26-.28-.51l-.1-.15c-.11-.18-.24-.35-.37-.52v-.06a18.06 18.06 0 00-5.2-4.08s.17-.17.3-.32a9.28 9.28 0 001-1.54c1.51-.28 3.61-1 4-3s-.39-3.5-1.82-3.64h.06a6.67 6.67 0 00.09-1.7 1.72 1.72 0 00.47-1c.1-1.67.11-6.35-3.78-8.81a7.78 7.78 0 01.22 2c0 2.17-.88 5.57-5.5 7.41a16.28 16.28 0 01-2.45.73l.26.08h.08l.37.1a19.28 19.28 0 005 .67 10.15 10.15 0 001.46-.1s-.23.2-.66.5c-.15.11-.32.23-.51.35l-.32.21a14.65 14.65 0 01-1.36.77c-.32.17-.67.34-1 .5l-.76.31a15.31 15.31 0 01-2.71.77 14.61 14.61 0 01-3.07.22L20 16a5.51 5.51 0 01-.57-.06c-.2 0-.39-.06-.58-.09v.84a12.92 12.92 0 01-1.75-.46 14.23 14.23 0 008.55 7s.52.87-1.6 1.5a8.81 8.81 0 01-2.82-.49c0 1.46 2.09 2 2.09 2a13.94 13.94 0 012.3 1.75v.51a6.49 6.49 0 003.34-1 32.32 32.32 0 005.89.27c1.62-.32 1.8.71 1.71 1.44a53.08 53.08 0 01-2.82 10c-1.77-3.12-3.44-2.88-3.44-2.88l-1.33-1.76v8.36c-.24.4-3.65 8.69-4.62 11s5.46 3.56 6.06 1.91 3.9-9.44 4.69-12a113.89 113.89 0 002.7-14.11 4.75 4.75 0 00-.06-1.38zM29.5 77.74a12 12 0 01.07 1.62c-.06.65-3.35 3.68-6.27 6a6.66 6.66 0 01-4.9.89c4.74-.25 7.6-4.19 7.6-4.19s.13-1.46-2.22-2.18a5.36 5.36 0 01-3.15-2.17l.11.08.33.23a3.4 3.4 0 00.5.26.67.67 0 00.12.06h.07a4.59 4.59 0 00.62.22c.21.06.42.12.62.16a5.74 5.74 0 00.68.12 6.14 6.14 0 00.7.07 9 9 0 001.42 0l-.41-1a7.26 7.26 0 01-2.66-1.55 13.49 13.49 0 01-3.85-5.43c-.5-3.23-.83-6.28-.94-7.49a49.74 49.74 0 01.69-6.22l1-.59a15.93 15.93 0 004.52 1.84 4.72 4.72 0 003.4-.54c-.35 3.14-.43 5.3-.43 5.3S29.48 74 30 75.88a1.75 1.75 0 01-.5 1.86z"/><path class="cls-18" d="M19.67 75.18a48 48 0 01-5.81 5.24 5.54 5.54 0 01-3.22 1 10.07 10.07 0 01-1.34 0 11 11 0 01-2.08-.44l-.41-.14a8.89 8.89 0 005.81-1l.73-.44a8.28 8.28 0 001-.77s.41-.41.95-.91c.3-.33.46-.55.46-.55s-.08-1.23-2.3-2.09-2.45-2.38-2.45-2.38 0 .05.08.06v.05a2 2 0 00.39.3.57.57 0 01.13.08l.15.09a1.6 1.6 0 00.29.15l.31.13.3.12a8.68 8.68 0 001.22.3l.45.06h.43a13 13 0 001.36 0h.9l-.77-3.2-.68-2.87c-5.46-2.91-6.86-7-7.1-9.38a12.25 12.25 0 01.08-1.61v-.56L13 58.85h.05l1.39.8 4.2-2.42a49.74 49.74 0 00-.64 6.19c.11 1.21.44 4.26.94 7.49.2 1.43.45 2.91.73 4.27z"/><path d="M5.37 76.09a1.56 1.56 0 011-.87c.54-.12 1-.13 1.15.49.28 1.1-1.7 1.82-2.13.78a.57.57 0 01-.02-.4zm10.13 4.78a1.56 1.56 0 011-.87c.54-.12 1-.13 1.15.49.28 1.1-1.7 1.82-2.13.78a.57.57 0 01-.02-.4z" style="mix-blend-mode:soft-light" fill="#c9fffb" opacity=".5"/></g></g></g></svg>