<svg xmlns="http://www.w3.org/2000/svg" viewBox="0 0 79.11 80.57"><defs><style>.cls-2{fill:#383431}.cls-3{fill:#48433f}.cls-4{fill:#302d2a}.cls-5{fill:#8db0a1}.cls-6{fill:#b2e3df}.cls-8{fill:#c1e8e5}.cls-9{fill:#54695e}.cls-10{fill:#647d70}.cls-11{fill:#181f33}.cls-12{fill:#0d2b86}.cls-13{fill:#244fb5}.cls-15{fill:#d1dbd3}.cls-16{fill:#c8d1c9}.cls-17{fill:#cfe8dc}</style></defs><g style="isolation:isolate"><g id="Слой_2" data-name="Слой 2"><g id="Layer_3" data-name="Layer 3"><path class="cls-2" d="M63.71 58.39l6.9-11.59-4.17-2.39a2.27 2.27 0 00-.36-.2 3.47 3.47 0 00-3.18.43 10.55 10.55 0 00-4.77 8.27 3.43 3.43 0 001.28 3l.23.14z"/><path class="cls-3" d="M72 49.87a10.55 10.55 0 01-4.77 8.27c-2.64 1.52-4.77.29-4.77-2.76a10.55 10.55 0 014.77-8.27c2.62-1.51 4.77-.28 4.77 2.76z"/><path class="cls-4" d="M70.22 51.57a5.32 5.32 0 01-2.4 4.16c-1.22.71-2.23.24-2.39-1v-.37a5.32 5.32 0 012.41-4.16 1.66 1.66 0 01.33-.16c1.15-.51 2.05.13 2.05 1.53z"/><path class="cls-5" d="M68.55 51.14a4.29 4.29 0 01-1.94 3.36 1.45 1.45 0 01-1.18.21v-.37a5.32 5.32 0 012.41-4.16 1.66 1.66 0 01.33-.16 1.48 1.48 0 01.38 1.12z"/><path class="cls-6" d="M65.57 52.65l-13.85 8v2.17l13.85-8v-2.17z"/><path fill="#9fc7b5" d="M65.58 52.65l-13.86 8-.95-.54-.93-.54 13.86-8.01.94.55.94.54z"/><path class="cls-8" d="M65.58 52.65l-13.86 8-.95-.54 13.87-8 .94.54z"/><path class="cls-8" d="M49.84 59.56v2.17l1.88 1.09v-2.17l-1.88-1.09z"/><path class="cls-9" d="M48.43 62.82l1.41.81 1.88-.81-1.88-1.09v-2.17l13.86-8s1.69-3.35 4.12-4.34 3.59.63 3.85 2.11l3-1.72V42L48.43 57.19zM12.39 44.86l-.86-.86a3.34 3.34 0 01-.88-2l.54-4.76c.08-.66 1-1.35 1.27-1.07l.86.85a2.37 2.37 0 01.38 1.7l-.7 5.47c0 .66-.33.96-.61.67z"/><path class="cls-10" d="M11.67 43.77l-.7-.69a1.93 1.93 0 01-.31-1.39l.53-4.43c.06-.53.3-.78.54-.55l.7.69a1.93 1.93 0 01.31 1.39l-.53 4.43c-.07.54-.31.78-.54.55z"/><path class="cls-11" d="M38.41 62.52c2.59 3.88-.33 8.48-4.23 3.77s4.23-3.77 4.23-3.77z"/><path class="cls-2" d="M30.68 76.93l6.9-11.59-4.17-2.39a2.27 2.27 0 00-.36-.2 3.47 3.47 0 00-3.18.43 10.55 10.55 0 00-4.77 8.27 3.43 3.43 0 001.28 3l.23.14z"/><path class="cls-8" d="M27.43 15.82v29.25l24.29 14.02V29.84L27.43 15.82z"/><path class="cls-12" d="M48.43 32.94v31.25l-9.79 5.65v-1.77c.11-4.17-3.36-5.32-6.8-2.22a12.81 12.81 0 00-3.53 5.72 14.59 14.59 0 00-.39 4.48l-6.49 3.74a1.17 1.17 0 01-.83.18c-.39-.08-.64-.44-.64-1v-4.16c0-6.61 6.13-12.31 9.7-18.9.25-.46.5-.93.73-1.39 3.55-7 5.55-14.36 11.59-17.85z"/><path class="cls-5" d="M29.18 21.84v7.46l-6.48-3.73 6.48-3.73z"/><path class="cls-3" d="M39 68.41a10.55 10.55 0 01-4.77 8.27c-2.64 1.52-4.77.29-4.77-2.76a10.55 10.55 0 014.77-8.27c2.59-1.52 4.77-.28 4.77 2.76z"/><path class="cls-4" d="M37.18 70.11a5.32 5.32 0 01-2.4 4.16c-1.22.71-2.23.24-2.39-1v-.37a5.32 5.32 0 012.41-4.16 1.66 1.66 0 01.33-.16c1.15-.51 2.05.13 2.05 1.53z"/><path class="cls-5" d="M35.51 69.68A4.29 4.29 0 0133.57 73a1.45 1.45 0 01-1.18.21v-.37a5.32 5.32 0 012.41-4.16 1.66 1.66 0 01.33-.16 1.48 1.48 0 01.38 1.16z"/><path class="cls-13" d="M48.42 32.95l-6.47 3.72-12.77-7.37-6.48-3.73 6.48-3.73 19.24 11.11z"/><path class="cls-13" d="M42 36.67c-6 3.49-8 10.83-11.59 17.85-.23.46-.48.93-.73 1.39-3.57 6.59-9.7 12.29-9.7 18.9V79c0 .58.25.94.64 1h-.1C18.63 80.17 4 71.89 1.24 69.07 1 68.78.8 68.55.8 68.39a1.52 1.52 0 01-.1-.56 28.87 28.87 0 01.13-4.46A30.2 30.2 0 016 51.52a74.75 74.75 0 004.35-6.72c1.71-3.15 3-6.42 4.48-9.42.05-.11.1-.22.16-.33.13-.28.27-.56.41-.83l.11-.21c.28-.57.57-1.11.88-1.64a17.41 17.41 0 016.28-6.81l6.47 3.73z"/><path d="M41 36.12c-3.91 2.29-6.8 7.53-8.63 12S28.07 58.14 24.5 60s-7.64 4.88-7.5 10 1.07 8.81 2.54 9.72a2.21 2.21 0 002.72-.5s-1.84-5.36 1.37-8.71 4.27-6.27 5.37-9.75C35.51 40.23 42 36.6 42 36.6zM10.39 44.8c1.71-3.15 3-6.42 4.48-9.42-1.19 2.69-3.17 8.14-4.73 10.75-1.78 3-2.82 3.54-3.33 7.15a10.58 10.58 0 01-4.25 7.56C.29 62.54 1 65.27 1.24 69.07 1 68.78.8 68.55.8 68.39a1.52 1.52 0 01-.1-.56 28.87 28.87 0 01.13-4.46A30.2 30.2 0 016 51.52a74.75 74.75 0 004.39-6.72z" fill="#2148a5"/><path class="cls-6" d="M16.43 32.37c-.25.52-.58 1.11-.88 1.64.28-.57.57-1.11.88-1.64z"/><path class="cls-12" d="M17 68.87c2.22-4.35 6.53-6.41 8.18-7.21S25.16 68 24 68.87s-7.64 1.35-7 0z"/><path class="cls-15" d="M17.46 68.57c2-3.95 5.92-5.82 7.42-6.54s-.06 5.71-1.08 6.54-6.97 1.23-6.34 0z"/><path class="cls-16" d="M22.86 67.82a1.47 1.47 0 01-2 1.18 2.35 2.35 0 01-1.44-2.49 1.47 1.47 0 012-1.18 2.35 2.35 0 011.44 2.49z"/><path class="cls-17" d="M22.09 67.53a.82.82 0 01-1.14.66 1.31 1.31 0 01-.8-1.38.82.82 0 011.14-.66 1.31 1.31 0 01.8 1.38z"/><path class="cls-16" d="M24.7 65.08a1 1 0 01-1.34.77 1.55 1.55 0 01-.94-1.63 1 1 0 011.34-.77 1.55 1.55 0 01.94 1.63z"/><path class="cls-17" d="M24.21 64.89a.55.55 0 01-.77.44.88.88 0 01-.54-.93.55.55 0 01.77-.44.88.88 0 01.54.93z"/><path class="cls-12" d="M5.55 52.23a26.18 26.18 0 00-2.4 6.6C3 59.52 2.57 61 2.22 60A4.64 4.64 0 012 59c-.25-1.89 1.63-4.52 2.76-5.89.42-.48.73-.82.79-.88z"/><path class="cls-17" d="M4.77 53.14A28.14 28.14 0 003 58.55c-.1.58-.45 1.76-.77 1.47A4.64 4.64 0 012 59c-.24-1.86 1.64-4.49 2.77-5.86z"/><path class="cls-12" d="M15 68a1.19 1.19 0 01-.59-.16L4.34 62.16A1.19 1.19 0 014 60.45c2.88-4.16 3.27-6.54 3.55-8.27 0-.29.09-.57.15-.83a10 10 0 011.92-3.65 1.2 1.2 0 011.54-.3l15.2 8.78a1.21 1.21 0 01.6.93 1.16 1.16 0 01-.4 1 17.29 17.29 0 01-3.22 2.09 15.89 15.89 0 00-7.21 7.15A1.19 1.19 0 0115 68zm-.46-.37a.93.93 0 00.75.08 1 1 0 00.57-.52A16.14 16.14 0 0123.18 60a17.06 17.06 0 003.17-2.06.91.91 0 00.31-.79 1 1 0 00-.47-.74L11 47.6a1 1 0 00-1.22.24 10.06 10.06 0 00-1.88 3.55c-.05.26-.1.53-.14.82-.29 1.76-.68 4.17-3.59 8.38a.95.95 0 00.31 1.36z"/><path class="cls-15" d="M10.27 66.1l-2.72-1.49L2.74 62l-.26 1.26a.26.26 0 00.13.28l1.38.8a8.76 8.76 0 013.19 3.13 2.63 2.63 0 001.21 1.1 1.83 1.83 0 00.59.14 10.34 10.34 0 014.61 1.16l2 1.13a.26.26 0 00.39-.18l.23-1.25a.26.26 0 00-.13-.28z"/><path class="cls-15" d="M15.54 71.5V76L2.47 68.27v-4.34h.08a10.07 10.07 0 011.68 1 11.76 11.76 0 011.45 1.25 8.05 8.05 0 01.62.67c.19.23.38.47.56.73l.15.21c.08.12.16.24.24.34a3.77 3.77 0 001 .95l.18.1a1.54 1.54 0 00.53.16h2.34a3.19 3.19 0 011.16.26h.08c.69.36 1.43.81 2 1.16l.39.24z"/><path d="M15.54 75.08v.4L2.46 67.93v-.41zm0-.73v.41L2.45 67.2v-.42zm0-.71v.39l-13.1-7.56v-.41l13.1 7.58zm0-.74v.41l-7.09-4.1-.18-.1-5.83-3.36v-.41l4.83 2.79a3.77 3.77 0 001 .95l.18.1a1.54 1.54 0 00.53.16h.47zm-8.65-5.32L2.45 65v-.41l3.88 2.24c.19.25.38.49.56.75zm8.65 4.59v.41L10 69.4h.73zm-9.83-5.99L2.46 64.3v-.4h.08l1.68 1a11.76 11.76 0 011.49 1.28zm9.83 5.32v.36l-4.21-2.43a3.19 3.19 0 011.16.26l2.08 1.19.39.24z" fill="#979e98"/><path class="cls-11" d="M39.51 68v-.23a4.74 4.74 0 00-2.17-4.42c-1.12-.58-3.11-.74-6.2 1.78l-.2.17v-7.69c.46-2.69 5.86-14.71 7.74-16.78s8.53-5.41 8.82-5.56l.18-.09V63.3zm-3.68-5.27a3.53 3.53 0 011.64.39 5 5 0 012.32 4.43l7.65-4.42V35.59c-1.11.58-7 3.67-8.56 5.41S31.7 54.79 31.2 57.65v7.14a7.74 7.74 0 014.62-2.03z"/><path d="M40.5 40.85c1.35-.92 5.87-3.44 6.16-3.59s.1 8.78 0 11.93a1.86 1.86 0 01-1 1.6l-11.6 6.33a.73.73 0 01-1-.93c1.44-4.58 4.86-13.59 7.44-15.34z" fill="#23293b"/><path d="M33.75 56.69a.18.18 0 01-.14-.08.3.3 0 010-.27c1.63-5.34 5-13.54 7.21-15.07 1.07-.73 4.14-2.47 5.48-3.21.06 1.53 0 5.63-.06 11.13a1.37 1.37 0 01-.71 1.17l-11.7 6.32z" fill="#2ea9c7"/><path class="cls-9" d="M17 70.93c.15 2 0 5.89-1.5 5S3.8 69 2.47 68.27s-1.19-3.76-1-4.62a15.79 15.79 0 00.31-2s-.33-.12-.35-.91c0 0-.84.54-1.15 3S-.16 68.21.29 69 3 71.67 8 74.76s11 6.34 13.29 5.73 6.12-3.56 6.12-3.56l-.13-4S23 75 23.63 70.59a13.24 13.24 0 01-6.63.34zm23.66-13.55a.83.83 0 01-1.06.82l-1.78-.4a1.47 1.47 0 01-1.08-1.36v-5.06a.84.84 0 011.07-.87l1.78.4a1.4 1.4 0 01.38.16 1.47 1.47 0 01.7 1.2z"/><path class="cls-10" d="M39.92 57.05a.69.69 0 01-.87.71l-1.45-.33a1.18 1.18 0 01-.87-1 .28.28 0 010-.09v-4.18a.19.19 0 010-.08.67.67 0 01.86-.62l1.11.25.34.08a1.19 1.19 0 01.88 1.1v3.2z"/><path d="M11.69 39c-.54 0-.48 1.22-.53 2s-.78 3.89-.78 3.89 1-1.9 1.31-2.57l.48-1s.45-2.32-.48-2.32zm27.57 15.93a.59.59 0 01-.09.24c-.46.7-.52.45-1.31.57a5.29 5.29 0 00-1.13.47c-1.52.74-4 2.08-4.85 2.07-1.15 0-.13-2 .36-2.93s.64-.21 1.09 0c.29.15 2.1-.58 3.39-1.13l1.28-.53c.47-.3 1.39.55 1.26 1.24z" fill="#415248"/><path d="M36.69 39.77C34.77 41.56 28.33 56 28.33 56q-4.65-2.12-8.63-4.28l-1.59-.88c-.55-.3-1.09-.61-1.62-.92-1-.57-1.93-1.14-2.85-1.72l-.86-.54-1.47-.93-.86-.58S17 31 18.72 29.82a17.63 17.63 0 005.08 4.39c.56.33 1.15.67 1.78 1s1 .53 1.56.79c.78.38 1.62.76 2.5 1.13s1.83.76 2.83 1.15l1.68.61c.85.3 1.66.59 2.54.88z" fill="#47cded"/><path class="cls-6" d="M51.72 29.84v29.25l27.39-15.82V14.02L51.72 29.84z"/><path fill="#c6efed" d="M54.83 0l-27.4 15.82 24.29 14.02 27.39-15.82L54.83 0z"/><path style="mix-blend-mode:multiply" fill="#afd9d4" d="M48.42 32.95l3.3 5.08v21.06l-3.3-1.9V32.95z"/><path d="M29.64 37.14q-4.47 3.91-8.76 8.25-2.22 2.25-4.39 4.48c-1-.57-1.93-1.14-2.85-1.72 3.25-3 6.55-5.94 9.83-9 1.2-1.1 2.43-2.16 3.67-3.18.78.42 1.62.8 2.5 1.17zm-4.06-1.92c-4.29 4.1-8.55 8.26-12.8 12.39l-1.47-.93c1.71-1.92 3.47-3.8 5.32-5.65q3.49-3.52 7.17-6.82c.56.33 1.15.67 1.78 1.01zm8.57 3.68l-.26.21c-4.9 4.1-9.57 8.34-14.19 12.56l-1.59-.88c4.3-3.53 8.64-7.11 12.8-11.11.51-.49 1-.95 1.56-1.39z" style="mix-blend-mode:soft-light" fill="#c9fffb" opacity=".3"/><path d="M72.58 22.98L53.24 34.15v-2.4l19.34-11.17v2.4zm-5.16 6.89l-14.18 8.19v-2.4l14.18-8.19v2.4zm-5.41 7.03l-8.77 5.07v-2.4l8.77-5.07v2.4z" fill="#7fb39a"/></g></g></g></svg>