<svg xmlns="http://www.w3.org/2000/svg" xmlns:xlink="http://www.w3.org/1999/xlink" viewBox="0 0 155.92 94.1"><defs><linearGradient id="Ѕезым_нный_градиент_2" x1="53.24" y1="-16842.34" x2="99.77" y2="-16761.76" gradientTransform="matrix(1 0 0 -1 0 -16753.85)" gradientUnits="userSpaceOnUse"><stop offset="0" stop-color="#ededed"/><stop offset="1" stop-color="#e6e6e6"/></linearGradient><linearGradient id="Ѕезым_нный_градиент_34-7" x1="143.51" y1="-16788.53" x2="136.55" y2="-16800.6" xlink:href="#Ѕезым_нный_градиент_34"/><linearGradient id="Ѕезым_нный_градиент_35" x1="106.67" y1="-16761.39" x2="94.81" y2="-16781.92" gradientTransform="matrix(1 0 0 -1 0 -16753.85)" gradientUnits="userSpaceOnUse"><stop offset=".13" stop-color="#68737b"/><stop offset=".13" stop-color="#6c7880"/><stop offset=".44" stop-color="#6c7880"/><stop offset=".44" stop-color="#50585e"/><stop offset=".84" stop-color="#50585e"/><stop offset=".84" stop-color="#3b4145"/></linearGradient><linearGradient id="Ѕезым_нный_градиент_35-2" x1="112.34" y1="-16764.59" x2="100.49" y2="-16785.13" xlink:href="#Ѕезым_нный_градиент_35"/><linearGradient id="Ѕезым_нный_градиент_40" x1="112.7" y1="-16780.44" x2="106.76" y2="-16773.15" gradientTransform="matrix(1 0 0 -1 0 -16753.85)" gradientUnits="userSpaceOnUse"><stop offset=".13" stop-color="#dbe0e3"/><stop offset=".13" stop-color="#e0e5e8"/><stop offset=".44" stop-color="#e0e5e8"/><stop offset=".44" stop-color="#c0c4c6"/><stop offset=".84" stop-color="#c0c4c6"/><stop offset=".84" stop-color="#a8abad"/></linearGradient><linearGradient id="Ѕезым_нный_градиент_34" x1="113.53" y1="-16771.1" x2="106.57" y2="-16783.17" gradientTransform="matrix(1 0 0 -1 0 -16753.85)" gradientUnits="userSpaceOnUse"><stop offset=".16" stop-color="#797b7d"/><stop offset=".16" stop-color="#919496"/><stop offset=".56" stop-color="#919496"/><stop offset=".56" stop-color="#b1b5b8"/><stop offset=".87" stop-color="#b1b5b8"/><stop offset=".87" stop-color="#acb0b3"/></linearGradient><linearGradient id="Ѕезым_нный_градиент_34-2" x1="111.19" y1="-16771.83" x2="106.32" y2="-16780.27" xlink:href="#Ѕезым_нный_градиент_34"/><linearGradient id="Ѕезым_нный_градиент_34-3" x1="110.74" y1="-16774.78" x2="108.52" y2="-16778.64" xlink:href="#Ѕезым_нный_градиент_34"/><linearGradient id="Ѕезым_нный_градиент_35-3" x1="86.27" y1="-16773.16" x2="74.41" y2="-16793.7" xlink:href="#Ѕезым_нный_градиент_35"/><linearGradient id="Ѕезым_нный_градиент_35-4" x1="91.94" y1="-16776.37" x2="80.08" y2="-16796.91" xlink:href="#Ѕезым_нный_градиент_35"/><linearGradient id="Ѕезым_нный_градиент_40-2" x1="92.29" y1="-16792.21" x2="86.35" y2="-16784.93" xlink:href="#Ѕезым_нный_градиент_40"/><linearGradient id="Ѕезым_нный_градиент_34-4" x1="93.13" y1="-16782.88" x2="86.16" y2="-16794.95" xlink:href="#Ѕезым_нный_градиент_34"/><linearGradient id="Ѕезым_нный_градиент_34-5" x1="90.79" y1="-16783.61" x2="85.91" y2="-16792.05" xlink:href="#Ѕезым_нный_градиент_34"/><linearGradient id="Ѕезым_нный_градиент_34-6" x1="90.34" y1="-16786.56" x2="88.12" y2="-16790.42" xlink:href="#Ѕезым_нный_градиент_34"/><linearGradient id="Ѕезым_нный_градиент_35-5" x1="136.65" y1="-16778.81" x2="124.79" y2="-16799.35" xlink:href="#Ѕезым_нный_градиент_35"/><linearGradient id="Ѕезым_нный_градиент_35-6" x1="142.33" y1="-16782.02" x2="130.47" y2="-16802.56" xlink:href="#Ѕезым_нный_градиент_35"/><linearGradient id="Ѕезым_нный_градиент_40-3" x1="143.61" y1="-16787.47" x2="135.81" y2="-16800.98" xlink:href="#Ѕезым_нный_градиент_40"/><linearGradient id="Ѕезым_нный_градиент_21-2" x1="75.86" y1="-16803.93" x2="80.04" y2="-16803.93" xlink:href="#Ѕезым_нный_градиент_21"/><linearGradient id="Ѕезым_нный_градиент_10" x1="141.17" y1="-16789.26" x2="136.3" y2="-16797.7" gradientTransform="matrix(1 0 0 -1 0 -16753.85)" gradientUnits="userSpaceOnUse"><stop offset=".13" stop-color="#acb0b3"/><stop offset=".13" stop-color="#b1b5b8"/><stop offset=".44" stop-color="#b1b5b8"/><stop offset=".44" stop-color="#919496"/><stop offset=".84" stop-color="#919496"/><stop offset=".84" stop-color="#797b7d"/></linearGradient><linearGradient id="Ѕезым_нный_градиент_34-8" x1="140.73" y1="-16792.21" x2="138.5" y2="-16796.07" xlink:href="#Ѕезым_нный_градиент_34"/><linearGradient id="Ѕезым_нный_градиент_35-7" x1="116.25" y1="-16790.59" x2="104.39" y2="-16811.13" xlink:href="#Ѕезым_нный_градиент_35"/><linearGradient id="Ѕезым_нный_градиент_35-8" x1="121.92" y1="-16793.8" x2="110.06" y2="-16814.33" xlink:href="#Ѕезым_нный_градиент_35"/><linearGradient id="Ѕезым_нный_градиент_40-4" x1="123.21" y1="-16799.25" x2="115.41" y2="-16812.76" xlink:href="#Ѕезым_нный_градиент_40"/><linearGradient id="Ѕезым_нный_градиент_34-9" x1="123.11" y1="-16800.31" x2="116.14" y2="-16812.38" xlink:href="#Ѕезым_нный_градиент_34"/><linearGradient id="Ѕезым_нный_градиент_10-2" x1="120.77" y1="-16801.04" x2="115.9" y2="-16809.48" xlink:href="#Ѕезым_нный_градиент_10"/><linearGradient id="Ѕезым_нный_градиент_34-10" x1="120.32" y1="-16803.99" x2="118.1" y2="-16807.85" xlink:href="#Ѕезым_нный_градиент_34"/><linearGradient id="Ѕезым_нный_градиент_28" x1="105.33" y1="-16779.95" x2="113.42" y2="-16779.95" gradientTransform="matrix(1 0 0 -1 0 -16753.85)" gradientUnits="userSpaceOnUse"><stop offset=".16" stop-color="#4d4e4f"/><stop offset=".16" stop-color="#646668"/><stop offset=".56" stop-color="#646668"/><stop offset=".56" stop-color="#85888a"/><stop offset=".87" stop-color="#85888a"/><stop offset=".87" stop-color="#808385"/></linearGradient><linearGradient id="Ѕезым_нный_градиент_34-11" x1="111.76" y1="-16772.38" x2="106.53" y2="-16781.43" xlink:href="#Ѕезым_нный_градиент_34"/><linearGradient id="Ѕезым_нный_градиент_35-9" x1="75.6" y1="-16820.56" x2="63.74" y2="-16841.1" xlink:href="#Ѕезым_нный_градиент_35"/><linearGradient id="Ѕезым_нный_градиент_40-5" x1="76.88" y1="-16826.01" x2="69.08" y2="-16839.52" xlink:href="#Ѕезым_нный_градиент_40"/><linearGradient id="Ѕезым_нный_градиент_34-12" x1="76.78" y1="-16827.07" x2="69.82" y2="-16839.14" xlink:href="#Ѕезым_нный_градиент_34"/><linearGradient id="Ѕезым_нный_градиент_10-3" x1="74.44" y1="-16827.8" x2="69.57" y2="-16836.24" xlink:href="#Ѕезым_нный_градиент_10"/><linearGradient id="Ѕезым_нный_градиент_34-13" x1="74" y1="-16830.76" x2="71.77" y2="-16834.61" xlink:href="#Ѕезым_нный_градиент_34"/><linearGradient id="Ѕезым_нный_градиент_21" x1="94.83" y1="-16821.98" x2="89.05" y2="-16811.98" gradientTransform="matrix(1 0 0 -1 0 -16753.85)" gradientUnits="userSpaceOnUse"><stop offset=".16" stop-color="#a7aaac"/><stop offset=".16" stop-color="#bec2c5"/><stop offset=".56" stop-color="#bec2c5"/><stop offset=".56" stop-color="#dee3e7"/><stop offset=".87" stop-color="#dee3e7"/><stop offset=".87" stop-color="#d9dee2"/></linearGradient><style>.cls-7{fill:#424852}.cls-10{fill:#d7d9db}.cls-12{fill:#e3e5e6}.cls-14{fill:#d9dbdd}.cls-23{fill:#add1b9}.cls-24{fill:#878787}.cls-25{fill:#747474}.cls-27{fill:#4f4f4f}.cls-41{fill:#78d9ff}.cls-42{fill:#1c8eb0}.cls-47{fill:#a6a9ab}.cls-57{fill:#80898a}.cls-60{fill:#eac72f}.cls-61{fill:#74c7ac}.cls-62{fill:#2ea8c6}.cls-65{fill:#006a92}.cls-67{fill:#cedbdb}.cls-69{fill:#73818e}.cls-70{fill:#91acba}.cls-74{fill:#dde2e6}.cls-75{fill:#e1f0f0}.cls-82{fill:#6bb5ff}.cls-83{fill:#a93e38}.cls-84{fill:#ed8333}.cls-85{fill:#edbd51}.cls-90{fill:#bdcedf}.cls-91{fill:#6b777f}.cls-92{fill:#e2e9ec}.cls-93{fill:#d15b00}.cls-94{fill:#ec841a}</style></defs><g style="isolation:isolate"><g id="Слой_2" data-name="Слой 2"><g id="Layer_1" data-name="Layer 1"><g id="_Группа_" data-name="&lt;Группа&gt;"><path id="_Контур_" data-name="&lt;Контур&gt;" style="mix-blend-mode:multiply" fill="url(#Ѕезым_нный_градиент_2)" d="M155.92 40.43l-65.64-38-50.22 29.02 22.77 13.18-2.91 1.68-3.67-2.13-2.74 1.59-2.23-1.29-5.6-1.36-.22.13-14.88-8.59-.99.57-8.39-4.85.98-.92-2.93-1.69-2.6 2.42 1.57.91-10.85 9.88 3.3 1.9L0 50.92l3.8 1.25 8.21 6.98-2.93 2.11 9.25 5.34 4.85 2.81.5.28-1.42.82L62.95 94.1l92.97-53.67z"/><g id="_Группа_2" data-name="&lt;Группа&gt;"><g id="_Группа_3" data-name="&lt;Группа&gt;"><path id="_Контур_2" data-name="&lt;Контур&gt;" fill="#b2b2b2" d="M150.33 26.15l1.84-.95-32.76-18.91-1.84.94 32.76 18.92z"/><path id="_Контур_3" data-name="&lt;Контур&gt;" fill="#888" d="M150.33 31.34l1.84-.94v-5.2l-1.84.95v5.19z"/><path id="_Контур_4" data-name="&lt;Контур&gt;" fill="#5a5c54" d="M117.57 7.23l32.76 18.92v5.19l-32.76-18.91v-5.2z"/></g><g id="_Группа_4" data-name="&lt;Группа&gt;"><g id="_Группа_5" data-name="&lt;Группа&gt;"><path id="_Контур_5" data-name="&lt;Контур&gt;" d="M90.73 22.33a5 5 0 001.94 4.43c1.63 1.09 5.12 3 5.12 3 4.91-2.83 14.54-12.67 14.54-17.58 0-2.13-4.59-3.75-5.85-4.56-1.63-1-4.1-.89-6.88.71-4.9 2.82-8.87 9.1-8.87 14z" fill="url(#Ѕезым_нный_градиент_35)"/><path id="_Контур_6" data-name="&lt;Контур&gt;" class="cls-7" d="M95.53 25.13c0 4.91 4 6.59 8.88 3.76s8.88-9.11 8.88-14-4-6.59-8.88-3.76-8.88 9.1-8.88 14z"/><path id="_Контур_7" data-name="&lt;Контур&gt;" d="M96.4 25.54A5 5 0 0098.34 30c1.63 1.09 5.12 3 5.12 3C108.37 30.11 118 20.27 118 15.37c0-2.13-4.59-3.75-5.85-4.56-1.63-1-4.1-.89-6.88.71-4.89 2.84-8.87 9.11-8.87 14.02z" fill="url(#Ѕезым_нный_градиент_35-2)"/><path id="_Контур_8" data-name="&lt;Контур&gt;" class="cls-7" d="M101.21 28.34c0 4.91 4 6.59 8.88 3.76S119 23 119 18.08s-4-6.59-8.88-3.76-8.91 9.11-8.91 14.02z"/><path id="_Контур_9" data-name="&lt;Контур&gt;" d="M103.83 26.35c0 3.26 2.64 4.37 5.9 2.49s5.9-6 5.9-9.3-2.63-4.37-5.9-2.54-5.9 6.09-5.9 9.35z" fill="url(#Ѕезым_нный_градиент_40)"/><path id="_Контур_10" data-name="&lt;Контур&gt;" class="cls-10" d="M104.19 26.61c0 3.26 2.64 4.37 5.9 2.49s5.9-6 5.9-9.3-2.64-4.37-5.9-2.49-5.9 6.05-5.9 9.3z"/><path id="_Контур_11" data-name="&lt;Контур&gt;" d="M115.38 20.15c0 2.92-2.37 6.66-5.29 8.35s-5.29.68-5.29-2.24a5.56 5.56 0 01.09-1 11.45 11.45 0 015.2-7.36c.21-.12.42-.23.63-.32 2.63-1.2 4.66-.14 4.66 2.57z" fill="url(#Ѕезым_нный_градиент_34)"/><path id="_Контур_12" data-name="&lt;Контур&gt;" class="cls-12" d="M112.81 19.85a8.28 8.28 0 01-4 6.31 4.62 4.62 0 01-1.17.51 2 2 0 01-2.61-1 1.65 1.65 0 01-.13-.39 7.72 7.72 0 01.29-1.2 11.88 11.88 0 014.16-5.66 8.68 8.68 0 01.75-.5l.53-.27.1-.05c1.22-.06 2.06.75 2.08 2.25z"/><path id="_Контур_13" data-name="&lt;Контур&gt;" d="M112.45 19.29c0 2.17-2.74 6.12-4.92 7.41h-.09a.93.93 0 01-.28-.09h-.11a13.7 13.7 0 01-2-.89 1.65 1.65 0 01-.13-.39 7.72 7.72 0 01.29-1.2 11.88 11.88 0 014.16-5.66 8.68 8.68 0 01.75-.5l.53-.27a13.6 13.6 0 011.6 1.4z" fill="url(#Ѕезым_нный_градиент_34-2)"/><path id="_Контур_14" data-name="&lt;Контур&gt;" class="cls-14" d="M113 20.75a7.16 7.16 0 01-3.45 5.45c-1.9 1.1-3.45.44-3.45-1.46a3.63 3.63 0 01.06-.65 7.47 7.47 0 013.39-4.8l.41-.21c1.67-.79 3.04-.08 3.04 1.67z"/><path id="_Контур_15" data-name="&lt;Контур&gt;" d="M111.31 21.89a3.49 3.49 0 01-1.68 2.65c-.93.53-1.68.22-1.68-.71a1.77 1.77 0 010-.32 3.64 3.64 0 011.65-2.34l.2-.1c.87-.38 1.51-.07 1.51.82z" fill="url(#Ѕезым_нный_градиент_34-3)"/><path id="_Контур_16" data-name="&lt;Контур&gt;" class="cls-12" d="M109.87 22.11a1.4 1.4 0 01-.67 1.06c-.37.21-.67.09-.67-.28a.71.71 0 010-.13 1.46 1.46 0 01.66-.94h.08c.35-.19.6-.05.6.29z"/></g><g id="_Группа_6" data-name="&lt;Группа&gt;"><path id="_Контур_17" data-name="&lt;Контур&gt;" d="M70.32 34.11a5 5 0 001.94 4.43c1.63 1.09 5.12 3 5.12 3 4.91-2.83 14.54-12.67 14.54-17.58 0-2.13-4.59-3.75-5.85-4.56-1.63-1-4.1-.89-6.88.71-4.89 2.82-8.87 9.09-8.87 14z" fill="url(#Ѕезым_нный_градиент_35-3)"/><path id="_Контур_18" data-name="&lt;Контур&gt;" class="cls-7" d="M75.13 36.91c0 4.91 4 6.59 8.88 3.76s8.88-9.11 8.88-14-4-6.59-8.88-3.76-8.88 9.09-8.88 14z"/><path id="_Контур_19" data-name="&lt;Контур&gt;" d="M76 37.31a5 5 0 001.94 4.43c1.63 1.09 5.12 3 5.12 3C88 41.89 97.61 32.05 97.61 27.15c0-2.13-4.59-3.75-5.85-4.56-1.63-1-4.1-.89-6.88.71C80 26.13 76 32.41 76 37.31z" fill="url(#Ѕезым_нный_градиент_35-4)"/><path id="_Контур_20" data-name="&lt;Контур&gt;" class="cls-7" d="M80.8 40.11c0 4.91 4 6.59 8.88 3.76s8.88-9.11 8.88-14-4-6.59-8.88-3.76-8.88 9.1-8.88 14z"/><path id="_Контур_21" data-name="&lt;Контур&gt;" d="M83.43 38.13c0 3.26 2.64 4.37 5.9 2.49s5.9-6 5.9-9.3-2.64-4.37-5.9-2.49-5.9 6.04-5.9 9.3z" fill="url(#Ѕезым_нный_градиент_40-2)"/><path id="_Контур_22" data-name="&lt;Контур&gt;" class="cls-10" d="M83.79 38.39c0 3.26 2.64 4.37 5.9 2.49s5.9-6 5.9-9.3-2.64-4.37-5.9-2.49-5.9 6.04-5.9 9.3z"/><path id="_Контур_23" data-name="&lt;Контур&gt;" d="M95 31.93c0 2.92-2.37 6.66-5.29 8.35S84.39 41 84.39 38a5.55 5.55 0 01.09-1 11.45 11.45 0 015.2-7.36c.21-.12.42-.23.63-.32 2.63-1.16 4.69-.1 4.69 2.61z" fill="url(#Ѕезым_нный_градиент_34-4)"/><path id="_Контур_24" data-name="&lt;Контур&gt;" class="cls-12" d="M92.41 31.63a8.28 8.28 0 01-4 6.31 4.62 4.62 0 01-1.17.51 2 2 0 01-2.61-1 1.64 1.64 0 01-.13-.39 7.71 7.71 0 01.29-1.2 11.88 11.88 0 014.16-5.66 8.7 8.7 0 01.75-.5l.53-.27.1-.05c1.22-.06 2.06.75 2.08 2.25z"/><path id="_Контур_25" data-name="&lt;Контур&gt;" d="M92 31.07c0 2.17-2.74 6.12-4.92 7.41h-.09a.93.93 0 01-.28-.09h-.11a13.71 13.71 0 01-2-.89 1.64 1.64 0 01-.13-.39 7.71 7.71 0 01.29-1.2 11.88 11.88 0 014.16-5.66 8.7 8.7 0 01.75-.5l.53-.27a13.6 13.6 0 011.6 1.4z" fill="url(#Ѕезым_нный_градиент_34-5)"/><path id="_Контур_26" data-name="&lt;Контур&gt;" class="cls-14" d="M92.55 32.53A7.16 7.16 0 0189.1 38c-1.9 1.1-3.45.44-3.45-1.46a3.63 3.63 0 01.06-.65 7.47 7.47 0 013.39-4.8l.41-.21c1.71-.82 3.04-.12 3.04 1.65z"/><path id="_Контур_27" data-name="&lt;Контур&gt;" d="M90.91 33.67a3.49 3.49 0 01-1.68 2.65c-.93.53-1.68.22-1.68-.71a1.76 1.76 0 010-.32A3.64 3.64 0 0189.23 33l.2-.1c.83-.43 1.48-.09 1.48.77z" fill="url(#Ѕезым_нный_градиент_34-6)"/><path id="_Контур_28" data-name="&lt;Контур&gt;" class="cls-12" d="M89.47 33.89A1.4 1.4 0 0188.8 35c-.37.21-.67.09-.67-.28a.7.7 0 010-.13 1.46 1.46 0 01.66-.94h.08c.34-.24.6-.1.6.24z"/></g></g><path id="_Контур_29" data-name="&lt;Контур&gt;" fill="#725986" d="M121.42 23.92l-1.42.83v-9.04l1.42-.83v9.04z"/><path id="_Контур_30" data-name="&lt;Контур&gt;" class="cls-23" d="M105.05 26.23c0 2.78 2.26 3.74 5 2.13s5-5.17 5-7.95-2.26-3.74-5-2.13-5 5.17-5 7.95z"/><path id="_Контур_31" data-name="&lt;Контур&gt;" class="cls-24" d="M143.68 22.98L89.69 50.94 70.85 38.92l45.42-26.21 7.12-1.45 20.29 11.72z"/><path id="_Контур_32" data-name="&lt;Контур&gt;" class="cls-25" d="M143.68 22.98l-8.58 1.74-18.83-12.01 7.12-1.45 20.29 11.72z"/><path id="_Контур_33" data-name="&lt;Контур&gt;" fill="#a4a4a4" d="M91.01 28.87l22.03-12.71 12.6 7.16-22.02 12.71-12.61-7.16z"/><ellipse id="_Контур_34" data-name="&lt;Контур&gt;" class="cls-24" cx="109.37" cy="24.53" rx="7.51" ry="4.89"/><path id="_Контур_35" data-name="&lt;Контур&gt;" class="cls-27" d="M143.68 27.12L89.69 58.3v-7.36l45.41-26.22 8.58-1.74v4.14z"/><path id="_Контур_36" data-name="&lt;Контур&gt;" class="cls-25" d="M103.62 36.03l22.02-12.71 1.33 2.62-24.68 14.25 1.33-4.16z"/><g id="_Группа_7" data-name="&lt;Группа&gt;"><path id="_Контур_37" data-name="&lt;Контур&gt;" d="M120.71 39.76a5 5 0 001.94 4.43c1.63 1.09 5.12 3 5.12 3 4.91-2.83 14.54-12.67 14.54-17.58 0-2.13-4.59-3.75-5.85-4.56-1.63-1-4.1-.89-6.88.71-4.89 2.82-8.87 9.1-8.87 14z" fill="url(#Ѕезым_нный_градиент_35-5)"/><path id="_Контур_38" data-name="&lt;Контур&gt;" class="cls-7" d="M125.51 42.56c0 4.91 4 6.59 8.88 3.76s8.88-9.11 8.88-14-4-6.59-8.88-3.76-8.88 9.1-8.88 14z"/><path id="_Контур_39" data-name="&lt;Контур&gt;" d="M126.38 43a5 5 0 001.94 4.43c1.63 1.09 5.12 3 5.12 3C138.35 47.54 148 37.7 148 32.8c0-2.13-4.59-3.75-5.85-4.56-1.63-1-4.1-.89-6.88.71-4.91 2.84-8.89 9.11-8.89 14.05z" fill="url(#Ѕезым_нный_градиент_35-6)"/><path id="_Контур_40" data-name="&lt;Контур&gt;" class="cls-7" d="M131.19 45.77c0 4.91 4 6.59 8.88 3.76s8.88-9.11 8.88-14-4-6.59-8.88-3.76-8.88 9.09-8.88 14z"/><path id="_Контур_41" data-name="&lt;Контур&gt;" d="M133.81 43.78c0 3.26 2.64 4.37 5.9 2.49s5.9-6 5.9-9.3-2.64-4.37-5.9-2.49-5.9 6.04-5.9 9.3z" fill="url(#Ѕезым_нный_градиент_40-3)"/><path id="_Контур_42" data-name="&lt;Контур&gt;" class="cls-10" d="M134.18 44c0 3.26 2.64 4.37 5.9 2.49s5.9-6 5.9-9.3-2.64-4.37-5.9-2.49-5.9 6.08-5.9 9.3z"/><path id="_Контур_43" data-name="&lt;Контур&gt;" d="M145.36 37.58c0 2.92-2.37 6.66-5.29 8.35s-5.29.68-5.29-2.24a5.55 5.55 0 01.09-1 11.45 11.45 0 015.2-7.36c.21-.12.42-.23.63-.32 2.63-1.2 4.66-.14 4.66 2.57z" fill="url(#Ѕезым_нный_градиент_34-7)"/><path id="_Контур_44" data-name="&lt;Контур&gt;" class="cls-12" d="M142.79 37.28a8.28 8.28 0 01-4 6.31 4.62 4.62 0 01-1.17.51 2 2 0 01-2.61-1 1.64 1.64 0 01-.13-.39 7.72 7.72 0 01.29-1.2 11.88 11.88 0 014.16-5.66 8.7 8.7 0 01.75-.5l.53-.27.1-.05c1.22-.03 2.06.75 2.08 2.25z"/><path id="_Контур_45" data-name="&lt;Контур&gt;" d="M142.43 36.72c0 2.17-2.74 6.12-4.92 7.41h-.09a.93.93 0 01-.28-.09L137 44a13.72 13.72 0 01-2-.89 1.64 1.64 0 01-.13-.39 7.72 7.72 0 01.29-1.2 11.88 11.88 0 014.16-5.66 8.7 8.7 0 01.75-.5l.53-.27a13.6 13.6 0 011.6 1.4z" fill="url(#Ѕезым_нный_градиент_10)"/><path id="_Контур_46" data-name="&lt;Контур&gt;" class="cls-14" d="M142.93 38.18a7.16 7.16 0 01-3.45 5.45c-1.9 1.1-3.45.44-3.45-1.46a3.62 3.62 0 01.06-.65 7.47 7.47 0 013.39-4.8l.41-.21c1.72-.79 3.04-.1 3.04 1.67z"/><path id="_Контур_47" data-name="&lt;Контур&gt;" d="M141.3 39.32a3.49 3.49 0 01-1.69 2.68c-.93.53-1.68.22-1.68-.71a1.77 1.77 0 010-.32 3.64 3.64 0 011.65-2.34l.2-.1c.87-.41 1.52-.07 1.52.79z" fill="url(#Ѕезым_нный_градиент_34-8)"/><path id="_Контур_48" data-name="&lt;Контур&gt;" class="cls-12" d="M139.86 39.54a1.4 1.4 0 01-.67 1.06c-.37.21-.67.09-.67-.28a.71.71 0 010-.13 1.46 1.46 0 01.66-.94h.08c.34-.19.6-.05.6.29z"/></g><g id="_Группа_8" data-name="&lt;Группа&gt;"><path id="_Контур_49" data-name="&lt;Контур&gt;" d="M100.3 51.54a5 5 0 001.95 4.46c1.63 1.09 5.12 3 5.12 3 4.91-2.83 14.54-12.67 14.54-17.58 0-2.13-4.59-3.75-5.85-4.56-1.63-1-4.1-.89-6.88.71-4.9 2.79-8.88 9.06-8.88 13.97z" fill="url(#Ѕезым_нный_градиент_35-7)"/><path id="_Контур_50" data-name="&lt;Контур&gt;" class="cls-7" d="M105.11 54.34c0 4.91 4 6.59 8.88 3.76s8.88-9.11 8.88-14-4-6.59-8.88-3.76-8.88 9.09-8.88 14z"/><path id="_Контур_51" data-name="&lt;Контур&gt;" d="M106 54.74a5 5 0 001.94 4.43c1.63 1.09 5.12 3 5.12 3 4.91-2.83 14.54-12.67 14.54-17.58 0-2.13-4.59-3.75-5.85-4.56-1.63-1-4.1-.89-6.88.71-4.87 2.82-8.87 9.1-8.87 14z" fill="url(#Ѕезым_нный_градиент_35-8)"/><path id="_Контур_52" data-name="&lt;Контур&gt;" class="cls-7" d="M110.78 57.54c0 4.91 4 6.59 8.88 3.76s8.88-9.11 8.88-14-4-6.59-8.88-3.76-8.88 9.1-8.88 14z"/><path id="_Контур_53" data-name="&lt;Контур&gt;" d="M113.41 55.55c0 3.26 2.64 4.37 5.9 2.49s5.9-6 5.9-9.3-2.64-4.37-5.9-2.49-5.9 6.05-5.9 9.3z" fill="url(#Ѕезым_нный_градиент_40-4)"/><path id="_Контур_54" data-name="&lt;Контур&gt;" class="cls-10" d="M113.77 55.82c0 3.26 2.64 4.37 5.9 2.49s5.9-6 5.9-9.3-2.64-4.37-5.9-2.49-5.9 6.04-5.9 9.3z"/><path id="_Контур_55" data-name="&lt;Контур&gt;" d="M125 49.36c0 2.92-2.37 6.66-5.29 8.35s-5.29.68-5.29-2.24a5.56 5.56 0 01.09-1 11.45 11.45 0 015.2-7.36c.21-.12.42-.23.63-.32 2.58-1.2 4.66-.14 4.66 2.57z" fill="url(#Ѕезым_нный_градиент_34-9)"/><path id="_Контур_56" data-name="&lt;Контур&gt;" class="cls-12" d="M122.39 49.06a8.28 8.28 0 01-4 6.31 4.62 4.62 0 01-1.17.51 2 2 0 01-2.61-1 1.65 1.65 0 01-.13-.39 7.72 7.72 0 01.29-1.2 11.88 11.88 0 014.16-5.66 8.68 8.68 0 01.75-.5l.53-.27.1-.05c1.22-.06 2.06.75 2.08 2.25z"/><path id="_Контур_57" data-name="&lt;Контур&gt;" d="M122 48.5c0 2.17-2.74 6.12-4.92 7.41h-.09a.93.93 0 01-.28-.09h-.11a13.7 13.7 0 01-2-.89 1.65 1.65 0 01-.13-.39 7.72 7.72 0 01.29-1.2 11.88 11.88 0 014.16-5.66 8.68 8.68 0 01.75-.5l.53-.27a13.6 13.6 0 011.6 1.4z" fill="url(#Ѕезым_нный_градиент_10-2)"/><path id="_Контур_58" data-name="&lt;Контур&gt;" class="cls-14" d="M122.53 50a7.16 7.16 0 01-3.45 5.45c-1.9 1.1-3.45.44-3.45-1.46a3.63 3.63 0 01.06-.65 7.47 7.47 0 013.39-4.8l.41-.21c1.71-.84 3.04-.14 3.04 1.67z"/><path id="_Контур_59" data-name="&lt;Контур&gt;" d="M120.89 51.1a3.49 3.49 0 01-1.68 2.65c-.93.53-1.68.22-1.68-.71a1.77 1.77 0 010-.32 3.64 3.64 0 011.65-2.34l.2-.1c.87-.38 1.51-.05 1.51.82z" fill="url(#Ѕезым_нный_градиент_34-10)"/><path id="_Контур_60" data-name="&lt;Контур&gt;" class="cls-12" d="M119.45 51.32a1.4 1.4 0 01-.67 1.06c-.37.21-.67.09-.67-.28a.71.71 0 010-.13 1.46 1.46 0 01.66-.94h.08c.34-.19.6-.03.6.29z"/></g><g id="_Группа_9" data-name="&lt;Группа&gt;"><g id="_Группа_10" data-name="&lt;Группа&gt;"><path id="_Контур_61" data-name="&lt;Контур&gt;" d="M115.66 43.09c0 .46-3.25 3.83-6.13 8.94a37.5 37.5 0 00-3.28 7.63l-7.84-5a20.75 20.75 0 012.38-7.66 31.7 31.7 0 017-8.88z" fill="#5ccce6"/></g><path id="_Контур_62" data-name="&lt;Контур&gt;" class="cls-41" d="M115.66 43.09c0 .46-3.25 3.83-6.13 8.94l-8.73-5a31.7 31.7 0 017-8.88z"/><path id="_Контур_63" data-name="&lt;Контур&gt;" class="cls-42" d="M107.25 59.3l-1 .36c.86-9.32 9.07-16.28 9.42-16.57l.47.66c-.14.07-8.09 6.86-8.89 15.55z"/></g><path id="_Контур_64" data-name="&lt;Контур&gt;" class="cls-27" d="M91.01 28.87l12.61 7.16-1.33 4.16-12.6-7.17 1.32-4.15z"/><path id="_Контур_65" data-name="&lt;Контур&gt;" fill="#bdc1c4" d="M91.06 26.92l1.67 8.28v8.89l2.81-1.62v4.93l-2.81 1.62-.78.45-2.55 1.47V27.88l1.66-.96z"/><g id="_Группа_11" data-name="&lt;Группа&gt;"><path id="_Контур_66" data-name="&lt;Контур&gt;" d="M105.33 23.77v2.15c0 1.45 1.81 2.63 4 2.63s4-1.18 4-2.63v-2.28z" fill="url(#Ѕезым_нный_градиент_28)"/><path id="_Контур_67" data-name="&lt;Контур&gt;" d="M101.86 21.73v1c0 2.7 3.36 4.89 7.51 4.89s7.51-2.19 7.51-4.89v-1.2z" fill="url(#Ѕезым_нный_градиент_34-11)"/><ellipse id="_Контур_68" data-name="&lt;Контур&gt;" cx="109.37" cy="21.73" rx="7.51" ry="4.89" fill="#bbb"/></g><path id="_Контур_69" data-name="&lt;Контур&gt;" class="cls-47" d="M95.54 42.47l-2.81-2.18v3.8l2.81-1.62z"/></g><g id="_Группа_12" data-name="&lt;Группа&gt;"><g id="_Группа_13" data-name="&lt;Группа&gt;"><path id="_Контур_70" data-name="&lt;Контур&gt;" d="M53.94 90.48a2.32 2.32 0 01-1.17-.32L31.44 77.85a6 6 0 01-3-5.15v-4.17h1v4.17a5 5 0 002.51 4.3l21.33 12.28a1.32 1.32 0 002-1.14v-5.61h1v5.61a2.34 2.34 0 01-2.33 2.34z" fill="#949799"/></g><path id="_Контур_71" data-name="&lt;Контур&gt;" fill="#222" d="M92.78 57.56v6.22L61.56 81.59v-6.22l31.22-17.81z"/><g id="_Группа_14" data-name="&lt;Группа&gt;"><path id="_Контур_72" data-name="&lt;Контур&gt;" d="M59.65 81.51a5 5 0 001.94 4.43c1.63 1.09 5.12 3 5.12 3 4.91-2.83 14.54-12.67 14.54-17.58 0-2.13-4.59-3.75-5.85-4.56-1.63-1-4.1-.89-6.88.71-4.89 2.82-8.87 9.09-8.87 14z" fill="url(#Ѕезым_нный_градиент_35-9)"/><path id="_Контур_73" data-name="&lt;Контур&gt;" class="cls-7" d="M64.46 84.31c0 4.91 4 6.59 8.88 3.76s8.88-9.11 8.88-14-4-6.59-8.88-3.76-8.88 9.09-8.88 14z"/><path id="_Контур_74" data-name="&lt;Контур&gt;" d="M67.08 82.32c0 3.26 2.64 4.37 5.9 2.49s5.9-6 5.9-9.3S76.23 71.14 73 73s-5.92 6.06-5.92 9.32z" fill="url(#Ѕезым_нный_градиент_40-5)"/><path id="_Контур_75" data-name="&lt;Контур&gt;" class="cls-10" d="M67.45 82.58c0 3.26 2.64 4.37 5.9 2.49s5.9-6 5.9-9.3-2.64-4.37-5.9-2.49-5.9 6.05-5.9 9.3z"/><path id="_Контур_76" data-name="&lt;Контур&gt;" d="M78.63 76.13c0 2.92-2.37 6.66-5.29 8.35S68 85.15 68 82.24a5.56 5.56 0 01.09-1 11.45 11.45 0 015.2-7.36c.21-.12.42-.23.63-.32 2.68-1.21 4.71-.15 4.71 2.57z" fill="url(#Ѕезым_нный_градиент_34-12)"/><path id="_Контур_77" data-name="&lt;Контур&gt;" class="cls-12" d="M76.06 75.82a8.28 8.28 0 01-4 6.31 4.62 4.62 0 01-1.17.51 2 2 0 01-2.61-1 1.64 1.64 0 01-.13-.39 7.72 7.72 0 01.29-1.2 11.88 11.88 0 014.16-5.66 8.69 8.69 0 01.75-.5l.53-.27.1-.05c1.22-.06 2.02.75 2.08 2.25z"/><path id="_Контур_78" data-name="&lt;Контур&gt;" d="M75.7 75.27c0 2.17-2.74 6.12-4.92 7.41h-.09a.93.93 0 01-.28-.09h-.11a13.71 13.71 0 01-2-.89 1.64 1.64 0 01-.13-.39 7.72 7.72 0 01.29-1.2 11.88 11.88 0 014.16-5.66 8.69 8.69 0 01.75-.5l.53-.27a13.61 13.61 0 011.6 1.4z" fill="url(#Ѕезым_нный_градиент_10-3)"/><path id="_Контур_79" data-name="&lt;Контур&gt;" class="cls-14" d="M76.2 76.72a7.16 7.16 0 01-3.45 5.45c-1.9 1.1-3.45.44-3.45-1.46a3.63 3.63 0 01.06-.65 7.47 7.47 0 013.39-4.8l.41-.21c1.72-.79 3.04-.05 3.04 1.67z"/><path id="_Контур_80" data-name="&lt;Контур&gt;" d="M74.56 77.86a3.49 3.49 0 01-1.68 2.65c-.93.53-1.68.22-1.68-.71a1.77 1.77 0 010-.32 3.64 3.64 0 011.65-2.34l.2-.1c.87-.38 1.51-.04 1.51.82z" fill="url(#Ѕезым_нный_градиент_34-13)"/><path id="_Контур_81" data-name="&lt;Контур&gt;" class="cls-12" d="M73.13 78.08a1.4 1.4 0 01-.67 1.06c-.37.21-.67.09-.67-.28a.71.71 0 010-.13 1.46 1.46 0 01.66-.94h.08c.34-.19.6-.05.6.29z"/></g><g id="_Группа_15" data-name="&lt;Группа&gt;"><path id="_Контур_82" data-name="&lt;Контур&gt;" d="M86.61 72.87L99.91 65c1.77-1 1.93-4.06.36-6.78s-4.28-4.1-6.05-3.08l-13.47 8z" fill="url(#Ѕезым_нный_градиент_21)"/><ellipse id="_Контур_83" data-name="&lt;Контур&gt;" cx="83.76" cy="67.94" rx="3.7" ry="5.69" transform="rotate(-30 83.755 67.942)" fill="#8d9296"/><ellipse id="_Контур_84" data-name="&lt;Контур&gt;" class="cls-57" cx="83.12" cy="68.31" rx="2.97" ry="4.56" transform="rotate(-30 83.116 68.31)"/></g><path id="_Контур_85" data-name="&lt;Контур&gt;" d="M90.83 17.32l-15 20.84-29.88 5.7V18.52c0-2.07 1.89-6.32 3.14-8C53.78 4.37 56 2.31 60.84 0z" fill="#70caed"/><path id="_Контур_86" data-name="&lt;Контур&gt;" class="cls-42" d="M68.6 33.64c0-2.07 1.93-7.06 3.05-8.8C76 18.17 79.52 16 84.31 13.74v-1.13l-18.75-9.7c-4.86 2.31-8.67 6.9-11.23 13.44-.76 1.93-2.1 5.51-2.1 7.59l-1.56 22.83 18.84-3.6z"/><path id="_Контур_87" data-name="&lt;Контур&gt;" class="cls-41" d="M68.6 32.51c0-2.07 1.93-7.06 3.05-8.8C76 17 79.52 14.9 84.31 12.61L65.56 1.78c-4.86 2.31-8.67 6.9-11.23 13.44-.76 1.93-2.1 5.51-2.1 7.59l-1.56 22.83L69.51 42z"/><path id="_Контур_88" data-name="&lt;Контур&gt;" class="cls-42" d="M90.83 58.3l-14.9 8.58V39.33a18.81 18.81 0 011.28-6.89c1.7-4.11 8.89-13.81 13.61-15.12z"/><g id="_Группа_16" data-name="&lt;Группа&gt;"><path id="_Контур_89" data-name="&lt;Контур&gt;" d="M82.06 51.1a1.15 1.15 0 01-1.15-1.15V37.86a1.7 1.7 0 01.85-1.47L84.13 35a1.15 1.15 0 011.73 1v12.1a1.7 1.7 0 01-.86 1.47l-2.38 1.37a1.16 1.16 0 01-.56.16z" fill="#006b96"/><path id="_Контур_90" data-name="&lt;Контур&gt;" class="cls-42" d="M84.88 49.22l-2.38 1.37a.75.75 0 01-1.12-.65V37.86a1.29 1.29 0 01.62-1.12l2.38-1.37a.75.75 0 011.12.65V48.1a1.29 1.29 0 01-.62 1.12z"/></g><g id="_Группа_17" data-name="&lt;Группа&gt;"><path id="_Контур_91" data-name="&lt;Контур&gt;" class="cls-60" d="M31.5 60.96L46 52.38V20.92L30.82 31.7l.84 2.59-2.04 11.91 1.88 14.76z"/><path id="_Контур_92" data-name="&lt;Контур&gt;" class="cls-61" d="M31.9 44.32l10.08-5.82v-8.89l-8.6 4.96-1.48 9.75z"/><path id="_Контур_93" data-name="&lt;Контур&gt;" class="cls-61" d="M36.3 50.81l-2.26 1.52-1.88-5.77 4.14-2.39v6.64z"/><path id="_Контур_94" data-name="&lt;Контур&gt;" class="cls-7" d="M36.24 66.15c0 4.91 4 6.59 8.88 3.76s7-8.24 7-13.15-4-6.59-8.88-3.76-7 8.24-7 13.15z"/><path id="_Контур_95" data-name="&lt;Контур&gt;" class="cls-23" d="M39.79 64.1c0 2.95 2.39 4 5.33 2.26s3.46-4.6 3.46-7.55-2.39-4-5.33-2.26-3.46 4.61-3.46 7.55z"/><path id="_Контур_96" data-name="&lt;Контур&gt;" class="cls-61" d="M40.77 52.39l11.36-6.56v1.31l-11.36 6.55a10 10 0 00-5.33 8.67l-.36 2.11-1.31.75.38-2.22c1.21-6 4.21-9.37 6.62-10.61z"/></g><path id="_Контур_97" data-name="&lt;Контур&gt;" class="cls-42" d="M76 38.24V68l-5.22 3A15 15 0 0066 75.45l-2 1.18-4.36 2.52V63.52l2-11.91L60.8 49l5.08-8.08z"/><path id="_Контур_98" data-name="&lt;Контур&gt;" class="cls-42" d="M58.16 85.27l4.84-3s-.46-7.16 9-12.84l-13.8 4.81z"/><path id="_Контур_99" data-name="&lt;Контур&gt;" class="cls-42" d="M58.16 82.11l1.61.87V63.16l-1.61 1.53v17.42z"/><path id="_Контур_100" data-name="&lt;Контур&gt;" class="cls-24" d="M82.12 63.15l1.64.95S69.24 73.4 68.14 75c-1.83 2.64-4.61 9.39-4.61 9.39l-1.64-.95.37-2.24A15.54 15.54 0 0164 76.63a18.36 18.36 0 016.79-6.93l5.22-3z"/><path id="_Контур_101" data-name="&lt;Контур&gt;" class="cls-27" d="M83.76 64.09v1.31l-6.14 3.54L72.4 72a15 15 0 00-4.75 4.44 17.63 17.63 0 00-2.46 5.1l-.36 2.11-1.31.76.37-2.24a15.54 15.54 0 011.71-4.55 18.36 18.36 0 016.79-6.93l5.22-3z"/><path id="_Контур_102" data-name="&lt;Контур&gt;" class="cls-62" d="M31.66 34.29l29.99 17.32-2.05 11.91L29.62 46.2l2.04-11.91z"/><path id="_Контур_103" data-name="&lt;Контур&gt;" fill="#176ba6" d="M31.66 34.29l-.84-2.59L60.8 49.02l.85 2.59-29.99-17.32z"/><path id="_Контур_104" data-name="&lt;Контур&gt;" d="M46 20.92s-11.77 4.5-15.18 10.79c0 0 7.94 7.1 30 17.32 0 0 3.05-5.34 15.18-10.79 0 0-22.2-10.06-30-17.32z" fill="#4eceff"/><path id="_Контур_105" data-name="&lt;Контур&gt;" class="cls-65" d="M28.17 47.37l29.99 17.32V82.7l-19.74-9.42-10.25-8.05V47.37z"/><g id="_Группа_18" data-name="&lt;Группа&gt;"><path id="_Контур_106" data-name="&lt;Контур&gt;" d="M34.5 71.3l14.6 8.4a.69.69 0 001-.6V66.78a1.71 1.71 0 00-.86-1.48s-10.93-4.74-14.6-8.39c-.38-.38-1 .07-1 .6v12.31a1.71 1.71 0 00.86 1.48z" fill="#7895a4"/><path id="_Контур_107" data-name="&lt;Контур&gt;" class="cls-67" d="M49.45 79.54l-14.6-8.39a1.71 1.71 0 01-.85-1.49V57.34a.68.68 0 01.24-.52.69.69 0 00-.6.68v12.32a1.71 1.71 0 00.86 1.48l14.6 8.4a.68.68 0 00.79-.08.67.67 0 01-.44-.08z"/><g id="_Группа_19" data-name="&lt;Группа&gt;"><path id="_Контур_108" data-name="&lt;Контур&gt;" d="M50.15 66.8v12.34a.69.69 0 01-1 .61l-14.66-8.42a1.72 1.72 0 01-.86-1.48V57.51a.53.53 0 010-.21.73.73 0 01.21-.33.74.74 0 01.37-.19.46.46 0 01.41.13l.43.4a24.8 24.8 0 003.29 2.39l.11.07c1.92 1.19 4.1 2.35 6 3.3l.15.08c2.61 1.28 4.65 2.18 4.65 2.18a1.59 1.59 0 01.51.47 1.49 1.49 0 01.28.57 1.63 1.63 0 01.11.43z" fill="#454736"/><path id="_Контур_109" data-name="&lt;Контур&gt;" class="cls-67" d="M49.47 79.59l-14.63-8.41a1.71 1.71 0 01-.84-1.49V57.35a.68.68 0 01.24-.52.69.69 0 00-.6.68v12.34a1.71 1.71 0 00.86 1.48l14.62 8.41a.69.69 0 00.79-.08.68.68 0 01-.44-.07z"/><g id="_Группа_20" data-name="&lt;Группа&gt;"><path id="_Контур_110" data-name="&lt;Контур&gt;" class="cls-69" d="M50.15 75.86v.9a157.69 157.69 0 01-16.52-9.1v-.91a159.93 159.93 0 0016.52 9.11z"/><path id="_Контур_111" data-name="&lt;Контур&gt;" class="cls-69" d="M50.15 74.15v.91A159.93 159.93 0 0133.63 66v-1a159.93 159.93 0 0016.52 9.15z"/><path id="_Контур_112" data-name="&lt;Контур&gt;" class="cls-69" d="M50.15 72.43v.91a156.14 156.14 0 01-16.52-9.11v-.91a156.16 156.16 0 0016.52 9.11z"/><path id="_Контур_113" data-name="&lt;Контур&gt;" class="cls-69" d="M50.15 70.67v.91a156.16 156.16 0 01-16.52-9.11v-.85a156.08 156.08 0 0016.52 9.05z"/><g id="_Группа_21" data-name="&lt;Группа&gt;"><path id="_Контур_114" data-name="&lt;Контур&gt;" class="cls-70" d="M50.15 76.34v.91a177.51 177.51 0 01-16.52-9.16v-.91a177.54 177.54 0 0016.52 9.16z"/><path id="_Контур_115" data-name="&lt;Контур&gt;" class="cls-70" d="M50.15 74.62v.91a159.93 159.93 0 01-16.52-9.11v-.91a159.93 159.93 0 0016.52 9.11z"/><path id="_Контур_116" data-name="&lt;Контур&gt;" class="cls-70" d="M50.15 72.92v.91a177.54 177.54 0 01-16.52-9.16v-.91a177.54 177.54 0 0016.52 9.16z"/><path id="_Контур_117" data-name="&lt;Контур&gt;" class="cls-70" d="M50.15 71.14V72a156.15 156.15 0 01-16.52-9.11V62a156.15 156.15 0 0016.52 9.14z"/></g><path id="_Контур_118" data-name="&lt;Контур&gt;" class="cls-69" d="M50.15 68.89v.91a156.17 156.17 0 01-16.52-9.1v-.91a156.17 156.17 0 0016.52 9.1z"/><path id="_Контур_119" data-name="&lt;Контур&gt;" class="cls-69" d="M50.15 67.19v.91A158.34 158.34 0 0133.63 59v-.91a158.34 158.34 0 0016.52 9.1z"/><path id="_Контур_120" data-name="&lt;Контур&gt;" class="cls-69" d="M50.09 66.35a155.91 155.91 0 01-16.42-9.05.73.73 0 01.21-.33.74.74 0 01.37-.19l.85.54a24.8 24.8 0 003.29 2.39l.11.07c2 1.16 4.06 2.28 6 3.3l.15.08c2.61 1.28 4.65 2.18 4.65 2.18a1.59 1.59 0 01.51.47 1.49 1.49 0 01.28.54z"/><g id="_Группа_22" data-name="&lt;Группа&gt;"><path id="_Контур_121" data-name="&lt;Контур&gt;" class="cls-70" d="M50.15 69.38v.91a177.56 177.56 0 01-16.52-9.16v-.91a177.54 177.54 0 0016.52 9.16z"/><path id="_Контур_122" data-name="&lt;Контур&gt;" class="cls-70" d="M50.15 67.66v.91a158.36 158.36 0 01-16.52-9.12v-.91a158.34 158.34 0 0016.52 9.12z"/><path id="_Контур_123" data-name="&lt;Контур&gt;" class="cls-70" d="M50.15 66.8v.05a174.94 174.94 0 01-16.52-9.15v-.19a.53.53 0 010-.21.73.73 0 01.21-.33c1.46.93 3 1.84 4.51 2.73l.11.07c2 1.16 4.06 2.28 6 3.3l.15.08c1.86 1 3.62 1.87 5.16 2.64a1.49 1.49 0 01.28.57 1.63 1.63 0 01.1.44z"/></g></g></g></g><path id="_Контур_124" data-name="&lt;Контур&gt;" d="M59.6 63.52l-1.45 1.17S39.69 58 28.17 47.37l1.45-1.17z" fill="#35b7de"/><path id="_Контур_125" data-name="&lt;Контур&gt;" class="cls-27" d="M63.47 60.18a1.25 1.25 0 01-1-.46 1.21 1.21 0 01-.24-1l1.29-8.58a4.65 4.65 0 012-2.93L70 44.39a1.39 1.39 0 012.15 1.18v7.72a3.61 3.61 0 01-1.8 3.12L64.08 60a1.23 1.23 0 01-.61.17z"/><path id="_Контур_126" data-name="&lt;Контур&gt;" d="M63.87 59.66l6.24-3.6a3.2 3.2 0 001.6-2.77v-7.72a1 1 0 00-1.53-.84l-4.38 2.79a4.2 4.2 0 00-1.8 2.65l-1.3 8.6a.82.82 0 001.17.89z" fill="#6ba9b0"/><path id="_Контур_127" data-name="&lt;Контур&gt;" class="cls-27" d="M63.81 71.66a1.15 1.15 0 01-1.15-1.15v-5.9a1.7 1.7 0 01.85-1.47l2.38-1.37a1.15 1.15 0 011.73 1v5.9a1.7 1.7 0 01-.85 1.47l-2.38 1.37a1.16 1.16 0 01-.58.15z"/><path id="_Контур_128" data-name="&lt;Контур&gt;" d="M66.56 69.78l-2.38 1.37a.75.75 0 01-1.12-.65v-5.9a1.29 1.29 0 01.65-1.12l2.38-1.37a.75.75 0 011.12.65v5.9a1.29 1.29 0 01-.65 1.12z" fill="#4e98a1"/><g id="_Группа_23" data-name="&lt;Группа&gt;"><g id="_Группа_24" data-name="&lt;Группа&gt;"><path id="_Контур_129" data-name="&lt;Контур&gt;" class="cls-74" d="M90.83 54.94l-14.01 8.24v2.72l.65.41 14.01-10.97-.65-.4z"/><path id="_Контур_130" data-name="&lt;Контур&gt;" class="cls-47" d="M91.48 55.34l-14.01 8.25v2.72l14.01-8.25v-2.72z"/></g><g id="_Группа_25" data-name="&lt;Группа&gt;"><path id="_Контур_131" data-name="&lt;Контур&gt;" class="cls-57" d="M88.72 58.1v.43a.56.56 0 01-.28.47l-1.84 1.07a.22.22 0 01-.33-.19v-.12l1.54-.9a.56.56 0 00.28-.47v-.31l.3-.17a.22.22 0 01.33.19z"/><path id="_Контур_132" data-name="&lt;Контур&gt;" class="cls-60" d="M88.09 58.09v.31a.56.56 0 01-.28.47l-1.54.9v-.31a.56.56 0 01.28-.47z"/></g><g id="_Группа_26" data-name="&lt;Группа&gt;"><path id="_Контур_133" data-name="&lt;Контур&gt;" class="cls-57" d="M84.39 60.67v.43a.56.56 0 01-.28.47l-1.84 1.07a.22.22 0 01-.33-.19v-.12l1.54-.9a.56.56 0 00.28-.47v-.31l.3-.17a.22.22 0 01.33.19z"/><path id="_Контур_134" data-name="&lt;Контур&gt;" class="cls-60" d="M83.76 60.65V61a.56.56 0 01-.28.47l-1.54.9V62a.56.56 0 01.28-.47z"/></g></g><g id="_Группа_27" data-name="&lt;Группа&gt;"><path id="_Контур_135" data-name="&lt;Контур&gt;" class="cls-75" d="M26.73 62.33l1.44-.61v1.44c9.24 11 30 17.3 30 17.3l2.35-.4 1.16.67-2.76 1.7S25.4 72.77 25.4 63.1z"/><path id="_Контур_136" data-name="&lt;Контур&gt;" d="M61.64 80.73l-.85 8.2-.7.42a2.29 2.29 0 01-1.35.34 2.34 2.34 0 01-1.1-.3l-20.8-10.92-10.57-7.19a1.72 1.72 0 01-.88-1.51v-6.66c13.25 13.78 32.26 18.61 32.26 18.61a2.34 2.34 0 001.1.3 2.29 2.29 0 001.35-.34z" fill="#99afba"/><path id="_Контур_137" data-name="&lt;Контур&gt;" class="cls-67" d="M61.64 80.73l-.85 8.2-.7.42a2.29 2.29 0 01-1.35.34V82a2.29 2.29 0 001.35-.34z"/><path id="_Контур_138" data-name="&lt;Контур&gt;" d="M60.79 87.57l-.7.43a2.39 2.39 0 01-2.45 0S34.23 78.27 25.4 69.42v.35a2.17 2.17 0 00.87 1.51c9.35 8.87 31.38 18.12 31.38 18.12a2.39 2.39 0 002.45 0l.7-.43.14-1.43z" fill="#d84e42"/><g id="_Группа_28" data-name="&lt;Группа&gt;"><path id="_Контур_139" data-name="&lt;Контур&gt;" d="M44.94 84a1.81 1.81 0 01-1-1.52v-3a.64.64 0 011-.63l7.29 3.28a1.81 1.81 0 011 1.52v3a.64.64 0 01-1 .63z" style="mix-blend-mode:multiply" fill="#8b8b8b"/><path id="_Контур_140" data-name="&lt;Контур&gt;" d="M45.22 83.47a1.81 1.81 0 01-1-1.52v-3a.64.64 0 011-.63l7.29 3.28a1.81 1.81 0 011 1.52v3a.64.64 0 01-1 .63z" fill="#f9fcfc"/><path id="_Контур_141" data-name="&lt;Контур&gt;" d="M44.94 83.61a1.81 1.81 0 01-1-1.52v-3a.64.64 0 011-.63l7.29 3.28a1.81 1.81 0 011 1.52v3a.64.64 0 01-1 .63z" fill="#e0e0e0"/><path id="_Контур_142" data-name="&lt;Контур&gt;" d="M52.22 86.68l-7.29-3.28a1.47 1.47 0 01-.8-1.23v-3a.52.52 0 01.8-.51l7.29 3.28a1.47 1.47 0 01.8 1.23v3a.52.52 0 01-.8.51z" fill="#f8ffff"/><g id="_Группа_29" data-name="&lt;Группа&gt;"><path id="_Контур_143" data-name="&lt;Контур&gt;" class="cls-82" d="M53 83.13a1.47 1.47 0 00-.79-1.21l-7.29-3.28a.52.52 0 00-.79.49z"/><path id="_Контур_144" data-name="&lt;Контур&gt;" class="cls-82" d="M44.14 82.19a1.47 1.47 0 00.79 1.21l7.29 3.28a.52.52 0 00.79-.49z"/></g></g></g><g id="_Группа_30" data-name="&lt;Группа&gt;"><path id="_Контур_145" data-name="&lt;Контур&gt;" class="cls-83" d="M44 30.63l-.81.52c-.22.14-.24.38-.47.25l-.36-.29c-.25-.14-.52-.67-.28-.82l.81-.51c.22-.14 1.1-.53 1.33-.39h.09c.28.18-.05 1.09-.31 1.24z"/><path id="_Контур_146" data-name="&lt;Контур&gt;" class="cls-84" d="M45.17 30.74l-1.29.82a.8.8 0 01-.82 0l-.31-.18c-.28-.16.09-1.31.35-1.47l.92-.08c.25-.15.63-.55.89-.4l.21.16a.9.9 0 01.05 1.15z"/><path id="_Контур_147" data-name="&lt;Контур&gt;" class="cls-85" d="M44.85 30l-.81.52a.71.71 0 01-.73 0h-.1a.38.38 0 010-.65l.81-.51a.71.71 0 01.73 0h.09a.38.38 0 01.01.64z"/></g><g id="_Группа_31" data-name="&lt;Группа&gt;"><path id="_Контур_148" data-name="&lt;Контур&gt;" class="cls-83" d="M51.42 34.92l-.81.52c-.22.14-.24.38-.47.25l-.36-.29c-.25-.14-.52-.67-.28-.82l.81-.51c.22-.14 1.1-.53 1.33-.39h.09c.27.18-.07 1.09-.31 1.24z"/><path id="_Контур_149" data-name="&lt;Контур&gt;" class="cls-84" d="M52.57 35l-1.29.82a.8.8 0 01-.82 0l-.31-.18c-.28-.16.09-1.31.35-1.47l.92-.08c.25-.15.63-.55.89-.4l.21.16a.9.9 0 01.05 1.15z"/><path id="_Контур_150" data-name="&lt;Контур&gt;" class="cls-85" d="M52.24 34.31l-.81.52a.71.71 0 01-.73 0h-.1a.38.38 0 010-.65l.81-.51a.71.71 0 01.73 0h.09a.38.38 0 01.01.64z"/></g><g id="_Группа_32" data-name="&lt;Группа&gt;"><path id="_Контур_151" data-name="&lt;Контур&gt;" class="cls-83" d="M58.82 39.21l-.81.52c-.22.14-.24.38-.47.25l-.36-.29c-.25-.14-.52-.67-.28-.82l.81-.51c.22-.14 1.1-.53 1.33-.39h.09c.26.18-.07 1.09-.31 1.24z"/><path id="_Контур_152" data-name="&lt;Контур&gt;" class="cls-84" d="M60 39.32l-1.29.82a.8.8 0 01-.82 0l-.35-.14c-.28-.16.09-1.31.35-1.47l.92-.08c.25-.15.63-.55.89-.4l.21.16a.9.9 0 01.09 1.11z"/><path id="_Контур_153" data-name="&lt;Контур&gt;" class="cls-85" d="M59.64 38.6l-.81.52a.71.71 0 01-.73 0H58a.38.38 0 010-.65l.81-.51a.71.71 0 01.73 0h.09a.38.38 0 01.01.64z"/></g><g id="_Группа_33" data-name="&lt;Группа&gt;"><path id="_Контур_154" data-name="&lt;Контур&gt;" fill="#538b94" d="M60.48 51.35l-1.93 11.37-16.24-7.86-1.79-.83-.04-.02-10.07-7.57 1.92-11.35 1.44.83 6.38 3.69 3.03 1.75 1.73 1 15.57 8.99z"/><path id="_Контур_155" data-name="&lt;Контур&gt;" fill="#75a2a9" d="M44.33 52.49l-1.79-.83-.04-.02-10.08-7.56-1.8 1.09-.21 1.27 10.07 7.57.04.02 1.79.83 16.24 7.86.53-3.09-14.75-7.14z"/><path id="_Контур_156" data-name="&lt;Контур&gt;" d="M40.15 39.61a2.93 2.93 0 01-.5.35l-6.24 3.6a.82.82 0 01-1.21-.88l1.31-6a3.7 3.7 0 01.26-.8z" fill="#b5d6c7"/><path id="_Контур_157" data-name="&lt;Контур&gt;" class="cls-62" d="M44.91 42.36v.01l-1.86 13.49-1.78-.83 1.91-13.66v-.01l1.73 1z"/></g><g id="_Группа_34" data-name="&lt;Группа&gt;"><path id="_Контур_158" data-name="&lt;Контур&gt;" d="M39.41 67.5a3.1 3.1 0 001.67 2.11c.92.5 1.65.37 1.64-.29a3.1 3.1 0 00-1.67-2.11c-.91-.51-1.65-.38-1.64.29z" fill="#929da6"/><path id="_Контур_159" data-name="&lt;Контур&gt;" class="cls-65" d="M39.06 67.76a3.1 3.1 0 001.67 2.11c.92.5 1.65.37 1.64-.29a3.1 3.1 0 00-1.67-2.11c-.92-.47-1.7-.38-1.64.29z"/></g><g id="_Группа_35" data-name="&lt;Группа&gt;"><path id="_Контур_160" data-name="&lt;Контур&gt;" class="cls-90" d="M57.49 78v-1.6a1.29 1.29 0 00-.74-1.18l-4.12-1.88-.8-.36a.65.65 0 00-.88.61v1.93a1.28 1.28 0 00.74 1.17L56.61 79a.65.65 0 00.88-.62z"/><path id="_Контур_161" data-name="&lt;Контур&gt;" class="cls-91" d="M57.16 78.46l-4.92-2.25A1.28 1.28 0 0151.5 75v-1.89a.57.57 0 010-.13.67.67 0 00-.59.65v1.93a1.28 1.28 0 00.74 1.17L56.61 79a.64.64 0 00.85-.48.54.54 0 01-.3-.06z"/><path id="_Контур_162" data-name="&lt;Контур&gt;" class="cls-92" d="M57.48 76.44a1.29 1.29 0 00-.74-1.18l-4.12-1.88-.2-.09v1.12a1.28 1.28 0 00.74 1.17l4.32 2z"/></g><g id="_Группа_36" data-name="&lt;Группа&gt;"><path id="_Контур_163" data-name="&lt;Контур&gt;" class="cls-90" d="M32.83 64.83v-1.6a1.66 1.66 0 00-.5-1.25l-2.79-2.31-.54-.45c-.27-.22-.6.07-.59.52v1.94a1.65 1.65 0 00.5 1.24l3.33 2.76c.27.22.6-.07.6-.53z"/><path id="_Контур_164" data-name="&lt;Контур&gt;" class="cls-91" d="M32.61 65.22l-3.33-2.76a1.65 1.65 0 01-.5-1.24v-1.94a.75.75 0 010-.13c-.21 0-.4.25-.4.59v1.94a1.65 1.65 0 00.5 1.24l3.33 2.76c.24.2.51 0 .57-.39a.29.29 0 01-.17-.07z"/><path id="_Контур_165" data-name="&lt;Контур&gt;" class="cls-92" d="M32.82 63.23a1.66 1.66 0 00-.5-1.25l-2.79-2.31-.14-.11v1.13a1.65 1.65 0 00.5 1.24l2.92 2.42z"/></g><g id="_Группа_37" data-name="&lt;Группа&gt;"><path id="_Контур_166" data-name="&lt;Контур&gt;" class="cls-93" d="M55.21 72.93v-1a.84.84 0 00-.48-.77L52 69.89l-.52-.24a.43.43 0 00-.57.4v1.26a.84.84 0 00.48.76l3.21 1.47a.43.43 0 00.57-.4z"/><path id="_Контур_167" data-name="&lt;Контур&gt;" class="cls-91" d="M55 73.21l-3.21-1.47a.84.84 0 01-.49-.74v-1.29a.37.37 0 010-.09.44.44 0 00-.38.43v1.26a.84.84 0 00.48.76l3.21 1.47a.41.41 0 00.55-.31.35.35 0 01-.16-.02z"/><path id="_Контур_168" data-name="&lt;Контур&gt;" class="cls-94" d="M55.2 71.89a.84.84 0 00-.48-.77L52 69.89l-.13-.06v.73a.84.84 0 00.48.76l2.82 1.29z"/></g><g id="_Группа_38" data-name="&lt;Группа&gt;"><path id="_Контур_169" data-name="&lt;Контур&gt;" class="cls-93" d="M32.83 60.78v-1a1 1 0 00-.31-.77l-1.72-1.4-.33-.27c-.17-.14-.37 0-.37.32v1.19a1 1 0 00.31.77l2 1.7c.17.14.37 0 .37-.33z"/><path id="_Контур_170" data-name="&lt;Контур&gt;" class="cls-91" d="M32.69 61l-2-1.7a1 1 0 01-.31-.77v-1.16a.46.46 0 010-.08c-.13 0-.25.16-.24.37v1.19a1 1 0 00.31.77l2 1.7c.15.12.32 0 .35-.24a.18.18 0 01-.11-.08z"/><path id="_Контур_171" data-name="&lt;Контур&gt;" class="cls-94" d="M32.82 59.8a1 1 0 00-.31-.77l-1.71-1.42-.08-.07v.69A1 1 0 0031 59l1.8 1.49z"/></g><g id="_Группа_39" data-name="&lt;Группа&gt;"><path id="_Контур_172" data-name="&lt;Контур&gt;" d="M75.86 34.64v29.59c0 .75.94 1.36 2.09 1.36S80 65 80 64.23V34.57z" fill="url(#Ѕезым_нный_градиент_21-2)"/><ellipse id="_Контур_173" data-name="&lt;Контур&gt;" class="cls-75" cx="77.95" cy="34.64" rx="2.09" ry="1.36"/><g id="_Группа_40" data-name="&lt;Группа&gt;"><path id="_Контур_174" data-name="&lt;Контур&gt;" d="M81.4 23.19a2.67 2.67 0 01-1 2.31l-.56.46a2 2 0 00-.77 1.6v6.76a1.11 1.11 0 01-1.09.56 1.13 1.13 0 01-1.06-.52V27a3.57 3.57 0 011.32-2.77l2.31-2.08s.74-.15.85 1.04z" fill="#b9c6c7"/><path id="_Контур_175" data-name="&lt;Контур&gt;" class="cls-74" d="M77.33 34.69v-7.34a3.57 3.57 0 011.32-2.77l2.31-2.08a.64.64 0 01.26 0 .66.66 0 00-.71-.35l-2.31 2.08A3.57 3.57 0 0076.88 27v7.35a.84.84 0 00.48.4z"/><path id="_Контур_176" data-name="&lt;Контур&gt;" class="cls-47" d="M81 24.73l-1.2 1.11a3.57 3.57 0 00-1.32 2.77v6.15a.85.85 0 00.55-.46v-6.75a2 2 0 01.77-1.6l.56-.46a2.85 2.85 0 00.64-.76z"/></g></g></g></g></g></g></g></svg>