<svg xmlns="http://www.w3.org/2000/svg" viewBox="0 0 82.5 78.91"><defs><style>.cls-1{fill:none;stroke:#0f0f0f;stroke-linecap:round;stroke-linejoin:round;stroke-width:2.5px}</style></defs><g id="Слой_2" data-name="Слой 2"><g id="Layer_2" data-name="Layer 2"><path class="cls-1" d="M61.11 41.21s10.91 4.27 12.78 6C78 51.1 79 60.72 79 66c0 4.42 2.21 9.57 2.21 9.57M68.07 53.5c-2.79-3.15-5.34-3-7.42-5.07-4-3.95-3.66-3.66-7.37-7.25-2.2-2.13-3.7-3.38-5.9-1.91-1.85 1.24-1.66 2.83-.72 4.85 1.14 2.47 7.21 10.36 8.49 12.21a2.68 2.68 0 01.47 1.34c.19 2.61.89 10 10.91 12.77m-9.82 2.86a7.73 7.73 0 013.76 4.36"/><path class="cls-1" d="M53.11 68H4.47a3.22 3.22 0 01-3.22-3.23V4.88a3.63 3.63 0 013.63-3.63h47.51A3.63 3.63 0 0156 4.88v31.5M12.85 14.3h31.57m-31.57 5.21h31.57m-31.57 5.21h14.47M12.25 41.45v17m5.33-17v17m4-17v17m4-17v17m5.34-17v17m5.33-17v17m4-17v17"/></g></g></svg>