<svg xmlns="http://www.w3.org/2000/svg" viewBox="0 0 79.74 82.5"><defs><style>.cls-1{fill:none;stroke:#0f0f0f;stroke-linecap:round;stroke-linejoin:round;stroke-width:2.5px}</style></defs><g id="Слой_2" data-name="Слой 2"><g id="Layer_2" data-name="Layer 2"><path class="cls-1" d="M43.62 6h12.95a5.89 5.89 0 015.89 5.89v23.17M44.83 81.25H7.14a5.89 5.89 0 01-5.89-5.89V11.85A5.89 5.89 0 017.14 6h13"/><path class="cls-1" d="M12.23 20.43l1.63 1.62 3.08-3.08m6.56 32.16h5.64M23.5 61.49h3.76"/><rect class="cls-1" x="20.09" y="1.25" width="23.53" height="9.41" rx="1.86" ry="1.86"/><path class="cls-1" d="M56.74 55.42l21.75-9.52v24.47L56.74 81.25 33.63 70.37V45.9l23.11 9.52zM33.63 45.9l22.43-7.47 22.43 7.47m-33.82 4.55l21.41-8.68m-9.34 13.65v25.83"/><path class="cls-1" d="M78.49 66.3L56.74 77.17 33.63 66.3m-21.4-36.46l1.63 1.62 3.08-3.08m-4.71 11.81l1.63 1.63 3.08-3.08"/><rect class="cls-1" x="12.48" y="48.99" width="4.18" height="4.18" rx=".34" ry=".34"/><rect class="cls-1" x="12.48" y="59.35" width="4.18" height="4.18" rx=".34" ry=".34"/><path class="cls-1" d="M23.5 40.31h12.23M23.5 29.96h23.53M23.5 20.54h23.53"/></g></g></svg>