<svg xmlns="http://www.w3.org/2000/svg" viewBox="0 0 82.5 81.68"><defs><style>.cls-1{fill:none;stroke:#0f0f0f;stroke-linecap:round;stroke-linejoin:round;stroke-width:2.5px}</style></defs><g id="Слой_2" data-name="Слой 2"><g id="Layer_2" data-name="Layer 2"><path class="cls-1" d="M70.15 42s-11.1-9.9-11.1-21.71a11.1 11.1 0 1122.2 0c0 11.82-11.1 21.71-11.1 21.71z"/><circle class="cls-1" cx="70.15" cy="20.29" r="5.77"/><path class="cls-1" d="M13.69 59.15a4.85 4.85 0 01-2.23-1.78c-.32-.45.13-.87.47-1.19l1.59-1.59"/><path class="cls-1" d="M31.55 39.72l.8-.8c.33-.33.74-.79 1.19-.47a4.85 4.85 0 011.78 2.23c.21.06 14.34-7.91 15.61-3.49.53 1.85-.48 2.69-3 4.9-4.13 3.58-16 12.43-15.54 12.46 3.38 4.27 7.56 10.29 8 10.9.26.35.22.42.6.36a31.47 31.47 0 016.3-.62c2.52 0 3.06 2 1.88 2.67-.64.38-3.94 1.82-5.35 2.61.37.66 1.17 2.35.31 3-.68.86-2.37.06-3-.31-.79 1.41-2.22 4.72-2.61 5.35-.71 1.19-2.67.65-2.67-1.88a31.47 31.47 0 01.62-6.3c.06-.38 0-.34-.36-.6-.62-.46-6.63-4.65-10.9-8 0-.41-8.88 11.41-12.46 15.54-2.2 2.54-3 3.55-4.9 3C3.41 79 11.37 64.9 11.32 64.69a4.85 4.85 0 01-2.23-1.78c-.32-.45.13-.87.47-1.19l.8-.8m12.83-15.34c-2.28-2.8-10.31-11.41-15-9.4a2.62 2.62 0 00-1.37 1.37c-2 4.69 6.61 12.72 9.4 15"/><path class="cls-1" d="M29.79 43.05A4.85 4.85 0 0028 40.82c-.45-.32-.87.13-1.19.47l-1.59 1.59"/><path d="M42.54 53.18a12.85 12.85 0 002.88 3.5c9.45 8.23 25 1.61 25-11.83M3.22 32.78C-8.09 3.36 32.52-13 42.77 17.82c1.63 4.91 1.31 9.76.53 14.41" stroke-dasharray="1.9 3.8" fill="none" stroke="#0f0f0f" stroke-linecap="round" stroke-linejoin="round" stroke-width="2.5"/></g></g></svg>