<svg xmlns="http://www.w3.org/2000/svg" viewBox="0 0 82.5 82.5"><defs><style>.cls-1{fill:none;stroke:#0f0f0f;stroke-linecap:round;stroke-linejoin:round;stroke-width:2.5px}</style></defs><g id="Слой_2" data-name="Слой 2"><g id="Layer_2" data-name="Layer 2"><circle class="cls-1" cx="41.25" cy="41.25" r="30.58"/><path class="cls-1" d="M41.25 1.25v15.76m0 48.48v15.76m-40-40h15.76m48.48 0h15.76m-4.73-5.73A35.75 35.75 0 0047 6m0 70.52A35.75 35.75 0 0076.52 47m-41-41A35.75 35.75 0 006 35.52M6 47a35.75 35.75 0 0029.52 29.52m6.25-38.62l16.48-7.21v18.54l-16.48 8.25-17.52-8.25V30.69l17.52 7.21z"/><path class="cls-1" d="M24.25 30.69l17-5.67 17 5.67m-25.63 3.44l16.23-6.58M41.77 37.9v19.58"/></g></g></svg>