<svg xmlns="http://www.w3.org/2000/svg" viewBox="0 0 82.5 55.34"><defs><style>.cls-1{fill:none;stroke:#0f0f0f;stroke-linecap:round;stroke-linejoin:round;stroke-width:2.5px}</style></defs><g id="Слой_2" data-name="Слой 2"><g id="Layer_2" data-name="Layer 2"><path class="cls-1" d="M47.92 49H80.7a.55.55 0 01.55.55v1.69a2.88 2.88 0 01-2.88 2.88H4.13a2.88 2.88 0 01-2.88-2.92v-1.68A.55.55 0 011.8 49h34.12m4.12-43.78h2.42M8.93 9.02h64.64"/><path class="cls-1" d="M1.65 49l7.27-8.11V7.11a5.86 5.86 0 015.86-5.86h52.93a5.86 5.86 0 015.86 5.86v33.78L80.85 49m-17.38-8.09h10.1m-64.64 0h10.1m4.04 4.29h1.61m-12.92 0h1.61m4.04 0h1.62m44.44 0h1.62m4.04 0h1.61m-12.92 0h1.61"/><path class="cls-1" d="M57.02 31.35v8.7l-15.06 6.36-16-6.36v-8.62m0-8.32l16 6.59 15.06-6.59M41.96 29.7v16.7"/><path class="cls-1" d="M41.96 29.7l-4.71 7.06-16-7.53 4.71-6.12"/><path class="cls-1" d="M25.96 23.11l15.52-5.18 15.54 5.18m0 0l4.23 6.12-14.12 7.06-5.17-6.59m-.47-11.77v6.59"/></g></g></svg>