<svg xmlns="http://www.w3.org/2000/svg" viewBox="0 0 49.15 82.5"><defs><style>.cls-1{fill:none;stroke:#0f0f0f;stroke-linecap:round;stroke-linejoin:round;stroke-width:2.5px}</style></defs><g id="Слой_2" data-name="Слой 2"><g id="Layer_2" data-name="Layer 2"><path class="cls-1" d="M36.82 32.31c-1.71 6.18-6.54 12.36-12.24 12.36S14 38.44 12.31 32.24m.28 31.74v12.55m23.97-12.55v12.55M17.92 50.51c1.66-1.37 1.66-7.37 1.66-7.37m11.65 7.37c-1.66-1.37-1.66-7.37-1.66-7.37"/><path class="cls-1" d="M24.19 9.48c12.19 0 17.37 4.55 13.49 22.31a.69.69 0 01-1.35 0c-.71-2.61-1.7-7.9-1.7-7.9a1.19 1.19 0 00-1.25-1.09c-4.28 0-9-2.75-9-2.75a.84.84 0 00-1 .93l1.78 4.77-7.98-4.15a1.88 1.88 0 00-2.26.39l-2.1 9.76a.69.69 0 01-1.35 0C7.61 14 12.72 9.48 24.89 9.48m.97 50.11l2.72 17.01-4 4.65-4-4.65 2.72-17.02m-8.73-8.2L19.45 59 24 54.43l-6.08-3.92c-11 2.32-15.78 7.62-15.78 18.12v4.21a3.69 3.69 0 003.69 3.69h14.75m14-25.16L29.7 59l-4.55-4.55 6.08-3.92c11 2.3 15.77 7.61 15.77 18.1v4.21a3.69 3.69 0 01-3.69 3.69H28.58"/><circle class="cls-1" cx="24.58" cy="57.44" r="2.5"/><path class="cls-1" d="M9 35.91a2.78 2.78 0 002-3.31l-1.79-8.34A2.68 2.68 0 006 22.15a2.78 2.78 0 00-2 3.31L4.53 28l1.24 5.8A2.68 2.68 0 009 35.91z"/><path class="cls-1" d="M3.94 25.17l-2.07 1.44a1.22 1.22 0 00-.6 1.23v.21l1 4.8a1.17 1.17 0 001 .85l2.48.42m34.44 1.79a2.78 2.78 0 01-2-3.31l1.78-8.34a2.68 2.68 0 013.19-2.11 2.78 2.78 0 012 3.31L44.62 28l-1.24 5.8a2.68 2.68 0 01-3.19 2.11z"/><path class="cls-1" d="M45.21 25.17l2.07 1.44a1.22 1.22 0 01.6 1.23v.21l-1 4.8a1.17 1.17 0 01-1 .85l-2.48.42"/><path class="cls-1" d="M3.76 25.29A22.82 22.82 0 013.64 23C3.64 11 13 1.25 24.58 1.25S45.51 11 45.51 23a22.82 22.82 0 01-.12 2.31M8.88 35.94c2.69 5.38 13.34 2.87 13.34 2.87"/><path class="cls-1" d="M26.23 39.93l-2.52.4a1.26 1.26 0 01-1.43-1.09l-.17-1.14a1.29 1.29 0 011-1.48l2.52-.4a1.26 1.26 0 011.43 1.09l.17 1.14a1.29 1.29 0 01-1 1.48z"/></g></g></svg>