<svg xmlns="http://www.w3.org/2000/svg" viewBox="0 0 375.98 274.28"><defs><style>.cls-1{fill:#2030a5}.cls-2{fill:#15298c}.cls-3{fill:#ef9baa}.cls-4{fill:#fe5773}.cls-5{fill:#3046b5}.cls-6{fill:#90caf4}.cls-7{fill:#e2f1f7}.cls-8{fill:#bddff4}.cls-9{fill:#5ea6d3}.cls-10{fill:#2c65d6}</style></defs><g id="Слой_2" data-name="Слой 2"><g id="Layer_1" data-name="Layer 1"><path class="cls-1" d="M123.94 182.2c-4.44-3.38-7.55-9.41-7.79-14-.32-6.19 3.35-8.5 7.46-6.84 4.79 1.94 8.62 7.49 9.89 12 2.68 9.64-3.2 13.64-9.56 8.84zm.22-16.78c.34.14-1.84-.87-3.26.17a4.34 4.34 0 00-1.53 3.91c.42 8 9.29 13.83 11.2 8.5 1.43-3.9-1.73-10.69-6.4-12.58z"/><path class="cls-2" d="M132.31 153.92c3.72-.7 7.3 2.24 9.69 5.15a21.71 21.71 0 012.14 3.23c2.86 5.43 2.72 9.46 1.65 12a4.78 4.78 0 01-2 2.24l-12.31 7.11c2.17-1.34 2.7-3.74 2.66-6.28-.48-9.34-9.61-18.87-15.38-15.86 13.63-7.86 12.53-7.32 13.55-7.59z"/><path class="cls-2" d="M121.76 165.22c-1.52 1.73-1.16 4.48-.41 6.66 2 5.43 6.2 7.87 8.5 7.28-1.05 5.73-7.09 1-9.95-6.82-1.4-4.55.32-6.91 1.86-7.12z"/><path class="cls-3" d="M125 168.55c2.61-.49 5.55 4.85 3.23 6.35l-1.78 1c2.31-1.44-1.11-7.5-3.56-6.22 1.86-1.03 1.72-1.09 2.11-1.13z"/><path class="cls-4" d="M126.51 171.8c-1.48-2.66-4.31-3.38-4.34-.47 0 3.8 5.43 7.46 5.06 2.69a5.72 5.72 0 00-.72-2.22z"/><path class="cls-5" d="M129.93 179.18h-.14c-5.43 1-11.65-9.89-8-14 5.02-1.62 11.97 9.7 8.14 14zm-2.47-9.53a4 4 0 00-1.3-1c-1.13-.46-1.44 0-3.23 1-1.93 1.24.31 6.36 2.94 6.38.48 0 .37 0 2.41-1.19 1.3-.69.79-3.53-.82-5.19z"/><path class="cls-1" d="M263.81 250.33c.9 7.28-3.53 10.63-9.67 6.61l-.39-.28c-7.91-6-10.76-18.85-4.32-21.09 0 0 .44-.12.65-.15 6.78-1.05 12.98 8.82 13.73 14.91zm-3.88-3.77c.55 1.48-1.48-5.37-6.5-6.86l-.24-.06c-4.88-.9-5.14 5.85-1.78 10.63 5.06 7.22 11.59 4.53 8.52-3.71z"/><path class="cls-2" d="M261.43 228.57c3.77-1.31 7.78 1.82 10.32 4.91a22 22 0 013.1 5.23c1.69 4.17 2.49 9.9-1.23 12.24l-12.31 7.11c7-4.39-.92-22-10.2-22.7a4.68 4.68 0 00-2.57.59c13.66-7.88 12.33-7.14 12.89-7.38z"/><path class="cls-5" d="M259.62 253.6c-2.93 1.12-7.36-3.14-8.7-7.9-.54-1.92-.8-4.53.64-6.07 3.35-1 8.64 3.89 9.09 9.8-.05-.62.74 2.63-1.03 4.17zm-1-5c.64-2.22-2-6.13-4.1-5.52l-1.86 1.07c-2.09 1.39 1.07 7.31 3.51 6.25 2.17-1.12 2.26-1.28 2.47-1.79z"/><path class="cls-2" d="M249.58 241.37a2.9 2.9 0 012-1.73c-3.65 3.62 2.65 15.46 8.06 14-4.04 3.98-12.55-6.32-10.06-12.27z"/><path class="cls-3" d="M255.7 243.06c2.12.74 3.85 4.23 2.75 5.91-.72.71-.29.31-2.19 1.4 2.28-1.44-1.11-7.52-3.59-6.21 1.93-1.16 2.09-1.38 3.03-1.1z"/><path class="cls-4" d="M252.33 244.46c-1.39 1.66 1.19 6.51 3.59 6 3.24-.59-1.17-8.89-3.59-6z"/><path class="cls-1" d="M288.21 266c.9 7.27-3.53 10.63-9.67 6.61l-.39-.28c-8.64-6.52-10.58-20.18-3.67-21.24s12.97 8.78 13.73 14.91zm-3.88-3.77c.55 1.48-1.48-5.37-6.5-6.86l-.24-.06c-4.88-.9-5.14 5.85-1.78 10.63 5.06 7.18 11.58 4.49 8.51-3.75z"/><path class="cls-2" d="M285.82 244.19c3.77-1.31 7.78 1.82 10.32 4.91a22 22 0 013.1 5.23c1.69 4.17 2.49 9.9-1.23 12.24l-12.31 7.11c7-4.39-.92-22-10.2-22.7a4.68 4.68 0 00-2.57.59c13.66-7.88 12.33-7.13 12.89-7.38z"/><path class="cls-5" d="M284 269.23c-2.93 1.12-7.36-3.14-8.7-7.9-.54-1.92-.8-4.53.64-6.07 3.35-1 8.64 3.89 9.09 9.8-.03-.62.76 2.62-1.03 4.17zm-1-5c.64-2.22-2-6.13-4.1-5.52l-1.86 1.07c-2.09 1.39 1.07 7.31 3.51 6.25 2.18-1.12 2.27-1.28 2.45-1.8z"/><path class="cls-2" d="M274 257a2.91 2.91 0 012-1.73c-3.65 3.62 2.65 15.46 8.06 14C280 273.25 271.49 263 274 257z"/><path class="cls-3" d="M280.1 258.68c2.12.74 3.85 4.23 2.75 5.91-.72.71-.29.31-2.19 1.4 2.28-1.44-1.11-7.52-3.59-6.21 1.93-1.1 2.09-1.37 3.03-1.1z"/><path class="cls-4" d="M276.73 260.09c-1.39 1.66 1.19 6.51 3.59 6 3.23-.59-1.17-8.89-3.59-6z"/><path class="cls-1" d="M1.3 99.56c1.41-4.77 6-4.88 9.9-1.92 7.12 5.37 8.88 14.35 7.3 18.11-4.41 10.51-20.21-6.03-17.2-16.19zm4 1.18c-2.38 2.37-.59 9.76 4.49 13.08a7.24 7.24 0 001.74.79c1.94.46 3.26-.28 3.84-1.67 2.51-6.03-6.03-16.24-10.09-12.2z"/><path class="cls-6" d="M21.3 117.58l61 35.21V138.5l-28.23-16.28-16.84-8.46v-5.28L11.79 93.79c8.8 5.48 12.91 18.1 9.51 23.79zm-9.51-23.79L0 87v1.45l6.56 3.78a9.94 9.94 0 015.23 1.56z"/><path class="cls-7" d="M0 86.98l.44.26v-.51l-.44.25z"/><path class="cls-6" d="M39.58 58.23V84l-2.35-1.36v25.81L.44 87.24V61.43l13.41-18.06z"/><path class="cls-7" d="M13.85 43.37l25.73 14.86 9.87-5.7v-2.57l63.03-36.39L88.98 0 13.85 43.37z"/><path class="cls-8" d="M39.58 58.23v25.8l9.87-5.7v-25.8l-9.87 5.7z"/><path class="cls-8" d="M49.45 78.33l-9.87 5.7-2.35-1.36v31.08l12.22-7.05V78.33z"/><path class="cls-7" d="M37.23 113.75l16.84 8.47 9.61-5.55-4.2-2.42-10.03-5.8v-1.75l-12.22 7.05zm45.05 24.75l18.63 12.02 10.7-6.18-19.72-11.39-9.61 5.55z"/><path class="cls-7" d="M82.28 138.5l9.61-5.55-28.21-16.28-9.61 5.55 28.21 16.28z"/><path class="cls-8" d="M111.11 149.65v8.01l6.33-3.66v-6.29l-5.83-3.37-10.7 6.18v5.01l10.2-5.88z"/><path class="cls-9" d="M89.32 147.88l.86-.17a1.34 1.34 0 01.31-.09h-.06a5.31 5.31 0 013.5.47L87.18 152a6 6 0 012.14-4.12z"/><path class="cls-6" d="M111.11 149.65v8.01l-6.97-4 6.97-4.01z"/><path class="cls-5" d="M312.26 271.89l63.72-36.79v-17.78l-63.72 36.79v17.78z"/><path class="cls-1" d="M59.48 114.25v-58.5l-10.03-5.79v58.49l10.03 5.8z"/><path class="cls-10" d="M49.45 49.96l10.03 5.79 63.72-36.78-10.03-5.79-.69.39-63.03 36.39z"/><path class="cls-5" d="M59.48 55.75v52.42l63.72-36.79V18.97L59.48 55.75z"/><path class="cls-10" d="M376 217.32l-63.71 36.78L59.48 108.17l63.72-36.79zM70.34 106.76l2.19 1.24L314.7 247.84 362.93 220l2.19-1.26L120.76 77.65z"/><path class="cls-5" d="M15.75 111.48a4.43 4.43 0 01-1 2.42c-2.64.71-6.68-2.38-8.49-7.24-.73-2-1.13-5.17.43-6.72 3.69-1.01 9.8 5.42 9.06 11.54zm-4.29-7.82a2 2 0 00-1.65-.35c-.24.09-1.86 1-2 1.14-1.81 1.14-.08 5.45 2.19 6.24 1.32.46 1.51-.35 3-1 1.88-.8.55-4.77-1.54-6.03z"/><path class="cls-2" d="M6.66 99.93c-1.66 1.67-1.13 4.83-.31 7 1.94 4.8 5.85 7.59 8.37 6.92-2.74 2.73-8.24-1.36-10-7.12-.81-2.73-.72-6.08 1.94-6.8z"/><path class="cls-3" d="M9.72 103.34c1.85-.65 4.39 2.53 4.15 5a1.48 1.48 0 01-1 1.38l-1.31.76c1.85-1.84-1.51-7.26-3.8-6 .24-.13 1.78-1.06 1.96-1.14z"/><path class="cls-4" d="M10.23 105.1c-2.6-2.37-4.5.61-2.1 4 1 1.44 2.85 2.39 3.69 1.09.68-1.02.18-3.47-1.59-5.09z"/><path class="cls-9" d="M1.09 86.87V63.82l12.75-17.18 17.54 10.13v47.58zM14 47.48L1.73 64v22.5l29 16.75V57.14z"/><path class="cls-5" d="M29.35 57.94l-12.74-7.35-.78.45 12.73 7.36.79-.46z"/><path class="cls-1" d="M29.35 75.46V57.94l-.79.46v17.51l.79-.45z"/><path class="cls-2" d="M28.56 75.91V58.4l-12.73-7.36-9.1 12.26 21.83 12.61z"/><path fill="#f74169" d="M29.45 80.43v-1.72l-.94.54v1.72l.94-.54z"/><path class="cls-4" d="M29.45 78.71l-4.27-2.47-.94.55 4.27 2.46.94-.54z"/><path fill="#ca4560" d="M28.51 79.25l-4.27-2.46v1.72l4.27 2.46v-1.72z"/><path class="cls-1" d="M365.12 218.73L120.76 77.65v2.52L362.93 220l2.19-1.27z"/><path class="cls-5" d="M120.76 77.65l-50.42 29.11 2.19 1.26 48.23-27.85v-2.52z"/><path fill="#3685fc" d="M120.76 80.17l-48.23 27.85L314.7 247.84 362.93 220 120.76 80.17z"/><path class="cls-2" d="M9.67 92.77l.22.08c4 1.66 6.93 4.89 9.2 8.57a24.3 24.3 0 013.08 7.85 14.7 14.7 0 01.11 5.67l-5.61 3.24a5 5 0 001.83-2.42c3.14-8.84-7.89-23.18-14.87-19.51zm83.75 55.08c2-.37 3.86 1.18 5.12 2.72a11.47 11.47 0 011.13 1.71c1.51 2.87 1.44 5 .87 6.33a2.53 2.53 0 01-1 1.18L93 163.54a3.52 3.52 0 001.41-3.32c-.25-4.94-5.08-10-8.12-8.38 7.17-4.14 6.59-3.84 7.13-3.99z"/><path class="cls-2" d="M87.85 153.81c-2 2.23 1.56 8.06 4.27 7.37-1.34 1.32-4.16-.39-5.26-3.61-.74-2.39.14-3.65.99-3.76z"/><path class="cls-3" d="M89.58 155.58c1.38-.26 2.93 2.56 1.71 3.36l-.94.54c1.22-.76-.59-4-1.88-3.29.96-.56.88-.6 1.11-.61z"/><path class="cls-4" d="M88.06 157c0 2 2.87 3.94 2.67 1.42-.15-1.96-2.65-3.42-2.67-1.42z"/><path class="cls-5" d="M92.16 161.19h-.08c-2.87.54-6.15-5.23-4.23-7.38 2.66-.87 6.34 5.11 4.31 7.38zm-1.31-5c-1-1.06-1.55-.46-2.4 0-1 .66.17 3.36 1.55 3.37.25 0 .2 0 1.27-.63.73-.4.44-1.93-.41-2.78z"/><path class="cls-1" d="M89 162.79a11 11 0 01-4.11-7.37c-.17-3.27 1.77-4.49 3.94-3.61 2.53 1 4.56 4 5.22 6.35 1.41 5.07-1.69 7.18-5.05 4.63zm.12-8.86a2 2 0 00-1.72.09 2.29 2.29 0 00-.81 2.07c.22 4.2 4.91 7.31 5.92 4.49.73-2.07-.92-5.66-3.39-6.66zm181.29 93.84l4.52 2.61c6.46-3.73 5.71-3.3 6.1-3.51l.3-.13c6.17-2.15 14.34 7.5 14.81 15.88l16.18 9.38v-17.81L59.54 108.25v6.08l4.2 2.42L91.94 133l19.73 11.39 5.83 3.37v11.7l2.58 1.49c6.54-3.78 5.73-3.32 6.13-3.52a5.73 5.73 0 01.6-.23c6.4-1.67 14.07 8.19 14.48 16l107.91 62.3c6.44-3.72 7.06-4.72 10.63-3.47 4.84 1.71 10.17 8.9 10.58 15.74z"/><path class="cls-6" d="M100.91 150.52v5-.07l-.18-.35a19.15 19.15 0 00-1-1.68c-4.78-7.08-11.16-7.6-12.34-2.16l-1.07.62h.07a3 3 0 00-1.44 2.49l-2.64-1.52V138.5zm-14.24 1.18l.33-.09z"/><path class="cls-1" d="M15.83 51.04l9.68 5.59 3.05 4.85v14.43l-1.03-.6L13.9 53.65l1.93-2.61zm-4.96 6.69l7.87 12.51L6.73 63.3l4.14-5.57z"/></g></g></svg>