<svg xmlns="http://www.w3.org/2000/svg" xmlns:xlink="http://www.w3.org/1999/xlink" viewBox="0 0 356.98 280.69"><defs><linearGradient id="linear-gradient-2" x1="-6075.07" y1="239.37" x2="-6058.85" y2="239.37" xlink:href="#linear-gradient"/><linearGradient id="linear-gradient-8" x1="-6053.51" y1="247.37" x2="-6034.34" y2="247.37" xlink:href="#linear-gradient"/><linearGradient id="linear-gradient-7" x1="-6035.35" y1="254.78" x2="-6027.87" y2="254.78" xlink:href="#linear-gradient"/><linearGradient id="linear-gradient-6" x1="-6054.96" y1="202.62" x2="-6037.46" y2="202.62" xlink:href="#linear-gradient"/><linearGradient id="linear-gradient-5" x1="-6021.32" y1="215.03" x2="-5959.26" y2="215.03" xlink:href="#linear-gradient"/><linearGradient id="linear-gradient" x1="-6023.42" y1="242.9" x2="-5954.31" y2="242.9" gradientTransform="translate(6311.28)" gradientUnits="userSpaceOnUse"><stop offset="0" stop-color="#83b8fc"/><stop offset=".99" stop-color="#609ffd"/></linearGradient><linearGradient id="linear-gradient-4" x1="-6102.23" y1="226.23" x2="-6066.14" y2="226.23" xlink:href="#linear-gradient"/><linearGradient id="linear-gradient-3" x1="-6120.18" y1="213.52" x2="-6093.3" y2="213.52" xlink:href="#linear-gradient"/><radialGradient id="radial-gradient" cx="-6184.73" cy="134.87" r="108.33" gradientTransform="translate(6311.28)" gradientUnits="userSpaceOnUse"><stop offset=".01" stop-color="#bddff4"/><stop offset="1" stop-color="#90caf4"/></radialGradient><radialGradient id="radial-gradient-4" cx="-6287.21" cy="128.04" r="38.9" xlink:href="#radial-gradient"/><radialGradient id="radial-gradient-3" cx="-6275.83" cy="81.77" r="158.42" xlink:href="#radial-gradient"/><radialGradient id="radial-gradient-2" cx="-6275.83" cy="81.77" r="158.42" xlink:href="#radial-gradient"/><style>.cls-1{fill:#2030a5}.cls-2{fill:#3046b5}.cls-3{fill:#5ea6d3}.cls-4{fill:#90caf4}.cls-5{fill:#bddff4}.cls-10{fill:#3685fc}.cls-11{fill:#2c65d6}.cls-13{fill:#15298c}.cls-20{fill:#fe5773}.cls-21{fill:#f74169}.cls-22{fill:#ca4560}</style></defs><g id="Слой_2" data-name="Слой 2"><g id="Layer_1" data-name="Layer 1"><path class="cls-1" d="M207 220.54l-2.68 1.55c-1.76-3.76-6-7.87-9.28-6.11l-.57.33-4.74 2.69c3.77-2 9.44 3.7 10.41 9.75.33 2.16 0 4.21-1.68 5.27 8.7-5 7.88-4.54 8.14-4.71 2.48-1.8 1.71-5.97.4-8.77z"/><path class="cls-2" d="M190 218.9l.2-.09c3.72-1.3 8.12 3.47 9.63 8.28s-.71 9-5.41 6.68a11.35 11.35 0 01-3.42-2.87c-2.81-3.66-4.63-10.11-1-12zm3.13 11.43c1.2 1.1 3.06 1.84 4.2.71 1-1.19.78-3.05.26-4.55-1.46-4.27-6.21-6.91-7.29-3.28-.5 1.69.38 4.9 2.8 7.12z"/><path class="cls-3" d="M197.3 231a4 4 0 01-3.33-1.21c-2.49-2.14-3.87-6.61-2.16-8.31 3.68-.97 8.11 6.84 5.49 9.52zm-1.94-6.74c-1.16-.93-1.59-.39-2.75.28-1.5.86.73 5 2.39 4.26.08 0 1.27-.72 1.35-.8.9-.87-.03-2.93-.99-3.7z"/><path class="cls-1" d="M191.8 221.52c-2.29.62-2.22 4.87.65 8.16 1.32 1.44 3.47 2.72 4.84 1.35-3.54.97-8.12-6.88-5.49-9.51z"/><path class="cls-4" d="M193.87 223.86c-.13.06-1.13.64-1.26.72a1.2 1.2 0 011.15.08c1.55.86 2.39 3.45 1.29 4.15a9.41 9.41 0 001.35-.82c1.11-1.28-.96-4.68-2.53-4.13z"/><path class="cls-5" d="M194 224.79c1.34.81 2.23 3.41 1 4a1.31 1.31 0 01-1.32-.24c-2.28-1.71-2.09-5.19.32-3.76z"/><path class="cls-1" d="M185.77 198.73l-3.77 2.19c-2.48-5.31-8.48-11.13-13.13-8.65l-.81.47-6.69 3.86c5.34-2.85 13.36 5.24 14.73 13.8.47 3.05 0 6-2.38 7.45 12.3-7.11 11.14-6.43 11.51-6.66 3.48-2.6 2.39-8.49.54-12.46z"/><path class="cls-2" d="M161.67 196.41l.29-.12c5.27-1.84 11.49 4.9 13.62 11.71s-1 12.78-7.65 9.45a16.05 16.05 0 01-4.72-4.06c-4.05-5.17-6.63-14.31-1.54-16.98zm4.43 16.17c1.7 1.56 4.33 2.6 5.94 1l.06-.06c1.47-1.68 1.1-4.32.37-6.44-2.06-6-8.79-9.78-10.31-4.64-.72 2.46.52 7 3.94 10.14z"/><path class="cls-3" d="M172 213.58c-1.64.44-3.41-.59-4.72-1.71-3.52-3-5.47-9.34-3.06-11.75 5.26-1.43 11.54 9.62 7.78 13.46zm-2.74-9.53c-1.64-1.32-2.25-.55-3.89.39-2.13 1.22 1 7 3.38 6 .11 0 1.79-1 1.91-1.13 1.34-1.26 0-4.16-1.36-5.26z"/><path class="cls-1" d="M164.27 200.11c-3.24.87-3.14 6.89.92 11.55 1.87 2 4.91 3.84 6.85 1.92-5.04 1.35-11.49-9.75-7.77-13.47z"/><path class="cls-4" d="M167.19 203.43c-.18.08-1.6.91-1.78 1a1.69 1.69 0 011.63.12c2.2 1.21 3.38 4.88 1.83 5.87a13.29 13.29 0 001.91-1.16c1.57-1.81-1.37-6.61-3.59-5.83z"/><path class="cls-5" d="M167.35 204.74c1.89 1.14 3.15 4.83 1.45 5.72a1.85 1.85 0 01-1.86-.34c-3.24-2.47-2.94-7.4.41-5.38z"/><path class="cls-1" d="M61.36 126.87l-3.79 2.19c-2.48-5.31-8.48-11.13-13.13-8.65l-.81.47-6.69 3.87c5.34-2.85 13.36 5.24 14.73 13.8.47 3.05 0 6-2.38 7.45 12.31-7.1 11.14-6.43 11.51-6.66 3.5-2.61 2.4-8.5.56-12.47z"/><path class="cls-2" d="M37.26 124.55l.29-.12c5.27-1.84 11.49 4.9 13.62 11.71s-1 12.78-7.65 9.45a16.06 16.06 0 01-4.72-4.06c-4.05-5.17-6.63-14.3-1.54-16.98zm4.43 16.17c1.7 1.56 4.33 2.6 5.94 1l.06-.06c1.47-1.68 1.1-4.32.37-6.44-2.06-6-8.79-9.78-10.31-4.64-.75 2.42.52 7.01 3.94 10.14z"/><path class="cls-3" d="M47.63 141.72c-1.64.44-3.41-.59-4.72-1.71-3.52-3-5.47-9.35-3.06-11.75 5.22-1.43 11.5 9.62 7.78 13.46zm-2.74-9.53c-1.64-1.32-2.25-.55-3.89.39-2.13 1.22 1 7 3.38 6 .11 0 1.79-1 1.91-1.14 1.28-1.24-.04-4.15-1.4-5.25z"/><path class="cls-1" d="M39.86 128.26c-3.24.87-3.14 6.89.92 11.55 1.87 2 4.91 3.84 6.85 1.92-5.01 1.34-11.49-9.73-7.77-13.47z"/><path class="cls-4" d="M42.78 131.57c-.18.08-1.6.91-1.78 1a1.69 1.69 0 011.63.12c2.2 1.22 3.38 4.88 1.83 5.87a13.31 13.31 0 001.91-1.16c1.56-1.8-1.37-6.61-3.59-5.83z"/><path class="cls-5" d="M42.93 132.89c1.89 1.14 3.15 4.83 1.45 5.72a1.86 1.86 0 01-1.86-.34c-3.23-2.48-2.95-7.41.41-5.38z"/><path class="cls-1" d="M36.86 112.54l-3.79 2.19c-2.48-5.31-8.48-11.13-13.13-8.65l-.81.47-6.69 3.87c5.34-2.85 13.36 5.24 14.73 13.8.47 3.05 0 6-2.38 7.45 12.31-7.11 11.14-6.43 11.52-6.66 3.49-2.62 2.4-8.51.55-12.47z"/><path class="cls-2" d="M12.76 110.21l.28-.12c5.27-1.84 11.49 4.9 13.62 11.71s-1 12.78-7.65 9.45a16.06 16.06 0 01-4.72-4.06c-4.04-5.19-6.62-14.3-1.53-16.98zm4.43 16.17c1.7 1.56 4.33 2.6 5.94 1l.06-.06c1.47-1.68 1.1-4.32.37-6.44-2.06-6-8.79-9.78-10.31-4.64-.72 2.46.52 7.01 3.95 10.14z"/><path class="cls-3" d="M23.13 127.38c-1.64.44-3.41-.58-4.72-1.71-3.52-3-5.47-9.34-3.06-11.75 5.22-1.43 11.5 9.62 7.78 13.46zm-2.74-9.53c-1.64-1.32-2.25-.55-3.89.39-2.13 1.22 1 7 3.38 6 .11 0 1.79-1 1.91-1.13 1.28-1.25-.04-4.16-1.4-5.25z"/><path class="cls-1" d="M15.36 113.92c-3.24.87-3.14 6.89.92 11.55 1.87 2 4.91 3.84 6.85 1.92-5.01 1.34-11.49-9.75-7.77-13.47z"/><path class="cls-4" d="M18.28 117.23c-.18.08-1.6.91-1.78 1a1.69 1.69 0 011.63.12c2.2 1.22 3.38 4.88 1.83 5.87a13.1 13.1 0 001.91-1.16c1.57-1.8-1.37-6.61-3.59-5.83z"/><path class="cls-5" d="M18.43 118.55c1.89 1.14 3.15 4.83 1.45 5.72a1.85 1.85 0 01-1.86-.34c-3.23-2.48-2.95-7.41.41-5.38z"/><path class="cls-2" d="M328.45 225.11l.23-.22a4.46 4.46 0 013.57-1.1c8.34 1.07 15.46 16.07 10.22 21.28a4.86 4.86 0 01-.49.39l-.26.16c-3.94 2.07-8.62-1.73-11.44-5.74-2.48-3.54-5.18-10.88-1.83-14.77zm3.73 13a12.13 12.13 0 002.66 2.81c6.18 4.36 8.78-3.53 3.3-10.16-5.65-6.84-11.48-.95-5.95 7.36z"/><path class="cls-4" d="M340.07 241.36c-1.64.44-3.41-.59-4.72-1.71-3.52-3-5.47-9.34-3.06-11.75 5.23-1.43 11.43 9.8 7.78 13.46zm-2.74-9.53c-1.64-1.32-2.25-.55-3.89.39-2.13 1.22 1 7 3.38 6 .11 0 1.79-1 1.91-1.14 1.27-1.24-.04-4.15-1.4-5.25z"/><path class="cls-1" d="M353.8 226.51l-5.62 3.24-6.31-3.65c-.68-.8-1.12-1.24-1.44-1.56l-.09.05.08-.06a15.61 15.61 0 00-5.2-3.5l-5.23 3c2.83-1 5.52.59 7.84 2.52a19.6 19.6 0 013.9 4.85c2.51 4.48 4.17 11.56 0 14.2 12.31-7.1 11.14-6.43 11.52-6.66 3.49-2.57 2.4-8.46.55-12.43z"/><path class="cls-1" d="M335.13 239.44a12.52 12.52 0 01-2.09-2.61c-1.56-2.62-2.73-6.95-.73-8.94-2.52.68-2.58 4.05-1.87 6.57 1.85 5.92 7.18 9.32 9.64 6.89-1.72.47-3.64-.71-4.95-1.91z"/><path class="cls-4" d="M338.53 237.25l.14-.08zm-3.31-6.04c-.18.08-1.6.91-1.78 1a1.7 1.7 0 011.63.12c2.2 1.22 3.38 4.88 1.83 5.87a13.35 13.35 0 001.9-1.2c1.58-1.77-1.36-6.57-3.58-5.79z"/><path class="cls-4" d="M335.38 232.52c1.89 1.14 3.15 4.83 1.45 5.72a1.86 1.86 0 01-1.86-.34c-3.24-2.47-2.97-7.4.41-5.38z"/><path d="M171 191.69h-.65l-.31.06-.3.08-.3.11-.28.13-.28.15-.81.47-110.5-63.8c-2.39-4.82-7.63-10.43-12.46-8.74l-.28.12c-.35.18-.13.06-1.1.62l-10.92-6.31c-2.75-5.54-8.49-10.86-13-8.48l-.83.48-14.21-8.11V41.9l243.56 140.62v45.31L182.85 190v11.27l-1-.55-.24-.47-.25-.48-.26-.47-.28-.46-.28-.45-.29-.44-.31-.43-.32-.43-.33-.41-.33-.4-.34-.39-.35-.37-.35-.36-.36-.35-.37-.33-.37-.32-.37-.3-.37-.28-.38-.26-.38-.25-.38-.23-.38-.21-.38-.19-.37-.17-.38-.15-.37-.13-.37-.11-.36-.09-.36-.06h-.7z" fill="url(#radial-gradient)"/><path fill="url(#radial-gradient-2)" d="M181.9 200.74l.95.55v-11.27l65.48 37.81v-45.31L4.77 41.9v56.57l14.14 8.17-4.77 2.75L0 101.23v-67.6l253.11 146.13v9.68l-2.94 1.7v24.85l2.26 1.31v18.41l-7.29-4.21-27.16-15.69-16.89-9.75-3.71-2.14-9.75-5.63v11.27l-.78-.45-.16-.1-.25-.13-.26-.16-.28-.16-.29-.17-.32-.18-.34-.2-.36-.2-.37-.22-.39-.22-.14-.09-.02-.29-.04-.45-.06-.47-.07-.48-.1-.48-.1-.48-.12-.48-.14-.49-.16-.49-.17-.49-.18-.49-.2-.49-.21-.48-.22-.48z"/><path d="M57.54 128.94L168 192.74l-4.77 2.76-103.93-60a17.61 17.61 0 00-1.76-6.56z" fill="url(#radial-gradient-3)"/><path d="M32.76 114.64l10.92 6.31-4.77 2.76-4.35-2.51a17.59 17.59 0 00-1.8-6.56z" fill="url(#radial-gradient-4)"/><path class="cls-10" d="M250.17 216v-24.86l24.78 14.31 12.91 32.31v24.85l-10.92-6.31-24.51-14.15V217.3zm35.7 21.25l-12.05-30.15-16.5-9.53-1 .58v45.11l28.55 16.49 1-.58z"/><path class="cls-11" d="M287.86 237.75l-12.91-32.31 68.69-39.65 12.91 32.31zm64.14-40.6l-10.6-26.52-.63.36-61.32 35.4L290 232.64l.11.28z"/><path fill="#83b8fc" d="M274.95 205.45l-24.78-14.31 2.94-1.7 58.25-33.63 7.49-4.32 24.78 14.3-68.68 39.66z"/><path class="cls-10" d="M295.42 270.06l.08-.39.06-.4.04-.42.02-.42.01-.43-.01-.44-.02-.45-.04-.46-.06-.47-.08-.48-.09-.47-.1-.48-.12-.48-.14-.49-.16-.49-.16-.5-.18-.48-.2-.49-.21-.48-.15-.33 6.88-3.97-3.73 14.07-1.66-.96.02-.09z"/><path class="cls-13" d="M269.44 255.66c-1.06 1-2.8 2.34-2.83 6.94a18 18 0 00.53 3.94c-.12-3.46-.14-2.93 0-3.75a5.87 5.87 0 011.66-3.41c.52-.45-.13 0 6.48-3.87a7 7 0 00-5.84.15z"/><path class="cls-11" d="M297.06 271.11l3.73-14.07 43.91-25.35-.13.49-.19.71-.19.71-.18.7-.19.69-.18.69-.14.53-2.53 9.55-.65.37-43.26 24.98zm59.92-47.91v1.4l-2.97 1.71-9.31 5.38-43.91 25.35-6.88 3.97-5.62 3.24v-1.39l68.69-39.66z"/><path class="cls-10" d="M288.29 262.86v1.39l-.18-.1-.53-.31-.54-.3-.53-.31-.53-.31-.54-.31-.53-.31-.54-.31-.52-.3-.52-.3-.51-.29-.51-.3-.33-.19-.11-.13-.08-.09-.26-.29-.16-.18-.17-.18-.25-.27-.08-.08-.33-.34-.34-.32-.1-.1-.24-.21-.21-.18-.12-.11-.32-.27-.33-.26-.13-.1-.19-.14-.26-.19-.06-.04-.3-.21-.09-.06-.22-.14-.23-.15-.05-.03-.28-.16-.13-.08 10.92 6.31.43.25z"/><path fill="url(#linear-gradient)" d="M288.29 262.86l-.43-.25 68.69-39.66.43.25-68.69 39.66z"/><path class="cls-11" d="M287.86 237.75l68.69-39.65V223l-68.69 39.65zm57.61-29.81l-46.53 26.86v7.8l1.34.77 46.53-26.86v-7.8z"/><path fill="url(#linear-gradient-2)" d="M252.43 247.23l-16.22-10.57 8.93-5.16 7.29 4.21v11.52z"/><path fill="url(#linear-gradient-3)" d="M191.1 211.82l9.99-5.76 16.89 9.75-8.93 5.16-17.95-9.15z"/><path class="cls-10" d="M191.1 211.82L209 221v13.76l-5-2.88v-.11l.08-.31.07-.32.05-.34v-3.03l-.05-.28v-.29l-.05-.25v-.06l-.08-.31-.08-.31v-.15l-.05-.17-.07-.25v-.08l-.11-.33-.12-.33v-.1l-.09-.23-.07-.18-.06-.15-.11-.26v-.07l-.15-.33-.16-.33v-.08l-.13-.25-.08-.16-.1-.18-.12-.23-.06-.1-.46-.31-.22-.35-.21-.32-.06-.1-.15-.21-.11-.16-.11-.15-.16-.22-.06-.08-.22-.28-.24-.29v-.05l-.19-.23-.09-.11-.15-.16-.15-.16-.09-.1-.21-.22-.24-.24-.24-.23-.09-.09-.15-.13-.16-.14-.09-.07-.23-.19-.26-.2h-.06l-.18-.13-.14-.1-.09-.06-.23-.16-.23-.14-.1-.06-.13-.07-.2-.11-.22-.12-.1-.05h-.1l-.18-.09-.18-.07-.16-.07-.15-.05h-.46l-.36-.1-.31-.06h-1.73l-.26.06h-.26l-.25.1-.24.12-.23.13-.21.15-.21.17-.05-4.99z"/><path fill="url(#linear-gradient-4)" d="M209.05 220.97l8.93-5.16 27.16 15.69-8.93 5.16-27.16-15.69z"/><path class="cls-1" d="M191.1 216.65l.24-.2.21-.15.23-.13.22-.17.25-.1h.13z"/><path class="cls-3" d="M311.36 146.13v9.68l-58.25 33.63v-9.68l58.25-33.63z"/><path fill="#e2f1f7" d="M58.25 0l253.11 146.13-58.25 33.63L0 33.63 58.25 0z"/><path class="cls-3" d="M197.38 203.92l-9.75 5.64v-11.27l9.75 5.63z"/><path class="cls-2" d="M269.81 258.69l.29-.12c5.27-1.84 11.49 4.9 13.62 11.71s-1 12.78-7.65 9.45a16.06 16.06 0 01-4.72-4.06c-4.05-5.18-6.63-14.31-1.54-16.98zm4.43 16.17c1.7 1.56 4.33 2.6 5.94 1l.06-.06c1.47-1.68 1.1-4.32.37-6.44-2.06-6-8.79-9.78-10.31-4.64-.73 2.46.52 7 3.94 10.14z"/><path class="cls-3" d="M280.18 275.86c-1.64.44-3.41-.59-4.72-1.71-3.52-3-5.47-9.35-3.06-11.76 5.22-1.39 11.5 9.61 7.78 13.47zm-2.74-9.53c-1.64-1.32-2.25-.55-3.89.39-2.13 1.22 1 7 3.38 6 .11 0 1.79-1 1.91-1.14 1.28-1.25-.04-4.15-1.4-5.25z"/><path class="cls-1" d="M293.91 261l-5.62 3.24-6.29-3.63c-.68-.8-1.12-1.24-1.44-1.56l-.09.05.08-.06a15.63 15.63 0 00-5.2-3.5l-5.23 3c2.83-1 5.52.59 7.84 2.52a19.67 19.67 0 013.9 4.85c2.51 4.48 4.17 11.56 0 14.2 12.3-7.1 11.14-6.43 11.51-6.66 3.48-2.58 2.38-8.45.54-12.45z"/><path class="cls-1" d="M272.41 262.39c-3.24.87-3.14 6.89.92 11.55 1.87 2 4.91 3.84 6.85 1.92-5.01 1.35-11.49-9.75-7.77-13.47z"/><path class="cls-4" d="M275.33 265.71c-.18.08-1.6.91-1.78 1a1.69 1.69 0 011.63.12c2.2 1.21 3.38 4.88 1.83 5.87a13.33 13.33 0 001.91-1.16c1.56-1.81-1.37-6.61-3.59-5.83z"/><path class="cls-5" d="M275.48 267c1.89 1.14 3.15 4.83 1.45 5.72a1.85 1.85 0 01-1.86-.34c-3.24-2.45-2.96-7.38.41-5.38z"/><path class="cls-10" d="M352.02 197.15l-.74.09-10.49-26.25.63-.36 10.6 26.52z"/><path fill="url(#linear-gradient-5)" d="M351.28 197.24l.74-.09-61.95 35.77-.11-.28 61.32-35.4z"/><path class="cls-13" d="M351.28 197.24l-61.32 35.4-10.49-26.25 61.32-35.4 10.49 26.25z"/><path class="cls-20" d="M298.94 234.81l46.53-26.87 1.34.78-46.53 26.86-1.34-.77z"/><path class="cls-21" d="M298.94 242.6v-7.79l1.34.77v7.8l-1.34-.78z"/><path class="cls-22" d="M300.28 235.58l46.53-26.86v7.79l-46.53 26.87v-7.8z"/><path class="cls-2" d="M273.82 207.09l12.05 30.15-1 .58-12.05-30.15 1-.58z"/><path fill="url(#linear-gradient-6)" d="M257.32 197.57l16.5 9.52-1 .58-16.5-9.52 1-.58z"/><path class="cls-2" d="M285.87 237.24v21.93l-1 .58v-21.93l1-.58z"/><path class="cls-11" d="M272.82 207.67l12.05 30.15v21.92l-28.55-16.49v-45.11zm3.12 45.23l7.48 4.32v-19.77l-2.42-6.14-8.76-21.93-.06-.14-.15-.37-13.22-7.63-1-.58v41.75z"/><path fill="url(#linear-gradient-7)" d="M276.94 252.33l6.47 3.74v1.16l-7.48-4.32 1.01-.58z"/><path class="cls-10" d="M283.41 256.07l-6.48-3.74-18.16-10.49v-40.59l13.23 7.63.15.37-12.12-7-.72.41v16.87l21 12.14.62-.36 2.45 6.13zM264 224.51l-4.11-2.37-.86.5v1.66l4.11 2.38.86-.5z"/><path fill="url(#linear-gradient-8)" d="M258.77 241.84l18.17 10.49-1.01.58-18.16-10.49 1-.58z"/><path class="cls-2" d="M258.77 220.96v20.88l-1 .58v-20.88l1-.58z"/><path class="cls-2" d="M258.77 201.25v19.71l-1 .58v-20.88l1 .59zm1.26 1l12.11 7 .06.13-.63.37-12.26-7.09.72-.41z"/><path class="cls-1" d="M259.31 219.53v-16.87l12.26 7.09 8.77 21.92-21.03-12.14z"/><path class="cls-13" d="M280.34 231.67l-8.77-21.92.63-.37 8.76 21.93-.62.36z"/><path class="cls-20" d="M259.93 222.13l4.11 2.38-.86.5-4.12-2.38.87-.5z"/><path class="cls-22" d="M264.04 224.51v1.66l-.86.49v-1.65l.86-.5z"/><path class="cls-21" d="M259.06 222.63l4.12 2.38v1.65l-4.12-2.37v-1.66z"/><path class="cls-10" d="M267.61 268.54L209 234.73V221l27.17 15.69 16.22 10.58v-5.08l24.51 14.15c-3.56-1.9-7.08-2.07-9.21 1.35-1.76 2.83-1 7.6-.08 10.85z"/><path class="cls-1" d="M337.59 172.84l-27.28 15.75-19.33 43.47 27.28-15.76 19.33-43.46zm-49.74 28.72l-5.43 12.21 5.33 13.33L303 192.81l-15.15 8.75zm61.93-8.07l-2.76 6.21 4.26-2.46-1.5-3.75zm-1.57-3.93l-5.67-14.19-16.11 36.22 16.12-9.31 5.66-12.72z"/><path class="cls-2" d="M262.77 204.66l-3.46 2.52v9.23l10.53-7.66-7.07-4.09zM279 228.33l-5.41-13.55-9.96 7.25 13.4 7.73 1.97-1.43z"/></g></g></svg>