<svg xmlns="http://www.w3.org/2000/svg" viewBox="0 0 427.16 345.71"><defs><style>.cls-1{fill:#2c65d6}.cls-2{fill:#5ea6d3}.cls-3{fill:#90caf4}.cls-4{fill:#3046b5}.cls-5{fill:#fe5773}.cls-6{fill:#a2d2f6}.cls-7{fill:#bddff4}.cls-8{fill:#e2f1f7}.cls-9{fill:#f74169}.cls-10{fill:#ca4560}.cls-11{fill:#2030a5}.cls-14{fill:#15298c}.cls-15{fill:#3685fc}.cls-16{fill:#4d9ac1}.cls-17{fill:#6caed7}.cls-18{fill:#609ffd}.cls-19{fill:#ef9baa}</style></defs><g id="Слой_2" data-name="Слой 2"><g id="Layer_1" data-name="Layer 1"><path class="cls-1" d="M155.24 102.61l186.12 107.46-4.83 2.79L150.4 105.4l4.84-2.79z"/><path class="cls-2" d="M84.34 143.54l66.06-38.14v10.68l-56.93 32.73-9.13-5.27z"/><path class="cls-3" d="M327.42 218.14L150.4 115.94l-56.93 32.87 188.34 108.74.09-.05v-13.09l34.08-19.64 11.44-6.63z"/><path class="cls-4" d="M150.4 105.4v10.54l177.02 102.2 9.11-5.28L150.4 105.4z"/><path class="cls-5" d="M54.9 65.21l3.65.87 3.65-.87 1.51-2.11-1.85-12.77 14.82-8.56 2.12-1.23 4.84-2.79 40.58-23.43-1.22 8.6 1.49 2.08 3.65.87 3.65-.87 1.51-2.11-1.85-12.77L134 8.69l17.28 10-93.74 54.08-17.28-10 14.37-8.27-1.24 8.6zM76 55.45l45.28-26.14v-4.76l-5.72-3.3-45.3 26.14v4.77z"/><path class="cls-6" d="M58.55 66.08l-3.65-.87 2.22-23.05 1.43.35v23.57z"/><path class="cls-2" d="M63.71 63.1l-1.51 2.11-2.23-23.05.59-.82.08.55.89 6.17.33 2.27 1.85 12.77z"/><path class="cls-7" d="M54.9 65.21l-1.52-2.11 1.25-8.6.39-2.67 1.05-7.3.46-3.19.59.82-2.22 23.05z"/><path class="cls-3" d="M62.2 65.21l-3.65.87V42.51l1.42-.35 2.23 23.05z"/><path class="cls-6" d="M128.14 25.9l-3.65-.87 2.23-23.04 1.42.34V25.9z"/><path class="cls-2" d="M133.31 22.92l-1.52 2.11-2.22-23.04.59-.83 1.3 8.99 1.85 12.77z"/><path class="cls-7" d="M124.49 25.03l-1.51-2.11 1.24-8.6 1.91-13.16.59.83-2.23 23.04z"/><path class="cls-3" d="M131.79 25.03l-3.65.87V2.33l1.43-.34 2.22 23.04z"/><path class="cls-8" d="M60.56 41.34l-.59.82-1.42.35-1.43-.35-.59-.82.59-.82 1.43-.34 1.42.34.59.82zm66.16-41l1.42-.34 1.43.34.59.82-.59.83-1.43.34-1.42-.34-.59-.83.59-.82z"/><path class="cls-9" d="M40.26 62.8l17.28 9.97v24.89l-5.71-3.3-11.57-6.67V62.8z"/><path class="cls-10" d="M57.54 72.77l93.71-54.1v24.89L118 62.78l-4.09 2.36L84.64 82l-8 4.61-19.12 11zm90.21-31.28V24.77l-1.46.84L61 74.84v16.72z"/><path class="cls-11" d="M54.63 54.5l-14.37 8.3v8.76l-19.92 11.5-9.71-5.61 44.39-25.62-.39 2.67z"/><path class="cls-4" d="M281.73 329.71L24.72 172.64 0 82.13V76.9l31.32 18.09v5.22l48.18 27.82v18.3l202.23 116.76v66.62z"/><path class="cls-1" d="M281.73 263.09L79.5 146.33l4.84-2.79 197.47 114.01.09-.04-.02 5.59-.15-.01z"/><path class="cls-11" d="M155.24 102.61l-4.84 2.79V87.1l4.84-2.79v18.3z"/><path class="cls-4" d="M281.73 263.09l.14.02v5.99l-.14 60.61v-66.62z"/><path class="cls-11" d="M84.34 143.54l-4.84 2.79v-18.3l4.84-2.79v18.3zm-53.02-43.33v-5.22l4.84-2.8v5.23l-4.84 2.79z"/><path class="cls-1" d="M79.5 128.03l-48.18-27.82 4.84-2.79 5.18 3L52 106.57l32.34 18.67-4.84 2.79zm38.45-65.25l37.29 21.53-4.84 2.79-36.45-21.04-.09-.92 4.09-2.36z"/><path class="cls-3" d="M84.34 143.54v-18.3L52 106.57l23.96-13.83-2.54 22.14 15.45 8.92 29.22-16.87-2.17-21.44 34.48 19.91-66.06 38.14z"/><path class="cls-4" d="M113.95 66.06L150.4 87.1v18.3l-34.48-19.91-1.97-19.43zM88.87 123.8l-15.45-8.92 2.54-22.14.7-6.12 7.98-4.61 4.23 41.79z"/><path class="cls-2" d="M75.96 92.74L52 106.57l-10.66-6.15 10.49-6.06 5.71 3.3 19.12-11.04-.7 6.12z"/><path class="cls-11" d="M118.09 106.93L88.87 123.8l-4.23-41.79 29.22-16.87.09.92 1.97 19.43 2.17 21.44z"/><path class="cls-3" d="M20.34 83.06l19.92-11.5v16.13l11.57 6.67-10.49 6.06-5.18-3v-5.23l-15.82-9.13z"/><path class="cls-1" d="M56.07 44.53L4.83 74.11 0 76.9l31.32 18.09 4.84-2.8-15.82-9.13-9.71-5.61 44.39-25.62 1.05-7.3z"/><path class="cls-4" d="M76.69 39.31l2.12 1.23-2.12 1.23v-2.46z"/><path class="cls-11" d="M76.69 39.31v2.46l-14.83 8.56-.33-2.27 15.16-8.75z"/><path class="cls-1" d="M75.73 33.18l-4.83 2.79-10.26 5.92.89 6.17 15.16-8.75 2.12 1.23 4.84-2.79-7.92-4.57z"/><path class="cls-10" d="M121.25 29.31L75.97 55.45v-4.76l45.28-26.14v4.76z"/><path class="cls-9" d="M75.97 55.45l-5.71-3.3v-4.76l5.71 3.3v4.76z"/><path fill="#fe7088" d="M115.54 21.24l5.71 3.31-45.28 26.14-5.71-3.3 45.28-26.15z"/><path class="cls-9" d="M147.75 24.77v16.72l-1.46-.84V25.61l1.46-.84z"/><path class="cls-5" d="M147.75 41.49L61.03 91.56v-1.69l85.26-49.22 1.46.84z"/><path fill="#cd506a" d="M146.29 40.65L61.03 89.87V74.84l85.26-49.23v15.04z"/><path class="cls-11" d="M233.32 224.36l-.38-.22V204.9l.38.22v19.24zm0-.76v-.38l1.42.82v.37l-1.13-.65-.29-.16z"/><path class="cls-4" d="M234.74 224.04l-1.42-.82.29-.16 1.42.81-.29.17z"/><path class="cls-14" d="M233.61 223.06l-.29.16v-18.1l.29.17v17.77z"/><path class="cls-1" d="M235 223.87l-1.41-.82v-17.76l.32-.15v-.28l3.38 2-.29.14v.28l.63.36v18.91l-4-2.33v-.43l1.12.65.29-.17z"/><path class="cls-14" d="M235.03 223.87v.38l-.29.16v-.37l.29-.17zm-1.42-.11v.44l-.29.16v-.76l.29.16zm.33-18.9v.28l-.29.17v-.28l.29-.17z"/><path class="cls-11" d="M228.61 221.64l-.39-.22v-19.24l.39.22v19.24zm0-.77v-.37l1.41.82v.37l-1.12-.65-.29-.17z"/><path class="cls-4" d="M230.02 221.32l-1.41-.82.29-.17 1.41.82-.29.17z"/><path class="cls-1" d="M230.31 221.15l-1.41-.82v-17.76l.32-.15v-.28l1.68 1v19.52l-2-1.16v-.5l1.12.65.29-.17z"/><path class="cls-14" d="M229.22 202.14v.28l-.29.17v-.28l.29-.17zm-.32 18.19l-.29.17v-18.1l.29.17v17.76zm1.41.82v.37l-.29.17v-.37l.29-.17zm-1.41-.11v.43l-.29.17v-.77l.29.17z"/><path class="cls-1" d="M227.89 201.37l-.29.17v.28l.63.36v18.91l-4-2.33v-.43l1.12.65.29-.17v-.37l-1.41-.82v-17.78l.32-.15v-.28z"/><path class="cls-14" d="M224.51 199.42v.28l-.29.16v-.28l.29-.16z"/><path class="cls-4" d="M224.18 217.61l1.42.82-.29.16-1.41-.81.28-.17z"/><path class="cls-14" d="M224.18 217.61l-.28.17v-18.1l.28.16v17.77zm1.42.82v.37l-.29.17v-.38l.29-.16zm-1.42-.11v.43l-.28.17v-.77l.28.17z"/><path class="cls-11" d="M223.9 217.78l1.41.81v.38l-1.13-.65-.28-.17v-.37zm0 0v1.14l-.39-.23v-19.24l.39.23v18.1zm4.71-15.66l-.39-.22-.63-.36v.28l.63.36.39.22.29.17v-.26z"/><path class="cls-15" d="M223.69 197.97l-.85.49.33.19-.29.16.63.36.39.23.32.18.29-.16 3.37 1.95-.28.16.62.37.39.22.32.19.29-.17 1.68.97.85-.49-8.06-4.65z"/><path class="cls-1" d="M223.17 198.65l-.29.17v.28l.63.36v18.91l-.67-.38v-19.53z"/><path class="cls-11" d="M223.9 199.4l-.39-.22-.63-.36v.28l.63.36.39.22.29.17v-.26zm14.14 27.68l-.39-.22v-19.24l.39.22v19.24zm0-.76v-.38l1.41.82v.37l-1.12-.64-.29-.17z"/><path class="cls-4" d="M239.45 226.76l-1.41-.82.29-.16 1.36.78.05.03-.29.17z"/><path class="cls-14" d="M238.33 225.78l-.29.16v-18.1l.29.17v17.77z"/><path class="cls-1" d="M239.69 226.56l-1.36-.78V208l.32-.15v-.28l1 .6z"/><path class="cls-14" d="M238.65 207.58v.28l-.29.17v-.28l.29-.17zm.8 19.18l.29-.17v.38l-.05.03-.24.13v-.37z"/><path class="cls-14" d="M239.74 226.97v-.38l-.05-.03v-18.38l.84-.49v19.52l-.79.46-.05.03v-.7l.05-.03zm-1.41-.05l-.29.16v-.76l.29.17v.43z"/><path class="cls-1" d="M238.33 226.92v-.43l1.12.64.24-.13v.7l-1.36-.78z"/><path class="cls-7" d="M231.68 223.02l-.72-.42.72-.42v.84z"/><path class="cls-11" d="M233.33 204.84l-.39-.22-.63-.36v.28l.63.36.39.22.29.17v-.26z"/><path class="cls-15" d="M232.53 203.07l-.78.45-.07.04.92.53-.29.17.63.36.38.22.33.19.29-.17 3.37 1.95-.28.17.62.36.39.22.32.19.29-.17 1.04.6.84-.49-8-4.62z"/><path class="cls-11" d="M238 207.56l-.39-.22-.61-.34v.28l.63.36.39.22.29.17v-.26z"/><path class="cls-1" d="M232.6 204.09l-.29.17v.28l.63.36v18.91l-1.26-.73v-19.52l.92.53z"/><path class="cls-2" d="M287.16 181.92l-43.37 25-1.47.87v21.35l1.48-.85 43.37-25zm-43.37 45.52v-19.57c0-.07 41.89-24.19 41.89-24.19v19.59z"/><path class="cls-2" d="M287.16 181.92l-43.37 25-1.47.87v21.35l1.48-.85 43.37-25zm-43.37 45.52v-19.57c0-.07 41.89-24.19 41.89-24.19v19.59z"/><path class="cls-14" d="M230.9 222.63v-19.52l.85-.49v.9l-.07.04v18.62l-.72.42-.06.03z"/><path class="cls-7" d="M242.31 207.81l-2.07-1.2-16.24-9.39-2.07-1.2v21.31l.94.54v-19.41l.85-.49 8.06 4.65v.9l.78-.45 8 4.62v19.52l-.79.46 2.57 1.49v-21.35z"/><path class="cls-8" d="M241.72 205.76l-15.51-8.95-.75-.44-2.08-1.19-.44.25-1.03.6 2.07 1.19 16.26 9.39 2.07 1.2 1.48-.85-2.07-1.2z"/><path class="cls-8" d="M266.75 170.14l-43.37 25L243.79 207l43.37-25zm-23 34.43l-16.23-9.41 39.79-23 16.26 9.39z"/><path class="cls-7" d="M243.79 204.56l-15.51-9a6.78 6.78 0 00-.72-.46l.75-.44 16.26 9.39z"/><path class="cls-3" d="M244.58 204.11l-16.26-9.39 1.47-.85.76.43 15.5 8.96-1.47.85z"/><path class="cls-8" d="M231.86 192.67l-2.1 1.21 16.26 9.39 2.07-1.2-16.23-9.4z"/><path class="cls-2" d="M229.76 195.54v-1.65l-2.2 1.27 1.4.84.8-.46z"/><path class="cls-7" d="M247.34 202.51l-15.51-9a6.72 6.72 0 00-.72-.46l.75-.44 16.26 9.39z"/><path class="cls-3" d="M248.13 202.06l-16.26-9.39 1.47-.85.75.43 15.51 8.96-1.47.85z"/><path class="cls-8" d="M235.41 190.62l-2.11 1.21 16.26 9.39 2.08-1.19-16.23-9.41z"/><path class="cls-2" d="M233.3 193.49v-1.65l-2.19 1.26 1.4.85.79-.46z"/><path class="cls-7" d="M250.88 200.46l-15.51-9a6.77 6.77 0 00-.72-.46l.75-.44 16.27 9.44z"/><path class="cls-3" d="M251.67 200.01l-16.26-9.39 1.48-.85.75.43 15.51 8.95-1.48.86z"/><path class="cls-8" d="M238.96 188.56l-2.11 1.22 16.26 9.39 2.08-1.2-16.23-9.41z"/><path class="cls-2" d="M236.85 191.44v-1.65l-2.19 1.26 1.4.85.79-.46z"/><path class="cls-7" d="M254.43 198.41l-15.51-9a6.71 6.71 0 00-.72-.46l.75-.44 16.27 9.49z"/><path class="cls-3" d="M255.22 197.96l-16.26-9.39 1.48-.85.75.43 15.51 8.95-1.48.86z"/><path class="cls-8" d="M242.51 186.51l-2.11 1.22 16.26 9.39 2.07-1.2-16.22-9.41z"/><path class="cls-2" d="M240.4 189.39v-1.65l-2.19 1.26 1.4.85.79-.46z"/><path class="cls-7" d="M258 196.36l-15.51-9a6.73 6.73 0 00-.72-.46l.75-.44 16.26 9.39z"/><path class="cls-3" d="M258.77 195.91l-16.26-9.39 1.48-.86.75.44 15.51 8.95-1.48.86z"/><path class="cls-8" d="M246.06 184.46l-2.11 1.22 16.26 9.39 2.07-1.2-16.22-9.41z"/><path class="cls-2" d="M243.95 187.34v-1.65l-2.19 1.26 1.4.85.79-.46z"/><path class="cls-7" d="M261.53 194.31l-15.51-9a6.72 6.72 0 00-.72-.46l.75-.44 16.26 9.39z"/><path class="cls-3" d="M262.32 193.85l-16.26-9.38 1.47-.86.76.44L263.8 193l-1.48.85z"/><path class="cls-8" d="M249.6 182.41l-2.1 1.22 16.26 9.39 2.07-1.2-16.23-9.41z"/><path class="cls-2" d="M247.5 185.29v-1.66l-2.19 1.27 1.39.85.8-.46z"/><path class="cls-7" d="M265.08 192.26l-15.51-9a6.67 6.67 0 00-.72-.46l.75-.44 16.26 9.39z"/><path class="cls-3" d="M265.87 191.8l-16.26-9.39 1.47-.85.76.44 15.51 8.95-1.48.85z"/><path class="cls-8" d="M253.15 180.36l-2.1 1.22 16.26 9.39 2.07-1.2-16.23-9.41z"/><path class="cls-2" d="M251.05 183.24v-1.66l-2.2 1.27 1.4.85.8-.46z"/><path class="cls-7" d="M268.63 190.21l-15.51-9a6.72 6.72 0 00-.72-.46l.75-.44 16.26 9.39z"/><path class="cls-3" d="M269.42 189.75l-16.26-9.39 1.47-.85.76.44 15.5 8.95-1.47.85z"/><path class="cls-8" d="M256.7 178.31l-2.1 1.22 16.26 9.39 2.07-1.2-16.23-9.41z"/><path class="cls-2" d="M254.6 181.19v-1.66l-2.2 1.27 1.4.85.8-.46z"/><path class="cls-7" d="M272.18 188.16l-15.51-9a6.73 6.73 0 00-.72-.46l.75-.44 16.3 9.44z"/><path class="cls-3" d="M272.97 187.7l-16.26-9.39 1.47-.85.76.44 15.5 8.95-1.47.85z"/><path class="cls-8" d="M260.25 176.26l-2.11 1.22 16.27 9.39 2.07-1.2-16.23-9.41z"/><path class="cls-2" d="M258.14 179.14v-1.66l-2.19 1.27 1.4.85.79-.46z"/><path class="cls-7" d="M275.73 186.11l-15.51-9a6.73 6.73 0 00-.72-.46l.75-.44 16.26 9.39z"/><path class="cls-3" d="M276.52 185.65l-16.27-9.39 1.48-.85.76.44 15.5 8.95-1.47.85z"/><path class="cls-8" d="M263.8 174.21l-2.11 1.22 16.27 9.38 2.07-1.19-16.23-9.41z"/><path class="cls-2" d="M261.69 177.09v-1.66l-2.19 1.27 1.4.85.79-.46z"/><path class="cls-7" d="M279.27 184.06l-15.51-9a6.72 6.72 0 00-.72-.46l.75-.44 16.26 9.39z"/><path class="cls-3" d="M280.06 183.6l-16.26-9.39 1.48-.85.75.44 15.51 8.95-1.48.85z"/><path class="cls-8" d="M267.35 172.16l-2.11 1.22 16.26 9.38 2.07-1.19-16.22-9.41z"/><path class="cls-2" d="M265.24 175.04v-1.66l-2.19 1.27 1.4.85.79-.46z"/><path class="cls-16" d="M285.68 183.68l-1.78 1.03v17.19l-.25.14v2.4l2.03-1.17v-19.59z"/><path class="cls-17" d="M283.65 184.85v18.33l.86-.5.26-.15V184.2z"/><path class="cls-3" d="M284.78 202.54l.9.73-2.03 1.17v-1.25l1.13-.65z"/><path class="cls-2" d="M285.68 203.28l1.48-.85v-19.54l-1.48.85v19.54z"/><path class="cls-16" d="M280.58 186.62v17.19l-.25.14v2.4l2-1.17V185.6z"/><path class="cls-17" d="M280.33 186.77v18.34l.86-.5.26-.15v-18.34z"/><path class="cls-3" d="M281.46 204.46l.9.73-2.03 1.17v-1.25l1.13-.65z"/><path class="cls-2" d="M282.36 185.64v19.53l1.48-.83v-19.55z"/><path class="cls-16" d="M277.26 188.53v17.2l-.25.14v2.4l2-1.17v-19.6z"/><path class="cls-17" d="M277 188.68V207l.86-.5.26-.15V188z"/><path class="cls-3" d="M278.13 206.38l.91.73-2.03 1.17v-1.26l1.12-.64z"/><path class="cls-2" d="M279 187.55v19.54l1.48-.82V186.7z"/><path class="cls-16" d="M273.93 190.44v17.21l-.25.14v2.4l2-1.17v-19.6z"/><path class="cls-17" d="M273.69 190.59v18.35l.86-.5.26-.15v-18.35z"/><path class="cls-3" d="M274.81 208.29l.9.74-2.02 1.17v-1.26l1.12-.65z"/><path class="cls-2" d="M275.72 189.45V209l1.48-.82V188.6z"/><path class="cls-16" d="M270.61 192.36v17.21l-.25.14v2.4l2-1.17v-19.61z"/><path class="cls-17" d="M270.37 192.5v18.36l.86-.5.26-.15v-18.36z"/><path class="cls-3" d="M271.49 210.21l.9.73-2.02 1.17v-1.25l1.12-.65z"/><path class="cls-2" d="M272.4 191.36v19.56l1.48-.82v-19.6z"/><path class="cls-16" d="M267.29 194.27v17.22l-.25.14v2.4l2.03-1.17v-19.61l-1.78 1.02z"/><path class="cls-17" d="M267 194.42v18.36l.86-.5.26-.15v-18.36z"/><path class="cls-3" d="M268.17 212.13l.9.73-2.03 1.17v-1.25l1.13-.65z"/><path class="cls-2" d="M269.07 193.26v19.57l1.48-.81v-19.61z"/><path class="cls-16" d="M263.97 196.18v17.23l-.25.14v2.4l2.03-1.17v-19.62l-1.78 1.02z"/><path class="cls-17" d="M263.72 196.33v18.37l.86-.5.26-.15v-18.37z"/><path class="cls-3" d="M264.85 214.05l.9.73-2.03 1.17v-1.25l1.13-.65z"/><path class="cls-2" d="M265.75 195.17v19.58l1.48-.81v-19.62z"/><path class="cls-16" d="M260.65 198.09v17.23l-.25.15v2.4l2.03-1.17v-19.63l-1.78 1.02z"/><path class="cls-17" d="M260.4 198.24v18.37l.86-.5.26-.15v-18.37z"/><path class="cls-3" d="M261.52 215.97l.91.73-2.03 1.17v-1.25l1.12-.65z"/><path class="cls-2" d="M262.43 197.07v19.59l1.48-.81v-19.63z"/><path class="cls-16" d="M257.32 200.01v17.23l-.24.14v2.41l2.03-1.17v-19.63l-1.79 1.02z"/><path class="cls-17" d="M257.08 200.15v18.38l.86-.5.26-.15V199.5z"/><path class="cls-3" d="M258.2 217.88l.91.74-2.03 1.17v-1.26l1.12-.65z"/><path class="cls-2" d="M259.11 199v19.6l1.48-.8v-19.68z"/><path class="cls-16" d="M254 201.92v17.24l-.24.14v2.41l2.02-1.17V200.9l-1.78 1.02z"/><path class="cls-17" d="M253.76 202.07v18.39l.86-.5.26-.15v-18.39z"/><path class="cls-3" d="M254.88 219.8l.9.74-2.02 1.17v-1.26l1.12-.65z"/><path class="cls-2" d="M255.79 200.88v19.67l1.48-.85V200z"/><path class="cls-16" d="M250.68 203.83v17.25l-.25.14v2.4l2.03-1.16v-19.65l-1.78 1.02z"/><path class="cls-17" d="M250.44 204v18.39l.86-.5.26-.15v-18.41z"/><path class="cls-3" d="M251.56 221.72l.9.74-2.03 1.16v-1.25l1.13-.65z"/><path class="cls-2" d="M252.46 202.78v19.68l1.48-.85v-19.68z"/><path class="cls-16" d="M247.36 205.75V223l-.25.14v2.4l2.03-1.17v-19.65l-1.78 1.03z"/><path class="cls-17" d="M247.11 205.89v18.4l.86-.5.26-.15v-18.4z"/><path class="cls-3" d="M248.24 223.64l.9.73-2.03 1.17v-1.25l1.13-.65z"/><path class="cls-2" d="M249.14 204.69v19.7l1.48-.85v-19.7z"/><path class="cls-16" d="M245.82 226.22v-19.59l-1.78 1.03v.06l-.01 17.2-.24.14v2.4l2.03-1.17v-.07z"/><path class="cls-17" d="M244.92 207.16l-1.12.65v18.4l.86-.5.26-.15v-18.4z"/><path class="cls-3" d="M244.91 225.56l.91.73-2.03 1.17v-1.25l1.12-.65z"/><path class="cls-2" d="M245.82 206.59v19.71l1.48-.85v-19.71l-1.48.85z"/><path class="cls-11" d="M273.69 247.68l-.39-.23v-19.24l.39.23v19.24zm0-.77v-.37l1.41.81v.38l-1.12-.65-.29-.17z"/><path class="cls-4" d="M275.1 247.35l-1.41-.81.29-.17 1.41.82-.29.16z"/><path class="cls-14" d="M273.98 246.37l-.29.17v-18.1l.29.16v17.77z"/><path class="cls-1" d="M275.39 247.19l-1.41-.82V228.6l.32-.15v-.28l3.38 2-.29.17v.28l.63.36v18.91l-4-2.33v-.43l1.12.65.29-.17z"/><path class="cls-14" d="M275.39 247.19v.37l-.29.17v-.38l.29-.16zm-1.41-.11v.43l-.29.17v-.77l.29.17zm.32-18.9v.28l-.29.16v-.28l.29-.16z"/><path class="cls-11" d="M268.97 244.95l-.38-.22v-19.24l.38.22v19.24zm0-.76v-.38l1.42.82v.37l-1.13-.65-.29-.16z"/><path class="cls-4" d="M270.39 244.63l-1.42-.82.29-.16 1.41.81-.28.17z"/><path class="cls-1" d="M270.67 244.46l-1.41-.82v-17.76l.32-.15v-.28l1.68 1v19.52l-2-1.16v-.43l1.12.65.29-.17z"/><path class="cls-14" d="M269.58 225.45v.28l-.28.17v-.28l.28-.17zm-.32 18.2l-.29.16v-18.1l.29.17v17.77zm1.41.81v.38l-.28.16v-.37l.28-.17zm-1.41-.11v.44l-.29.16v-.76l.29.16z"/><path class="cls-1" d="M268.25 224.68l-.29.17v.28l.63.36v18.91l-4-2.33v-.43l1.12.65.29-.17v-.37l-1.41-.82v-17.77l.32-.15v-.28z"/><path class="cls-14" d="M264.87 222.73v.28l-.29.17v-.28l.29-.17z"/><path class="cls-4" d="M264.55 240.93l1.41.81-.29.17-1.41-.82.29-.16z"/><path class="cls-14" d="M264.55 240.93l-.29.16v-18.1l.29.17v17.77zm1.41.81v.38l-.29.16v-.37l.29-.17zm-1.41-.11v.44l-.29.16v-.76l.29.16z"/><path class="cls-11" d="M264.26 241.09l1.41.82v.37l-1.12-.65-.29-.16v-.38zm0 0v1.14l-.39-.22v-19.24l.39.22v18.1zm4.74-15.66l-.39-.22-.63-.36v.28l.63.36.39.22.29.17v-.26z"/><path class="cls-15" d="M264.05 221.28l-.84.49.32.19-.28.17.62.36.39.22.32.19.29-.17 3.38 1.95-.29.17.63.36.38.22.33.19.28-.17 1.68.97.85-.49-8.06-4.65z"/><path class="cls-1" d="M263.53 222l-.29.17v.28l.63.36v18.91l-.67-.38v-19.57z"/><path class="cls-11" d="M264.26 222.71l-.39-.22-.63-.36v.28l.63.36.39.22.29.17v-.26zm14.14 27.69l-.38-.23v-19.24l.38.23v19.24zm0-.77v-.37l1.41.81v.38l-1.12-.65-.29-.17z"/><path class="cls-4" d="M279.81 250.07l-1.41-.81.29-.17 1.36.79.05.03-.29.16z"/><path class="cls-14" d="M278.69 249.09l-.29.17v-18.1l.29.16v17.77z"/><path class="cls-1" d="M280 249.88l-1.36-.78v-17.78l.32-.15v-.28l1 .6z"/><path class="cls-14" d="M279.01 230.9v.28l-.28.16v-.28l.28-.16zm.8 19.17l.29-.16v.37l-.05.03-.24.14v-.38z"/><path class="cls-14" d="M280.1 250.28v-.37l-.05-.03V231.5l.84-.49v19.52l-.79.46-.05.03v-.71l.05-.03zm-1.41-.05l-.29.17v-.77l.29.17v.43z"/><path class="cls-1" d="M278.69 250.23v-.43l1.12.65.24-.14v.71l-1.36-.79z"/><path class="cls-7" d="M272.04 246.33l-.72-.42.72-.42v.84z"/><path class="cls-11" d="M273.69 228.15l-.39-.22-.63-.36v.28l.63.36.39.22.29.17v-.26z"/><path class="cls-15" d="M272.89 226.38l-.78.46-.07.03.92.53-.29.17.63.36.39.22.32.19.29-.16 3.38 1.95-.29.16.63.36.38.23.33.18.28-.16 1.04.6.84-.49-8-4.63z"/><path class="cls-11" d="M278.4 230.88l-.39-.22-.63-.36v.28l.63.36.39.22.29.17v-.26z"/><path class="cls-1" d="M272.96 227.4l-.29.17v.28l.63.36v18.91l-1.26-.73v-19.52l.92.53z"/><path class="cls-2" d="M327.52 205.23l-43.37 25-1.47.87v21.35l1.48-.85 43.37-25zm-43.37 45.52v-19.57c0-.06 41.85-24.18 41.85-24.18v19.59z"/><path class="cls-2" d="M327.52 205.23l-43.37 25-1.47.87v21.35l1.48-.85 43.37-25zm-43.37 45.52v-19.57c0-.06 41.85-24.18 41.85-24.18v19.59z"/><path class="cls-14" d="M271.26 245.94v-19.52l.85-.49v.91l-.07.03v18.62l-.72.42-.06.03z"/><path class="cls-7" d="M282.67 231.12l-2.07-1.2-16.26-9.39-2.07-1.2v21.31l.94.54v-19.41l.85-.49 8.06 4.65v.9l.78-.45 8 4.62v19.52l-.79.46 2.57 1.49v-21.35z"/><path class="cls-8" d="M282.08 229.07l-15.51-8.95-.75-.43-2.07-1.2-.45.25-1.03.6 2.07 1.2 16.26 9.39 2.07 1.19 1.48-.85-2.07-1.2zm25.03-35.62l-43.37 25 20.4 11.78 43.37-25zm-23 34.43l-16.23-9.41 39.79-23 16.33 9.42z"/><path class="cls-7" d="M284.15 227.88l-15.51-9a6.72 6.72 0 00-.72-.46l.75-.44 16.26 9.39z"/><path class="cls-3" d="M284.94 227.42l-16.26-9.39 1.47-.85.76.44 15.51 8.95-1.48.85z"/><path class="cls-8" d="M272.22 215.98l-2.1 1.22 16.26 9.39 2.07-1.2-16.23-9.41z"/><path class="cls-2" d="M270.12 218.86v-1.66l-2.2 1.27 1.4.85.8-.46z"/><path class="cls-7" d="M287.7 225.83l-15.51-9a6.72 6.72 0 00-.72-.46l.75-.44 16.26 9.39z"/><path class="cls-3" d="M288.49 225.37l-16.26-9.39 1.47-.85.76.44 15.5 8.95-1.47.85z"/><path class="cls-8" d="M275.77 213.93l-2.1 1.22 16.26 9.38 2.07-1.19-16.23-9.41z"/><path class="cls-2" d="M273.67 216.81v-1.66l-2.2 1.27 1.4.85.8-.46z"/><path class="cls-7" d="M291.25 223.78l-15.51-9a6.76 6.76 0 00-.72-.46l.75-.44 16.23 9.44z"/><path class="cls-3" d="M292.04 223.32l-16.26-9.39 1.47-.85.76.44 15.5 8.95-1.47.85z"/><path class="cls-8" d="M279.32 211.88l-2.1 1.21 16.26 9.39 2.07-1.19-16.23-9.41z"/><path class="cls-2" d="M277.22 214.76v-1.66l-2.2 1.27 1.4.85.8-.46z"/><path class="cls-7" d="M294.8 221.72l-15.51-9a6.71 6.71 0 00-.72-.46l.75-.44 16.26 9.39z"/><path class="cls-3" d="M295.59 221.27l-16.27-9.39 1.48-.85.76.44 15.5 8.95-1.47.85z"/><path class="cls-8" d="M282.87 209.83l-2.11 1.21 16.26 9.39 2.08-1.19-16.23-9.41z"/><path class="cls-2" d="M280.76 212.71v-1.66l-2.19 1.27 1.4.84.79-.45z"/><path class="cls-7" d="M298.34 219.67l-15.51-9a6.69 6.69 0 00-.72-.46l.75-.44 16.26 9.39z"/><path class="cls-3" d="M299.13 219.22l-16.26-9.39 1.48-.85.75.43 15.51 8.96-1.48.85z"/><path class="cls-8" d="M286.42 207.78l-2.11 1.21 16.26 9.39 2.07-1.19-16.22-9.41z"/><path class="cls-2" d="M284.31 210.66V209l-2.19 1.27 1.4.84.79-.45z"/><path class="cls-7" d="M301.89 217.62l-15.51-9a6.72 6.72 0 00-.72-.46l.75-.44 16.26 9.39z"/><path class="cls-3" d="M302.68 217.17l-16.26-9.39 1.48-.85.75.43 15.51 8.95-1.48.86z"/><path class="cls-8" d="M289.97 205.73l-2.11 1.21 16.26 9.39 2.07-1.2-16.22-9.4z"/><path class="cls-2" d="M287.86 208.6v-1.65l-2.19 1.27 1.4.84.79-.46z"/><path class="cls-7" d="M305.44 215.57l-15.51-9a6.71 6.71 0 00-.72-.46l.75-.44 16.26 9.39z"/><path class="cls-3" d="M306.23 215.12l-16.26-9.39 1.48-.85.75.43 15.51 8.95-1.48.86z"/><path class="cls-8" d="M293.52 203.68l-2.11 1.21 16.26 9.39 2.07-1.19-16.22-9.41z"/><path class="cls-2" d="M291.41 206.55v-1.65l-2.19 1.26 1.4.85.79-.46z"/><path class="cls-7" d="M309 213.52l-15.51-9a6.72 6.72 0 00-.72-.46l.75-.44 16.26 9.39z"/><path class="cls-3" d="M309.78 213.07l-16.26-9.39 1.48-.85.75.43 15.51 8.95-1.48.86z"/><path class="cls-8" d="M297.06 201.63l-2.1 1.21 16.26 9.39 2.07-1.2-16.23-9.4z"/><path class="cls-2" d="M294.96 204.5v-1.65l-2.2 1.26 1.4.85.8-.46z"/><path class="cls-7" d="M312.54 211.47l-15.51-9a6.72 6.72 0 00-.72-.46l.75-.44 16.27 9.43z"/><path class="cls-3" d="M313.33 211.01l-16.26-9.38 1.47-.85.76.43 15.51 8.95-1.48.85z"/><path class="cls-8" d="M300.61 199.57l-2.1 1.22 16.26 9.39 2.07-1.2-16.23-9.41z"/><path class="cls-2" d="M298.51 202.45v-1.65l-2.2 1.26 1.4.85.8-.46z"/><path class="cls-7" d="M316.09 209.42l-15.51-9a6.72 6.72 0 00-.72-.46l.75-.44 16.27 9.48z"/><path class="cls-3" d="M316.88 208.96l-16.26-9.38 1.47-.86.76.44 15.5 8.95-1.47.85z"/><path class="cls-8" d="M304.16 197.52l-2.1 1.22 16.26 9.39 2.07-1.2-16.23-9.41z"/><path class="cls-2" d="M302.06 200.4v-1.65l-2.2 1.26 1.4.85.8-.46z"/><path class="cls-7" d="M319.64 207.37l-15.51-9a6.71 6.71 0 00-.72-.46l.75-.44 16.26 9.39z"/><path class="cls-3" d="M320.43 206.91l-16.26-9.38 1.47-.86.76.44 15.5 8.95-1.47.85z"/><path class="cls-8" d="M307.71 195.47l-2.1 1.22 16.26 9.39 2.07-1.2-16.23-9.41z"/><path class="cls-2" d="M305.61 198.35v-1.66l-2.2 1.27 1.4.85.8-.46z"/><path class="cls-16" d="M326.04 207l-1.78 1.02v17.19l-.24.14v2.4l2.02-1.16V207z"/><path class="cls-17" d="M324 208.17v18.33l.86-.5.26-.15v-18.33z"/><path class="cls-3" d="M325.14 225.85l.9.74-2.02 1.16v-1.25l1.12-.65z"/><path class="cls-2" d="M326.05 226.6l1.47-.85V206.2l-1.47.85v19.55z"/><path class="cls-16" d="M320.94 209.93v17.2l-.25.14v2.4l2-1.17v-19.59z"/><path class="cls-17" d="M320.69 210.08v18.34l.86-.5.26-.15v-18.34z"/><path class="cls-3" d="M321.82 227.77l.9.73-2.03 1.17v-1.25l1.13-.65z"/><path class="cls-2" d="M322.72 209v19.53l1.48-.83v-19.59z"/><path class="cls-16" d="M317.62 211.84v17.2l-.25.14v2.4l2-1.17v-19.6z"/><path class="cls-17" d="M317.37 212v18.35l.86-.5.26-.15v-18.36z"/><path class="cls-3" d="M318.5 229.69l.9.73-2.03 1.17v-1.25l1.13-.65z"/><path class="cls-2" d="M319.4 210.86v19.54l1.48-.82V210z"/><path class="cls-16" d="M314.3 213.76v17.21l-.25.14v2.4l2-1.17v-19.6z"/><path class="cls-17" d="M314.05 213.9v18.35l.86-.5.26-.15v-18.35z"/><path class="cls-3" d="M315.18 231.61l.9.73-2.03 1.17v-1.25l1.13-.65z"/><path class="cls-2" d="M316.08 212.77v19.55l1.48-.82v-19.58z"/><path class="cls-16" d="M311 215.67v17.21l-.25.14v2.4l2-1.17v-19.6z"/><path class="cls-17" d="M310.73 215.82v18.36l.86-.5.26-.15v-18.36z"/><path class="cls-3" d="M311.85 233.53l.9.73-2.02 1.17v-1.26l1.12-.64z"/><path class="cls-2" d="M312.76 214.67v19.56l1.48-.82v-19.6z"/><path class="cls-16" d="M307.65 217.58v17.22l-.24.14v2.41l2.02-1.17v-19.62l-1.78 1.02z"/><path class="cls-17" d="M307.41 217.73v18.36l.86-.5.26-.15v-18.36z"/><path class="cls-3" d="M308.53 235.44l.9.74-2.02 1.17v-1.26l1.12-.65z"/><path class="cls-2" d="M309.44 216.58v19.57l1.48-.81v-19.62z"/><path class="cls-16" d="M304.33 219.5v17.22l-.25.14v2.4l2.03-1.17v-19.62l-1.78 1.03z"/><path class="cls-17" d="M304.09 219.64V238l.86-.5.26-.15V219z"/><path class="cls-3" d="M305.21 237.36l.9.73-2.03 1.17v-1.25l1.13-.65z"/><path class="cls-2" d="M306.11 218.48v19.58l1.48-.81v-19.62z"/><path class="cls-16" d="M301.01 221.41v17.23l-.25.14v2.4l2.03-1.17v-19.62l-1.78 1.02z"/><path class="cls-17" d="M300.76 221.55v18.37l.86-.5.26-.15v-18.36z"/><path class="cls-3" d="M301.89 239.28l.9.73-2.03 1.17v-1.25l1.13-.65z"/><path class="cls-2" d="M302.79 220.38V240l1.48-.81v-19.66z"/><path class="cls-16" d="M297.69 223.32v17.24l-.25.14v2.4l2.03-1.17V222.3l-1.78 1.02z"/><path class="cls-17" d="M297.44 223.47v18.38l.86-.5.26-.15v-18.38z"/><path class="cls-3" d="M298.56 241.2l.91.73-2.03 1.17v-1.25l1.12-.65z"/><path class="cls-2" d="M299.47 222.29v19.6l1.48-.8v-19.65z"/><path class="cls-16" d="M294.37 225.23v.06l-.01 17.18-.24.15v2.4l2.02-1.17v-14.39l.01-5.25-1.78 1.02z"/><path class="cls-17" d="M294.12 225.38v18.39l.86-.5.26-.15v-18.39z"/><path class="cls-3" d="M295.24 243.12l.9.73-2.02 1.17v-1.25l1.12-.65z"/><path class="cls-2" d="M296.15 224.19v19.67l1.48-.85v-19.67z"/><path class="cls-16" d="M291.04 227.15v17.24l-.24.14v2.41l2.02-1.17v-19.65l-1.78 1.03z"/><path class="cls-17" d="M290.8 227.29v18.39l.86-.5.26-.15v-18.39z"/><path class="cls-3" d="M291.92 245.03l.9.74-2.02 1.17v-1.26l1.12-.65z"/><path class="cls-2" d="M292.83 226.1v19.68l1.48-.85v-19.68z"/><path class="cls-16" d="M287.72 229.06v17.25l-.25.14v2.4l2.03-1.16v-19.65l-1.78 1.02z"/><path class="cls-17" d="M287.48 229.21v18.4l.86-.5.26-.15v-18.4z"/><path class="cls-3" d="M288.6 246.95l.9.74-2.03 1.16v-1.25l1.13-.65z"/><path class="cls-2" d="M289.5 228v19.7l1.48-.85v-19.7z"/><path class="cls-16" d="M286.18 249.54v-19.59l-1.78 1.02v17.26l-.25.14v2.4l2.03-1.17v-.06z"/><path class="cls-17" d="M285.28 230.47l-1.12.65v18.4l.86-.5.26-.15v-18.4z"/><path class="cls-3" d="M285.28 248.87l.9.73-2.03 1.17v-1.25l1.13-.65z"/><path class="cls-2" d="M286.18 229.91v19.71l1.48-.86v-19.7l-1.48.85z"/><path class="cls-11" d="M112.24 154.42l-.39-.22v-19.24l.39.22v19.24z"/><path class="cls-11" d="M112.24 153.66v-.38l1.41.82v.37l-1.12-.65-.29-.16z"/><path class="cls-4" d="M113.65 154.1l-1.41-.82.29-.16 1.41.81-.29.17z"/><path class="cls-14" d="M112.53 153.12l-.29.16v-18.1l.29.17v17.77z"/><path class="cls-1" d="M113.94 153.93l-1.41-.82v-17.76l.32-.15v-.28l3.38 2-.29.17v.28l.63.36v18.91l-4-2.33v-.43l1.12.65.29-.17z"/><path class="cls-14" d="M113.94 153.93v.38l-.29.16v-.37l.29-.17zm-1.41-.11v.44l-.29.16v-.76l.29.16zm.32-18.9v.28l-.29.17v-.28l.29-.17z"/><path class="cls-11" d="M107.52 151.7l-.38-.22v-19.24l.38.22v19.24zm0-.77v-.37l1.42.82v.37l-1.13-.65-.29-.17z"/><path class="cls-4" d="M108.94 151.38l-1.42-.82.29-.17 1.41.82-.28.17z"/><path class="cls-1" d="M109.22 151.21l-1.41-.82v-17.76l.32-.15v-.28l1.68 1v19.52l-2-1.16v-.43l1.12.65.29-.17z"/><path class="cls-14" d="M108.14 132.2v.28l-.29.17v-.28l.29-.17zm-.33 18.19l-.29.17v-18.1l.29.17v17.76zm1.41.82v.37l-.28.17v-.37l.28-.17zm-1.41-.11v.43l-.29.17v-.77l.29.17z"/><path class="cls-1" d="M106.8 131.43l-.29.17v.28l.63.36v18.91l-4-2.33v-.43l1.12.65.29-.17v-.37l-1.41-.82V129.9l.32-.15v-.28z"/><path class="cls-14" d="M103.42 129.48v.28l-.29.16v-.28l.29-.16z"/><path class="cls-4" d="M103.1 147.67l1.41.82-.29.16-1.41-.81.29-.17z"/><path class="cls-14" d="M103.1 147.67l-.29.17v-18.1l.29.16v17.77zm1.41.82v.37l-.29.17v-.38l.29-.16zm-1.41-.11v.43l-.29.17v-.77l.29.17z"/><path class="cls-11" d="M102.81 147.84l1.41.81v.38l-1.12-.65-.29-.17v-.37z"/><path class="cls-11" d="M102.81 147.84v1.14l-.39-.23v-19.24l.39.23v18.1zm4.71-15.66l-.39-.22-.63-.36v.28l.63.36.39.22.29.17v-.26z"/><path class="cls-15" d="M102.6 128.03l-.84.49.32.19-.28.16.62.36.39.23.32.18.29-.16 3.38 1.95-.29.16.63.37.38.22.33.19.29-.17 1.67.97.85-.49-8.06-4.65z"/><path class="cls-1" d="M102.08 128.71l-.29.17v.28l.63.36v18.91l-.66-.38v-19.53z"/><path class="cls-11" d="M102.81 129.46l-.39-.22-.63-.36v.28l.63.36.39.22.29.17v-.26zm14.14 27.68l-.38-.22v-19.24l.38.22v19.24z"/><path class="cls-11" d="M116.95 156.38V156l1.41.82v.37l-1.12-.65-.29-.16z"/><path class="cls-4" d="M118.36 156.82l-1.41-.82.29-.16 1.36.78.05.03-.29.17z"/><path class="cls-14" d="M117.24 155.84l-.29.16v-18.1l.29.17v17.77z"/><path class="cls-1" d="M118.6 156.62l-1.36-.78v-17.77l.32-.15v-.28l1 .6z"/><path class="cls-14" d="M117.56 137.64v.28l-.28.17v-.28l.28-.17zm.8 19.18l.29-.17v.38l-.05.03-.24.13v-.37z"/><path class="cls-14" d="M118.65 157.03v-.38l-.05-.03v-18.38l.85-.49v19.52l-.8.46-.05.03v-.7l.05-.03zm-1.41-.05l-.29.16v-.76l.29.16v.44z"/><path class="cls-1" d="M117.24 156.98v-.44l1.12.65.24-.13v.7l-1.36-.78z"/><path class="cls-7" d="M110.59 153.08l-.72-.42.72-.42v.84z"/><path class="cls-11" d="M112.24 134.9l-.39-.22-.63-.36v.28l.63.36.39.22.29.17v-.26z"/><path class="cls-15" d="M111.44 133.13l-.78.45-.07.04.92.53-.29.16.63.37.39.22.32.19.29-.17 3.38 1.95-.29.17.63.36.38.22.33.19.28-.17 1.04.6.85-.49-8.01-4.62z"/><path class="cls-11" d="M117 137.62l-.39-.22-.63-.36v.28l.63.36.39.22.29.17v-.26z"/><path class="cls-1" d="M111.51 134.15l-.29.16v.29l.63.36v18.91l-1.26-.73v-19.52l.92.53z"/><path class="cls-2" d="M166.07 112l-43.37 25-1.47.87v21.35l1.48-.85 43.37-25zm-43.37 45.5v-19.57c0-.07 41.89-24.19 41.89-24.19v19.59z"/><path class="cls-2" d="M166.07 112l-43.37 25-1.47.87v21.35l1.48-.85 43.37-25zm-43.37 45.5v-19.57c0-.07 41.89-24.19 41.89-24.19v19.59z"/><path class="cls-14" d="M109.81 152.69v-19.52l.85-.49v.9l-.07.04v18.62l-.72.42-.06.03z"/><path class="cls-7" d="M121.22 137.87l-2.07-1.2-16.26-9.39-2.07-1.2v21.35l.94.54v-19.45l.85-.49 8.06 4.65v.9l.78-.45 8 4.62v19.52l-.79.46 2.57 1.49v-21.35z"/><path class="cls-8" d="M120.63 135.82l-15.51-8.95-.75-.44-2.07-1.2-.44.26-1.04.6 2.07 1.19 16.26 9.39 2.07 1.2 1.48-.86-2.07-1.19zm25.03-35.62l-43.37 25L122.7 137l43.37-25zm-23 34.43l-16.23-9.41 39.79-23 16.26 9.39z"/><path class="cls-7" d="M122.7 134.62l-15.51-9a6.72 6.72 0 00-.72-.46l.75-.44 16.26 9.39z"/><path class="cls-3" d="M123.49 134.17l-16.26-9.39 1.47-.85.76.43 15.51 8.95-1.48.86z"/><path class="cls-8" d="M110.77 122.73l-2.1 1.21 16.26 9.39 2.07-1.2-16.23-9.4z"/><path class="cls-2" d="M108.67 125.6v-1.65l-2.2 1.27 1.4.84.8-.46z"/><path class="cls-7" d="M126.25 132.57l-15.51-9a6.72 6.72 0 00-.72-.46l.75-.44 16.23 9.45z"/><path class="cls-3" d="M127.04 132.12l-16.26-9.39 1.47-.85.76.43 15.5 8.95-1.47.86z"/><path class="cls-8" d="M114.32 120.67l-2.1 1.22 16.26 9.39 2.07-1.2-16.23-9.41z"/><path class="cls-2" d="M112.22 123.55v-1.65l-2.2 1.26 1.4.85.8-.46z"/><path class="cls-7" d="M129.8 130.52l-15.51-9a6.74 6.74 0 00-.72-.46l.75-.44 16.26 9.39z"/><path class="cls-3" d="M130.59 130.07l-16.26-9.39 1.47-.85.76.43 15.5 8.95-1.47.86z"/><path class="cls-8" d="M117.87 118.63l-2.1 1.21 16.26 9.39 2.07-1.2-16.23-9.4z"/><path class="cls-2" d="M115.77 121.5v-1.65l-2.2 1.26 1.4.85.8-.46z"/><path class="cls-7" d="M133.35 128.47l-15.51-9a6.67 6.67 0 00-.72-.46l.76-.44 16.26 9.43z"/><path class="cls-3" d="M134.14 128.01l-16.26-9.38 1.47-.85.76.43 15.5 8.95-1.47.85z"/><path class="cls-8" d="M121.42 116.57l-2.11 1.22 16.27 9.39 2.07-1.2-16.23-9.41z"/><path class="cls-2" d="M119.31 119.45v-1.65l-2.19 1.26 1.4.85.79-.46z"/><path class="cls-7" d="M136.89 126.42l-15.51-9a6.73 6.73 0 00-.72-.46l.75-.44 16.27 9.48z"/><path class="cls-3" d="M137.69 125.97l-16.27-9.39 1.48-.86.76.44 15.5 8.95-1.47.86z"/><path class="cls-8" d="M124.97 114.52l-2.11 1.22 16.26 9.39 2.07-1.2-16.22-9.41z"/><path class="cls-2" d="M122.86 117.4v-1.65l-2.19 1.26 1.4.85.79-.46z"/><path class="cls-7" d="M140.44 124.37l-15.51-9a6.78 6.78 0 00-.72-.46l.75-.44 16.26 9.39z"/><path class="cls-3" d="M141.23 123.91l-16.26-9.38 1.48-.86.75.44 15.51 8.95-1.48.85z"/><path class="cls-8" d="M128.52 112.47l-2.11 1.22 16.26 9.39 2.07-1.2-16.22-9.41z"/><path class="cls-2" d="M126.41 115.35v-1.66l-2.19 1.27 1.4.85.79-.46z"/><path class="cls-7" d="M144 122.32l-15.51-9a6.73 6.73 0 00-.72-.46l.75-.44 16.26 9.39z"/><path class="cls-3" d="M144.78 121.86l-16.26-9.39 1.48-.85.75.44 15.51 8.95-1.48.85z"/><path class="cls-8" d="M132.07 110.42l-2.11 1.22 16.26 9.39 2.07-1.2-16.22-9.41z"/><path class="cls-2" d="M129.96 113.3v-1.66l-2.19 1.27 1.4.85.79-.46z"/><path class="cls-7" d="M147.54 120.27l-15.51-9a6.78 6.78 0 00-.72-.46l.75-.44 16.26 9.39z"/><path class="cls-3" d="M148.33 119.81l-16.26-9.39 1.48-.85.75.44 15.51 8.95-1.48.85z"/><path class="cls-8" d="M135.62 108.37l-2.11 1.22 16.26 9.39 2.07-1.2-16.22-9.41z"/><path class="cls-2" d="M133.51 111.25v-1.66l-2.2 1.27 1.41.85.79-.46z"/><path class="cls-7" d="M151.09 118.22l-15.51-9a6.72 6.72 0 00-.72-.46l.75-.44 16.26 9.39z"/><path class="cls-3" d="M151.88 117.76l-16.26-9.39 1.47-.85.76.44 15.51 8.95-1.48.85z"/><path class="cls-8" d="M139.16 106.32l-2.1 1.22 16.26 9.38 2.07-1.19-16.23-9.41z"/><path class="cls-2" d="M137.06 109.2v-1.66l-2.2 1.27 1.4.85.8-.46z"/><path class="cls-7" d="M154.64 116.17l-15.51-9a6.74 6.74 0 00-.72-.46l.75-.44 16.26 9.39z"/><path class="cls-3" d="M155.43 115.71l-16.26-9.39 1.47-.85.76.44 15.5 8.95-1.47.85z"/><path class="cls-8" d="M142.71 104.27l-2.1 1.22 16.26 9.38 2.07-1.19-16.23-9.41z"/><path class="cls-2" d="M140.61 107.15v-1.66l-2.2 1.27 1.4.85.8-.46z"/><path class="cls-7" d="M158.19 114.12l-15.51-9a6.66 6.66 0 00-.72-.46l.75-.44 16.29 9.44z"/><path class="cls-3" d="M158.98 113.66l-16.26-9.39 1.47-.85.76.44 15.5 8.95-1.47.85z"/><path class="cls-8" d="M146.26 102.22l-2.1 1.22 16.26 9.38 2.07-1.19-16.23-9.41z"/><path class="cls-2" d="M144.16 105.1v-1.66l-2.2 1.27 1.4.85.8-.46z"/><path class="cls-16" d="M164.59 113.74l-1.78 1.03v17.19l-.24.14v2.4l2.02-1.17v-19.59z"/><path class="cls-17" d="M162.57 114.91v18.33l.86-.5.26-.15v-18.33z"/><path class="cls-3" d="M163.69 132.6l.9.73-2.02 1.17v-1.25l1.12-.65z"/><path class="cls-2" d="M164.6 133.34l1.47-.85v-19.54l-1.47.85v19.54z"/><path class="cls-16" d="M159.49 116.68v17.2l-.25.14v2.4l2-1.17v-19.59z"/><path class="cls-17" d="M159.25 116.82v18.34l.86-.5.26-.15v-18.33z"/><path class="cls-3" d="M160.37 134.52l.9.73-2.02 1.17v-1.26l1.12-.64z"/><path class="cls-2" d="M161.28 115.7v19.53l1.48-.83v-19.55z"/><path class="cls-16" d="M156.17 118.59v17.2l-.25.14v2.4l2-1.17v-19.6z"/><path class="cls-17" d="M155.92 118.74v18.35l.86-.5.26-.15v-18.35z"/><path class="cls-3" d="M157.05 136.43l.9.74-2.03 1.17v-1.26l1.13-.65z"/><path class="cls-2" d="M158 117.61v19.54l1.48-.82v-19.57z"/><path class="cls-16" d="M152.85 120.5v17.21l-.25.14v2.4l2-1.17v-19.6z"/><path class="cls-17" d="M152.6 120.65V139l.86-.5.26-.15V120z"/><path class="cls-3" d="M153.72 138.35l.91.74-2.03 1.16V139l1.12-.65z"/><path class="cls-2" d="M154.63 119.51v19.55l1.48-.82v-19.58z"/><path class="cls-16" d="M149.53 122.42v17.21l-.25.14v2.4l2-1.17v-19.61z"/><path class="cls-17" d="M149.28 122.56v18.36l.86-.5.26-.15v-18.36z"/><path class="cls-3" d="M150.4 140.27l.91.73-2.03 1.17v-1.25l1.12-.65z"/><path class="cls-2" d="M151.31 121.42V141l1.48-.82v-19.6z"/><path class="cls-16" d="M146.2 124.33v17.22l-.24.14v2.4l2.02-1.17v-19.61l-1.78 1.02z"/><path class="cls-17" d="M146 124.48v18.36l.86-.5.26-.15v-18.36z"/><path class="cls-3" d="M147.08 142.19l.9.73-2.02 1.17v-1.25l1.12-.65z"/><path class="cls-2" d="M148 123.32v19.58l1.48-.81v-19.62z"/><path class="cls-16" d="M142.88 126.24v17.23l-.25.14v2.4l2.03-1.17v-19.62l-1.78 1.02z"/><path class="cls-17" d="M142.64 126.39v18.37l.86-.5.26-.15v-18.37z"/><path class="cls-3" d="M143.76 144.11l.9.73-2.03 1.17v-1.25l1.13-.65z"/><path class="cls-2" d="M144.67 125.23v19.58l1.48-.81v-19.63z"/><path class="cls-16" d="M139.56 128.15v17.23l-.25.15v2.4l2.03-1.17v-19.63l-1.78 1.02z"/><path class="cls-17" d="M139.31 128.3v18.37l.86-.5.26-.15v-18.37z"/><path class="cls-3" d="M140.44 146.03l.9.73-2.03 1.17v-1.25l1.13-.65z"/><path class="cls-2" d="M141.34 127.13v19.59l1.48-.81v-19.63z"/><path class="cls-16" d="M136.24 130.07v17.23l-.25.14v2.41l2.03-1.17v-19.64l-1.78 1.03z"/><path class="cls-17" d="M136 130.21v18.38l.86-.5.26-.15v-18.38z"/><path class="cls-3" d="M137.12 147.94l.9.74-2.03 1.17v-1.26l1.13-.65z"/><path class="cls-2" d="M138 129v19.6l1.48-.8v-19.62z"/><path class="cls-16" d="M132.92 131.98v.06l-.01 17.18-.24.14v2.4l2.02-1.16v-14.4l.01-5.24-1.78 1.02z"/><path class="cls-17" d="M132.67 132.13v18.39l.86-.5.26-.15v-18.39z"/><path class="cls-3" d="M133.79 149.86l.9.74-2.02 1.16v-1.25l1.12-.65z"/><path class="cls-2" d="M134.7 130.94v19.67l1.48-.85v-19.67z"/><path class="cls-16" d="M129.59 133.89v17.25l-.24.14v2.4l2.02-1.17v-14.39l.01-5.25-1.79 1.02z"/><path class="cls-17" d="M129.35 134v18.39l.86-.5.26-.15v-18.35z"/><path class="cls-3" d="M130.47 151.78l.9.73-2.02 1.17v-1.25l1.12-.65z"/><path class="cls-2" d="M131.38 132.84v19.68l1.48-.85V132z"/><path class="cls-16" d="M126.27 135.81v17.25l-.24.14v2.4l2.02-1.17v-19.65l-1.78 1.03z"/><path class="cls-17" d="M126 136v18.4l.86-.5.26-.15V135.3z"/><path class="cls-3" d="M127.15 153.7l.9.73-2.02 1.17v-1.25l1.12-.65z"/><path class="cls-2" d="M128.05 134.75v19.7l1.48-.85v-19.7z"/><path class="cls-16" d="M124.73 156.28v-19.59l-1.78 1.03v17.25l-.25.15v2.4l2.03-1.17v-.07z"/><path class="cls-17" d="M123.83 137.21l-1.12.65v18.4l.86-.5.26-.15v-18.4z"/><path class="cls-3" d="M123.83 155.62l.9.73-2.03 1.17v-1.25l1.13-.65z"/><path class="cls-2" d="M124.73 136.65v19.71l1.48-.85V135.8l-1.48.85z"/><path class="cls-11" d="M152.6 177.74l-.39-.23v-19.24l.39.23v19.24zm0-.77v-.37l1.41.81v.37l-1.12-.64-.29-.17z"/><path class="cls-4" d="M154.01 177.41l-1.41-.81.29-.17 1.41.82-.29.16z"/><path class="cls-14" d="M152.89 176.43l-.29.17v-18.1l.29.16v17.77z"/><path class="cls-1" d="M154.3 177.24l-1.41-.82v-17.76l.32-.15v-.28l3.38 2-.29.17v.28l.63.36v18.86l-4-2.33v-.43l1.12.65.29-.17z"/><path class="cls-14" d="M154.3 177.25v.37l-.29.16v-.37l.29-.16zm-1.41-.11v.43l-.29.17v-.77l.29.17zm.32-18.91v.28l-.29.17v-.28l.29-.17z"/><path class="cls-11" d="M147.89 175.01l-.39-.22v-19.24l.39.22v19.24zm0-.76v-.38l1.41.82v.37l-1.13-.65-.28-.16z"/><path class="cls-4" d="M149.3 174.69l-1.41-.82.28-.16 1.42.81-.29.17z"/><path class="cls-1" d="M149.59 174.52l-1.41-.82v-17.76l.32-.15v-.28l1.68 1V176l-2-1.16v-.43l1.12.65.29-.17z"/><path class="cls-14" d="M148.5 155.51v.28l-.29.17v-.28l.29-.17zm-.33 18.2l-.28.16v-18.1l.28.17v17.77zm1.42.81v.38l-.29.16v-.37l.29-.17zm-1.42-.11v.44l-.28.16v-.76l.28.16z"/><path class="cls-1" d="M147.16 154.74l-.29.17v.28l.63.36v18.91l-4-2.33v-.43l1.12.65.29-.17v-.37l-1.41-.82v-17.77l.32-.15v-.28z"/><path class="cls-14" d="M143.78 152.79v.28l-.29.17v-.28l.29-.17z"/><path class="cls-4" d="M143.46 170.99l1.41.81-.29.17-1.41-.82.29-.16z"/><path class="cls-14" d="M143.46 170.99l-.29.16v-18.1l.29.17v17.77zm1.41.81v.38l-.29.16v-.37l.29-.17zm-1.41-.11v.44l-.29.16v-.76l.29.16z"/><path class="cls-11" d="M143.17 171.15l1.41.82v.37l-1.12-.65-.29-.16v-.38zm0 0v1.14l-.39-.22v-19.24l.39.22v18.1zm4.72-15.66l-.39-.22-.63-.36v.28l.63.36.39.22.29.17v-.26z"/><path class="cls-15" d="M142.97 151.34l-.85.49.33.19-.29.17.62.36.39.22.32.19.29-.17 3.38 1.95-.29.17.63.36.39.22.32.19.29-.17 1.68.97.84-.49-8.05-4.65z"/><path class="cls-1" d="M142.45 152l-.29.17v.28l.63.36v18.91l-.66-.38v-19.51z"/><path class="cls-11" d="M143.17 152.77l-.39-.22-.63-.36v.28l.63.36.39.22.29.17v-.26zm14.14 27.69l-.38-.23v-19.24l.38.23v19.24zm0-.77v-.37l1.42.81v.38l-1.13-.65-.29-.17z"/><path class="cls-4" d="M158.73 180.13l-1.42-.81.29-.17 1.36.79.06.03-.29.16z"/><path class="cls-14" d="M157.6 179.15l-.29.17v-18.1l.29.16v17.77z"/><path class="cls-1" d="M159 179.94l-1.36-.78v-17.78l.32-.15V161l1 .6z"/><path class="cls-14" d="M157.93 160.96v.28l-.29.16v-.28l.29-.16zm.8 19.17l.29-.16v.37l-.06.03-.23.14v-.38z"/><path class="cls-14" d="M159.02 180.34v-.37l-.06-.03v-18.39l.85-.48v19.52l-.79.45-.06.04v-.71l.06-.03zm-1.42-.05l-.29.17v-.77l.29.17v.43z"/><path class="cls-1" d="M157.6 180.29v-.43l1.13.65.23-.14v.71l-1.36-.79z"/><path class="cls-7" d="M150.96 176.39l-.73-.42.73-.42v.84z"/><path class="cls-11" d="M152.6 158.21l-.39-.22-.63-.36v.28l.63.36.39.22.29.17v-.26z"/><path class="cls-15" d="M151.8 156.44l-.78.46-.06.03.92.53-.29.17.62.36.39.22.32.19.29-.17 3.38 1.95-.29.17.63.36.38.23.33.18.29-.16 1.03.59.85-.48-8.01-4.63z"/><path class="cls-11" d="M157.32 160.94l-.39-.22-.63-.36v.28l.63.36.39.22.29.17v-.26z"/><path class="cls-1" d="M151.88 157.46l-.29.17v.28l.62.36v18.91l-1.25-.73v-19.52l.92.53z"/><path class="cls-2" d="M206.43 135.29l-43.37 25-1.47.87v21.35l1.48-.85 43.37-25zm-43.37 45.52v-19.57c0-.07 41.89-24.19 41.89-24.19v19.59z"/><path class="cls-2" d="M206.43 135.29l-43.37 25-1.47.87v21.35l1.48-.85 43.37-25zm-43.37 45.52v-19.57c0-.07 41.89-24.19 41.89-24.19v19.59z"/><path class="cls-14" d="M150.18 176v-19.52l.84-.49v.91l-.06.03v18.62l-.73.42-.05.03z"/><path class="cls-7" d="M161.59 161.18l-2.07-1.2-16.26-9.39-2.07-1.2v21.31l.94.54v-19.41l.85-.49L151 156v.9l.78-.45 8 4.62v19.52l-.78.41 2.57 1.49v-21.31z"/><path class="cls-8" d="M160.99 159.13l-15.5-8.95-.76-.44-2.07-1.19-.44.25-1.04.6 2.07 1.2 16.27 9.38 2.07 1.2 1.47-.85-2.07-1.2zM186 123.51l-43.37 25 20.4 11.78 43.37-25zm-23 34.43l-16.23-9.41 39.79-23 16.26 9.39z"/><path class="cls-7" d="M163.06 157.94l-15.51-9a6.72 6.72 0 00-.72-.46l.75-.44 16.26 9.39z"/><path class="cls-3" d="M163.85 157.48l-16.26-9.39 1.48-.85.75.44 15.51 8.95-1.48.85z"/><path class="cls-8" d="M151.14 146.04l-2.11 1.22 16.26 9.38 2.07-1.19-16.22-9.41z"/><path class="cls-2" d="M149.03 148.92v-1.66l-2.19 1.27 1.4.85.79-.46z"/><path class="cls-7" d="M166.61 155.89l-15.51-9a6.66 6.66 0 00-.72-.46l.75-.44 16.26 9.39z"/><path class="cls-3" d="M167.4 155.43l-16.26-9.39 1.48-.85.75.44 15.51 8.95-1.48.85z"/><path class="cls-8" d="M154.69 143.99l-2.11 1.22 16.26 9.38 2.07-1.19-16.22-9.41z"/><path class="cls-2" d="M152.58 146.87v-1.66l-2.2 1.27 1.4.85.8-.46z"/><path class="cls-7" d="M170.16 153.84l-15.51-9a6.74 6.74 0 00-.72-.46l.76-.44 16.26 9.39z"/><path class="cls-3" d="M170.95 153.38l-16.26-9.39 1.47-.85.76.43 15.51 8.96-1.48.85z"/><path class="cls-8" d="M158.23 141.94l-2.1 1.21 16.26 9.39 2.07-1.19-16.23-9.41z"/><path class="cls-2" d="M156.13 144.82v-1.66l-2.2 1.27 1.4.85.8-.46z"/><path class="cls-7" d="M173.71 151.78l-15.51-9a6.72 6.72 0 00-.72-.46l.75-.44 16.26 9.39z"/><path class="cls-3" d="M174.5 151.33l-16.26-9.39 1.47-.85.76.43 15.5 8.96-1.47.85z"/><path class="cls-8" d="M161.78 139.89l-2.1 1.21 16.26 9.39 2.07-1.19-16.23-9.41z"/><path class="cls-2" d="M159.68 142.76v-1.65l-2.2 1.27 1.4.84.8-.46z"/><path class="cls-7" d="M177.26 149.73l-15.51-9a6.75 6.75 0 00-.72-.46l.75-.44 16.22 9.45z"/><path class="cls-3" d="M178.05 149.28l-16.26-9.39 1.47-.85.76.43 15.5 8.96-1.47.85z"/><path class="cls-8" d="M165.33 137.84l-2.1 1.21 16.26 9.39 2.07-1.19-16.23-9.41z"/><path class="cls-2" d="M163.23 140.71v-1.65l-2.2 1.26 1.4.85.8-.46z"/><path class="cls-7" d="M180.81 147.68l-15.51-9a6.72 6.72 0 00-.72-.46l.75-.44 16.26 9.39z"/><path class="cls-3" d="M181.6 147.23l-16.26-9.39 1.47-.85.76.43 15.5 8.96-1.47.85z"/><path class="cls-8" d="M168.88 135.79l-2.1 1.21 16.26 9.39 2.07-1.2-16.23-9.4z"/><path class="cls-2" d="M166.78 138.66v-1.65l-2.2 1.27 1.4.84.8-.46z"/><path class="cls-7" d="M184.35 145.63l-15.51-9a6.72 6.72 0 00-.72-.46l.75-.44 16.26 9.39z"/><path class="cls-3" d="M185.15 145.18l-16.27-9.39 1.48-.85.75.43 15.51 8.95-1.47.86z"/><path class="cls-8" d="M172.43 133.74l-2.11 1.21 16.26 9.39 2.08-1.2-16.23-9.4z"/><path class="cls-2" d="M170.32 136.61v-1.65l-2.19 1.26 1.4.85.79-.46z"/><path class="cls-7" d="M187.9 143.58l-15.51-9a6.77 6.77 0 00-.72-.46l.75-.44 16.26 9.39z"/><path class="cls-3" d="M188.69 143.13l-16.26-9.39 1.48-.86.75.44 15.51 8.95-1.48.86z"/><path class="cls-8" d="M175.98 131.69l-2.11 1.21 16.26 9.39 2.07-1.2-16.22-9.4z"/><path class="cls-2" d="M173.87 134.56v-1.65l-2.19 1.26 1.4.85.79-.46z"/><path class="cls-7" d="M191.45 141.53l-15.51-9a6.66 6.66 0 00-.72-.46l.75-.44 16.26 9.39z"/><path class="cls-3" d="M192.24 141.07l-16.26-9.38 1.48-.85.75.43 15.51 8.95-1.48.85z"/><path class="cls-8" d="M179.53 129.63l-2.11 1.22 16.26 9.39 2.07-1.2-16.22-9.41z"/><path class="cls-2" d="M177.42 132.51v-1.66l-2.19 1.27 1.4.85.79-.46z"/><path class="cls-7" d="M195 139.48l-15.51-9a6.79 6.79 0 00-.72-.46l.75-.44 16.27 9.42z"/><path class="cls-3" d="M195.79 139.02l-16.26-9.38 1.48-.86.75.44 15.51 8.95-1.48.85z"/><path class="cls-8" d="M183.08 127.58l-2.11 1.22 16.26 9.39 2.07-1.2-16.22-9.41z"/><path class="cls-2" d="M180.97 130.46v-1.66l-2.19 1.27 1.4.85.79-.46z"/><path class="cls-7" d="M198.55 137.43l-15.51-9a6.72 6.72 0 00-.72-.46l.75-.44 16.27 9.47z"/><path class="cls-3" d="M199.34 136.97l-16.26-9.39 1.48-.85.75.44 15.51 8.95-1.48.85z"/><path class="cls-8" d="M186.62 125.53l-2.1 1.22 16.26 9.39 2.07-1.2-16.23-9.41z"/><path class="cls-2" d="M184.52 128.41v-1.66l-2.2 1.27 1.4.85.8-.46z"/><path class="cls-16" d="M204.96 137.06l-1.78 1.02v17.19l-.25.14v2.4l2.03-1.16v-19.59z"/><path class="cls-17" d="M202.93 138.23v18.33l.86-.5.26-.15v-18.33z"/><path class="cls-3" d="M204.05 155.91l.91.74-2.03 1.16v-1.25l1.12-.65z"/><path class="cls-2" d="M204.96 156.66l1.48-.85v-19.55l-1.48.85v19.55z"/><path class="cls-16" d="M199.85 140v17.19l-.25.14v2.4l2-1.17V139z"/><path class="cls-17" d="M199.61 140.14v18.34l.86-.5.26-.15v-18.34z"/><path class="cls-3" d="M200.73 157.83l.9.73-2.02 1.17v-1.25l1.12-.65z"/><path class="cls-2" d="M201.64 139v19.53l1.48-.83v-19.53z"/><path class="cls-16" d="M196.53 141.9v17.2l-.25.14v2.4l2-1.17v-19.6z"/><path class="cls-17" d="M196.29 142.05v18.35l.86-.5.26-.15V141.4z"/><path class="cls-3" d="M197.41 159.75l.9.73-2.03 1.17v-1.25l1.13-.65z"/><path class="cls-2" d="M198.32 140.92v19.54l1.48-.82v-19.57z"/><path class="cls-16" d="M193.21 143.82v17.21l-.25.14v2.4l2-1.17v-19.61z"/><path class="cls-17" d="M193 144v18.35l.86-.5.26-.15v-18.39z"/><path class="cls-3" d="M194.09 161.67l.9.73-2.03 1.17v-1.26l1.13-.64z"/><path class="cls-2" d="M195 142.83v19.55l1.48-.82V142z"/><path class="cls-16" d="M189.89 145.73v17.21l-.25.14v2.4l2-1.17v-19.6z"/><path class="cls-17" d="M189.64 145.88v18.36l.86-.5.26-.15v-18.36z"/><path class="cls-3" d="M190.77 163.58l.9.74-2.03 1.17v-1.26l1.13-.65z"/><path class="cls-2" d="M191.67 144.73v19.56l1.48-.82v-19.6z"/><path class="cls-16" d="M186.56 147.64v17.22l-.24.14v2.41l2.03-1.17v-19.62l-1.79 1.02z"/><path class="cls-17" d="M186.32 147.79v18.36l.86-.5.26-.15v-18.36z"/><path class="cls-3" d="M187.44 165.5l.91.74-2.03 1.17v-1.26l1.12-.65z"/><path class="cls-2" d="M188.35 146.64v19.57l1.48-.81v-19.62z"/><path class="cls-16" d="M183.24 149.56v17.22l-.24.14v2.4l2.02-1.17v-14.38l.01-5.24-1.79 1.03z"/><path class="cls-17" d="M183 149.7v18.37l.86-.5.26-.15v-18.37z"/><path class="cls-3" d="M184.12 167.42l.9.73-2.02 1.17v-1.25l1.12-.65z"/><path class="cls-2" d="M185 148.54v19.58l1.48-.81v-19.62z"/><path class="cls-16" d="M179.92 151.47v17.23l-.24.14v2.4l2.02-1.17v-19.63l-1.78 1.03z"/><path class="cls-17" d="M179.68 151.61V170l.86-.5.26-.15V151z"/><path class="cls-3" d="M180.8 169.34l.9.73-2.02 1.17v-1.25l1.12-.65z"/><path class="cls-2" d="M181.71 150.44V170l1.48-.81v-19.6z"/><path class="cls-16" d="M176.6 153.38v17.24l-.25.14v2.4l2.03-1.17v-19.63l-1.78 1.02z"/><path class="cls-17" d="M176.35 153.53v18.38l.86-.5.26-.15v-18.38z"/><path class="cls-3" d="M177.48 171.26l.9.73-2.03 1.17v-1.25l1.13-.65z"/><path class="cls-2" d="M178.38 152.35V172l1.48-.8v-19.7z"/><path class="cls-16" d="M173.28 155.29v17.24l-.25.15v2.4l2.03-1.17v-19.64l-1.78 1.02z"/><path class="cls-17" d="M173 155.44v18.39l.86-.5.26-.15v-18.39z"/><path class="cls-3" d="M174.16 173.18l.9.73-2.03 1.17v-1.26l1.13-.64z"/><path class="cls-2" d="M175.06 154.25v19.67l1.48-.85V153.4z"/><path class="cls-16" d="M169.96 157.21v17.24l-.25.14V177l2.03-1.17v-19.65l-1.78 1.03z"/><path class="cls-17" d="M169.71 157.35v18.39l.86-.5.26-.15V156.7z"/><path class="cls-3" d="M170.83 175.09l.91.74-2.03 1.17v-1.26l1.12-.65z"/><path class="cls-2" d="M171.74 156.16v19.68l1.48-.85v-19.68z"/><path class="cls-16" d="M166.63 159.12v17.25l-.24.14v2.4l2.02-1.16v-19.66l-1.78 1.03z"/><path class="cls-17" d="M166.39 159.26v18.4l.86-.5.26-.15v-18.4z"/><path class="cls-3" d="M167.51 177.01l.9.74-2.02 1.16v-1.25l1.12-.65z"/><path class="cls-2" d="M168.42 158.06v19.7l1.48-.85v-19.7z"/><path class="cls-16" d="M165.09 179.6v-19.59l-1.78 1.02v17.26l-.25.14v2.4l2.03-1.17v-.06z"/><path class="cls-17" d="M164.19 160.53l-1.12.65v18.4l.86-.5.26-.15v-18.4z"/><path class="cls-3" d="M164.19 178.93l.9.73-2.03 1.17v-1.25l1.13-.65z"/><path class="cls-2" d="M165.09 159.97v19.71l1.48-.86v-19.7l-1.48.85z"/><path class="cls-11" d="M192.96 201.05l-.38-.23v-19.23l.38.22v19.24zm0-.77v-.37l1.42.81v.38l-1.13-.65-.29-.17z"/><path class="cls-4" d="M194.38 200.72l-1.42-.81.29-.17 1.41.82-.28.16z"/><path class="cls-14" d="M193.25 199.74l-.29.17v-18.1l.29.16v17.77z"/><path class="cls-1" d="M194.66 200.56l-1.41-.82V182l.32-.15v-.28l3.38 2-.29.17v.28l.63.36v18.91l-4-2.33v-.43l1.12.65.29-.17z"/><path class="cls-14" d="M194.66 200.56v.37l-.28.17v-.38l.28-.16zm-1.41-.11v.43l-.29.17v-.77l.29.17zm.32-18.9v.28l-.28.16v-.28l.28-.16z"/><path class="cls-11" d="M188.25 198.33l-.39-.23v-19.24l.39.23v19.24zm0-.77v-.37l1.41.81v.38l-1.12-.65-.29-.17z"/><path class="cls-4" d="M189.66 198l-1.41-.81.29-.17 1.41.82-.29.16z"/><path class="cls-1" d="M189.95 197.84l-1.41-.82v-17.77l.32-.15v-.28l1.68 1v19.52l-2-1.16v-.43l1.12.65.29-.17z"/><path class="cls-14" d="M188.86 178.82v.29l-.29.16v-.28l.29-.17zm-.32 18.2l-.29.17v-18.1l.29.16v17.77zm1.41.82v.37l-.29.17V198l.29-.16zm-1.41-.11v.43l-.29.17v-.77l.29.17z"/><path class="cls-1" d="M187.52 178.05l-.29.17v.28l.63.36v18.91l-4-2.33V195l1.12.65.29-.17v-.37l-1.41-.82v-17.76l.32-.15v-.28z"/><path class="cls-14" d="M184.15 176.1v.28l-.29.17v-.28l.29-.17z"/><path class="cls-4" d="M183.82 194.3l1.41.82-.28.16-1.42-.81.29-.17z"/><path class="cls-14" d="M183.82 194.3l-.29.17v-18.11l.29.17v17.77zm1.41.82v.37l-.28.17v-.38l.28-.16zm-1.41-.12v.44l-.29.16v-.76l.29.16z"/><path class="cls-11" d="M183.53 194.47l1.42.81v.38l-1.13-.66-.29-.16v-.37zm0 0v1.13l-.38-.22v-19.24l.38.22v18.11zm4.72-15.66l-.39-.22-.63-.36v.28l.63.36.39.22.29.17V179z"/><path class="cls-15" d="M183.33 174.66l-.85.48.33.19-.29.17.63.36.38.22.33.19.29-.17 3.37 1.95-.28.17.62.36.39.23.32.18.29-.17 1.68.97.84-.48-8.05-4.65z"/><path class="cls-1" d="M182.81 175.33l-.29.17v.28l.63.36V195l-.66-.38v-19.48z"/><path class="cls-11" d="M183.53 176.08l-.39-.22-.63-.36v.28l.63.36.39.22.29.17v-.26zm14.15 27.69l-.39-.22v-19.24l.39.22v19.24zm0-.77v-.37l1.41.82v.37l-1.12-.65-.29-.17z"/><path class="cls-4" d="M199.09 203.45l-1.41-.82.29-.16 1.35.78.06.03-.29.17z"/><path class="cls-14" d="M197.97 202.47l-.29.16v-18.1l.29.17v17.77z"/><path class="cls-1" d="M199.33 203.25l-1.36-.78V184.7l.32-.15v-.28l1 .6z"/><path class="cls-14" d="M198.29 184.27v.28l-.29.17v-.28l.29-.17zm.8 19.18l.29-.17v.37l-.06.04-.23.13v-.37z"/><path class="cls-14" d="M199.38 203.65v-.37l-.06-.03v-18.38l.85-.49v19.52l-.79.46-.06.03v-.7l.06-.04zm-1.41-.05l-.29.17V203l.29.17v.43z"/><path class="cls-1" d="M197.97 203.6v-.43l1.12.65.23-.13v.7l-1.35-.79z"/><path class="cls-7" d="M191.32 199.7l-.73-.42.73-.41v.83z"/><path class="cls-11" d="M193 181.53l-.39-.22-.63-.36v.28l.63.36.39.22.29.17v-.26z"/><path class="cls-15" d="M192.16 179.76l-.78.45-.06.04.92.53-.29.16.63.36.38.23.33.18.28-.16 3.38 1.95-.29.16.63.37.39.22.32.19.29-.17 1.03.6.85-.49-8.01-4.62z"/><path class="cls-11" d="M197.68 184.25l-.39-.22-.63-.36v.28l.63.36.39.22.29.17v-.26z"/><path class="cls-1" d="M192.24 180.78l-.29.16v.28l.63.37v18.9l-1.26-.72v-19.52l.92.53z"/><path class="cls-2" d="M246.79 158.61l-43.37 25-1.47.87v21.35l1.48-.85 43.37-25zm-43.37 45.52v-19.57c0-.07 41.89-24.19 41.89-24.19V180z"/><path class="cls-2" d="M246.79 158.61l-43.37 25-1.47.87v21.35l1.48-.85 43.37-25zm-43.37 45.52v-19.57c0-.07 41.89-24.19 41.89-24.19V180z"/><path class="cls-14" d="M190.54 199.32v-19.53l.84-.48v.9l-.06.04v18.62l-.73.41-.05.04z"/><path class="cls-7" d="M201.95 184.49l-2.07-1.2-16.26-9.39-2.07-1.2V194l.94.54v-19.4l.85-.49 8.06 4.65v.9l.78-.45 8 4.62v19.53l-.79.46 2.57 1.49v-21.36z"/><path class="cls-8" d="M201.35 182.45l-15.5-8.96-.76-.43-2.07-1.2-.44.26-1.03.59 2.07 1.2 16.26 9.39 2.07 1.19 1.47-.85-2.07-1.19zm25.04-35.63l-43.37 25 20.4 11.78 43.37-25zm-23 34.43l-16.23-9.41 39.79-23 16.26 9.39z"/><path class="cls-7" d="M203.42 181.25l-15.51-9a6.77 6.77 0 00-.72-.46l.75-.44 16.26 9.39z"/><path class="cls-3" d="M204.22 180.79l-16.27-9.38 1.48-.86.76.44 15.5 8.95-1.47.85z"/><path class="cls-8" d="M191.5 169.35l-2.11 1.22 16.27 9.39 2.06-1.2-16.22-9.41z"/><path class="cls-2" d="M189.39 172.23v-1.66l-2.19 1.27 1.4.85.79-.46z"/><path class="cls-7" d="M207 179.2l-15.51-9a6.66 6.66 0 00-.72-.46l.75-.44 16.26 9.39z"/><path class="cls-3" d="M207.76 178.74l-16.26-9.39 1.48-.85.75.44 15.51 8.95-1.48.85z"/><path class="cls-8" d="M195.05 167.3l-2.11 1.22 16.26 9.39 2.07-1.2-16.22-9.41z"/><path class="cls-2" d="M192.94 170.18v-1.66l-2.19 1.27 1.4.85.79-.46z"/><path class="cls-7" d="M210.52 177.15l-15.51-9a6.74 6.74 0 00-.72-.46l.75-.44 16.26 9.39z"/><path class="cls-3" d="M211.31 176.69l-16.26-9.38 1.48-.86.75.44 15.51 8.95-1.48.85z"/><path class="cls-8" d="M198.6 165.25l-2.11 1.22 16.26 9.39 2.07-1.2-16.22-9.41z"/><path class="cls-2" d="M196.49 168.13v-1.66l-2.19 1.27 1.4.85.79-.46z"/><path class="cls-7" d="M214.07 175.1l-15.51-9a6.71 6.71 0 00-.72-.46l.75-.44 16.26 9.39z"/><path class="cls-3" d="M214.86 174.64l-16.26-9.39 1.48-.85.75.44 15.51 8.95-1.48.85z"/><path class="cls-8" d="M202.15 163.2l-2.11 1.22 16.26 9.39 2.07-1.2-16.22-9.41z"/><path class="cls-2" d="M200.04 166.08v-1.66l-2.2 1.27 1.41.85.79-.46z"/><path class="cls-7" d="M217.62 173l-15.51-9a6.74 6.74 0 00-.72-.46l.76-.44 16.26 9.39z"/><path class="cls-3" d="M218.41 172.59l-16.26-9.39 1.47-.85.76.44 15.5 8.95-1.47.85z"/><path class="cls-8" d="M205.69 161.15l-2.1 1.22 16.26 9.38 2.07-1.19-16.23-9.41z"/><path class="cls-2" d="M203.59 164.03v-1.66l-2.2 1.27 1.4.85.8-.46z"/><path class="cls-7" d="M221.17 171l-15.51-9a6.72 6.72 0 00-.72-.46l.75-.44 16.31 9.44z"/><path class="cls-3" d="M221.96 170.54l-16.26-9.39 1.47-.85.76.44 15.5 8.95-1.47.85z"/><path class="cls-8" d="M209.24 159.1l-2.1 1.22 16.26 9.38 2.07-1.19-16.23-9.41z"/><path class="cls-2" d="M207.14 161.98v-1.66l-2.2 1.27 1.4.85.8-.46z"/><path class="cls-7" d="M224.72 168.95l-15.51-9a6.72 6.72 0 00-.72-.46l.75-.44 16.26 9.39z"/><path class="cls-3" d="M225.51 168.49l-16.26-9.39 1.47-.85.76.44 15.5 8.95-1.47.85z"/><path class="cls-8" d="M212.79 157.05l-2.1 1.21 16.26 9.39 2.07-1.19-16.23-9.41z"/><path class="cls-2" d="M210.69 159.93v-1.66l-2.2 1.27 1.4.84.8-.45z"/><path class="cls-7" d="M228.27 166.9l-15.51-9a6.71 6.71 0 00-.72-.46l.76-.44 16.26 9.39z"/><path class="cls-3" d="M229.06 166.44l-16.27-9.39 1.48-.85.76.43 15.5 8.96-1.47.85z"/><path class="cls-8" d="M216.34 155l-2.1 1.21 16.26 9.39 2.07-1.19-16.23-9.41z"/><path class="cls-2" d="M214.24 157.88v-1.66l-2.2 1.27 1.4.85.8-.46z"/><path class="cls-7" d="M231.81 164.84l-15.51-9a6.67 6.67 0 00-.72-.46l.75-.44 16.26 9.39z"/><path class="cls-3" d="M232.6 164.39L216.34 155l1.48-.85.75.43 15.51 8.96-1.48.85z"/><path class="cls-8" d="M219.89 152.95l-2.11 1.21 16.26 9.39 2.08-1.19-16.23-9.41z"/><path class="cls-2" d="M217.78 155.82v-1.65l-2.19 1.27 1.4.84.79-.46z"/><path class="cls-7" d="M235.36 162.79l-15.51-9a6.78 6.78 0 00-.72-.46l.75-.44 16.26 9.39z"/><path class="cls-3" d="M236.15 162.34l-16.26-9.39 1.48-.85.75.43 15.51 8.96-1.48.85z"/><path class="cls-8" d="M223.44 150.9l-2.11 1.21 16.26 9.39 2.07-1.19-16.22-9.41z"/><path class="cls-2" d="M221.33 153.77v-1.65l-2.19 1.26 1.4.85.79-.46z"/><path class="cls-7" d="M238.91 160.74l-15.51-9a6.73 6.73 0 00-.72-.46l.75-.44 16.26 9.39z"/><path class="cls-3" d="M239.7 160.29l-16.26-9.39 1.48-.85.75.43 15.51 8.96-1.48.85z"/><path class="cls-8" d="M226.99 148.85l-2.11 1.21 16.26 9.39 2.07-1.2-16.22-9.4z"/><path class="cls-2" d="M224.88 151.72v-1.65l-2.19 1.27 1.4.84.79-.46z"/><path class="cls-16" d="M245.32 160.37l-1.78 1.02v17.19l-.25.14v2.41l2.03-1.17v-19.59z"/><path class="cls-17" d="M243.29 161.54v18.33l.86-.5.26-.15v-18.33z"/><path class="cls-3" d="M244.42 179.22l.9.74-2.03 1.17v-1.26l1.13-.65z"/><path class="cls-2" d="M245.32 179.97l1.48-.85v-19.55l-1.48.86v19.54z"/><path class="cls-16" d="M240.22 163.31v17.19l-.25.14V183l2-1.17v-19.55z"/><path class="cls-17" d="M240 163.45v18.34l.86-.5.26-.15V162.8z"/><path class="cls-3" d="M241.09 181.14l.91.74-2.03 1.17v-1.26l1.12-.65z"/><path class="cls-2" d="M242 162.33v19.53l1.48-.83v-19.55z"/><path class="cls-16" d="M236.89 165.22v17.2l-.25.14V185l2-1.17V164.2z"/><path class="cls-17" d="M236.65 165.36v18.35l.86-.5.26-.15v-18.34z"/><path class="cls-3" d="M237.77 183.06l.9.73-2.02 1.17v-1.25l1.12-.65z"/><path class="cls-2" d="M238.68 164.24v19.54l1.48-.82v-19.58z"/><path class="cls-16" d="M233.57 167.13v17.21l-.25.14v2.4l2-1.17v-19.6z"/><path class="cls-17" d="M233.33 167.28v18.35l.86-.5.26-.15v-18.35z"/><path class="cls-3" d="M234.45 184.98l.9.73-2.03 1.17v-1.25l1.13-.65z"/><path class="cls-2" d="M235.36 166.14v19.55l1.48-.82v-19.58z"/><path class="cls-16" d="M230.25 169v17.21l-.25.14v2.4l2-1.17V168z"/><path class="cls-17" d="M230 169.19v18.36l.86-.5.26-.15v-18.36z"/><path class="cls-3" d="M231.13 186.9l.9.73-2.03 1.17v-1.25l1.13-.65z"/><path class="cls-2" d="M232 168v19.56l1.48-.82v-19.6z"/><path class="cls-16" d="M226.93 170.96v17.21l-.25.15v2.4l2.03-1.17v-19.62l-1.78 1.03z"/><path class="cls-17" d="M226.68 171.1v18.36l.86-.5.26-.15v-18.36z"/><path class="cls-3" d="M227.81 188.82l.9.73-2.03 1.17v-1.25l1.13-.65z"/><path class="cls-2" d="M228.71 169.95v19.57l1.48-.81V169.1z"/><path class="cls-16" d="M223.61 172.87v.05l-.01 17.17-.24.14v2.41l2.03-1.17v-19.62l-1.78 1.02z"/><path class="cls-17" d="M223.36 173v18.37l.86-.5.26-.15v-18.35z"/><path class="cls-3" d="M224.48 190.74l.91.73-2.03 1.17v-1.26l1.12-.64z"/><path class="cls-2" d="M225.39 171.85v19.58l1.48-.81V171z"/><path class="cls-16" d="M220.28 174.78v17.23l-.24.14v2.41l2.02-1.17V179l.01-5.24-1.79 1.02z"/><path class="cls-17" d="M220 174.93v18.37l.86-.5.26-.15v-18.37z"/><path class="cls-3" d="M221.16 192.65l.9.74-2.02 1.17v-1.26l1.12-.65z"/><path class="cls-2" d="M222.07 173.76v19.59l1.48-.81v-19.63z"/><path class="cls-16" d="M216.96 176.69v17.24l-.24.14v2.4l2.02-1.16v-19.64l-1.78 1.02z"/><path class="cls-17" d="M216.72 176.84v18.38l.86-.5.26-.15v-18.38z"/><path class="cls-3" d="M217.84 194.57l.9.73-2.02 1.17v-1.25l1.12-.65z"/><path class="cls-2" d="M218.75 175.66v19.6l1.48-.8v-19.65z"/><path class="cls-16" d="M213.64 178.61v17.24l-.25.14v2.4l2.03-1.17v-19.64l-1.78 1.03z"/><path class="cls-17" d="M213.39 178.75v18.39l.86-.5.26-.15V178.1z"/><path class="cls-3" d="M214.52 196.49l.9.73-2.03 1.17v-1.25l1.13-.65z"/><path class="cls-2" d="M215.42 177.57v19.67l1.48-.85v-19.67z"/><path class="cls-16" d="M210.32 180.52v17.24l-.25.15v2.4l2.03-1.17V179.5l-1.78 1.02z"/><path class="cls-17" d="M210.07 180.67v18.39l.86-.5.26-.15V180z"/><path class="cls-3" d="M211.2 198.41l.9.73-2.03 1.17v-1.25l1.13-.65z"/><path class="cls-2" d="M212.1 179.47v19.68l1.48-.85v-19.68z"/><path class="cls-16" d="M207 182.43v17.25l-.25.15v2.4l2.03-1.17v-19.65l-1.78 1.02z"/><path class="cls-17" d="M206.75 182.58V201l.86-.5.26-.15v-18.4z"/><path class="cls-3" d="M207.87 200.33l.91.73-2.03 1.17v-1.26l1.12-.64z"/><path class="cls-2" d="M208.78 181.38v19.7l1.48-.85v-19.7z"/><path class="cls-16" d="M205.45 202.91v-14.33l.01-5.26-1.78 1.02v.07l-.01 17.19-.24.14v2.41l2.02-1.17v-.07z"/><path class="cls-17" d="M204.55 183.84l-1.12.65v18.4l.86-.5.26-.15v-18.4z"/><path class="cls-3" d="M204.55 202.24l.9.74-2.02 1.17v-1.26l1.12-.65z"/><path class="cls-2" d="M205.46 183.28v19.71l1.47-.85v-19.71l-1.47.85z"/><path class="cls-11" d="M301.31 247.17l-12.22-3.38 67.15-38.91v10.46l-54.93 31.83z"/><path class="cls-15" d="M406.93 276.4l-50.69-61.06-54.93 31.83 105.62 29.23z"/><path class="cls-11" d="M427.16 284.69l-41.97 61.02-103.46-16 145.43-45.02z"/><path class="cls-1" d="M427.16 284.69l-145.23-40.18.16-.09 75.38-43.69zm-70.92-79.81l-67.15 38.91 12.21 3.38 105.63 29.23 11.27 3.12z"/><path class="cls-4" d="M356.24 204.88l61.96 74.64-11.27-3.12-50.69-61.06v-10.46z"/><path class="cls-1" d="M352.81 233.74l1.16.68-2.28 1.3.01-1.27v-.08l1.11-.63zm2.34.02l.01-1.27v-.08l1.11-.63 1.17.68-2.29 1.3zm-9.79-2.09v.22l-.83-.48.72-.41.63.37-.52.3zm1.16.91l.72-.41.67.39-.53.3v.23l-.86-.51z"/><path class="cls-1" d="M347.05 232.05l-.53.3-1.16-.68.52-.3 1.17.68z"/><path class="cls-7" d="M347.05 232.05l-1.17-.68-.63-.37-.2-.12-1.16-.68-.66-.39-.19-.12-.51-.29.01-.77.06-7.02 8.26 4.86-.06 7.79-.91-.53-.62-.37-.2-.11-1.16-.69-.67-.39-.19-.12z"/><path class="cls-1" d="M342.53 229.4l.51.29-.53.3-1.16-.68 1.19-.68-.01.77zm7.36 4.33l.91.53 7.28-4.13v-.32l.55.32-8.1 4.58-1.16-.68.52-.3z"/><path class="cls-3" d="M358.08 230.13l-7.28 4.13.06-7.79 7.28-4.12-.06 7.46v.32z"/><path class="cls-1" d="M343.89 230.2l1.16.68-.52.3-1.16-.68.52-.3zm4.02 2.36l1.16.69-.52.29-1.17-.68.53-.3z"/><path class="cls-1" d="M342.51 230.22l.72-.41.66.39-.52.3v.22l-.86-.5zm6.86 3.81v.22l-.83-.48.73-.41.62.37-.52.3z"/><path class="cls-4" d="M352.81 233.64v.1l1.16.68.02-1.27v-.17l-.16.08-1.02.58zm-3.44.61l-.83-.48.01-.23-1.17-.68v.23l-.86-.51v-.23l-1.16-.68v.22l-.83-.48v-.23l-1.16-.68v.22l-.86-.5v-.23l-1.16-.68v.22l-.01.18-.01 1.27v.23l1.16.68v-.23l.01-1.27 1.1.65.19.11 1.56.92-.01 1.27v.22l1.16.69v-.23l.01-1.27 1.1.65.19.11 1.56.92-.01 1.27v.22l1.16.69v-.23l.01-1.27v-.17l.01-.23-1.16-.68v.22zm7.93-3.15l-1.03.58v.1l1.17.68.01-1.27v-.17l-.15.08z"/><path class="cls-11" d="M346.51 232.75l-.01 1.27v.23l1.3-.74-.19-.11-1.1-.65zm-1.98-1.57v.23l.72-.41-.2-.12-.52.3zm2.52.87l-.53.3v.23l.72-.41-.19-.12zm-4.01-2.36l-.53.3v.23l.72-.41-.19-.12zm15.59.44l-8.1 4.59v1.9l8.1-4.59v-1.67l-1.17.66v1.44l-2.29 1.3v-1.44l1.12-.63 1-.58.15-.09 1.18-.67zm-4.64 3v1.27l-2.29 1.3v-1.44l1.12-.63 1-.58.18-.05zm-5.44.41l-.01.23.73-.41-.2-.11-.52.29zm-6.05-3.15l-.01 1.27v.23l1.3-.74-.19-.11-1.1-.65z"/><path class="cls-8" d="M342.6 221.61l7.28-4.12 8.26 4.86-7.28 4.12-8.26-4.86z"/><path class="cls-1" d="M341.3 240.25l1.16.68-2.29 1.3.01-1.27v-.08l1.12-.63zm2.33.02l.01-1.27v-.08l1.12-.63 1.16.68-2.29 1.3zm-9.79-2.09v.22l-.83-.49.72-.4.64.37-.53.3zm1.16.91l.73-.41.66.39-.52.3v.23l-.87-.51z"/><path class="cls-1" d="M335.53 238.56l-.53.3-1.16-.68.53-.3 1.16.68z"/><path class="cls-1" d="M335.53 238.56l-1.16-.68-.64-.37-.19-.12-1.16-.68-.67-.39-.19-.12-.5-.29v-.77l.06-7.02 8.26 4.86-.06 7.79-.9-.53-.63-.37-.19-.11-1.17-.69-.66-.39-.2-.12z"/><path class="cls-1" d="M331.02 235.91l.5.29-.52.3-1.17-.68 1.19-.68v.77zm7.36 4.33l.9.53 7.29-4.13v-.32l.54.31-8.1 4.59-1.16-.68.53-.3z"/><path class="cls-4" d="M346.57 236.64l-7.29 4.13.06-7.79 7.29-4.12-.06 7.46v.32z"/><path class="cls-1" d="M332.38 236.71l1.16.68-.53.3-1.16-.69.53-.29zm4.01 2.36l1.17.69-.53.29-1.16-.68.52-.3z"/><path class="cls-1" d="M330.99 236.73l.72-.41.67.39-.53.29v.23l-.86-.5zm6.86 3.81v.22l-.82-.48.72-.41.63.37-.53.3z"/><path class="cls-4" d="M341.3 240.15v.1l1.16.68.01-1.27v-.17l-.15.08-1.02.58zm-3.45.61l-.82-.48v-.23l-1.16-.68v.23l-.87-.51v-.23l-1.16-.68v.22l-.83-.49v-.22l-1.16-.69v.23l-.86-.5.01-.23-1.17-.68v.4l-.01 1.27-.01.22 1.17.69v-.23l.01-1.27 1.09.65.2.11 1.56.92-.01 1.27-.01.22 1.17.69v-.23l.01-1.27 1.09.65.2.11 1.56.92-.01 1.27-.01.22 1.17.69v-.23l.01-1.27v-.4l-1.16-.68v.22zm7.93-3.15l-1.02.58v.1l1.16.68.01-1.27v-.17l-.15.08z"/><path class="cls-11" d="M335 239.26l-.01 1.27v.23l1.3-.74-.2-.11-1.09-.65zm-1.99-1.57v.22l.72-.4-.19-.12-.53.3zm2.52.87l-.53.3v.23l.73-.41-.2-.12zm-4.01-2.36l-.52.3-.01.23.72-.41-.19-.12zm15.59.43l-8.1 4.59v1.9l8.1-4.59v-1.67l-1.17.66V239l-2.29 1.3v-1.44l1.12-.63 1-.58.15-.09 1.18-.67zm-4.64 3v1.27l-2.29 1.3v-1.44l1.12-.63 1-.58.15-.09zm-5.44.42v.23l.72-.41-.19-.11-.53.29zm-6.04-3.15l-.01 1.27v.23l1.3-.74-.2-.11-1.09-.65z"/><path class="cls-18" d="M331.08 228.12l7.29-4.12 8.26 4.86-7.29 4.12-8.26-4.86z"/><path class="cls-1" d="M329.78 246.76l1.16.68-2.29 1.3.02-1.27v-.08l1.11-.63zm2.34.02l.01-1.27v-.08l1.11-.64 1.17.69-2.29 1.3zm-9.79-2.09v.22l-.83-.48.72-.42.63.38-.52.3zm1.16.91l.72-.41.67.39-.53.3v.22l-.86-.5z"/><path class="cls-1" d="M324.01 245.07l-.52.3-1.16-.68.52-.3 1.16.68z"/><path class="cls-7" d="M324.01 245.07l-1.16-.68-.63-.38-.2-.11-1.16-.68-.66-.39-.2-.12-.5-.29.01-.77.06-7.02 8.26 4.86-.07 7.79-.9-.53-.62-.37-.2-.12-1.16-.68-.67-.39-.2-.12z"/><path class="cls-1" d="M319.5 242.42l.5.29-.52.3-1.16-.68 1.19-.68-.01.77zm7.36 4.33l.9.53 7.29-4.13v-.33l.55.32-8.1 4.59-1.16-.68.52-.3z"/><path class="cls-3" d="M335.05 243.15l-7.29 4.13.07-7.79 7.29-4.12-.07 7.45v.33z"/><path class="cls-1" d="M320.86 243.22l1.16.68-.52.3-1.16-.69.52-.29zm4.02 2.36l1.16.68-.53.3-1.16-.68.53-.3z"/><path class="cls-1" d="M319.48 243.24l.72-.41.66.39-.52.29-.01.23-.85-.5zm6.86 3.81v.22l-.83-.48.73-.41.62.37-.52.3z"/><path class="cls-4" d="M329.78 246.66v.1l1.16.68.01-1.27.01-.17-.15.08-1.03.58zm-3.44.61l-.83-.48v-.23l-1.16-.68v.22l-.86-.5v-.23l-1.16-.68v.22l-.83-.48v-.23l-1.16-.69-.01.23-.85-.5v-.23l-1.16-.68v.22l-.01.18-.01 1.27v.22l1.16.69v-.23l.01-1.27 1.1.65.19.11 1.56.92-.01 1.27v.22l1.16.69v-.23l.01-1.27 1.1.64.19.12 1.56.92-.01 1.27v.22l1.16.69v-.23l.01-1.27v-.18l.01-.22-1.16-.68v.22zm7.93-3.15l-1.02.58-.01.09 1.17.69.01-1.27v-.17l-.15.08z"/><path class="cls-11" d="M323.48 245.77l-.01 1.27v.23l1.3-.74-.19-.12-1.1-.64zm-1.98-1.57v.23l.72-.42-.2-.11-.52.3zm2.51.87l-.52.3v.23l.72-.41-.2-.12zm-4.01-2.36l-.52.3v.23l.72-.41-.2-.12zm15.6.43l-8.1 4.59v1.9l8.1-4.59v-1.67l-1.17.66v1.44l-2.29 1.3v-1.44l1.12-.63 1-.58.15-.09 1.18-.67zm-4.64 3v1.27l-2.29 1.3v-1.44l1.12-.63 1-.58.21-.06zm-5.45.42v.23l.73-.41-.2-.12-.53.3zm-6.04-3.15l-.01 1.27v.23l1.3-.74-.19-.11-1.1-.65z"/><path class="cls-8" d="M319.57 234.63l7.28-4.13 8.27 4.87-7.29 4.12-8.26-4.86z"/><path class="cls-1" d="M318.27 253.26l1.16.69-2.29 1.3.01-1.27v-.08l1.12-.64zm2.33.02l.01-1.26v-.08l1.12-.64 1.16.69-2.29 1.29zm-9.79-2.08v.22l-.83-.49.72-.4.64.37-.53.3zm1.16.91l.72-.41.67.39-.52.3v.23l-.87-.51z"/><path class="cls-1" d="M312.5 251.58l-.53.3-1.16-.68.53-.3 1.16.68z"/><path class="cls-11" d="M312.5 251.58l-1.16-.68-.64-.37-.19-.12-1.16-.68-.66-.39-.2-.12-.5-.29v-.77l.06-7.02 8.26 4.86-.06 7.79-.9-.53-.63-.37-.19-.12-1.17-.68-.67-.39-.19-.12z"/><path class="cls-1" d="M307.99 248.93l.5.29-.53.3-1.16-.68 1.19-.68v.77zm7.36 4.33l.9.53 7.29-4.13v-.32l.54.31-8.1 4.59-1.16-.68.53-.3z"/><path class="cls-14" d="M323.54 249.66l-7.29 4.13.06-7.79 7.29-4.12-.06 7.46v.32z"/><path class="cls-1" d="M309.35 249.73l1.16.68-.53.3-1.16-.69.53-.29zm4.01 2.36l1.17.68-.53.3-1.16-.68.52-.3z"/><path class="cls-1" d="M307.96 249.75l.73-.41.66.39-.53.29v.23l-.86-.5zm6.86 3.81v.22l-.82-.48.72-.41.63.37-.53.3z"/><path class="cls-4" d="M318.27 253.17v.09l1.16.69.01-1.27v-.17l-.15.08-1.02.58zm-3.45.61l-.82-.48v-.23l-1.16-.68v.23l-.87-.51v-.23l-1.16-.68v.22l-.83-.49v-.22l-1.16-.69v.23l-.86-.5v-.23l-1.16-.68v.4l-.01 1.27v.22l1.16.69v-.23l.01-1.27 1.09.65.2.11 1.56.92-.01 1.27-.01.22 1.17.69v-.23l.01-1.27 1.09.64.2.12 1.56.92-.01 1.27-.01.22 1.16.68.01-.22.01-1.27v-.4l-1.16-.68v.22zm7.93-3.15l-1.02.58v.09l1.16.69.01-1.27v-.17l-.15.08z"/><path class="cls-11" d="M311.97 252.28l-.01 1.27v.23l1.3-.74-.2-.12-1.09-.64zm-1.99-1.57v.22l.72-.4-.19-.12-.53.3zm2.52.87l-.53.3v.23l.72-.41-.19-.12zm-4.01-2.36l-.53.3v.23l.73-.41-.2-.12zm15.59.43l-8.1 4.59v1.9l8.1-4.59v-1.67l-1.17.66V252l-2.29 1.3v-1.44l1.12-.63 1-.58.15-.09 1.18-.67zm-4.64 3v1.27l-2.29 1.3v-1.42l1.12-.63 1-.58.15-.09zm-5.44.42v.23l.72-.41-.19-.12-.53.3zm-6.04-3.15l-.01 1.27v.23l1.3-.74-.2-.11-1.09-.65z"/><path class="cls-4" d="M308.05 241.14l7.29-4.13 8.26 4.87-7.29 4.12-8.26-4.86z"/><path class="cls-1" d="M353.8 247.55l1.16.68-2.29 1.3.01-1.27v-.08l1.12-.63zm2.33.02l.01-1.27v-.08l1.12-.63 1.16.68-2.29 1.3zm-9.79-2.09v.23l-.83-.49.72-.41.64.37-.53.3zm1.16.91l.72-.41.67.39-.52.3v.23l-.87-.51z"/><path class="cls-1" d="M348.03 245.86l-.53.3-1.16-.68.53-.3 1.16.68z"/><path class="cls-7" d="M348.03 245.86l-1.16-.68-.64-.37-.19-.12-1.17-.68-.66-.39-.19-.12-.51-.29.01-.77.06-7.02 8.26 4.86-.06 7.79-.9-.53-.63-.37-.2-.11-1.16-.69-.67-.39-.19-.12z"/><path class="cls-1" d="M343.51 243.21l.51.29-.53.3-1.16-.68 1.19-.68-.01.77zm7.37 4.33l.9.53 7.28-4.13.01-.32.54.32-8.1 4.58-1.16-.68.53-.3z"/><path class="cls-3" d="M359.06 243.94l-7.28 4.13.06-7.79 7.29-4.12-.06 7.46-.01.32z"/><path class="cls-1" d="M344.87 244.01l1.17.68-.53.3-1.16-.68.52-.3zm4.02 2.36l1.16.69-.52.29-1.16-.68.52-.3z"/><path class="cls-1" d="M343.49 244.03l.72-.41.66.39-.52.3v.22l-.86-.5zm6.86 3.81v.22l-.82-.48.72-.41.63.37-.53.3z"/><path class="cls-4" d="M353.8 247.45v.1l1.16.68.01-1.27v-.17l-.15.08-1.02.58zm-3.45.61l-.82-.48v-.23l-1.16-.68v.23l-.87-.51v-.23l-1.16-.68v.23l-.83-.49v-.23l-1.16-.68v.22l-.86-.5v-.23l-1.16-.68v.4l-.02 1.27v.22l1.17.69v-.23l.01-1.27 1.09.65.19.11 1.56.92-.01 1.27v.23l1.16.68.01-.23.01-1.27 1.09.65.2.11 1.55.92-.01 1.27v.22l1.16.69.01-.23.01-1.27v-.4l-1.16-.68v.22zm7.93-3.15l-1.02.58v.1l1.16.68.01-1.27v-.17l-.15.08z"/><path class="cls-11" d="M347.5 246.56l-.01 1.27-.01.23 1.31-.74-.2-.11-1.09-.65zm-1.99-1.57v.23l.72-.41-.19-.12-.53.3zm2.52.87l-.53.3v.23l.72-.41-.19-.12zm-4.01-2.36l-.53.3v.23l.72-.41-.19-.12zm15.59.44l-8.1 4.59v1.9l8.1-4.59v-1.67l-1.17.66v1.44l-2.29 1.3v-1.44l1.12-.63 1-.58.15-.09 1.18-.67zM355 247v1.27l-2.29 1.3v-1.44l1.12-.63 1-.58.15-.09zm-5.47.35v.23l.72-.41-.2-.11-.52.29zm-6.04-3.15l-.01 1.27v.23l1.29-.74-.19-.11-1.09-.65z"/><path class="cls-8" d="M343.58 235.42l7.29-4.12 8.26 4.86-7.29 4.12-8.26-4.86z"/><path class="cls-1" d="M366.18 254.81l1.16.69-2.29 1.29.01-1.27v-.08l1.12-.63zm2.33.02l.01-1.27v-.08l1.12-.63 1.16.69-2.29 1.29zm-9.79-2.09v.23l-.83-.49.72-.41.64.38-.53.29zm1.16.91l.72-.41.67.4-.52.3v.22l-.87-.51z"/><path class="cls-1" d="M360.41 253.13l-.53.3-1.16-.69.53-.29 1.16.68z"/><path class="cls-11" d="M360.41 253.13l-1.16-.68-.64-.38-.19-.11-1.17-.69-.66-.39-.19-.11-.51-.3.01-.76.06-7.02 8.26 4.86-.06 7.79-.9-.53-.63-.37-.2-.12-1.16-.68-.67-.4-.19-.11z"/><path class="cls-1" d="M355.89 250.47l.51.3-.53.3-1.16-.69 1.19-.67-.01.76zm7.37 4.34l.9.53 7.28-4.13.01-.33.54.32-8.1 4.59-1.16-.69.53-.29z"/><path class="cls-14" d="M371.44 251.21l-7.28 4.13.06-7.79 7.29-4.13-.06 7.46-.01.33z"/><path class="cls-1" d="M357.25 251.27l1.17.69-.53.29-1.16-.68.52-.3zm4.02 2.37l1.16.68-.52.3-1.16-.68.52-.3z"/><path class="cls-1" d="M355.87 251.29l.72-.41.66.39-.52.3v.23l-.86-.51zm6.86 3.81v.23l-.82-.49.72-.4.63.37-.53.29z"/><path class="cls-4" d="M366.18 254.72v.09l1.16.69.01-1.27v-.18l-.15.09-1.02.58zm-3.45.61l-.82-.49v-.22l-1.16-.68v.22l-.87-.51v-.22l-1.16-.69v.23l-.83-.49v-.23l-1.16-.68v.23l-.86-.51v-.22l-1.16-.69v.23l-.01.18-.01 1.27v.22l1.16.68.01-.22.01-1.27 1.09.64.19.12 1.56.92-.01 1.26v.23l1.16.68.01-.22.01-1.27 1.09.64.2.12 1.56.91-.02 1.27v.23l1.16.68.01-.22.01-1.27v-.4l-1.16-.69v.23zm7.93-3.15l-1.02.58v.09l1.16.68.01-1.26v-.18l-.15.09z"/><path class="cls-11" d="M359.88 253.83l-.01 1.27-.01.22 1.31-.73-.2-.12-1.09-.64zm-1.99-1.58v.23l.72-.41-.19-.11-.53.29zm2.52.88l-.53.3v.22l.72-.41-.19-.11zm-4.01-2.36l-.53.3v.22l.72-.41-.19-.11zm15.6.43l-8.1 4.59v1.9l8.1-4.59v-1.67l-1.17.66v1.44l-2.29 1.3v-1.44l1.12-.63 1-.58.15-.09 1.18-.67zm-4.64 3v1.27l-2.29 1.3v-1.44l1.12-.63 1-.58.15-.09zm-5.45.42v.22l.72-.4-.2-.12-.52.3zm-6.04-3.15l-.01 1.27-.01.22 1.3-.73-.19-.12-1.09-.64z"/><path class="cls-4" d="M355.96 242.69l7.29-4.13 8.26 4.86-7.29 4.13-8.26-4.86z"/><path class="cls-1" d="M378.56 262.08l1.16.68-2.29 1.3.01-1.27v-.08l1.12-.63zm2.33.02l.01-1.27v-.08l1.12-.63 1.16.68-2.29 1.3zm-9.79-2.09v.23l-.83-.49.72-.41.64.37-.53.3zm1.16.91l.72-.41.67.39-.52.3v.23l-.87-.51z"/><path class="cls-1" d="M372.79 260.39l-.53.3-1.16-.68.53-.3 1.16.68z"/><path class="cls-5" d="M372.79 260.39l-1.16-.68-.64-.37-.19-.12-1.17-.68-.66-.39-.19-.11-.5-.3v-.76l.06-7.03 8.26 4.86-.06 7.79-.9-.53-.63-.37-.2-.11-1.16-.69-.67-.39-.19-.12z"/><path class="cls-1" d="M368.28 257.74l.5.3-.53.29-1.16-.68 1.19-.67v.76zm7.36 4.33l.9.53 7.28-4.13.01-.32.54.32-8.1 4.58-1.16-.68.53-.3z"/><path class="cls-9" d="M383.82 258.47l-7.28 4.13.06-7.79 7.29-4.12-.06 7.46-.01.32z"/><path class="cls-1" d="M369.63 258.54l1.17.68-.53.3-1.16-.68.52-.3zm4.02 2.36l1.16.69-.52.29-1.16-.68.52-.3z"/><path class="cls-1" d="M368.25 258.56l.72-.41.66.39-.52.3v.22l-.86-.5zm6.86 3.81v.22l-.82-.48.72-.41.63.37-.53.3z"/><path class="cls-4" d="M378.56 261.98v.1l1.16.68.01-1.27v-.17l-.15.08-1.02.58zm-3.45.61l-.82-.48v-.23l-1.16-.68v.23l-.87-.51v-.23l-1.16-.68v.23l-.83-.49v-.23l-1.16-.68v.22l-.86-.5v-.23l-1.16-.68v.4l-.02 1.27v.23l1.17.68V260l.01-1.27 1.09.65.2.11 1.56.92-.02 1.27v.22l1.16.69.01-.23.01-1.27 1.09.65.2.11 1.56.92-.02 1.27v.22l1.16.69.01-.23.01-1.27v-.4l-1.16-.68v.22zm7.93-3.15l-1.02.58v.1l1.16.68.01-1.27v-.17l-.15.08z"/><path class="cls-11" d="M372.26 261.09l-.01 1.27-.01.23 1.31-.74-.2-.11-1.09-.65zm-1.99-1.57v.23l.72-.41-.19-.12-.53.3zm2.52.87l-.53.3v.23l.72-.41-.19-.12zm-4.01-2.35l-.53.29v.23l.72-.41-.19-.11zm15.59.43l-8.1 4.59v1.9l8.1-4.59v-1.67l-1.17.66v1.44l-2.29 1.3v-1.44L382 260l1-.58.15-.09 1.18-.67zm-4.64 3v1.27l-2.29 1.3v-1.44l1.12-.63 1-.58.15-.09zm-5.44.41v.23l.72-.41-.2-.11-.52.29zm-6.04-3.15l-.01 1.27v.23l1.3-.74-.2-.11-1.09-.65z"/><path class="cls-19" d="M368.34 249.95l7.29-4.12 8.26 4.86-7.29 4.12-8.26-4.86z"/><path class="cls-1" d="M342.15 254.25l1.16.69-2.29 1.29.01-1.27v-.08l1.12-.63zm2.33.02l.01-1.27v-.08l1.12-.63 1.16.68-2.29 1.3zm-9.79-2.09v.23l-.83-.49.72-.41.64.38-.53.29zm1.16.91l.72-.41.67.4-.52.3v.22l-.87-.51z"/><path class="cls-1" d="M336.38 252.57l-.53.3-1.16-.69.53-.29 1.16.68z"/><path class="cls-5" d="M336.38 252.57l-1.16-.68-.64-.38-.19-.11-1.16-.69-.67-.39-.19-.11-.5-.3v-.76l.06-7.02 8.26 4.86-.06 7.79-.9-.53-.63-.37-.2-.12-1.16-.68-.67-.4-.19-.11z"/><path class="cls-1" d="M331.87 249.91l.5.3-.53.3-1.16-.69 1.19-.67v.76zm7.36 4.34l.9.53 7.29-4.13v-.33l.54.32-8.1 4.59-1.16-.69.53-.29z"/><path class="cls-9" d="M347.42 250.65l-7.29 4.13.06-7.79 7.29-4.13-.06 7.46v.33z"/><path class="cls-1" d="M333.23 250.71l1.16.69-.53.29-1.16-.68.53-.3zm4.01 2.37l1.16.68-.52.3-1.16-.68.52-.3z"/><path class="cls-1" d="M331.84 250.73l.72-.41.67.39-.53.3v.23l-.86-.51zm6.86 3.81v.23l-.82-.49.72-.4.63.37-.53.29z"/><path class="cls-4" d="M342.15 254.16v.09l1.16.69.01-1.27v-.18l-.15.09-1.02.58zm-3.45.61l-.82-.49v-.22l-1.16-.68v.22l-.87-.51v-.22l-1.16-.69v.23l-.83-.49v-.23l-1.16-.68v.23l-.86-.51v-.22l-1.16-.69v.41l-.01 1.27-.01.22 1.16.68.01-.22.01-1.27 1.09.64.2.12 1.56.92-.01 1.26-.01.23 1.16.68.01-.22.01-1.27 1.09.64.19.12 1.56.91v1.27l-.01.23 1.16.68.01-.22.01-1.27v-.4l-1.16-.69v.23zm7.93-3.15l-1.02.58v.09l1.16.68.01-1.26v-.18l-.15.09z"/><path class="cls-11" d="M335.85 253.27l-.01 1.27-.01.22 1.3-.73-.19-.12-1.09-.64zm-1.99-1.58v.23l.72-.41-.19-.11-.53.29zm2.52.88l-.53.3v.22l.72-.41-.19-.11zm-4.01-2.36l-.53.3v.22l.72-.41-.19-.11zm15.63.43l-8.1 4.59v1.9l8.1-4.59v-1.67l-1.17.66V253l-2.29 1.3v-1.44l1.12-.63 1-.58.15-.09 1.18-.67zm-4.64 3v1.27l-2.29 1.3v-1.44l1.12-.63 1-.58.15-.09zm-5.48.42v.22l.72-.4-.2-.12-.52.3zm-6.04-3.15l-.01 1.27-.01.22 1.31-.73-.2-.12-1.09-.64z"/><path class="cls-19" d="M331.93 242.13l7.29-4.13 8.26 4.86-7.29 4.13-8.26-4.86z"/><path class="cls-1" d="M354.53 261.52l1.16.68-2.29 1.3.01-1.27v-.08l1.12-.63zm2.33.02l.01-1.27v-.08l1.12-.63 1.16.68-2.29 1.3zm-9.79-2.09v.23l-.83-.49.72-.41.64.37-.53.3zm1.16.91l.72-.41.67.39-.52.3v.23l-.87-.51z"/><path class="cls-1" d="M348.76 259.83l-.53.3-1.16-.68.53-.3 1.16.68z"/><path class="cls-7" d="M348.76 259.83l-1.16-.68-.64-.37-.19-.12-1.16-.68-.67-.39-.19-.11-.5-.3v-.76l.06-7.03 8.26 4.86-.06 7.79-.9-.53-.63-.37-.19-.11-1.17-.69-.67-.39-.19-.12z"/><path class="cls-1" d="M344.25 257.18l.5.3-.53.29-1.16-.68 1.19-.67v.76zm7.36 4.33l.9.53 7.29-4.13v-.32l.54.32-8.1 4.58-1.16-.68.53-.3z"/><path class="cls-3" d="M359.8 257.91l-7.29 4.13.06-7.79 7.29-4.12-.06 7.46v.32z"/><path class="cls-1" d="M345.61 257.98l1.16.68-.53.3-1.16-.68.53-.3zm4.01 2.36l1.17.69-.53.29-1.16-.68.52-.3z"/><path class="cls-1" d="M344.22 258l.72-.41.67.39-.53.3v.22l-.86-.5zm6.86 3.81v.22l-.82-.48.72-.41.63.37-.53.3z"/><path class="cls-4" d="M354.53 261.42v.1l1.16.68.01-1.27v-.17l-.15.08-1.02.58zm-3.45.61l-.82-.48v-.23l-1.16-.68v.23l-.87-.51v-.23l-1.16-.68v.23l-.83-.49v-.23l-1.16-.68v.22l-.86-.5v-.23l-1.16-.68v.4l-.01 1.27-.01.23 1.17.68v-.23l.01-1.27 1.09.65.2.11 1.56.92-.01 1.27-.01.23 1.16.68.01-.23.01-1.27 1.09.65.2.11 1.56.92-.02 1.27v.22l1.17.69v-.23l.01-1.27v-.4l-1.16-.68v.22zm7.93-3.15l-1.02.58v.1l1.16.68.01-1.27v-.17l-.15.08z"/><path class="cls-11" d="M348.23 260.53l-.01 1.27-.01.23 1.31-.74-.2-.11-1.09-.65zm-1.99-1.57v.23l.72-.41-.19-.12-.53.3zm2.52.87l-.53.3v.23l.72-.41-.19-.12zm-4.01-2.35l-.53.29v.23l.72-.41-.19-.11zm15.59.43l-8.1 4.59v1.9l8.1-4.59v-1.67l-1.17.66v1.44l-2.29 1.3v-1.44l1.12-.63 1-.58.15-.09 1.18-.67zm-4.64 3v1.27l-2.29 1.3v-1.44l1.12-.63 1-.58.15-.09zm-5.44.41v.23l.72-.41-.19-.11-.53.29zm-6.04-3.15l-.01 1.27v.23l1.3-.74-.2-.11-1.09-.65z"/><path class="cls-8" d="M344.31 249.39l7.29-4.12 8.26 4.86-7.29 4.12-8.26-4.86z"/><path class="cls-1" d="M366.91 268.78l1.16.69-2.29 1.29.01-1.27v-.07l1.12-.64zm2.33.02l.01-1.27v-.08l1.12-.63 1.16.69-2.29 1.29zm-9.79-2.09v.23l-.83-.49.72-.41.64.38-.53.29zm1.16.91l.72-.41.67.4-.52.3v.22l-.87-.51z"/><path class="cls-1" d="M361.14 267.1l-.53.3-1.16-.69.53-.29 1.16.68z"/><path class="cls-1" d="M361.14 267.1l-1.16-.68-.64-.38-.19-.11-1.16-.69-.67-.38-.19-.12-.5-.3v-.76l.06-7.02 8.26 4.86-.06 7.79-.9-.53-.63-.37-.19-.12-1.17-.68-.67-.4-.19-.11z"/><path class="cls-1" d="M356.63 264.44l.5.3-.53.3-1.16-.68 1.19-.68v.76zm7.36 4.34l.9.53 7.29-4.13v-.33l.54.32-8.1 4.59-1.16-.69.53-.29z"/><path class="cls-4" d="M372.18 265.18l-7.29 4.13.06-7.79 7.29-4.13-.06 7.46v.33z"/><path class="cls-1" d="M357.99 265.24l1.16.69-.53.3-1.16-.69.53-.3zm4.01 2.37l1.17.68-.53.3-1.16-.68.52-.3z"/><path class="cls-1" d="M356.6 265.26l.72-.4.67.38-.53.3v.23l-.86-.51zm6.86 3.81v.23l-.82-.48.72-.41.63.37-.53.29z"/><path class="cls-4" d="M366.91 268.69v.09l1.16.69.01-1.27v-.18l-.15.09-1.02.58zm-3.45.61l-.82-.48v-.23l-1.16-.68v.22l-.87-.51v-.22l-1.16-.69v.23l-.83-.49v-.22l-1.16-.69v.23l-.86-.51v-.22l-1.16-.68v.4l-.01 1.26-.01.23 1.17.69v-.23l.01-1.27 1.09.64.2.12 1.56.92-.01 1.26-.01.23 1.17.68v-.22l.01-1.27 1.09.64.2.12 1.56.92-.02 1.26v.23l1.17.68v-.22l.01-1.27v-.4l-1.16-.69v.23zm7.93-3.15l-1.02.58v.09l1.16.69.01-1.27v-.18l-.15.09z"/><path class="cls-11" d="M360.61 267.8l-.01 1.27v.22l1.3-.73-.2-.12-1.09-.64zm-1.99-1.57v.22l.72-.41-.19-.11-.53.3zm2.52.87l-.53.3v.22l.72-.41-.19-.11zm-4.01-2.36l-.53.3v.22l.72-.4-.19-.12zm15.59.43l-8.1 4.59v1.9l8.1-4.59v-1.67l-1.17.66v1.44l-2.29 1.3v-1.44l1.12-.63 1-.58.15-.09 1.18-.67zm-4.64 3v1.27l-2.29 1.3v-1.44l1.12-.63 1-.58.15-.09zm-5.44.42v.23l.72-.41-.19-.12-.53.3zm-6.04-3.15l-.01 1.27v.23l1.3-.74-.2-.12-1.09-.64z"/><path class="cls-18" d="M356.69 256.66l7.29-4.13 8.26 4.86-7.29 4.13-8.26-4.86z"/><path class="cls-1" d="M417.33 272.85a9.37 9.37 0 01-3.41 1.51l4.28 5.15-11.27-3.12-105.62-29.22-12.21-3.38 3-1.74a7.67 7.67 0 01-1-.66l-.25.07a9 9 0 01-4 .17l-4.81 2.78-.16.09 145.24 40.19z"/><path class="cls-4" d="M427.16 284.69l-145.43 45.02.14-60.61v-1.04l.01-4.96.02-5.59.03-13 145.23 40.18z"/></g></g></svg>