<svg xmlns="http://www.w3.org/2000/svg" viewBox="0 0 236.33 213.77"><defs><style>.cls-1{fill:#f74169}.cls-2{fill:#bddff4}.cls-3{fill:#fe5773}.cls-4{fill:#ca4560}.cls-5{fill:#e2f1f7}.cls-6{fill:#90caf4}</style></defs><g id="Слой_2" data-name="Слой 2"><g id="Layer_1" data-name="Layer 1"><path class="cls-1" d="M190.2 128.27v-1.02l1.04.61v1.01l-1.04-.6z"/><path class="cls-2" d="M190.2 127.25v1.02l1.04.6 1.23-.71v68.49l-14.64 8.45v-1.57l5.12-2.95v-1.36l-1.04-.6-4.08 2.35v-64.36l1.17-.67v-1.02l-1.04-.6 12.24-7.07z"/><path class="cls-3" d="M177.83 200.97l4.08-2.35 1.04.6-5.12 2.96v-1.21z"/><path class="cls-1" d="M192.47 196.65v-68.49l1.04-.6v69.69l-1.04-.6z"/><path class="cls-4" d="M177.83 202.18l5.12-2.96v1.36l-5.12 2.95v-1.35zm0 0v4.12l-1.4.81v-69.69l1.4-.81v65.57z"/><path class="cls-1" d="M210.59 187.39l-1.05-.6V118.3l1.05-.6v69.69z"/><path class="cls-2" d="M209.54 118.3v68.49l-5.6 3.23v-70.7l3.33-1.93v1.02l1.04.6 1.23-.71z"/><path class="cls-1" d="M207.27 118.41v-1.02l1.04.61v1.01l-1.04-.6z"/><path class="cls-4" d="M211.99 186.58l-1.4.81V117.7l1.4-.81v69.69zm0-2.77v-1.35l5.11-2.96v1.36l-5.11 2.95z"/><path class="cls-3" d="M217.1 179.5l-5.11 2.96v-1.21l4.07-2.35 1.04.6z"/><path class="cls-2" d="M216.06 178.9l-4.07 2.35v-64.36l1.17-.67v-1.02l-1.05-.6 12.24-7.06v1.01l1.04.6 1.23-.7v68.48l-14.63 8.45v-1.57l5.11-2.95v-1.36l-1.04-.6z"/><path class="cls-1" d="M226.62 176.93v-68.48l1.04-.61v69.69l-1.04-.6zm-2.27-68.38v-1.01l1.04.6v1.01l-1.04-.6z"/><path class="cls-2" d="M196.08 125.06l-1.04-.6 6.08-3.51v70.71l-6.21 3.58v-1.57l5.12-2.95v-1.36l-1.05-.6-4.07 2.35v-64.36l1.17-.67v-1.02z"/><path class="cls-3" d="M194.91 191.11l4.07-2.35 1.05.6-5.12 2.96v-1.21z"/><path class="cls-4" d="M194.91 125.74l-1.4.81-2.27 1.31v1.01l1.23-.71 1.04-.6 1.4-.81 1.17-.67v-1.02l-1.17.68zm0 66.58l5.12-2.96v1.36l-5.12 2.95v-1.35z"/><path class="cls-4" d="M194.91 192.32v4.12l-1.4.81v-69.69l1.4-.81v65.57z"/><path class="cls-1" d="M176.43 207.11l-1.04-.6v-68.49l1.04-.6v69.69z"/><path class="cls-5" d="M201.12 120.95l-.24-.14-2.83-1.63-29.18 16.85 3.07 1.77 1.18-.69 1.04.61 2.27-1.32 1.4-.81 1.17-.67-1.04-.6 12.24-7.07 1.04.61 2.27-1.31 1.4-.81 1.17-.68-1.04-.6 6.08-3.51z"/><path class="cls-1" d="M173.12 137.11l1.04.61v1.01l-1.04-.6v-1.02z"/><path class="cls-2" d="M173.12 137.11v1.02l1.04.6 1.23-.71v68.49l-3.45 1.99v-70.7l1.18-.69z"/><path class="cls-4" d="M177.83 135.59l-1.4.81-2.27 1.32v1.01l1.23-.71 1.04-.6 1.4-.81 1.17-.67v-1.02l-1.17.67zm51.23 41.13l-1.4.81v-69.69l1.4-.81v69.69zm0-2.77v-1.35l5.12-2.96V171l-1.24.71-3.88 2.24z"/><path class="cls-3" d="M234.18 169.64l-5.12 2.96v-1.21l3.88-2.24.2-.11.51.3.53.3z"/><path class="cls-2" d="M232.94 169.15l-3.88 2.24v-64.36l1.17-.67v-1.02l-1.04-.6 3.75-2.17v66.58z"/><path class="cls-4" d="M234.18 171v-1.36l-.53-.3 2.68-1.55v3.31l-3.39 1.96v-1.35l1.24-.71z"/><path class="cls-1" d="M0 120v-3.31l5.34 3.09v3.3L0 120z"/><path class="cls-3" d="M5.34 119.78L0 116.69l5.34 3.08v.01z"/><path class="cls-4" d="M5.34 123.08v-3.3l.01 3.15.13.07-.14.08z"/><path class="cls-1" d="M5.35 122.93v-3.15l10.36 5.97 5.34 3.09 10.37 5.98 5.34 3.09 10.36 5.98 5.35 3.09 10.36 5.98 5.35 3.09 10.36 5.98 5.34 3.09 10.37 5.98 5.34 3.08 10.36 5.99 5.35 3.08 10.36 5.99 5.35 3.08 10.36 5.98 5.34 3.09 10.37 5.98 5.34 3.09-5.34-3.08v3.15l-10.23-5.9-.13-.08v-3.15l-5.35-3.09v3.15l-10.23-5.9-.13-.08v-3.15l-5.35-3.09v3.15l-10.23-5.9-.13-.08v-3.15l-5.35-3.09v3.15l-10.23-5.9-.13-.08v-3.15l-5.34-3.09v3.15l-10.23-5.9-.14-.08v-3.15l-5.34-3.09v3.16l-10.23-5.91-.13-.08v-3.15l-5.35-3.08v3.15l-10.23-5.91-.13-.08v-3.15l-5.35-3.08v3.15l-10.23-5.91-.13-.07v-3.16l-5.34-3.08v3.15l-10.23-5.91-.14-.07v-3.16l-5.34-3.08v3.15L5.48 123l-.13-.07z"/><path class="cls-1" d="M21.05 128.84V132l.14.07-.14.08v-3.31zm-5.34-3.08l5.34 3.08-5.34-3.08zm68.17 39.36v3.15l.14.08-.14.08v-3.31zm-21.05-12.15l5.35 3.08-5.35-3.08zm-26.07-15.06v3.16l.13.07-.13.08v-3.31z"/><path class="cls-1" d="M31.42 134.83l5.34 3.08-5.34-3.08zm36.76 21.22v3.15l.13.08-.13.08v-3.31zM47.12 143.9l5.35 3.08-5.35-3.08zm31.42 18.13l5.34 3.09-5.34-3.09zm-26.07-15.05v3.15l.13.08-.13.08v-3.31zm73.19 42.26l5.35 3.09-5.35-3.09zm-26.07-15.05v3.15l.13.08-.13.08v-3.31zm-5.34-3.09l5.34 3.09-5.34-3.09zm36.76 21.23v3.15l.13.08-.13.07v-3.3zm-21.06-12.16l5.35 3.09-5.35-3.09zm5.35 3.09v3.15l.13.08-.13.07v-3.3zm41.78 24.12l5.34 3.08-5.34-3.08zm-10.36-5.98v3.15l.13.08-.14.07v-3.3h.01zm-5.35-3.09l5.35 3.09-5.35-3.09zM21.05 132.15l-5.34-3.09v-3.3l5.34 3.08v3.31zm10.37 2.68l5.34 3.08v3.31l-5.34-3.09v-3.3zm52.46 30.29v3.31l-5.34-3.09v-3.31l5.34 3.09zm-15.7-5.76l-5.35-3.09v-3.3l5.35 3.08v3.31z"/><path class="cls-1" d="M52.47 150.29l-5.35-3.09v-3.3l5.35 3.08v3.31zm41.78 20.81l5.34 3.09v3.31l-5.34-3.09v-3.31zm36.76 24.53l-5.35-3.08v-3.31l5.35 3.09v3.3zm-15.71-9.07l-5.35-3.08v-3.31l5.35 3.09v3.3zm26.07 11.75l5.34 3.09v3.3l-5.34-3.08v-3.31zm21.05 15.46l-5.34-3.08v-3.31l5.34 3.09v3.3z"/><path class="cls-3" d="M236.33 167.79l-2.68 1.55 2.68-1.55z"/><path class="cls-4" d="M171.74 208.39l-9.32 5.38v-3.3 3.15l7.5-4.33v-1.95l1.82 1.05zm32.01-18.48l-2.63 1.52v-3.04l2.63 1.52zm8.24-74.03l-1.4.81-2.28 1.31v1.01l1.23-.71 1.05-.6 1.4-.81 1.17-.67v-1.02l-1.17.68z"/><path class="cls-5" d="M232.94 102.57l-3.06-1.76-29 16.74 3.06 1.77 3.33-1.93 1.04.61 2.28-1.31 1.4-.81 1.17-.68-1.05-.6 12.24-7.06 1.04.6 2.27-1.31 1.4-.81 1.17-.68-1.04-.6 3.75-2.17z"/><path class="cls-4" d="M229.06 106.02l-1.4.81-2.27 1.31v1.01l1.23-.7 1.04-.61 1.4-.81 1.17-.67v-1.02l-1.17.68z"/><path class="cls-1" d="M0 116.69V45.98l5.34 3.08v70.71l-5.33-3.08H0zm36.76 21.22l-5.34-3.09v-70.7l5.34 3.08v70.71zm-15.71-9.07l-5.34-3.09v-70.7l5.34 3.08v70.71z"/><path class="cls-4" d="M21.05 128.84V58.13l.13-.07 6.32 3.65v63.4l-6.45 3.73z"/><path class="cls-1" d="M27.5 125.11v-63.4l3.92 2.26v63.4l-3.92-2.26z"/><path class="cls-3" d="M21.05 128.84l6.45-3.73 3.92 2.26v7.45l-10.37-5.98z"/><path class="cls-4" d="M21.18 58.06l-.13.07v-3.3 3.15l.13.08zM5.34 119.77V49.06l.13-.07 6.33 3.65v63.41l-6.45 3.72h-.01z"/><path class="cls-1" d="M11.8 116.05V52.64l3.91 2.26v63.4l-3.91-2.25z"/><path class="cls-3" d="M11.8 116.05l3.91 2.25v7.45l-10.36-5.98 6.45-3.72z"/><path class="cls-4" d="M5.47 48.99l-.13.07v-3.3l.01 3.15.12.08zm31.29 88.92V67.2l.13-.07 6.32 3.65v63.4l-6.45 3.73z"/><path class="cls-1" d="M43.21 134.18v-63.4l3.91 2.26v63.4l-3.91-2.26z"/><path class="cls-3" d="M36.76 137.91l6.45-3.73 3.91 2.26v7.45l-10.36-5.98z"/><path class="cls-4" d="M36.89 67.13l-.13.07v-3.3 3.15l.13.08z"/><path class="cls-1" d="M52.47 146.98l-5.35-3.09v-70.7l5.35 3.08v70.71zm15.71 9.07l-5.35-3.09V82.25l5.35 3.09v70.71z"/><path class="cls-4" d="M68.18 156.05V85.34l.13-.07 6.32 3.65v63.4l-6.45 3.73z"/><path class="cls-1" d="M74.63 152.32v-63.4l3.91 2.25v63.41l-3.91-2.26z"/><path class="cls-3" d="M68.18 156.05l6.45-3.73 3.91 2.26v7.45l-10.36-5.98z"/><path class="cls-4" d="M68.31 85.27l-.13.07v-3.31 3.16l.13.08z"/><path class="cls-1" d="M83.88 165.12l-5.34-3.09V91.32l5.34 3.09v70.71z"/><path class="cls-4" d="M83.88 165.12V94.41l.13-.08 6.33 3.65v63.41l-6.46 3.73z"/><path class="cls-1" d="M90.34 161.39V97.98l3.91 2.26v63.41l-3.91-2.26z"/><path class="cls-3" d="M83.88 165.12l6.46-3.73 3.91 2.26v7.45l-10.37-5.98z"/><path class="cls-4" d="M84.01 94.33l-.13.08V91.1v3.16l.13.07zm-31.54 52.65V76.27l.13-.07 6.32 3.65v63.4l-6.45 3.73z"/><path class="cls-1" d="M58.92 143.25v-63.4l3.91 2.26v63.4l-3.91-2.26z"/><path class="cls-3" d="M52.47 146.98l6.45-3.73 3.91 2.26v7.45l-10.36-5.98z"/><path class="cls-4" d="M52.6 76.2l-.13.07v-3.31 3.16l.13.08z"/><path class="cls-1" d="M99.59 174.18l-5.34-3.08v-70.71l5.34 3.09v70.7zm31.42 18.14l-5.35-3.08v-70.71l5.35 3.08v70.71z"/><path class="cls-4" d="M131.01 192.32v-70.71l.12-.07 6.33 3.65v63.41l-6.45 3.72z"/><path class="cls-1" d="M137.46 188.6v-63.41l3.91 2.26v63.4l-3.91-2.25z"/><path class="cls-3" d="M131.01 192.32l6.45-3.72 3.91 2.25v7.45l-10.36-5.98z"/><path class="cls-4" d="M131.13 121.54l-.12.07v-3.3 3.16l.12.07zm-31.54 52.64v-70.7l.13-.08 6.32 3.65v63.41l-6.45 3.72z"/><path class="cls-1" d="M106.04 170.46v-63.41l3.91 2.26v63.41l-3.91-2.26z"/><path class="cls-3" d="M99.59 174.18l6.45-3.72 3.91 2.26v7.45l-10.36-5.99z"/><path class="cls-4" d="M99.72 103.4l-.13.08v-3.31 3.16l.13.07z"/><path class="cls-1" d="M115.3 183.25l-5.35-3.08v-70.71l5.35 3.09v70.7zm31.41 18.14l-5.34-3.08V127.6l5.34 3.08v70.71z"/><path class="cls-4" d="M115.3 183.25v-70.7l.13-.08 6.32 3.65v63.41l-6.45 3.72z"/><path class="cls-1" d="M121.75 179.53v-63.41l3.91 2.26v63.4l-3.91-2.25z"/><path class="cls-3" d="M115.3 183.25l6.45-3.72 3.91 2.25v7.46l-10.36-5.99z"/><path class="cls-4" d="M115.43 112.47l-.13.08v-3.31 3.16l.13.07z"/><path class="cls-1" d="M162.42 210.46l-5.34-3.09v-70.7l5.34 3.08v70.71z"/><path class="cls-4" d="M162.42 210.46v-70.71l6.45-3.72v70.7l-6.45 3.73z"/><path class="cls-6" d="M168.87 206.73v-70.7l3.07 1.77v70.7l-.2-.11-1.82-1.05-1.04-.6-.01-.01z"/><path class="cls-4" d="M146.71 201.39v-70.71l.13-.07 6.33 3.65v63.4l-6.45 3.73h-.01z"/><path class="cls-1" d="M153.17 197.66v-63.4l3.91 2.26v63.4l-3.91-2.26z"/><path class="cls-3" d="M146.72 201.39l6.45-3.73 3.91 2.26v7.45l-10.36-5.98z"/><path class="cls-4" d="M146.84 130.61l-.13.07v-3.3l.01 3.15.12.08z"/><path class="cls-1" d="M0 42.67v3.31l162.42 93.77v-3.3L0 42.67z"/><path class="cls-4" d="M229.88 100.81l6.45-3.73v70.71l-2.68 1.55-.51-.3-.2.11v-66.58l-3.06-1.76z"/><path class="cls-1" d="M36.76 63.9l-5.34-3.09 5.34 3.09zm-15.71-9.07l-5.34-3.09 5.34 3.09zm31.42 18.13l-5.35-3.08 5.35 3.08zm15.71 9.07l-5.35-3.08 5.35 3.08zm15.7 9.07l-5.34-3.08 5.34 3.08zm15.71 9.07l-5.34-3.09 5.34 3.09zm31.42 18.14l-5.35-3.09 5.35 3.09zm-15.71-9.07l-5.35-3.09 5.35 3.09zm31.41 18.14l-5.34-3.09 5.35 3.09h-.01zm15.71 9.07l-5.34-3.09 5.34 3.09z"/><path class="cls-2" d="M232.94 173.28l-3.88 2.24v-1.57l3.88-2.24v1.57z"/><path class="cls-6" d="M203.94 119.32v70.7l-.19-.11-2.63-1.52v-67.44l-.24-.14v-3.26l3.06 1.77z"/><path class="cls-4" d="M200.88 117.55v3.26l-2.83-1.63 2.83-1.63z"/><path class="cls-4" d="M236.32 93.78l-8.24 4.76-57.16 33-8.5 4.91v3.15-3.15 3.3l6.45-3.72 29.18-16.85 2.83-1.63 29-16.74 6.45-3.73-.01-3.3zm-66.4 115.51l-7.5 4.33v-3.16l6.46-3.72 1.04.6v1.95zm-1.04-2.55l-6.46 3.72 6.45-3.73.01.01z"/><path class="cls-3" d="M164.58 129.03l-7.5-4.33 56.16-32.43 7.5 4.33-56.16 32.43z"/><path class="cls-4" d="M213.24 92.27l-56.16 32.43-2.86-1.65 58.89-34.01v3.16l.13.07z"/><path class="cls-1" d="M213.11 92.2v-3.16l10.37 5.99-2.74 1.57-7.5-4.33-.13-.07z"/><path class="cls-4" d="M12.85 41.43L71.74 7.42v3.16l.13.07-56.16 32.43-2.86-1.65z"/><path class="cls-3" d="M15.71 43.08l56.16-32.43 7.5 4.33-56.16 32.43-7.5-4.33z"/><path class="cls-1" d="M71.74 10.58V7.42l10.37 5.99-2.74 1.57-7.5-4.33-.13-.07z"/><path class="cls-4" d="M28.55 50.5l58.9-34.01v3.16l.13.07-56.16 32.43-2.87-1.65z"/><path class="cls-3" d="M31.42 52.15l56.16-32.43 7.5 4.33-56.16 32.43-7.5-4.33z"/><path class="cls-1" d="M87.45 19.65v-3.16l10.36 5.99-2.73 1.57-7.5-4.33-.13-.07z"/><path class="cls-4" d="M44.26 59.56l58.9-34v3.16l.13.07-56.17 32.43-2.86-1.66z"/><path class="cls-3" d="M47.12 61.22l56.17-32.43 7.5 4.33-56.17 32.43-7.5-4.33z"/><path class="cls-1" d="M103.16 28.72v-3.16l10.36 5.98-2.73 1.58-7.5-4.33-.13-.07z"/><path class="cls-4" d="M59.97 68.63l58.9-34v3.16l.13.07-56.17 32.43-2.86-1.66z"/><path class="cls-3" d="M62.83 70.29L119 37.86l7.5 4.33-56.17 32.43-7.5-4.33z"/><path class="cls-1" d="M118.87 37.79v-3.16l10.36 5.98-2.73 1.58-7.5-4.33-.13-.07z"/><path class="cls-4" d="M75.68 77.7l58.89-34v3.16l.13.07-56.16 32.43-2.86-1.66z"/><path class="cls-3" d="M78.54 79.36l56.16-32.43 7.5 4.33-56.16 32.43-7.5-4.33z"/><path class="cls-1" d="M134.57 46.86V43.7l10.37 5.98-2.74 1.58-7.5-4.33-.13-.07z"/><path class="cls-4" d="M91.38 86.77l58.9-34v3.15l.13.08-56.16 32.42-2.87-1.65z"/><path class="cls-3" d="M94.25 88.42L150.41 56l7.5 4.33-56.16 32.42-7.5-4.33z"/><path class="cls-1" d="M150.28 55.92v-3.15l10.37 5.98-2.74 1.58-7.5-4.33-.13-.08z"/><path class="cls-4" d="M107.09 95.84l58.9-34v3.15l.13.08-56.17 32.42-2.86-1.65z"/><path class="cls-3" d="M109.95 97.49l56.17-32.42 7.5 4.33-56.17 32.42-7.5-4.33z"/><path class="cls-1" d="M165.99 64.99v-3.15l10.36 5.98-2.73 1.58-7.5-4.33-.13-.08z"/><path class="cls-4" d="M122.8 104.91l58.9-34.01v3.16l.13.08-56.17 32.42-2.86-1.65z"/><path class="cls-3" d="M125.66 106.56l56.17-32.42 7.5 4.33-56.17 32.42-7.5-4.33z"/><path class="cls-1" d="M181.7 74.06V70.9l10.36 5.99-2.73 1.58-7.5-4.33-.13-.08z"/><path class="cls-4" d="M138.51 113.98l58.9-34.01v3.16l.12.08-56.16 32.42-2.86-1.65z"/><path class="cls-3" d="M141.37 115.63l56.16-32.42 7.5 4.32-56.16 32.43-7.5-4.33z"/><path class="cls-1" d="M197.41 83.13v-3.16l10.36 5.99-2.74 1.57-7.5-4.32-.12-.08z"/><path class="cls-3" d="M231 90.69l-10.36-6-5.34-3.09-10.36-6-5.34-3.09-10.36-6-5.34-3.09-10.36-6-5.35-3.09-10.36-6-5.34-3.09-10.36-6-5.34-3.09-10.36-6-5.43-2.94-10.36-6-5.35-3.09L95 12.16l-5.39-3.09-10.36-6L73.91 0 0 42.67l5.34 3.09 10.36 6 5.34 3.09 10.36 6 5.34 3.09 10.36 6L52.47 73l10.36 6 5.35 3 10.36 6 5.34 3.09 10.36 6 5.34 3.09 10.36 6 5.34 3.09 10.36 6 5.34 3.09 10.36 6 5.34 3.09 10.36 6 5.35 3.09 7.5-4.33 58.9-34 7.5-4.33zM15.71 43.08l-2.86-1.65 58.9-34 10.36 6L79.37 15 23.21 47.41zm15.71 9.07l-2.87-1.65 58.9-34 10.36 6-2.73 1.58-56.16 32.4zm15.71 9.07l-2.86-1.65 58.9-34 10.36 6-2.73 1.58-56.18 32.4zm15.71 9.07L60 68.63l58.9-34 10.36 6-2.73 1.58-56.2 32.41zm15.71 9.07l-2.87-1.66 58.9-34 10.36 6-2.73 1.58L86 83.69zm15.71 9.07l-2.86-1.65 58.9-34 10.36 6-2.73 1.58-56.18 32.39zM110 97.49l-2.86-1.65 58.9-34 10.36 6-2.73 1.58-56.16 32.43zm15.71 9.07l-2.86-1.65 58.9-34 10.36 6-2.73 1.58-56.16 32.43zm15.71 9.07l-2.91-1.63 58.9-34 10.36 6-2.77 1.54L148.87 120zm79.37-19L164.58 129l-7.5-4.33-2.87-1.67 58.9-34 10.36 6z"/></g></g></svg>