<svg xmlns="http://www.w3.org/2000/svg" viewBox="0 0 191.33 161.64"><defs><style>.cls-1{fill:#5ea6d3}.cls-2{fill:#15298c}.cls-3{fill:#bddff4}.cls-4{fill:#90caf4}.cls-5{fill:#2030a5}.cls-6{fill:#3d71d9}.cls-7{fill:#3046b5}.cls-8{fill:#f74169}.cls-9{fill:#fe5773}.cls-10{fill:#2c65d6}.cls-11{fill:#ca4560}.cls-12{fill:#e2f1f7}</style></defs><g id="Слой_2" data-name="Слой 2"><g id="Layer_1" data-name="Layer 1"><path class="cls-1" d="M49.76 112.22l.35-.2c-.8-2.59-1-5.9.47-8.19.8-1.06.78-.9 6.33-4.12-6.32-2.43-11.09 3.74-7.15 12.51z"/><path class="cls-2" d="M75 104.81l-3.67 2.12c-2.41-5.15-8.22-10.79-12.73-8.38l-.8.45-6.49 3.75c5.17-2.76 12.95 5.08 14.28 13.38.46 3-.35 5.78-2.64 7.22 11.93-6.89 11.13-6.23 11.49-6.46 3.39-2.53 2.33-8.24.56-12.08z"/><path class="cls-3" d="M61.9 119.52c-1.67.45-3.48-.6-4.81-1.74-3.59-3.09-5.58-9.53-3.12-12 5.32-1.44 11.72 9.83 7.93 13.74zm-2.79-9.72c-1.67-1.35-2.3-.56-4 .4-2.17 1.24 1.05 7.16 3.45 6.14.11 0 1.83-1 1.95-1.16 1.33-1.29-.02-4.26-1.4-5.37z"/><path class="cls-2" d="M54 105.79c-3.3.89-3.21 7 .94 11.78 1.91 2.07 5 3.92 7 2-5.15 1.33-11.76-9.98-7.94-13.78z"/><path class="cls-1" d="M60.18 115.22l.14-.08zM57 109.17c-.18.08-1.63.93-1.82 1a1.73 1.73 0 011.66.12c2.24 1.24 3.45 5 1.86 6a13.55 13.55 0 001.94-1.19c1.57-1.82-1.42-6.72-3.64-5.93z"/><path class="cls-4" d="M57.11 110.51c1.93 1.16 3.21 4.93 1.48 5.83a1.89 1.89 0 01-1.9-.35c-3.3-2.51-3.01-7.54.42-5.48z"/><path class="cls-5" d="M51.62 102.39l.28-.12C57 100.49 63 107 65.1 113.63s-1 12.39-7.42 9.16a15.54 15.54 0 01-4.58-3.94c-3.91-5.01-6.41-13.85-1.48-16.46zm4.3 15.67c1.65 1.51 4.2 2.52 5.76 1l.06-.06c1.42-1.63 1.06-4.19.36-6.24-2-5.86-8.52-9.48-10-4.5-.71 2.37.5 6.74 3.82 9.81z"/><path class="cls-2" d="M18.16 81.45l-2.56 1.47c-1.67-3.58-5.72-7.51-8.86-5.83l-.54.31L1.69 80c3.6-1.92 9 3.53 9.93 9.31a4.83 4.83 0 01-1.85 5c8.3-4.79 7.76-4.33 8-4.49 2.37-1.73 1.63-5.7.39-8.37z"/><path class="cls-5" d="M1.9 79.72l.19-.08c3.55-1.24 7.75 3.31 9.19 7.9s-.67 8.62-5.16 6.37a10.84 10.84 0 01-3.19-2.74C.21 87.68-1.53 81.52 1.9 79.72zm3 10.9c1.15 1.05 2.92 1.75 4 .68 1-1.13.74-2.91.25-4.34-1.39-4.08-5.93-6.59-7-3.13-.4 1.61.44 4.68 2.74 6.79z"/><path class="cls-3" d="M9.09 91.73c-1.17.32-2.44-.42-3.38-1.22-2.52-2.17-3.92-6.69-2.19-8.42 3.73-1.03 8.23 6.91 5.57 9.64zm-2-6.82c-1.09-.91-1.58-.4-2.75.27-1.52.87.74 5 2.42 4.31.08 0 1.28-.73 1.37-.81.87-.91-.03-2.99-1-3.78z"/><path class="cls-2" d="M3.52 82.08c-2.32.62-2.25 4.94.66 8.27 1.34 1.46 3.52 2.75 4.91 1.37-3.59.97-8.24-6.97-5.57-9.64z"/><path class="cls-1" d="M7.86 88.69l.09-.05zm-2.25-4.23c-.13.06-1.15.65-1.28.73a1.21 1.21 0 011.17.08c1.57.87 2.42 3.5 1.31 4.2a9.78 9.78 0 001.37-.83c1.12-1.3-.98-4.74-2.57-4.18z"/><path class="cls-4" d="M5.72 85.4c1.35.82 2.26 3.46 1 4.1a1.33 1.33 0 01-1.33-.24c-2.28-1.78-2.08-5.32.33-3.86z"/><path class="cls-6" d="M117.33 134.07l2.53 1.46-5.5 3.18-3.16-1.83 1.32-.76.67.34 4.14-2.39z"/><path class="cls-7" d="M119.86 135.53l-2.53-1.46.19-.11-.05-1.19 4.68-2.72.81.47v3.23z"/><path class="cls-8" d="M122.95 130.52l-.81-.47.82-.47 3.61 2.08-.82.47-2.8-1.61z"/><path class="cls-5" d="M122.95 133.75v-3.23l2.8 1.61-2.8 1.62z"/><path class="cls-9" d="M126.57 131.66l-3.61-2.08 6.26-3.61.44.25 3.16 1.83-6.25 3.61z"/><path class="cls-5" d="M129.22 125.97l-6.26 3.61-.82.47-4.7 2.72-4.32 2.49-1.06.61-1.3.75-6.25 3.61v-1.21l43.16-24.92v1.21l-6.25 3.61-.82.48-.85.49-4.32 2.49-1.06.62-5.15 2.97z"/><path class="cls-10" d="M141.42 118.92l6.25-3.61 3.61 2.08-6.25 3.61-3.61-2.08zm-36.91 21.31l6.25-3.61.44.26 3.16 1.83-5.2 3v1.21l-4.65-2.69z"/><path class="cls-7" d="M144.53 142.05v.93l-.81-.47.81-.46z"/><path class="cls-7" d="M143.72 142.51l.81.47v6.79l-6.25-3.61v-.5l5.44-3.15z"/><path class="cls-10" d="M138.3 146.16l6.25 3.61-12.21 7.05v-7.22l5.96-3.44zm12.5 0v-7.21l5.95-3.44 6.25 3.61-12.2 7.04z"/><path class="cls-7" d="M162.99 139.12l-6.25-3.61V135l5.44-3.14.81.46v6.8z"/><path class="cls-10" d="M98.26 135.41v1.21l-4.47-2.58 6.25-3.6 3.42 1.97-5.2 3z"/><path class="cls-5" d="M100.04 130.44l-6.25 3.6v-1.21l43.16-24.92v1.21l-6.25 3.61-.82.47-1.45.84-4.32 2.49-1.06.62-4.56 2.63-6.25 3.61-.82.47-5.29 3.06-4.32 2.49-1.07.62-.7.41z"/><path class="cls-9" d="M112.24 123.39l6.25-3.61 3.43 1.97-6.26 3.61-3.42-1.97z"/><path class="cls-10" d="M130.7 112.73l6.25-3.61 3.42 1.98-6.25 3.61-3.42-1.98z"/><path class="cls-8" d="M112.24 123.39l3.42 1.97-.82.48-3.42-1.98.82-.47z"/><path class="cls-10" d="M141.42 110.43l6.25 3.61-43.16 24.92-6.25-3.61 5.2-3.01.9-.51 1.06-.62 4.32-2.49 5.1-2.95.82-.47 6.26-3.61 4.74-2.74 1.06-.62 4.33-2.49 1.25-.73.82-.47 6.25-3.61 1.05-.6z"/><path class="cls-5" d="M82.93 127.77v-1.21l43.16-24.92v1.21l-6.25 3.61-.82.48-2.05 1.18-4.05 2.33-5.29 3.06-6.25 3.61-.82.47-1.13.66-4.76 2.75-4.32 2.49-.43.24-.64.37-.1.07-6.25 3.6z"/><path class="cls-9" d="M101.38 117.12l6.25-3.61 1.17.68 2.39 1.37-6.25 3.61-3.56-2.05z"/><path class="cls-10" d="M119.84 106.46l6.25-3.61 3.56 2.06-6.25 3.61-3.56-2.06zm-36.91 21.31l6.25-3.6.44.25 3.12 1.8-5.21 3v1.22l-4.6-2.67z"/><path class="cls-8" d="M101.38 117.12l3.56 2.05-.82.48-2.75-1.59-.81-.47.82-.47z"/><path class="cls-10" d="M119.84 97.97l6.25 3.61-43.16 24.92-6.25-3.61 6.19-3.58 2.35-1.35 4.32-2.5 5.5-3.18 1.42-.82 4.32-2.49 5.33-3.07 2.02-1.17.09.06 4.33-2.5-.01-.11 7.3-4.21z"/><path class="cls-8" d="M108.22 104.86l-.09-.06-2.02 1.16-.98-.5-.11-2.55-.82-18.49-.09-2.01-.21-4.77-1.16-26.35 3.04-1.63 2.44 55.2z"/><path class="cls-10" d="M163 122.95l6.25 3.61-43.16 24.92-6.25-3.61 5.2-3 11.39-6.57.82-.48 6.25-3.61 11.38-6.57.82-.47 6.25-3.61 1.05-.61z"/><path class="cls-10" d="M119.84 147.87v1.22l-4.43-2.56 6.25-3.61 3.38 1.95-5.2 3z"/><path class="cls-5" d="M121.66 142.92l-6.25 3.61v-1.21l43.17-24.92v1.21l-6.25 3.61-.83.47-11.38 6.57-6.25 3.61-.82.48-11.39 6.57z"/><path class="cls-9" d="M133.87 135.87l6.25-3.61 3.38 1.95-6.25 3.61-3.38-1.95z"/><path class="cls-10" d="M152.33 125.22l6.25-3.61 3.37 1.95-6.25 3.61-3.37-1.95z"/><path class="cls-8" d="M133.87 135.87l3.38 1.95-.82.48-3.38-1.95.82-.48z"/><path class="cls-10" d="M130.7 104.24l6.25 3.61-43.16 24.92-6.26-3.61 5.21-3.01.3-.17 1.06-.61 4.32-2.5 2.95-1.7 2.75-1.59.82-.47 6.25-3.61 4.16-2.4 1.06-.61 4.32-2.5 1.85-1.06.82-.48 6.25-3.61 1.05-.6zm21.63 12.48l6.25 3.61-43.17 24.92-6.25-3.61 5.2-3 5.5-3.17 3.09-1.79 2.8-1.61.82-.48 6.25-3.61 5.5-3.17 3.09-1.78 2.8-1.62.82-.47 6.25-3.61 1.05-.61z"/><path class="cls-7" d="M162.99 132.32l-.81-.46.81-.47v.93zm-43.15 15.55v1.21l-4.43-2.56v-1.21l-6.25-3.61v1.21l-4.65-2.69V139l-6.25-3.61v1.21l-4.47-2.6v-1.21l-6.25-3.61v1.21l-4.61-2.66v-1.21L76.68 123v10.19l6.25 3.61v-8l5.89 3.4 1.05.61 8.4 4.85v8l6.25 3.61v-8l5.89 3.4 1 .61 8.4 4.85v8l6.25 3.61v-10.2z"/><path class="cls-5" d="M104.49 141.17v8.01l6.94-4-1.05-.61-5.89-3.4zm21.6 10.31v10.15l43.16-24.92v-8.94l-6.25 3.62v7.73l-12.21 7v-7.73l6-3.44 5.44-3.14.81-.47 6.25-3.61v-1.22zm18.44-8.5v6.8l-12.2 7v-7.73l6-3.44 5.45-3.14.81-.47zm-61.62-14.27v8.01l6.94-4-1.05-.61-5.89-3.4z"/><path class="cls-6" d="M100.56 117.59l.81.47v3.18l-2.95 1.7-3.04-1.58 4.09-2.19-.04-.92 1.13-.66z"/><path class="cls-11" d="M99.43 118.25l.04.92-4.09 2.19-.71-.36 4.76-2.75z"/><path class="cls-5" d="M101.37 121.24v-3.18l2.75 1.59-2.75 1.59z"/><path class="cls-7" d="M154.88 127.64l-3.38-1.95.83-.47 3.37 1.95-.82.47zm-35.04-21.18l3.56 2.06-.82.47-2.76-1.59-.8-.46.82-.48z"/><path class="cls-7" d="M119.02 106.94l.8.46v2.19l-2.56-1.33-.29-.14 2.05-1.18z"/><path class="cls-5" d="M119.82 109.59v-2.19l2.76 1.59-1.85 1.07-.91-.47z"/><path class="cls-7" d="M130.7 112.73l3.42 1.98-.82.47-3.42-1.98.82-.47zm10.72 6.19l3.61 2.08-.82.48-2.8-1.62-.81-.46.82-.48z"/><path class="cls-7" d="M140.6 119.4l.81.46v3.23l-3.09 1.79-1.84-1.07 4.07-2.35-.05-1.19-.75-.38.85-.49z"/><path class="cls-6" d="M136.48 123.81l1.84 1.07-5.5 3.17-3.16-1.83 5.17-2.99 1.4.73.25-.15z"/><path class="cls-5" d="M141.41 123.09v-3.23l2.8 1.62-2.8 1.61z"/><path class="cls-9" d="M105.13 105.46l.98.5-5.33 3.07-.04-1.03 4.39-2.54z"/><path class="cls-8" d="M104.36 131.89l-3.62-1.86 1.07-.62 3.61 1.87-1.06.61z"/><path class="cls-11" d="M140.5 120.27l.05 1.19-4.07 2.35-.25.15-.06-1.19 4.33-2.5z"/><path class="cls-8" d="M136.17 122.77l.06 1.19-1.4-.73-.46-.23 1.06-.62.74.39zm-9.51-3.76l-3.61-1.86 1.06-.62 3.61 1.87-1.06.61z"/><path class="cls-11" d="M117.46 132.78l.06 1.18-.19.11-4.14 2.39-.05-1.19 4.32-2.49z"/><path class="cls-8" d="M113.14 135.27l.05 1.19-.67-.34-.46-.25 1.06-.61.02.01z"/><path class="cls-9" d="M105.42 131.28l-3.61-1.87 4.32-2.49 3.61 1.86-4.32 2.5zm22.3-12.88l-3.61-1.87 4.32-2.49 3.62 1.87-4.33 2.49zm8.45 4.37l-.74-.39 4.32-2.49.75.38-4.33 2.5z"/><path class="cls-8" d="M82.64 59.68l2.58 58.34-2.35 1.36-.15-3.59-.82-18.5-1.07-24.12-.15-3.45-.5-11.31 2.46 1.27z"/><path class="cls-9" d="M106.81 43.03l-4.33 2.5-.19.11-6.55 3.78-.54.31-3.73 2.16-.05.03-6.92 3.99-4.32 2.5 2.46 1.27 4.32-2.5 18.68-10.02.99-.53 3.37-1.95-3.19-1.65z"/><path class="cls-11" d="M116.97 108.12l.29.14-4.32 2.5-.02-.31 4.05-2.33z"/><path class="cls-9" d="M112.94 110.76l4.32-2.5 2.56 1.33.91.47-4.32 2.49-3.47-1.79z"/><path class="cls-8" d="M112.94 110.76l3.47 1.79-1.06.62-2.36-1.22-.05-1.19z"/><path class="cls-11" d="M112.94 110.76l.05 1.19-4.19 2.24-1.17-.68 5.29-3.06.02.31z"/><path class="cls-6" d="M108.8 114.19l4.19-2.24 2.36 1.22-4.16 2.39-2.39-1.37z"/><path class="cls-4" d="M72.83 116.07l.1-.34.09-.36.07-.37.05-.38.04-.39.03-.41.01-.41-.01-.42-.03-.43-.04-.44-.05-.45-.07-.45-.09-.45-.1-.46-.11-.46-.14-.47-.14-.47-.16-.46-.18-.47-.18-.46-.2-.46-.15-.31 5.71-3.3v15.47l-4.53-2.61.08-.24z"/><path class="cls-3" d="M111.49 78.45l1.52.88-1.52-.85z"/><path class="cls-12" d="M69.71 51.02l7.82 5.29-7.17 4.14-.09-.03-.28-.08-.3-.07-.3-.06-.31-.06-.33-.05-.33-.04-.35-.03-.36-.02-.36-.02-.37-.01h-.37l-.39.01-.39.01-.4.03-.4.03-.34.03-.88-5.67 5.9-3.4z"/><path class="cls-1" d="M77.53 56.31l-2.69 10L70 69.15l-.13-.65c3.38-1.8 3.24-3.5 3.24-3.5a14.43 14.43 0 01-.48-2.48c-.14-1.14-1.19-1.72-2.28-2.07z"/><path class="cls-3" d="M74.84 66.35l5.84 3.37.15 3.45-8.95 5.16L70 69.15l4.84-2.8z"/><path class="cls-12" d="M71.88 78.33l8.95-5.16 1.07 24.12-5.48 3.17-6.02-3.48-2.09-13.45 4.15-2.4-.58-2.8z"/><path class="cls-2" d="M72.46 81.13l-4.14 2.39-2.1-13.59a18.59 18.59 0 003.66-1.44l2 9.84z"/><path class="cls-3" d="M14.42 72.84l-7.51-4.33L14 64.42v-5.06l15.17-8.76.15 12.44-12.31 7.11-2.59 2.69z"/><path class="cls-1" d="M14 64.42l-7.09 4.09V30.47L14 34.56v29.86z"/><path class="cls-3" d="M47.91 101.24l-16.75-9.67 24.43-14.1 1.46 9.43-9.14 5.28v9.06z"/><path class="cls-12" d="M47.91 92.18l9.14-5.28 1.8 11.59-10.94-6.31z"/><path class="cls-1" d="M31.16 91.57l2.69-10.04 12.77-7.37 7.77-4.49 1.2 7.8-24.43 14.1z"/><path class="cls-5" d="M54.39 69.67l-7.77 4.49.39-5.02 6.69-3.87.69 4.4z"/><path class="cls-12" d="M33.85 81.53L17.01 70.15l12.31-7.11.46-.26 4.11 2.77 12.73 8.61-12.77 7.37z"/><path class="cls-10" d="M33.89 65.55l-4.11-2.77.38-5.03 3.66 2.47.07 5.33z"/><path class="cls-10" d="M46.62 74.16l-12.73-8.61-.07-5.33 13.19 8.92-.39 5.02z"/><path class="cls-1" d="M69.33 108.04v-3.49l7.09-4.09 5.48-3.17.82 18.5-5.44 3.13v-15.47l-5.71 3.3-2.24 1.29zm35.69-5.13l-4.39 2.54-.82-18.5 4.39-2.53.82 18.49zM113 82.82l-1.3.75-.15-3.4 1.42-.82.03 3.47z"/><path class="cls-12" d="M112.99 79.34l-1.42.83-.08-1.69 1.5.86zm-8.79 5.08l-4.39 2.53-.32-7.22.39.23 4.23 2.45.09 2.01z"/><path class="cls-4" d="M99.88 79.96l-.39-.23-.14-3.2.53 3.43z"/><path class="cls-12" d="M76.42 100.46l-7.09 4.09-6.02-3.48 7.09-4.09 6.02 3.48z"/><path class="cls-1" d="M70.4 97l-7.09 4.09-6.92-44.75 7.09-4.09.34 2.18.88 5.67.14.89.89 5.73 2.6 16.82z"/><path class="cls-12" d="M104.11 82.41l-4.23-2.45 4.02-2.32.21 4.77z"/><path class="cls-1" d="M103.9 77.64l-4.02 2.32-.53-3.43-1.02-22.89 4.41-2.35 1.16 26.35z"/><path class="cls-3" d="M99.76 31.03l.28.1-7.08 4.09-.29-.1 7.09-4.09z"/><path class="cls-1" d="M99.76 31.03l-7.09 4.09v2.64l-3.11 1.8-19.85 11.46-5.9 3.4-.33-2.18-.29-.09-7.09 4.09v-.11l43.66-25.2v.1z"/><path class="cls-3" d="M56.1 56.24l7.09-4.09.29.09-7.09 4.1-.29-.1z"/><path class="cls-4" d="M92.67 37.76v-2.64l.29.1 2.24 14.51-3.73 2.16-1.91-12.33 3.11-1.8z"/><path class="cls-1" d="M92.96 35.22l7.08-4.09 2.25 14.51-6.55 3.78-.54.31-2.24-14.51z"/><path class="cls-4" d="M63.31 101.07l-6.92-44.73-.28-.1v-.1L2.53 25.2v52.38c3.1-3 10.4 1.7 12.35 9.74a9.57 9.57 0 010 4.77l34.86 20.13a20.85 20.85 0 01-.73-2.55c-2.33-11.63 6.8-14 14.28-5.1l6 3.48v-3.49zm-15.4-8.89v9.06l-16.75-9.67 2.69-10L17 70.15l-2.59 2.7-7.5-4.34v-38L14 34.57l15.43 8.91 4.5 2.6L46 53l.37.21 6.06 3.5.14.93 1.18 7.61.68 4.41 1.21 7.79 1.46 9.43 1.79 11.6z"/><path class="cls-7" d="M72.52 62a2.19 2.19 0 01.1.33 1.88 1.88 0 010 .34 2.57 2.57 0 010 .36c-.63 2.29-4.44 3.88-6.74 4.54l-.14-.88c7-2.28 6.16-6.3-.89-5.73l-.14-.89c7.04-.75 7.81 1.93 7.81 1.93z"/><path class="cls-2" d="M66 66.62l-.27.09-.9-5.71a16.44 16.44 0 012 0c5.64.19 4.83 3.78-.83 5.62z"/><path class="cls-2" d="M72.64 62.7c-.19 2.43-4.42 4.22-6.79 4.89l.36 2.34c2.38-.68 6.7-2.45 6.9-4.93z"/><path class="cls-12" d="M99.76 30.93L56.1 56.13 2.53 25.2 46.19 0l53.57 30.93z"/><path class="cls-10" d="M30.16 57.75l-.38 5.03-.46.26-.15-12.44-.09-6.93 4.57 2.56.17 13.99-3.66-2.47z"/><path class="cls-5" d="M33.82 60.22l-.17-13.99.27-.16 12.03 6.94.01.2-12.14 7.01z"/><path class="cls-7" d="M33.82 60.22l12.14-7.01.17.12 6.4 4.33 1.17 7.61-6.69 3.87-13.19-8.92zm-.17-13.99l-4.57-2.56.35-.2 4.49 2.6-.27.16z"/><path class="cls-3" d="M45.96 53.21l-.01-.2.37.21-.19.11-.17-.12z"/><path class="cls-12" d="M46.13 53.33l.19-.11 6.06 3.5.15.94-6.4-4.33z"/><path class="cls-6" d="M92.74 126.22l-3.12-1.8.13-.08.2.11 3.09 1.59-.3.18z"/><path class="cls-8" d="M93.04 126.04l-3.09-1.59-.03-.72.43-.24 3.75 1.94-1.06.61z"/><path class="cls-9" d="M94.1 125.43l-3.75-1.94 4.32-2.49.71.36 3.04 1.58-4.32 2.49z"/><path class="cls-8" d="M89.92 123.73l.03.72-.2-.11-.47-.24.64-.37z"/><path class="cls-9" d="M89.54 115.53l-.04-1.04 4.57-2.64.97.5-5.5 3.18z"/><path class="cls-8" d="M95.04 112.35l-.97-.5-.11-2.55-.82-18.5-1.04-23.55-.44-10.03L94 55.96l2.46 55.57-1.42.82z"/><path class="cls-11" d="M112.54 102.25l-.83-18.68-.15-3.4-.07-1.69-1.49-33.8-3.37 1.95-1 .55-18.63 10-4.32 2.5L85.22 118l4.32-2.5v-1l-.11-2.55-.82-18.5-1.11-24.13-.43-9.65 4.58-2.45L94 56l2.46 55.57 4.32-2.5v-1l-.11-2.55L99.81 87l-.32-7.22-.14-3.2-1-22.89 4.4-2.35 3-1.63 2.44 55.19 4.32-2.5z"/><path class="cls-1" d="M93.96 109.3l-4.58 2.64-.82-18.5 4.58-2.64.82 18.5z"/><path class="cls-12" d="M93.14 90.8l-4.58 2.64-1.06-24.12 4.09-2.36.51.29 1.04 23.55z"/><path class="cls-7" d="M119.13 142.78l-7.65-4.42-4.19-2.41-1.28-.75-7.65-4.41-4.35-2.51-1.29-.75-3.31-1.91V74.6l54.4 31.41v51.02l-5.93-3.43-4.13-2.38-1.29-.74-7.64-4.42-4.41-2.54-1.28-.74z"/><path class="cls-5" d="M191.33 129.59l-47.52 27.44v-51.02l47.52-27.44v51.02z"/><path class="cls-10" d="M89.41 74.6l47.52-27.44 54.4 31.41-47.52 27.44-54.4-31.41z"/><path class="cls-3" d="M121.43 76.82l-5.24-3.03-2.87-1.65-.88-.51-5.24-3.03-2.98-1.72-.88-.51-2.28-1.31V30.09l37.3 21.53v34.97l-4.07-2.35-2.83-1.63-.88-.51-5.25-3.03-3.02-1.74-.88-.51z"/><path class="cls-4" d="M170.93 67.78l-32.57 18.81V51.62l32.57-18.81v34.97z"/><path class="cls-12" d="M101.06 30.09l32.58-18.81 37.29 21.53-32.57 18.81-37.3-21.53z"/></g></g></svg>