<svg xmlns="http://www.w3.org/2000/svg" viewBox="0 0 389.81 285.86"><defs><style>.cls-1{fill:#2030a5}.cls-2{fill:#15298c}.cls-3{fill:#ef9baa}.cls-4{fill:#fe5773}.cls-5{fill:#3046b5}.cls-6{fill:#90caf4}.cls-7{fill:#e2f1f7}.cls-8{fill:#bddff4}.cls-9{fill:#5ea6d3}.cls-10{fill:#2c65d6}.cls-13{fill:#3685fc}</style></defs><g id="Слой_2" data-name="Слой 2"><g id="Layer_1" data-name="Layer 1"><path class="cls-1" d="M128.07 189.43c-4.64-3.53-7.89-9.83-8.14-14.59-.34-6.47 3.5-8.89 7.8-7.15 5 2 9 7.83 10.34 12.57 2.79 10.05-3.36 14.22-10 9.17zm.23-17.54c.35.14-1.92-.91-3.41.17a4.54 4.54 0 00-1.6 4.09c.43 8.32 9.71 14.46 11.71 8.89 1.46-4.04-1.81-11.18-6.7-13.15z"/><path class="cls-2" d="M136.81 159.87c3.89-.73 7.63 2.34 10.14 5.38a23 23 0 012.23 3.38c3 5.68 2.84 9.9 1.72 12.52a5 5 0 01-2.06 2.34L136 190.93c2.27-1.4 2.83-3.91 2.78-6.56-.5-9.77-10-19.73-16.08-16.58 14.2-8.21 13.05-7.64 14.11-7.92z"/><path class="cls-2" d="M125.79 171.68c-1.59 1.81-1.21 4.68-.44 7 2.11 5.68 6.49 8.23 8.89 7.61-1.1 6-7.42 1-10.4-7.14-1.47-4.78.34-7.25 1.95-7.47z"/><path class="cls-3" d="M129.21 175.17c2.73-.51 5.8 5.07 3.38 6.64l-1.86 1.08c2.41-1.5-1.16-7.84-3.73-6.51 1.92-1.11 1.76-1.18 2.21-1.21z"/><path class="cls-4" d="M130.75 178.57c-1.55-2.78-4.51-3.54-4.54-.49 0 4 5.67 7.8 5.29 2.81a6 6 0 00-.75-2.32z"/><path class="cls-5" d="M134.33 186.27h-.15c-5.68 1.07-12.18-10.35-8.37-14.61 5.25-1.71 12.53 10.12 8.52 14.61zm-2.59-10a4.18 4.18 0 00-1.36-1c-1.18-.48-1.51 0-3.38 1.06-2 1.3.33 6.65 3.07 6.68.5 0 .39 0 2.52-1.25 1.41-.76.84-3.71-.85-5.45z"/><path class="cls-1" d="M273.92 260.81c.94 7.61-3.69 11.11-10.11 6.91l-.41-.29c-8.27-6.24-11.25-19.71-4.52-22.05 0 0 .46-.12.68-.16 7.1-1.1 13.58 9.23 14.36 15.59zm-4.06-3.94c.58 1.55-1.55-5.62-6.8-7.18l-.25-.06c-5.1-.94-5.38 6.12-1.87 11.11 5.31 7.56 12.13 4.75 8.92-3.87z"/><path class="cls-2" d="M271.43 238.05c3.94-1.37 8.14 1.9 10.79 5.14a23 23 0 013.24 5.47c1.76 4.36 2.6 10.35-1.29 12.8l-12.87 7.43c7.29-4.59-1-23.05-10.66-23.74a4.89 4.89 0 00-2.68.62c14.28-8.24 12.89-7.46 13.47-7.72z"/><path class="cls-5" d="M269.54 264.23c-3.06 1.17-7.69-3.28-9.1-8.26-.57-2-.83-4.74.67-6.34 3.51-1 9 4.07 9.51 10.25-.05-.66.77 2.74-1.08 4.35zm-1-5.22c.67-2.33-2.11-6.41-4.29-5.77l-1.94 1.12c-2.18 1.46 1.12 7.65 3.67 6.54 2.22-1.19 2.32-1.35 2.54-1.9z"/><path class="cls-2" d="M259 251.44a3 3 0 012.07-1.81c-3.82 3.79 2.77 16.16 8.43 14.6-4.16 4.2-13.06-6.56-10.5-12.79z"/><path class="cls-3" d="M265.45 253.2c2.22.77 4 4.42 2.88 6.18-.75.74-.3.32-2.28 1.47 2.39-1.5-1.16-7.86-3.75-6.5 2-1.15 2.17-1.44 3.15-1.15z"/><path class="cls-4" d="M261.92 254.67c-1.45 1.74 1.24 6.81 3.76 6.32 3.38-.66-1.23-9.34-3.76-6.32z"/><path class="cls-1" d="M299.43 277.15c.94 7.61-3.69 11.11-10.11 6.91l-.41-.29c-9-6.81-11.06-21.1-3.84-22.21s13.58 9.23 14.36 15.59zm-4.06-3.94c.58 1.55-1.55-5.62-6.8-7.18l-.25-.06c-5.1-.94-5.37 6.11-1.87 11.11 5.31 7.56 12.13 4.75 8.92-3.87z"/><path class="cls-2" d="M296.94 254.39c3.94-1.37 8.14 1.9 10.79 5.14A23 23 0 01311 265c1.76 4.36 2.6 10.35-1.29 12.8l-12.87 7.43c7.29-4.59-1-23.05-10.66-23.74a4.88 4.88 0 00-2.68.62c14.25-8.24 12.86-7.46 13.44-7.72z"/><path class="cls-5" d="M295.05 280.57c-3.06 1.17-7.69-3.28-9.1-8.26-.57-2-.83-4.73.67-6.34 3.51-1 9 4.07 9.51 10.25-.05-.66.77 2.78-1.08 4.35zm-1-5.22c.67-2.33-2.11-6.41-4.29-5.77l-1.94 1.12c-2.18 1.46 1.12 7.65 3.67 6.54 2.22-1.18 2.32-1.35 2.51-1.89z"/><path class="cls-2" d="M284.56 267.78a3 3 0 012.07-1.81c-3.82 3.79 2.77 16.16 8.43 14.6-4.21 4.21-13.06-6.57-10.5-12.79z"/><path class="cls-3" d="M291 269.55c2.22.77 4 4.42 2.88 6.18-.75.74-.3.32-2.29 1.47 2.39-1.5-1.16-7.86-3.75-6.5 1.97-1.16 2.16-1.44 3.16-1.15z"/><path class="cls-4" d="M287.43 271c-1.45 1.74 1.24 6.81 3.76 6.32 3.38-.65-1.19-9.32-3.76-6.32z"/><path class="cls-1" d="M1.36 104.11c1.48-5 6.24-5.11 10.35-2 7.44 5.61 9.29 15 7.64 18.94-4.61 10.95-21.14-6.32-17.99-16.94zm4.16 1.23c-2.52 2.47-.61 10.2 4.7 13.66a7.56 7.56 0 001.82.82c2 .49 3.41-.29 4-1.75 2.66-6.28-6.28-16.95-10.52-12.73z"/><path class="cls-6" d="M22.27 122.95L86 159.76v-14.94l-29.49-17-17.61-8.85v-5.52L12.32 98.07c9.21 5.73 13.5 18.93 9.95 24.88zm-9.95-24.88L0 91v1.52l6.85 4a10.4 10.4 0 015.47 1.55z"/><path class="cls-7" d="M0 90.95l.47.27v-.53l-.47.26z"/><path class="cls-6" d="M41.39 60.88v27l-2.46-1.42v27L.46 91.22v-27l14-18.89z"/><path class="cls-7" d="M14.48 45.35l26.91 15.53 10.32-5.95v-2.69l65.9-38.05L93.03 0 14.48 45.35z"/><path class="cls-8" d="M41.39 60.88v26.99l10.32-5.96V54.93l-10.32 5.95z"/><path class="cls-8" d="M51.71 81.91l-10.32 5.96-2.46-1.42v32.5l12.78-7.38V81.91z"/><path class="cls-7" d="M38.93 118.95l17.61 8.84 10.04-5.8-4.38-2.53-10.49-6.06v-1.83l-12.78 7.38zm47.1 25.87l19.49 12.57 11.19-6.46-20.63-11.91-10.05 5.8z"/><path class="cls-7" d="M86.03 144.82l10.05-5.8-29.5-17.03-10.04 5.8 29.49 17.03z"/><path class="cls-8" d="M116.18 156.47v8.39l6.62-3.83v-6.58l-6.09-3.52-11.19 6.46v5.24l10.66-6.16z"/><path class="cls-9" d="M93.39 154.63l.9-.17a1.46 1.46 0 01.32-.09h-.06a5.54 5.54 0 013.66.49L91.16 159a6.23 6.23 0 012.23-4.37z"/><path class="cls-6" d="M116.18 156.47v8.39l-7.29-4.18 7.29-4.21z"/><path class="cls-1" d="M62.2 119.46V58.3l-10.49-6.06v61.16l10.49 6.06z"/><path class="cls-10" d="M51.71 52.24L62.2 58.3l66.62-38.46-10.49-6.06-.72.41-65.9 38.05z"/><path class="cls-5" d="M62.2 58.3v54.8l66.62-38.46v-54.8L62.2 58.3zm-45.73 58.26a4.62 4.62 0 01-1.08 2.53c-2.77.74-7-2.49-8.87-7.57-.76-2.05-1.18-5.4.44-7 3.89-1.07 10.28 5.65 9.51 12.04zM12 108.39a2.09 2.09 0 00-1.72-.36c-.25.09-1.95 1.08-2.12 1.19-1.89 1.19-.05 5.7 2.34 6.53 1.38.48 1.58-.37 3.11-1 1.95-.9.56-5.04-1.61-6.36z"/><path class="cls-2" d="M7 104.49c-1.74 1.74-1.18 5-.32 7.36 2 5 6.12 7.94 8.75 7.23-2.87 2.85-8.62-1.43-10.5-7.45-.84-2.83-.75-6.39 2.07-7.14z"/><path class="cls-3" d="M10.17 108.06c1.94-.68 4.59 2.64 4.34 5.24a1.55 1.55 0 01-1 1.44l-1.38.8c1.94-1.93-1.58-7.59-4-6.33.19-.1 1.87-1.07 2.04-1.15z"/><path class="cls-4" d="M10.7 109.9c-2.71-2.48-4.7.64-2.2 4.2 1.06 1.51 3 2.5 3.86 1.14.71-1.09.18-3.65-1.66-5.34z"/><path class="cls-9" d="M1.14 90.83v-24.1l13.33-18 18.34 10.63v49.75zm13.51-41.18L1.81 66.95v23.5L32.14 108V59.75z"/><path class="cls-5" d="M30.69 60.59L17.37 52.9l-.82.47 13.31 7.69.83-.47z"/><path class="cls-1" d="M30.69 78.9V60.59l-.83.47v18.32l.83-.48z"/><path class="cls-2" d="M29.86 79.38V61.06l-13.31-7.69-9.52 12.82 22.83 13.19z"/><path fill="#f74169" d="M30.79 84.1v-1.8l-.98.57v1.8l.98-.57z"/><path class="cls-4" d="M30.79 82.3l-4.46-2.58-.99.57 4.47 2.58.98-.57z"/><path fill="#ca4560" d="M29.81 82.87l-4.47-2.58v1.8l4.47 2.58v-1.8z"/><path class="cls-2" d="M10.11 97l.24.08c4.17 1.74 7.24 5.11 9.62 9a25.44 25.44 0 013.22 8.21 15.37 15.37 0 01.12 5.93l-5.86 3.39a5.25 5.25 0 001.9-2.61c3.28-9.24-8.25-24.24-15.54-20.41zm87.57 57.59c2.06-.39 4 1.24 5.36 2.84a12 12 0 011.18 1.79c1.58 3 1.5 5.23.91 6.62a2.64 2.64 0 01-1.09 1.24l-6.8 3.92a3.68 3.68 0 001.47-3.47c-.27-5.16-5.31-10.42-8.5-8.76 7.51-4.33 6.91-4.03 7.47-4.18z"/><path class="cls-2" d="M91.86 160.83c-2 2.33 1.63 8.43 4.47 7.7-1.4 1.38-4.35-.41-5.5-3.77-.78-2.5.17-3.76 1.03-3.93z"/><path class="cls-3" d="M93.66 162.68c1.44-.27 3.07 2.68 1.79 3.51l-1 .57c1.28-.79-.62-4.14-2-3.44 1.06-.59.98-.62 1.21-.64z"/><path class="cls-4" d="M92.08 164.22c0 2.1 3 4.12 2.8 1.49-.16-2.11-2.78-3.65-2.8-1.49z"/><path class="cls-5" d="M96.37 168.55h-.08c-3 .56-6.44-5.47-4.42-7.72 2.77-.91 6.61 5.34 4.5 7.72zM95 163.28c-1.08-1.11-1.62-.48-2.51 0-1.06.69.17 3.51 1.62 3.53.27 0 .2 0 1.33-.66.73-.38.45-1.95-.44-2.87z"/><path class="cls-1" d="M93.06 170.21a11.51 11.51 0 01-4.3-7.71c-.18-3.42 1.85-4.7 4.12-3.78 2.65 1.07 4.76 4.14 5.46 6.64 1.48 5.32-1.77 7.52-5.28 4.85zm.12-9.27a2.13 2.13 0 00-1.8.09 2.4 2.4 0 00-.84 2.16c.23 4.39 5.13 7.64 6.19 4.7.76-2.15-.97-5.89-3.55-6.94z"/><path class="cls-6" d="M105.52 157.39v5.24-.12l-.18-.37a20.14 20.14 0 00-1-1.76c-5-7.4-11.67-7.94-12.91-2.25l-1.12.65h.08a3.17 3.17 0 00-1.5 2.6L86 159.76v-14.94z"/><path class="cls-6" d="M90.63 158.62a2.67 2.67 0 01.34-.09z"/><path class="cls-1" d="M16.55 53.37l10.13 5.85 3.18 5.07v15.09l-1.08-.63-14.25-22.66 2.02-2.72zm-5.19 6.99l8.23 13.08-12.56-7.25 4.33-5.83zM146 180.08l112.8 65.15 5.18-3L144 173a19.08 19.08 0 012 7.08z"/><path class="cls-10" d="M144 173l120 69.27c1.3-.75 3.93-2.74 9.22 1.25a17.21 17.21 0 011.58 1.41 22.58 22.58 0 014.24 6l11.86 6.85a7.46 7.46 0 011.83-.92 5.76 5.76 0 011.38-.22c5.06 0 9.57 5.27 11.83 9.83l15.46 8.93V214L56.94 61.28v49.19l71.09 41v12.23l.93.54a5.59 5.59 0 014-1.11c2.94.27 7.78 3.22 11.04 9.87z"/><path class="cls-1" d="M279 250.92a18.92 18.92 0 012 7.11l4.72 2.73 5.18-3z"/><path class="cls-1" d="M305.92 266.45a19.07 19.07 0 012 7.11l18.69 10.79V211L51.76 52.31v61.16l14.88 8.59 29.49 17L116.75 151l6.1 3.52v12.23l.93.54 5.18-3-.93-.54v-12.23l-71.09-41V61.28L321.38 214v61.42z"/><path class="cls-5" d="M326.56 284.36V211l63.25-36.52v73.39zm31.62-22.61L386 245.67V181l-27.86 16.09-27.86 16.08v64.7z"/><path class="cls-13" d="M389.81 174.45L115 15.79l-.96.56-62.28 35.96 274.8 158.65 63.25-36.51zm-59.49 38.69v64.7l27.86-16.09v-64.7l-27.86 16.09z"/><path class="cls-13" d="M386.04 245.67v-64.7l-27.86 16.08v64.7l27.86-16.08z"/><path class="cls-10" d="M357.27 262.28v-.1l.54-.31v-64.6l.67-.39v64.7l-1.21.7z"/></g></g></svg>