<svg xmlns="http://www.w3.org/2000/svg" viewBox="0 0 257.48 255.7"><defs><style>.cls-1{fill:#2c65d6}.cls-2{fill:#3685fc}.cls-3{fill:#3046b5}.cls-4{fill:#f74169}.cls-5{fill:#ca4560}.cls-6{fill:#fe5773}.cls-7{fill:#bddff4}.cls-8{fill:#90caf4}.cls-9{fill:#e2f1f7}.cls-10{fill:#2030a5}.cls-11{fill:#15298c}</style></defs><g id="Слой_2" data-name="Слой 2"><g id="Layer_1" data-name="Layer 1"><path class="cls-1" d="M5.88 155.95v-3.99l28.67 16.56v3.99L5.88 155.95zm0-3.99v3.99l-5.83-3.36v-3.99l5.83 3.36z"/><path class="cls-2" d="M5.88 74.58l7.09-4.09v-6.73l58.78-33.93.05-.03 5.83 3.36 7.09-4.1 21.58 12.46v8.19l5.88 3.4 7.1-4.1 21.57 12.46v8.19l5.88 3.4 7.1-4.1 21.57 12.46v8.19l5.88 3.39 7.1-4.09 21.58 12.45v8.2l5.88 3.39 7.09-4.09 21.58 12.45v8.2l5.88 3.39-64.65 37.33v-16.7l-5.88-3.4-7.1 4.1v16.7l-28.67-16.55 7.09-4.1v-16.7l-5.87-3.4-7.1 4.1v16.7l-28.68-16.55 7.1-4.1v-16.7l-5.88-3.4-7.09 4.1v16.7l-28.68-16.55 7.1-4.1v-16.7l-5.88-3.39-7.09 4.09v16.71L40.43 94.53l7.1-4.1v-16.7l-5.88-3.39-7.1 4.1v16.7L5.88 74.58z"/><path class="cls-3" d="M84.72 29.06l-7.09 4.1v-16.7l7.09-4.1v16.7z"/><path class="cls-1" d="M77.63 33.16L71.8 29.8l-.05.03V13.06l5.88 3.4v16.7zm69.1 39.9l-5.88-3.4v-16.7l5.88 3.39v16.71z"/><path class="cls-3" d="M119.28 49.01l-7.1 4.1v-16.7l7.1-4.1v16.7z"/><path class="cls-1" d="M112.18 53.11l-5.88-3.4v-16.7l5.88 3.4v16.7z"/><path class="cls-3" d="M153.83 68.96l-7.1 4.1V56.35l7.1-4.09v16.7z"/><path class="cls-1" d="M215.84 112.95l-5.88-3.39v-16.7l5.88 3.39v16.7z"/><path class="cls-3" d="M188.38 88.91l-7.1 4.09V76.3l7.1-4.1v16.71z"/><path class="cls-1" d="M181.28 93l-5.88-3.39v-16.7l5.88 3.39V93z"/><path class="cls-3" d="M222.93 108.86l-7.09 4.09v-16.7l7.09-4.1v16.71z"/><path class="cls-1" d="M250.39 132.9l-5.88-3.39v-16.7l5.88 3.39v16.7zm-209.96 43l-5.88-3.39v-3.99l5.88 3.39v3.99zm0 0v-3.99l28.68 16.56v3.99L40.43 175.9zm34.55 19.95l-5.87-3.39v-3.99l5.87 3.39v3.99zm0 0v-3.99l28.68 16.55v4l-28.68-16.56zm34.55 19.95l-5.87-3.39v-4l5.87 3.4v3.99zm0 0v-3.99l28.68 16.55v3.99l-28.68-16.55zm34.56 19.95l-5.88-3.4v-3.99l5.88 3.4v3.99zm0 0v-3.99l28.67 16.55v3.99l-28.67-16.55zm34.55 19.95l-5.88-3.4v-3.99l5.88 3.4v3.99z"/><path class="cls-3" d="M185.74 251.6l-7.1 4.1v-3.99l7.1-4.1v3.99z"/><path class="cls-2" d="M77.63 16.46l-5.88-3.4 7.1-4.1 5.87 3.4-7.09 4.1zm28.67 16.55l7.1-4.1 5.88 3.4-7.1 4.1-5.88-3.4zm47.53 19.25l-7.1 4.09-5.88-3.39 7.1-4.1 5.88 3.4zm27.45 24.04l-5.88-3.39 7.1-4.1 5.88 3.39-7.1 4.1zm35.77 12.46l5.88 3.39-7.09 4.1-5.88-3.39 7.09-4.1zm33.34 27.44l-5.88-3.39 7.1-4.1 5.87 3.39-7.09 4.1z"/><path class="cls-3" d="M250.39 116.2l7.09-4.1v16.7l-7.09 4.1v-16.7zm7.09 93.98l-7.09 4.09v-3.99l7.09-4.1v4zm-7.09.1v3.99l-64.65 37.33v-3.99l64.65-37.33z"/><path class="cls-1" d="M.05 111.8v-4l5.83 3.37v3.99L.05 111.8zm5.83 3.36v-3.99l28.67 16.55v3.99l-2.62-1.51-18.96-10.95-7.09-4.09z"/><path class="cls-3" d="M257.48 165.39v3.99l-7.09 4.1v-3.99l7.09-4.1zm-7.09 4.1v3.99l-5.88 3.39-18.9 10.91-39.87 23.02v-3.99l64.65-37.32z"/><path class="cls-1" d="M.05 75.21v-3.99l5.83 3.36v3.99L.05 75.21zm5.83 3.36v-3.99l28.67 16.56v3.99l-6.27-3.62-15.31-8.84-7.09-4.1z"/><path class="cls-3" d="M257.48 128.8v3.99l-7.09 4.1v-3.99l7.09-4.1zm-7.09 4.1v3.99l-5.88 3.4-15.25 8.8-43.52 25.13v-3.99l64.65-37.33zm-64.65 114.71l-7.1 4.1V214.9l7.1-4.1v36.81z"/><path class="cls-3" d="M185.74 210.8l-7.1 4.1v-3.99l7.1-4.1v3.99z"/><path class="cls-1" d="M178.64 210.91v3.99l-5.88-3.39v-4l5.88 3.4z"/><path class="cls-3" d="M185.74 206.81l-7.1 4.1v-32.59l7.1-4.1v32.59z"/><path class="cls-3" d="M185.74 174.22l-7.1 4.1v-3.99l7.1-4.1v3.99z"/><path class="cls-1" d="M178.64 174.33v3.99l-5.88-3.4v-3.99l5.88 3.4z"/><path class="cls-3" d="M5.88 151.96v-36.8l7.09 4.09v28.62l-7.09 4.09z"/><path class="cls-2" d="M5.88 151.96l7.09-4.09v-6.73l18.96-10.94 2.62 1.51v36.81L5.88 151.96z"/><path class="cls-1" d="M34.55 168.52v-36.81l5.88 3.39v36.81l-5.88-3.39z"/><path class="cls-3" d="M40.43 171.91V135.1l7.1 4.1v28.61l-7.1 4.1z"/><path class="cls-2" d="M40.43 171.91l7.1-4.1V139.2l21.58 12.46v36.81l-28.68-16.56z"/><path class="cls-1" d="M69.11 188.47v-36.81l5.87 3.39v36.81l-5.87-3.39z"/><path class="cls-3" d="M74.98 191.86v-36.81l7.1 4.1v28.61l-7.1 4.1z"/><path class="cls-2" d="M74.98 191.86l7.1-4.1v-28.61l21.58 12.46v36.8l-28.68-16.55z"/><path class="cls-1" d="M103.66 208.41v-36.8l5.87 3.39v36.81l-5.87-3.4z"/><path class="cls-3" d="M109.53 211.81V175l7.1 4.1v28.61l-7.1 4.1z"/><path class="cls-2" d="M109.53 211.81l7.1-4.1V179.1l21.58 12.46v36.8l-28.68-16.55z"/><path class="cls-1" d="M138.21 228.36v-36.8l5.88 3.39v36.81l-5.88-3.4z"/><path class="cls-3" d="M144.09 231.76v-36.81l7.09 4.1v28.61l-7.09 4.1z"/><path class="cls-2" d="M144.09 231.76l7.09-4.1v-28.61l21.58 12.46v36.8l-28.67-16.55z"/><path class="cls-1" d="M178.64 214.9v36.81l-5.88-3.4v-36.8l5.88 3.39z"/><path class="cls-2" d="M185.74 247.61V210.8l39.87-23.02 18.9 10.91v8.2l5.88 3.39-64.65 37.33z"/><path class="cls-1" d="M250.39 210.28l-5.88-3.39v-30.02l5.88-3.39v36.8z"/><path class="cls-3" d="M257.48 169.38v36.8l-7.09 4.1v-36.8l7.09-4.1z"/><path class="cls-2" d="M250.39 169.49l-64.65 37.32v-32.59l43.52-25.13 15.25 8.81v8.19l5.88 3.4z"/><path class="cls-1" d="M250.39 169.49l-5.88-3.4v-25.8l5.88-3.4v32.6z"/><path class="cls-3" d="M257.48 165.39l-7.09 4.1v-32.6l7.09-4.1v32.6z"/><path class="cls-1" d="M172.76 174.92l5.88 3.4v32.59l-5.88-3.4v-32.59z"/><path class="cls-3" d="M5.88 111.17v-32.6l7.09 4.1v24.4l-7.09 4.1z"/><path class="cls-2" d="M5.88 111.17l7.09-4.1v-6.73l15.31-8.83 6.27 3.62v32.59L5.88 111.17z"/><path class="cls-1" d="M34.55 131.71v-3.99l5.88 3.4v3.98l-5.88-3.39zm5.88 3.39v-3.98l28.68 16.55v3.99L47.53 139.2l-7.1-4.1zm28.68 16.56v-3.99l5.87 3.39v3.99l-5.87-3.39zm5.87 3.39v-3.99l28.68 16.56v3.99l-21.58-12.46-7.1-4.1zm28.68 16.56v-3.99l5.87 3.39V175l-5.87-3.39zm5.87 3.39v-3.99l28.68 16.56v3.99l-21.58-12.46-7.1-4.1zm28.68 16.56v-3.99l5.88 3.39v3.99l-5.88-3.39zm5.88 3.39v-3.99l28.67 16.55v4l-21.58-12.46-7.09-4.1z"/><path class="cls-1" d="M144.09 190.96l-5.88-3.39v-32.6l5.88 3.4v32.59z"/><path class="cls-2" d="M172.76 207.51l-28.67-16.55 7.09-4.1v-24.39l21.58 12.45v32.59z"/><path class="cls-3" d="M151.18 186.86l-7.09 4.1v-32.59l7.09 4.1v24.39z"/><path class="cls-1" d="M144.09 158.37l-5.88-3.4v-3.99l5.88 3.4v3.99zm0 0v-3.99l28.67 16.55v3.99l-21.58-12.45-7.09-4.1z"/><path class="cls-2" d="M138.21 154.97v32.6l-28.68-16.56 7.1-4.1v-24.39l21.58 12.45z"/><path class="cls-3" d="M116.63 166.91l-7.1 4.1v-32.59l7.1 4.1v24.39z"/><path class="cls-1" d="M109.53 138.42v32.59l-5.87-3.39v-32.59l5.87 3.39z"/><path class="cls-2" d="M103.66 135.03v32.59l-28.68-16.56 7.1-4.09v-24.4l21.58 12.46z"/><path class="cls-3" d="M82.08 146.97l-7.1 4.09v-32.59l7.1 4.1v24.4z"/><path class="cls-1" d="M74.98 118.47v32.59l-5.87-3.39v-32.59l5.87 3.39zm34.55 15.96l28.68 16.55v3.99l-21.58-12.45-7.1-4.1v-3.99zm0 0v3.99l-5.87-3.39v-4l5.87 3.4z"/><path class="cls-2" d="M69.11 115.08v32.59l-28.68-16.55 7.1-4.1v-24.4l21.58 12.46z"/><path class="cls-3" d="M47.53 127.02l-7.1 4.1v-32.6l7.1 4.1v24.4z"/><path class="cls-1" d="M40.43 98.52v32.6l-5.88-3.4V95.13l5.88 3.39z"/><path class="cls-1" d="M34.55 95.13v-3.99l5.88 3.39v3.99l-5.88-3.39zm5.88 3.39v-3.99l28.68 16.56v3.99l-21.58-12.46-7.1-4.1zm28.68 16.56v-3.99l5.87 3.39v3.99l-5.87-3.39zm5.87 3.39v-3.99l28.68 16.55v4l-21.58-12.46-7.1-4.1z"/><path class="cls-4" d="M15.74 66.91v-22.9l24.41 14.1v22.9l-24.41-14.1z"/><path class="cls-5" d="M61.48 68.69L40.15 81.01v-22.9L61.48 45.8v22.89z"/><path class="cls-6" d="M15.74 44.01L37.06 31.7l24.42 14.1-21.33 12.31-24.41-14.1z"/><path class="cls-7" d="M45.27 86.86v-22.9l24.41 14.1v22.9l-24.41-14.1z"/><path class="cls-8" d="M91.01 88.64l-21.33 12.32v-22.9l21.33-12.31v22.89z"/><path class="cls-9" d="M45.27 63.96L66.6 51.65l24.41 14.1-21.33 12.31-24.41-14.1z"/><path class="cls-7" d="M52.72 35.21v-22.9l24.42 14.1v22.9l-24.42-14.1z"/><path class="cls-8" d="M98.46 36.99L77.14 49.31v-22.9L98.46 14.1v22.89z"/><path class="cls-9" d="M52.72 12.31L74.05 0l24.41 14.1-21.32 12.31-24.42-14.1z"/><path class="cls-10" d="M35.43 51.22v-22.9l24.42 14.1v22.89L35.43 51.22z"/><path class="cls-11" d="M81.17 53L59.85 65.31V42.42L81.17 30.1V53z"/><path class="cls-3" d="M35.43 28.32l21.33-12.31L81.17 30.1 59.85 42.42l-24.42-14.1z"/><path class="cls-10" d="M82.08 57.22v-22.9l24.41 14.09v22.9L82.08 57.22z"/><path class="cls-11" d="M127.82 59l-21.33 12.31v-22.9l21.33-12.31V59z"/><path class="cls-3" d="M82.08 34.32l21.33-12.31 24.41 14.09-21.33 12.31-24.41-14.09z"/><path class="cls-4" d="M104.95 83.11V60.22l24.42 14.09v22.9l-24.42-14.1z"/><path class="cls-5" d="M150.69 84.9l-21.32 12.31v-22.9L150.69 62v22.9z"/><path class="cls-6" d="M104.95 60.22l21.33-12.32L150.69 62l-21.32 12.31-24.42-14.09z"/><path class="cls-4" d="M76.85 102.06V79.17l24.41 14.09v22.9l-24.41-14.1z"/><path class="cls-5" d="M122.59 103.85l-21.33 12.31v-22.9l21.33-12.31v22.9z"/><path class="cls-6" d="M76.85 79.17l21.32-12.32 24.42 14.1-21.33 12.31-24.41-14.09z"/><path class="cls-10" d="M113.08 110.56v-22.9l24.42 14.09v22.9l-24.42-14.09z"/><path class="cls-11" d="M158.82 112.34l-21.32 12.31v-22.9l21.32-12.31v22.9z"/><path class="cls-3" d="M113.08 87.66l21.33-12.32 24.41 14.1-21.32 12.31-24.42-14.09z"/><path class="cls-7" d="M68.14 68.67v-22.9l24.42 14.09v22.9L68.14 68.67z"/><path class="cls-8" d="M113.88 70.45L92.56 82.76v-22.9l21.32-12.31v22.9z"/><path class="cls-9" d="M68.14 45.77l21.33-12.31 24.41 14.09-21.32 12.31-24.42-14.09z"/><path class="cls-7" d="M156.38 116.71v-22.9l24.41 14.1v22.9l-24.41-14.1z"/><path class="cls-8" d="M202.12 118.49l-21.33 12.32v-22.9l21.33-12.31v22.89z"/><path class="cls-9" d="M156.38 93.81L177.7 81.5l24.42 14.1-21.33 12.31-24.41-14.1z"/><path class="cls-4" d="M135.55 135.7v-22.9l24.42 14.1v22.9l-24.42-14.1z"/><path class="cls-5" d="M181.29 137.49l-21.32 12.31v-22.9l21.32-12.31v22.9z"/><path class="cls-6" d="M135.55 112.8l21.33-12.31 24.41 14.1-21.32 12.31-24.42-14.1z"/><path class="cls-10" d="M136.79 88.61V65.72l24.42 14.09v22.9l-24.42-14.1z"/><path class="cls-11" d="M182.53 90.4l-21.32 12.31v-22.9l21.32-12.31v22.9z"/><path class="cls-3" d="M136.79 65.72l21.33-12.31 24.41 14.09-21.32 12.31-24.42-14.09z"/><path class="cls-10" d="M192.96 133.41v-22.9l24.42 14.1v22.9l-24.42-14.1z"/><path class="cls-11" d="M238.71 135.19l-21.33 12.32v-22.9l21.33-12.31v22.89z"/><path class="cls-3" d="M192.96 110.51l21.33-12.31 24.42 14.1-21.33 12.31-24.42-14.1z"/><path class="cls-7" d="M168.59 151.94v-22.89L193 143.14v22.9l-24.41-14.1z"/><path class="cls-8" d="M214.33 153.73L193 166.04v-22.9l21.33-12.31v22.9z"/><path class="cls-9" d="M168.59 129.05l21.32-12.32 24.42 14.1L193 143.14l-24.41-14.09z"/><path class="cls-1" d="M.05 148.43v3.99l-.05-.04V54.31l5.88 3.4v16.7L.05 71.05v3.99l5.83 3.36v32.59l-5.83-3.36v3.99l5.83 3.36v36.81l-5.83-3.36z"/><path class="cls-2" d="M5.88 57.71L0 54.31l7.1-4.09 5.87 3.39-7.09 4.1z"/><path class="cls-3" d="M5.88 57.71l7.09-4.1v16.7l-7.09 4.1v-16.7zm41.65 32.55l-7.1 4.1v-16.7l7.1-4.1v16.7zm34.55 19.95l-7.1 4.1V97.6l7.1-4.09v16.7zm34.55 19.95l-7.1 4.09v-16.7l7.1-4.1v16.71zm34.55 19.95l-7.09 4.09v-16.7l7.09-4.1v16.71z"/><path class="cls-2" d="M34.55 74.26l7.1-4.1 5.88 3.4-7.1 4.1-5.88-3.4z"/><path class="cls-1" d="M34.55 74.26l5.88 3.4v16.7l-5.88-3.4v-16.7z"/><path class="cls-2" d="M82.08 93.51l-7.1 4.09-5.87-3.39 7.09-4.1 5.88 3.4z"/><path class="cls-1" d="M69.11 94.21l5.87 3.39v16.71l-5.87-3.4v-16.7z"/><path class="cls-2" d="M116.63 113.45l-7.1 4.1-5.87-3.39 7.09-4.1 5.88 3.39z"/><path class="cls-1" d="M103.66 114.16l5.87 3.39v16.7l-5.87-3.39v-16.7z"/><path class="cls-2" d="M145.31 130.01l5.87 3.39-7.09 4.1-5.88-3.39 7.1-4.1z"/><path class="cls-1" d="M138.21 134.11l5.88 3.39v16.7l-5.88-3.39v-16.7z"/><path class="cls-2" d="M172.76 154.06l7.1-4.1 5.88 3.39-7.1 4.1-5.88-3.39z"/><path class="cls-1" d="M172.76 154.06l5.88 3.39v16.7l-5.88-3.39v-16.7z"/><path class="cls-3" d="M178.64 157.62l7.1-4.09v16.7l-7.1 4.1v-16.71z"/><path class="cls-10" d="M121.3 201.94v2.24l16.91 9.76v-22.38l-16.91-9.77v20.15z"/><path class="cls-7" d="M47.53 139.2v20.15l15.49 8.94v-20.14l-15.49-8.95z"/><path class="cls-8" d="M63.02 168.29l6.09-3.51v-13.12l-6.09-3.51v20.14z"/><path class="cls-4" d="M82.08 159.15v21.19l7.26 4.2v-21.19l-7.26-4.2z"/><path class="cls-5" d="M89.34 184.54l14.32-8.26v-4.67l-14.32-8.26v21.19z"/><path class="cls-4" d="M64.64 168.2v2.24l4.47 2.58v-21.36l-4.47-2.58v19.12z"/><path class="cls-10" d="M218.92 213.45v-21.81l-18.88 10.91 18.88 10.9z"/><path class="cls-11" d="M218.92 191.65v21.8l21.33-12.31v-21.8l-21.33 12.31z"/><path class="cls-4" d="M151.18 199.05v11.1l16.6 9.58v-11.1l-16.6-9.58z"/><path class="cls-5" d="M167.78 219.73l4.98-2.87v-5.35l-4.98-2.88v11.1z"/><path class="cls-7" d="M170.13 224.11v2.25l2.63 1.52v-16.37l-2.63-1.52v14.12zm15.61 11.26l8.8 5.08v-22.89l-8.8-5.09v22.9z"/><path class="cls-8" d="M215.87 228.14l-21.33 12.31v-22.9l21.33-12.31v22.9z"/><path class="cls-9" d="M185.74 212.47l8.8 5.09 21.33-12.32-10.25-5.92-19.88 11.48v1.67z"/><path class="cls-4" d="M82.08 122.73v11.1l16.6 9.58v-11.1l-16.6-9.58z"/><path class="cls-5" d="M98.68 143.41l4.98-2.87v-5.35l-4.98-2.88v11.1z"/><path class="cls-10" d="M47.52 102.61v11.1l16.6 9.58V112.2l-16.6-9.59z"/><path class="cls-11" d="M64.12 123.29l4.97-2.87v-5.35l-4.97-2.87v11.09z"/><path class="cls-7" d="M12.97 82.67v20.14l15.5 8.94V91.61l-15.5-8.94z"/><path class="cls-8" d="M28.47 111.75l6.08-3.5V95.12l-6.08-3.51v20.14z"/><path class="cls-7" d="M204.62 184.67v-21.8l-18.88 10.9 18.88 10.9z"/><path class="cls-8" d="M204.62 162.88v21.79l21.33-12.31v-21.8l-21.33 12.32z"/><path class="cls-10" d="M151.18 162.47v20.14l15.5 8.95v-20.15l-15.5-8.94z"/><path class="cls-11" d="M166.68 191.56l6.08-3.51v-13.13l-6.08-3.51v20.15z"/></g></g></svg>