<svg xmlns="http://www.w3.org/2000/svg" viewBox="0 0 427.16 345.71"><defs><style>.cls-1{fill:#2c65d6}.cls-2{fill:#5ea6d3}.cls-3{fill:#90caf4}.cls-4{fill:#2030a5}.cls-5{fill:#fe5773}.cls-6{fill:#a2d2f6}.cls-7{fill:#bddff4}.cls-8{fill:#e2f1f7}.cls-9{fill:#ca4560}.cls-10{fill:#f74c72}.cls-11{fill:#3046b5}.cls-13{fill:#f74169}.cls-15{fill:#609ffd}.cls-16{fill:#15298c}.cls-17{fill:#ef9baa}.cls-18{fill:#a3d3f6}</style></defs><g id="Слой_2" data-name="Слой 2"><g id="Layer_1" data-name="Layer 1"><path class="cls-1" d="M155.24 102.61l186.12 107.45-4.83 2.8L150.4 105.4l4.84-2.79z"/><path class="cls-2" d="M84.34 143.54l66.06-38.14v10.68l-56.93 32.73-9.13-5.27z"/><path class="cls-3" d="M327.42 218.14L150.4 115.94l-56.93 32.87 188.34 108.74.09-.05v-13.09l34.08-19.64 11.44-6.63z"/><path class="cls-4" d="M150.4 105.4v10.54l177.02 102.2 9.11-5.28L150.4 105.4z"/><path class="cls-5" d="M54.9 65.21l3.65.87 3.65-.87 1.51-2.11-1.85-12.77 14.82-8.56 2.12-1.23 4.84-2.79 40.58-23.43-1.22 8.6 1.49 2.08 3.65.87 3.65-.87 1.51-2.11-1.85-12.77L134 8.69l17.28 10-93.74 54.08-17.28-10 14.37-8.27-1.24 8.6zM76 55.45l45.28-26.14v-4.76l-5.72-3.3-45.3 26.14v4.77z"/><path class="cls-6" d="M58.55 66.08l-3.65-.87 2.22-23.05 1.43.35v23.57z"/><path class="cls-2" d="M63.71 63.1l-1.51 2.11-2.23-23.05.59-.82.08.55.89 6.17.33 2.27 1.85 12.77z"/><path class="cls-7" d="M54.9 65.21l-1.52-2.11 1.25-8.6.39-2.67 1.05-7.3.46-3.19.59.82-2.22 23.05z"/><path class="cls-3" d="M62.2 65.21l-3.65.87V42.51l1.42-.35 2.23 23.05z"/><path class="cls-6" d="M128.14 25.9l-3.65-.87 2.23-23.04 1.42.34V25.9z"/><path class="cls-2" d="M133.31 22.92l-1.52 2.11-2.22-23.04.59-.83 1.3 8.99 1.85 12.77z"/><path class="cls-7" d="M124.49 25.03l-1.51-2.11 1.24-8.6 1.91-13.16.59.83-2.23 23.04z"/><path class="cls-3" d="M131.79 25.03l-3.65.87V2.33l1.43-.34 2.22 23.04z"/><path class="cls-8" d="M60.56 41.34l-.59.82-1.42.35-1.43-.35-.59-.82.59-.82 1.43-.34 1.42.34.59.82zm66.16-41l1.42-.34 1.43.34.59.82-.59.83-1.43.34-1.42-.34-.59-.83.59-.82z"/><path class="cls-9" d="M40.26 62.8l17.28 9.97v24.89l-5.71-3.3-11.57-6.67V62.8z"/><path class="cls-10" d="M57.54 72.77l93.71-54.1v24.89L118 62.78l-4.09 2.36L84.64 82l-8 4.61-19.12 11zm90.21-31.28V24.77l-1.46.84L61 74.84v16.72z"/><path class="cls-11" d="M54.63 54.5l-14.37 8.3v8.76l-19.92 11.5-9.71-5.61 44.39-25.62-.39 2.67z"/><path class="cls-4" d="M281.74 329.71L24.72 172.64 0 82.13V76.9l31.32 18.09v5.22l48.18 27.82v18.3l202.24 116.76v66.62z"/><path class="cls-1" d="M281.74 263.09L79.5 146.33l4.84-2.79 197.47 114.01.09-.05-.02 5.6-.14-.01z"/><path class="cls-11" d="M155.24 102.61l-4.84 2.79V87.1l4.84-2.79v18.3zm126.5 160.48l.13.02v5.99l-.13 60.61v-66.62zM84.34 143.54l-4.84 2.79v-18.3l4.84-2.79v18.3zm-53.02-43.33v-5.22l4.84-2.8v5.23l-4.84 2.79z"/><path class="cls-1" d="M79.5 128.03l-48.18-27.82 4.84-2.79 5.18 3L52 106.57l32.34 18.67-4.84 2.79zm38.45-65.25l37.29 21.53-4.84 2.79-36.45-21.04-.09-.92 4.09-2.36z"/><path class="cls-3" d="M84.34 143.54v-18.3L52 106.57l23.96-13.83-2.54 22.14 15.45 8.92 29.22-16.87-2.17-21.44 34.48 19.91-66.06 38.14z"/><path class="cls-4" d="M113.95 66.06L150.4 87.1v18.3l-34.48-19.91-1.97-19.43zM88.87 123.8l-15.45-8.92 2.54-22.14.7-6.12 7.98-4.61 4.23 41.79z"/><path class="cls-2" d="M75.96 92.74L52 106.57l-10.66-6.15 10.49-6.06 5.71 3.3 19.12-11.04-.7 6.12z"/><path class="cls-11" d="M118.09 106.93L88.87 123.8l-4.23-41.79 29.22-16.87.09.92 1.97 19.43 2.17 21.44z"/><path class="cls-3" d="M20.34 83.06l19.92-11.5v16.13l11.57 6.67-10.49 6.06-5.18-3v-5.23l-15.82-9.13z"/><path class="cls-1" d="M56.07 44.53L4.83 74.11 0 76.9l31.32 18.09 4.84-2.8-15.82-9.13-9.71-5.61 44.39-25.62 1.05-7.3z"/><path class="cls-11" d="M76.69 39.31l2.12 1.23-2.12 1.23v-2.46z"/><path class="cls-4" d="M76.69 39.31v2.46l-14.83 8.56-.33-2.27 15.16-8.75z"/><path class="cls-1" d="M75.73 33.18l-4.83 2.79-10.26 5.92.89 6.17 15.16-8.75 2.12 1.23 4.84-2.79-7.92-4.57z"/><path class="cls-10" d="M121.25 29.31L75.97 55.45v-4.76l45.28-26.14v4.76z"/><path class="cls-9" d="M75.97 55.45l-5.71-3.3v-4.76l5.71 3.3v4.76z"/><path fill="#fe7088" d="M115.54 21.24l5.71 3.31-45.28 26.14-5.71-3.3 45.28-26.15z"/><path class="cls-13" d="M147.75 24.77v16.72l-1.46-.84V25.61l1.46-.84z"/><path class="cls-5" d="M147.75 41.49L61.03 91.56v-1.69l85.26-49.22 1.46.84z"/><path class="cls-5" d="M146.29 40.65L61.03 89.87V74.84l85.26-49.23v15.04z"/><path class="cls-11" d="M301.31 247.17l-12.22-3.38 67.15-38.91v10.46l-54.93 31.83z"/><path fill="#3685fc" d="M301.31 247.17l54.93-31.83 50.69 61.06-105.62-29.23z"/><path class="cls-11" d="M427.16 284.69l-41.97 61.02-103.45-16 145.42-45.02z"/><path class="cls-1" d="M427.16 284.69l-145.24-40.18.16-.09 75.38-43.69zm-70.92-79.81l-67.15 38.91 12.21 3.38 105.63 29.23 11.27 3.12z"/><path class="cls-4" d="M356.24 204.88l61.96 74.64-11.27-3.12-50.69-61.06v-10.46z"/><path class="cls-1" d="M352.81 233.74l1.16.68-2.28 1.3.01-1.27v-.08l1.11-.63zm2.34.02l.01-1.27v-.08l1.11-.63 1.17.68-2.29 1.3zm-9.79-2.09v.22l-.83-.48.72-.41.63.37-.52.3zm1.16.91l.72-.41.67.39-.53.3v.23l-.86-.51z"/><path class="cls-1" d="M347.05 232.05l-.53.3-1.16-.68.52-.3 1.17.68z"/><path class="cls-7" d="M347.05 232.05l-1.17-.68-.63-.37-.2-.12-1.16-.68-.66-.39-.19-.12-.51-.29.01-.77.06-7.02 8.26 4.86-.06 7.79-.91-.53-.62-.37-.2-.11-1.16-.69-.67-.39-.19-.12z"/><path class="cls-1" d="M342.53 229.4l.51.29-.53.3-1.16-.68 1.19-.68-.01.77zm7.36 4.33l.91.53 7.28-4.13v-.32l.55.32-8.1 4.58-1.16-.68.52-.3z"/><path class="cls-3" d="M358.08 230.13l-7.28 4.13.06-7.79 7.29-4.12-.07 7.46v.32z"/><path class="cls-1" d="M343.89 230.2l1.16.68-.52.3-1.16-.68.52-.3zm4.02 2.36l1.16.69-.52.29-1.17-.68.53-.3z"/><path class="cls-1" d="M342.51 230.22l.72-.41.66.39-.52.3v.22l-.86-.5zm6.86 3.81v.22l-.83-.48.73-.41.62.37-.52.3z"/><path class="cls-11" d="M352.81 233.64v.1l1.16.68.02-1.27v-.17l-.15.08-1.03.58zm-3.44.61l-.83-.48.01-.23-1.17-.68v.23l-.86-.51v-.23l-1.16-.68v.22l-.83-.48v-.23l-1.16-.68v.22l-.86-.5v-.23l-1.16-.68v.22l-.01.18-.01 1.27v.23l1.16.68v-.23l.01-1.27 1.1.65.19.11 1.56.92-.01 1.27v.22l1.16.69v-.23l.01-1.27 1.1.65.19.11 1.56.92-.01 1.27v.22l1.16.69v-.23l.01-1.27v-.17l.01-.23-1.16-.68v.22zm7.93-3.15l-1.02.58-.01.1 1.17.68.01-1.27v-.17l-.15.08z"/><path class="cls-4" d="M346.51 232.75l-.01 1.27v.23l1.3-.74-.19-.11-1.1-.65zm-1.98-1.57v.23l.72-.41-.2-.12-.52.3zm2.52.87l-.53.3v.23l.72-.41-.19-.12zm-4.01-2.36l-.53.3v.23l.72-.41-.19-.12zm15.59.44l-8.1 4.59v1.9l8.1-4.59v-1.67l-1.17.66v1.44l-2.29 1.3v-1.44l1.12-.63 1-.58.15-.09 1.18-.67zm-4.64 3v1.27l-2.29 1.3v-1.44l1.12-.63 1-.58.18-.05zm-5.44.41l-.01.23.73-.41-.2-.11-.52.29zm-6.05-3.15l-.01 1.27v.23l1.3-.74-.19-.11-1.1-.65z"/><path class="cls-8" d="M342.6 221.61l7.28-4.12 8.27 4.86-7.29 4.12-8.26-4.86z"/><path class="cls-1" d="M341.3 240.25l1.16.68-2.29 1.3.01-1.27v-.08l1.12-.63zm2.33.02l.01-1.27v-.08l1.12-.63 1.16.68-2.29 1.3zm-9.79-2.09v.22l-.83-.49.72-.4.64.37-.53.3zm1.16.91l.73-.41.66.39-.52.3v.23l-.87-.51z"/><path class="cls-1" d="M335.53 238.56l-.53.3-1.16-.68.53-.3 1.16.68z"/><path class="cls-1" d="M335.53 238.56l-1.16-.68-.64-.37-.19-.12-1.16-.68-.67-.39-.19-.12-.5-.29v-.77l.06-7.02 8.26 4.86-.06 7.79-.9-.53-.63-.37-.19-.11-1.17-.69-.66-.39-.2-.12z"/><path class="cls-1" d="M331.02 235.91l.5.29-.52.3-1.17-.68 1.19-.68v.77zm7.36 4.33l.9.53 7.29-4.13v-.32l.54.31-8.1 4.59-1.16-.68.53-.3z"/><path class="cls-11" d="M346.57 236.64l-7.29 4.13.06-7.79 7.29-4.12-.06 7.46v.32z"/><path class="cls-1" d="M332.38 236.71l1.16.68-.53.3-1.16-.69.53-.29zm4.01 2.36l1.17.69-.53.29-1.16-.68.52-.3z"/><path class="cls-1" d="M330.99 236.73l.72-.41.67.39-.53.29v.23l-.86-.5zm6.86 3.81v.22l-.82-.48.72-.41.63.37-.53.3z"/><path class="cls-11" d="M341.3 240.15v.1l1.16.68.01-1.27v-.17l-.15.08-1.02.58zm-3.45.61l-.82-.48v-.23l-1.16-.68v.23l-.87-.51v-.23l-1.16-.68v.22l-.83-.49v-.22l-1.16-.69v.23l-.86-.5.01-.23-1.17-.68v.4l-.01 1.27-.01.22 1.17.69v-.23l.01-1.27 1.09.65.2.11 1.56.92-.01 1.27-.01.22 1.17.69v-.23l.01-1.27 1.09.65.2.11 1.56.92-.01 1.27-.01.22 1.17.69v-.23l.01-1.27v-.4l-1.16-.68v.22zm7.93-3.15l-1.02.58v.1l1.16.68.01-1.27v-.17l-.15.08z"/><path class="cls-4" d="M335 239.26l-.01 1.27v.23l1.3-.74-.2-.11-1.09-.65zm-1.99-1.57v.22l.72-.4-.19-.12-.53.3zm2.52.87l-.53.3v.23l.73-.41-.2-.12zm-4.01-2.36l-.52.3-.01.23.72-.41-.19-.12zm15.59.43l-8.1 4.59v1.9l8.1-4.59v-1.67l-1.17.66V239l-2.29 1.3v-1.44l1.12-.63 1-.58.15-.09 1.18-.67zm-4.64 3v1.27l-2.29 1.3v-1.44l1.12-.63 1-.58.15-.09zm-5.44.42v.23l.72-.41-.19-.11-.53.29zm-6.04-3.15l-.01 1.27v.23l1.3-.74-.2-.11-1.09-.65z"/><path class="cls-15" d="M331.08 228.12l7.29-4.12 8.26 4.86-7.29 4.12-8.26-4.86z"/><path class="cls-1" d="M329.78 246.76l1.16.68-2.29 1.3.02-1.27v-.08l1.11-.63zm2.34.02l.01-1.27v-.08l1.11-.64 1.17.69-2.29 1.3zm-9.79-2.09v.22l-.83-.48.72-.42.63.38-.52.3zm1.16.91l.72-.41.67.39-.53.3v.22l-.86-.5z"/><path class="cls-1" d="M324.01 245.07l-.52.3-1.16-.68.52-.3 1.16.68z"/><path class="cls-7" d="M324.01 245.07l-1.16-.68-.63-.38-.2-.11-1.16-.68-.66-.39-.19-.12-.51-.29.01-.77.06-7.02 8.26 4.86-.07 7.79-.9-.53-.62-.37-.2-.12-1.16-.68-.67-.39-.2-.12z"/><path class="cls-1" d="M319.5 242.42l.51.29-.53.3-1.16-.68 1.19-.68-.01.77zm7.36 4.33l.9.53 7.29-4.13v-.33l.55.32-8.1 4.59-1.16-.68.52-.3z"/><path class="cls-3" d="M335.05 243.15l-7.29 4.13.07-7.79 7.29-4.12-.07 7.45v.33z"/><path class="cls-1" d="M320.86 243.22l1.16.68-.52.3-1.16-.69.52-.29zm4.02 2.36l1.16.68-.53.3-1.16-.68.53-.3z"/><path class="cls-1" d="M319.48 243.24l.72-.41.66.39-.52.29-.01.23-.85-.5zm6.86 3.81v.22l-.83-.48.73-.41.62.37-.52.3z"/><path class="cls-11" d="M329.78 246.66v.1l1.16.68.01-1.27.01-.17-.15.08-1.03.58zm-3.44.61l-.83-.48v-.23l-1.16-.68v.22l-.86-.5v-.23l-1.16-.68v.22l-.83-.48v-.23l-1.16-.69-.01.23-.85-.5v-.23l-1.16-.68v.22l-.01.18-.01 1.27v.22l1.16.69v-.23l.01-1.27 1.1.65.19.11 1.56.92-.01 1.27v.22l1.16.69v-.23l.01-1.27 1.1.64.19.12 1.56.92-.01 1.27v.22l1.16.69v-.23l.01-1.27v-.18l.01-.22-1.16-.68v.22zm7.93-3.15l-1.02.58-.01.09 1.17.69.01-1.27v-.17l-.15.08z"/><path class="cls-4" d="M323.48 245.77l-.01 1.27v.23l1.3-.74-.19-.12-1.1-.64zm-1.98-1.57v.23l.72-.42-.2-.11-.52.3zm2.51.87l-.52.3v.23l.72-.41-.2-.12zm-4-2.36l-.53.3v.23l.72-.41-.19-.12zm15.59.43l-8.1 4.59v1.9l8.1-4.59v-1.67l-1.17.66v1.44l-2.29 1.3v-1.44l1.12-.63 1-.58.15-.09 1.18-.67zm-4.64 3v1.27l-2.29 1.3v-1.44l1.12-.63 1-.58.21-.06zm-5.45.42v.23l.73-.41-.2-.12-.53.3zm-6.04-3.15l-.01 1.27v.23l1.3-.74-.19-.11-1.1-.65z"/><path class="cls-8" d="M319.57 234.63l7.28-4.13 8.27 4.87-7.29 4.12-8.26-4.86z"/><path class="cls-1" d="M318.27 253.26l1.16.69-2.29 1.3.01-1.27v-.08l1.12-.64zm2.33.02l.01-1.26v-.08l1.12-.64 1.16.69-2.29 1.29zm-9.79-2.08v.22l-.83-.49.72-.4.64.37-.53.3zm1.16.91l.72-.41.68.39-.53.3v.23l-.87-.51z"/><path class="cls-1" d="M312.5 251.58l-.53.3-1.16-.68.53-.3 1.16.68z"/><path class="cls-4" d="M312.5 251.58l-1.16-.68-.64-.37-.19-.12-1.16-.68-.66-.39-.2-.12-.5-.29v-.77l.06-7.02 8.26 4.86-.06 7.79-.9-.53-.63-.37-.19-.12-1.16-.68-.68-.39-.19-.12z"/><path class="cls-1" d="M307.99 248.93l.5.29-.53.3-1.16-.68 1.19-.68v.77zm7.36 4.33l.9.53 7.29-4.13v-.32l.54.31-8.1 4.59-1.16-.68.53-.3z"/><path class="cls-16" d="M323.54 249.66l-7.29 4.13.06-7.79 7.29-4.12-.06 7.46v.32z"/><path class="cls-1" d="M309.35 249.73l1.16.68-.53.3-1.16-.69.53-.29zm4.02 2.36l1.16.68-.53.3-1.16-.68.53-.3z"/><path class="cls-1" d="M307.96 249.75l.73-.41.66.39-.53.29v.23l-.86-.5zm6.86 3.81v.22l-.82-.48.72-.41.63.37-.53.3z"/><path class="cls-11" d="M318.27 253.17v.09l1.16.69.01-1.27v-.17l-.15.08-1.02.58zm-3.45.61l-.82-.48v-.23l-1.16-.68v.23l-.87-.51v-.23l-1.16-.68v.22l-.83-.49v-.22l-1.16-.69v.23l-.86-.5v-.23l-1.16-.68v.4l-.01 1.27v.22l1.16.69v-.23l.01-1.27 1.09.64.2.12 1.56.92-.01 1.27-.01.22 1.17.69v-.23l.01-1.27 1.09.65.2.11 1.56.92-.01 1.27-.01.22 1.16.68.01-.22.01-1.27v-.4l-1.16-.68v.22zm7.93-3.15l-1.02.58v.09l1.16.69.01-1.27v-.17l-.15.08z"/><path class="cls-4" d="M311.97 252.28l-.01 1.27v.23l1.3-.74-.2-.11-1.09-.65zm-1.99-1.57v.22l.72-.4-.19-.12-.53.3zm2.52.87l-.53.3v.23l.72-.41-.19-.12zm-4.01-2.36l-.53.3v.23l.73-.41-.2-.12zm15.59.43l-8.1 4.59v1.9l8.1-4.59v-1.67l-1.17.66V252l-2.29 1.3v-1.44l1.12-.63 1-.58.15-.09 1.18-.67zm-4.64 3v1.27l-2.29 1.3v-1.42l1.12-.63 1-.58.15-.09zm-5.44.42v.23l.72-.41-.19-.12-.53.3zm-6.04-3.15l-.01 1.27v.23l1.3-.74-.2-.12-1.09-.64z"/><path class="cls-11" d="M308.05 241.14l7.29-4.13 8.26 4.87-7.29 4.12-8.26-4.86z"/><path class="cls-1" d="M353.8 247.55l1.16.68-2.29 1.3.01-1.27v-.08l1.12-.63zm2.33.02l.01-1.27v-.08l1.12-.63 1.16.68-2.29 1.3zm-9.79-2.09v.22l-.83-.48.72-.41.64.37-.53.3zm1.16.91l.72-.41.67.39-.52.3v.23l-.87-.51z"/><path class="cls-1" d="M348.03 245.86l-.53.3-1.16-.68.53-.3 1.16.68z"/><path class="cls-7" d="M348.03 245.86l-1.16-.68-.64-.37-.19-.12-1.17-.68-.66-.39-.19-.12-.51-.29.01-.77.06-7.02 8.26 4.86-.06 7.79-.9-.53-.63-.37-.2-.11-1.16-.69-.67-.39-.19-.12z"/><path class="cls-1" d="M343.51 243.21l.51.29-.53.3-1.16-.68 1.19-.68-.01.77zm7.37 4.33l.9.53 7.28-4.13.01-.32.54.32-8.1 4.58-1.16-.68.53-.3z"/><path class="cls-3" d="M359.06 243.94l-7.28 4.13.06-7.79 7.29-4.12-.06 7.46-.01.32z"/><path class="cls-1" d="M344.87 244.01l1.17.68-.53.3-1.16-.68.52-.3zm4.02 2.36l1.16.69-.52.29-1.16-.68.52-.3z"/><path class="cls-1" d="M343.49 244.03l.72-.41.66.39-.52.3v.22l-.86-.5zm6.86 3.81v.22l-.82-.48.72-.41.63.37-.53.3z"/><path class="cls-11" d="M353.8 247.45v.1l1.16.68.01-1.27v-.17l-.15.08-1.02.58zm-3.45.61l-.82-.48v-.23l-1.16-.68v.23l-.87-.51v-.23l-1.16-.68v.22l-.83-.48v-.23l-1.16-.68v.22l-.86-.5v-.23l-1.16-.68v.22l-.01.18-.01 1.27v.22l1.16.69.01-.23.01-1.27 1.09.65.19.11 1.56.92-.01 1.27v.23l1.16.68.01-.23.01-1.27 1.09.65.2.11 1.56.92-.02 1.27v.22l1.16.69.01-.23.01-1.27v-.4l-1.16-.68v.22zm7.93-3.15l-1.02.58v.1l1.16.68.01-1.27v-.17l-.15.08z"/><path class="cls-4" d="M347.5 246.56l-.01 1.27-.01.23 1.31-.74-.2-.11-1.09-.65zm-1.99-1.57v.23l.72-.41-.19-.12-.53.3zm2.52.87l-.53.3v.23l.72-.41-.19-.12zm-4.01-2.36l-.53.3v.23l.72-.41-.19-.12zm15.59.44l-8.1 4.59v1.9l8.1-4.59v-1.67l-1.17.66v1.44l-2.29 1.3v-1.44l1.12-.63 1-.58.15-.09 1.18-.67zM355 247v1.27l-2.29 1.3v-1.44l1.12-.63 1-.58.15-.09zm-5.47.35v.23l.72-.41-.2-.11-.52.29zm-6.04-3.15l-.01 1.27-.01.23 1.3-.74-.19-.11-1.09-.65z"/><path class="cls-8" d="M343.58 235.42l7.29-4.12 8.26 4.86-7.29 4.12-8.26-4.86z"/><path class="cls-1" d="M366.18 254.81l1.16.69-2.29 1.29.01-1.27v-.08l1.12-.63zm2.33.02l.01-1.27v-.07l1.12-.64 1.16.68-2.29 1.3zm-9.79-2.09v.23l-.83-.49.72-.41.64.38-.53.29zm1.16.91l.72-.41.67.4-.52.3v.22l-.87-.51z"/><path class="cls-1" d="M360.41 253.13l-.53.3-1.16-.69.53-.29 1.16.68z"/><path class="cls-4" d="M360.41 253.13l-1.16-.68-.64-.38-.19-.11-1.17-.69-.66-.39-.19-.11-.51-.3.01-.76.06-7.02 8.26 4.86-.06 7.79-.9-.53-.63-.37-.2-.12-1.16-.68-.67-.4-.19-.11z"/><path class="cls-1" d="M355.89 250.47l.51.3-.53.3-1.16-.69 1.19-.67-.01.76zm7.37 4.34l.9.53 7.28-4.13.01-.33.54.32-8.1 4.59-1.16-.69.53-.29z"/><path class="cls-16" d="M371.44 251.21l-7.28 4.13.06-7.79 7.29-4.13-.06 7.46-.01.33z"/><path class="cls-1" d="M357.25 251.27l1.17.69-.53.29-1.16-.68.52-.3zm4.02 2.37l1.16.68-.52.3-1.16-.68.52-.3z"/><path class="cls-1" d="M355.87 251.29l.72-.41.66.39-.52.3v.23l-.86-.51zm6.86 3.81v.23l-.82-.49.72-.4.63.37-.53.29z"/><path class="cls-11" d="M366.18 254.72v.09l1.16.69.01-1.27v-.18l-.15.09-1.02.58zm-3.45.61l-.82-.49v-.22l-1.16-.68v.22l-.87-.51v-.22l-1.16-.69v.23l-.83-.49v-.23l-1.16-.68v.23l-.86-.51v-.22l-1.16-.69v.41l-.02 1.26v.23l1.17.68v-.22l.01-1.27 1.09.64.19.12 1.56.92-.01 1.26v.23l1.16.68.01-.22.01-1.27 1.09.64.2.12 1.55.91-.01 1.27v.23l1.16.68.01-.22.01-1.27v-.4l-1.16-.69v.23zm7.93-3.15l-1.02.58v.09l1.16.68.01-1.26v-.18l-.15.09z"/><path class="cls-4" d="M359.88 253.83l-.01 1.27-.01.22 1.31-.73-.2-.12-1.09-.64zm-1.99-1.58v.23l.72-.41-.19-.11-.53.29zm2.52.88l-.53.3v.22l.72-.41-.19-.11zm-4.01-2.36l-.53.3v.22l.72-.41-.19-.11zm15.6.43l-8.1 4.59v1.9l8.1-4.59v-1.67l-1.17.66v1.44l-2.29 1.3v-1.44l1.12-.63 1-.58.15-.09 1.18-.67zm-4.64 3v1.27l-2.29 1.3v-1.44l1.12-.63 1-.58.15-.09zm-5.45.42v.22l.72-.4-.2-.12-.52.3zm-6.04-3.15l-.01 1.27v.22l1.29-.73-.19-.12-1.09-.64z"/><path class="cls-11" d="M355.96 242.69l7.29-4.13 8.26 4.86-7.29 4.13-8.26-4.86z"/><path class="cls-1" d="M378.56 262.08l1.16.68-2.29 1.3.01-1.27v-.08l1.12-.63zm2.33.02l.01-1.27v-.08l1.12-.63 1.16.68-2.29 1.3zm-9.79-2.09v.23l-.83-.49.72-.41.64.37-.53.3zm1.16.91l.72-.41.67.39-.52.3v.23l-.87-.51z"/><path class="cls-1" d="M372.79 260.39l-.53.3-1.16-.68.53-.3 1.16.68z"/><path class="cls-5" d="M372.79 260.39l-1.16-.68-.64-.37-.19-.12-1.17-.68-.66-.39-.19-.11-.51-.3.01-.76.06-7.03 8.26 4.86-.06 7.79-.9-.53-.63-.37-.2-.11-1.16-.69-.67-.39-.19-.12z"/><path class="cls-1" d="M368.27 257.74l.51.3-.53.29-1.16-.68 1.19-.67-.01.76zm7.37 4.33l.9.53 7.28-4.13.01-.32.54.32-8.1 4.58-1.16-.68.53-.3z"/><path class="cls-13" d="M383.82 258.47l-7.28 4.13.06-7.79 7.29-4.12-.06 7.46-.01.32z"/><path class="cls-1" d="M369.63 258.54l1.17.68-.53.3-1.16-.68.52-.3zm4.02 2.36l1.16.69-.52.29-1.16-.68.52-.3z"/><path class="cls-1" d="M368.25 258.56l.72-.41.66.39-.52.3v.22l-.86-.5zm6.86 3.81v.22l-.82-.48.72-.41.63.37-.53.3z"/><path class="cls-11" d="M378.56 261.98v.1l1.16.68.01-1.27v-.17l-.15.08-1.02.58zm-3.45.61l-.82-.48v-.23l-1.16-.68v.23l-.87-.51v-.23l-1.16-.68v.23l-.83-.49v-.23l-1.16-.68v.22l-.86-.5v-.23l-1.16-.68v.4l-.01 1.27-.01.23 1.17.68V260l.01-1.27 1.09.65.2.11 1.56.92-.02 1.27v.22l1.16.69.01-.23.01-1.27 1.09.65.2.11 1.56.92-.02 1.27v.22l1.16.69.01-.23.01-1.27v-.4l-1.16-.68v.22zm7.93-3.15l-1.02.58v.1l1.16.68.01-1.27v-.17l-.15.08z"/><path class="cls-4" d="M372.26 261.09l-.01 1.27-.01.23 1.31-.74-.2-.11-1.09-.65zm-1.99-1.57v.23l.72-.41-.19-.12-.53.3zm2.52.87l-.53.3v.23l.72-.41-.19-.12zm-4.01-2.35l-.53.29v.23l.72-.41-.19-.11zm15.59.43l-8.1 4.59v1.9l8.1-4.59v-1.67l-1.17.66v1.44l-2.29 1.3v-1.44L382 260l1-.58.15-.09 1.18-.67zm-4.64 3v1.27l-2.29 1.3v-1.44l1.12-.63 1-.58.15-.09zm-5.44.41v.23l.72-.41-.2-.11-.52.29zm-6.04-3.15l-.01 1.27v.23l1.3-.74-.2-.11-1.09-.65z"/><path class="cls-17" d="M368.34 249.95l7.29-4.12 8.26 4.86-7.29 4.12-8.26-4.86z"/><path class="cls-1" d="M342.15 254.25l1.16.69-2.29 1.29.01-1.27v-.08l1.12-.63zm2.33.02l.01-1.27v-.08l1.12-.63 1.16.68-2.29 1.3zm-9.79-2.09v.23l-.83-.49.72-.41.64.38-.53.29zm1.16.91l.72-.41.67.4-.52.3v.22l-.87-.51z"/><path class="cls-1" d="M336.38 252.57l-.53.3-1.16-.69.53-.29 1.16.68z"/><path class="cls-5" d="M336.38 252.57l-1.16-.68-.64-.38-.19-.11-1.16-.69-.67-.39-.19-.11-.5-.3v-.76l.06-7.02 8.26 4.86-.06 7.79-.9-.53-.63-.37-.2-.12-1.16-.68-.67-.4-.19-.11z"/><path class="cls-1" d="M331.87 249.91l.5.3-.53.3-1.16-.69 1.19-.67v.76zm7.36 4.34l.9.53 7.29-4.13v-.33l.54.32-8.1 4.59-1.16-.69.53-.29z"/><path class="cls-13" d="M347.42 250.65l-7.29 4.13.06-7.79 7.29-4.13-.06 7.46v.33z"/><path class="cls-1" d="M333.23 250.71l1.16.69-.53.29-1.16-.68.53-.3zm4.01 2.37l1.16.68-.52.3-1.16-.68.52-.3z"/><path class="cls-1" d="M331.84 250.73l.72-.41.67.39-.53.3v.23l-.86-.51zm6.86 3.81v.23l-.82-.49.72-.4.63.37-.53.29z"/><path class="cls-11" d="M342.15 254.16v.09l1.16.69.01-1.27v-.18l-.15.09-1.02.58zm-3.45.61l-.82-.49v-.22l-1.16-.68v.22l-.87-.51v-.22l-1.16-.69v.23l-.83-.49v-.23l-1.16-.68v.23l-.86-.51v-.22l-1.16-.69v.41l-.01 1.26-.01.23 1.16.68.01-.22.01-1.27 1.09.64.2.12 1.56.92-.01 1.26-.01.23 1.16.68.01-.22.01-1.27 1.09.64.2.12 1.55.91v1.27l-.01.23 1.16.68.01-.22.01-1.27v-.4l-1.16-.69v.23zm7.93-3.15l-1.02.58v.09l1.16.68.01-1.26v-.18l-.15.09z"/><path class="cls-4" d="M335.85 253.27l-.01 1.27-.01.22 1.31-.73-.2-.12-1.09-.64zm-1.99-1.58v.23l.72-.41-.19-.11-.53.29zm2.52.88l-.53.3v.22l.72-.41-.19-.11zm-4.01-2.36l-.53.3v.22l.72-.41-.19-.11zm15.63.43l-8.1 4.59v1.9l8.1-4.59v-1.67l-1.17.66V253l-2.29 1.3v-1.44l1.12-.63 1-.58.15-.09 1.18-.67zm-4.64 3v1.27l-2.29 1.3v-1.44l1.12-.63 1-.58.15-.09zm-5.48.42v.22l.72-.4-.2-.12-.52.3zm-6.04-3.15l-.01 1.27-.01.22 1.31-.73-.2-.12-1.09-.64z"/><path class="cls-17" d="M331.93 242.13l7.29-4.13 8.26 4.86-7.29 4.13-8.26-4.86z"/><path class="cls-1" d="M354.53 261.52l1.16.68-2.29 1.3.01-1.27v-.08l1.12-.63zm2.33.02l.01-1.27v-.08l1.12-.63 1.16.68-2.29 1.3zm-9.79-2.09v.23l-.83-.49.72-.41.64.37-.53.3zm1.16.91l.72-.41.67.39-.52.3v.23l-.87-.51z"/><path class="cls-1" d="M348.76 259.83l-.53.3-1.16-.68.53-.3 1.16.68z"/><path class="cls-7" d="M348.76 259.83l-1.16-.68-.64-.37-.19-.12-1.16-.68-.67-.39-.19-.11-.5-.3v-.76l.06-7.03 8.26 4.86-.06 7.79-.9-.53-.63-.37-.19-.11-1.17-.69-.67-.39-.19-.12z"/><path class="cls-1" d="M344.25 257.18l.5.3-.53.29-1.16-.68 1.19-.67v.76zm7.36 4.33l.9.53 7.29-4.13v-.32l.54.32-8.1 4.58-1.16-.68.53-.3z"/><path class="cls-3" d="M359.8 257.91l-7.29 4.13.06-7.79 7.29-4.12-.06 7.46v.32z"/><path class="cls-1" d="M345.61 257.98l1.16.68-.53.3-1.16-.68.53-.3zm4.01 2.36l1.17.69-.53.29-1.16-.68.52-.3z"/><path class="cls-1" d="M344.22 258l.72-.41.67.39-.53.3v.22l-.86-.5zm6.86 3.81v.22l-.82-.48.72-.41.63.37-.53.3z"/><path class="cls-11" d="M354.53 261.42v.1l1.16.68.01-1.27v-.17l-.15.08-1.02.58zm-3.45.61l-.82-.48v-.23l-1.16-.68v.23l-.87-.51v-.23l-1.16-.68v.23l-.83-.49v-.23l-1.16-.68v.22l-.86-.5v-.23l-1.16-.68v.4l-.01 1.27-.01.23 1.16.68.01-.23.01-1.27 1.09.65.2.11 1.56.92-.01 1.27-.01.23 1.16.68.01-.23.01-1.27 1.09.65.2.11 1.56.92-.02 1.27v.22l1.17.69v-.23l.01-1.27v-.4l-1.16-.68v.22zm7.93-3.15l-1.02.58v.1l1.16.68.01-1.27v-.17l-.15.08z"/><path class="cls-4" d="M348.23 260.53l-.01 1.27-.01.23 1.31-.74-.2-.11-1.09-.65zm-1.99-1.57v.23l.72-.41-.19-.12-.53.3zm2.52.87l-.53.3v.23l.72-.41-.19-.12zm-4.01-2.35l-.53.29v.23l.72-.41-.19-.11zm15.59.43l-8.1 4.59v1.9l8.1-4.59v-1.67l-1.17.66v1.44l-2.29 1.3v-1.44l1.12-.63 1-.58.15-.09 1.18-.67zm-4.64 3v1.27l-2.29 1.3v-1.44l1.12-.63 1-.58.15-.09zm-5.44.41v.23l.72-.41-.19-.11-.53.29zm-6.04-3.15l-.01 1.27-.01.23 1.31-.74-.2-.11-1.09-.65z"/><path class="cls-8" d="M344.31 249.39l7.29-4.12 8.26 4.86-7.29 4.12-8.26-4.86z"/><path class="cls-1" d="M366.91 268.78l1.16.69-2.29 1.29.01-1.27v-.07l1.12-.64zm2.33.02l.01-1.27v-.08l1.12-.63 1.16.69-2.29 1.29zm-9.79-2.09v.23l-.83-.49.72-.41.64.38-.53.29zm1.16.91l.72-.41.67.4-.52.3v.22l-.87-.51z"/><path class="cls-1" d="M361.14 267.1l-.53.3-1.16-.69.53-.29 1.16.68z"/><path class="cls-1" d="M361.14 267.1l-1.16-.68-.64-.38-.19-.11-1.16-.69-.67-.38-.19-.12-.5-.3v-.76l.06-7.02 8.26 4.86-.06 7.79-.9-.54-.63-.36-.19-.12-1.17-.68-.67-.4-.19-.11z"/><path class="cls-1" d="M356.63 264.44l.5.3-.53.3-1.16-.68 1.19-.68v.76zm7.36 4.33l.9.54 7.29-4.13v-.33l.54.32-8.1 4.59-1.16-.69.53-.3z"/><path class="cls-11" d="M372.18 265.18l-7.29 4.13.06-7.79 7.29-4.13-.06 7.46v.33z"/><path class="cls-1" d="M357.99 265.24l1.16.69-.53.3-1.16-.69.53-.3zm4.01 2.37l1.17.68-.53.3-1.16-.68.52-.3z"/><path class="cls-1" d="M356.6 265.26l.72-.4.67.38-.53.3v.23l-.86-.51zm6.86 3.81v.23l-.82-.49.72-.4.63.36-.53.3z"/><path class="cls-11" d="M366.91 268.69v.09l1.16.69.01-1.27v-.18l-.15.09-1.02.58zm-3.45.61l-.82-.49v-.22l-1.16-.68v.22l-.87-.51v-.22l-1.16-.69v.23l-.83-.49v-.22l-1.16-.69v.23l-.86-.51v-.22l-1.16-.68v.4l-.01 1.26v.23l1.16.68v-.22l.01-1.27 1.09.64.2.12 1.56.92-.01 1.26-.01.23 1.17.68v-.22l.01-1.27 1.09.64.2.12 1.56.92-.02 1.26v.23l1.17.68v-.22l.01-1.27v-.4l-1.16-.69v.23zm7.93-3.15l-1.02.58v.09l1.16.69.01-1.27v-.18l-.15.09z"/><path class="cls-4" d="M360.61 267.8l-.01 1.27v.22l1.3-.73-.2-.12-1.09-.64zm-1.99-1.57v.22l.72-.41-.19-.11-.53.3zm2.52.87l-.53.3v.22l.72-.41-.19-.11zm-4.01-2.36l-.53.3v.22l.72-.4-.19-.12zm15.59.43l-8.1 4.59v1.9l8.1-4.59v-1.67l-1.17.66v1.44l-2.29 1.3v-1.44l1.12-.63 1-.58.15-.09 1.18-.67zm-4.64 3v1.27l-2.29 1.3v-1.44l1.12-.63 1-.58.15-.09zm-5.44.42v.22l.72-.4-.19-.12-.53.3zm-6.04-3.15l-.01 1.27v.22l1.3-.73-.2-.12-1.09-.64z"/><path class="cls-15" d="M356.69 256.66l7.29-4.13 8.26 4.86-7.29 4.13-8.26-4.86z"/><path class="cls-1" d="M417.33 272.85a9.37 9.37 0 01-3.41 1.51l4.28 5.15-11.27-3.12-105.62-29.22-12.21-3.38 3-1.74a7.64 7.64 0 01-1-.66l-.25.07a9 9 0 01-4 .17l-4.81 2.78-.16.09 145.24 40.19z"/><path class="cls-4" d="M427.16 284.69l-145.42 45.02.13-60.61v-1.04l.01-4.96.02-5.6.03-12.99 145.23 40.18z"/><path class="cls-7" d="M145.48 143.51l.09-10.51 11.16 6.56-.09 10.51-11.16-6.56z"/><path class="cls-3" d="M166.48 144.5l-9.84 5.57.09-10.51 9.83-5.57-.08 10.07v.44z"/><path class="cls-8" d="M145.57 133l9.84-5.58 11.15 6.57-9.83 5.57-11.16-6.56z"/><path class="cls-5" d="M158.26 150.92l.09-10.51 11.15 6.56-.08 10.51-11.16-6.56z"/><path class="cls-13" d="M179.26 151.91l-9.84 5.57.08-10.51 9.84-5.57-.08 10.07v.44z"/><path class="cls-17" d="M167.02 145.51l-8.67-5.1 9.84-5.58 11.15 6.57-9.84 5.57-2.48-1.46z"/><path class="cls-1" d="M171.04 158.54l.09-10.51 11.15 6.56-.08 10.51-11.16-6.56z"/><path class="cls-11" d="M192.04 159.53l-9.84 5.57.08-10.51 9.84-5.57-.08 10.07v.44z"/><path class="cls-15" d="M171.13 148.03l9.84-5.58 11.15 6.57-9.84 5.57-11.15-6.56z"/><path class="cls-5" d="M183.82 165.74l.09-10.52 11.15 6.57-.08 10.51-11.16-6.56z"/><path class="cls-13" d="M204.82 166.73l-9.84 5.57.08-10.51 9.84-5.57-.08 10.07v.44z"/><path class="cls-17" d="M183.91 155.22l9.84-5.57 11.15 6.57-9.84 5.57-11.15-6.57z"/><path class="cls-4" d="M155.32 137.72l.09-10.51 11.15 6.57-.08 10.51-11.16-6.57z"/><path class="cls-16" d="M176.32 138.72l-9.84 5.57.08-10.51 9.84-5.58-.08 10.08v.44z"/><path class="cls-11" d="M164.08 132.31l-8.67-5.1 9.84-5.57 11.15 6.56-9.84 5.58-2.48-1.47z"/><path class="cls-1" d="M168.1 145.35l.09-10.52 11.15 6.57-.08 10.51-11.16-6.56z"/><path class="cls-11" d="M189.1 146.34l-9.84 5.57.08-10.51 9.84-5.58-.08 10.08v.44z"/><path class="cls-15" d="M168.19 134.83l9.84-5.57 11.15 6.56-9.84 5.58-11.15-6.57z"/><path class="cls-4" d="M180.88 152.54l.09-10.51 11.15 6.56-.08 10.52-11.16-6.57z"/><path class="cls-16" d="M201.88 153.54l-9.84 5.57.08-10.52 9.84-5.57-.08 10.08v.44z"/><path class="cls-11" d="M180.97 142.03l9.84-5.57 11.15 6.56-9.84 5.57-11.15-6.56z"/><path class="cls-5" d="M175.4 137.69l.09-10.51 11.16 6.56-.09 10.52-11.16-6.57z"/><path class="cls-13" d="M196.4 138.69l-9.84 5.57.09-10.52 9.84-5.57-.09 10.07v.45z"/><path class="cls-17" d="M175.49 127.18l9.84-5.57 11.16 6.56-9.84 5.57-11.16-6.56z"/><path class="cls-7" d="M128.66 151.35l.09-10.51 11.15 6.56-.09 10.52-11.15-6.57z"/><path class="cls-3" d="M149.65 152.34l-9.84 5.58.09-10.52 9.84-5.57-.08 10.07-.01.44z"/><path class="cls-8" d="M128.75 140.84l9.83-5.58 11.16 6.57-9.84 5.57-11.15-6.56z"/><path class="cls-5" d="M141.44 158.76l.09-10.51 11.15 6.56-.09 10.52-11.15-6.57z"/><path class="cls-13" d="M162.43 159.75l-9.84 5.58.09-10.52 9.84-5.57-.08 10.07-.01.44z"/><path class="cls-17" d="M150.2 153.35l-8.67-5.1 9.83-5.58 11.16 6.57-9.84 5.57-2.48-1.46z"/><path class="cls-1" d="M154.22 166.38l.08-10.51 11.16 6.56-.09 10.52-11.15-6.57z"/><path class="cls-11" d="M175.21 167.37l-9.84 5.58.09-10.52 9.84-5.57-.08 10.07-.01.44z"/><path class="cls-15" d="M154.3 155.87l9.84-5.58 11.16 6.57-9.84 5.57-11.16-6.56z"/><path class="cls-7" d="M167 173.58l.08-10.52 11.16 6.57-.09 10.52-11.15-6.57z"/><path class="cls-3" d="M187.99 174.57l-9.84 5.58.09-10.52 9.84-5.57-.08 10.07-.01.44z"/><path class="cls-8" d="M167.08 163.06l9.84-5.57 11.16 6.57-9.84 5.57-11.16-6.57z"/><path class="cls-4" d="M138.5 145.57l.08-10.52 11.16 6.57-.09 10.51-11.15-6.56z"/><path class="cls-16" d="M159.49 146.56l-9.84 5.57.09-10.51 9.84-5.58-.08 10.08-.01.44z"/><path class="cls-11" d="M147.26 140.16l-8.68-5.11 9.84-5.57 11.16 6.56-9.84 5.58-2.48-1.46z"/><path class="cls-1" d="M151.28 153.19l.08-10.52 11.16 6.57-.09 10.51-11.15-6.56z"/><path class="cls-11" d="M172.27 154.18l-9.84 5.57.09-10.51 9.84-5.57-.08 10.07-.01.44z"/><path class="cls-15" d="M151.36 142.67l9.84-5.57 11.16 6.57-9.84 5.57-11.16-6.57z"/><path class="cls-1" d="M164.06 160.38l.08-10.51 11.16 6.57-.09 10.51-11.15-6.57z"/><path class="cls-11" d="M185.05 161.38l-9.84 5.57.09-10.51 9.84-5.58-.08 10.08-.01.44z"/><path class="cls-15" d="M164.14 149.87l9.84-5.57 11.16 6.56-9.84 5.58-11.16-6.57z"/><path class="cls-5" d="M146 138.61l.09-10.52 11.15 6.57-.08 10.51-11.16-6.56z"/><path class="cls-13" d="M167 139.6l-9.84 5.57.08-10.51 9.84-5.57-.08 10.07v.44z"/><path class="cls-17" d="M154.76 133.2l-8.67-5.11 9.84-5.57 11.15 6.57-9.84 5.57-2.48-1.46z"/><path class="cls-5" d="M158.58 145.53l.08-10.51 11.16 6.57-.08 10.51-11.16-6.57z"/><path class="cls-13" d="M179.57 146.53l-9.83 5.57.08-10.51 9.84-5.58-.08 10.08-.01.44z"/><path class="cls-17" d="M158.66 135.02l9.84-5.57 11.16 6.56-9.84 5.58-11.16-6.57z"/><path class="cls-5" d="M141.48 122.66l.09-10.52 11.15 6.57-.08 10.51-11.16-6.56z"/><path class="cls-13" d="M162.48 123.65l-9.84 5.57.08-10.51 9.84-5.57-.08 10.07v.44z"/><path class="cls-17" d="M141.57 112.14l9.84-5.57 11.15 6.57-9.84 5.57-11.15-6.57z"/><path class="cls-1" d="M153.6 131.55l.09-10.51 11.15 6.57-.08 10.51-11.16-6.57z"/><path class="cls-11" d="M174.6 132.55l-9.84 5.57.08-10.51 9.84-5.58-.08 10.08v.44z"/><path class="cls-15" d="M153.69 121.04l9.84-5.57 11.15 6.56-9.84 5.58-11.15-6.57z"/><path class="cls-7" d="M106.76 151.92l.09-10.52 11.16 6.57-.09 10.51-11.16-6.56z"/><path class="cls-3" d="M127.76 152.91l-9.84 5.57.09-10.51 9.84-5.57-.09 10.07v.44z"/><path class="cls-8" d="M106.85 141.4l9.84-5.57 11.16 6.57-9.84 5.57-11.16-6.57z"/><path class="cls-5" d="M119.54 159.33l.09-10.52 11.16 6.57-.09 10.51-11.16-6.56z"/><path class="cls-13" d="M140.54 160.32l-9.84 5.57.09-10.51 9.84-5.57-.09 10.07v.44z"/><path class="cls-17" d="M128.3 153.92l-8.67-5.11 9.84-5.57 11.16 6.57-9.84 5.57-2.49-1.46z"/><path class="cls-1" d="M132.32 166.95l.09-10.52 11.16 6.57-.09 10.51-11.16-6.56z"/><path class="cls-11" d="M153.32 167.94l-9.84 5.57.09-10.51 9.84-5.57-.09 10.07v.44z"/><path class="cls-15" d="M132.41 156.43l9.84-5.57 11.16 6.57-9.84 5.57-11.16-6.57z"/><path class="cls-4" d="M145.1 174.15l.09-10.52 11.16 6.57-.09 10.51-11.16-6.56z"/><path class="cls-16" d="M166.1 175.14l-9.84 5.57.09-10.51 9.84-5.58-.09 10.08v.44z"/><path class="cls-11" d="M145.19 163.63l9.84-5.57 11.16 6.56-9.84 5.58-11.16-6.57z"/><path class="cls-4" d="M116.6 146.13l.09-10.51 11.16 6.57-.09 10.51-11.16-6.57z"/><path class="cls-16" d="M137.6 147.13l-9.84 5.57.09-10.51 9.84-5.58-.09 10.08v.44z"/><path class="cls-11" d="M125.36 140.72l-8.67-5.1 9.84-5.57 11.16 6.56-9.84 5.58-2.49-1.47z"/><path class="cls-1" d="M129.38 153.75l.09-10.51 11.16 6.57-.09 10.51-11.16-6.57z"/><path class="cls-11" d="M150.38 154.75l-9.84 5.57.09-10.51 9.84-5.58-.09 10.08v.44z"/><path class="cls-15" d="M129.47 143.24l9.84-5.57 11.16 6.56-9.84 5.58-11.16-6.57z"/><path class="cls-7" d="M142.16 160.95l.09-10.51 11.16 6.56-.09 10.52-11.16-6.57z"/><path class="cls-18" d="M163.16 161.94l-9.84 5.58.09-10.52 9.84-5.57-.09 10.07v.44z"/><path class="cls-8" d="M142.25 150.44l9.84-5.57 11.16 6.56-9.84 5.57-11.16-6.56z"/><path class="cls-5" d="M124.11 139.18l.08-10.52 11.16 6.57-.09 10.51-11.15-6.56z"/><path class="cls-13" d="M145.1 140.17l-9.84 5.57.09-10.51 9.84-5.58-.08 10.08-.01.44z"/><path class="cls-17" d="M132.87 133.77l-8.68-5.11 9.84-5.57 11.16 6.56-9.84 5.58-2.48-1.46z"/><path class="cls-7" d="M136.68 146.1l.09-10.51 11.16 6.56-.09 10.52-11.16-6.57z"/><path class="cls-18" d="M157.68 147.09l-9.84 5.58.09-10.52 9.84-5.57-.09 10.07v.44z"/><path class="cls-8" d="M136.77 135.59l9.84-5.58 11.16 6.57-9.84 5.57-11.16-6.56z"/><path class="cls-1" d="M131.71 132.12l.08-10.51 11.16 6.56-.09 10.52-11.15-6.57z"/><path class="cls-11" d="M152.7 133.11l-9.84 5.58.09-10.52 9.84-5.57-.08 10.07-.01.44z"/><path class="cls-15" d="M131.79 121.61l9.84-5.58 11.16 6.57-9.84 5.57-11.16-6.56z"/><path class="cls-7" d="M178.21 174.02l.09-10.51 11.15 6.56-.08 10.52-11.16-6.57z"/><path class="cls-3" d="M199.21 175.01l-9.84 5.58.08-10.52 9.84-5.57-.08 10.07v.44z"/><path class="cls-8" d="M178.3 163.51l9.83-5.57 11.16 6.56-9.84 5.57-11.15-6.56z"/><path class="cls-5" d="M190.99 181.43l.08-10.51 11.16 6.56-.08 10.52-11.16-6.57z"/><path class="cls-13" d="M211.98 182.42l-9.83 5.58.08-10.52 9.84-5.57-.08 10.07-.01.44z"/><path class="cls-17" d="M199.75 176.02l-8.68-5.1 9.84-5.58 11.16 6.57-9.84 5.57-2.48-1.46z"/><path class="cls-1" d="M203.77 189.05l.08-10.51 11.16 6.56-.08 10.52-11.16-6.57z"/><path class="cls-11" d="M224.76 190.04l-9.83 5.58.08-10.52 9.84-5.57-.08 10.07-.01.44z"/><path class="cls-15" d="M203.85 178.54l9.84-5.57 11.16 6.56-9.84 5.57-11.16-6.56z"/><path class="cls-4" d="M216.55 196.25l.08-10.51 11.16 6.56-.09 10.51-11.15-6.56z"/><path class="cls-16" d="M237.54 197.24l-9.84 5.57.09-10.51 9.84-5.57-.08 10.07-.01.44z"/><path class="cls-11" d="M216.63 185.74l9.84-5.58 11.16 6.57-9.84 5.57-11.16-6.56z"/><path class="cls-4" d="M188.05 168.24l.08-10.52 11.16 6.57-.08 10.51-11.16-6.56z"/><path class="cls-16" d="M209.04 169.23l-9.83 5.57.08-10.51 9.84-5.57-.08 10.07-.01.44z"/><path class="cls-11" d="M196.81 162.83l-8.68-5.11 9.84-5.57 11.16 6.57-9.84 5.57-2.48-1.46z"/><path class="cls-1" d="M200.83 175.86l.08-10.52 11.16 6.57-.09 10.51-11.15-6.56z"/><path class="cls-11" d="M221.82 176.85l-9.84 5.57.09-10.51 9.84-5.57-.08 10.07-.01.44z"/><path class="cls-15" d="M200.91 165.34l9.84-5.57 11.16 6.57-9.84 5.57-11.16-6.57z"/><path class="cls-7" d="M213.61 183.06l.08-10.52 11.16 6.57-.09 10.51-11.15-6.56z"/><path class="cls-18" d="M234.6 184.05l-9.84 5.57.09-10.51 9.84-5.58-.08 10.08-.01.44z"/><path class="cls-8" d="M213.69 172.54l9.84-5.57 11.16 6.56-9.84 5.58-11.16-6.57z"/><path class="cls-5" d="M195.55 161.28l.09-10.52 11.15 6.57-.08 10.51-11.16-6.56z"/><path class="cls-13" d="M216.55 162.27l-9.84 5.57.08-10.51 9.84-5.57-.08 10.07v.44z"/><path class="cls-17" d="M204.31 155.87l-8.67-5.11 9.84-5.57 11.15 6.57-9.84 5.57-2.48-1.46z"/><path class="cls-7" d="M208.13 168.2l.09-10.51 11.15 6.57-.08 10.51-11.16-6.57z"/><path class="cls-18" d="M229.13 169.2l-9.84 5.57.08-10.51 9.84-5.58-.08 10.08v.44z"/><path class="cls-8" d="M208.22 157.69l9.84-5.57 11.15 6.56-9.84 5.58-11.15-6.57z"/><path class="cls-1" d="M203.15 154.22l.09-10.51 11.16 6.57-.09 10.51-11.16-6.57z"/><path class="cls-11" d="M224.15 155.22l-9.84 5.57.09-10.51 9.84-5.58-.09 10.08v.44z"/><path class="cls-15" d="M203.24 143.71l9.84-5.57 11.16 6.56-9.84 5.58-11.16-6.57z"/><path class="cls-7" d="M161.28 184.26l.09-10.52 11.15 6.57-.08 10.51-11.16-6.56z"/><path class="cls-18" d="M182.27 185.25l-9.83 5.57.08-10.51 9.84-5.57-.08 10.07-.01.44z"/><path class="cls-8" d="M161.37 173.74l9.83-5.57 11.16 6.57-9.84 5.57-11.15-6.57z"/><path class="cls-5" d="M174.06 191.67l.08-10.52 11.16 6.57-.09 10.51-11.15-6.56z"/><path class="cls-13" d="M195.05 192.66l-9.84 5.57.09-10.51 9.84-5.58-.08 10.08-.01.44z"/><path class="cls-17" d="M182.82 186.25l-8.68-5.1 9.84-5.57 11.16 6.56-9.84 5.58-2.48-1.47z"/><path class="cls-1" d="M186.84 199.29l.08-10.52 11.16 6.57-.09 10.51-11.15-6.56z"/><path class="cls-11" d="M207.83 200.28l-9.84 5.57.09-10.51 9.84-5.58-.08 10.08-.01.44z"/><path class="cls-15" d="M186.92 188.77l9.84-5.57 11.16 6.56-9.84 5.58-11.16-6.57z"/><path class="cls-7" d="M199.62 206.48l.08-10.51 11.16 6.57-.09 10.51-11.15-6.57z"/><path class="cls-18" d="M220.61 207.48l-9.84 5.57.09-10.51 9.84-5.58-.08 10.08-.01.44z"/><path class="cls-8" d="M199.7 195.97l9.84-5.57 11.16 6.56-9.84 5.58-11.16-6.57z"/><path class="cls-4" d="M171.12 178.47l.08-10.51 11.16 6.56-.09 10.52-11.15-6.57z"/><path class="cls-16" d="M192.11 179.46l-9.84 5.58.09-10.52 9.84-5.57-.08 10.07-.01.44z"/><path class="cls-11" d="M179.88 173.06l-8.68-5.1 9.84-5.58 11.16 6.57-9.84 5.57-2.48-1.46z"/><path class="cls-1" d="M183.9 186.09l.08-10.51 11.16 6.56-.09 10.52-11.15-6.57z"/><path class="cls-11" d="M204.89 187.09l-9.84 5.57.09-10.52 9.84-5.57-.08 10.07-.01.45z"/><path class="cls-15" d="M183.98 175.58l9.84-5.57 11.16 6.56-9.84 5.57-11.16-6.56z"/><path class="cls-1" d="M196.68 193.29l.08-10.51 11.16 6.56-.09 10.52-11.15-6.57z"/><path class="cls-11" d="M217.67 194.28l-9.84 5.58.09-10.52 9.84-5.57-.08 10.07-.01.44z"/><path class="cls-15" d="M196.76 182.78l9.84-5.58 11.16 6.57-9.84 5.57-11.16-6.56z"/><path class="cls-5" d="M178.62 171.51l.09-10.51 11.15 6.56-.08 10.52-11.16-6.57z"/><path class="cls-13" d="M199.62 172.51l-9.84 5.57.08-10.52 9.84-5.57-.08 10.07v.45z"/><path class="cls-17" d="M187.38 166.1l-8.67-5.1 9.84-5.57 11.15 6.56-9.84 5.57-2.48-1.46z"/><path class="cls-5" d="M191.2 178.44l.08-10.51 11.16 6.56-.09 10.51-11.15-6.56z"/><path class="cls-13" d="M212.19 179.43l-9.84 5.57.09-10.51 9.84-5.57-.08 10.07-.01.44z"/><path class="cls-17" d="M191.28 167.93l9.84-5.58 11.16 6.57-9.84 5.57-11.16-6.56z"/><path class="cls-1" d="M186.22 164.46l.09-10.51 11.16 6.56-.09 10.51-11.16-6.56z"/><path class="cls-11" d="M207.22 165.45l-9.84 5.57.09-10.51 9.83-5.57-.08 10.07v.44z"/><path class="cls-15" d="M186.31 153.95l9.84-5.58 11.15 6.57-9.83 5.57-11.16-6.56z"/><path class="cls-7" d="M258.92 203.69l.09-10.52 11.16 6.57-.09 10.51-11.16-6.56z"/><path class="cls-18" d="M279.92 204.68l-9.84 5.57.09-10.51 9.83-5.58-.08 10.08v.44z"/><path class="cls-8" d="M259.01 193.17l9.84-5.57 11.15 6.56-9.83 5.58-11.16-6.57z"/><path class="cls-4" d="M231.27 186.91l.09-10.52 11.16 6.57-.09 10.51-11.16-6.56z"/><path class="cls-16" d="M252.27 187.9l-9.84 5.57.09-10.51 9.83-5.58-.08 10.08v.44z"/><path class="cls-11" d="M231.36 176.39l9.84-5.57 11.15 6.56-9.83 5.58-11.16-6.57z"/><path class="cls-4" d="M275.66 213.26l.09-10.52 11.15 6.57-.09 10.51-11.15-6.56z"/><path class="cls-16" d="M296.65 214.25l-9.84 5.57.09-10.51 9.84-5.57-.08 10.07-.01.44z"/><path class="cls-11" d="M275.75 202.74l9.83-5.57 11.16 6.57-9.84 5.57-11.15-6.57z"/><path class="cls-7" d="M231.59 196.57l.08-10.51 11.16 6.56-.09 10.52-11.15-6.57z"/><path class="cls-18" d="M252.58 197.57l-9.84 5.57.09-10.52 9.84-5.57-.08 10.07-.01.45z"/><path class="cls-8" d="M231.67 186.06l9.84-5.57 11.16 6.56-9.84 5.57-11.16-6.56z"/><path class="cls-5" d="M269.46 222.68l.09-10.51 11.16 6.56-.09 10.52-11.16-6.57z"/><path class="cls-13" d="M290.46 223.67l-9.84 5.58.09-10.52 9.84-5.57-.09 10.07v.44z"/><path class="cls-17" d="M269.55 212.17l9.84-5.58 11.16 6.57-9.84 5.57-11.16-6.56z"/><path class="cls-7" d="M216.17 213.5l.08-10.51 11.16 6.56-.09 10.52-11.15-6.57z"/><path class="cls-18" d="M237.16 214.49l-9.84 5.58.09-10.52 9.84-5.57-.08 10.07-.01.44z"/><path class="cls-8" d="M216.25 202.99l9.84-5.57 11.16 6.56-9.84 5.57-11.16-6.56z"/><path class="cls-5" d="M228.95 220.91l.08-10.51 11.16 6.56-.09 10.52-11.15-6.57z"/><path class="cls-13" d="M249.94 221.9l-9.84 5.58.09-10.52 9.84-5.57-.08 10.07-.01.44z"/><path class="cls-17" d="M237.71 215.5l-8.68-5.1 9.84-5.58 11.16 6.57-9.84 5.57-2.48-1.46z"/><path class="cls-1" d="M241.73 228.53l.08-10.51 11.16 6.56-.09 10.52-11.15-6.57z"/><path class="cls-11" d="M262.72 229.53l-9.84 5.57.09-10.52 9.84-5.57-.08 10.07-.01.45z"/><path class="cls-15" d="M241.81 218.02l9.84-5.57 11.16 6.56-9.84 5.57-11.16-6.56z"/><path class="cls-5" d="M254.51 235.73l.08-10.51 11.16 6.56-.09 10.51-11.15-6.56z"/><path class="cls-13" d="M275.5 236.72l-9.84 5.57.09-10.51 9.84-5.57-.09 10.07v.44z"/><path class="cls-17" d="M254.59 225.22l9.84-5.58 11.16 6.57-9.84 5.57-11.16-6.56z"/><path class="cls-4" d="M226.01 207.72l.08-10.52 11.16 6.57-.09 10.51-11.15-6.56z"/><path class="cls-16" d="M247 208.71l-9.84 5.57.09-10.51 9.84-5.57-.08 10.07-.01.44z"/><path class="cls-11" d="M234.77 202.31l-8.68-5.11 9.84-5.57 11.16 6.57-9.84 5.57-2.48-1.46z"/><path class="cls-1" d="M238.79 215.34l.08-10.52 11.16 6.57-.09 10.51-11.15-6.56z"/><path class="cls-11" d="M259.78 216.33l-9.84 5.57.09-10.51 9.84-5.57-.08 10.07-.01.44z"/><path class="cls-15" d="M238.87 204.82l9.84-5.57 11.16 6.57-9.84 5.57-11.16-6.57z"/><path class="cls-4" d="M251.57 222.54l.08-10.52 11.16 6.57-.09 10.51-11.15-6.56z"/><path class="cls-16" d="M272.56 223.53l-9.84 5.57.09-10.51 9.84-5.58-.09 10.08v.44z"/><path class="cls-11" d="M251.65 212.02l9.84-5.57 11.16 6.56-9.84 5.58-11.16-6.57z"/><path class="cls-5" d="M246.09 207.69l.08-10.52 11.16 6.57-.09 10.51-11.15-6.56z"/><path class="cls-13" d="M267.08 208.68l-9.84 5.57.09-10.51 9.84-5.58-.08 10.08-.01.44z"/><path class="cls-17" d="M246.17 197.17l9.84-5.57 11.16 6.56-9.84 5.58-11.16-6.57z"/></g></g></svg>