<svg xmlns="http://www.w3.org/2000/svg" viewBox="0 0 370.96 247.47"><defs><style>.cls-1{fill:#2c65d6}.cls-2{fill:#15298c}.cls-3{fill:#3046b5}.cls-4{fill:#fe5773}.cls-5{fill:#f74169}.cls-6{fill:#bddff4}.cls-7{fill:#5ea6d3}.cls-8{fill:#ca4560}.cls-9{fill:#e2f1f7}.cls-10{fill:#90caf4}.cls-11{fill:#2030a5}.cls-12{fill:#3685fc}</style></defs><g id="Слой_2" data-name="Слой 2"><g id="Layer_1" data-name="Layer 1"><path class="cls-1" d="M49.49 233c6.1 3.56 5.38 3.16 5.74 3.31a4.26 4.26 0 012.08 2.46c-.1-5.13-3.46-7.46-7.82-5.77z"/><path class="cls-2" d="M91.08 212.81c1.13-4 4.55-9 8.82-10.72 3.67-1.48 6.94.58 6.65 6.1-.21 4.05-3 9.43-6.95 12.44-5.66 4.32-10.9.75-8.52-7.82zm2.61 4.08c1.7 4.75 9.62-.49 10-7.58a3.87 3.87 0 00-1.36-3.49 3.43 3.43 0 00-2.91-.15c-4.18 1.68-6.97 7.74-5.73 11.22z"/><path class="cls-3" d="M92.15 195.42c-3.32-.63-6.51 2-8.65 4.59a19.41 19.41 0 00-1.91 2.88c-2.55 4.85-2.42 8.44-1.47 10.69a4.27 4.27 0 001.76 2l11 6.34c-1.93-1.2-2.41-3.34-2.37-5.6.43-8.33 8.57-16.83 13.72-14.15-12.15-7-11.18-6.52-12.08-6.75z"/><path class="cls-3" d="M101.55 205.49c1.36 1.55 1 4 .37 5.94-1.8 4.84-5.53 7-7.58 6.49 2.26 2.22 7-.66 8.87-6.09 1.26-4.04-.28-6.15-1.66-6.34z"/><path class="cls-4" d="M98.64 208.46c-2.33-.44-5 4.33-2.89 5.66l1.59.92c-2.06-1.28 1-6.69 3.18-5.55-1.63-.94-1.52-.99-1.88-1.03z"/><path class="cls-5" d="M97.32 211.36c1.32-2.37 3.84-3 3.87-.41 0 3.39-4.84 6.66-4.52 2.4a5.1 5.1 0 01.65-1.99z"/><path class="cls-6" d="M101.53 205.47c3.25 3.64-2.3 13.38-7.14 12.47h-.13c-3.41-3.83 2.79-13.94 7.27-12.47zm-5.78 8.66c1.82 1 1.72 1 2.15 1.06 2.34 0 4.34-4.59 2.62-5.7-1.6-.92-1.88-1.31-2.89-.9-2.08.85-3.43 4.64-1.88 5.54z"/><path class="cls-2" d="M6.78 221.21c.66-2.37 2.66-5.26 5.16-6.28 2.15-.87 4.06.34 3.89 3.57a10.88 10.88 0 01-4.07 7.28c-3.3 2.53-6.37.44-4.98-4.57zm1.53 2.39c1 2.78 5.63-.29 5.85-4.44a2.27 2.27 0 00-.8-2 2 2 0 00-1.7-.09c-2.44.93-4.08 4.49-3.35 6.53z"/><path class="cls-3" d="M7.41 211c-1.94-.37-3.81 1.17-5.06 2.69a11.45 11.45 0 00-1.12 1.69c-1.49 2.84-1.42 4.94-.86 6.25a2.5 2.5 0 001 1.17l6.43 3.71a3.48 3.48 0 01-1.39-3.28c.25-4.88 5-9.85 8-8.28-7.04-4.07-6.47-3.79-7-3.95z"/><path class="cls-3" d="M12.91 216.92c.79.91.6 2.34.22 3.48-1.05 2.84-3.24 4.11-4.44 3.8 1.32 1.3 4.11-.39 5.2-3.56.73-2.37-.17-3.64-.98-3.72z"/><path class="cls-2" d="M48.15 242.12c.62-2.24 2.52-5 4.89-5.94 2-.82 3.84.32 3.69 3.38a10.29 10.29 0 01-3.85 6.89c-3.15 2.39-6.05.42-4.73-4.33zm1.45 2.26c.94 2.63 5.33-.27 5.53-4.2a2.14 2.14 0 00-.75-1.93 1.9 1.9 0 00-1.61-.08c-2.32.93-3.87 4.28-3.17 6.21z"/><path class="cls-3" d="M48.74 232.48c-1.84-.35-3.6 1.11-4.79 2.54a10.79 10.79 0 00-1.06 1.6c-1.41 2.69-1.34 4.68-.82 5.92a2.37 2.37 0 001 1.11l6.08 3.51a3.29 3.29 0 01-1.31-3.1c.24-4.61 4.75-9.32 7.6-7.84-6.74-3.87-6.2-3.6-6.7-3.74z"/><path class="cls-3" d="M53.95 238.07c.75.86.57 2.21.21 3.29-1 2.68-3.07 3.89-4.2 3.6 1.25 1.23 3.89-.37 4.92-3.37.68-2.25-.17-3.42-.93-3.52z"/><path class="cls-4" d="M52.33 239.71c-1.29-.24-2.74 2.4-1.6 3.14l.88.51c-1.14-.71.55-3.71 1.76-3.07-.9-.53-.83-.56-1.04-.58z"/><path class="cls-5" d="M51.6 241.32c.73-1.31 2.13-1.67 2.15-.23 0 1.88-2.68 3.69-2.5 1.33a2.82 2.82 0 01.35-1.1z"/><path class="cls-6" d="M53.94 238.06c1.8 2-1.27 7.41-4 6.91h-.07c-1.87-2.13 1.59-7.72 4.07-6.91zm-3.2 4.8c1 .58 1 .58 1.19.59 1.3 0 2.41-2.54 1.45-3.15s-1-.73-1.6-.5c-1.16.45-1.9 2.56-1.05 3.05z"/><path class="cls-7" d="M42.62 239.13v.07a11.8 11.8 0 00-.88 2.85l-2.81 1.63v-7l3.83 2.21h-.09v.26z"/><path class="cls-5" d="M100.5 199.88l-.14-.09v-.62l.11-.03.03.74zm0 0v-.74a6.54 6.54 0 011.72-.18l2.2-1.27.21 4.55zm-23.77-68.4l4.1 2.37.1 2.23.79 16.96-4.1-2.36-.89-19.2z"/><path class="cls-5" d="M80.93 136.08l-.1-2.23 6.39 3.69.1 2.23-3.19-1.84-3.2-1.85z"/><path class="cls-5" d="M87.32 139.77l-.1-2.23 4.1 2.37.1 2.23-4.1-2.37z"/><path class="cls-4" d="M100.22 142.21l-16.4-10.27-.87-.54-3.2-1.85-3.02 1.93 4.1 2.37 6.39 3.69 4.1 2.37 6.57 3.78 4.1 2.37 2.33-1.49-4.1-2.36z"/><path class="cls-5" d="M91.32 139.91l6.57 3.78.1 2.24-4.1-2.36-2.47-1.43-.1-2.23zm6.68 6.02l-.1-2.24 4.1 2.37 2 44.06-3.24-1.87-1.11-5.88-.12-2.62-.05-1.07-.22-4.84zm-10.68-6.16l4.1 2.37.78 16.68-3.3-1.9-.2.16-.59-.34-.79-16.97z"/><path class="cls-8" d="M81.72 153.04l-.79-16.96 3.2 1.85.79 16.96-3.2-1.85zm22.88 49.2l-.21-4.55 2.34-1.35.16 3.35 4.32-2.76.05 1.07-6.66 4.24zm-.56-12.12l-2.05-44.06 2.33-1.49 1.18 25.31.22 4.84.05 1.06.74 15.77-2.47-1.43z"/><path class="cls-8" d="M133.3 183.94L111.26 198l-.05-1.07 22.04-14.06.05 1.07zm-41.1-25.12l-.78-16.68 2.47 1.43.78 16.68-2.47-1.43zm20.58 11.39l.05 1.07-7.06 4.5-.05-1.06 7.06-4.51z"/><path class="cls-4" d="M133.25 182.87l-22.04 14.06-3.31-1.91v-.96l21.25-13.56 4.1 2.37z"/><path class="cls-4" d="M107.9 195.02l3.31 1.91-4.32 2.76-.16-3.35 1.17-.68v-.64zm4.88-24.81l-7.06 4.51-.22-4.84 3.18-2.04 4.1 2.37zm-14.57 4.32l1.08-.69.23 4.84-.47.29-.84-4.44z"/><path class="cls-8" d="M99.05 178.97l.47-.29.04 1.06-.33.22-.18-.99z"/><path class="cls-5" d="M82.95 131.4l.9.52a10 10 0 01-.9-.52z"/><path class="cls-4" d="M83.82 131.94l16.4 10.27z"/><path class="cls-9" d="M55.81 222.43l-7.11 4.1v-8.22l7.11 4.12z"/><path class="cls-10" d="M55.81 222.43l-7.11-4.12v-6.81l9.57 5.53-2.46 5.4z"/><path class="cls-9" d="M37.82 225.05L9.85 208.91l4.16-2.4v-7.79l.37-.22 23.44 13.53v13.02z"/><path class="cls-10" d="M14.38 198.5l2.46-5.4 17.37 10.03.02 1.2 3.59 2.07v5.63L14.38 198.5z"/><path class="cls-10" d="M37.82 206.4l-3.59-2.07-.02-1.2-.2-16.36 3.81 2.2v17.43z"/><path class="cls-11" d="M16.84 193.1l15.38-7.36 1.79 1.03.2 16.36-17.37-10.03z"/><path class="cls-7" d="M14.01 206.51l-4.16 2.4v-36.08l4.16 2.39v31.29z"/><path class="cls-9" d="M87.58 212.68l-15.88 9.17 2.55-12.47-12.11-6.99.3-4.22 25.14 14.51z"/><path class="cls-10" d="M87.58 204.09v8.59l-25.14-14.51.07-.97-11.52-6.65-.95.46-.2-.11-.01-.8-.26-.15 6.76-3.9 9.64 5.56.89 3.34 6.49 3.75v-2.83l14.23 8.22z"/><path class="cls-10" d="M73.35 198.7l-6.49-3.7-.9-3.34-.76-2.84a12.14 12.14 0 005.34-.54z"/><path class="cls-7" d="M73.35 195.87v2.82l-2.81-10.48a12.14 12.14 0 003.28-1.67l2.1 7.84z"/><path class="cls-9" d="M73.35 195.87l2.57-1.49-2.1-7.84a8.45 8.45 0 002.63-3c1.19-2.56.21-3.22.13-4.52l.45 1.67a10 10 0 00-.48-2l-.05-.27a5 5 0 00-2-2.94l2.14-1.24 2.12 1.23 4.1 2.37 3.2 1.85 2.06 1.19.66.38 2.43 12.89L98 198.1l-10.38 6z"/><path class="cls-10" d="M97.96 198.1l-6.73-3.88-2.42-12.89-.14-.72-2.25-11.94 5.41-3.12 6.13 32.55z"/><path class="cls-9" d="M66 191.61L56.33 186l3.1-1.79a4.56 4.56 0 00.37 1.19l-.33-1.21h.06l.4 1.5a7 7 0 005.27 3.07z"/><path class="cls-11" d="M58.27 217.03l-9.57-5.53v-2.68l1.36-.65 12.08-5.78 12.11 6.99-15.98 7.65z"/><path class="cls-9" d="M49.84 190.9l.2.11-.19.09-.01-.2z"/><path class="cls-7" d="M48.7 226.54l-4.16 2.4v-36.09l4.16-2.4v36.08zm51.66-27.37v.77l-.87-.5a7.83 7.83 0 01.87-.27z"/><path class="cls-9" d="M100.8 188.25l.38.22-.31.18-.07-.4zm7.1 4.1l-5.71 3.3-1.32-7 .31-.18z"/><path class="cls-7" d="M102.19 195.65l-4.08 3.28-.15-.83 4.23-2.45zm-53.49-5.2l-4.16 2.4v-2.6l50.81-29.34v.1l-3.81 3.06.28 1.48-5.4 3.12-.83.48-3 1.75-3.89 2.24-2 1.16-2.14 1.24-1.72 1-11.5 6.64-1.72 1h-.06L56.33 186l-6.76 3.9z"/><path class="cls-7" d="M91.83 165.55l-.28-1.47 3.81-3.07v2.5l-3.53 2.04z"/><path class="cls-10" d="M3.13 166.35v48.78l2.83 1.64 1.61.93v7.88l.54.31 30.82 17.8v-7l5.62 3.25v-49.69zm34.69 40.05v18.65l-28-16.15v-36.07l4.15 2.4 18.21 10.51 1.78 1 3.81 2.2z"/><path class="cls-7" d="M60.74 140.93l.2-.16.05.31-.25-.15z"/><path class="cls-11" d="M63.48 186.84a6.53 6.53 0 01-3.91-2.67l1.72-1c1.05 2 3.68 2.66 6 2.5 4-.27 8.48-3.63 7.06-7.34a4.05 4.05 0 00-1.55-1.8l1.72-1c2.9 2.15 3 6.06-.93 9.18a12.23 12.23 0 01-10.11 2.13z"/><path class="cls-7" d="M74.59 185.93l-.45-1.67.27-.24.45 1.67-.27.24z"/><path class="cls-9" d="M3.13 166.35l50.82-29.34.07.04 6.72 3.88.25.15 16.63 9.6 4.1 2.36 3.2 1.85 3.19 1.85.59.34 6.66 3.84-50.82 29.33-41.41-23.9z"/><path class="cls-7" d="M76.55 178.76a5.77 5.77 0 01-1.66 4.76c-4.53 4.9-12.89 4.64-15.32.66l-.14.08s.25.93.26.95l.11.24a5.07 5.07 0 001.48 1.78c3.81 2.83 10 1.77 13.58-1.54 3.14-3.14 2.07-5.54 1.69-6.93z"/><path class="cls-2" d="M61.29 183.18l11.5-6.64c3 2 2.34 6.13-2.29 8.31-3.16 1.5-7.75 1.08-9.21-1.67zm-11.29 20l-.15-12.08-.01-.2-.01-.8-1.13.68v18.04l1.36-.65 12.08-5.78.3-4.22.07-.97L50 203.18z"/><path class="cls-11" d="M49.83 190.1l-1.13.68v-.33l.87-.5.26.15zm12.68 7.1L50 203.18l-.15-12.08.19-.09.95-.46 11.52 6.65z"/><path class="cls-7" d="M95.36 161l.27-.22 2.58 13.73L99 179l.18 1 .45 2.41 2.5 13.29-4.13 2.4-6.13-32.54 3.53-2z"/><path class="cls-5" d="M78.78 175.54l-.11-2.39 3.88-2.24.33 7-4.1-2.37z"/><path class="cls-8" d="M82.88 177.91l-.33-7 3.04-1.75.49 10.59-3.2-1.84z"/><path class="cls-4" d="M88.14 180.94l.53-.33.14.72-.67-.39z"/><path class="cls-7" d="M56.85 239.44a5.42 5.42 0 00-.3-1.88c0-6.84-8.08-5.89-12 2.39v-11l11.27-6.51 2.46-5.4 16-7.65-2.58 12.46 15.88-9.17v-8.6l10.38-6 .16.83 4.08-3.28 5.71-3.3v3.31l-5.71 3.3c-5.17-.18-11.88 6.58-13.61 14.84a15.27 15.27 0 00-.29 3.14 8.35 8.35 0 001 4.12l-32.53 18.81a1.21 1.21 0 01.08-.41z"/><path class="cls-1" d="M204.78 138.55l7.26 4.19-14.16 8.18v-8.38l6.9-3.99zm14.51 0v-8.37l6.91-3.99 7.25 4.19-14.16 8.17zm-60.95-12.47v1.4l-5.18-2.99 4.46-2.58 3.97 2.29-3.25 1.88zm7.26 5.59l4.46-2.58 4.19 2.41-3.25 1.88v1.41l-5.4-3.12z"/><path class="cls-1" d="M168.85 128.39l-3.25 1.87-7.26-4.18 3.25-1.88 7.26 4.19z"/><path class="cls-6" d="M168.85 128.39l-7.26-4.19-3.97-2.29-1.21-.71-7.26-4.18-4.13-2.39-1.21-.7-3.15-1.82V63.72l51.61 29.79v48.4l-5.63-3.25-3.92-2.26-1.22-.71-7.25-4.19-4.19-2.41-1.21-.7z"/><path class="cls-12" d="M175.28 122.76v4.74l3.14 1.82 1.22.7 4.13 2.39 3.95 2.28v-9.82l-12.44-7.18v5.07zm6.4-9.43v5.53l2.09 1.21 3.95 2.28v-9.81l-6.04-3.49v4.28z"/><path class="cls-1" d="M140.66 112.11l3.15 1.82-3.25 1.88-7.26-4.19 7.36-4.25v4.74zm45.98 26.55l5.63 3.25 45.07-26.03v-2.03l3.38 1.96-50.08 28.91-7.25-4.19 3.25-1.87z"/><path class="cls-10" d="M237.34 115.88l-45.07 26.03v-48.4l45.07-26.03v48.4z"/><path class="cls-1" d="M149.15 117.02l7.26 4.18-3.25 1.88-7.26-4.19 3.25-1.87zm25.1 14.48l7.25 4.19-3.25 1.88-7.25-4.19 3.25-1.88z"/><path class="cls-1" d="M140.56 117.21l4.46-2.58 4.13 2.39-3.25 1.87v1.41l-5.34-3.09zm42.83 23.32v1.41l-5.14-2.97 4.47-2.57 3.92 2.26-3.25 1.87z"/><path class="cls-3" d="M204.78 137.96v.59l7.26 4.19v-8.97l-.94.54-6.32 3.65zm-21.39 3.98l-5.14-3v-1.41l-7.25-4.15v1.41l-5.4-3.12v-1.41l-7.25-4.19v1.4l-5.19-3v-1.41l-7.25-4.19v1.4l-5.35-3.09v-1.38l-7.25-4.19v11.77l7.25 4.19v-9.27l6.83 3.94 1.22.7 9.74 5.62v9.29l7.25 4.19v-9.29l6.83 3.94 1.22.7 9.74 5.62v9.29l7.25 4.19v-11.77l-7.25-4.19zm49.13-19.99l-6.32 3.65v.59l7.25 4.19v-8.97l-.93.54z"/><path class="cls-11" d="M165.58 132.76v9.29l8.05-4.65-1.22-.7-6.83-3.94zm-12.42-9.68v1.41l4.46-2.58-1.21-.71-3.25 1.88zm15.69 5.31l-3.25 1.87v1.41l4.46-2.58-1.21-.7zm-25.04-14.46l-3.25 1.87v1.41l4.46-2.58-1.21-.7zm96.91 1.87l-50.08 28.92v11.79l50.08-28.92v-10.37l-7.25 4.19v9l-14.16 8.18v-9l6.91-4 6.32-3.65.94-.54 7.27-4.2zm-28.69 19v7.89l-14.16 8.18v-9l6.91-4 6.32-3.65.93-.54zm-33.78 2.77v1.4l4.47-2.57-1.22-.71-3.25 1.88zm-37.71-19.27v9.29l8.04-4.64-1.21-.71-6.83-3.94z"/><path class="cls-9" d="M140.66 63.72l45.08-26.03 51.6 29.79-45.07 26.03-51.61-29.79z"/><path class="cls-1" d="M301.12 155.94l-4.97-2.87-2.72-1.57-.84-.48-4.97-2.87-2.83-1.64-.84-.48-2.15-1.24v-33.18l35.37 20.42v33.18l-3.86-2.23-2.68-1.55-.84-.48-4.97-2.87-2.87-1.66-.83-.48z"/><path class="cls-11" d="M348.07 147.37l-30.9 17.84v-33.18l30.9-17.84v33.18z"/><path class="cls-12" d="M281.8 111.61l30.9-17.84 35.37 20.42-30.9 17.84-35.37-20.42z"/><path class="cls-1" d="M260.97 187.58l7.25 4.18-14.16 8.18v-8.37l6.91-3.99zm14.51 0v-8.38l6.91-3.99 7.25 4.19-14.16 8.18zm-60.95-12.48v1.41l-5.19-3 4.47-2.58 3.97 2.29-3.25 1.88zm7.25 5.6l4.47-2.58 4.18 2.41-3.25 1.88v1.4l-5.4-3.11z"/><path class="cls-1" d="M225.03 177.41l-3.25 1.88-7.25-4.19 3.25-1.88 7.25 4.19z"/><path class="cls-6" d="M225.03 177.41l-7.25-4.19-3.97-2.29-1.22-.7-7.25-4.19-4.13-2.38-1.22-.71-3.14-1.81v-48.4l51.6 29.79v48.4l-5.63-3.25-3.91-2.26-1.22-.7-7.26-4.19-4.18-2.41-1.22-.71z"/><path class="cls-12" d="M231.47 171.78v4.75l3.14 1.81 1.22.71 4.13 2.38 3.95 2.28v-9.81l-12.44-7.19v5.07zm6.4-9.43v5.54l2.09 1.21 3.95 2.28v-9.82l-6.04-3.49v4.28z"/><path class="cls-1" d="M196.85 161.14l3.14 1.81-3.25 1.88-7.25-4.19 7.36-4.25v4.75zm45.97 26.54l5.63 3.25 45.08-26.02v-2.03l3.38 1.95-50.08 28.92-7.26-4.19 3.25-1.88z"/><path class="cls-10" d="M293.53 164.91l-45.08 26.02v-48.4l45.08-26.02v48.4z"/><path class="cls-1" d="M205.34 166.04l7.25 4.19-3.25 1.87-7.25-4.18 3.25-1.88zm25.09 14.49l7.26 4.19-3.25 1.87-7.26-4.18 3.25-1.88z"/><path class="cls-1" d="M196.74 166.24l4.47-2.58 4.13 2.38-3.25 1.88v1.4l-5.35-3.08zm42.83 23.32v1.41l-5.13-2.97 4.47-2.58 3.91 2.26-3.25 1.88z"/><path class="cls-3" d="M260.97 186.99v.59l7.25 4.18v-8.96l-.93.54-6.32 3.65zm-21.4 4.01l-5.14-3v-1.41l-7.25-4.19v1.41l-5.4-3.12v-1.41l-7.25-4.19v1.41l-5.19-3v-1.41l-7.25-4.19v1.4l-5.35-3.09v-1.41l-7.25-4.19v11.77l7.25 4.19v-9.29l6.83 3.94 1.22.7 9.74 5.62v9.29l7.25 4.19v-9.29l6.83 3.94 1.22.7 9.74 5.62v9.29l7.25 4.19v-11.73l-7.25-4.19zm49.13-20.03l-6.31 3.65v.59l7.25 4.19v-8.96l-.94.53z"/><path class="cls-11" d="M221.77 181.78v9.3l8.04-4.65-1.22-.7-6.82-3.95zm-12.43-9.68v1.41l4.47-2.58-1.22-.7-3.25 1.87zm15.69 5.31l-3.25 1.88v1.41l4.47-2.58-1.22-.71zm-25.04-14.46l-3.25 1.88v1.41l4.47-2.58-1.22-.71zm96.92 1.88l-50.09 28.92v11.79l50.09-28.92v-10.37l-7.25 4.19v9l-14.16 8.18v-9l6.91-4 6.29-3.62.94-.54 7.27-4.2zm-28.69 19v7.89l-14.16 8.18v-9l6.91-4 6.32-3.65.93-.54zm-33.78 2.76V188l4.47-2.58-1.22-.7-3.25 1.87zm-37.72-19.26v9.29l8.05-4.65-1.22-.7-6.83-3.94z"/><path class="cls-9" d="M196.85 112.74l45.08-26.02 51.6 29.79-45.08 26.02-51.6-29.79z"/><path class="cls-1" d="M335.02 226.63l7.25 4.19-14.16 8.18v-8.38l6.91-3.99zm14.5 0v-8.37l6.91-3.99 7.26 4.19-14.17 8.17zm-60.94-12.47v1.4l-5.19-2.99 4.47-2.58 3.97 2.29-3.25 1.88zm7.25 5.59l4.47-2.58 4.18 2.42-3.25 1.87v1.41l-5.4-3.12z"/><path class="cls-1" d="M299.08 216.47l-3.25 1.87-7.25-4.18 3.25-1.88 7.25 4.19z"/><path class="cls-6" d="M299.08 216.47l-7.25-4.19-3.97-2.29-1.22-.71-7.25-4.18-4.13-2.38-1.22-.71-3.14-1.81v-48.4l51.6 29.79v48.4l-5.63-3.25-3.92-2.26-1.21-.7-7.26-4.19-4.18-2.42-1.22-.7z"/><path class="cls-12" d="M305.51 210.84v4.75l3.14 1.81 1.22.71 4.13 2.38 3.96 2.28v-9.82l-12.45-7.18v5.07zm6.4-9.43v5.54l2.09 1.2 3.96 2.29v-9.82l-6.05-3.49v4.28z"/><path class="cls-1" d="M270.9 200.2l3.14 1.81-3.25 1.88-7.25-4.19 7.36-4.25v4.75zm45.97 26.54l5.63 3.25 45.07-26.02v-2.04l3.39 1.96-50.09 28.91-7.25-4.18 3.25-1.88z"/><path class="cls-10" d="M367.57 203.97l-45.07 26.02v-48.4l45.07-26.02v48.4z"/><path class="cls-1" d="M279.39 205.1l7.25 4.18-3.25 1.88-7.25-4.19 3.25-1.87zm25.09 14.49l7.26 4.19-3.25 1.87-7.26-4.19 3.25-1.87z"/><path class="cls-1" d="M270.79 205.29l4.47-2.57 4.13 2.38-3.25 1.87v1.41l-5.35-3.09zm42.83 23.33v1.4l-5.13-2.96 4.46-2.58 3.92 2.26-3.25 1.88z"/><path class="cls-3" d="M335.02 226.04v.59l7.25 4.19v-8.96l-.93.54-6.32 3.64zm-21.4 3.96l-5.14-3v-1.41l-7.25-4.19v1.41l-5.4-3.12v-1.41l-7.25-4.19v1.4l-5.19-3v-1.41l-7.25-4.08v1.41l-5.35-3.09v-1.41l-7.25-4.19v11.79l7.25 4.19v-9.29l6.83 3.94 1.22.7 9.74 5.62v9.29l7.25 4.19v-9.29l6.83 3.94 1.22.7 9.74 5.62v9.29l7.25 4.19v-11.8l-7.25-4.19zm49.13-19.97l-6.32 3.65v.59l7.26 4.19v-8.97l-.94.54z"/><path class="cls-11" d="M295.81 220.84v9.29l8.05-4.64-1.22-.71-6.83-3.94zm-12.42-9.68v1.41l4.47-2.58-1.22-.71-3.25 1.88zm15.69 5.31l-3.25 1.88v1.4l4.47-2.58-1.22-.7zm-25.04-14.46l-3.25 1.88v1.4l4.47-2.57-1.22-.71zm96.96 1.88l-50.13 28.91v11.79l50.09-28.92V205.3l-7.25 4.19v9l-14.16 8.18v-9l6.91-4 6.32-3.65.94-.54 7.27-4.2zm-28.69 19v7.89l-14.2 8.22v-9l6.91-4 6.32-3.65.93-.54zm-33.82 2.76v1.41l4.46-2.58-1.21-.7-3.25 1.87zm-37.72-19.27v9.3l8.05-4.65-1.22-.7-6.83-3.95z"/><path class="cls-9" d="M270.9 151.8l45.07-26.03 51.6 29.8-45.07 26.02-51.6-29.79z"/><path class="cls-1" d="M178.95 68.12l-5.24-3.03-2.87-1.65-.87-.51-5.24-3.02-2.98-1.73-.88-.5-2.27-1.31V21.42l37.26 21.51v34.95l-4.07-2.35-2.82-1.63-.88-.51-5.24-3.02-3.02-1.74-.88-.51z"/><path class="cls-11" d="M228.41 59.09l-32.55 18.79V42.93l32.55-18.79v34.95z"/><path class="cls-12" d="M158.6 21.42l32.55-18.8 37.26 21.52-32.55 18.79-37.26-21.51z"/><path class="cls-5" d="M235.47 124.73l-7.25-4.18-3.97-2.3-1.22-.7-7.25-4.19-4.13-2.38-1.22-.7-3.14-1.82v-48.4l51.6 29.8v48.39l-5.63-3.25-3.92-2.26-1.21-.7-7.26-4.19-4.18-2.41-1.22-.71z"/><path class="cls-8" d="M303.96 112.23l-45.07 26.02V89.86l45.07-26.03v48.4z"/><path class="cls-4" d="M207.29 60.06l45.07-26.02 51.6 29.79-45.07 26.03-51.6-29.8z"/><path class="cls-6" d="M237.66 62.17l-4.97-2.87-2.72-1.57-.84-.48-4.97-2.87-2.83-1.64-.83-.48-2.16-1.24V17.84l35.38 20.42v33.18l-3.86-2.23-2.69-1.55-.83-.48-4.98-2.87-2.86-1.66-.84-.48z"/><path class="cls-10" d="M284.61 53.6l-30.89 17.84V38.26l30.89-17.84V53.6z"/><path class="cls-9" d="M218.34 17.84L249.24 0l35.37 20.42-30.89 17.84-35.38-20.42z"/><path class="cls-5" d="M239.9 231.55l-4.97-2.87-2.72-1.57-.84-.48-4.97-2.88-2.83-1.63-.84-.48-2.15-1.25v-33.17l35.37 20.42v33.18l-3.86-2.23-2.68-1.55-.84-.48-4.97-2.87-2.87-1.66-.83-.48z"/><path class="cls-8" d="M286.85 222.98l-30.9 17.84v-33.18l30.9-17.84v33.18z"/><path class="cls-4" d="M220.58 187.22l30.9-17.84 35.37 20.42-30.9 17.84-35.37-20.42z"/></g></g></svg>