<svg xmlns="http://www.w3.org/2000/svg" viewBox="0 0 502.2 359.7"><path d="M88.5 306.9H3.7c-2 0-3.7-1.7-3.7-3.7V264c0-2 1.6-3.6 3.7-3.6h108.5c1.6 0 3 1 3.5 2.5s0 3.2-1.3 4.1c-12 8.8-20 22-22.2 36.8-.3 1.8-1.9 3.1-3.7 3.1zm-81.1-7.4h78c2.4-12 8.3-23.1 16.9-31.8H7.4v31.8zm491.2 7.4h-62.5c-1.8 0-3.4-1.3-3.6-3.2-4.4-30.3-32.5-51.2-62.8-46.8-24.2 3.5-43.3 22.6-46.8 46.8-.3 1.8-1.8 3.1-3.6 3.2h-114c-1.8 0-3.4-1.3-3.6-3.2-2.2-14.7-10.2-28-22.2-36.8-1.3-.9-1.8-2.6-1.3-4.1.5-1.5 1.9-2.5 3.5-2.5h108.2V67.1c0-8.4 0-24.1 11.4-24.1h84.4c43.5 0 92.3 93.6 92.3 109.4v108h20.7c2 0 3.7 1.6 3.7 3.6v39.2c-.1 2.1-1.7 3.7-3.8 3.7zm-59.4-7.4h55.7v-31.8h-20.7c-2 0-3.7-1.6-3.7-3.6V152.3c0-14.2-47.4-102-85-102h-84.4c-4 0-4 12.2-4 16.8V264c0 2-1.6 3.7-3.6 3.7H191.4c8.6 8.8 14.5 19.8 16.9 31.8H316c6.7-34 39.8-56.1 73.7-49.3 25.1 5 44.5 24.4 49.5 49.3zm-163.4-53.1H19c-2 0-3.7-1.7-3.7-3.7V21.1C15.3 3.5 23.4-.1 36.5-.1h222.9c17.3 0 20.1 6 20.1 20.1v222.7c0 2-1.6 3.7-3.7 3.7zM22.7 239h249.4V20c0-11.3-.5-12.7-12.7-12.7H36.5C25.7 7.3 22.7 9 22.7 21.1V239zm406.4-88.1H328.5c-2 0-3.7-1.6-3.7-3.6V88.4c0-2 1.6-3.7 3.7-3.7h58.8c17 0 46.6 51.3 46.6 60.9 0 1.2-.3 2.3-.9 3.3-.9 1.3-2.4 2.1-3.9 2zm-96.9-7.3h94c-6.5-15.9-15.8-30.6-27.3-43.3-7.1-7.6-10.6-8.2-11.5-8.2h-55.1l-.1 51.5zm45.5 216.1c-26.5 0-47.9-21.5-47.9-48s21.5-47.9 48-47.9 47.9 21.5 47.9 47.9c-.1 26.5-21.6 48-48 48zm0-88.5c-22.4 0-40.6 18.2-40.6 40.6 0 22.4 18.2 40.6 40.6 40.6 22.4 0 40.6-18.2 40.6-40.6-.1-22.5-18.2-40.6-40.6-40.6zm-230.8 88.5c-26.5 0-47.9-21.5-47.9-48s21.5-47.9 48-47.9 47.9 21.5 47.9 47.9c0 26.5-21.5 48-48 48zm0-88.5c-22.4 0-40.6 18.2-40.6 40.6 0 22.4 18.2 40.6 40.6 40.6 22.4 0 40.6-18.2 40.6-40.6 0-22.5-18.2-40.6-40.6-40.6zm0 73.9c-18.4 0-33.4-14.9-33.5-33.3 0-18.4 14.9-33.4 33.3-33.5h.2c1 0 1.8.8 1.8 1.9 0 1-.8 1.8-1.8 1.8-16.4 0-29.8 13.3-29.8 29.7s13.3 29.8 29.7 29.8 29.8-13.3 29.8-29.7v-.1c-.1-1 .7-1.9 1.7-1.9 1-.1 1.9.7 1.9 1.7v.2c.1 18.5-14.9 33.4-33.3 33.4zm230.8 0c-18.4 0-33.4-15-33.4-33.4s15-33.4 33.4-33.4 33.4 15 33.4 33.4c.1 1-.7 1.9-1.7 1.9-1 .1-1.9-.7-1.9-1.7v-.2c0-16.4-13.3-29.7-29.8-29.7-16.4 0-29.7 13.3-29.7 29.8 0 16.4 13.3 29.7 29.7 29.7 1 0 1.8.8 1.8 1.8s-.8 1.8-1.8 1.8zM33.8 61c-1 0-1.8-.8-1.8-1.8V35.6c0-12.7 6.4-19.1 19.1-19.1h27.6c1 0 1.8.8 1.8 1.9 0 1-.8 1.8-1.8 1.8H51c-10.6 0-15.4 4.8-15.4 15.4v23.6c0 1-.8 1.8-1.8 1.8zm210.1 168.8h-27.6c-1 0-1.8-.8-1.8-1.9 0-1 .8-1.8 1.8-1.8h27.6c10.6 0 15.4-4.8 15.4-15.4v-23.6c-.1-1 .7-1.9 1.7-1.9 1-.1 1.9.7 1.9 1.7v23.8c0 12.7-6.4 19.1-19 19.1z" fill="#003d90"/></svg>