<svg xmlns="http://www.w3.org/2000/svg" viewBox="0 0 512 316" fill="#FFF"><path d="M74 172.3h44v-140H74v140zm12-128h20v116H86v-116zm148 128h44v-140h-44v140zm12-128h20v116h-20v-116zm148 128h44v-140h-44v140zm12-128h20v116h-20v-116zm-92 128h44v-140h-44v140zm12-128h20v116h-20v-116zm-172 128h44v-140h-44v140zm12-128h20v116h-20v-116z"/><path d="M512 224.3h-26V.3H26v224H0v44h43.3c-.9 3.2-1.3 6.5-1.3 10 0 21 17 38 38 38s38-17 38-38c0-3.5-.5-6.8-1.3-10h22.7c-.9 3.2-1.3 6.5-1.3 10 0 21 17 38 38 38s38-17 38-38c0-3.5-.5-6.8-1.3-10h86.7c-.9 3.2-1.3 6.5-1.3 10 0 21 17 38 38 38s38-17 38-38c0-3.5-.5-6.8-1.3-10h22.7c-.9 3.2-1.3 6.5-1.3 10 0 21 17 38 38 38s38-17 38-38c0-3.5-.5-6.8-1.3-10h43v-44zM38 12.3h436v180H38v-180zm0 192h436v20H38v-20zm42 100c-14.3 0-26-11.7-26-26s11.7-26 26-26 26 11.7 26 26-11.7 26-26 26zm96 0c-14.3 0-26-11.7-26-26s11.7-26 26-26 26 11.7 26 26-11.7 26-26 26zm160 0c-14.3 0-26-11.7-26-26s11.7-26 26-26 26 11.7 26 26-11.7 26-26 26zm96 0c-14.3 0-26-11.7-26-26s11.7-26 26-26 26 11.7 26 26-11.7 26-26 26zm68-48h-37c-6.9-9.7-18.2-16-31-16s-24.1 6.3-31 16h-34c-6.9-9.7-18.2-16-31-16s-24.1 6.3-31 16h-98c-6.9-9.7-18.2-16-31-16s-24.1 6.3-31 16h-34c-6.9-9.7-18.2-16-31-16s-24.1 6.3-31 16H12v-20h488v20z"/><path d="M80 260.3c-9.9 0-18 8.1-18 18s8.1 18 18 18 18-8.1 18-18-8.1-18-18-18zm0 24c-3.3 0-6-2.7-6-6s2.7-6 6-6 6 2.7 6 6-2.7 6-6 6zm96-24c-9.9 0-18 8.1-18 18s8.1 18 18 18 18-8.1 18-18-8.1-18-18-18zm0 24c-3.3 0-6-2.7-6-6s2.7-6 6-6 6 2.7 6 6-2.7 6-6 6zm160-24c-9.9 0-18 8.1-18 18s8.1 18 18 18 18-8.1 18-18-8.1-18-18-18zm0 24c-3.3 0-6-2.7-6-6s2.7-6 6-6 6 2.7 6 6-2.7 6-6 6zm96-24c-9.9 0-18 8.1-18 18s8.1 18 18 18 18-8.1 18-18-8.1-18-18-18zm0 24c-3.3 0-6-2.7-6-6s2.7-6 6-6 6 2.7 6 6-2.7 6-6 6z"/></svg>