<svg xmlns="http://www.w3.org/2000/svg" viewBox="0 0 497.8 189.5"><path d="M466.3 189.5H96.5c-21.3 0-75-104.4-75-117.1 0-2 1.6-3.6 3.6-3.6h35.3c7.6 0 17.7 12.1 33.6 31.8 8.1 10 20.4 25.3 24.1 25.8h318.2c30.6 0 61.7 25.8 61.7 44.3 0 5.8-3.1 11.1-8.2 13.9-7.4 3.7-15.4 5.4-23.5 4.9zM29.3 76c6.4 21.1 53.2 106.4 67.1 106.4h369.9c9.1 0 24.4-1.5 24.4-11.6 0-13.7-26.9-37.2-54.5-37.2H118c-6.4 0-15-10.3-29.6-28.5C79.6 94.2 64.9 76 60.3 76h-31zm176.3 57.6c-1.6 0-3-1.1-3.4-2.7L167.8 4.5c-.3-1.1 0-2.2.6-3.1.7-.9 1.7-1.4 2.8-1.4h46.5c2.9 0 9 0 46.6 42.7 1.3 1.5 1.2 3.7-.3 5s-3.7 1.2-5-.3C226.1 10 218.8 7.3 217.7 7.1h-41.8l33.2 122c.5 1.9-.6 3.9-2.5 4.4-.4.1-.7.1-1 .1zm126.6 0c-1.1 0-2.2-.5-2.8-1.4 0 0-6.8-8.7-17.2-21.4-1.2-1.6-.9-3.8.7-5 1.5-1.1 3.6-.9 4.8.5 10.4 12.8 17.2 21.5 17.2 21.5 1.2 1.6.9 3.8-.6 5-.6.5-1.3.8-2.1.8zm-34.8-42.9c-1.1 0-2.1-.5-2.8-1.3-7.3-9-15.4-18.5-23.4-27.9-1.2-1.5-1-3.7.5-5 1.5-1.2 3.6-1.1 4.9.4 8.1 9.4 16.1 18.9 23.5 28 1.2 1.5 1 3.8-.5 5-.6.5-1.4.8-2.2.8zm57.1 65.8h-10.6c-2 0-3.6-1.6-3.6-3.6s1.6-3.6 3.6-3.6h10.6c2 0 3.6 1.6 3.6 3.6s-1.6 3.6-3.6 3.6zm-68.8 0h-10.6c-2 0-3.6-1.6-3.6-3.6s1.6-3.6 3.6-3.6h10.6c2 0 3.6 1.6 3.6 3.6s-1.6 3.6-3.6 3.6zm-68.8 0h-10.6c-2 0-3.6-1.6-3.6-3.6s1.6-3.6 3.6-3.6h10.6c2 0 3.6 1.6 3.6 3.6s-1.6 3.6-3.6 3.6zm34.4 0h-10.6c-2 0-3.6-1.6-3.6-3.6s1.6-3.6 3.6-3.6h10.6c2 0 3.6 1.6 3.6 3.6s-1.6 3.6-3.6 3.6zm68.8 0h-10.6c-2 0-3.6-1.6-3.6-3.6s1.6-3.6 3.6-3.6h10.6c2 0 3.6 1.6 3.6 3.6s-1.6 3.6-3.6 3.6zm68.8 0h-10.6c-2 0-3.6-1.6-3.6-3.6s1.6-3.6 3.6-3.6h10.6c2 0 3.6 1.6 3.6 3.6s-1.6 3.6-3.6 3.6zm96.8-1.8h-40.9c-15.4 0-20.7-19.7-20.9-20.6-.2-.9.3-1.9 1.3-2.2.9-.2 1.9.3 2.1 1.3 0 .2 4.9 17.8 17.5 17.8h40.9c1 0 1.8.8 1.8 1.8-.1 1.1-.9 1.9-1.8 1.9zm-190.8-42.4c-13.2.2-26.4-.4-39.5-1.7-11-1.3-23.5-3.8-23.5-11.9 0-3.2 0-9.7 65.3-15 7.5-.6 14.7-1.1 18.7-1.1 8.5-.1 15.4 6.7 15.5 15.1v.4c.1 3.7-1.3 7.2-3.9 9.8-3.1 3-7.3 4.5-11.6 4.3H309c-4.1 0-8.9.1-14.1.1zm-55.2-12.8c2.5 1.8 12.8 5.7 55.2 5.7 5.2 0 10 0 13.9-.1l7-.1c2.4.2 4.7-.6 6.5-2.2 1.2-1.3 1.9-3 1.9-4.8.1-4.5-3.5-8.2-8-8.3h-.4c-3.8 0-10.7.4-18.1 1-30.4 2.5-52.1 6.2-58 8.8zm32-36.7c-9.4.1-18.7-.3-28-1.2-8.1-1-17.3-2.9-17.3-9.4 0-3.3 0-6.7 35-10.6 10.7-1.1 21.4-1.9 26.1-1.9 6.6-.1 12.1 5.2 12.2 11.8v.2c0 2.9-1.1 5.7-3.1 7.7-2.4 2.3-5.7 3.6-9 3.4h-15.9zm-36.2-9.9c3.5 1.1 12.8 2.8 36.1 2.8l15.7-.1c1.4.1 2.9-.3 4-1.2.7-.7 1-1.7 1-2.7 0-2.7-2.1-4.9-4.8-5h-.2c-3.8 0-13.7.7-25.3 1.9-8.9.8-17.7 2.2-26.5 4.3zM195.6 7.1h-41.3c-2-.1-3.5-1.7-3.4-3.7.1-1.9 1.6-3.4 3.4-3.4h41.3c1.8-.7 4 .4 4.7 2.2s-.2 3.9-2 4.6c-.8.4-1.7.4-2.7.3zM40.3 76H3.6c-2 0-3.6-1.6-3.6-3.6s1.6-3.6 3.6-3.6h36.7c2.2 0 4 1.4 4 3.6s-1.8 4-4 4V76z" fill="#003d90"/></svg>