<svg xmlns="http://www.w3.org/2000/svg" viewBox="0 0 501.4 335.1"><path d="M358.1 335.1H69.7c-23.3 0-25.7-11.5-29.4-28.9-1.9-9.9-4.6-19.6-8-29.1-7.1-19.4-13.4-34.4-18.5-46.4s-9-21.5-12-30.7c-2.7-5.8-2.4-12.6.7-18.2 5.2-7.2 17.3-8.6 37.9-8.6h450.2c4.2-.1 7.9 2.6 9.3 6.5 8 19.3-19.3 87.1-45.5 113.3-30.6 30.8-56.7 42.1-96.3 42.1zM40.5 181c-14.4 0-28.2.7-31.5 5.3-1.6 3.6-1.4 7.7.4 11.1 2.9 9 6.8 18.3 11.8 30.2 5.1 12.1 11.4 27.2 18.6 46.7 3.6 9.8 6.3 20 8.3 30.2 3.7 17.5 4.8 22.8 21.7 22.8h288.4c37.2 0 61.8-10.8 90.8-39.8 25.4-25.4 50.2-89.6 43.8-104.8-.2-1-1.1-1.7-2.1-1.7H40.5zm230.9 0c-1.5 0-2.8-.8-3.5-2.2-.2-.4-20.5-41.8-28.2-55.1-7.1-12.4-10.7-14.6-23.9-14.6H84.3c-15.2 0-17.5 1.9-17.5 14.6v53.4c.1 2.2-1.6 4-3.7 4-2.2.1-4-1.6-4-3.7v-53.7c0-19.1 8.2-22.4 25.3-22.4H216c16.1 0 22.2 3.6 30.7 18.5 7.8 13.6 27.5 53.9 28.4 55.6.9 1.9.2 4.2-1.7 5.2-.8.3-1.4.4-2 .4zm-116-71.9H96c-2.2 0-3.9-1.7-3.9-3.9V3.9C92.1 1.7 93.8 0 96 0h59.4c2.2 0 3.9 1.7 3.9 3.9v101.3c0 2.1-1.7 3.9-3.9 3.9zm-55.5-7.8h51.6V7.7H99.9v93.6zm55.5-74.1H96c-1.1.1-2-.8-2.1-1.8-.1-1.1.8-2 1.8-2.1h59.6c1.1 0 1.9.9 1.9 1.9.2 1.2-.7 2-1.8 2zm34.1 128.6c-10.2 0-18.5-8.3-18.5-18.5s8.3-18.5 18.5-18.5 18.5 8.3 18.5 18.5c.1 10.3-8.2 18.5-18.5 18.5zm0-33.1c-8.1 0-14.6 6.5-14.6 14.6s6.5 14.6 14.6 14.6 14.6-6.5 14.6-14.6c0-8-6.5-14.6-14.6-14.6zm0 33.1c-10.2 0-18.5-8.3-18.5-18.5s8.3-18.5 18.5-18.5 18.5 8.3 18.5 18.5c.1 10.3-8.2 18.5-18.5 18.5zm0-33.1c-8.1 0-14.6 6.5-14.6 14.6s6.5 14.6 14.6 14.6 14.6-6.5 14.6-14.6c0-8-6.5-14.6-14.6-14.6zm-54.6 33.1c-10.2 0-18.5-8.3-18.5-18.5s8.3-18.5 18.5-18.5 18.5 8.3 18.5 18.5c.1 10.2-8.2 18.5-18.5 18.5zm0-33.1c-8.1 0-14.6 6.5-14.6 14.6s6.5 14.6 14.6 14.6 14.6-6.5 14.6-14.6c0-8-6.5-14.5-14.6-14.6zm271.4 137.4c-.5 0-1-.2-1.4-.6-21.9-21.9-29.9-56-30.2-57.5-.2-1.1.4-2.1 1.5-2.4H436c.6 0 1.2.3 1.6.8s.5 1.1.3 1.7c-.4 1.5-10.8 38-30.2 57.4-.4.4-.8.6-1.4.6zm-27.2-56.5c5.1 19.1 14.4 36.8 27.2 51.8 15-16.1 24.5-43.4 27.1-51.8h-54.3z" fill="#003d90"/></svg>