<svg xmlns="http://www.w3.org/2000/svg" viewBox="0 0 480 287.6" fill="#FFF"><path d="M472 271.9c-8.9.2-17.7-2.2-25.2-7-20.3-12-45.5-12-65.7 0a48.83 48.83 0 01-50.3 0c-20.3-12-45.5-12-65.7 0a48.83 48.83 0 01-50.3 0c-9.9-6.1-21.3-9.2-32.9-9-11.6-.2-23 2.9-32.9 9-7.5 4.8-16.2 7.2-25.1 7-8.9.2-17.6-2.2-25.1-7-9.9-6.1-21.3-9.2-32.9-9-11.6-.2-23 2.9-32.8 9-7.5 4.8-16.2 7.2-25.1 7-4.4 0-8 3.6-8 8s3.6 8 8 8c11.6.2 23-2.9 32.9-9 7.5-4.8 16.2-7.2 25.1-7 8.9-.2 17.6 2.2 25.1 7 9.8 6.1 21.3 9.2 32.8 9 11.6.2 23-2.9 32.8-9 7.5-4.8 16.2-7.2 25.1-7 8.9-.2 17.6 2.2 25.1 7 20.3 12 45.5 12 65.7 0 15.5-9.3 34.8-9.3 50.3 0 20.3 12 45.5 12 65.7 0 15.5-9.3 34.8-9.3 50.3 0 9.9 6.1 21.3 9.2 32.9 9 4.4 0 8-3.6 8-8 .2-4.4-3.4-8-7.8-8z"/><path d="M0 247.9c0 4.4 3.6 8 8 8 11.6.3 23-2.9 32.8-9 7.5-4.8 16.3-7.2 25.2-7 8.9-.2 17.7 2.3 25.2 7.1 9.8 6.1 21.2 9.2 32.7 8.9 11.6.2 23-2.9 32.9-9 7.5-4.8 16.2-7.2 25.1-7 9-.2 17.8 2.2 25.3 7.1 20.3 11.9 45.4 11.9 65.6-.1 7.5-4.8 16.2-7.2 25.1-7 9-.2 17.8 2.2 25.3 7.1 20.2 11.9 45.4 11.9 65.6-.1 7.5-4.8 16.3-7.2 25.2-7 1.7 0 3.3.1 5 .2 7.2.6 14.1 2.9 20.2 6.8 9.9 6.1 21.3 9.2 32.9 9 4.4 0 8-3.6 8-8s-3.6-8-8-8c-8.9.2-17.7-2.2-25.2-7-4.8-2.8-9.9-5.1-15.3-6.7l47.6-94.7c1.2-2.5 1.1-5.4-.3-7.8-1.5-2.4-4-3.8-6.8-3.8h-40V7.9c0-4.4-3.6-8-8-8H136c-4.4 0-8 3.6-8 8v136h-16v-120c0-4.4-3.6-8-8-8H40c-3.9 0-7.3 2.9-7.9 6.8l-15 97.2H8c-4.4 0-8 3.6-8 8v72c0 1.5.4 2.9 1.1 4.1l20.5 34.1c-4.4 1.3-9 1.9-13.6 1.8-4.4 0-8 3.6-8 8zm376-128c-1.7 0-3.4.6-4.8 1.6l-29.9 22.4H336v-32h80v8h-40zm-136 24v-32h80v32h-80zm-96-80h80v32h-80v-32zm272 32h-80v-32h80v32zm-96 0h-80v-32h80v32zm96-48h-80v-32h80v32zm-96 0h-80v-32h80v32zm-176-32h80v32h-80v-32zm0 96h80v32h-80v-32zm-97.1-80H96v100.7l-10.3-10.3c-1.5-1.5-3.5-2.3-5.7-2.3H33.3l13.6-88.1zM16 135.9h60.7l21.7 21.7c1.5 1.5 3.5 2.3 5.7 2.3h240c1.7 0 3.4-.6 4.8-1.6l29.9-22.4H459l-44.2 88h-.8c-11.6-.2-23 2.9-32.9 9-15.5 9.4-34.9 9.3-50.4-.1-20.2-11.9-45.4-11.9-65.6.1-15.5 9.4-34.9 9.3-50.4-.1-9.8-6.1-21.2-9.2-32.8-8.9-11.6-.3-23 2.9-32.8 9-7.5 4.8-16.3 7.2-25.2 7-8.9.2-17.7-2.3-25.2-7.1-9.8-6.1-21.2-9.2-32.7-8.9-2 0-3.8.1-5.5.2-.6 0-1.1.1-1.7.2-1.1.1-2.2.2-3.3.4l-1.8.3c-.9.2-1.8.3-2.7.5-.6.1-1.1.3-1.7.4-.8.2-1.6.4-2.4.7-.5.1-1 .3-1.5.5-.8.3-1.5.6-2.3.9-.4.2-.8.3-1.2.5-.9.4-1.7.8-2.6 1.2l-.5.3c-1 .5-2 1-2.9 1.5L16 197.7v-61.8z"/><path d="M72 39.9h-8c-4.4 0-8 3.6-8 8s3.6 8 8 8h8c4.4 0 8-3.6 8-8s-3.6-8-8-8zm0 152h8c4.4 0 8-3.6 8-8s-3.6-8-8-8h-8c-4.4 0-8 3.6-8 8s3.6 8 8 8zm40 0h8c4.4 0 8-3.6 8-8s-3.6-8-8-8h-8c-4.4 0-8 3.6-8 8s3.6 8 8 8zm40 0h8c4.4 0 8-3.6 8-8s-3.6-8-8-8h-8c-4.4 0-8 3.6-8 8s3.6 8 8 8zm40 0h8c4.4 0 8-3.6 8-8s-3.6-8-8-8h-8c-4.4 0-8 3.6-8 8s3.6 8 8 8zm40 0h8c4.4 0 8-3.6 8-8s-3.6-8-8-8h-8c-4.4 0-8 3.6-8 8s3.6 8 8 8zm40 0h8c4.4 0 8-3.6 8-8s-3.6-8-8-8h-8c-4.4 0-8 3.6-8 8s3.6 8 8 8zm40 0h8c4.4 0 8-3.6 8-8s-3.6-8-8-8h-8c-4.4 0-8 3.6-8 8s3.6 8 8 8zm40 0h8c4.4 0 8-3.6 8-8s-3.6-8-8-8h-8c-4.4 0-8 3.6-8 8s3.6 8 8 8zm40 0h8c4.4 0 8-3.6 8-8s-3.6-8-8-8h-8c-4.4 0-8 3.6-8 8s3.6 8 8 8z"/></svg>