<svg xmlns="http://www.w3.org/2000/svg" viewBox="0 0 44.91 45.1"><g data-name="Слой 2"><g data-name="1"><path d="M36.95 45.1H6.12a1.75 1.75 0 01-1.68-1.27L0 28.16a.58.58 0 01.56-.74H8.5a.58.58 0 01.49.27L9.82 29h18.36l2.08-2.22a.58.58 0 01.42-.18h13.64a.58.58 0 01.54.79L38.58 44a1.75 1.75 0 01-1.63 1.1zM1.35 28.58l4.21 14.93a.58.58 0 00.56.42h30.83a.58.58 0 00.54-.37l6-15.8H30.93L28.85 30a.58.58 0 01-.42.18H9.5a.58.58 0 01-.5-.29l-.83-1.31z"/><path d="M13.15 30.16H9.5a.58.58 0 01-.5-.27l-.83-1.31H6.28A.58.58 0 015.7 28V8.09a.58.58 0 01.58-.58h6.88a.58.58 0 01.58.58v21.5a.58.58 0 01-.59.57zM9.82 29h2.75V8.67H6.86v18.75H8.5a.58.58 0 01.49.27z"/><path d="M14.78 8.67H4.66a.58.58 0 01-.58-.58V.58A.58.58 0 014.66 0h10.12a.58.58 0 01.58.58v7.5a.58.58 0 01-.58.59zM5.24 7.5h9V1.16h-9z"/><path d="M14.78 7.8a.58.58 0 01-.58-.58V2.83a.58.58 0 01.58-.58h24a.58.58 0 01.58.58v3.05a.58.58 0 01-.55.58l-24 1.34zm.58-4.39v3.2l22.8-1.27V3.41z"/><path d="M37 17.19a.58.58 0 01-.58-.58V6a.58.58 0 011.16 0v10.61a.58.58 0 01-.58.58z"/><path d="M42.12 27.76H31.88a.58.58 0 01-.58-.58V16.61a.58.58 0 01.58-.58h10.24a.58.58 0 01.58.58v10.57a.58.58 0 01-.58.58zm-9.66-1.16h9.08v-9.41h-9.08z"/><path d="M38.34 21h-2.47a1.54 1.54 0 010-3.07h2.47a1.54 1.54 0 110 3.07zm-2.47-1.9a.38.38 0 000 .75h2.47a.38.38 0 100-.75zm.4 6.37h-2.64a.58.58 0 110-1.16h2.64a.58.58 0 010 1.16zm0-1.65h-2.64a.58.58 0 110-1.16h2.64a.58.58 0 110 1.16zm-7.84 6.34H22a.58.58 0 01-.58-.58V19a.58.58 0 01.58-.58h9.91a.58.58 0 01.58.58v8.16a.58.58 0 01-.58.58h-.95L28.85 30a.58.58 0 01-.42.16zM22.55 29h5.63l2.08-2.22a.58.58 0 01.42-.18h.62v-7h-8.75z"/><path d="M28.06 22.05h-2.28a.58.58 0 01-.58-.58V19a.58.58 0 01.58-.58h2.28a.58.58 0 01.58.58v2.44a.58.58 0 01-.58.61zm-1.69-1.16h1.11v-1.28h-1.11zm-7.67 1.16h-2.28a.58.58 0 01-.58-.58V19a.58.58 0 01.58-.58h2.28a.58.58 0 01.58.58v2.44a.58.58 0 01-.58.61zM17 20.89h1.11v-1.28H17z"/><path d="M22 30.16h-8.85a.58.58 0 01-.58-.58V19a.58.58 0 01.58-.58H22a.58.58 0 01.58.58v10.58a.58.58 0 01-.58.58zM13.73 29h7.65v-9.39h-7.65zm11.33-.77h-1.28a.58.58 0 010-1.16h1.28a.58.58 0 010 1.16zm0-1.6h-1.28a.58.58 0 010-1.16h1.28a.58.58 0 110 1.16z"/><path d="M16 28.23h-1.25a.58.58 0 010-1.16H16a.58.58 0 010 1.16zm0-1.6h-1.25a.58.58 0 010-1.16H16a.58.58 0 010 1.16zm23.56 13.69H3.9a.58.58 0 010-1.16h35.66a.58.58 0 010 1.16zM41 36.43H2.8a.58.58 0 010-1.16H41a.58.58 0 110 1.16z"/></g></g></svg>