<svg xmlns="http://www.w3.org/2000/svg" viewBox="0 0 33.86 44.12"><g data-name="Слой 2"><g data-name="1"><path d="M33.28 44.12H.58a.58.58 0 01-.58-.58v-32.7a.58.58 0 01.27-.49L16.62.09a.58.58 0 01.62 0l16.35 10.26a.58.58 0 01.27.49v32.7a.58.58 0 01-.58.58zM1.16 43H32.7V11.17l-15.77-9.9-15.77 9.9z"/><path d="M27.84 44.12H6a.58.58 0 01-.58-.58V18.37a.58.58 0 01.58-.58h21.84a.58.58 0 01.58.58v25.17a.58.58 0 01-.58.58zM6.6 43h20.66V19H6.6z"/><path d="M27.84 22.55h-5.6a.58.58 0 010-1.16h5v-2.44H6.6v2.43h.88a.58.58 0 010 1.16H6a.58.58 0 01-.57-.54v-3.6a.58.58 0 01.57-.61h21.84a.58.58 0 01.58.58V22a.58.58 0 01-.58.55z"/><path d="M9.22 22.55H7.48a.58.58 0 010-1.16h1.74a.58.58 0 010 1.16zm7.52 0H13a.58.58 0 010-1.16h3.76a.58.58 0 010 1.16zm5.51 0H20.5a.58.58 0 010-1.16h1.74a.58.58 0 010 1.16zm5.59 7.19H6a.58.58 0 01-.58-.58v-3.6A.58.58 0 016 25h21.84a.58.58 0 01.58.58v3.6a.58.58 0 01-.58.56zM6.6 28.58h20.66v-2.44H6.6zm21.24 8.35H6a.58.58 0 01-.58-.58v-3.6a.58.58 0 01.58-.58h21.84a.58.58 0 01.58.58v3.6a.58.58 0 01-.58.58zM6.6 35.77h20.66v-2.44H6.6zm21.24 8.35H6a.58.58 0 01-.58-.58v-3.6a.58.58 0 01.58-.58h21.84a.58.58 0 01.58.58v3.6a.58.58 0 01-.58.58zM6.6 43h20.66v-2.47H6.6zm21.24-27H6a2.3 2.3 0 110-4.6h21.84a2.3 2.3 0 010 4.6zM6 12.59a1.14 1.14 0 100 2.27h21.84a1.14 1.14 0 000-2.27z"/></g></g></svg>