<svg xmlns="http://www.w3.org/2000/svg" viewBox="0 0 43.16 43.16"><g data-name="Слой 2"><g data-name="1"><path d="M42.58 43.16h-42a.58.58 0 01-.58-.58v-42A.58.58 0 01.58 0h42a.58.58 0 01.58.58v42a.58.58 0 01-.58.58zM1.16 42H42V1.16H1.16z"/><path d="M15.84 36.26H9.63a.58.58 0 01-.63-.58V18.57H5.89a.58.58 0 01-.45-.95l6.84-8.42a.6.6 0 01.9 0L20 17.62a.58.58 0 01-.45.95h-3.13v17.11a.58.58 0 01-.58.58zm-5.63-1.16h5V18a.58.58 0 01.58-.58h2.52l-5.63-6.92-5.57 6.91h2.52a.58.58 0 01.58.58zm23.32 1.16h-6.21a.58.58 0 01-.58-.58V18.57h-3.16a.58.58 0 01-.45-.95L30 9.2a.58.58 0 01.9 0l6.85 8.42a.58.58 0 01-.45.95h-3.19v17.11a.58.58 0 01-.58.58zM27.9 35.1h5V18a.58.58 0 01.58-.58H36l-5.62-6.92-5.58 6.91h2.52a.58.58 0 01.58.58zm9.75 4.16H5.51a.58.58 0 010-1.16h32.14a.58.58 0 010 1.16z"/><path d="M37.65 36.26H5.51a.58.58 0 010-1.16h32.14a.58.58 0 010 1.16zM28 7.34H15.17a.58.58 0 01-.58-.58V.58a.58.58 0 01.58-.58H28a.58.58 0 01.58.58v6.18a.58.58 0 01-.58.58zM15.75 6.18h11.66v-5H15.75zm17.33-1.93h-1.75a.58.58 0 010-1.16h1.74a.58.58 0 010 1.16zm6.19 0h-1.74a.58.58 0 010-1.16h1.74a.58.58 0 010 1.16z"/></g></g></svg>