<svg xmlns="http://www.w3.org/2000/svg" viewBox="0 0 32.78 45.96"><g data-name="Слой 2"><g data-name="1"><path d="M31.46 46H1.32A1.32 1.32 0 010 44.64v-39a1.32 1.32 0 011.32-1.27h6.55a.58.58 0 01.58.63v3a.9.9 0 00.9.9h14.08a.9.9 0 00.9-.9V5a.58.58 0 01.58-.58h6.55a1.32 1.32 0 011.32 1.32v39A1.32 1.32 0 0131.46 46zM1.32 5.53a.16.16 0 00-.16.16v39a.16.16 0 00.16.16h30.14a.16.16 0 00.16-.16v-39a.16.16 0 00-.16-.16h-6v2.42A2.07 2.07 0 0123.43 10H9.35a2.07 2.07 0 01-2.06-2.05V5.53z"/><path d="M28.2 41.41H4.58a.58.58 0 01-.58-.58V8.32a.58.58 0 01.58-.58h3.34a.58.58 0 01.56.44.9.9 0 00.87.68h14.08a.9.9 0 00.87-.68.58.58 0 01.56-.44h3.34a.58.58 0 01.58.58V13a.58.58 0 01-1.16 0V8.9h-2.37a2.06 2.06 0 01-1.82 1.1H9.35a2.06 2.06 0 01-1.83-1.1H5.16v31.35h22.46V27.49a.58.58 0 011.16 0v13.34a.58.58 0 01-.58.58z"/><path d="M28.2 28.07a.58.58 0 01-.58-.58v-1.74a.58.58 0 011.16 0v1.74a.58.58 0 01-.58.58zm0-5.4a.58.58 0 01-.58-.58v-3.65a.58.58 0 011.16 0v3.65a.58.58 0 01-.58.58zm0-7.31a.58.58 0 01-.58-.58V13a.58.58 0 011.16 0v1.74a.58.58 0 01-.58.62zm-3.48-.26H16a.58.58 0 010-1.16h8.71a.58.58 0 010 1.16zm0 3.52H16a.58.58 0 010-1.16h8.71a.58.58 0 010 1.16zm0 4.5H16A.58.58 0 1116 22h8.71a.58.58 0 110 1.16zm0 3.52H16a.58.58 0 010-1.16h8.71a.58.58 0 010 1.16zm0 4.49H16A.58.58 0 1116 30h8.71a.58.58 0 010 1.16zm0 3.52H16a.58.58 0 010-1.16h8.71a.58.58 0 010 1.16zM10.13 18a.59.59 0 01-.46-.22l-2.26-2.9a.58.58 0 01.91-.72l1.83 2.32 3.34-3.82a.58.58 0 11.88.76l-3.8 4.35a.58.58 0 01-.44.23zm0 8.64a.59.59 0 01-.46-.22l-2.26-2.88a.58.58 0 11.91-.72l1.83 2.32 3.34-3.83a.58.58 0 01.88.76l-3.8 4.35a.58.58 0 01-.44.22zm0 8.66a.59.59 0 01-.46-.22L7.41 32.2a.58.58 0 11.91-.72l1.83 2.32 3.34-3.8a.58.58 0 11.88.76l-3.8 4.35a.58.58 0 01-.44.19zm9.29-30.53h-6.06a2.39 2.39 0 010-4.77h6.07a2.39 2.39 0 010 4.77zm-6.06-3.61a1.23 1.23 0 000 2.45h6.07a1.23 1.23 0 100-2.45z"/><path d="M23.43 10H9.35a2.07 2.07 0 01-2.06-2.05V3.87a2.07 2.07 0 012.06-2.06h2.2a.58.58 0 01.58.58 1.23 1.23 0 001.23 1.23h6.07a1.23 1.23 0 001.23-1.23.58.58 0 01.58-.58h2.2a2.07 2.07 0 012.06 2.06v4.08A2.07 2.07 0 0123.43 10zM9.35 3a.9.9 0 00-.9.9v4.05a.9.9 0 00.9.9h14.08a.9.9 0 00.9-.9V3.87a.9.9 0 00-.9-.9h-1.69a2.39 2.39 0 01-2.32 1.81h-6.06A2.39 2.39 0 0111 3z"/><path d="M21.66 7.41H11.12a.58.58 0 010-1.16h10.54a.58.58 0 010 1.16z"/></g></g></svg>