<svg xmlns="http://www.w3.org/2000/svg" viewBox="0 0 45.76 36.51"><g data-name="Слой 2"><g data-name="1"><path d="M45.17 28.76H.58a.58.58 0 01-.58-.58v-3.07a.58.58 0 01.58-.58h44.59a.58.58 0 01.58.58v3.07a.58.58 0 01-.58.58zm-44-1.16h43.42v-1.9H1.16zm44 8.91H.58a.58.58 0 01-.58-.58v-3.06a.58.58 0 01.58-.58h44.59a.58.58 0 01.58.58v3.07a.58.58 0 01-.58.57zm-44-1.16h43.42v-1.9H1.16z"/><path d="M8.95 33.45H1.73a.58.58 0 01-.58-.58v-4.69a.58.58 0 01.58-.58h7.22a.58.58 0 01.58.58v4.69a.58.58 0 01-.58.58zm-6.63-1.17h6.05v-3.52H2.32zm24.17 1.17h-7.22a.58.58 0 01-.58-.58v-4.69a.58.58 0 01.58-.58h7.21a.58.58 0 01.58.58v4.69a.58.58 0 01-.57.58zm-6.63-1.16h6.04v-3.53h-6.05zM44 33.45h-7.19a.58.58 0 01-.58-.58v-4.69a.58.58 0 01.58-.58H44a.58.58 0 01.58.58v4.69a.58.58 0 01-.58.58zm-6.63-1.16h6.05v-3.53h-6.03zm-23.24-6.6H1.61a.58.58 0 01-.61-.58V12.85a.58.58 0 01.58-.58h12.55a.58.58 0 01.58.58v12.26a.58.58 0 01-.58.58zM2.19 24.53h11.36v-11.1H2.19z"/><path d="M7.87 19.56a.58.58 0 01-.39-.15l-1.42-1.3a.58.58 0 01-.19-.43v-4.83a.58.58 0 01.58-.58h2.84a.58.58 0 01.58.58v4.84a.58.58 0 01-.19.43l-1.42 1.3a.58.58 0 01-.39.14zM7 17.43l.84.77.84-.77v-4H7zm-.89 5.15H3.78a.58.58 0 010-1.16h2.33a.58.58 0 010 1.16z"/><path d="M21.47 13.43H8.95a.58.58 0 01-.58-.58V.58A.58.58 0 018.95 0h12.52a.58.58 0 01.53.58v12.27a.58.58 0 01-.53.58zM9.53 12.26h11.36V1.16H9.53z"/><path d="M15.21 7.3a.58.58 0 01-.39-.15l-1.42-1.3a.58.58 0 01-.19-.43V.58a.58.58 0 01.58-.58h2.85a.58.58 0 01.58.58v4.84a.58.58 0 01-.19.43l-1.43 1.3a.58.58 0 01-.39.15zm-.84-2.14l.84.77.79-.77v-4h-1.63zm-.92 5.15h-2.33a.58.58 0 010-1.16h2.33a.58.58 0 010 1.16zM37 13.43H24.53a.58.58 0 01-.58-.58V.58a.58.58 0 01.58-.58H37a.58.58 0 01.58.58v12.27a.58.58 0 01-.58.58zm-11.89-1.17h11.35V1.16H25.11z"/><path d="M30.79 7.3a.58.58 0 01-.39-.15L29 5.85a.58.58 0 01-.19-.43V.58a.58.58 0 01.55-.58h2.85a.58.58 0 01.58.58v4.84a.58.58 0 01-.19.43l-1.42 1.3a.58.58 0 01-.39.15zm-.84-2.14l.84.77.84-.77v-4h-1.69zM29 10.31h-2.31a.58.58 0 010-1.16H29a.58.58 0 110 1.16zm.14 15.38H16.62a.58.58 0 01-.58-.58V12.85a.58.58 0 01.58-.58h12.52a.58.58 0 01.58.58v12.26a.58.58 0 01-.58.58zM17.2 24.53h11.36v-11.1H17.2z"/><path d="M22.88 19.56a.58.58 0 01-.39-.15l-1.42-1.3a.58.58 0 01-.19-.43v-4.83a.58.58 0 01.58-.58h2.84a.58.58 0 01.58.58v4.84a.58.58 0 01-.19.43l-1.42 1.3a.58.58 0 01-.39.14zM22 17.43l.84.77.84-.77v-4H22zm-.88 5.15h-2.33a.58.58 0 010-1.16h2.33a.58.58 0 010 1.16zm23.03 3.11H31.63a.58.58 0 01-.58-.58V12.85a.58.58 0 01.58-.58h12.52a.58.58 0 01.58.58V17a.58.58 0 11-1.16 0v-3.57H32.21v11.1h11.35v-1.88a.58.58 0 111.16 0v2.46a.58.58 0 01-.57.58z"/><path d="M44.15 23.23a.58.58 0 01-.58-.58v-1.74a.58.58 0 011.16 0v1.74a.58.58 0 01-.58.58zm0-3.92a.58.58 0 01-.58-.58V17a.58.58 0 011.16 0v1.74a.58.58 0 01-.58.57zm-6.26.25a.58.58 0 01-.39-.15l-1.42-1.3a.58.58 0 01-.19-.43v-4.83a.58.58 0 01.58-.58h2.85a.58.58 0 01.58.58v4.84a.58.58 0 01-.19.43l-1.42 1.3a.58.58 0 01-.4.14zM37 17.43l.84.77.84-.77v-4H37zm-.87 5.15h-2.34a.58.58 0 010-1.16h2.33a.58.58 0 010 1.16z"/></g></g></svg>