<svg xmlns="http://www.w3.org/2000/svg" viewBox="0 0 42.12 45.44"><g data-name="Слой 2"><g data-name="1"><path d="M21.06 18.91a.58.58 0 01-.5-.29l-5-8.64a6.74 6.74 0 01-.15-6.51 6.22 6.22 0 015-3.43 7.34 7.34 0 011.29 0 6.22 6.22 0 015 3.43 6.74 6.74 0 01-.11 6.53l-5 8.64a.58.58 0 01-.53.27zm0-17.75h-.54A5.08 5.08 0 0016.41 4a5.58 5.58 0 00.12 5.4l4.53 7.78 4.53-7.78.5.29-.5-.29a5.58 5.58 0 00.12-5.4 5.08 5.08 0 00-4.11-2.81z"/><path d="M21.06 10.36a3.78 3.78 0 113.78-3.78 3.78 3.78 0 01-3.78 3.78zm0-6.39a2.62 2.62 0 102.62 2.62A2.62 2.62 0 0021.06 4zM33 45.44H9.16a.58.58 0 01-.58-.58v-23.8a.58.58 0 01.58-.58H33a.58.58 0 01.58.58v23.8a.58.58 0 01-.58.58zM9.74 44.28h22.64V21.64H9.74z"/><path d="M23.55 28h-5a.58.58 0 01-.58-.58v-6.36a.58.58 0 01.58-.58h5a.58.58 0 01.58.58v6.36a.58.58 0 01-.58.58zm-4.4-1.16H23v-5.2h-3.85zm-1.31 14.52H12a.58.58 0 010-1.16h5.89a.58.58 0 010 1.16zm0-3.29H12a.58.58 0 010-1.16h5.89a.58.58 0 010 1.16zm23.7 7.37H.58a.58.58 0 110-1.16h41a.58.58 0 110 1.16zm-4.37-3a.58.58 0 01-.58-.58v-1.74a.58.58 0 111.16 0v1.74a.58.58 0 01-.58.58zm0-4.78a.58.58 0 01-.58-.58V34a.58.58 0 011.16 0v3a.58.58 0 01-.58.66zm0-6.06a.58.58 0 01-.58-.58v-1.75a.58.58 0 011.16 0V31a.58.58 0 01-.58.6z"/></g></g></svg>