<svg xmlns="http://www.w3.org/2000/svg" width="1153.383" height="963.799" viewBox="0 0 1153.383 963.799">
  <g id="Group_25" data-name="Group 25" transform="translate(68.68 -129.098)">
    <g id="Group_5" data-name="Group 5" transform="translate(-68.68 129.098)">
      <g id="Group_2" data-name="Group 2" transform="translate(43.627)" opacity="0.41">
        <g id="Group_1" data-name="Group 1">
          <path id="Path_1" data-name="Path 1" d="M1052.557,744.225a331.488,331.488,0,0,0-1.518-56.5c-9.975-88.04-55.143-171.059-121.621-229.633-23.718-20.9-50.7-39.619-66.137-67.205C837.289,344.434,839.259,291.044,807,245.177c-32.3-45.922-79.361-81.734-132.44-100.123C516.3,90.218,294.735,179.5,314.686,370.177c.072.681.149,1.677.235,2.938,2.651,39.6-28.434,72.906-68,73.845C100.91,450.422-24.778,563-51.669,705.6c-17.3,91.705,11.022,192.227,78.108,257.1,50.076,48.424,117.263,75.029,184.483,93.31,134.776,36.656,276.605,44.339,415.572,30.321,130.086-13.119,267.3-50.514,351.428-150.594C1022.8,882.352,1048.511,813.89,1052.557,744.225Z" transform="translate(56.635 -129.098)" fill="#c5d9ff"/>
        </g>
      </g>
      <g id="Group_4" data-name="Group 4" transform="translate(163.822 142.229)" opacity="0.88">
        <g id="Group_3" data-name="Group 3">
          <path id="Path_2" data-name="Path 2" d="M845.471,650.246a259.538,259.538,0,0,0-1.188-44.259c-7.817-68.969-43.2-134-95.277-179.89-18.578-16.372-39.717-31.038-51.807-52.648-20.364-36.392-18.821-78.217-44.092-114.148a213.765,213.765,0,0,0-103.753-78.438c-123.975-42.955-297.545,26.989-281.919,176.359.058.536.12,1.315.185,2.3,2.075,31.027-22.276,57.114-53.267,57.849C99.968,420.087,1.508,508.276-19.563,619.986-33.109,691.828-10.924,770.573,41.63,821.4c39.228,37.938,91.861,58.78,144.52,73.1C291.732,923.21,402.838,929.227,511.7,918.248,613.606,907.972,721.1,878.676,787,800.275,822.159,758.45,842.3,704.821,845.471,650.246Z" transform="translate(23.452 -168.365)" fill="#c5d9ff"/>
        </g>
      </g>
      <circle id="Ellipse_1" data-name="Ellipse 1" cx="35.71" cy="35.71" r="35.71" transform="translate(1042.79 168.736) rotate(-76.66)" fill="#c5d9ff" opacity="0.31"/>
      <circle id="Ellipse_2" data-name="Ellipse 2" cx="41.409" cy="41.409" r="41.409" transform="translate(242.91 100.821) rotate(-45)" fill="#c5d9ff" opacity="0.31"/>
      <circle id="Ellipse_3" data-name="Ellipse 3" cx="53.48" cy="53.48" r="53.48" transform="translate(0 842.752)" fill="#c5d9ff" opacity="0.31"/>
    </g>
    <g id="Group_7" data-name="Group 7" transform="translate(217.236 223.107)">
      <g id="Group_6" data-name="Group 6" transform="translate(0)">
        <circle id="Ellipse_4" data-name="Ellipse 4" cx="189.547" cy="189.547" r="189.547" transform="translate(0 1.152)" fill="#ee9d60"/>
        <path id="Path_3" data-name="Path 3" d="M294.288,482.255a1.813,1.813,0,0,1-1.282-3.093A187.738,187.738,0,0,0,160.258,158.674,186.525,186.525,0,0,0,27.506,213.662a1.811,1.811,0,0,1-2.561-2.561,191.354,191.354,0,0,1,270.621,0,191.354,191.354,0,0,1,0,270.621A1.793,1.793,0,0,1,294.288,482.255Z" transform="translate(26.873 -155.052)" fill="#243762"/>
        <circle id="Ellipse_5" data-name="Ellipse 5" cx="144.24" cy="144.24" r="144.24" transform="translate(45.308 46.459)" fill="#fff"/>
        <path id="Path_4" data-name="Path 4" d="M168.314,459.482c-80.535,0-146.049-65.521-146.049-146.052S87.779,167.378,168.314,167.378a1.811,1.811,0,0,1,0,3.622C89.778,171,25.887,234.895,25.887,313.43S89.778,455.86,168.314,455.86a1.811,1.811,0,0,1,0,3.622Z" transform="translate(21.233 -122.731)" fill="#243762"/>
        <path id="Path_5" data-name="Path 5" d="M111.879,274.438H72.64a14.618,14.618,0,0,1-14.6-14.6v-54.4a12.678,12.678,0,1,1,25.355,0v43.643h28.485a12.678,12.678,0,0,1,0,25.355Z" transform="translate(115.038 -56.171)" fill="#3e4147"/>
      </g>
    </g>
    <g id="Group_12" data-name="Group 12" transform="translate(82.546 302.979)">
      <path id="Path_6" data-name="Path 6" d="M3.027,352.494,207.214,556.678a102.275,102.275,0,0,0,144.639,0l24.41-24.41a23.6,23.6,0,0,0,0-33.378l-83.32-83.324a23.606,23.606,0,0,0-33.378,0L217.9,457.228a8.343,8.343,0,0,1-11.8,0L105.062,356.185a8.233,8.233,0,0,1,0-11.645l41.082-41.082a23.606,23.606,0,0,0,0-33.378L60.568,184.5a23.6,23.6,0,0,0-33.085-.29L4.3,206.6A102.28,102.28,0,0,0,3.027,352.494Z" transform="translate(26.929 -175.828)" fill="#3e4147"/>
      <g id="Group_8" data-name="Group 8" transform="translate(28.493)">
        <path id="Path_7" data-name="Path 7" d="M-13.186,210.716,101.545,325.451l3.934-3.934,18.06-18.06a23.606,23.606,0,0,0,0-33.378L37.962,184.5a23.6,23.6,0,0,0-33.085-.29L-18.308,206.6Z" transform="translate(21.043 -175.828)" fill="#ecf1f7"/>
        <path id="Path_8" data-name="Path 8" d="M103.525,329.284-12.42,213.342-19.063,208,5.6,184.184a25.538,25.538,0,0,1,35.62.312L126.8,270.072a25.442,25.442,0,0,1,0,35.942ZM-13.59,207.753l3.662,2.959L103.525,324.162l20.711-20.708a21.8,21.8,0,0,0,0-30.821L38.659,187.056a21.89,21.89,0,0,0-30.546-.264Z" transform="translate(19.063 -177.103)" fill="#243762"/>
      </g>
      <g id="Group_9" data-name="Group 9" transform="translate(261.889 229.465)">
        <path id="Path_9" data-name="Path 9" d="M51.247,274.068,165.982,388.8l3.934-3.934,18.056-18.056a23.6,23.6,0,0,0,0-33.378L102.4,247.854a23.6,23.6,0,0,0-33.085-.29L46.129,269.953Z" transform="translate(-43.391 -239.178)" fill="#ecf1f7"/>
        <path id="Path_10" data-name="Path 10" d="M167.965,392.635,52.02,276.691l-6.647-5.335,24.663-23.819a25.539,25.539,0,0,1,35.624.312l85.577,85.577a25.412,25.412,0,0,1,0,35.939ZM50.846,271.1l3.666,2.959L167.965,387.514,188.676,366.8a21.792,21.792,0,0,0,0-30.817L103.1,250.408a21.9,21.9,0,0,0-30.549-.264Z" transform="translate(-45.373 -240.454)" fill="#243762"/>
      </g>
      <g id="Group_10" data-name="Group 10" transform="translate(43.325 19.548)">
        <line id="Line_1" data-name="Line 1" x2="69.909" y2="69.909" transform="translate(1.811 1.812)" fill="#ecf1f7"/>
        <path id="Path_11" data-name="Path 11" d="M56.75,256.033a1.806,1.806,0,0,1-1.279-.532l-69.907-69.907a1.806,1.806,0,0,1,0-2.561,1.806,1.806,0,0,1,2.561,0L58.033,252.94a1.813,1.813,0,0,1-1.282,3.093Z" transform="translate(14.968 -182.5)" fill="#243762"/>
      </g>
      <g id="Group_11" data-name="Group 11" transform="translate(321.405 297.628)">
        <line id="Line_2" data-name="Line 2" x2="69.909" y2="69.909" transform="translate(1.812 1.813)" fill="#ecf1f7"/>
        <path id="Path_12" data-name="Path 12" d="M133.526,332.805a1.808,1.808,0,0,1-1.282-.532L62.336,262.365A1.811,1.811,0,0,1,64.9,259.8L134.8,329.712a1.813,1.813,0,0,1-1.279,3.093Z" transform="translate(-61.804 -259.272)" fill="#243762"/>
      </g>
    </g>
    <g id="Group_15" data-name="Group 15" transform="translate(467.481 232.678)">
      <path id="Path_13" data-name="Path 13" d="M394.309,956.517,126.64,916.927a55.4,55.4,0,0,1-46.693-62.909l96-649.023a55.4,55.4,0,0,1,62.906-46.7l267.669,39.59a55.4,55.4,0,0,1,46.7,62.909l-96,649.023A55.4,55.4,0,0,1,394.309,956.517Z" transform="translate(-79.343 -157.694)" fill="#3e4147"/>
      <rect id="Rectangle_1" data-name="Rectangle 1" width="619.563" height="335.941" transform="translate(26.856 674.093) rotate(-81.586)" fill="#ecf1f7"/>
      <rect id="Rectangle_2" data-name="Rectangle 2" width="46.49" height="335.941" transform="translate(110.707 107.188) rotate(-81.586)" fill="#ee9d60"/>
      <path id="Path_14" data-name="Path 14" d="M146.793,398.485a21.691,21.691,0,1,1,21.443-18.516A21.591,21.591,0,0,1,146.793,398.485Zm-.054-39.76a18.126,18.126,0,1,0,2.688.2A18.223,18.223,0,0,0,146.739,358.724Z" transform="translate(40.608 359.926)" fill="#ecf1f7"/>
      <path id="Path_15" data-name="Path 15" d="M149.392,183.074a7.04,7.04,0,0,1-1.025-.076,6.973,6.973,0,1,1,7.922-5.879h0A6.99,6.99,0,0,1,149.392,183.074Zm-.011-10.327a3.352,3.352,0,1,0,3.322,3.843h0a3.358,3.358,0,0,0-2.822-3.807A3.38,3.38,0,0,0,149.381,172.747Z" transform="translate(86.032 -127.733)" fill="#ecf1f7"/>
      <path id="Path_16" data-name="Path 16" d="M240.582,196.559a7.169,7.169,0,0,1-1.04-.076l-84.784-12.54a6.975,6.975,0,0,1,2.043-13.8l84.784,12.54a6.976,6.976,0,0,1-1,13.876Zm-84.805-22.87a3.354,3.354,0,0,0-.485,6.672L240.075,192.9a3.349,3.349,0,0,0,3.807-2.825,3.361,3.361,0,0,0-2.829-3.807l-84.783-12.54A3.759,3.759,0,0,0,155.777,173.688Z" transform="translate(102.792 -125.251)" fill="#ecf1f7"/>
      <path id="Path_17" data-name="Path 17" d="M358.881,330.472,127.057,296.185a6.9,6.9,0,0,0-7.846,5.821l-8.9,60.146A6.909,6.909,0,0,0,116.14,370l198.2,29.314,20.418,28.162,3.64-24.605,9.57,1.416a6.912,6.912,0,0,0,7.846-5.824l8.892-60.142A6.9,6.9,0,0,0,358.881,330.472Z" transform="translate(1.673 205.249)" fill="#c5d9ff"/>
      <path id="Path_18" data-name="Path 18" d="M315.653,402.441a1.674,1.674,0,0,1-.268-.022L117.185,373.1a8.715,8.715,0,0,1-7.349-9.9l8.9-60.142a8.691,8.691,0,0,1,9.9-7.349l53.572,7.929a1.809,1.809,0,1,1-.529,3.579L128.1,299.29a5.124,5.124,0,0,0-5.788,4.3l-8.9,60.138a5.095,5.095,0,0,0,4.3,5.788l198.2,29.321a1.81,1.81,0,0,1-.264,3.6Z" transform="translate(0.36 203.93)" fill="#243762"/>
      <path id="Path_19" data-name="Path 19" d="M369.058,261.671,137.233,227.383a6.908,6.908,0,0,0-7.846,5.821l-8.9,60.146a6.91,6.91,0,0,0,5.824,7.846l198.2,29.314,20.418,28.162,3.637-24.6,9.57,1.413a6.908,6.908,0,0,0,7.846-5.821l8.9-60.146A6.91,6.91,0,0,0,369.058,261.671Z" transform="translate(28.356 24.843)" fill="#c5d9ff"/>
      <path id="Path_20" data-name="Path 20" d="M347.385,319.512,324.8,288.369,127.361,259.163a8.725,8.725,0,0,1-7.349-9.9,1.811,1.811,0,1,1,3.582.529,5.095,5.095,0,0,0,4.3,5.788l198.954,29.426L345.1,310.192l3.253-22,11.363,1.681a5.093,5.093,0,0,0,5.785-4.3l5.919-40.007a1.811,1.811,0,1,1,3.582.529l-5.919,40.01a8.713,8.713,0,0,1-9.9,7.349l-7.777-1.152Z" transform="translate(27.046 68.665)" fill="#243762"/>
      <path id="Path_21" data-name="Path 21" d="M120.223,258.243l231.824,34.291a6.91,6.91,0,0,1,5.824,7.846l-8.9,60.142a6.91,6.91,0,0,1-7.846,5.824l-198.2-29.318-27.695,21.048,3.64-24.605-9.57-1.416a6.91,6.91,0,0,1-5.824-7.846l8.9-60.142A6.91,6.91,0,0,1,120.223,258.243Z" transform="translate(-16.247 105.763)" fill="#ee9d60"/>
      <path id="Path_22" data-name="Path 22" d="M260.946,344.666a8.691,8.691,0,0,1-1.3-.1l-123.722-18.3a1.809,1.809,0,1,1,.529-3.579l123.722,18.3a5.095,5.095,0,0,0,5.788-4.3l8.9-60.146a5.1,5.1,0,0,0-4.3-5.788,1.811,1.811,0,0,1,.529-3.582,8.733,8.733,0,0,1,7.353,9.9l-8.9,60.142a8.728,8.728,0,0,1-8.606,7.447Z" transform="translate(64.97 129.33)" fill="#243762"/>
      <rect id="Rectangle_3" data-name="Rectangle 3" width="57.004" height="335.941" transform="translate(26.856 674.093) rotate(-81.586)" fill="#fff"/>
      <path id="Path_23" data-name="Path 23" d="M131.712,354.823a20.214,20.214,0,1,1-17.039-22.953A20.213,20.213,0,0,1,131.712,354.823Z" transform="translate(-47.469 298.44)" fill="#c5d9ff"/>
      <path id="Path_24" data-name="Path 24" d="M339.235,402.333a17.72,17.72,0,0,1-2.648-.2L121.218,370.281a18.022,18.022,0,1,1,5.274-35.656l215.369,31.857a18.023,18.023,0,0,1-2.626,35.852Zm-2.119-3.778a14.4,14.4,0,0,0,13.67-22.83,14.281,14.281,0,0,0-9.454-5.662L125.96,338.2a14.4,14.4,0,1,0-4.213,28.492Z" transform="translate(-9.9 305.712)" fill="#af9cda" opacity="0.33"/>
      <path id="Path_25" data-name="Path 25" d="M122.63,193.986a7.307,7.307,0,0,1-1.043-.076A7.092,7.092,0,0,1,118.4,181.2a7.011,7.011,0,0,1,5.267-1.318,7.094,7.094,0,0,1,5.977,8.052h0A7.1,7.1,0,0,1,122.63,193.986Zm-.011-10.562a3.471,3.471,0,0,0-.5,6.9,3.483,3.483,0,0,0,3.941-2.927h0a3.469,3.469,0,0,0-2.927-3.937A3.514,3.514,0,0,0,122.62,183.423Z" transform="translate(15.553 -99.731)" fill="#fff"/>
      <path id="Path_26" data-name="Path 26" d="M128.053,194.784A6.884,6.884,0,0,1,127,194.7a7.038,7.038,0,1,1,1.054.08Zm-.018-10.562a3.472,3.472,0,0,0-3.43,2.963,3.469,3.469,0,1,0,6.864,1.014h0a3.461,3.461,0,0,0-3.434-3.977Z" transform="translate(29.744 -97.628)" fill="#fff"/>
      <path id="Path_27" data-name="Path 27" d="M133.351,195.569a7.293,7.293,0,0,1-1.043-.076,7.1,7.1,0,1,1,1.043.076Zm-.011-10.562a3.471,3.471,0,0,0-.5,6.9,3.471,3.471,0,1,0,.5-6.9Z" transform="translate(43.665 -95.57)" fill="#fff"/>
      <path id="Path_28" data-name="Path 28" d="M426.906,237.1a2.221,2.221,0,0,1-.268-.018l-307.621-45.5a1.811,1.811,0,0,1,.532-3.582l307.622,45.5a1.81,1.81,0,0,1-.264,3.6Z" transform="translate(20.634 -78.281)" fill="#243762"/>
      <path id="Path_29" data-name="Path 29" d="M287.63,329.619a1.66,1.66,0,0,1-.268-.022L123.228,305.322a1.811,1.811,0,0,1-1.529-2.054,1.786,1.786,0,0,1,2.057-1.525L287.89,326.019a1.81,1.81,0,0,1-.261,3.6Z" transform="translate(31.669 219.957)" fill="#fff"/>
      <path id="Path_30" data-name="Path 30" d="M192.55,321.08a1.654,1.654,0,0,1-.264-.022l-69.86-10.334a1.809,1.809,0,1,1,.532-3.579l69.857,10.334a1.81,1.81,0,0,1-.264,3.6Z" transform="translate(29.573 234.132)" fill="#fff"/>
      <path id="Path_31" data-name="Path 31" d="M170.975,323.059a1.678,1.678,0,0,1-.268-.022l-49.029-7.252a1.809,1.809,0,1,1,.529-3.579l49.033,7.251a1.81,1.81,0,0,1-.264,3.6Z" transform="translate(27.611 247.402)" fill="#fff"/>
      <path id="Path_32" data-name="Path 32" d="M220.272,325.176a1.7,1.7,0,0,1-.268-.018l-72.2-10.678a1.809,1.809,0,1,1,.532-3.579l72.2,10.674a1.81,1.81,0,0,1-.264,3.6Z" transform="translate(96.128 243.977)" fill="#fff"/>
      <g id="Group_13" data-name="Group 13" transform="translate(130.412 385.469)">
        <path id="Path_33" data-name="Path 33" d="M282.1,292.018a1.67,1.67,0,0,1-.268-.022L117.695,267.721a1.812,1.812,0,0,1-1.529-2.057,1.791,1.791,0,0,1,2.057-1.525l164.138,24.279a1.81,1.81,0,0,1-.264,3.6Z" transform="translate(-113.252 -264.115)" fill="#fff"/>
        <path id="Path_34" data-name="Path 34" d="M187.021,283.471a1.67,1.67,0,0,1-.268-.022l-69.86-10.33a1.809,1.809,0,1,1,.532-3.579l69.857,10.33a1.81,1.81,0,0,1-.261,3.6Z" transform="translate(-115.347 -249.935)" fill="#fff"/>
        <path id="Path_35" data-name="Path 35" d="M259.035,300.039a1.771,1.771,0,0,1-.279-.022L117.1,278.042a1.811,1.811,0,1,1,.554-3.579l141.655,21.976a1.811,1.811,0,0,1-.275,3.6Z" transform="translate(-114.774 -237.033)" fill="#fff"/>
        <path id="Path_36" data-name="Path 36" d="M214.739,287.576a1.706,1.706,0,0,1-.268-.022l-72.2-10.678a1.809,1.809,0,1,1,.532-3.579L215,283.976a1.81,1.81,0,0,1-.264,3.6Z" transform="translate(-48.792 -240.092)" fill="#fff"/>
      </g>
      <path id="Path_37" data-name="Path 37" d="M128.443,195.823l231.825,34.291a6.908,6.908,0,0,1,5.821,7.846l-8.9,60.142a6.91,6.91,0,0,1-7.846,5.824l-198.2-29.314-27.7,21.045,3.64-24.605-9.57-1.416a6.9,6.9,0,0,1-5.821-7.842l8.9-60.146A6.908,6.908,0,0,1,128.443,195.823Z" transform="translate(5.307 -57.911)" fill="#ee9d60"/>
      <path id="Path_38" data-name="Path 38" d="M282.71,291.754a2.233,2.233,0,0,1-.268-.018,1.811,1.811,0,0,1-1.525-2.057l8.9-60.142a5.1,5.1,0,0,0-4.3-5.788L141.581,202.457a1.812,1.812,0,0,1-1.529-2.057,1.841,1.841,0,0,1,2.057-1.525l143.937,21.291a8.72,8.72,0,0,1,7.349,9.9l-8.9,60.142A1.813,1.813,0,0,1,282.71,291.754Z" transform="translate(79.793 -49.752)" fill="#243762"/>
      <g id="Group_14" data-name="Group 14" transform="translate(160.183 159.381)">
        <path id="Path_39" data-name="Path 39" d="M290.315,229.594a2.274,2.274,0,0,1-.268-.018L125.914,205.3a1.811,1.811,0,1,1,.529-3.582L290.58,225.993a1.81,1.81,0,0,1-.264,3.6Z" transform="translate(-121.472 -201.696)" fill="#fff"/>
        <path id="Path_40" data-name="Path 40" d="M195.239,221.055a2.272,2.272,0,0,1-.268-.018L125.115,210.7a1.811,1.811,0,1,1,.529-3.582l69.86,10.33a1.812,1.812,0,0,1-.264,3.6Z" transform="translate(-123.567 -187.522)" fill="#fff"/>
        <path id="Path_41" data-name="Path 41" d="M267.254,237.617a1.841,1.841,0,0,1-.279-.022L125.32,215.62a1.815,1.815,0,0,1-1.514-2.068,1.834,1.834,0,0,1,2.068-1.51L267.53,234.017a1.811,1.811,0,0,1-.275,3.6Z" transform="translate(-122.994 -174.617)" fill="#fff"/>
        <path id="Path_42" data-name="Path 42" d="M222.958,225.157a1.632,1.632,0,0,1-.264-.022l-72.2-10.678a1.811,1.811,0,0,1,.532-3.582l72.2,10.678a1.812,1.812,0,0,1-.264,3.6Z" transform="translate(-57.012 -177.678)" fill="#fff"/>
      </g>
      <path id="Path_43" data-name="Path 43" d="M297.844,261.456a1.667,1.667,0,0,1-.264-.022L133.442,237.159a1.813,1.813,0,0,1,.532-3.586l164.134,24.279a1.812,1.812,0,0,1-.264,3.6Z" transform="translate(58.458 41.22)" fill="#fff"/>
      <path id="Path_44" data-name="Path 44" d="M202.769,252.915a2.286,2.286,0,0,1-.268-.018l-69.857-10.334a1.811,1.811,0,1,1,.529-3.582l69.86,10.334a1.81,1.81,0,0,1-.264,3.6Z" transform="translate(56.361 55.394)" fill="#fff"/>
      <path id="Path_45" data-name="Path 45" d="M181.191,254.9a1.7,1.7,0,0,1-.268-.022l-49.029-7.252a1.811,1.811,0,0,1,.532-3.582l49.029,7.252a1.812,1.812,0,0,1-.264,3.6Z" transform="translate(54.399 68.663)" fill="#fff"/>
      <path id="Path_46" data-name="Path 46" d="M230.491,257.016a2.221,2.221,0,0,1-.268-.018l-72.2-10.682a1.811,1.811,0,1,1,.529-3.582l72.2,10.678a1.812,1.812,0,0,1-.261,3.6Z" transform="translate(122.917 65.237)" fill="#fff"/>
    </g>
    <g id="Group_24" data-name="Group 24" transform="translate(75.157 594.775)">
      <g id="Group_16" data-name="Group 16" transform="translate(0 126.056)">
        <path id="Path_47" data-name="Path 47" d="M384.594,546.159,12.763,588.049A13.012,13.012,0,0,1-1.628,576.575l-26.836-238.2a.682.682,0,0,1,.6-.757l396.245-44.647a.687.687,0,0,1,.757.6l26.847,238.294A12.927,12.927,0,0,1,384.594,546.159Z" transform="translate(30.28 -291.151)" fill="#ee9d60"/>
        <path id="Path_48" data-name="Path 48" d="M12.607,591.256A14.85,14.85,0,0,1-2.117,578.089l-26.836-238.2a2.5,2.5,0,0,1,2.2-2.764L369.493,292.48a2.488,2.488,0,0,1,2.76,2.2l26.847,238.3a14.741,14.741,0,0,1-12.993,16.293L14.277,591.165A14.463,14.463,0,0,1,12.607,591.256ZM-25.23,340.6,1.483,577.684a11.188,11.188,0,0,0,12.388,9.881l371.831-41.9.2,1.8-.2-1.8a11.108,11.108,0,0,0,9.8-12.286L368.779,296.2Z" transform="translate(28.969 -292.464)" fill="#243762"/>
      </g>
      <path id="Path_49" data-name="Path 49" d="M367.168,546.159,30.946,588.049c-7.143.808,104.187-142,103.383-149.138L-28.465,338.371a.682.682,0,0,1,.6-.757l396.245-44.647a.687.687,0,0,1,.757.6L233.59,427.726C234.387,434.822,374.263,545.359,367.168,546.159Z" transform="translate(30.28 -165.095)" fill="#243762" opacity="0.29"/>
      <g id="Group_17" data-name="Group 17" transform="translate(1.146)">
        <path id="Path_50" data-name="Path 50" d="M-27.808,428.853,136.051,266.8a29.764,29.764,0,0,1,36.613-4.18L367.426,383.58a.413.413,0,0,1-.17.761L-28.489,428.929" transform="translate(29.083 -256.334)" fill="#f7a9b4"/>
        <path id="Path_51" data-name="Path 51" d="M-27.856,432.058l-.3-2.666-.5-.5.395-.391,0-.043.054-.007L135.206,266.841a31.481,31.481,0,0,1,38.84-4.434L368.812,383.369a2.224,2.224,0,0,1-.913,4.1Zm185.28-170.773a27.871,27.871,0,0,0-19.668,8.132L-22.394,427.794l385.871-43.473L172.137,265.486A27.927,27.927,0,0,0,157.424,261.284Z" transform="translate(28.653 -257.662)" fill="#243762"/>
      </g>
      <path id="Path_52" data-name="Path 52" d="M-27.808,428.853,136.051,266.8a29.764,29.764,0,0,1,36.613-4.18L367.426,383.58a.413.413,0,0,1-.17.761L-28.489,428.929" transform="translate(30.229 -256.334)" fill="#ee9d60" opacity="0.29"/>
      <g id="Group_18" data-name="Group 18" transform="translate(57.376 231.541)">
        <path id="Path_53" data-name="Path 53" d="M111.105,337.575-12.066,508.95l336.222-37.88L165.937,331.4A37.2,37.2,0,0,0,111.105,337.575Z" transform="translate(15.916 -320.279)" fill="#f7a9b4"/>
        <path id="Path_54" data-name="Path 54" d="M-13.129,512.514,112.422,337.829l1.471,1.058-1.471-1.058a39.019,39.019,0,0,1,57.5-6.48L331.2,473.721ZM144.087,325.205a35.354,35.354,0,0,0-28.72,14.738L-5.428,508l328.116-36.968L167.525,334.065A35.459,35.459,0,0,0,144.087,325.205Z" transform="translate(13.129 -321.586)" fill="#243762"/>
      </g>
      <g id="Group_19" data-name="Group 19" transform="translate(22.426 23.901)">
        <path id="Path_55" data-name="Path 55" d="M-22.778,294.167l258.983-29.18c16.973-1.912,32.081,8.483,33.744,23.222l16.644,147.736L214.574,502.14l-95.168,10.725-94-58.795L9.274,310.934Z" transform="translate(22.778 -262.95)" fill="#fff"/>
        <path id="Path_56" data-name="Path 56" d="M114.857,516.048l-95.281-59.6L3.458,313.4l-24.663-20.389L231.874,264.5a35.1,35.1,0,0,1,23.848,5.676,26.808,26.808,0,0,1,11.9,19.143l16.749,148.649-73.135,67.22ZM22.978,454.309l92.727,58,93.955-10.588,70.907-65.173L264.024,289.719a23.23,23.23,0,0,0-10.356-16.56,31.455,31.455,0,0,0-21.385-5.056l-253.1,28.517L6.841,311.086Z" transform="translate(26.903 -264.261)" fill="#243762"/>
      </g>
      <path id="Path_57" data-name="Path 57" d="M111.105,333.493-12.066,519.654l336.222-37.88L165.937,327.318A37.2,37.2,0,0,0,111.105,333.493Z" transform="translate(73.292 -99.441)" fill="#243762" opacity="0.29"/>
      <g id="Group_20" data-name="Group 20" transform="translate(57.376 231.541)">
        <path id="Path_58" data-name="Path 58" d="M111.105,337.575-12.066,508.95l336.222-37.88L165.937,331.4A37.2,37.2,0,0,0,111.105,337.575Z" transform="translate(15.916 -320.279)" fill="#ee9d60"/>
        <path id="Path_59" data-name="Path 59" d="M-13.129,512.514,112.422,337.829l1.471,1.058-1.471-1.058a39.019,39.019,0,0,1,57.5-6.48L331.2,473.721ZM144.087,325.205a35.354,35.354,0,0,0-28.72,14.738L-5.428,508l328.116-36.968L167.525,334.065A35.459,35.459,0,0,0,144.087,325.205Z" transform="translate(13.129 -321.586)" fill="#243762"/>
      </g>
      <path id="Path_60" data-name="Path 60" d="M90.72,345.07.261,470.929l246.922-27.822L130.988,340.532A27.321,27.321,0,0,0,90.72,345.07Z" transform="translate(105.615 -58.301)" fill="#ecf1f7" opacity="0.35"/>
      <g id="Group_21" data-name="Group 21" transform="translate(1.608 171.304)">
        <line id="Line_3" data-name="Line 3" x2="162.044" y2="100.975" transform="translate(0.958 1.537)" fill="#f7a9b4"/>
        <rect id="Rectangle_4" data-name="Rectangle 4" width="3.626" height="190.929" transform="translate(0 3.077) rotate(-58.072)" fill="#243762"/>
      </g>
      <g id="Group_22" data-name="Group 22" transform="translate(262.614 126.828)">
        <line id="Line_4" data-name="Line 4" x1="135.513" y2="134.5" transform="translate(1.256 1.304)" fill="#f7a9b4"/>
        <rect id="Rectangle_5" data-name="Rectangle 5" width="190.93" height="3.619" transform="translate(0 134.539) rotate(-44.801)" fill="#243762"/>
      </g>
      <g id="Group_23" data-name="Group 23" transform="translate(7.236 52.278)">
        <path id="Path_61" data-name="Path 61" d="M26.131,356.357l-45.2,5.093-7.266-64.485a21.7,21.7,0,0,1,19.143-24l2.054-.232a21.7,21.7,0,0,1,24,19.139Z" transform="translate(28.283 -270.787)" fill="#ecf1f7"/>
        <path id="Path_62" data-name="Path 62" d="M-19.352,364.761l-7.469-66.289a23.373,23.373,0,0,1,4.984-17.3,23.355,23.355,0,0,1,15.753-8.7l2.057-.232a23.427,23.427,0,0,1,17.3,4.984,23.36,23.36,0,0,1,8.708,15.756l7.469,66.278Zm18-89.047a20.718,20.718,0,0,0-2.267.127l-2.057.232A19.744,19.744,0,0,0-19,283.436a19.764,19.764,0,0,0-4.216,14.633l7.063,62.688,41.6-4.687-7.063-62.689a19.766,19.766,0,0,0-7.364-13.329A19.75,19.75,0,0,0-1.354,275.714Z" transform="translate(26.972 -272.095)" fill="#243762"/>
      </g>
      <path id="Path_63" data-name="Path 63" d="M-2.164,304.381a1.816,1.816,0,0,1-1.8-1.612,1.816,1.816,0,0,1,1.6-2l187.645-21.139a1.812,1.812,0,1,1,.409,3.6L-1.962,304.37A1.941,1.941,0,0,1-2.164,304.381Z" transform="translate(94.505 -200.102)" fill="#243762"/>
      <path id="Path_64" data-name="Path 64" d="M-.183,321.989a1.81,1.81,0,0,1-1.8-1.612,1.808,1.808,0,0,1,1.6-2l187.642-21.139a1.812,1.812,0,0,1,.409,3.6L.023,321.978A1.926,1.926,0,0,1-.183,321.989Z" transform="translate(99.71 -153.921)" fill="#243762"/>
      <path id="Path_65" data-name="Path 65" d="M-1.187,304.392a1.812,1.812,0,0,1-1.8-1.612,1.808,1.808,0,0,1,1.6-2L79.7,291.642a1.812,1.812,0,1,1,.409,3.6L-.981,304.381A1.991,1.991,0,0,1-1.187,304.392Z" transform="translate(97.077 -168.587)" fill="#243762"/>
      <path id="Path_66" data-name="Path 66" d="M27.061,301.549a1.811,1.811,0,0,1-.2-3.611l85.327-9.609a1.812,1.812,0,1,1,.406,3.6l-85.327,9.609A1.941,1.941,0,0,1,27.061,301.549Z" transform="translate(171.147 -177.276)" fill="#243762"/>
      <path id="Path_67" data-name="Path 67" d="M.942,323.284a1.811,1.811,0,0,1-.2-3.611l81.085-9.135a1.812,1.812,0,0,1,.409,3.6L1.148,323.273A1.918,1.918,0,0,1,.942,323.284Z" transform="translate(102.66 -119.041)" fill="#243762"/>
    </g>
  </g>
</svg>
