<svg xmlns="http://www.w3.org/2000/svg" width="1690" height="1206" viewBox="0 0 1690 1206">
  <g id="Group_41" data-name="Group 41" transform="translate(-0.033 -0.714)">
    <rect id="Rectangle_1" data-name="Rectangle 1" width="1690" height="1206" transform="translate(0.033 0.714)" fill="#fff"/>
    <g id="Group_40" data-name="Group 40" transform="translate(110.673 72.299)">
      <path id="Path_1" data-name="Path 1" d="M286.824,1147.571S107.071,957.807,221.546,734.658,489.629,623.8,482.283,364.03s353.453-281.966,468.27-206.6,124.937,123.9,362.029,93.967,347.347,191.171,269.431,344.588C1491,775.175,1765.146,792.537,1556.84,1148.014Z" transform="translate(-183.413 -119.625)" fill="#ebf3fa"/>
      <g id="Group_2" data-name="Group 2" transform="translate(971.655 173.975)" opacity="0.4">
        <path id="Path_2" data-name="Path 2" d="M2167.015,594.8a188.236,188.236,0,0,1-3.022,33.674,187,187,0,0,1-354.912,42.01,183.807,183.807,0,0,1-9.521-26.885,188.279,188.279,0,0,1-2.2-88.581c.028-.15.065-.289.094-.438a187.437,187.437,0,0,1,72.971-111.214q5.762-4.182,11.861-7.926a185.944,185.944,0,0,1,97.785-27.594q7.134,0,14.128.532a185.68,185.68,0,0,1,92.591,32.909h.009a187.662,187.662,0,0,1,51.28,53.546q4.295,6.784,8.02,13.941a186.115,186.115,0,0,1,20.917,86.027Z" transform="translate(-1793.117 -407.843)" fill="#d7e5ff"/>
        <g id="Group_1" data-name="Group 1" transform="translate(4.243 25.844)">
          <path id="Path_3" data-name="Path 3" d="M1919.342,529.231c-7.46,11.815,3.115,32.331-19.266,26.736s-36.061-8.085-37.3,4.346,16.786,12.439,16.786,25.495-8.085,17.374-20.516,11.172-16.012-15.219-30.465-9.624-22.847,1.865-26.111-9.325a16.366,16.366,0,0,0-2.322-4.9c.028-.15.065-.289.094-.438a187.437,187.437,0,0,1,72.971-111.214q5.762-4.182,11.861-7.926c5.828.214,12.795,2.424,18.735,9.773,13.055,16.17,21.756,8.085,18.65,26.736s1.865,21.14,12.431,20.515,23.005-.625,24.246,7.461S1926.8,517.417,1919.342,529.231Z" transform="translate(-1800.146 -451.807)" fill="#aec3ff"/>
          <path id="Path_4" data-name="Path 4" d="M2062.765,740.765s-16.475,5.285-20.826-6.217.621-13.988-13.989-17.407-15.853-13.367-25.178-12.123-4.663,4.974-15.542,13.056-20.827,4.352-20.516,19.272,16.475,17.252,19.738,27.043-2.331,13.988,4.663,21.449,20.049,4.2,13.988,14.454-15.387,18.184-10.724,34.037,1.4,16.786,9.325,27.976,23.313,14.92,25.644,7.46-10.724-17.251-6.528-24.712,11.191-2.331,13.989-13.522,14.143-11.19,15.075-18.961-13.677-19.583-8.082-24.557,16.785,9.015,25.489-3.419,2.8-22.38,11.813-34.193S2068.981,733.927,2062.765,740.765Z" transform="translate(-1866.167 -551.438)" fill="#aec3ff"/>
          <path id="Path_5" data-name="Path 5" d="M2317.815,665.815a188.259,188.259,0,0,1-3.022,33.674,185.913,185.913,0,0,1-29.505,71.721,21.342,21.342,0,0,1-14.948-.4c-23.313-9.325-6.061-34.5,3.264-47.093s-14.454-6.994-31.706-18.651,1.865-42.9-15.854-37.767-39.166,11.657-49.424-5.6,9.326-20.049.466-34.5,5.129-22.847,22.847-24.246,15.387-13.988,37.3-15.852,21.448,26.111,45.694,24.246,23.154,3.73,23.154,3.73a11.289,11.289,0,0,1,5.064,1.064A187.3,187.3,0,0,1,2317.815,665.815Z" transform="translate(-1948.16 -504.705)" fill="#aec3ff"/>
          <path id="Path_6" data-name="Path 6" d="M2303.472,530.727c-20.162,9.811-28.255-16.869-45.489-8.849-17.373,8.085-14.333-7.461-28-17.411s-41.031,8.085-39.791-7.46,21.756-11.191,26.111-23.622,24.246-9.325,24.246-9.325a13.5,13.5,0,0,1,3.618-.82s0-.01.009,0a187.668,187.668,0,0,1,51.28,53.546Q2299.747,523.57,2303.472,530.727Z" transform="translate(-1954.734 -455.644)" fill="#aec3ff"/>
          <path id="Path_7" data-name="Path 7" d="M2064.155,472.13s10.569-15.249-6.217-19.748-16.475,1.39-29.53,0-18.185,8.712-8.394,19.748,17.718,32.21,26.578,20.923S2053.742,473.218,2064.155,472.13Z" transform="translate(-1885.275 -450.658)" fill="#aec3ff"/>
        </g>
      </g>
      <path id="Path_8" data-name="Path 8" d="M1641.048,658.467v581.917c0,10.18-7.35,18.438-16.412,18.438H785.057c-9.061,0-16.411-8.258-16.411-18.438V658.467c0-10.189,7.35-18.438,16.411-18.438h839.58C1633.7,640.029,1641.048,648.279,1641.048,658.467Z" transform="translate(-415.386 -325.901)" fill="#aec3ff"/>
      <g id="Group_4" data-name="Group 4" transform="translate(353.26 314.128)">
        <path id="Path_9" data-name="Path 9" d="M1641.048,656.44v43.938h-872.4V656.44a16.409,16.409,0,0,1,16.411-16.411h839.58A16.409,16.409,0,0,1,1641.048,656.44Z" transform="translate(-768.646 -640.029)" fill="#739af0"/>
        <g id="Group_3" data-name="Group 3" transform="translate(26.687 22.534)">
          <path id="Path_10" data-name="Path 10" d="M812.857,685a7.64,7.64,0,1,1,7.64,7.64A7.64,7.64,0,0,1,812.857,685Z" transform="translate(-812.857 -677.361)" fill="#dfebfd"/>
          <path id="Path_11" data-name="Path 11" d="M862.731,685a7.64,7.64,0,1,1,7.64,7.64A7.64,7.64,0,0,1,862.731,685Z" transform="translate(-832.626 -677.361)" fill="#dfebfd"/>
          <path id="Path_12" data-name="Path 12" d="M913.864,685a7.64,7.64,0,1,1,7.64,7.64A7.64,7.64,0,0,1,913.864,685Z" transform="translate(-852.894 -677.361)" fill="#dfebfd"/>
        </g>
      </g>
      <rect id="Rectangle_2" data-name="Rectangle 2" width="92.013" height="92.013" transform="translate(822.675 751.76)" fill="#ebf3fa" opacity="0.5"/>
      <g id="Group_5" data-name="Group 5" transform="translate(829.587 770.196)">
        <path id="Path_13" data-name="Path 13" d="M1557.758,1467.882l27.179-49,19.983,27.257,9.979-10.908,21.146,32.649Z" transform="translate(-1557.758 -1404.816)" fill="#739af0"/>
        <path id="Path_14" data-name="Path 14" d="M1624.238,1402.612a7.033,7.033,0,1,1,7.033,7.034A7.034,7.034,0,0,1,1624.238,1402.612Z" transform="translate(-1584.109 -1395.579)" fill="#739af0"/>
      </g>
      <rect id="Rectangle_3" data-name="Rectangle 3" width="229.411" height="132.974" transform="translate(822.675 583.33)" fill="#ebf3fa" opacity="0.5"/>
      <path id="Path_15" data-name="Path 15" d="M1693.448,1139.719v68.129l51.777-34.064Z" transform="translate(-781.956 -523.966)" fill="#739af0"/>
      <path id="Path_16" data-name="Path 16" d="M1619.761,886.168a55.038,55.038,0,0,1-15.656,38.537,52.483,52.483,0,0,1-37.63,16.026H945.656c-31.687,0-57.611-24.555-57.611-54.563a52.955,52.955,0,0,1,16.924-38.531,59.05,59.05,0,0,1,40.687-16.025h620.819C1595.785,831.612,1619.761,856.16,1619.761,886.168Z" transform="translate(-462.713 -401.84)" fill="#ebf3fa"/>
      <path id="Path_17" data-name="Path 17" d="M1991.49,886.168a55.038,55.038,0,0,1-15.656,38.537,52.483,52.483,0,0,1-37.63,16.026H1825.862V831.612H1938.2C1967.514,831.612,1991.49,856.16,1991.49,886.168Z" transform="translate(-834.442 -401.84)" fill="#f99746"/>
      <g id="Group_7" data-name="Group 7" transform="translate(1023.478 448.554)">
        <g id="Group_6" data-name="Group 6" transform="translate(34.615)">
          <path id="Path_18" data-name="Path 18" d="M1964.17,918.335a28.192,28.192,0,0,1-4.163-.31,27.806,27.806,0,0,1-12.441-49.85h0a27.806,27.806,0,1,1,16.6,50.161Zm-13.878-46.48a23.226,23.226,0,1,0,32.488,4.848,23.252,23.252,0,0,0-32.488-4.848Z" transform="translate(-1936.316 -862.727)" fill="#fff"/>
        </g>
        <rect id="Rectangle_4" data-name="Rectangle 4" width="4.58" height="37.947" transform="translate(40.541 41.139) rotate(53.492)" fill="#fff"/>
        <path id="Path_19" data-name="Path 19" d="M1879.773,971.317h0a4.088,4.088,0,0,1,.854-5.719l17.962-13.3a4.089,4.089,0,0,1,5.719.854h0a4.09,4.09,0,0,1-.854,5.72l-17.963,13.3A4.089,4.089,0,0,1,1879.773,971.317Z" transform="translate(-1878.97 -897.914)" fill="#fff"/>
      </g>
      <g id="Group_10" data-name="Group 10" transform="translate(501.388 82.501)">
        <g id="Group_8" data-name="Group 8">
          <path id="Path_20" data-name="Path 20" d="M1191.543,772.949a4.157,4.157,0,0,0-.742,4.444.034.034,0,0,0,.011.022c1.071,2.963,4.612,6.273,8.726,9.579.525.424.993.811,1.4,1.168.107.094.214.188.315.283.083.072.162.149.241.219,3.836,3.538,2.392,4.348,9.282,11.527,7.857,8.181,13.269,8.33,14.809,7.586,1.3-.634-1.342-4.973-4.272-9.849-.142-.235-.281-.473-.427-.711-.39-.648-.778-1.306-1.165-1.958-3.434-5.868-2.551-8.622-1.733-17.352.664-7.1,11.052-39.637,11.052-39.637l-15.062-2.6s-4.545,25.914-9.544,29.9c-2.674,2.127-5.665,2.152-8.234,3.729q-.272.164-.534.337A19.779,19.779,0,0,0,1191.543,772.949Z" transform="translate(-1083.976 -446.312)" fill="#ffb27d"/>
          <path id="Path_21" data-name="Path 21" d="M1191.543,795.255a4.157,4.157,0,0,0-.742,4.444.034.034,0,0,0,.011.022c1.312,2.961,4.764,6.254,8.74,9.549.519.432.978.828,1.385,1.2.107.094.214.188.315.282.083.072.162.149.241.219,3.836,3.538,2.392,4.348,9.282,11.527,7.857,8.181,13.269,8.33,14.809,7.586,1.3-.634-1.342-4.973-4.272-9.849a33.488,33.488,0,0,1-14.008-10.329c-4.559-5.821-7.653-13.24-10.754-17.795l-.886-.166A19.777,19.777,0,0,0,1191.543,795.255Z" transform="translate(-1083.976 -468.618)" fill="#233862"/>
          <path id="Path_22" data-name="Path 22" d="M1385.56,760.6c.928,4.65,7.556,3.876,14.962,2.069s5.644.343,16.183-.82,13.733-5.091,14.054-6.657c.288-1.391-4.919-1.883-10.5-2.528-.7-.079-1.408-.166-2.113-.254-6.305-.793-10.921-4.864-16.648-8.207-5.424-3.167-13.516-16.067-13.516-16.067l-14.453,1.14s7.58,11.521,10.511,16.531c1.724,2.946,1.632,6.841,1.415,9.849A18.535,18.535,0,0,0,1385.56,760.6Z" transform="translate(-1156.533 -443.325)" fill="#ffb27d"/>
          <path id="Path_23" data-name="Path 23" d="M1408.281,778.772c7.405-1.807,5.644.343,16.183-.82s13.732-5.091,14.054-6.657c.288-1.391-4.919-1.883-10.5-2.528l-.052.107a29.707,29.707,0,0,1-15.093,4.686c-7.15.171-14.722-1.88-19.659-1.8a18.541,18.541,0,0,0,.11,4.944C1394.247,781.353,1400.875,780.579,1408.281,778.772Z" transform="translate(-1164.292 -459.431)" fill="#233862"/>
          <path id="Path_24" data-name="Path 24" d="M1269.188,613.572l-13.523,36.35-17.655,47.462a28.59,28.59,0,0,1-9.37-.86,40.621,40.621,0,0,1-9.06-4.414s4.915-50.965,14.061-80.219c2.344-7.509,4.97-13.583,7.867-17C1255.677,578.156,1269.188,613.572,1269.188,613.572Z" transform="translate(-1095.513 -388.73)" fill="#f4904d"/>
          <path id="Path_25" data-name="Path 25" d="M1193.221,528.339c-7.69-2.483-27.756-.048-49.522,3.883a14.76,14.76,0,0,1-15.24-6.889h0l-54.772-4.3s-18.088,40.076-8.2,65.619c1.454,3.754,4.644,6.1,9.57,6.178h0s33.1.058,43.684.062c27.24.01,57.655-18.7,61.59-19.49,6.439-1.285,9.01,11.593,15.444,25.117s60.5,59.9,60.5,59.9,8.313.085,11.747-1.2c3.693-1.383,5.045-3.182,5.045-3.182S1213.178,534.785,1193.221,528.339Z" transform="translate(-1033.262 -361.237)" fill="#ffa561"/>
          <path id="Path_26" data-name="Path 26" d="M1103.62,259.554a19.429,19.429,0,0,0-10.461-2.726,29.1,29.1,0,0,1-5.052-.308c-20.9-3.072-33.5,27.288-34.244,36.462-1.359,16.845-10.271,19.41-22.818,29.954-25.157,21.144-17.79,45.726-4.042,54.863,8.249,5.483,22.795.007,22.795.007.206.144,39.782-22.106,59.29-32.839C1138.33,340.821,1115.365,266.551,1103.62,259.554Z" transform="translate(-1014.188 -256.302)" fill="#233862"/>
          <path id="Path_27" data-name="Path 27" d="M1126.661,367.895c.086.055-9.6,3.357-16.072.488-6.09-2.693-10.7-12.716-10.61-12.721,2.771-.127,5.814-2.548,8.162-18.442l1.179.424,19.834,7.144s-1.439,6.365-2.37,12.425C1126,362.3,1125.578,367.174,1126.661,367.895Z" transform="translate(-1048.106 -288.376)" fill="#ffb27d"/>
          <path id="Path_28" data-name="Path 28" d="M1135.291,345.065s-.792,3.435-1.95,9.85c-11.393-2.055-16.282-10.834-17.885-16.994Z" transform="translate(-1054.241 -288.654)" fill="#ed975d"/>
          <path id="Path_29" data-name="Path 29" d="M1136.94,328.874s-27.14-3.653-24.605-20.519.738-28.7,18.174-27.078,19.827,8.559,20.351,14.395S1144.064,329.389,1136.94,328.874Z" transform="translate(-1052.937 -266.143)" fill="#ffb27d"/>
          <path id="Path_30" data-name="Path 30" d="M1144.761,285.447s-17.38,14.967-29.2,16.169-16.292-2.591-16.292-2.591a46.151,46.151,0,0,0,11.163-15.113,8.313,8.313,0,0,1,6.852-4.9C1125.726,278.289,1141.723,277.962,1144.761,285.447Z" transform="translate(-1047.826 -265.164)" fill="#233862"/>
          <path id="Path_31" data-name="Path 31" d="M1156.64,285.546s5.81,5.622,7.639,9.791c1.765,4.023,2.291,13.644.884,17.465,0,0,9.062-17.606,3.938-26.163C1163.667,277.564,1156.64,285.546,1156.64,285.546Z" transform="translate(-1070.565 -266.607)" fill="#233862"/>
          <path id="Path_32" data-name="Path 32" d="M1134.2,419.574c-.839,54.94-.24,43.46-6.251,48.671-1.449,1.255-5.519,2-10.878,2.354-16.847,1.112-46.46-1.673-47.585-4.787-3.882-10.774-1.137-14.119-4.374-30.613-.337-1.754-.755-3.653-1.245-5.721-2.7-11.329-5.329-15.183,4.268-33.378,8.7-16.481,17.742-29.857,18.554-29.374,22.94,13.628,24.794,2.18,24.794,2.18S1134.607,392.776,1134.2,419.574Z" transform="translate(-1032.8 -300.066)" fill="#afcdfb"/>
          <path id="Path_33" data-name="Path 33" d="M1255.665,664.034,1238.01,711.5a28.591,28.591,0,0,1-9.37-.859,40.619,40.619,0,0,1-9.06-4.414s4.915-50.965,14.061-80.219Z" transform="translate(-1095.513 -402.843)" fill="#ffa561"/>
          <path id="Path_34" data-name="Path 34" d="M1144.388,370.341s23.608,4.01,26.376,14.177,11.874,71.869,11.874,71.869-6.66,6.5-12.2.953-17.43-57.734-17.43-57.734Z" transform="translate(-1065.709 -301.504)" fill="#afcdfb"/>
          <path id="Path_35" data-name="Path 35" d="M1119.524,500.547c-16.847,1.112-46.46-1.673-47.585-4.787-3.882-10.773-1.137-14.119-4.374-30.613l8.133-22.877s-1.352,25.478,6.16,32.182S1112.618,487.4,1116.268,493A20.5,20.5,0,0,1,1119.524,500.547Z" transform="translate(-1035.258 -330.015)" fill="#95b3ef"/>
          <path id="Path_36" data-name="Path 36" d="M1121.673,519.366s16.622-3.695,19.3-2.219,9.234,6.849,10.053,8.719-5.97-1.421-8.178-2.014c-1.43-.384-5.2.924-7.061,1.544-7.845,2.612-12.651,1.265-12.651,1.265Z" transform="translate(-1056.705 -359.557)" fill="#ffb27d"/>
          <path id="Path_37" data-name="Path 37" d="M1067.913,366.713s-22.317,1.368-30.046,12.139c-10.88,15.164-32.476,79.8-20.115,88.423,13.919,9.714,63.368,2.562,63.368,2.562s1.648-7.691-.64-11.412-39.49-9.744-41.206-11.461,21.475-33.476,21.477-38.628S1067.913,366.713,1067.913,366.713Z" transform="translate(-1014.043 -300.066)" fill="#afcdfb"/>
          <path id="Path_38" data-name="Path 38" d="M1154.981,525.04s3.481,4.493,4.623,5.03a3.4,3.4,0,0,0,1.879.4l-2.345-4.224Z" transform="translate(-1069.908 -362.823)" fill="#ffb27d"/>
          <path id="Path_39" data-name="Path 39" d="M1153.651,517.376l10.123,4.92a1.8,1.8,0,0,1-1.677.647,24.145,24.145,0,0,1-4.391-1.208Z" transform="translate(-1069.38 -359.786)" fill="#ffb27d"/>
        </g>
        <g id="Group_9" data-name="Group 9" transform="translate(64.964 111.582)">
          <path id="Path_40" data-name="Path 40" d="M1227.426,536.549l-105.759-.037v2.334l104.821.036Z" transform="translate(-1121.667 -478.952)" fill="#233862"/>
          <path id="Path_41" data-name="Path 41" d="M1162.637,501.058l80.09.028,24.113-59.9-79.967-.028Z" transform="translate(-1137.906 -441.155)" fill="#233862"/>
          <path id="Path_42" data-name="Path 42" d="M1256.732,488.3a2.775,2.775,0,0,0-2.718-3.814,5.463,5.463,0,0,0-4.908,3.811,2.775,2.775,0,0,0,2.718,3.814A5.464,5.464,0,0,0,1256.732,488.3Z" transform="translate(-1172.119 -458.329)" fill="#fff"/>
        </g>
      </g>
      <path id="Rectangle_5" data-name="Rectangle 5" d="M6.6,0H148.91a6.6,6.6,0,0,1,6.6,6.6v0a6.6,6.6,0,0,1-6.6,6.6H6.6A6.6,6.6,0,0,1,0,6.6v0A6.6,6.6,0,0,1,6.6,0Z" transform="translate(446.187 595.759)" fill="#f99746"/>
      <g id="Group_12" data-name="Group 12" transform="translate(446.187 626.433)">
        <path id="Path_43" data-name="Path 43" d="M998.446,1197.7H927.1a4.5,4.5,0,0,1-4.5-4.5h0a4.5,4.5,0,0,1,4.5-4.5h71.349a4.5,4.5,0,0,1,4.5,4.5h0A4.5,4.5,0,0,1,998.446,1197.7Z" transform="translate(-922.595 -1169.812)" fill="#739af0"/>
        <g id="Group_11" data-name="Group 11">
          <path id="Rectangle_6" data-name="Rectangle 6" d="M4.5,0H130.175a4.5,4.5,0,0,1,4.5,4.5v0a4.5,4.5,0,0,1-4.5,4.5H4.5A4.5,4.5,0,0,1,0,4.5v0A4.5,4.5,0,0,1,4.5,0Z" fill="#739af0"/>
          <rect id="Rectangle_7" data-name="Rectangle 7" width="125.759" height="9.004" rx="4.502" transform="translate(146.95)" fill="#739af0"/>
          <path id="Path_44" data-name="Path 44" d="M1145.879,1197.7h-71.35a4.5,4.5,0,0,1-4.5-4.5h0a4.5,4.5,0,0,1,4.5-4.5h71.35a4.5,4.5,0,0,1,4.5,4.5h0A4.5,4.5,0,0,1,1145.879,1197.7Z" transform="translate(-981.033 -1169.812)" fill="#739af0"/>
        </g>
      </g>
      <path id="Rectangle_8" data-name="Rectangle 8" d="M6.6,0H148.91a6.6,6.6,0,0,1,6.6,6.6v0a6.6,6.6,0,0,1-6.6,6.6H6.6A6.6,6.6,0,0,1,0,6.6v0A6.6,6.6,0,0,1,6.6,0Z" transform="translate(622.274 595.759)" fill="#f99746"/>
      <path id="Rectangle_9" data-name="Rectangle 9" d="M6.6,0H148.91a6.6,6.6,0,0,1,6.6,6.6v0a6.6,6.6,0,0,1-6.6,6.6H6.6A6.6,6.6,0,0,1,0,6.6v0A6.6,6.6,0,0,1,6.6,0Z" transform="translate(446.187 831.983)" fill="#f99746"/>
      <g id="Group_14" data-name="Group 14" transform="translate(446.187 862.657)">
        <path id="Path_45" data-name="Path 45" d="M998.446,1589.041H927.1a4.5,4.5,0,0,1-4.5-4.5h0a4.5,4.5,0,0,1,4.5-4.5h71.349a4.5,4.5,0,0,1,4.5,4.5h0A4.5,4.5,0,0,1,998.446,1589.041Z" transform="translate(-922.595 -1561.155)" fill="#739af0"/>
        <g id="Group_13" data-name="Group 13">
          <path id="Rectangle_10" data-name="Rectangle 10" d="M4.5,0H130.174a4.5,4.5,0,0,1,4.5,4.5v0a4.5,4.5,0,0,1-4.5,4.5H4.5A4.5,4.5,0,0,1,0,4.5v0A4.5,4.5,0,0,1,4.5,0Z" fill="#739af0"/>
          <path id="Rectangle_11" data-name="Rectangle 11" d="M4.5,0H121.257a4.5,4.5,0,0,1,4.5,4.5v0a4.5,4.5,0,0,1-4.5,4.5H4.5A4.5,4.5,0,0,1,0,4.5v0A4.5,4.5,0,0,1,4.5,0Z" transform="translate(146.95)" fill="#739af0"/>
          <path id="Path_46" data-name="Path 46" d="M1145.879,1589.041h-71.35a4.5,4.5,0,0,1-4.5-4.5h0a4.5,4.5,0,0,1,4.5-4.5h71.35a4.5,4.5,0,0,1,4.5,4.5h0A4.5,4.5,0,0,1,1145.879,1589.041Z" transform="translate(-981.033 -1561.155)" fill="#739af0"/>
        </g>
      </g>
      <path id="Rectangle_12" data-name="Rectangle 12" d="M6.6,0H148.91a6.6,6.6,0,0,1,6.6,6.6v0a6.6,6.6,0,0,1-6.6,6.6H6.6A6.6,6.6,0,0,1,0,6.6v0A6.6,6.6,0,0,1,6.6,0Z" transform="translate(622.274 831.983)" fill="#f99746"/>
      <rect id="Rectangle_13" data-name="Rectangle 13" width="155.507" height="13.194" rx="6.597" transform="translate(446.187 713.871)" fill="#f99746"/>
      <g id="Group_16" data-name="Group 16" transform="translate(446.187 744.545)">
        <path id="Path_47" data-name="Path 47" d="M998.446,1393.369H927.1a4.5,4.5,0,0,1-4.5-4.5h0a4.5,4.5,0,0,1,4.5-4.5h71.349a4.5,4.5,0,0,1,4.5,4.5h0A4.5,4.5,0,0,1,998.446,1393.369Z" transform="translate(-922.595 -1365.483)" fill="#739af0"/>
        <g id="Group_15" data-name="Group 15">
          <path id="Rectangle_14" data-name="Rectangle 14" d="M4.5,0H130.174a4.5,4.5,0,0,1,4.5,4.5v0a4.5,4.5,0,0,1-4.5,4.5H4.5A4.5,4.5,0,0,1,0,4.5v0A4.5,4.5,0,0,1,4.5,0Z" fill="#739af0"/>
          <rect id="Rectangle_15" data-name="Rectangle 15" width="125.759" height="9.004" rx="4.502" transform="translate(146.95)" fill="#739af0"/>
          <path id="Path_48" data-name="Path 48" d="M1145.879,1393.369h-71.35a4.5,4.5,0,0,1-4.5-4.5h0a4.5,4.5,0,0,1,4.5-4.5h71.35a4.5,4.5,0,0,1,4.5,4.5h0A4.5,4.5,0,0,1,1145.879,1393.369Z" transform="translate(-981.033 -1365.483)" fill="#739af0"/>
        </g>
      </g>
      <rect id="Rectangle_16" data-name="Rectangle 16" width="155.507" height="13.194" rx="6.597" transform="translate(622.274 713.871)" fill="#f99746"/>
      <g id="Group_20" data-name="Group 20" transform="translate(201.769 552.581)">
        <path id="Path_49" data-name="Path 49" d="M790.093,1211.492s1.63-3.668,2.687-5.4,5.568-6.825,6.336-5.673,3.84,8.906,2.208,11.077.106,5.948-8.011,8.236Z" transform="translate(-625.656 -1100.539)" fill="#ffb27d"/>
        <path id="Path_50" data-name="Path 50" d="M640.662,1180.512s41.55,34.683,57.751,31.472c12.668-2.51,32.112-9.177,32.112-9.177l3.888,9.946S716.976,1236.4,698.8,1236.56a103.552,103.552,0,0,1-49.41-12.3Z" transform="translate(-566.424 -1092.717)" fill="#95b3ef"/>
        <path id="Path_51" data-name="Path 51" d="M519.942,1782.463s1.206,19.458,4.971,19.737c.5.037,19.093.037,19.093.037l23.733-.138s-.156-5.719-7.093-6.928-18.549-6.084-22.751-15.254C533.473,1770.271,519.942,1782.463,519.942,1782.463Z" transform="translate(-518.574 -1328.835)" fill="#1c4b8e"/>
        <path id="Path_52" data-name="Path 52" d="M517.676,1631.071s7.214,2.414,12.848,2.414a47.181,47.181,0,0,0,11.994-1.711s1.358-13.136,8.833-42.079c3.919-15.17,9.516-34.676,17.477-58.913,22.015-66.986,28.709-106.172,29.32-109.883.033-.195.045-.292.045-.292l-.071-.033-67.681-29.716s8.366,92.322-2.307,127.758a149.276,149.276,0,0,0-3.874,16.977C517.519,1574.082,517.676,1631.071,517.676,1631.071Z" transform="translate(-517.676 -1176.093)" fill="#ffa561"/>
        <path id="Path_53" data-name="Path 53" d="M558.175,1589.695c3.919-15.17,9.516-34.676,17.477-58.913,22.015-66.986,28.709-106.172,29.32-109.883-.007-.111-.013-.214-.026-.325l-67.681-29.716s8.366,92.322-2.307,127.758C533.463,1523.567,558.175,1589.695,558.175,1589.695Z" transform="translate(-524.5 -1176.093)" fill="#f4904d"/>
        <path id="Path_54" data-name="Path 54" d="M607.517,1782.463s1.206,19.458,4.97,19.737c.5.037,19.093.037,19.093.037l23.734-.138s-.156-5.719-7.093-6.928-18.549-6.084-22.751-15.254C621.048,1770.271,607.517,1782.463,607.517,1782.463Z" transform="translate(-553.287 -1328.835)" fill="#1c4b8e"/>
        <path id="Path_55" data-name="Path 55" d="M623.834,1394.461a963.553,963.553,0,0,1-9.472,133.28c-10.35,73.454-6.842,104.634-6.842,104.634s-7.111,2.3-9.982,2.539a45.3,45.3,0,0,1-14.809-1.714s-14.815-73.482-10.568-110.248-20.287-126.159-20.287-126.159Z" transform="translate(-531.231 -1177.521)" fill="#ffa561"/>
        <path id="Path_56" data-name="Path 56" d="M591.582,1143.11l13.212,8.664,12.034-3.4c2.2-3.138,2.782-9.188,2.814-14.428a89.665,89.665,0,0,0-.472-9.608l-17.824-7.867-6.651-2.931c.019.1.517,5.461.589,6.244C596.524,1133.671,591.582,1143.11,591.582,1143.11Z" transform="translate(-546.97 -1066.169)" fill="#ffb27d"/>
        <path id="Path_57" data-name="Path 57" d="M616.818,1315.866c-16.445,15.876-78.678,13.207-82.514-4.287s4.182-148.911,32.272-157.167c5.829-1.714,36.992,8.359,36.992,8.359a197.6,197.6,0,0,1,8.1,29.077c.622,3.171,2.439,36.754,3.8,68.173.634,14.694,1.171,28.918,1.445,39.333C617.159,1309.109,617.171,1315.518,616.818,1315.866Z" transform="translate(-523.911 -1082.293)" fill="#afcdfb"/>
        <path id="Path_58" data-name="Path 58" d="M599.588,1121.95c3.616,6.114,16.3,11.464,23.026,13.917a89.642,89.642,0,0,0-.472-9.608l-17.824-7.867C600.377,1118.34,597.977,1119.22,599.588,1121.95Z" transform="translate(-549.942 -1068.093)" fill="#fca56b"/>
        <path id="Path_59" data-name="Path 59" d="M622.123,1098.589s-28.719,8.959-34.023-9.012-12.583-28.918,5.53-35.4,23.715-.679,26.945,4.889S629.457,1095.8,622.123,1098.589Z" transform="translate(-543.201 -1041.508)" fill="#ffb27d"/>
        <path id="Path_60" data-name="Path 60" d="M611.241,1050.893s-1.831,20.913-6.156,20-9.086-2.85-8.453,3.454-4.206,17.11-10.442,17.084c-13.375-.055-27.907-34.375-24.245-40.882C572.51,1031.775,626.511,1027.986,611.241,1050.893Z" transform="translate(-534.996 -1035.065)" fill="#163560"/>
        <path id="Path_61" data-name="Path 61" d="M617.712,1149.5c-.371-.156-21.38-9.58-23.837-8.769s-5.52,8.316-5.52,8.316l36.994,8.364S622.437,1151.491,617.712,1149.5Z" transform="translate(-545.691 -1076.929)" fill="#95b3ef"/>
        <g id="Group_18" data-name="Group 18" transform="translate(74.031 13.244)">
          <path id="Path_62" data-name="Path 62" d="M769.106,1316.508,651.335,1427.391c-2.308,2.173-5.219,2.865-6.468,1.539l-3.975-4.223c-1.25-1.327-.383-4.191,1.926-6.365l117.77-110.881c2.309-2.173,5.219-2.866,6.469-1.539l3.975,4.222C772.281,1311.472,771.414,1314.335,769.106,1316.508Z" transform="translate(-640.319 -1155.403)" fill="#1f4d84"/>
          <path id="Path_63" data-name="Path 63" d="M703.016,1421.047l-51.68,48.658c-2.308,2.173-5.219,2.865-6.468,1.539l-3.975-4.223c-1.25-1.327-.383-4.191,1.926-6.365L694.5,1412Z" transform="translate(-640.319 -1197.717)" fill="#739af0"/>
          <path id="Path_64" data-name="Path 64" d="M806.2,1176.246a92.309,92.309,0,1,0,153-92.764c-.472-.472-.957-.938-1.449-1.4A92.313,92.313,0,0,0,806.2,1176.246Zm26.384-85.194a85.025,85.025,0,1,1,3.662,120.183A84.92,84.92,0,0,1,832.586,1091.052Z" transform="translate(-704.485 -1057.005)" fill="#1f4d84"/>
          <g id="Group_17" data-name="Group 17" transform="translate(104.999 7.288)" opacity="0.5">
            <path id="Path_65" data-name="Path 65" d="M961.21,1212.352a85.025,85.025,0,1,1-3.665-120.178A84.675,84.675,0,0,1,961.21,1212.352Z" transform="translate(-814.268 -1069.079)" fill="#b3cff9"/>
          </g>
        </g>
        <path id="Path_66" data-name="Path 66" d="M632.6,1323.778c-64.892-46.24-59.5-107.945-59.5-107.945,23.718,13.377,47.253,42.955,58.051,68.612C631.789,1299.139,632.326,1313.363,632.6,1323.778Z" transform="translate(-539.603 -1106.717)" fill="#95b3ef"/>
        <g id="Group_19" data-name="Group 19" transform="translate(32.148 80.482)">
          <path id="Path_67" data-name="Path 67" d="M772.742,1356.413c4.575-1.056,7.649-4.516,8.288-5.12,0,0,1.952.133-.32,4.3-.19.348-.612,1.243-.93,1.876a.4.4,0,0,0,.339.581c2.641.2,5.295-.844,10.383.217.7.146.906,1.827.879,2.544a6.5,6.5,0,0,1-1.367,4.432c-.819,1.081-3.107,2.244-8.2,4.294-1.941.781-7.488.192-12.688-1.594l-4.154-1.923,1.288-7.721,1.044.219C768.961,1358.86,771.014,1356.837,772.742,1356.413Z" transform="translate(-647.846 -1240.893)" fill="#ffb27d"/>
          <path id="Path_68" data-name="Path 68" d="M592.427,1168.4s-58.308,11.1,17.154,95.537c12.069,13.5,77.274,31.087,77.274,31.087s6.613-5.626,3.279-10.183c0,0-44.9-32.6-54.773-37.785-4.443-2.332-17.246-52.035-24.49-64.005A32.656,32.656,0,0,0,592.427,1168.4Z" transform="translate(-570.934 -1168.397)" fill="#afcdfb"/>
        </g>
        <path id="Path_69" data-name="Path 69" d="M792.711,1211.24a29.666,29.666,0,0,0,2.28-5.567c.372-1.923,2.773-7.53,3.763-8.518.4-.4,1.7.116,1.856,1.815a9.867,9.867,0,0,1-.936,3.688c-1.043,2.609-.871,6.148-1.234,7.328C797.536,1212.925,792.711,1211.24,792.711,1211.24Z" transform="translate(-626.693 -1099.264)" fill="#ffb27d"/>
      </g>
      <g id="Group_21" data-name="Group 21" transform="translate(1085.592 522.96)">
        <path id="Path_70" data-name="Path 70" d="M2043.669,1016.3l-33.009,7.682-16.323,29.7-12.463-67.689Z" transform="translate(-1981.873 -985.993)" fill="#233862"/>
        <rect id="Rectangle_17" data-name="Rectangle 17" width="6.034" height="34.912" transform="matrix(0.797, -0.604, 0.604, 0.797, 22.175, 35.11)" fill="#233862"/>
      </g>
      <g id="Group_35" data-name="Group 35" transform="translate(962.747 685.355)">
        <g id="Group_28" data-name="Group 28" transform="translate(0 47.641)">
          <g id="Group_23" data-name="Group 23" transform="translate(0 100.09)">
            <path id="Path_71" data-name="Path 71" d="M1854.156,1532.8s13.647-16.024.762-26.135c0,0-9.408-5.654-17.061-5.168,0,0,10.9,18.156,7.4,19.976s-10.693-21.107-10.693-21.107-21.372-2-28.235,1.321c0,0,18.313,14.889,14.468,15.791s-23.619-13.706-23.619-13.706-19.875,3.447-18.776,15.575,7.962,15.852,10.972,15.52,20.607-7.113,21-4.647-10.187,10.564-17.612,10.965c0,0,14.069,15.417,23.372,10.925s10.076-11.568,15.875-14.238,10.759-2.681,8.369.032-12.892,5.376-16.2,11.262-6.27,9.858,3.366,8.377,25.282-8.584,25.945-16.664Z" transform="translate(-1778.36 -1499.768)" fill="#82b378"/>
            <g id="Group_22" data-name="Group 22" transform="translate(9.815 19.761)">
              <path id="Path_72" data-name="Path 72" d="M1794.621,1532.62s54-2.253,65.98,13.156a39.068,39.068,0,0,0,10.8,15.06l1.277,3.445s-9.39-9.838-12.741-10.425C1859.939,1553.856,1865.115,1534.7,1794.621,1532.62Z" transform="translate(-1794.621 -1532.505)" fill="#82b378"/>
              <path id="Path_73" data-name="Path 73" d="M1919.819,1578.554s11.62,8.537,12.474,23.853l-2.1.195s-3.753-15.828-10.464-22S1919.819,1578.554,1919.819,1578.554Z" transform="translate(-1843.037 -1550.223)" fill="#82b378"/>
            </g>
          </g>
          <g id="Group_25" data-name="Group 25" transform="translate(133.824 34.237)">
            <path id="Path_74" data-name="Path 74" d="M2014.449,1447.289s-21.829-12.133-11.713-28.726c0,0,8.1-10.2,16.811-12.838,0,0-4.571,24.711.08,25.277s3.107-27.9,3.107-27.9,22.918-11.113,31.927-10.271c0,0-14.161,24.16-9.514,23.564s20.549-25.052,20.549-25.052,23.52-4.432,27.341,9.5-2.258,20.927-5.742,21.809-25.856.664-25.266,3.567,15.713,7.5,24.13,4.863c0,0-9.224,22.982-21.43,21.859s-16.007-8.666-23.563-9.223-13.07,1.494-9.287,3.516,16.564.615,22.681,5.782,11.066,8.347-.257,10.708-31.666.972-35.761-7.731Z" transform="translate(-2000.061 -1390.672)" fill="#a8d29f"/>
            <g id="Group_24" data-name="Group 24" transform="translate(3.013 14.564)">
              <path id="Path_75" data-name="Path 75" d="M2087.98,1414.8s-60.951,19.95-67.854,42.053a46.348,46.348,0,0,1-5.743,21.228l.014,4.358s6.344-14.838,9.825-16.882C2024.222,1465.556,2010.505,1446.423,2087.98,1414.8Z" transform="translate(-2008.75 -1414.799)" fill="#82b378"/>
              <path id="Path_76" data-name="Path 76" d="M2010.684,1517.848s-9.364,14.317-3.945,31.694l2.418-.658s-2.41-19.15,2.483-28.8S2010.684,1517.848,2010.684,1517.848Z" transform="translate(-2005.052 -1454.567)" fill="#82b378"/>
            </g>
          </g>
          <g id="Group_27" data-name="Group 27" transform="translate(7.974)">
            <path id="Path_77" data-name="Path 77" d="M1897.089,1408.087s28.673-16.177,15.2-37.964c0,0-10.766-13.37-22.267-16.781,0,0,6.23,32.535.106,33.319s-4.33-36.753-4.33-36.753-30.3-14.458-42.171-13.271c0,0,18.867,31.729,12.736,30.982s-27.3-32.85-27.3-32.85-31.04-5.647-35.961,12.752,3.151,27.566,7.75,28.7,34.088.657,33.335,4.49-20.65,10.024-31.768,6.611c0,0,12.351,30.217,28.432,28.635s21.028-11.557,30.983-12.354,17.24,1.861,12.27,4.558-21.828.948-29.849,7.81-14.518,11.1.428,14.113,41.749,1.017,47.075-10.49Z" transform="translate(-1791.57 -1333.953)" fill="#a8d29f"/>
            <g id="Group_26" data-name="Group 26" transform="translate(15.725 19.269)">
              <path id="Path_78" data-name="Path 78" d="M1817.621,1365.875s80.509,25.788,89.794,54.866c0,0-.342,13.022,7.748,27.934l.018,5.745s-8.487-19.505-13.092-22.172C1902.089,1432.247,1920.01,1406.913,1817.621,1365.875Z" transform="translate(-1817.621 -1365.875)" fill="#82b378"/>
              <path id="Path_79" data-name="Path 79" d="M1976.685,1500.706s12.462,18.8,5.464,41.745l-3.194-.847s3.018-25.263-3.512-37.943S1976.685,1500.706,1976.685,1500.706Z" transform="translate(-1879.143 -1417.906)" fill="#82b378"/>
            </g>
          </g>
        </g>
        <g id="Group_34" data-name="Group 34" transform="translate(24.195)">
          <g id="Group_33" data-name="Group 33">
            <g id="Group_29" data-name="Group 29" transform="translate(0 94.814)">
              <path id="Path_80" data-name="Path 80" d="M2137.711,1659.371H1843.328c-41.042-46.95-30.2-110.375,24.275-163.865,6.849-6.726,19.99-11.5,34.158-14.863,26.114-6.2,55.73-7.629,55.961-7.753.086-.033,15.65-12.651,25.014-23.991,29.095-35.223,53.845-32.2,53.845-32.2,29.656-5.771,54.95-7.465,73.7,2.972,0,.005,0,.005.006.011,17.372,9.684,29.133,29.791,33.533,66.743.835,6.987,1.408,14.578,1.7,22.815,1.074,29.989,6.987,56.663,10.5,79.251a.005.005,0,0,1,.006.005C2161.115,1621.22,2164.707,1646.1,2137.711,1659.371Z" transform="translate(-1818.442 -1412.101)" fill="#ffa561"/>
            </g>
            <path id="Path_81" data-name="Path 81" d="M2148.348,1457.35c-17.995,9.8-19.985,42.092-48.148,50.429s-75.973,7.58-103.09,37c-26.162,28.38-55.016-43.823-42.592-64.132,26.114-6.2,55.73-7.629,55.961-7.753.086-.033,15.65-12.651,25.014-23.991,29.095-35.223,53.845-32.2,53.845-32.2,29.656-5.771,54.95-7.465,73.7,2.972,0,.005,0,.005.005.011C2183.705,1441.032,2166.343,1447.548,2148.348,1457.35Z" transform="translate(-1871.2 -1317.288)" fill="#f4904d"/>
            <g id="Group_32" data-name="Group 32" transform="translate(33.876)">
              <path id="Path_82" data-name="Path 82" d="M1954.294,1711.108s5.183,13.746,4.109,18.854.717,15-1.359,19.431-5.786,10.875-2.2,12.493c1.36.613,17.134-11.7,18.028-15.323s1.566-14.3,4.574-20.107.457-10.473-3.924-12.591-10.515-13.772-10.515-13.772Z" transform="translate(-1905.791 -1431.441)" fill="#f9ddbf"/>
              <path id="Path_83" data-name="Path 83" d="M2028.251,1501.635s-86.132-5.316-97.23,6.107c-11.7,12.038,7.356,130.43,7.356,130.43s23.357.671,25.195-5.516c0,0-4.383-57.322-.738-67.238s1.334-23.635,1.334-23.635,45.7,6.825,60.2,3.348S2028.251,1501.635,2028.251,1501.635Z" transform="translate(-1895.437 -1352.287)" fill="#233862"/>
              <path id="Path_84" data-name="Path 84" d="M2093.943,1397.713c-.007.071-12.694,29.627-18.886,32.776s-28.608,28.926-33.415,28.478,4.964,5.265,4.964,5.265,39.849-19.441,42.128-20.571,14.275-20.882,15.919-30.908S2093.943,1397.713,2093.943,1397.713Z" transform="translate(-1940.262 -1311.584)" fill="#ffb27d"/>
              <path id="Path_85" data-name="Path 85" d="M1907.165,1754.091s-4.909,13.846-9.025,17.055-9.129,11.923-13.574,13.969-11.438,4.576-9.742,8.126c.644,1.347,20.642,2.114,23.661-.075s10.424-9.917,16.469-12.411,7.106-7.707,5.124-12.152.852-17.306.852-17.306Z" transform="translate(-1874.563 -1451.737)" fill="#f9ddbf"/>
              <path id="Path_86" data-name="Path 86" d="M2157.865,1328.029c-1.841-2.124,44.8,3.114,51.009,26.944,0,0,35.827-28.238,2.964-52.035-11.377-8.238-12.523-17.033-14.175-25.08s-13.005-31.176-32.7-19.69c0,0-9,.043-14.691,4.979C2137.327,1274.37,2123.2,1345.692,2157.865,1328.029Z" transform="translate(-1978.243 -1255.027)" fill="#163560"/>
              <path id="Path_87" data-name="Path 87" d="M2063.594,1509.367s-93.643,9.554-101.869,19.115-40.531,133.868-40.531,133.868,9.558,5.323,18.242.341c0,0,24.76-42.173,35.718-55.414s15.046-54.111,16.855-54.53,60.5,8.168,80.7-7.35S2063.594,1509.367,2063.594,1509.367Z" transform="translate(-1893.047 -1355.841)" fill="#2a4e96"/>
              <path id="Path_88" data-name="Path 88" d="M2180.045,1364.228s-22.339-9.971-50.663-5.4c-5.788.935-11,2.84-15.139,9.659-5.845,9.633-8.58,14.806-8.58,14.806s.564,4.463,8.554,8.015c-2.176,7.985,2,21.931-1.839,27.345s-27.631,18.84-28.806,26.3c-2.157,13.713,40.68,38.558,53.453,35.9C2173.776,1473.209,2198.708,1374.725,2180.045,1364.228Z" transform="translate(-1957.379 -1295.697)" fill="#f9ddbf"/>
              <path id="Path_89" data-name="Path 89" d="M2201.112,1298.534s4.4-8.666,4.982-15.774c.415-5.075-3.877-23.337-22.217-18.914a25.364,25.364,0,0,0-10.1,4.951c-3.779,3.109-9.048,9.545-1.008,25.074l2.208,5.294Z" transform="translate(-1991.095 -1258.251)" fill="#163560"/>
              <g id="Group_30" data-name="Group 30" transform="translate(167.217 12.717)">
                <path id="Path_90" data-name="Path 90" d="M2180.3,1352.934c-1.854,1.957-1.124,8.459,7.557,7.97,5.7-.322,17.91-7.371,16.765-12.239-.545-2.314-4.927-8.282-5.961-22.013l-1.035.29-17.394,4.893s.841,5.529,1.266,10.767C2181.86,1347,2181.068,1352.125,2180.3,1352.934Z" transform="translate(-2162.639 -1296.135)" fill="#ffb27d"/>
                <path id="Path_91" data-name="Path 91" d="M2180.736,1332.027s.841,5.529,1.266,10.767c9.866-1.059,14.38-10.492,16.127-15.66Z" transform="translate(-2163.141 -1296.325)" fill="#f4a269"/>
                <path id="Path_92" data-name="Path 92" d="M2170.23,1321.182s22.759-5.734,18.971-19.852-3.4-24.367-18.095-21.3-16.057,9.206-15.938,14.225S2164.212,1322.309,2170.23,1321.182Z" transform="translate(-2153.003 -1277.438)" fill="#ffb27d"/>
                <path id="Path_93" data-name="Path 93" d="M2164.326,1281.12s7.645,14.559,22.064,16.123c8.436.915,10.753,6.473,10.753,6.473s-2.536-15.892-6.781-25.61C2190.362,1278.105,2166.882,1271.977,2164.326,1281.12Z" transform="translate(-2156.636 -1276.095)" fill="#163560"/>
                <path id="Path_94" data-name="Path 94" d="M2161.885,1286.048s-4.983,5.089-6.52,8.675c-2.276,5.312,2.169,16.5,4,18.91,0,0-10.6-17.967-7.061-25.75C2156.059,1279.631,2161.885,1286.048,2161.885,1286.048Z" transform="translate(-2151.586 -1279.098)" fill="#163560"/>
              </g>
              <path id="Path_95" data-name="Path 95" d="M2033.965,1502.473s-4.531,4.8-5.083,5.06c-3,1.4-6.782.587-8.613,1.048s-1.514-.677-.166-1.6,4.67-.564,3.312-.9-8.685-1.7-11.444-.96c-4.366,1.17-7.813-.2-8.087-.648s9.969-5.458,12.9-5.29,11.343-.24,11.343-.24Z" transform="translate(-1925.822 -1351.708)" fill="#ffb27d"/>
              <path id="Path_96" data-name="Path 96" d="M2228.8,1383.223s28.246,63.756,20.4,73.118c-7.789,9.3-62.137-2-62.137-2l1.674-5.92s39.969-2.446,42.817-3.252c4.094-1.158-20.251-45.874-20.251-45.874Z" transform="translate(-1998.431 -1305.841)" fill="#ffb27d"/>
              <path id="Path_97" data-name="Path 97" d="M2227.417,1366.824c.678.017,9.119,2.784,15.182,14.78,5.956,11.782,8.127,17.5,8.127,17.5s-26.4,20.474-36.906,12.941S2217.729,1366.576,2227.417,1366.824Z" transform="translate(-2007.582 -1299.34)" fill="#f9ddbf"/>
              <path id="Path_98" data-name="Path 98" d="M2185.2,1486.3s-4.538-2.944-6.373-4.553-12.466-2.92-12.463-1.843,6.2,2.536,6.873,3.61,4.456,5.5,7.685,5.49A4.6,4.6,0,0,0,2185.2,1486.3Z" transform="translate(-1990.224 -1344.007)" fill="#ffb27d"/>
              <g id="Group_31" data-name="Group 31" transform="translate(156.908 120.108)">
                <path id="Path_99" data-name="Path 99" d="M2161.839,1486.009l-12.181-1.732a5.321,5.321,0,0,1-4.122-3.4l-6.726-23.782c-.458-1.617.647-2.718,2.466-2.459l12.182,1.732a5.323,5.323,0,0,1,4.122,3.4l6.725,23.782C2164.762,1485.167,2163.659,1486.268,2161.839,1486.009Z" transform="translate(-2136.171 -1454.242)" fill="#1f4a91"/>
                <path id="Path_100" data-name="Path 100" d="M2157.639,1485.412l-12.182-1.732a5.323,5.323,0,0,1-4.122-3.4l-6.725-23.782c-.458-1.617.646-2.718,2.466-2.46l12.181,1.731a5.322,5.322,0,0,1,4.122,3.4l6.726,23.782C2160.563,1484.57,2159.459,1485.672,2157.639,1485.412Z" transform="translate(-2134.507 -1454.006)" fill="#233862"/>
                <path id="Path_101" data-name="Path 101" d="M2138.094,1458.416c-.19-.672.268-1.129,1.024-1.022a2.212,2.212,0,0,1,1.712,1.411c.19.671-.269,1.129-1.024,1.022A2.214,2.214,0,0,1,2138.094,1458.416Z" transform="translate(-2135.912 -1455.343)" fill="#1f4a91"/>
              </g>
              <path id="Path_102" data-name="Path 102" d="M2176.24,1494.895s-8.239.115-10.306-.374-7.348-7.041-5.94-8.68c.887-1.034,5.811.819,8.157.813s8.442-3.4,12.611,3.543C2181.231,1490.978,2176.24,1494.895,2176.24,1494.895Z" transform="translate(-1987.608 -1346.392)" fill="#ffb27d"/>
            </g>
            <path id="Path_103" data-name="Path 103" d="M2158.994,1527.022s-8.87,8.312-45.993,9.506-85.517,42.219-85.969,53.8,74.748,29.179,75.911,27.521,47.682-41.623,47.682-41.623Z" transform="translate(-1901.121 -1362.84)" fill="#ffa561"/>
            <path id="Path_104" data-name="Path 104" d="M2277.838,1637.3c-41.3-51.551-126.139,18.727-148.095,16.743-20.185-1.824,39.363-72.286,113.209-82.769,29.851-4.237,22.7-35.087,22.688-36.039.835,6.988,1.408,14.578,1.7,22.815C2268.417,1588.041,2274.329,1614.716,2277.838,1637.3Z" transform="translate(-1940.259 -1366.096)" fill="#f4904d"/>
          </g>
        </g>
      </g>
      <path id="Path_105" data-name="Path 105" d="M1630.705,1823.762l-1408.064-.486a1.721,1.721,0,0,1-1.716-1.716v-.879a1.721,1.721,0,0,1,1.717-1.715l1408.064.485a1.721,1.721,0,0,1,1.716,1.716v.88A1.721,1.721,0,0,1,1630.705,1823.762Z" transform="translate(-198.282 -793.204)" fill="#2e3552"/>
      <g id="Group_36" data-name="Group 36" transform="translate(799.868 203.431)">
        <path id="Path_106" data-name="Path 106" d="M1592.861,513.036l80.426,16.638-51.56-40.064-3.473,11.6-19.957,2.343Z" transform="translate(-1541.954 -469.709)" fill="#95b3ef"/>
        <path id="Path_107" data-name="Path 107" d="M1639.858,525.456l-65.356-39.03-65.978-7.458Z" transform="translate(-1508.524 -465.491)" fill="#f9ddbf"/>
        <path id="Path_108" data-name="Path 108" d="M1640.682,476.542l51.56,40.064-38.108-59.966Z" transform="translate(-1560.909 -456.641)" fill="#f9ddbf"/>
      </g>
      <g id="Group_37" data-name="Group 37" transform="translate(264.963 429.772)">
        <path id="Path_109" data-name="Path 109" d="M702.794,888.008l-80.426,16.639,51.56-40.064,3.473,11.6,19.957,2.343Z" transform="translate(-622.368 -844.681)" fill="#95b3ef"/>
        <path id="Path_110" data-name="Path 110" d="M622.368,900.428l65.356-39.03L753.7,853.94Z" transform="translate(-622.368 -840.462)" fill="#f9ddbf"/>
        <path id="Path_111" data-name="Path 111" d="M673.928,851.514l-51.56,40.064,38.109-59.966Z" transform="translate(-622.368 -831.612)" fill="#f9ddbf"/>
      </g>
      <g id="Group_38" data-name="Group 38" transform="translate(477.164 476.375)">
        <path id="Path_112" data-name="Path 112" d="M973.913,929.2l2.352-2.8a10.246,10.246,0,0,0,7.025,2.893c2.416,0,3.942-1.112,3.942-2.861,0-1.59-.89-2.448-5.022-3.433-4.737-1.112-7.407-2.512-7.407-6.675,0-3.815,3.179-6.453,7.6-6.453a12.335,12.335,0,0,1,8.075,2.8l-2.1,2.956a10.107,10.107,0,0,0-6.04-2.289c-2.289,0-3.623,1.177-3.623,2.7,0,1.717,1.017,2.48,5.276,3.5,4.7,1.144,7.153,2.829,7.153,6.58,0,4.164-3.274,6.644-7.947,6.644A13.7,13.7,0,0,1,973.913,929.2Z" transform="translate(-973.913 -909.235)" fill="#739af0"/>
        <path id="Path_113" data-name="Path 113" d="M1007.828,927.619c0-4.8,3.4-8.742,8.2-8.742,5.34,0,8.042,4.2,8.042,9.028,0,.254-.032.89-.063,1.081h-12.334a4.685,4.685,0,0,0,4.832,4.26,6.1,6.1,0,0,0,4.545-2l2.257,2a8.489,8.489,0,0,1-6.866,3.147A8.391,8.391,0,0,1,1007.828,927.619Zm12.429-1.176c-.254-2.48-1.716-4.419-4.26-4.419-2.352,0-4,1.812-4.355,4.419Z" transform="translate(-987.356 -912.805)" fill="#739af0"/>
        <path id="Path_114" data-name="Path 114" d="M1050.679,936.073v-2.067a6.782,6.782,0,0,1-5.436,2.416c-3.179,0-5.976-1.812-5.976-5.245,0-3.719,2.893-5.5,6.8-5.5a14.138,14.138,0,0,1,4.641.7v-.318c0-2.32-1.462-3.592-4.132-3.592a11.688,11.688,0,0,0-4.8,1.048l-1.049-3.083a14.385,14.385,0,0,1,6.389-1.4c4.959,0,7.375,2.607,7.375,7.088v9.95Zm.095-7.026a10.987,10.987,0,0,0-3.846-.667c-2.416,0-3.846.985-3.846,2.67,0,1.589,1.431,2.479,3.243,2.479,2.542,0,4.45-1.43,4.45-3.528Z" transform="translate(-999.818 -912.868)" fill="#739af0"/>
        <path id="Path_115" data-name="Path 115" d="M1072.075,919.243h3.846v3.783c1.049-2.511,2.988-4.228,5.945-4.1v4.068h-.222c-3.37,0-5.722,2.194-5.722,6.644v6.389h-3.846Z" transform="translate(-1012.822 -912.822)" fill="#739af0"/>
        <path id="Path_116" data-name="Path 116" d="M1091.35,927.651a8.656,8.656,0,0,1,8.71-8.774,8.385,8.385,0,0,1,6.707,2.893l-2.385,2.575a5.646,5.646,0,0,0-4.354-2.1c-2.8,0-4.832,2.416-4.832,5.4a5.107,5.107,0,0,0,5.023,5.4,5.909,5.909,0,0,0,4.355-2.1l2.32,2.288a8.494,8.494,0,0,1-6.866,3.147A8.584,8.584,0,0,1,1091.35,927.651Z" transform="translate(-1020.462 -912.805)" fill="#739af0"/>
        <path id="Path_117" data-name="Path 117" d="M1122.948,908.818h3.846v9.028a6.041,6.041,0,0,1,5.245-2.956c3.782,0,5.976,2.542,5.976,6.453v10.681h-3.846v-9.537c0-2.606-1.3-4.1-3.592-4.1-2.226,0-3.783,1.557-3.783,4.164v9.473h-3.846Z" transform="translate(-1032.987 -908.818)" fill="#739af0"/>
        <path id="Path_118" data-name="Path 118" d="M1155.177,940.047h4.228V944.4h-4.228Z" transform="translate(-1045.762 -921.196)" fill="#739af0"/>
        <path id="Path_119" data-name="Path 119" d="M1169.344,940.047h4.228V944.4h-4.228Z" transform="translate(-1051.377 -921.196)" fill="#739af0"/>
        <path id="Path_120" data-name="Path 120" d="M1183.51,940.047h4.228V944.4h-4.228Z" transform="translate(-1056.992 -921.196)" fill="#739af0"/>
        <path id="Path_121" data-name="Path 121" d="M1197.676,940.047h4.228V944.4h-4.228Z" transform="translate(-1062.608 -921.196)" fill="#739af0"/>
      </g>
      <g id="Group_39" data-name="Group 39" transform="translate(834.601 700.192)">
        <path id="Path_122" data-name="Path 122" d="M1566.065,1283.723a4.117,4.117,0,1,1,4.117,4.117A4.117,4.117,0,0,1,1566.065,1283.723Z" transform="translate(-1566.065 -1279.606)" fill="#d7e5ff"/>
        <path id="Path_123" data-name="Path 123" d="M1760.215,1286.808H1573.994a1.109,1.109,0,0,1-1.109-1.109h0a1.108,1.108,0,0,1,1.109-1.108h186.221a1.109,1.109,0,0,1,1.109,1.108h0A1.109,1.109,0,0,1,1760.215,1286.808Z" transform="translate(-1568.768 -1281.582)" fill="#d7e5ff"/>
      </g>
    </g>
  </g>
</svg>
