<svg xmlns="http://www.w3.org/2000/svg" xmlns:xlink="http://www.w3.org/1999/xlink" viewBox="0 0 89.7 76.07"><defs><linearGradient id="linear-gradient" x1="25.79" y1="41.62" x2="26.2" y2="51.56" gradientUnits="userSpaceOnUse"><stop offset="0" stop-color="#fa0"/><stop offset=".13" stop-color="#ffb615"/><stop offset=".35" stop-color="#ffc630"/><stop offset=".56" stop-color="#ffd144"/><stop offset=".78" stop-color="#ffd850"/><stop offset="1" stop-color="#ffda54"/></linearGradient><linearGradient id="linear-gradient-2" x1="61.16" y1="10.08" x2="61.89" y2="10.08" gradientTransform="rotate(7.34 -62.51 -145.963)" gradientUnits="userSpaceOnUse"><stop offset=".5" stop-color="#3e4d5d"/><stop offset=".76" stop-color="#3f4f60"/><stop offset=".94" stop-color="#435568"/><stop offset="1" stop-color="#45596e"/></linearGradient><linearGradient id="linear-gradient-3" x1="43.14" y1="30.71" x2="47.82" y2="29.54" gradientUnits="userSpaceOnUse"><stop offset=".5" stop-color="#303c47"/><stop offset=".64" stop-color="#323f4b"/><stop offset=".78" stop-color="#384756"/><stop offset=".9" stop-color="#425568"/><stop offset=".93" stop-color="#45596e"/></linearGradient><linearGradient id="linear-gradient-4" x1="660.52" y1="8.25" x2="660.52" y2="4.98" gradientTransform="rotate(-.4 2933.693 90241.8)" gradientUnits="userSpaceOnUse"><stop offset=".13" stop-color="#fcd1a9"/><stop offset=".56" stop-color="#f2b98c"/></linearGradient><linearGradient id="linear-gradient-5" x1="638.35" y1="10.56" x2="638.89" y2="4.63" gradientTransform="rotate(.24 -3062.963 -144770.894)" gradientUnits="userSpaceOnUse"><stop offset="0" stop-color="#f2b98c"/><stop offset=".41" stop-color="#f7c69b"/><stop offset=".91" stop-color="#fcd1a9"/></linearGradient><linearGradient id="linear-gradient-6" x1="29.59" y1="41.6" x2="25.34" y2="34.23" gradientUnits="userSpaceOnUse"><stop offset="0" stop-color="#45596e"/><stop offset=".02" stop-color="#465a6f"/><stop offset=".37" stop-color="#526c86"/><stop offset=".71" stop-color="#597694"/><stop offset="1" stop-color="#5c7a99"/></linearGradient><linearGradient id="linear-gradient-7" x1="20.5" y1="26.02" x2="19.8" y2="24.82" gradientUnits="userSpaceOnUse"><stop offset=".62" stop-color="#ff624d"/><stop offset="1" stop-color="#ff8d7d"/></linearGradient><linearGradient id="linear-gradient-8" x1="30.21" y1="31.64" x2="29.51" y2="30.44" xlink:href="#linear-gradient-7"/><style>.cls-1{isolation:isolate}.cls-3{fill:#4d637a}.cls-4{fill:#5c7a99}.cls-5{fill:#3e4d5d}.cls-6{fill:#3a4a5d}.cls-7{fill:#c78b3d}.cls-8{fill:#e5a045}.cls-9{fill:#edad5a}.cls-10{fill:#ebb977}.cls-11{fill:#f0c184}.cls-12{fill:#e0a75c}.cls-13{fill:#dea050}.cls-14{fill:#f5cc98}.cls-16{fill:#354555}.cls-17{fill:#45596e}.cls-18{fill:#25303b}.cls-19{fill:#fa0}.cls-20{fill:#50667d}.cls-21{fill:#7597ba}.cls-23{fill:#15202e}.cls-24{fill:#0c121a}.cls-25{fill:#dde8ff}.cls-26{fill:#798dab}.cls-27{fill:#bed0eb}.cls-28{fill:#59738f}.cls-30{fill:#ffc936}.cls-32{fill:#7292b5}.cls-34{fill:#5d7794}.cls-37{fill:#f5c59a}.cls-38{fill:#8faac4}.cls-39{fill:#0d0d0d}.cls-40{fill:#ba3e2f}.cls-41{fill:#de4d3a}.cls-48{fill:#ff8d7d}.cls-50{fill:#ff4b33}.cls-52{fill:#efd630}</style></defs><g class="cls-1"><g id="Слой_2" data-name="Слой 2"><g id="_лой_1" data-name="—лой_1"><g id="loader_4" data-name="loader 4"><path d="M.81 62.73l21.62 12.2L33.52 76l2.08-1 .84-2.11 17.31-10 3.5-.48 2.6-1.41-6.23-5.89 11.64-6.69L61 45.3l14.67-8.15-17.83-10.53-13.67 8.08L.82 59.91a1.63 1.63 0 00-.01 2.82z" style="mix-blend-mode:multiply" fill="#e4ecf5"/><g class="cls-1"><path class="cls-3" d="M68.59 22.77l-3.32 1.41 1.79 1.05 3.33-1.41-1.8-1.05z"/><path class="cls-4" d="M65.26 24.18L52 31.83a.5.5 0 01-.5.05l1.8 1a.5.5 0 00.5-.05l13.24-7.65zm-12.87.45l-1.8-1.04.75-.43 1.8 1.04-.75.43z"/><path class="cls-5" d="M52.39 33.24v-8.61l-1.8-1v8.57a.75.75 0 00.32.69l1.8 1a.75.75 0 01-.32-.65z"/><path class="cls-6" d="M67.06 25.23l-13.24 7.65c-.38.22-.69.07-.69-.35V24.2l-.74.43v8.61c0 .7.53 1 1.17.6l16.82-9.72v-.3z"/></g><g class="cls-1"><path class="cls-3" d="M75.29 26.62l-3.33 1.4 1.8 1.05 3.33-1.41-1.8-1.04z"/><path class="cls-4" d="M72 28l-13.28 7.68a.5.5 0 01-.5.05l1.8 1a.5.5 0 00.5-.05l13.24-7.65zm-12.91.48l-1.8-1.05.75-.43 1.8 1.05-.75.43z"/><path class="cls-5" d="M59.09 37.09v-8.61l-1.8-1V36a.75.75 0 00.32.69l1.8 1a.75.75 0 01-.32-.6z"/><path class="cls-6" d="M73.76 29.07l-13.24 7.65c-.38.22-.69.07-.69-.35V28l-.74.43v8.61c0 .7.53 1 1.17.6L77.08 28v-.3z"/></g><g class="cls-1"><path class="cls-7" d="M65.72 39.07v.41l2.1 1.23v-.45l-2.1-1.19z"/><path class="cls-8" d="M68.34 40.29v.42h-.52v-.47l.52.05z"/><path class="cls-9" d="M68.34 40.29v.42l21.35-12.33v-.41L68.34 40.29z"/><path class="cls-10" d="M89.69 27.38V28L68.34 40.29h-.51l-2.11-1.23L72.81 35 75 33.72l12.84-7.42z"/></g><g class="cls-1"><path class="cls-8" d="M68.34 40.26h-.51l-.22-2.24.91.04-.18 2.2z"/><path class="cls-9" d="M71.39 36.42v2.07l-3.05 1.77V38.2l3.05-1.78z"/><path class="cls-7" d="M67.83 38.2v2.06l-2.02-1.15v-2.07l2.02 1.16z"/><path class="cls-11" d="M71.4 36.42l-3.06 1.78h-.51l-2-1.16 3.31-1.92z"/></g><g class="cls-1"><path class="cls-9" d="M80.81 31v2.06l-3.31 1.92v-2.06L80.81 31z"/><path class="cls-7" d="M77.5 32.92v2.06l-2.28-1.3.01-2.07 2.27 1.31z"/><path class="cls-11" d="M80.81 31l-3.31 1.92-2.27-1.31 3.3-1.92L80.81 31z"/></g><g class="cls-1"><path class="cls-9" d="M89.7 25.86v2.07l-2.8 1.62v-2.06l2.8-1.63z"/><path class="cls-7" d="M86.9 27.49v2.06l-2.27-1.3-.01-2.07 2.28 1.31z"/><path class="cls-11" d="M89.7 25.86l-2.8 1.63-2.28-1.3 3.31-1.92 1.77 1v.59z"/></g><path class="cls-12" d="M77.5 34.98l-2.83.1-1.02-.58 1.34-.78.23-.04 2.28 1.3zm9.4-5.43l-2.72.05-1.01-.58 1.22-.73.24-.04 2.27 1.3z"/><g class="cls-1"><path class="cls-7" d="M65.72 36.67v.41l2.11 1.23v-.42l-2.11-1.22z"/><path class="cls-8" d="M68.34 37.89v.42h-.51v-.42h.51z"/><path class="cls-9" d="M68.34 37.89v.42l21.35-12.33v-.41L68.34 37.89z"/><path class="cls-11" d="M65.72 36.67l2.11 1.23h.51l21.35-12.33V25l-1.85-1.1z"/></g><path class="cls-12" d="M72.79 35.32l-1.54-.49-1.17-.68.34-.2 2.37 1.37zm4.71-2.7l-1.54-.49-1.2-.68.37-.21 2.37 1.38zm4.69-2.73l-1.54-.48-1.17-.68.34-.2 2.37 1.36zm4.7-2.71l-1.54-.48-1.16-.69.34-.19 2.36 1.36z"/><g class="cls-1"><path class="cls-7" d="M57.19 34.14v.41l2.37 1.38v-.45l-2.37-1.34z"/><path class="cls-9" d="M59.56 35.52v.41l22.11-12.76v-.41L59.56 35.52z"/><path class="cls-10" d="M81.67 22.76L59.56 35.52l-2.37-1.38 7.08-4.09 2.19-1.26 12.84-7.42 2.37 1.39z"/></g><g class="cls-1"><path class="cls-13" d="M62.86 31.49v2.07l-3.3 1.92v-2.07l3.3-1.92z"/><path class="cls-7" d="M59.56 33.41v2.07l-2.28-1.3v-2.07l2.28 1.3z"/><path class="cls-11" d="M62.86 31.49l-3.3 1.92-2.28-1.3 3.3-1.92 2.28 1.3z"/></g><g class="cls-1"><path class="cls-13" d="M72.28 26.07v2.07l-3.32 1.91.01-2.06 3.31-1.92z"/><path class="cls-7" d="M68.97 27.99l-.01 2.06-2.27-1.3v-2.07l2.28 1.31z"/><path class="cls-11" d="M72.28 26.07l-3.31 1.92-2.28-1.31L70 24.76l2.28 1.31z"/></g><g class="cls-1"><path class="cls-13" d="M81.67 20.64v2.06l-3.3 1.93v-2.07l3.3-1.92z"/><path class="cls-7" d="M78.37 22.56v2.07l-2.28-1.31v-2.06l2.28 1.3z"/><path class="cls-11" d="M78.37 22.56l-2.28-1.3 3.3-1.92 2.28 1.3-3.3 1.92z"/></g><path class="cls-12" d="M68.96 30.05l-2.99.18-1.01-.59 1.73-.99v.1l2.27 1.3zm9.41-5.42l-2.92.13-1.02-.58 1.66-.95v.09l2.28 1.31z"/><g class="cls-1"><path class="cls-7" d="M57.19 31.74v.41l2.36 1.38v-.42l-2.36-1.37z"/><path class="cls-9" d="M59.55 33.11v.42l22.12-12.77v-.41L59.55 33.11z"/><path class="cls-11" d="M57.19 31.74l2.36 1.37 22.12-12.76-2.37-1.38-22.11 12.77z"/></g><path class="cls-12" d="M64.26 30.39l-.36.21-2.35-1.38.34-.2 2.37 1.37zm4.7-2.7l-.34.19-2.39-1.36.37-.21 2.36 1.38zm4.7-2.73l-.37.22-2.35-1.38.35-.2 2.37 1.36zm4.7-2.7l-.36.21-2.35-1.39.34-.19 2.37 1.37z"/><g class="cls-1"><path class="cls-7" d="M49.74 29.82v.41l1.86 1.04v-.45l-1.86-1z"/><path class="cls-9" d="M51.59 30.86l.01.41 22.09-12.71v-.42l-22.1 12.72z"/><path class="cls-10" d="M73.69 18.14L51.6 30.86l-1.86-1v-.59l6.57-3.79 2.18-1.26 12.85-7.41z"/></g><g class="cls-1"><path class="cls-13" d="M54.89 26.89v2.07l-3.31 1.86v-2.06l3.31-1.87z"/><path class="cls-7" d="M51.58 28.76v2.06l-1.86-1.03v-2.07l1.86 1.04z"/><path class="cls-11" d="M54.89 26.89l-3.31 1.92-1.77-1v-.59l2.8-1.63z"/></g><g class="cls-1"><path class="cls-13" d="M64.31 21.46v2.07l-3.32 1.92.01-2.07 3.31-1.92z"/><path class="cls-7" d="M61 23.38l-.01 2.07-2.27-1.3.01-2.07 2.27 1.3z"/><path class="cls-11" d="M64.31 21.46L61 23.38l-2.27-1.3 3.3-1.92 2.28 1.3z"/></g><g class="cls-1"><path class="cls-13" d="M73.7 16.03v2.07l-3.3 1.92v-2.07l3.3-1.92z"/><path class="cls-7" d="M70.4 17.95v2.07l-2.28-1.3v-2.07l2.28 1.3z"/><path class="cls-11" d="M70.4 17.95l-2.28-1.3 3.31-1.92 2.27 1.3-3.3 1.92z"/></g><g class="cls-1"><path class="cls-7" d="M49.72 27.4l.01.42 1.85 1.1v-.41l-1.86-1.11z"/><path class="cls-9" d="M51.58 28.51v.41L73.7 16.16v-.42L51.58 28.51z"/><path class="cls-11" d="M51.58 28.51L73.7 15.74l-2-1.18H71L49.73 26.84v.59z"/></g><path class="cls-12" d="M56.29 25.78l-.36.22-2.35-1.38.34-.2 2.37 1.36zm4.7-2.7l-.33.19-2.4-1.35.37-.22 2.36 1.38zm4.7-2.72l-.36.21-2.35-1.37.34-.2 2.37 1.36zm4.7-2.71l-.39.23-2.31-1.4.33-.19 2.37 1.36z"/><g class="cls-1"><path class="cls-9" d="M71.39 35.71v.41l-3.05 1.77v-.41l3.05-1.77z"/><path class="cls-8" d="M67.83 37.48v.41h.51v-.41h-.51z"/><path class="cls-7" d="M67.83 37.48v.41L49.72 27.44v-.42l18.11 10.46z"/><path class="cls-14" d="M71.39 35.71l-3.05 1.77h-.51L49.72 27v-.59l2.8-1.63z"/></g><g class="cls-1"><path class="cls-9" d="M80.8 30.28v.41l-3.3 1.93v-.42l3.3-1.92z"/><path class="cls-7" d="M77.5 32.2v.42l-18.88-10.9.01-.42L77.5 32.2z"/><path class="cls-14" d="M80.8 30.28l-3.3 1.92-18.87-10.9 3.3-1.92 18.87 10.9z"/></g><g class="cls-1"><path class="cls-9" d="M76.1 32.99v.41l-3.31 1.92.01-.41 3.3-1.92z"/><path class="cls-7" d="M72.8 34.91l-.01.41-18.87-10.9v-.41l18.88 10.9z"/><path class="cls-14" d="M76.1 32.99l-3.3 1.92-18.88-10.9 3.31-1.92 18.87 10.9z"/></g><g class="cls-1"><path class="cls-9" d="M89.69 25.14v.42l-2.8 1.62v-.41l2.8-1.63z"/><path class="cls-7" d="M86.89 26.77v.41L68.02 16.29v-.41l18.87 10.89z"/><path class="cls-14" d="M89.69 25.14l-2.8 1.63L68 15.88l3-1.72h.68l18 10.41c.01.25.01.31.01.57z"/></g><g class="cls-1"><path class="cls-9" d="M85.5 27.56v.41l-3.31 1.92v-.41l3.31-1.92z"/><path class="cls-7" d="M82.19 29.48v.41L63.32 19v-.42l18.87 10.9z"/><path class="cls-14" d="M85.5 27.56l-3.31 1.92-18.87-10.9 3.31-1.92 18.87 10.9z"/></g><path d="M68.33 21.64L44.9 8.12a.79.79 0 00-.86 0l-.73.42.26.39.32 6.07v1L44 29l.88-.51V16.63l23.44 13.52.13 12.94.88-.51V23.24a2.08 2.08 0 00-1-1.6zm-18.66-3.27l-4.77-2.75V9.13l4.76 2.75zm6.44 3.72L50.68 19v-6.53l5.42 3.13zm6.52 3.76l-5.51-3.18v-6.49l5.51 3.18zm5.7 3.29l-4.68-2.7v-6.49l3.49 2A2.37 2.37 0 0168.32 24z" fill="#ffc800"/><g class="cls-1"><path class="cls-16" d="M67.8 40.33v1.71l.6-.35v-1.71l-.6.35z"/><path class="cls-17" d="M44.75 26.36l-.59.34L67.8 40.33l.6-.35-23.65-13.62z"/><path class="cls-18" d="M44.16 26.7l-.01 1.71L67.8 42.04v-1.71L44.16 26.7z"/></g><g class="cls-1"><path class="cls-16" d="M67.82 34.88l-.01 1.71.6-.35.01-1.7-.6.34z"/><path class="cls-17" d="M44.77 20.91l-.6.35 23.65 13.62.6-.34-23.65-13.63z"/><path class="cls-18" d="M44.17 21.26v1.7l23.64 13.63.01-1.71-23.65-13.62z"/></g><path class="cls-19" d="M67.45 22.16L44 8.63c-.56-.33-1-.14-1 .42V28.4l1 .6V17.14l23.44 13.53v11.84l1 .59V23.75a2.08 2.08 0 00-.99-1.59zm-18.67-3.28L44 16.13V9.64l4.76 2.75zm6.44 3.72l-5.42-3.13V13l5.42 3.13zm6.52 3.76l-5.51-3.18v-6.49l5.51 3.18zm5.7 3.29l-4.68-2.7v-6.49l4.68 2.7z"/><g class="cls-1"><path class="cls-20" d="M52.24 2.88l-3.44 1.7.36 39.07 3.19-1.85-.11-38.92z"/><path class="cls-5" d="M49.05 4.72l-.93-.54.11 38.93.93.54-.11-38.93z"/><path class="cls-21" d="M51.32 2.33l-3.2 1.85.93.54 3.19-1.84-.92-.55z"/></g><g class="cls-1"><path class="cls-20" d="M62.64 8.9l-3.44 1.7.35 39.07 3.2-1.85-.11-38.92z"/><path class="cls-5" d="M59.44 10.74l-.92-.54.11 38.93.92.54-.11-38.93z"/><path class="cls-21" d="M61.72 8.36l-3.2 1.84.92.54 3.2-1.84-.92-.54z"/></g><g class="cls-1"><path class="cls-6" d="M63.04 6.76L58.7 8.91l.45 3.31 4.03-2.32-.14-3.14z"/><path class="cls-5" d="M59.01 9.09l-1.17-.68.14 3.13 1.17.68-.14-3.13z"/><path class="cls-21" d="M61.87 6.08l-4.03 2.33 1.17.68 4.03-2.33-1.17-.68z"/></g><g class="cls-1"><path class="cls-6" d="M52.59.68l-4.34 2.15.45 3.31 4.03-2.32-.14-3.14z"/><path class="cls-5" d="M48.56 3.01l-1.16-.68.14 3.13 1.16.68-.14-3.13z"/><path class="cls-21" d="M51.43 0L47.4 2.33l1.16.68L52.59.68 51.43 0z"/></g><path class="cls-18" d="M59.15 12.22L47.61 5.5l-.16-3.14 11.49 6.69.21 3.17z"/><path class="cls-21" d="M58.38 8.72L48.34 2.88l1.35-.52 9.46 5.3-.77 1.06z"/><g class="cls-1"><path class="cls-17" d="M42.91 58.97L22.36 47.03l1.91-5.33 20.54 11.94-1.9 5.33z"/><path d="M16.73 54.57l20.55 11.94a2.92 2.92 0 011.24 2.55v2.05L18 59.17v-2.05a2.92 2.92 0 00-1.27-2.55z" fill="#313e4a"/><g class="cls-1"><path class="cls-23" d="M32.41 66.6a2.36 2.36 0 012.38-.23l2.32 1.35c-.61-.35-5.33 7.79-4.73 8.13l-2.32-1.35a2.33 2.33 0 01-1-2.14 7.33 7.33 0 013.35-5.76z"/><path class="cls-24" d="M34.74 67.95c1.84-1.06 3.34-.21 3.35 1.91a7.34 7.34 0 01-3.33 5.76c-1.84 1.06-3.34.21-3.35-1.91a7.33 7.33 0 013.33-5.76z"/></g><path class="cls-25" d="M35 74.3a4.83 4.83 0 002.18-3.78c0-1.39-1-2-2.18-1.26A4.83 4.83 0 0032.79 73c0 1.43.98 2 2.21 1.3z"/><path class="cls-26" d="M35.11 74.4a4.83 4.83 0 002.18-3.78c0-1.39-1-2-2.18-1.26a4.83 4.83 0 00-2.18 3.78c-.01 1.39.97 1.95 2.18 1.26z"/><path class="cls-27" d="M34.24 74.27a1.66 1.66 0 00.81-.25 4.18 4.18 0 001.89-3.27c0-.79-.37-1.27-1-1.27a1.66 1.66 0 00-.81.25A4.18 4.18 0 0033.28 73c0 .79.37 1.27.96 1.27z"/><path class="cls-25" d="M33.5 73.83a1.66 1.66 0 00.81-.25 4.18 4.18 0 001.89-3.27 1.62 1.62 0 00-.2-.83c.58 0 .94.5.94 1.27A4.18 4.18 0 0135.05 74a1.66 1.66 0 01-.81.25.85.85 0 01-.76-.44z"/><g class="cls-1"><path class="cls-23" d="M13.06 55.48a2.36 2.36 0 012.38-.23l2.32 1.35c-.61-.35-5.33 7.79-4.73 8.13l-2.32-1.35a2.33 2.33 0 01-1-2.14 7.33 7.33 0 013.35-5.76z"/><path class="cls-24" d="M15.39 56.83c1.84-1.06 3.34-.21 3.35 1.91a7.34 7.34 0 01-3.33 5.76c-1.84 1.06-3.34.21-3.35-1.91a7.33 7.33 0 013.33-5.76z"/></g><path class="cls-25" d="M15.63 63.18a4.83 4.83 0 002.18-3.78c0-1.39-1-2-2.18-1.26a4.83 4.83 0 00-2.18 3.78c-.01 1.39.97 1.96 2.18 1.26z"/><path class="cls-26" d="M15.76 63.28a4.83 4.83 0 002.18-3.78c0-1.39-1-2-2.18-1.26A4.83 4.83 0 0013.57 62c0 1.41.98 2 2.19 1.28z"/><path class="cls-27" d="M14.89 63.15a1.66 1.66 0 00.81-.25 4.18 4.18 0 001.89-3.27c0-.79-.37-1.27-1-1.27a1.66 1.66 0 00-.81.25 4.18 4.18 0 00-1.89 3.27c.04.79.41 1.27 1 1.27z"/><path class="cls-25" d="M14.15 62.71a1.66 1.66 0 00.81-.25 4.18 4.18 0 001.89-3.27 1.62 1.62 0 00-.2-.83c.58 0 .94.5.94 1.27a4.18 4.18 0 01-1.89 3.27 1.66 1.66 0 01-.81.25.85.85 0 01-.76-.44z"/><g class="cls-1"><path class="cls-23" d="M54.68 46.23c1.6-.92 3-1 4.09-.4l4 2.32c-1-.61-9.17 13.4-8.14 14l-4-2.32A4 4 0 0149 56.14a12.61 12.61 0 015.68-9.91z"/><path class="cls-24" d="M58.68 48.55c3.17-1.83 5.76-.36 5.77 3.29a12.63 12.63 0 01-5.73 9.91c-3.17 1.83-5.72.35-5.72-3.29a12.61 12.61 0 015.68-9.91z"/></g><path class="cls-25" d="M59.09 59.49A8.32 8.32 0 0062.85 53c0-2.39-1.69-3.37-3.76-2.17a8.32 8.32 0 00-3.76 6.51c.01 2.37 1.67 3.34 3.76 2.15z"/><path class="cls-26" d="M59.32 59.65a8.32 8.32 0 003.76-6.51c0-2.39-1.69-3.37-3.76-2.17a8.32 8.32 0 00-3.76 6.51c0 2.39 1.69 3.36 3.76 2.17z"/><path class="cls-27" d="M57.83 59.43a2.86 2.86 0 001.39-.43 7.19 7.19 0 003.25-5.63c0-1.35-.63-2.19-1.66-2.19a2.86 2.86 0 00-1.39.43 7.19 7.19 0 00-3.25 5.63c0 1.35.64 2.19 1.66 2.19z"/><path class="cls-25" d="M56.55 58.68a2.86 2.86 0 001.39-.43 7.19 7.19 0 003.25-5.63 2.79 2.79 0 00-.34-1.43c1 0 1.62.85 1.62 2.19A7.19 7.19 0 0159.22 59a2.86 2.86 0 01-1.39.43 1.47 1.47 0 01-1.32-.76z"/><path class="cls-28" d="M42.77 33.31a5.29 5.29 0 00-4.11.27c-.16.07-.33.16-.49.25l-6.23 3.7 1.24.7-6.48 3.56-1.2-.65-1.23.56 20.54 11.94 13.91-7.88c.16-.09.32-.18.49-.25a5.29 5.29 0 014.11-.27z"/><path class="cls-5" d="M29.35 71.64a5.57 5.57 0 01-.18-1.34L29 67 8.47 55v3.37a5.79 5.79 0 00.15 1.36 3.55 3.55 0 00.86 1.66L30 73.35a3.62 3.62 0 01-.65-1.71z"/><path class="cls-17" d="M44.81 53.64l13.91-7.88c.16-.09.32-.18.49-.25a5.29 5.29 0 014.11-.27 1.15 1.15 0 01.23.57v.6c-1.3-.92-3.22-.87-5.36.37A15.81 15.81 0 0051.76 55a9.82 9.82 0 00-.54 2.39c0 .32-.08 1.47-.08 1.51 0 2-.08 4.87-.08 5l-12.5 7.21v-2.05c-.09-2.47-1.85-3.61-4.22-2.25A9.54 9.54 0 0030 73.35a3.55 3.55 0 01-.86-1.66 5.78 5.78 0 01-.14-1.36V67l13.89-8z"/><path d="M23.09 38.51a3.07 3.07 0 00-3.08.32L8.47 45.54 29 57.48l11.54-6.72a3.07 3.07 0 013.08-.32z" fill="url(#linear-gradient)"/><path class="cls-30" d="M26.73 56.19l11.73-6.77a3.11 3.11 0 012.63-.42l1 .6-.53-1.37a1.58 1.58 0 00-1.09-.9c-2.23-.6-8-1.06-13.78-1.3z"/><path class="cls-19" d="M26.73 54.55l-15.35-8.93v1.65l15.35 8.92v-1.64z"/><path d="M41 47.51a2.79 2.79 0 00-2.55.26l-11.72 6.78-15.35-8.93 11.73-6.77a3 3 0 012.67-.18l2.83 1.65 7.74 4.5z" fill="#ffde6e"/><path class="cls-19" d="M29.01 66.96L8.47 55.02v-9.48l21.22 12.3-.68 9.12z"/><path class="cls-30" d="M40.56 50.77c2.35-1.35 4.26-.34 4.26 2.27v.61L42.91 59 29 67v-9.52z"/><path class="cls-28" d="M50.32 51.48l-3.94 2.26 1.01 1.67 4.89-2.8-1.96-1.13z"/><path class="cls-5" d="M50.32 51.48l1.96 1.13.12-3.25-2.08-1.23v3.35z"/><path class="cls-17" d="M44.52 51.48a3.33 3.33 0 01.24.85l1.18.67.45.74 3.93-2.26v-3.35z"/></g><g class="cls-1"><path class="cls-18" d="M38 14.31a3.49 3.49 0 00-1.38-3l-1.75-.7a3.07 3.07 0 011.33 2.83v21.75l1.55.9z"/><path class="cls-21" d="M35.64 9.45c-1.17-.68-2.88-.55-4.78.55L13.3 20.08l1.55.9L32.41 10.9c1.9-1.1 3.61-1.23 4.78-.55z"/><path class="cls-18" d="M15.22 21.18l-1.92-1.1.03 22.64 1.55.9.34-22.44z"/><path class="cls-17" d="M38.78 13.71c0-3.58-2.85-4.84-6.37-2.81L14.85 21v22.64l1-.58V21.45l16.56-9.5c3-1.71 5.36-.65 5.36 2.37L37.8 36l1-.58z"/></g><path class="cls-4" d="M54.27 21.66a.63.63 0 01-.32-.09l-17.3-9.9a.64.64 0 01.63-1.1l17.3 9.9a.64.64 0 01-.32 1.19z"/><path class="cls-6" d="M51.04 38.4l-3.64 6.12 4.2-2.03.93-4.55-1.49.46z"/><path class="cls-18" d="M37.22 26.77l.48 4.05 3.99 2.3-1.82 7.05 7.53 4.35 3.88-5.86 3.99 2.31 1.08-5.3-2.19.89-16.94-9.79z"/><path class="cls-6" d="M37.48 27.2l15.82 9.36a1.48 1.48 0 001.5 0l1.55-.9-17.57-10.14-1.3.75a.54.54 0 000 .93zm7.88 17.46s-2-1-1.59-1.72l.95-2.69c.17-.35.54-.56 1.14-.3l1.27.7c.49.27.65.63.53 1l-1.13 2.46a1.08 1.08 0 01-1.17.55z"/><path class="cls-32" d="M45.16 44.63l-.59-.25c-.65-.34-1.56-.75-1.16-1.43l1.13-2.46c.17-.35.4-.77 1-.52 0 0 1 .48 1.4.72a.7.7 0 01.36 1l-1.13 2.46c-.29.42-.63.6-1.01.48z"/><path class="cls-4" d="M46.44 42h-.09l-1.44-.7a.21.21 0 11.19-.38l1.44.7a.21.21 0 01-.09.4zm-.44.89h-.09l-1.44-.7a.21.21 0 01.19-.38l1.44.7a.21.21 0 01-.09.4zm-.43.88h-.09L44 43a.21.21 0 11.19-.38l1.44.7a.21.21 0 01-.09.4z"/><path class="cls-6" d="M41.78 42.71s-2-1-1.59-1.72l.95-2.69c.17-.35.54-.56 1.14-.3l1.27.7c.49.27.65.63.53 1l-1.13 2.46a1.08 1.08 0 01-1.17.55z"/><path class="cls-32" d="M41.58 42.67l-.58-.24c-.65-.34-1.56-.75-1.16-1.43L41 38.53c.17-.35.41-.77 1-.52 0 0 1 .48 1.4.72a.7.7 0 01.36 1l-1.13 2.46c-.32.42-.63.6-1.05.48z"/><path class="cls-4" d="M42.86 40h-.09l-1.44-.7a.21.21 0 11.19-.38l1.44.7a.21.21 0 01-.09.4zm-.41.93h-.09l-1.44-.7a.21.21 0 11.19-.38l1.44.7a.21.21 0 01-.09.4zm-.45.89h-.09l-1.44-.7a.21.21 0 01.19-.38l1.44.7a.21.21 0 01-.09.4z"/><g class="cls-1"><path class="cls-18" d="M40.53 28.68h-.07a.42.42 0 01-.35-.48l.52-3.35a.42.42 0 01.84.13l-.52 3.35a.42.42 0 01-.42.35z"/><path class="cls-17" d="M42.26 22.48l-1.18.34-.42 3.95.66-.22c.09 0 .15-.08.16-.14l1-4c-.01 0-.13.04-.22.07z"/><path d="M40.82 22.74l-.22-.16c-.06 0-.12 0-.11-.08l-.41 4a.16.16 0 00.08.14l.08.07a.5.5 0 00.42.07l.52-4a.39.39 0 01-.36-.04z" fill="url(#linear-gradient-2)"/><path class="cls-34" d="M42.39 22.19l-.39-.26a.55.55 0 00-.53-.05l-.94.52c-.11.06-.11.17 0 .25l.19.15a.5.5 0 00.42.07l1.15-.36c.21-.07.24-.21.1-.32z"/></g><g class="cls-1"><path class="cls-17" d="M48.47 29.36l-1 .28.94 3.22.81-.27c.26-.09.41-.22.43-.37L49 28.9c0 .16-.27.37-.53.46z"/><path d="M45.79 29.41l-2.69-1.55c-.34-.2-.64-.27-.61-.47l.6 3c0 .2.12.42.47.62l2.72 1.57a3.07 3.07 0 002.18.29l-.6-3.2a2.74 2.74 0 01-2.07-.26z" fill="url(#linear-gradient-3)"/><path class="cls-34" d="M48.59 28.5l-2.72-1.57a3.07 3.07 0 00-2.18-.29l-.81.27c-.6.2-.58.64 0 1l2.72 1.57a3.07 3.07 0 002.18.29l.81-.27c.63-.2.61-.65 0-1z"/></g><g class="cls-1"><path class="cls-18" d="M48 27.41v.75a.58.58 0 000-.14 1.45 1.45 0 00-1-.7l-.09-.83a1.75 1.75 0 011.14.74 1 1 0 01-.05.18zm-1.94-.99l.09.77a7.36 7.36 0 00-2 .05A5.61 5.61 0 0042 28a1.44 1.44 0 00-.6.65l-.09-.77a1.3 1.3 0 01.54-.67 5.73 5.73 0 012.15-.8 7.59 7.59 0 012.06.01z"/><path class="cls-18" d="M46.96 26.37l-.12.95-1.22.81-.19-.78 1.53-.98zm-3.56 1.65l-.07.82-1.94.15-.13-.8 2.14-.17z"/><path class="cls-18" d="M44.49 28.27l.06.83-1.22-.26-.09-.85 1.25.28zm1.23-.67l-.58.46.21.85.53-.52a.12.12 0 000-.1l-.09-.77s-.03.05-.07.08z"/><path class="cls-18" d="M45.07 29.07l.09.77-.61-.74-.14-.94.66.91z"/><path class="cls-18" d="M47.84 28.41l-.21.13a5.64 5.64 0 01-1.81.7l-.3.06a8.55 8.55 0 01-3.39 0c-1-.22-1.63-.61-1.68-1.1l.09.77c.06.49.63.92 1.67 1.14a9 9 0 003.52-.07 7 7 0 002.27-.8c.58-.38.84-.8.79-1.17l-.09-.77c0 .37-.28.7-.86 1.11z"/><path class="cls-6" d="M47 26.16a9 9 0 00-5.75.92 1.51 1.51 0 00-.79 1c0 .56.55 1 1.68 1.27a9 9 0 003.58-.08h.06a6.46 6.46 0 002.11-.83c1.32-.86.93-1.9-.89-2.28zm-2 2.91a7 7 0 01-2.43 0c-.73-.15-1.17-.43-1.3-.77v-.06l1.94-.15 1.23.26.6.73zm-.3-1.87a1.1 1.1 0 00-.63.07l-1 .46-1.85.14a1.44 1.44 0 01.6-.65 5.61 5.61 0 012.14-.74 7.36 7.36 0 012-.05l-1.21.8zm2.44 1.13a4.7 4.7 0 01-1.31.57l-.61-.75.53-.52c.1-.1 0-.2-.15-.24h-.1l1.22-.81a1.45 1.45 0 011 .7c.19.31 0 .72-.53 1.05z"/></g><g class="cls-1"><path d="M36.35 44.81a1.65 1.65 0 01-.67.66l-4.58 2.94a1.67 1.67 0 01-1.73 0l-6.9-4a.57.57 0 010-1l4.78-2.79a3.53 3.53 0 011.37-.42z" fill="#efab30"/><path class="cls-18" d="M22.37 42.15V43a1 1 0 00.5.87l7.37 4.19-.24-1.5z"/><path class="cls-6" d="M35.65 41.06l-3.91-2.19a4.11 4.11 0 00-3.74 0l-5.63 3.29 7.87 4.58 5.44-3.5c1.03-.61 1.01-1.58-.03-2.18z"/><path class="cls-17" d="M35.68 43.23L30 46.64v1.14a.33.33 0 00.5.29l5.12-3a1.31 1.31 0 00.82-1.07v-1.84a1.31 1.31 0 01-.76 1.07z"/></g><path class="cls-37" d="M30.57 33.84a5.31 5.31 0 002.14.41c.13 0 .14-.12.25-.16s.38 0 .48-.06.1-.17.15-.23.11-.05.12-.08a.52.52 0 000-.26s-.09-.12-.1-.16a.31.31 0 00-.15-.25 1.81 1.81 0 00-.49-.25c-.33-.09-1-.23-1.33-.28a.87.87 0 00-1 .57c-.23.35-.21.69-.07.75z"/><path class="cls-37" d="M31.69 32.66a2.17 2.17 0 01.48-.13 2.11 2.11 0 00.32 0 .31.31 0 00.24-.13c.05-.07.08-.21-.06-.2a6.14 6.14 0 01-.72-.1 1.79 1.79 0 00-.94.52c-.01.09.41.13.68.04z"/><path class="cls-37" d="M31 32.54l-4.45-1.27c.65-1.32 2-4.12 2.31-5.12A1.49 1.49 0 0028 24.1c-1-.3-1.54.76-1.74 1.16a61.66 61.66 0 00-2.53 6.47c-.25.92 1.12 1.51 1.38 1.56a51.37 51.37 0 005.51.58s.49-.14.58-.51a.8.8 0 00-.2-.82z"/><path class="cls-38" d="M28.13 28.19a22.05 22.05 0 00.87-2.06c.18-.56.3-1.8-.83-2.13s-1.72.84-1.92 1.24-.53 1.27-.78 1.84a3.6 3.6 0 001 .67c1.29.56 1.66.44 1.66.44z"/><path class="cls-39" d="M39.41 43.48a1.41 1.41 0 00.83-.39c.39-.38.43-.57.7-.79s1-.87 1.15-1a1.43 1.43 0 00.35-1.13c-.11-.73-.55-.57-.92-.41a5.19 5.19 0 00-.77.57 2 2 0 01-.82.33c-.15 0 0 .74 0 .74.05.37-.5.92-.88.79s-.63-.28-.57 0c.16.66.24 1.31.93 1.29z"/><path class="cls-18" d="M42.09 39.53c-.21-.15-.44 0-.68.15a6.72 6.72 0 01-.72.43 5.79 5.79 0 01-.82.31c-.15 0 0 .67 0 .67a.43.43 0 010 .16.78.78 0 01-.12.25 1.07 1.07 0 01-.21.22.88.88 0 01-.27.15.48.48 0 01-.28 0c-.25-.09-.63-.28-.57 0l.08.38a3.41 3.41 0 00.09.35c.06.18.1.25.18.28a1.51 1.51 0 00.41 0 1.23 1.23 0 00.8-.32c.08-.08.34.09.39 0a3.69 3.69 0 01.49-.56c.16-.13.24-.18.39-.32l.17-.16c.31-.31.19-.67.24-.72a1.55 1.55 0 00.48-.73.64.64 0 000-.5z"/><path class="cls-39" d="M42.87 46.59a1.41 1.41 0 00.83-.38c.39-.38.43-.57.7-.78s1-.87 1.16-1a1.43 1.43 0 00.35-1.13c-.11-.73-.72-.65-1.1-.49-.22.09-.35.45-.6.64a2 2 0 01-.82.33c-.15 0 0 .74 0 .74.05.37-.5.92-.89.79s-.63-.28-.57 0c.16.69.24 1.3.94 1.28z"/><path class="cls-18" d="M45.56 42.66a.81.81 0 00-.82-.17c-.22.09-.35.45-.6.64a2 2 0 01-.82.33c-.15 0 0 .74 0 .74a.43.43 0 010 .16.78.78 0 01-.12.25 1.07 1.07 0 01-.21.22.89.89 0 01-.27.15.48.48 0 01-.28 0 2 2 0 00-.48-.15h-.06v.13a6.64 6.64 0 00.16.73c.12.36.15.3.59.29a1.24 1.24 0 00.8-.32c.08-.08.34.09.39 0a3.7 3.7 0 01.49-.56 5 5 0 00.56-.48c.31-.31.2-.67.25-.72a1.53 1.53 0 00.35-.44 1.81 1.81 0 00.14-.29.92.92 0 000-.29.34.34 0 000-.2z"/><path class="cls-40" d="M40.81 40a29.07 29.07 0 01-2.13-3.65c-.35-.7-.95-1.68-.95-1.68s-.87-1-1.71-.28l-7.74 3.71a9.22 9.22 0 00-.36 2.29c.37 1.81 2.67 1.94 2.67 1.94a19.42 19.42 0 002-.75 22.47 22.47 0 003.65-3.2 18.41 18.41 0 011.68 2.71c.44 1 .56 1.36 1.12 1.26 1.06-.18 2.01-2.01 1.77-2.35z"/><path class="cls-41" d="M44.3 43.68a28.29 28.29 0 01-2.7-3.75l-.91-1.36-.09-.09a1.84 1.84 0 00-1.39-.58h-.07a2.81 2.81 0 00-.64 0h-.05l-3.14.26c-.87.08-3.77.24-3.77.24s-.53.15-.52.63c.08 2.79 1.36 3.75 1.36 3.75s3.7-1 6.16-1.6l.08.19c.72 1.44 2.53 2.78 3.27 4.24.23.47.3.91 1.46.06.35-.2 1.24-1.67.95-1.99z"/><path class="cls-40" d="M30.86 37.17l-3-.44s-.24 1.46-.26 1.66a5.5 5.5 0 00.6 2.62c.53.75.91.63 1.62-.13a6.63 6.63 0 011.04-3.71z"/><path class="cls-41" d="M34.84 38.63a3.19 3.19 0 00-.08-.66L30 37.15c-.45 1.91-.69 3.91 0 4.58 0 0 .41 1.29 2.32 1.12.69-.06 1-1.13 2-2.37a2 2 0 00.35-.62c.1-.15.16-.8.17-1.23z"/><path d="M34.84 30.39c0 1.15-.59 5.6-.21 8 0 .15-.49 1.19-1 1.3a9.18 9.18 0 01-3.74.08 4.16 4.16 0 01-1.68-.68 1.28 1.28 0 01-.6-1.13 27.42 27.42 0 00-.12-4.8c-.07-.3-.86-3.43-1-4.25a10.4 10.4 0 01-.08-3.44c.16-.73 1.06-1.55 1.74-1.45a5.31 5.31 0 01.55.19c.77.32 2.25.93 2.82 1.26.15.08.37.24.62.41.61.43 2.34 1.74 2.34 1.74.43.4.35 1 .44 2-.03-.08-.06-.11-.08.77z" fill="#e4ecf5"/><path class="cls-41" d="M34.93 32a60.38 60.38 0 00-.09 6.59 2.23 2.23 0 01-1.14 1.21 10 10 0 01-3.84.2 3.88 3.88 0 01-1.63-.84c-.47-.33-.68-.52-.69-1a29.51 29.51 0 00-.06-5.06c-.07-.3-.86-3.1-.82-3.37a6 6 0 00.34-1.48s-.27-3.06 1.44-4.12c.16-.1.83.3.83.3-1.77 1.27-1.2 3.28-.9 3.41.11 0 1.35.49 1.86.64a.49.49 0 00.56-.23 4.1 4.1 0 011.92-2c.18-.07.74.55.74.55-2.28 1.48-1.88 2.78-1.88 2.78.22 3.47 3.43 1.58 3.36 2.42z"/><path class="cls-37" d="M45.3 30.31a2.37 2.37 0 00.34-.51c.07-.17-.09-.31-.21-.2s-.24.35-.32.42-.43.36-.41.27.31-.25.43-.39a3.6 3.6 0 00.37-.64c.07-.18-.11-.37-.25-.24s-.29.49-.41.59-.37.33-.41.29.34-.34.4-.43.24-.23.25-.33 0-.23-.13-.23-.34.22-.51.39a2.16 2.16 0 01-.88.45c0-.1 0-.21.11-.24a2.31 2.31 0 00.3-.2.34.34 0 00.18-.24c0-.1 0-.18-.13-.1a5.4 5.4 0 01-.66.21 2.09 2.09 0 00-.65 1 1.16 1.16 0 00-.14.23L38 32.09c-.53-.81-1.64-2.51-2.2-3.39-.88-1.39-2-1.14-2.3-.88-.86.66-.29 2-.06 2.38a19 19 0 003.17 3.92 1.19 1.19 0 00.19.17 1.88 1.88 0 001.53.18 40.12 40.12 0 004.87-2.86 2.19 2.19 0 00.41 0 3.26 3.26 0 001.14-.45 4.13 4.13 0 00.6-.41 2.34 2.34 0 00.22-.31.13.13 0 00-.15-.18c-.09 0-.17.24-.22.27s-.33.25-.31.16.3-.26.41-.38z"/><path class="cls-38" d="M36.61 29.74c-.28-.44-.62-.88-.81-1.18-.88-1.39-2-1.1-2.34-.84-.86.66-.33 2-.09 2.43s.49.89.73 1.23a3 3 0 001.12-.49 8.16 8.16 0 001.39-1.15z"/><path d="M29.41 23.11v2.57a.6.6 0 00.36.49 1.9 1.9 0 001.72 0 .6.6 0 00.35-.5V23.1z" fill="url(#linear-gradient-4)"/><path d="M33.37 21.18A3.14 3.14 0 0033.2 19c-.61-.28-2.25 1.75-2.39 2.38a1.85 1.85 0 00.07 1.1c.05.15.53.66.68.89a2.56 2.56 0 01.2 1v.42a.47.47 0 00.47-.06 5 5 0 00.78-1 4.15 4.15 0 00.51-1.73 7.87 7.87 0 00-.15-.82z" fill="url(#linear-gradient-5)"/><path d="M32.3 22.22a1.51 1.51 0 00.25.5c.11.13.07.32.2.3.28 0 .14-.71.17-1s-.09-.64-.31-.46a.67.67 0 00-.31.66z" fill="#e8b07d"/><path class="cls-18" d="M33.2 18.82a2 2 0 00-.85-.64 2.76 2.76 0 00-2.55.09 4.93 4.93 0 00-1.28.9 3 3 0 00-.66 1.38 7.82 7.82 0 00-.06 1 3.79 3.79 0 00.31 1.29 3.13 3.13 0 00.53.91 3.8 3.8 0 00.42.41 1.8 1.8 0 001.19.59A1.53 1.53 0 0031.8 24a5.85 5.85 0 01.49-2 1 1 0 01.35-.44c.13-.08.2 0 .25.16a.57.57 0 00.23.18l.11.05v-.75a1.42 1.42 0 01.06-.88c.06-.19.13-.35.18-.57a1.52 1.52 0 00-.27-.93z"/><path class="cls-38" d="M32.34 26s-2.87 1.09-3.27-.36a.76.76 0 01.35-.88 1 1 0 00.92.66 3.89 3.89 0 001.53-.21z"/><g class="cls-1"><path class="cls-17" d="M29.92 41.17l.08 5.47 4.06-2-1.49.08a1 1 0 01-1.07-1v-3.25z"/><path d="M29.52 37l-3.61-2.08a1.43 1.43 0 00-1.45-.14l-1.46.83c.37-.21.79 0 1.36.3L28 38a4.3 4.3 0 012 3.44l1.59-.93A4.46 4.46 0 0029.52 37z" fill="url(#linear-gradient-6)"/><path class="cls-18" d="M28 37.83l-3.61-2.08c-1.12-.65-2-.13-2 1.16v5.31L30 46.64v-5.31a4.46 4.46 0 00-2-3.5z"/></g><ellipse class="cls-6" cx="49.35" cy="44.88" rx=".61" ry=".36"/><path d="M49.35 45.08h-.1a.42.42 0 01-.31-.51l2.38-9.88c.35-1.53-.42-1.81-.67-1.9l-.82-.28a.42.42 0 11.25-.81c.3.09.63.21.86.3.64.24 1.65.92 1.2 2.89l-2.39 9.88a.42.42 0 01-.4.31z" fill="#5f7fa1"/><path class="cls-18" d="M51 31.68A1 1 0 0149.75 33a.87.87 0 01-.45-.45 1 1 0 011.28-1.28.86.86 0 01.42.41z"/><g class="cls-1"><path class="cls-18" d="M56.81 25.24a3.49 3.49 0 00-1.38-3l-1.75-.7A3.07 3.07 0 0155 24.32v21.75l1.55.9z"/><path class="cls-21" d="M54.43 20.38c-1.17-.68-2.88-.55-4.78.55L32.09 31l1.55.9L51.2 21.83c1.9-1.1 3.61-1.23 4.78-.55z"/><path class="cls-18" d="M34.01 32.1l-1.92-1.09.03 22.64 1.55.89.34-22.44z"/><path class="cls-17" d="M57.57 24.64c0-3.58-2.85-4.84-6.37-2.81L33.64 31.91v22.64l1-.58V32.36l16.56-9.5c3-1.71 5.36-.65 5.36 2.37v21.75l1-.58z"/></g><path class="cls-4" d="M37.19 15.83a.64.64 0 01-.42-1.11c.11-.1 2.84-2.47 5.69-1.19a.64.64 0 11-.52 1.16c-2.11-1-4.31 1-4.33 1a.63.63 0 01-.42.14zm6.05 3.47a.64.64 0 01-.42-1.11c.12-.1 2.84-2.47 5.69-1.19a.64.64 0 01-.51 1.17c-2.11-1-4.3 1-4.33 1a.63.63 0 01-.43.13z"/><path class="cls-21" d="M33.64 31.91L13.3 20.08l16.27-9.34 20.22 11.8-16.15 9.37z"/><path class="cls-18" d="M33.64 33.91L13.3 22.08v-2l20.34 11.83v2z"/><g class="cls-1"><path class="cls-48" d="M17.74 23.07a.28.28 0 00-.28 0l-.64.37a.28.28 0 01.28 0l2.55 1.47.64-.37z"/><path d="M20.29 24.54l-.64.37a.88.88 0 01.4.69v.49a.28.28 0 01-.12.26l.64-.37a.28.28 0 00.12-.26v-.49a.88.88 0 00-.4-.69z" fill="url(#linear-gradient-7)"/><path class="cls-50" d="M19.65 24.91l-2.55-1.47c-.22-.13-.4 0-.4.23v.49a.88.88 0 00.4.69l2.55 1.47c.22.13.4 0 .4-.23v-.49a.88.88 0 00-.4-.69z"/></g><g class="cls-1"><path class="cls-48" d="M27.45 28.69a.28.28 0 00-.28 0l-.64.37a.28.28 0 01.28 0l2.55 1.47.64-.37z"/><path d="M30 30.16l-.64.37a.88.88 0 01.4.69v.49a.28.28 0 01-.12.26l.64-.37a.28.28 0 00.12-.26v-.49a.88.88 0 00-.4-.69z" fill="url(#linear-gradient-8)"/><path class="cls-50" d="M29.36 30.53l-2.55-1.47c-.22-.13-.4 0-.4.23v.49a.88.88 0 00.4.69l2.55 1.47c.22.13.4 0 .4-.23v-.49a.88.88 0 00-.4-.69z"/></g><path class="cls-4" d="M40.68 21.92a1.15 1.15 0 010 2.17 4.16 4.16 0 01-3.76 0 1.15 1.15 0 010-2.17 4.15 4.15 0 013.76 0z"/><path class="cls-19" d="M41.27 22.6l-1-3.85h-3l-.91 3.63c-.21.48 0 1 .64 1.38a3.89 3.89 0 003.52 0 1.15 1.15 0 00.75-1.16z"/><path class="cls-30" d="M38.8 23.76a3.19 3.19 0 01-1.55-.36c-.2-.12-.65-.43-.46-.84l.85-3.38H40l.89 3.52c0 .22-.14.48-.5.69a3.2 3.2 0 01-1.59.37z"/><path class="cls-52" d="M38.8 22.49a2.34 2.34 0 01-.65-.09s.09-1.64.49-1.95a.39.39 0 01.34 0c.4.31.49 1.95.49 1.95a2.33 2.33 0 01-.67.09z"/><path class="cls-30" d="M39.86 18.14a.64.64 0 010 1.22 2.33 2.33 0 01-2.11 0 .64.64 0 010-1.22 2.33 2.33 0 012.11 0z"/><path class="cls-52" d="M39.71 18.23a.55.55 0 010 1 2 2 0 01-1.81 0 .55.55 0 010-1 2 2 0 011.81 0z"/></g></g></g></g></svg>