<svg xmlns="http://www.w3.org/2000/svg" viewBox="0 0 130.98 113.3"><defs><linearGradient id="Ѕезым_нный_градиент_27" x1="-151.41" y1="101.96" x2="-148.17" y2="97.19" gradientTransform="matrix(-1 0 0 1 -78.98 0)" gradientUnits="userSpaceOnUse"><stop offset=".03" stop-color="#afc2de"/><stop offset=".54" stop-color="#b2c5e0"/><stop offset=".88" stop-color="#bbcde8"/><stop offset=".96" stop-color="#bed0eb"/></linearGradient><linearGradient id="linear-gradient" x1="41.42" y1="70.25" x2="53.29" y2="49.69" gradientUnits="userSpaceOnUse"><stop offset="0" stop-color="#ba3e2f"/><stop offset=".01" stop-color="#be4031"/><stop offset=".09" stop-color="#db4f3d"/><stop offset=".17" stop-color="#ef5a46"/><stop offset=".26" stop-color="#fb604b"/><stop offset=".34" stop-color="#ff624d"/></linearGradient><linearGradient id="linear-gradient-2" x1="41.09" y1="66.13" x2="56.22" y2="39.92" gradientUnits="userSpaceOnUse"><stop offset="0" stop-color="#ba3e2f"/><stop offset=".03" stop-color="#c44333"/><stop offset=".12" stop-color="#da4f3d"/><stop offset=".22" stop-color="#eb5744"/><stop offset=".34" stop-color="#f65d49"/><stop offset=".52" stop-color="#fd614c"/><stop offset="1" stop-color="#ff624d"/></linearGradient><linearGradient id="linear-gradient-3" x1="47.05" y1="100.57" x2="51.51" y2="100.57" gradientUnits="userSpaceOnUse"><stop offset="0" stop-color="#fa0"/><stop offset=".09" stop-color="#ffad06"/><stop offset=".68" stop-color="#ffc129"/><stop offset="1" stop-color="#ffc936"/></linearGradient><style>.cls-1{isolation:isolate}.cls-44{fill:#e4ecf5}.cls-3{fill:#15202e}.cls-4{fill:#0c121a}.cls-5{fill:#dde8ff}.cls-6{fill:#798dab}.cls-13{fill:#3a4a5d}.cls-14{fill:#45596e}.cls-15{fill:#25303b}.cls-16{fill:#8096b0}.cls-17{fill:#768ba3}.cls-18{fill:#e3eefc}.cls-19{fill:#bed3eb}.cls-20{fill:#91aac7}.cls-21{fill:#dfe8f0}.cls-23{fill:#fdbf00}.cls-24{fill:#de6f00}.cls-25{fill:#1a2129}.cls-27{fill:#ba3e2f}.cls-29{fill:#ff624d}.cls-32{fill:#446180}.cls-34{fill:#de4d3a}.cls-37{fill:#27394d}.cls-38{fill:#1a2736}.cls-39,.cls-46{fill:#fff}.cls-40{fill:#b8cbe0}.cls-43{fill:#992c1e}.cls-46{mix-blend-mode:overlay}</style></defs><g class="cls-1"><g id="Слой_2" data-name="Слой 2"><g id="_лой_1" data-name="—лой_1"><g id="truck_front" data-name="truck front"><path d="M125.4 70.56L115 78.5l-6 .67-38 21.73-5.26 5.75-6.14.77-10.17 5.88-20.77-6.23L2.48 91.95a5 5 0 010-8.58l14.46-8.28L13.3 73a2.35 2.35 0 010-4.07L73.24 34z" style="mix-blend-mode:multiply" fill="#e4ecf5"/><g class="cls-1"><path class="cls-3" d="M115.17 63.08c1.58-.91 3-1 4-.4l4 2.29c-1-.6-9.07 13.25-8 13.85l-4-2.29a4 4 0 01-1.66-3.64 12.48 12.48 0 015.66-9.81z"/><path class="cls-4" d="M119.13 65.37c3.14-1.81 5.69-.36 5.7 3.25a12.49 12.49 0 01-5.67 9.81c-3.14 1.81-5.69.35-5.7-3.25a12.48 12.48 0 015.67-9.81z"/></g><path class="cls-5" d="M119.53 76.19a8.23 8.23 0 003.72-6.44c0-2.37-1.67-3.33-3.72-2.15a8.23 8.23 0 00-3.71 6.4c0 2.41 1.66 3.38 3.71 2.19z"/><path class="cls-6" d="M119.76 76.35a8.23 8.23 0 003.72-6.44c0-2.37-1.67-3.33-3.72-2.15a8.23 8.23 0 00-3.76 6.45c0 2.36 1.71 3.33 3.76 2.14z"/><path d="M118.28 76.14a2.83 2.83 0 001.38-.43 7.12 7.12 0 003.22-5.57c0-1.34-.63-2.17-1.64-2.17a2.83 2.83 0 00-1.38.43 7.12 7.12 0 00-3.22 5.6c0 1.31.63 2.14 1.64 2.14z" fill="#bed0eb"/><path class="cls-5" d="M117 75.39a2.83 2.83 0 001.4-.39 7.12 7.12 0 003.22-5.57 2.76 2.76 0 00-.34-1.42c1 0 1.6.84 1.6 2.16a7.12 7.12 0 01-3.22 5.57 2.83 2.83 0 01-1.38.43 1.45 1.45 0 01-1.3-.75z"/><g class="cls-1"><path fill="#475f77" d="M122.79 64.37l-6.12-3.56 3.79-.13 6.12 3.55-3.79.14z"/><path fill="#4f6984" d="M117.28 67.55l-6.12-3.56 5.51-3.18 6.12 3.56-5.51 3.18z"/><path fill="#4b647d" d="M113.5 71.79l-6.12-3.56 3.78-4.24 6.12 3.56-3.78 4.24z"/><path fill="#314152" d="M113.5 72.41l-6.12-3.55v-.63l6.12 3.56v.62z"/><path fill="#475e76" d="M122.79 64.37l3.79-.14v.63l-3.79.13-5.51 3.18-3.78 4.24v-.62l3.78-4.24 5.51-3.18z"/></g><path class="cls-13" d="M85.9 91.27l11.04-6.38v-7.64L85.9 83.62v7.65z"/><path class="cls-14" d="M96.94 77.25L85.9 83.62 79.63 80l11.03-6.37 6.28 3.62z"/><path class="cls-15" d="M85.9 91.27v-7.65L79.63 80v7.64l6.27 3.63zm10.37-12.18l-9.35 5.4v.45l9.35-5.41v-.44zm0 2.24l-9.35 5.4v.45l9.35-5.4v-.45zm0 2.25l-9.35 5.4v.44l9.35-5.4v-.44z"/><g class="cls-1"><path class="cls-13" d="M128.88 61.34l1.08-.63v2.19l-1.08.62v-2.18z"/><path class="cls-14" d="M100.85 45.17l1.08-.63 28.03 16.17-1.08.63-28.03-16.17z"/><path class="cls-15" d="M128.88 61.34v2.18l-28.03-16.16v-2.19l28.03 16.17z"/></g><g class="cls-1"><path class="cls-16" d="M83.75 86.42l-.56-.33.01 6.68.56.32-.01-6.67z"/><path class="cls-17" d="M83.75 86.42l-.56-.33v2.23l.56.33v-2.23z"/><path class="cls-18" d="M83.68 85.81l-.49.28.56.33.49-.29-.56-.32z"/><path class="cls-19" d="M84.24 86.13l-.49.29.01 6.67.5-.28-.02-6.68z"/><path class="cls-20" d="M84.24 86.13l-.49.29v2.23l.5-.29-.01-2.23z"/></g><g class="cls-1"><path class="cls-16" d="M94.11 80.44l-.56-.33.02 6.68.56.33-.02-6.68z"/><path class="cls-17" d="M94.11 80.44l-.56-.33.01 2.27.56.32-.01-2.26z"/><path class="cls-18" d="M94.04 79.83l-.49.28.56.33.5-.29-.57-.32z"/><path class="cls-19" d="M94.61 80.15l-.5.29.02 6.68.49-.29-.01-6.68z"/><path class="cls-20" d="M94.61 80.15l-.5.29.01 2.26.49-.28v-2.27z"/></g><g class="cls-1"><path class="cls-16" d="M104.48 74.46l-.56-.33.02 6.68.56.33-.02-6.68z"/><path class="cls-17" d="M104.48 74.46l-.56-.33.01 2.19.56.32-.01-2.18z"/><path class="cls-18" d="M104.41 73.85l-.49.28.56.33.49-.29-.56-.32z"/><path class="cls-19" d="M104.97 74.17l-.49.29.02 6.68.49-.29-.02-6.68z"/><path class="cls-20" d="M104.97 74.17l-.49.29.01 2.18.49-.28-.01-2.19z"/></g><g class="cls-1"><path class="cls-16" d="M81.12 91.51l-.46-.26.01.84.45.26v-.84z"/><path class="cls-21" d="M81.12 91.51l-.46-.26 26.48-15.2.46.27-26.48 15.19z"/><path class="cls-19" d="M107.6 76.32L81.12 91.51v.84l26.48-15.19v-.84z"/></g><g class="cls-1"><path class="cls-16" d="M81.12 94.01l-.46-.27.01.84.45.27v-.84z"/><path class="cls-21" d="M81.12 94.01l-.46-.27 26.48-15.19.46.26-26.48 15.2z"/><path class="cls-19" d="M107.6 78.81l-26.48 15.2v.84l26.48-15.2v-.84z"/></g><path class="cls-16" d="M76.9 91.88L41.29 71.32V31.3L76.9 51.86v40.02z"/><path fill="#cedef0" d="M130.98 60.58L76.9 91.88V51.86l54.08-31.3v40.02z"/><path class="cls-18" d="M130.98 20.56L76.9 51.86 41.29 31.3 95.37 0l35.61 20.56z"/><g class="cls-1"><path class="cls-23" d="M88.48 82.39l1.18-.68a.11.11 0 01.11 0l.4.23a.11.11 0 00-.11 0l-1.18.68a.36.36 0 00-.16.28v.47a.11.11 0 000 .1l-.4-.23a.11.11 0 010-.1v-.47a.36.36 0 01.16-.28z"/><path class="cls-24" d="M88.88 82.62l1.18-.68c.09-.05.16 0 .16.09v.47a.36.36 0 01-.16.28l-1.18.68c-.09.05-.16 0-.16-.09v-.47a.36.36 0 01.16-.28z"/></g><g class="cls-1"><path class="cls-23" d="M75.66 52.34l-1.18-.68a.11.11 0 00-.11 0l-.4.23a.11.11 0 01.11 0l1.18.68a.36.36 0 01.16.28v.47a.11.11 0 010 .1l.4-.23a.11.11 0 000-.1v-.47a.36.36 0 00-.16-.28z"/><path class="cls-24" d="M75.25 52.57l-1.18-.68c-.09-.05-.16 0-.16.09v.47a.36.36 0 00.16.28l1.18.68c.09.05.16 0 .16-.09v-.47a.36.36 0 00-.16-.28z"/></g><g class="cls-1"><path class="cls-23" d="M43.52 33.76l-1.18-.68a.11.11 0 00-.11 0l-.4.23a.11.11 0 01.11 0l1.18.68a.36.36 0 01.16.28v.47a.11.11 0 010 .1l.4-.23a.11.11 0 000-.1V34a.36.36 0 00-.16-.24z"/><path class="cls-24" d="M43.12 34l-1.18-.68c-.09-.05-.16 0-.16.09v.47a.36.36 0 00.16.28l1.18.68c.09.05.16 0 .16-.09v-.47a.36.36 0 00-.16-.28z"/></g><g class="cls-1"><path class="cls-23" d="M103.67 73.53l1.18-.68a.11.11 0 01.11 0l.4.23a.11.11 0 00-.11 0l-1.18.68a.36.36 0 00-.16.28v.47a.11.11 0 000 .1l-.4-.23a.11.11 0 010-.1v-.47a.36.36 0 01.16-.28z"/><path class="cls-24" d="M104.08 73.76l1.18-.68c.09-.05.16 0 .16.09v.47a.36.36 0 01-.16.28l-1.18.68c-.09.05-.16 0-.16-.09V74a.36.36 0 01.16-.24z"/></g><g class="cls-1"><path class="cls-23" d="M118.87 64.67L120 64a.11.11 0 01.11 0l.4.23a.11.11 0 00-.11 0l-1.18.68a.36.36 0 00-.16.28v.47a.11.11 0 000 .1l-.4-.23a.11.11 0 010-.1v-.47a.36.36 0 01.21-.29z"/><path class="cls-24" d="M119.27 64.91l1.18-.68c.09-.05.16 0 .16.09v.47a.36.36 0 01-.16.28l-1.18.68c-.09.05-.16 0-.16-.09v-.47a.36.36 0 01.16-.28z"/></g><path class="cls-25" d="M18.71 76.09a.37.37 0 01-.19-.05l-1.32-.79a4.32 4.32 0 01-2.08-3.68v-6a.37.37 0 11.75 0v6a3.56 3.56 0 001.71 3l1.32.8a.37.37 0 01-.19.7z"/><g class="cls-1"><path class="cls-13" d="M17.25 62.59l-2.05-1.18a.38.38 0 00-.39 0l-.72.42a.38.38 0 01.39 0L16.53 63a1.19 1.19 0 01.54.93v5.47a.38.38 0 01-.16.35l.72-.42a.38.38 0 00.16-.35v-5.47a1.19 1.19 0 00-.54-.92z"/><path class="cls-15" d="M16.53 63l-2.05-1.19c-.3-.17-.54 0-.54.31v5.47a1.19 1.19 0 00.54.93l2.05 1.19c.3.17.54 0 .54-.31v-5.47a1.19 1.19 0 00-.54-.93z"/></g><g class="cls-1"><path class="cls-3" d="M66.17 91.32c1.58-.91 3-1 4-.4l4 2.29c-1-.6-9.07 13.25-8 13.85l-4-2.29a4 4 0 01-1.66-3.64 12.48 12.48 0 015.66-9.81z"/><path class="cls-4" d="M70.13 93.61c3.14-1.81 5.69-.36 5.7 3.25a12.49 12.49 0 01-5.67 9.81c-3.14 1.81-5.69.35-5.7-3.25a12.48 12.48 0 015.67-9.81z"/></g><path class="cls-5" d="M70.54 104.43A8.23 8.23 0 0074.25 98c0-2.37-1.67-3.33-3.72-2.15a8.23 8.23 0 00-3.72 6.44c.01 2.36 1.68 3.32 3.73 2.14z"/><path class="cls-6" d="M70.76 104.59a8.23 8.23 0 003.72-6.44c0-2.37-1.67-3.33-3.72-2.15a8.23 8.23 0 00-3.76 6.44c0 2.37 1.71 3.33 3.76 2.15z"/><path class="cls-5" d="M67.69 102.36a2.86 2.86 0 00.54 1.77c.36.48 1.69.41 1.69.41 4.46-1.82 4.72-4.55 4.22-7a2.9 2.9 0 00-.81-1.12 2.32 2.32 0 00-2.35.21 7.26 7.26 0 00-3.29 5.73zm1.54-.74a3.84 3.84 0 011.74-3c1-.55 1.74-.1 1.74 1a3.84 3.84 0 01-1.74 3c-.97.55-1.74.1-1.74-1z"/><path d="M68.72 102.5c0 1.86 1.31 2.62 2.93 1.69a6.48 6.48 0 002.93-5.07c0-1.86-1.31-2.62-2.93-1.69a6.48 6.48 0 00-2.93 5.07zm1.38-.66a3.43 3.43 0 011.55-2.69c.86-.49 1.55-.09 1.55.9a3.43 3.43 0 01-1.55 2.69c-.85.49-1.55.09-1.55-.9z" fill="url(#Ѕезым_нный_градиент_27)"/><path class="cls-5" d="M71.34 98.62c0 .2.14.28.31.18a.68.68 0 00.31-.53c0-.2-.14-.28-.31-.18a.68.68 0 00-.31.53zM70.13 100c.1.1.29 0 .43-.17s.17-.43.07-.53-.29 0-.43.17-.2.44-.07.53zm-.64 1.76a.62.62 0 00.39-.45c.05-.22 0-.37-.2-.33a.62.62 0 00-.39.45c-.05.21.04.36.2.33zm.19 1.44a.62.62 0 00.2-.56c-.05-.16-.23-.16-.39 0a.62.62 0 00-.2.56c.05.15.23.15.39 0zm.94.58c.1-.22.07-.42-.07-.46s-.33.11-.43.33-.07.42.07.46.33-.11.43-.33zm2.56-1.89c-.1-.1-.29 0-.43.17s-.17.43-.07.53.29 0 .43-.17.17-.42.07-.53zm.63-1.75a.62.62 0 00-.39.45c-.05.22 0 .37.2.33a.62.62 0 00.39-.45c.05-.21-.01-.36-.2-.33zm-.19-1.44a.62.62 0 00-.2.56c.05.16.23.16.39 0a.62.62 0 00.2-.56c-.01-.15-.22-.15-.39 0zm-.94-.58c-.1.22-.07.42.07.46s.33-.11.43-.33.07-.42-.07-.46-.33.11-.43.33zm-.68 5.16c0-.2-.14-.28-.31-.18a.68.68 0 00-.31.53c0 .2.14.28.31.18a.68.68 0 00.31-.53z"/><path class="cls-27" d="M54.46 77.77l-.61 33.3c-.34 0-1.49 1.4-5.4-.42-4.38-2-6.73-3.42-16.87-9.4-5.88-3.46-8.18-4.91-10.83-6.67-1.51-1-2.85-2.3-2.85-4.12v-2.95l.82-.38V75.52s.1-4.57.51-9.06c.64-6.9 1.11-8.39 1.25-8.39l19.81 11.47z"/><path d="M72.75 64.13l-.41.31-17.88 13.33-14.17-8.21-19.82-11.49a13.26 13.26 0 014.8-4.84l12.55-7.33 1.74-1a5.45 5.45 0 015.43 0l27.56 15.95a1.94 1.94 0 01.86 1 2 2 0 01-.66 2.28z" fill="url(#linear-gradient)"/><path class="cls-15" d="M47.58 92.38a2.54 2.54 0 01-1.26-.38l-25.1-14.5a3.11 3.11 0 01-1.54-3s0-3.05.43-7.39c.39-3.9.73-6.1.73-6.12a2.16 2.16 0 013.23-1.63l2.53 1.47 10 5.8 12.12 7 1.07.61a3.29 3.29 0 011.69 3.45 55.86 55.86 0 00-.93 6.55c-.31 3.13-.46 5.86-.47 5.89a2.54 2.54 0 01-2.5 2.25z"/><path class="cls-29" d="M50.11 90.08a2.54 2.54 0 01-2.53 2.3 2.48 2.48 0 01-.49-.05 2.57 2.57 0 01-.77-.29L21.22 77.5a3 3 0 01-1.55-2.94l-.07 1.25a3.11 3.11 0 001.54 3l25.1 14.54a2.53 2.53 0 003.79-2s0-.42.08-1.38z"/><path d="M51 77.5a54.34 54.34 0 00-.95 6.64c-.31 3.18-.46 5.91-.46 5.91a2 2 0 01-3 1.56L21.47 77.07a2.59 2.59 0 01-1.29-2.52s0-3 .42-7.39c.4-3.94.73-6.1.73-6.1a1.65 1.65 0 011.54-1.49 1.63 1.63 0 01.95.21c2.32 1.35 6.19 3.6 9.62 5.57l2.94 1.7 13.18 7.57A2.78 2.78 0 0151 77.5z" fill="#6d849c"/><path d="M33.44 65.35l-10.59 9.18a.64.64 0 01-1.06-.53 43.52 43.52 0 01.15-8 55.92 55.92 0 01.76-5.75 3 3 0 01.17-.65 1.63 1.63 0 01.95.21c2.32 1.32 6.18 3.57 9.62 5.54z" fill="#7d97b2"/><path class="cls-32" d="M49.82 87.25c-.24 3.16-.2 2.81-.2 2.81a2 2 0 01-3 1.56L21.47 77.07a2.59 2.59 0 01-1.29-2.52v-.93l11.31 5.72c1 .61 5 .57 5.92 1.09z"/><path class="cls-32" d="M47.43 91.11l-25.1-14.54A2.61 2.61 0 0121 74.05s0-3 .43-7.4c.39-3.94.73-6.09.73-6.09a1.64 1.64 0 01.44-1 1.66 1.66 0 00-1.3 1.46s-.34 2.16-.73 6.1c-.44 4.38-.42 7.39-.42 7.39a2.61 2.61 0 001.29 2.52l25.1 14.54a2 2 0 002.46-.28 2 2 0 01-1.57-.18z"/><path d="M21.17 62.28c.11-.8.17-1.21.17-1.21a1.66 1.66 0 012.49-1.28c3 1.75 8.69 5 12.56 7.27l13.18 7.57A2.78 2.78 0 0151 77.5s-.09.36-.22 1.13z" style="mix-blend-mode:multiply" fill="#6d849c"/><path class="cls-34" d="M62.81 102.64C63 99.08 65.5 94.31 69 92.31a14.59 14.59 0 013.37-1.41c.92-.19 1.19 0 1.19-.58V62.7a2 2 0 01-.12.53.87.87 0 01-.15.31l-16.76 9.71c-3.27 1.61-3.84 3.36-3.88 3.65a62.39 62.39 0 00-.89 7.81 94.28 94.28 0 00-.19 9.9l-.05 14.51a2 2 0 003 1.72l7.94-4.62.35-3.58z"/><path class="cls-15" d="M53.9 93.27a1.16 1.16 0 01-.84-.37 1.13 1.13 0 01-.3-.85 42.85 42.85 0 01.15-8c.3-3.15.48-4.15.68-5.32l.08-.47a2.69 2.69 0 01.67-1.47c.67-.69 12-7.72 12-7.72a1.9 1.9 0 012.85 1.65v7.84a4 4 0 01-1.39 3L54.65 93a1.14 1.14 0 01-.75.27z"/><path class="cls-29" d="M69.22 78.52a4 4 0 01-1.39 3L54.65 93a1.14 1.14 0 01-.74.28 1.16 1.16 0 01-.84-.37l-.25-.43a3.51 3.51 0 00.33 1.52 1.46 1.46 0 001.07.45 1.14 1.14 0 00.74-.28l13.18-11.39a2.6 2.6 0 001.1-2.42z"/><path d="M54.17 78.3a2.17 2.17 0 01.53-1.2c.69-.71 11.93-7.63 11.93-7.63a1.4 1.4 0 012.1 1.22v7.84a3.53 3.53 0 01-1.22 2.67L54.32 92.61a.64.64 0 01-1.06-.53 43.67 43.67 0 01.15-8 57.09 57.09 0 01.76-5.78z" fill="#8ba8c7"/><path d="M67.29 69.28a1.38 1.38 0 01.71 1.19v7.84A3.53 3.53 0 0166.74 81L53.55 92.4a.65.65 0 01-.16.1.64.64 0 00.93.11L67.5 81.18a3.53 3.53 0 001.22-2.67v-7.83a1.4 1.4 0 00-1.43-1.4z" fill="#5c7a99"/><path class="cls-32" d="M44.7 88.86a3.34 3.34 0 01-1.63-.5 6.21 6.21 0 01-3-4.81 1.88 1.88 0 011.89-2.1 3.34 3.34 0 011.63.5 6.22 6.22 0 013 4.81 1.88 1.88 0 01-1.89 2.1zm-2.77-6.41c-.74 0-.89.6-.89 1.1a5.29 5.29 0 002.52 3.94 2.35 2.35 0 001.13.36c.73 0 .89-.6.89-1.1a5.29 5.29 0 00-2.52-3.94 2.36 2.36 0 00-1.12-.35z"/><path class="cls-37" d="M34.16 83.3c.15-.09.47.09.47.09l10.46 6a2 2 0 01.51.39 2.11 2.11 0 01.11.52L34 83.6s0-.23.16-.3z"/><path class="cls-38" d="M37.9 85.43l2.49 1.42c.9.9 1.8 1.76 2.7 2.61l.68.63a3 3 0 01.4.26l.34.32c.23.21.45.43.66.66s.46.41.52.79a.18.18 0 01-.15.21h-.05c-.38-.06-.55-.33-.79-.52s-.45-.43-.66-.65l-.32-.34a3 3 0 01-.26-.4l-.64-.68q-1.27-1.35-2.6-2.66l-2.46-1.39a.15.15 0 01.14-.25z"/><path class="cls-37" d="M21.88 76.38c.14-.08.47.1.47.1l10.54 6a2 2 0 01.46.38 2 2 0 01.11.51l-11.68-6.66s-.02-.26.1-.33z"/><path class="cls-38" d="M25.66 78.53c.82.49 1.66.94 2.49 1.42.92.86 1.8 1.7 2.7 2.52l.68.62a2.88 2.88 0 01.4.25l.34.31c.23.2.45.41.66.64s.46.4.52.77a.18.18 0 01-.15.21h-.05c-.38 0-.54-.31-.79-.5s-.45-.42-.66-.64l-.32-.33a2.9 2.9 0 01-.26-.39l-.64-.65c-.85-.88-1.72-1.73-2.6-2.58-.8-.45-1.62-.94-2.46-1.39a.15.15 0 01-.06-.2.15.15 0 01.2-.06z"/><path class="cls-29" d="M20.41 91.36a1 1 0 01.15-.57c-.44 0-.74.27-.74.85A2.66 2.66 0 0021 93.72c.46.26.85.19 1.05-.12a1.16 1.16 0 01-.46-.16 2.66 2.66 0 01-1.18-2.08z"/><path class="cls-39" d="M21 90.95a1.15 1.15 0 00-.46-.16 1 1 0 00-.15.57 2.66 2.66 0 001.2 2.08 1.16 1.16 0 00.46.16 1 1 0 00.15-.57 2.66 2.66 0 00-1.2-2.08z"/><path class="cls-40" d="M21 90.95a1.16 1.16 0 00-.46-.16.93.93 0 00-.12.29 1.16 1.16 0 01.42.15 2.66 2.66 0 011.2 2.08 1.21 1.21 0 010 .28.79.79 0 00.19-.57A2.66 2.66 0 0021 90.95z"/><path class="cls-29" d="M47.12 106.79a1 1 0 01.15-.57c-.44 0-.74.27-.74.85a2.66 2.66 0 001.2 2.08c.46.26.85.19 1.05-.12a1.16 1.16 0 01-.46-.16 2.66 2.66 0 01-1.2-2.08z"/><path class="cls-39" d="M47.73 106.38a1.16 1.16 0 00-.46-.16 1 1 0 00-.15.57 2.66 2.66 0 001.2 2.08 1.16 1.16 0 00.46.16 1 1 0 00.15-.57 2.66 2.66 0 00-1.2-2.08z"/><path class="cls-40" d="M47.73 106.38a1.16 1.16 0 00-.46-.16.93.93 0 00-.12.29 1.17 1.17 0 01.42.15 2.66 2.66 0 011.2 2.08 1.21 1.21 0 010 .28.79.79 0 00.19-.56 2.66 2.66 0 00-1.23-2.08z"/><path class="cls-34" d="M74.39 90.67a1.51 1.51 0 01-.22 1.21c-.16.29-2.51.61-5.17 2.45-4.37 3-5.54 9.45-6.57 11.88A17.52 17.52 0 0164.07 98l4.18-5.1z"/><path class="cls-29" d="M74.32 91.05c-1.46.76-9.25 1.25-11.8 13.69 0 0-.36-7.12 5-11.47a25.87 25.87 0 016-3.39s1.35.88.8 1.17z"/><path class="cls-13" d="M69 90.5l-1.79 1c-.23.13-.42.05-.42-.18v-.91a.87.87 0 01.42-.66l1.79-1c.23-.13.42-.05.42.18v.91a.87.87 0 01-.42.66z"/><path d="M68.89 90.45l-1.52.88c-.2.11-.35 0-.35-.15v-.78a.74.74 0 01.35-.56l1.52-.84c.2-.11.36 0 .36.15v.77a.74.74 0 01-.36.53z" fill="#12171c"/><path class="cls-15" d="M68.89 89h-.07v.74a.74.74 0 01-.35.56l-1.47.85c0 .23.16.29.35.18l1.52-.88a.74.74 0 00.36-.56v-.77c.02-.2-.14-.26-.34-.12z"/><path class="cls-13" d="M68.57 89.38a.32.32 0 01-.16.28l-.8.46a.17.17 0 01-.26-.15v-.2l1.22-.71z"/><g class="cls-1"><path class="cls-27" d="M42.68 36.79a147.07 147.07 0 00-12.27 10.44c-4.45 4.32-6 6.86-6.21 7.49a.4.4 0 010-.09.94.94 0 00-.13.43 1.56 1.56 0 00.29 1 3.46 3.46 0 001.19 1.1c0-.27.36-5.31 19.67-20.14a2.42 2.42 0 00-2.54-.23z"/><path class="cls-34" d="M72.34 49.24C53 64.07 49.27 69.31 49.27 70.32l3.31 2.37c0-.27.44-5.05 19.76-19.88z"/><path d="M45.77 33.89c-19.32 14.83-20.2 23-20.22 23.23l26.38 15.27c0-.27 1.1-8.32 20.42-23.15z" fill="url(#linear-gradient-2)"/><path class="cls-29" d="M72.34 52.82C53 67.64 52.15 72 52.13 72.31a2.67 2.67 0 001.37.38 1.8 1.8 0 001.39-.63c.11-.17 1.79-4.52 18.11-17.21a1.71 1.71 0 00-.66-2.03z"/><path class="cls-27" d="M54.81 72.36c0 .14 0 .13.08 0z"/><path class="cls-34" d="M73.12 54.35a1.08 1.08 0 01-.12.5c-14 10.86-17.2 14-17.91 14.51-1.78 1.33-2.29.72-2.29.72l-.88 2.31a2.9 2.9 0 002.53.3l18-10.38a1.42 1.42 0 00.71-1.24q-.03-3.35-.04-6.72z"/></g><path class="cls-43" d="M46 103.35c0-10 0-10 .11-10.09a2.73 2.73 0 00.85-1l.3.06a3.6 3.6 0 01-1 1.08c-.06.59-.06 6.18 0 9.91zM23.9 90.37h-.25l.24-9.83c-.58-.48-.38-1.64-.37-1.7l.24.14a1.69 1.69 0 00.33 1.4.14.14 0 01.05.11z"/><path class="cls-29" d="M17.89 87.51s7.44 4.67 15.58 9.38c10.37 6 17.22 9.57 17.22 9.57a1 1 0 00.86.12s9.74-5.27 10.14-5.47c.09 0-7.86 4-9.72 4.69a1 1 0 01-.89-.07s-7.33-3.86-16.87-9.37C26.17 91.72 18.71 87 18.71 87z"/><path class="cls-15" d="M44.31 99.57L25.4 88.65v-.26c0-1.1.89-1.48 2-.84l14.93 8.62a4.13 4.13 0 012 3.14z"/><path class="cls-25" d="M26.35 87.63l16.78 9.58A2.24 2.24 0 0144 98a4.38 4.38 0 00-1.65-1.84l-14.96-8.61a1.45 1.45 0 00-1.57-.13 1.75 1.75 0 01.53.21zm17.89 11.14a5.14 5.14 0 01.07.79v-.26a2.49 2.49 0 00-.07-.53z"/><path class="cls-15" d="M44.31 100.82L25.4 89.9v.21c0 .64.89 1.68 2 2.31L42.32 101c1.1.63 2 .63 2 0z"/><path class="cls-25" d="M25.4 89.9v.21a1 1 0 00.05.29l18.81 10.86a.49.49 0 00.05-.23v-.21z"/><path class="cls-27" d="M52.36 111v-4.7c0-.05-.06-.12-.12-.18a.53.53 0 01-.2-.37V92.83a107.88 107.88 0 011.08-14.45c.2-1.66.92-2.52 1.52-2.77l12.15-7.55a2.2 2.2 0 012.26 0 2.7 2.7 0 011.41 2.07v21.24l.78.75a.13.13 0 010 .08l.06.84-.25.13-.05-.9-.79-.75a.12.12 0 010-.09V70.14a2.43 2.43 0 00-1.28-1.85 2 2 0 00-2 0l-12.21 7.54c-.55.24-1.2 1-1.39 2.59a107.71 107.71 0 00-1.08 14.42v12.91c0 .06 0 .11.13.19a.51.51 0 01.2.36v4.7z"/><path class="cls-15" d="M30 98.71l-3.14-1.36A4.12 4.12 0 0124.91 94l.12-.4 5 2.86z"/><path class="cls-25" d="M29.99 96.83l-5.08-2.87.12-.4 4.96 2.86v.41z"/><path class="cls-15" d="M38.51 104.09l3.07 1.84c1.22.7 2.25.42 2.25-.8v-.72l-5-2.86z"/><path class="cls-25" d="M38.8 101.94l5.03 2.91v-.44l-4.96-2.86-.07.39z"/><path class="cls-29" d="M27.24 97.12A4.57 4.57 0 0125 93.65v-.09l-.5-.29V94a4.57 4.57 0 002.2 3.48l3.3 1.86v-.63zm11.13 7.07l3.25 1.88c.85.49 1.57.43 1.94-.06a1.88 1.88 0 01-1.44-.28l-3.25-1.88z"/><path class="cls-34" d="M38.87 103.84v-2.29l-.5-.29v2.93l.5-.35z"/><path class="cls-44" d="M37.11 103.14L31.39 100l.14-2.69 5.58 3.22v2.61z"/><path class="cls-40" d="M37.11 100.93l-5.58-3.25v-.37l5.58 3.22v.4z"/><path class="cls-29" d="M31.25 100.08l5.86 3.38v-.32l-5.58-3.22-.28.16z"/><path class="cls-34" d="M31.53 99.92v-2.61l-.28-.16v2.93l.28-.16z"/><path class="cls-25" d="M54.1 96.21a1.88 1.88 0 01-.95-.26L51.57 95a.38.38 0 01.37-.65l1.58.91a1.14 1.14 0 001.71-1V89a.37.37 0 11.77 0v5.3a1.9 1.9 0 01-1.89 1.89z"/><g class="cls-1"><path class="cls-13" d="M57.37 85.73l-2.05-1.19a.38.38 0 00-.39 0l-.72.42a.38.38 0 01.39 0l2.05 1.19a1.19 1.19 0 01.54.93v5.47a.38.38 0 01-.16.35l.72-.42a.38.38 0 00.16-.35v-5.47a1.19 1.19 0 00-.54-.93z"/><path class="cls-15" d="M56.65 86.15L54.6 85c-.3-.17-.54 0-.54.31v5.47a1.19 1.19 0 00.54.93l2.05 1.19c.3.17.54 0 .54-.31v-5.47a1.19 1.19 0 00-.54-.97z"/></g><path class="cls-25" d="M51.71 95.89a.38.38 0 01-.37-.37v-1.8a.37.37 0 01.75 0v1.79a.38.38 0 01-.38.38z"/><path class="cls-44" d="M23.18 84.43v2.33l-.07 3-4.4-2.76v-8.42l2.88 2.67a4.7 4.7 0 011.59 3.18z"/><path class="cls-40" d="M19.32 86.79v-7.65l-.61-.56v8.46l4.33 2.67.02-.61-3.74-2.31z"/><path class="cls-39" d="M22.08 82.8c0 .56-.45.75-1 .43a2.1 2.1 0 01-1-1.6c0-.56.45-.75 1-.43a2.1 2.1 0 011 1.6zM21 86.66c0 .43-.35.57-.77.33a1.61 1.61 0 01-.77-1.22c0-.43.35-.57.77-.33a1.61 1.61 0 01.77 1.22zm1.91 1.14c0 .43-.35.57-.77.33a1.61 1.61 0 01-.77-1.22c0-.43.35-.57.77-.33a1.61 1.61 0 01.77 1.22z"/><path class="cls-40" d="M23.18 84.43v2s-2-1-3.52-2a2.28 2.28 0 01-.91-1.07v-2.07a3.86 3.86 0 001.36 1.62 24.9 24.9 0 003.07 1.52z"/><path d="M23.16 84.76v2s-2-1-3.52-2a2.28 2.28 0 01-.91-1.07v-2.07a3.86 3.86 0 001.36 1.62 24.89 24.89 0 003.07 1.52z" fill="#fa0"/><path class="cls-46" d="M19.78 87.07l-.71-.42v-7.73l.71.64v7.51zm.56.36l-.24-.14.01-7.42.3.29-.07 7.27z"/><path class="cls-43" d="M23.16 89.79l-.25-.16.09-5.2a4.59 4.59 0 00-1.54-3.08l-2.8-2.6v-.32l3 2.73a4.79 4.79 0 011.62 3.27l-.06 2.29z"/><path class="cls-44" d="M51.5 97.48V106l-4.38-2.41v-5.37c0-1 .6-1.43 1.58-1.36z"/><path class="cls-40" d="M47.74 103.24v-5.37a1.41 1.41 0 01.26-.93 1.16 1.16 0 00-1 1.32v5.37l4.5 2.37v-.71z"/><path class="cls-39" d="M50.29 99.07c0 .56-.45.75-1 .43a2.1 2.1 0 01-1-1.6c0-.56.45-.75 1-.43a2.1 2.1 0 011 1.6zm-.85 4.07c0 .43-.35.57-.77.33a1.61 1.61 0 01-.77-1.22c0-.43.35-.57.77-.33a1.61 1.61 0 01.77 1.22zm1.93.86c0 .43-.35.57-.77.33a1.61 1.61 0 01-.77-1.22c0-.43.35-.57.77-.33a1.61 1.61 0 01.77 1.22z"/><path class="cls-40" d="M51.5 100.21v2a5.67 5.67 0 01-2.86-.83 7 7 0 01-1.56-1v-2a8.39 8.39 0 002 1.36 4.22 4.22 0 002.42.47z"/><path d="M51.51 100.52v2a5.67 5.67 0 01-2.86-.83 7 7 0 01-1.56-1v-2a8.39 8.39 0 002 1.36 4.22 4.22 0 002.42.47z" fill="url(#linear-gradient-3)"/><path class="cls-46" d="M50.82 104.94l-.7-.39V97.2l.7.14v7.6zm-1.19-.66l-.2-.09-.03-7.14.23.04v7.19z"/><path class="cls-43" d="M47 103.53l-.06-5.27a1.45 1.45 0 01.39-1.13 1.69 1.69 0 011.32-.36l2.92.53v.32L48.6 97a1.45 1.45 0 00-1.12.29 1.21 1.21 0 00-.31.94v.37l.09 5.06z"/></g></g></g></g></svg>