<svg xmlns="http://www.w3.org/2000/svg" viewBox="0 0 20.98 44.84"><defs><linearGradient id="linear-gradient" x1="637.97" y1="-11.12" x2="637.97" y2="-14.44" gradientTransform="rotate(-.4 3135.18 90380.014)" gradientUnits="userSpaceOnUse"><stop offset=".13" stop-color="#fcd1a9"/><stop offset=".56" stop-color="#f2b98c"/></linearGradient><linearGradient id="linear-gradient-2" x1="614.07" y1="-6.3" x2="614.62" y2="-12.31" gradientTransform="rotate(.24 -2857.363 -144632.86)" gradientUnits="userSpaceOnUse"><stop offset="0" stop-color="#f2b98c"/><stop offset=".41" stop-color="#f7c69b"/><stop offset=".91" stop-color="#fcd1a9"/></linearGradient><style>.cls-3{fill:#f5c59a}.cls-5{fill:#3a4a5d}.cls-6{fill:#ff624d}.cls-8{fill:#25303b}.cls-14{fill:#9c7750}.cls-16{fill:#de4d3a}</style></defs><g style="isolation:isolate"><g id="Слой_2" data-name="Слой 2"><g id="_лой_1" data-name="—лой_1"><g id="male_back_with_box" data-name="male back with box"><path d="M17.85 37c-.85 1.59-3.56 2.68-6 3.5-3.48 1.15.85 1.13-1 3-1.41 1.37-4.95 1.7-5.92 1-.78-.59.64-4.42 3.4-4.94 2.56-.48 3.55-3.27 4.92-3.83 1.85-.84 6.02-1.35 4.6 1.27z" style="mix-blend-mode:multiply" fill="#e4ecf5"/><path class="cls-3" d="M6.92 16.14a5.39 5.39 0 002.17.42c.13 0 .14-.13.26-.16s.38 0 .48-.07.11-.17.15-.24.11-.05.12-.09a.52.52 0 000-.27s-.1-.12-.11-.16a.32.32 0 00-.15-.26 1.83 1.83 0 00-.49-.25C9 15 8.32 14.85 8 14.79a.88.88 0 00-1 .58c-.24.37-.22.71-.08.77z"/><path class="cls-3" d="M8.07 14.95a2.21 2.21 0 01.48-.13 2.14 2.14 0 00.33 0 .32.32 0 00.24-.13c.05-.07.08-.21-.06-.2a6.21 6.21 0 01-.73-.11 1.82 1.82 0 00-1 .52c.03.1.46.1.74.05z"/><path class="cls-3" d="M7.39 14.82l-4.52-1.28c.65-1.34 2-4.18 2.34-5.19a1.52 1.52 0 00-.86-2.08C3.32 6 2.8 7 2.6 7.44A62.53 62.53 0 000 14c-.26.93 1.14 1.53 1.4 1.59a52.1 52.1 0 005.6.59s.5-.14.59-.52a.81.81 0 00-.2-.84z"/><path d="M4.45 10.41a22.37 22.37 0 00.84-2.09c.18-.57.31-1.83-.84-2.16S2.71 7 2.5 7.42 2 8.71 1.71 9.29a3.65 3.65 0 001 .68c1.37.57 1.74.44 1.74.44z" fill="#ba3e2f"/><path class="cls-3" d="M12.28 38.12a1.43 1.43 0 00.93.06c.54-.15.66-.3 1-.36a12.85 12.85 0 001.35-.39c.33-.11.82-.27.92-.72s-.32-.48-.73-.52a7.85 7.85 0 01-1.06 0 4.57 4.57 0 01-.64-.07c-.15 0-.1-.55-.1-.55-.9-.72-1.67-.33-1.68.08-.04.93-.87 2.02.01 2.47z"/><path class="cls-5" d="M12.09 38.29a1.43 1.43 0 00.92.11c.54-.12.67-.27 1-.31s1.33-.22 1.55-.29a1.45 1.45 0 00.9-.8c.3-.69-.17-.78-.58-.85a5.25 5.25 0 00-1 .08 2 2 0 01-.89-.15c-.16 0-.37.65-.37.65-.15.35-.92.53-1.18.22s-.39-.58-.49-.31c-.19.69-.46 1.3.14 1.65z"/><path class="cls-6" d="M16.51 36.3c-.1-.24-.38-.23-.66-.23a6.81 6.81 0 01-.85 0 5.88 5.88 0 01-.87-.17c-.16 0-.35.58-.35.58a.44.44 0 01-.1.13.79.79 0 01-.24.15 1.09 1.09 0 01-.29.08.9.9 0 01-.31 0 .49.49 0 01-.25-.14c-.17-.21-.39-.58-.49-.31l-.14.37a3.45 3.45 0 00-.11.35c0 .19-.05.27 0 .34a1.53 1.53 0 00.35.23 1.25 1.25 0 00.87.15c.12 0 .24.26.33.23a3.75 3.75 0 01.72-.23c.2 0 .31 0 .5-.07l.24-.05c.43-.1.52-.48.59-.49a1.58 1.58 0 00.81-.38.65.65 0 00.26-.43z"/><path d="M5.91 44.12a1.43 1.43 0 00.92.12c.54-.12.67-.26 1-.3s1.33-.21 1.55-.27a1.13 1.13 0 00.77-.58.85.85 0 00-.54-1.21c-.24 0-.54.2-.86.23s-.58.24-.92.14c-.14 0 0-.56 0-.56-.85-.78-1.74-.4-1.77 0-.06 1.13-1 1.92-.15 2.43z" fill="#fcd1a9"/><path class="cls-5" d="M5.82 44.4a1.43 1.43 0 00.92.12c.54-.12.67-.26 1-.3S9.1 44 9.32 44a1.45 1.45 0 00.91-.78c.3-.69-.27-.95-.67-1-.24 0-.54.2-.86.23a2 2 0 01-.88-.16c-.16 0-.38.65-.38.65-.16.35-.93.52-1.19.2s-.39-.58-.49-.32c-.26.61-.55 1.18.06 1.58z"/><path class="cls-6" d="M10.26 42.47a.82.82 0 00-.61-.59c-.24 0-.54.2-.86.23a2 2 0 01-.88-.16c-.16 0-.38.65-.38.65a.44.44 0 01-.1.13.79.79 0 01-.24.15 1.08 1.08 0 01-.3.08.9.9 0 01-.31 0 .49.49 0 01-.24-.14 2 2 0 00-.34-.41h-.06s-.07 0-.1.09a6.73 6.73 0 00-.25.72c-.09.37 0 .34.35.57a1.25 1.25 0 00.86.16c.12 0 .24.26.32.24a3.75 3.75 0 01.73-.22 5.06 5.06 0 00.74-.11c.43-.1.53-.47.6-.48a1.55 1.55 0 00.54-.19A1.84 1.84 0 0010 43a.93.93 0 00.2-.23.35.35 0 00.07-.2z"/><path class="cls-8" d="M14.09 28.39c0-.54.06-1.26.07-1.65a1.48 1.48 0 000-.26 3.8 3.8 0 00-1.07-2L7 19.21a18.2 18.2 0 00-1.83 1.44 2.43 2.43 0 00-.33 2.87 17.14 17.14 0 001.93 1.32l4.41 2.39a4.76 4.76 0 00-.26 1.34c.11 1.63.88 4.92.84 7 0 1.14.27 1.48.73 1.56 1.07.18 2.9-.68 2.78-1.11a31.33 31.33 0 01-1.18-7.63z"/><path class="cls-5" d="M11.18 22.07s-.12-.55-.61-.56a6.16 6.16 0 00-4.37 1.54s.7 6.54.92 8.81a11.13 11.13 0 00-.56 1.8c-.26 1.61-.68 7-.94 8.66-.08.52-.29.93 1.17.92.45 0 2-.68 2-1.13A62.47 62.47 0 019.62 34c.18-.8.41-2.31.41-2.31a3.4 3.4 0 00.08-.43s.72-4 1-5.7c.1-.86.07-3.49.07-3.49z"/><path fill="#debd9b" d="M15.31 18.65l-9.68-5.83.05-2.54 9.68 5.83-.05 2.54z"/><path fill="#f0ddca" d="M5.68 10.28l9.68 5.83L20.98 13 11.3 7.17l-5.62 3.11z"/><path fill="#f0d6bb" d="M15.31 18.65l.05-2.54L20.98 13l-.05 2.54-5.62 3.11z"/><path fill="#f0c184" d="M8.15 8.91l9.68 5.83 1.12-.61L9.27 8.3l-1.12.61z"/><path fill="#e3b77d" d="M17.79 17.28l.04-2.54 1.12-.61-.04 2.53-1.12.62z"/><path class="cls-14" d="M7.62 12l-1.26-.76h-.1v1.27a.21.21 0 00.1.16l1.26.76h.1v-1.27a.21.21 0 00-.1-.16zm0 1.39l-1.28-.75v-1.31l1.28.75v1.32z"/><path class="cls-14" d="M7.44 12.17l-.63-.38v.14h-.09v.1l-.1-.13.06-.06-.06-.16-.15-.09a.94.94 0 00.4.7v.43c-.12-.06-.21-.08-.21 0l.51.31s-.09-.14-.21-.22v-.43c.29.11.47.02.48-.21zm1.93.89l-1.26-.76h-.1v1.27a.21.21 0 00.1.16l1.26.76h.1v-1.27a.21.21 0 00-.1-.16zm0 1.39l-1.28-.75v-1.31l1.28.75-.01 1.31z"/><path class="cls-14" d="M8.77 12.92c-.28-.17-.51-.08-.52.21a.31.31 0 00.1 0 .22.22 0 01.11.07l.07.07h.06a.23.23 0 01.11.07l.05.06h.06a.23.23 0 01.11.07l.06.06h.06a.23.23 0 01.12.07l.05.06a.92.92 0 00-.44-.74z"/><path class="cls-14" d="M8.9 14.05h-.07a.16.16 0 01-.08-.13v-1 1a.08.08 0 000 .05h.06v-.06.1zm2.21.06l-1.26-.76h-.1v1.27a.21.21 0 00.1.16l1.26.76h.1v-1.27a.21.21 0 00-.1-.16zm0 1.39l-1.28-.75v-1.31l1.28.75v1.31z"/><path class="cls-14" d="M10.95 15.31l-.99-.6v-.19l1 .6-.01.19zm-.67-.68l-.14-.08.01-.64.14.08-.01.64z"/><path class="cls-14" d="M10.22 14.07l.18.1-.09-.21-.08-.2-.1.1-.09.1.18.11zm.56.86l-.14-.08.01-.64.14.08-.01.64z"/><path class="cls-14" d="M10.72 14.37l.17.1-.08-.21-.09-.2-.09.1-.09.1.18.11z"/><path d="M20.64 14.87l-1.4.77c-.07 0-.12 0-.12-.05v-.75a.25.25 0 01.12-.18l1.4-.77c.07 0 .12 0 .12.05v.75a.25.25 0 01-.12.18z" fill="#fff"/><path class="cls-5" d="M19.39 15.47l-.07.04.01-.79.08-.04-.02.79zm.16-.24l-.08.04.01-.64.08-.04-.01.64zm.14-.08l-.07.04.01-.64.07-.04-.01.64zm.15-.09l-.07.05.01-.64.07-.04-.01.63zm.15.08l-.08.04.02-.79.07-.04-.01.79zm.15-.24l-.08.04.01-.63.08-.04-.01.63zm.15-.08l-.08.04.01-.64.08-.04-.01.64zm.14-.08l-.07.04.01-.64.08-.04-.02.64zm.15.07l-.07.05.01-.8.07-.04-.01.79z"/><path class="cls-8" d="M7.22 19.52l-3.09-.45s-.24 1.48-.26 1.68a4 4 0 00.5 2.25c.54.77 1 1 1.75.27a6.73 6.73 0 011.1-3.75z"/><path class="cls-5" d="M11.25 21a3.23 3.23 0 00-.08-.67l-4.8-.83c-.45 1.94-.62 3.72.12 4.4a3.59 3.59 0 002 .73c.7 0 1.29-.5 2.37-1.75a2 2 0 00.36-.63c-.03-.15.03-.81.03-1.25z"/><path class="cls-6" d="M11.25 12.65a55 55 0 000 8.35A2.3 2.3 0 0110 22.06a9.31 9.31 0 01-3.8.08 4.21 4.21 0 01-1.71-.69 1.3 1.3 0 01-.61-1.14 27.82 27.82 0 00-.13-4.87c-.07-.31-.87-3.48-1-4.31a10.55 10.55 0 01-.08-3.49c.16-.74 1.08-1.58 1.77-1.47a5.38 5.38 0 01.56.18c.78.32 2.28.95 2.86 1.28.15.09.38.24.63.42.61.43 2.37 1.76 2.37 1.76.44.41.36 1 .45 2 0-.03-.03-.05-.06.84z"/><path class="cls-5" d="M11.35 14.32a61.26 61.26 0 00-.1 6.68 2.26 2.26 0 01-1.15 1.19 10.15 10.15 0 01-3.9.21 3.93 3.93 0 01-1.66-.85c-.47-.33-.69-.52-.7-1a29.94 29.94 0 00-.07-5.14c-.06-.28-.86-3.13-.77-3.41a6 6 0 00.36-1.54S3 7.37 4.77 6.3c.16-.1.84.31.84.31-1.79 1.28-1.21 3.33-.91 3.46.12 0 1.37.5 1.88.65a.49.49 0 00.57-.23 4.16 4.16 0 011.95-2l.75.56C7.54 10.55 8 11.87 8 11.87c.16 3.48 3.38 1.56 3.35 2.45z"/><path class="cls-3" d="M19.48 16.56c.15-.13.07-.39-.11-.34s-.49.31-.64.34-.49.13-.5.08.46-.15.56-.21.32-.1.38-.18.13-.19 0-.27-.41 0-.64.12a2.19 2.19 0 01-1 0c.06-.08.13-.17.21-.17a2.34 2.34 0 00.36 0 .34.34 0 00.27-.13c.06-.08.09-.15-.07-.15a5.47 5.47 0 01-.7-.11 2 2 0 00-1.05.53h.05a1.17 1.17 0 00-.27.16l-4.76-.55c0-1 .11-2.94.16-3.94.09-1.66-1-2.09-1.38-2.08-1.1 0-1.41 1.48-1.44 1.93a19.47 19.47 0 00.28 5.23A1.81 1.81 0 0010.6 18a40.67 40.67 0 005.72-.35 2.21 2.21 0 00.38.18 3.3 3.3 0 001.24.11 4.17 4.17 0 00.73-.1 2.36 2.36 0 00.34-.18.13.13 0 00-.05-.23c-.1 0-.26.14-.32.15s-.42.07-.35 0 .38-.09.54-.15a2.39 2.39 0 00.54-.3c.14-.12.06-.33-.1-.28s-.38.21-.48.24-.55.13-.5.06.4-.08.56-.16a3.63 3.63 0 00.63-.43z"/><path class="cls-16" d="M11.79 13.09v-1.45c.09-1.66-1-2.08-1.45-2.07-1.1 0-1.47 1.5-1.5 2s-.12 1-.12 1.45a3.08 3.08 0 001.21.25 8.27 8.27 0 001.86-.18z"/><path d="M5.75 5.26v2.61a.61.61 0 00.36.5 1.93 1.93 0 001.75 0 .61.61 0 00.36-.51V5.25z" fill="url(#linear-gradient)"/><path d="M9.76 3.3a3.18 3.18 0 00-.16-2.24C9 .78 7.31 2.84 7.18 3.47a1.88 1.88 0 00.07 1.12c.05.15.53.67.69.91a2.6 2.6 0 01.21 1v.42a.48.48 0 00.48-.06 5 5 0 00.79-1.05 4.21 4.21 0 00.48-1.68 8 8 0 00-.14-.83z" fill="url(#linear-gradient-2)"/><path d="M8.68 4.37a1.53 1.53 0 00.25.51c.11.14.07.32.2.31.29 0 .14-.72.17-1s-.1-.65-.32-.46a.68.68 0 00-.3.64z" fill="#e8b07d"/><path class="cls-8" d="M9.6.91a2 2 0 00-.86-.64 2.79 2.79 0 00-2.59.09 5 5 0 00-1.3.91 3 3 0 00-.67 1.4 8 8 0 00-.06 1A3.84 3.84 0 004.44 5a3.18 3.18 0 00.56.92 3.86 3.86 0 00.43.42 1.83 1.83 0 001.2.6 1.55 1.55 0 001.57-.77 5.93 5.93 0 01.5-2.06 1 1 0 01.3-.45c.14-.08.2 0 .26.16a.58.58 0 00.26.18l.11.05v-.76a1.44 1.44 0 01.06-.89c.06-.19.13-.36.19-.57A1.54 1.54 0 009.6.91z"/><path class="cls-16" d="M8.72 8.21s-2.91 1.1-3.31-.37a.77.77 0 01.35-.89 1.05 1.05 0 00.93.67 3.94 3.94 0 001.55-.22z"/></g></g></g></g></svg>