<svg xmlns="http://www.w3.org/2000/svg" xmlns:xlink="http://www.w3.org/1999/xlink" viewBox="0 0 170.46 113.62"><defs><linearGradient id="Ѕезым_нный_градиент_2" x1="18.12" y1="-16783.02" x2="18.12" y2="-16783.02" gradientTransform="matrix(1 0 0 -1 0 -16720.95)" gradientUnits="userSpaceOnUse"><stop offset="0" stop-color="#ededed"/><stop offset="1" stop-color="#e6e6e6"/></linearGradient><linearGradient id="Ѕезым_нный_градиент_40-2" x1="67.38" y1="-16790.57" x2="61.44" y2="-16783.29" xlink:href="#Ѕезым_нный_градиент_40"/><linearGradient id="Ѕезым_нный_градиент_2-2" x1="57.87" y1="-16832.25" x2="118.95" y2="-16726.45" xlink:href="#Ѕезым_нный_градиент_2"/><linearGradient id="Ѕезым_нный_градиент_21" x1="93.23" y1="-16746.42" x2="97.42" y2="-16746.42" gradientTransform="matrix(1 0 0 -1 0 -16720.95)" gradientUnits="userSpaceOnUse"><stop offset=".16" stop-color="#a7aaac"/><stop offset=".16" stop-color="#bec2c5"/><stop offset=".56" stop-color="#bec2c5"/><stop offset=".56" stop-color="#dee3e7"/><stop offset=".87" stop-color="#dee3e7"/><stop offset=".87" stop-color="#d9dee2"/></linearGradient><linearGradient id="Ѕезым_нный_градиент_21-2" x1="115.73" y1="-16745.79" x2="122.14" y2="-16745.79" xlink:href="#Ѕезым_нный_градиент_21"/><linearGradient id="Ѕезым_нный_градиент_25" x1="115.37" y1="-16744.31" x2="122.5" y2="-16744.31" gradientTransform="matrix(1 0 0 -1 0 -16720.95)" gradientUnits="userSpaceOnUse"><stop offset=".16" stop-color="#bcc0c2"/><stop offset=".16" stop-color="#d3d7db"/><stop offset=".56" stop-color="#d3d7db"/><stop offset=".56" stop-color="#f3f8fd"/><stop offset=".87" stop-color="#f3f8fd"/><stop offset=".87" stop-color="#eef3f8"/></linearGradient><linearGradient id="Ѕезым_нный_градиент_21-3" x1="115.73" y1="-16741.77" x2="122.14" y2="-16741.77" xlink:href="#Ѕезым_нный_градиент_21"/><linearGradient id="Ѕезым_нный_градиент_25-2" x1="115.37" y1="-16738.97" x2="122.5" y2="-16738.97" xlink:href="#Ѕезым_нный_градиент_25"/><linearGradient id="Ѕезым_нный_градиент_21-4" x1="115.73" y1="-16737.51" x2="122.14" y2="-16737.51" xlink:href="#Ѕезым_нный_градиент_21"/><linearGradient id="Ѕезым_нный_градиент_21-5" x1="121" y1="-16792.63" x2="115.22" y2="-16782.63" xlink:href="#Ѕезым_нный_градиент_21"/><linearGradient id="Ѕезым_нный_градиент_35" x1="160.26" y1="-16758.69" x2="148.4" y2="-16779.23" gradientTransform="matrix(1 0 0 -1 0 -16720.95)" gradientUnits="userSpaceOnUse"><stop offset=".13" stop-color="#68737b"/><stop offset=".13" stop-color="#6c7880"/><stop offset=".44" stop-color="#6c7880"/><stop offset=".44" stop-color="#50585e"/><stop offset=".84" stop-color="#50585e"/><stop offset=".84" stop-color="#3b4145"/></linearGradient><linearGradient id="Ѕезым_нный_градиент_40" x1="161.54" y1="-16764.14" x2="153.74" y2="-16777.65" gradientTransform="matrix(1 0 0 -1 0 -16720.95)" gradientUnits="userSpaceOnUse"><stop offset=".13" stop-color="#dbe0e3"/><stop offset=".13" stop-color="#e0e5e8"/><stop offset=".44" stop-color="#e0e5e8"/><stop offset=".44" stop-color="#c0c4c6"/><stop offset=".84" stop-color="#c0c4c6"/><stop offset=".84" stop-color="#a8abad"/></linearGradient><linearGradient id="Ѕезым_нный_градиент_34" x1="161.45" y1="-16765.2" x2="154.48" y2="-16777.27" gradientTransform="matrix(1 0 0 -1 0 -16720.95)" gradientUnits="userSpaceOnUse"><stop offset=".16" stop-color="#797b7d"/><stop offset=".16" stop-color="#919496"/><stop offset=".56" stop-color="#919496"/><stop offset=".56" stop-color="#b1b5b8"/><stop offset=".87" stop-color="#b1b5b8"/><stop offset=".87" stop-color="#acb0b3"/></linearGradient><linearGradient id="Ѕезым_нный_градиент_16" x1="159.11" y1="-16765.93" x2="154.23" y2="-16774.37" gradientTransform="matrix(1 0 0 -1 0 -16720.95)" gradientUnits="userSpaceOnUse"><stop offset=".13" stop-color="#acb0b3"/><stop offset=".13" stop-color="#b1b5b8"/><stop offset=".44" stop-color="#b1b5b8"/><stop offset=".44" stop-color="#919496"/><stop offset=".84" stop-color="#919496"/><stop offset=".84" stop-color="#797b7d"/></linearGradient><linearGradient id="Ѕезым_нный_градиент_34-2" x1="158.66" y1="-16768.89" x2="156.44" y2="-16772.74" xlink:href="#Ѕезым_нный_градиент_34"/><linearGradient id="Ѕезым_нный_градиент_21-6" x1="137.55" y1="-16768.31" x2="143.96" y2="-16768.31" xlink:href="#Ѕезым_нный_градиент_21"/><linearGradient id="Ѕезым_нный_градиент_25-3" x1="137.19" y1="-16766.83" x2="144.32" y2="-16766.83" xlink:href="#Ѕезым_нный_градиент_25"/><linearGradient id="Ѕезым_нный_градиент_21-7" x1="137.55" y1="-16764.29" x2="143.96" y2="-16764.29" xlink:href="#Ѕезым_нный_градиент_21"/><linearGradient id="Ѕезым_нный_градиент_25-4" x1="137.19" y1="-16761.49" x2="144.32" y2="-16761.49" xlink:href="#Ѕезым_нный_градиент_25"/><linearGradient id="Ѕезым_нный_градиент_21-8" x1="137.55" y1="-16760.03" x2="143.96" y2="-16760.03" xlink:href="#Ѕезым_нный_градиент_21"/><linearGradient id="Ѕезым_нный_градиент_21-9" x1="122.19" y1="-16765" x2="126.37" y2="-16765" xlink:href="#Ѕезым_нный_градиент_21"/><linearGradient id="Ѕезым_нный_градиент_20" x1="160.27" y1="-16750.59" x2="162.6" y2="-16754.62" gradientTransform="matrix(1 0 0 -1 0 -16720.95)" gradientUnits="userSpaceOnUse"><stop offset=".13" stop-color="#d9dee2"/><stop offset=".13" stop-color="#dee3e7"/><stop offset=".44" stop-color="#dee3e7"/><stop offset=".44" stop-color="#bec2c5"/><stop offset=".84" stop-color="#bec2c5"/><stop offset=".84" stop-color="#a7aaac"/></linearGradient><linearGradient id="Ѕезым_нный_градиент_35-2" x1="61.35" y1="-16771.52" x2="49.5" y2="-16792.06" xlink:href="#Ѕезым_нный_градиент_35"/><linearGradient id="Ѕезым_нный_градиент_35-3" x1="67.03" y1="-16774.72" x2="55.17" y2="-16795.26" xlink:href="#Ѕезым_нный_градиент_35"/><linearGradient id="Ѕезым_нный_градиент_34-13" x1="76.65" y1="-16815.19" x2="74.43" y2="-16819.05" xlink:href="#Ѕезым_нный_градиент_34"/><linearGradient id="Ѕезым_нный_градиент_34-3" x1="68.22" y1="-16781.23" x2="61.25" y2="-16793.3" xlink:href="#Ѕезым_нный_градиент_34"/><linearGradient id="Ѕезым_нный_градиент_34-4" x1="65.87" y1="-16781.96" x2="61" y2="-16790.4" xlink:href="#Ѕезым_нный_градиент_34"/><linearGradient id="Ѕезым_нный_градиент_34-5" x1="65.43" y1="-16784.92" x2="63.2" y2="-16788.77" xlink:href="#Ѕезым_нный_градиент_34"/><linearGradient id="Ѕезым_нный_градиент_35-4" x1="40.95" y1="-16783.3" x2="29.09" y2="-16803.83" xlink:href="#Ѕезым_нный_градиент_35"/><linearGradient id="Ѕезым_нный_градиент_35-5" x1="46.62" y1="-16786.5" x2="34.77" y2="-16807.04" xlink:href="#Ѕезым_нный_градиент_35"/><linearGradient id="Ѕезым_нный_градиент_40-3" x1="46.98" y1="-16802.35" x2="41.04" y2="-16795.06" xlink:href="#Ѕезым_нный_градиент_40"/><linearGradient id="Ѕезым_нный_градиент_34-6" x1="47.81" y1="-16793.01" x2="40.85" y2="-16805.08" xlink:href="#Ѕезым_нный_градиент_34"/><linearGradient id="Ѕезым_нный_градиент_34-7" x1="45.47" y1="-16793.74" x2="40.6" y2="-16802.18" xlink:href="#Ѕезым_нный_градиент_34"/><linearGradient id="Ѕезым_нный_градиент_34-8" x1="45.03" y1="-16796.7" x2="42.8" y2="-16800.55" xlink:href="#Ѕезым_нный_градиент_34"/><linearGradient id="Ѕезым_нный_градиент_35-6" x1="92.98" y1="-16790.02" x2="81.13" y2="-16810.55" xlink:href="#Ѕезым_нный_градиент_35"/><linearGradient id="Ѕезым_нный_градиент_35-7" x1="98.66" y1="-16793.22" x2="86.8" y2="-16813.76" xlink:href="#Ѕезым_нный_градиент_35"/><linearGradient id="Ѕезым_нный_градиент_40-4" x1="99.94" y1="-16798.67" x2="92.14" y2="-16812.18" xlink:href="#Ѕезым_нный_градиент_40"/><linearGradient id="Ѕезым_нный_градиент_34-9" x1="99.85" y1="-16799.73" x2="92.88" y2="-16811.8" xlink:href="#Ѕезым_нный_градиент_34"/><linearGradient id="Ѕезым_нный_градиент_16-2" x1="97.5" y1="-16800.46" x2="92.63" y2="-16808.9" xlink:href="#Ѕезым_нный_градиент_16"/><linearGradient id="Ѕезым_нный_градиент_34-10" x1="97.06" y1="-16803.42" x2="94.83" y2="-16807.27" xlink:href="#Ѕезым_нный_градиент_34"/><linearGradient id="Ѕезым_нный_градиент_28" x1="66.81" y1="-16783.47" x2="74.9" y2="-16783.47" gradientTransform="matrix(1 0 0 -1 0 -16720.95)" gradientUnits="userSpaceOnUse"><stop offset=".16" stop-color="#4d4e4f"/><stop offset=".16" stop-color="#646668"/><stop offset=".56" stop-color="#646668"/><stop offset=".56" stop-color="#85888a"/><stop offset=".87" stop-color="#85888a"/><stop offset=".87" stop-color="#808385"/></linearGradient><linearGradient id="Ѕезым_нный_градиент_34-11" x1="73.24" y1="-16775.9" x2="68.01" y2="-16784.96" xlink:href="#Ѕезым_нный_градиент_34"/><linearGradient id="Ѕезым_нный_градиент_35-8" x1="72.58" y1="-16801.8" x2="60.72" y2="-16822.33" xlink:href="#Ѕезым_нный_градиент_35"/><linearGradient id="Ѕезым_нный_градиент_35-9" x1="78.25" y1="-16805" x2="66.4" y2="-16825.54" xlink:href="#Ѕезым_нный_градиент_35"/><linearGradient id="Ѕезым_нный_градиент_40-5" x1="79.54" y1="-16810.45" x2="71.74" y2="-16823.96" xlink:href="#Ѕезым_нный_градиент_40"/><linearGradient id="Ѕезым_нный_градиент_34-12" x1="79.44" y1="-16811.51" x2="72.48" y2="-16823.58" xlink:href="#Ѕезым_нный_градиент_34"/><linearGradient id="Ѕезым_нный_градиент_16-3" x1="77.1" y1="-16812.24" x2="72.23" y2="-16820.68" xlink:href="#Ѕезым_нный_градиент_16"/><style>.cls-5{fill:#e1f0f0}.cls-6{fill:#b9c6c7}.cls-7{fill:#a6a9ab}.cls-8{fill:#dde2e6}.cls-9{fill:#d9dbdd}.cls-10{fill:#72777a}.cls-13{fill:#bfcccc}.cls-17{fill:#99afba}.cls-18{fill:#cedbdb}.cls-20{fill:#ff7660}.cls-21{fill:#ff8c6f}.cls-22{fill:#74c7ac}.cls-23{fill:#4f4f4f}.cls-26{fill:#80898a}.cls-27{fill:#bdc1c4}.cls-28{fill:#b2b2b2}.cls-32{fill:#424852}.cls-34{fill:#d7d9db}.cls-36{fill:#e3e5e6}.cls-39{fill:#b23625}.cls-42{fill:#a93e38}.cls-43{fill:#ed8333}.cls-44{fill:#edbd51}.cls-46{fill:#d9483d}.cls-48{fill:#791100}.cls-49{fill:#eac72f}.cls-50{fill:#b03a28}.cls-62{fill:#3a4044}.cls-76{fill:#9a1200}.cls-77{fill:#878787}.cls-78{fill:#747474}.cls-97{fill:#5a5c54}.cls-98{fill:#ff8c2e}.cls-99{fill:#db721c}.cls-100{fill:#b35000}.cls-101{fill:#fff5f5}.cls-102{fill:#b88f8f}.cls-103{fill:#db4040}.cls-105{fill:#850f0f}.cls-110{fill:#6bb5ff}</style></defs><g style="isolation:isolate"><g id="Слой_2" data-name="Слой 2"><g id="Layer_1" data-name="Layer 1"><g id="_Группа_" data-name="&lt;Группа&gt;"><g id="_Группа_2" data-name="&lt;Группа&gt;"><path id="_Контур_" data-name="&lt;Контур&gt;" style="mix-blend-mode:multiply" fill="url(#Ѕезым_нный_градиент_2)" d="M18.12 62.07h-.01.01z"/><path id="_Контур_2" data-name="&lt;Контур&gt;" d="M159.23 47.92c-.27 1-49.49 13.08-87.12 22.54l-2.27-1.31q.55-.25 1.08-.52c5.76-3 7.85-7.69 4.81-10.56a26 26 0 004.33-.53l15.78-8.44c.83-.44 1-1 .75-1.55l13-6.81-2.91-2.52L120 38l2.53-.31a10 10 0 01-2.06-5.64c3.57 2.3 10.42 2 15.91-.91 4.08-2.14 6.32-5.11 6.2-7.69l2.69 1.71 2.57-1.1-4.84-4.48.23-.07-.61-.28-.06-.05a6.74 6.74 0 00-3.22-.64 119.92 119.92 0 00-15.7-.51l-6-5.16-4 1.77.36.36s-9.16 3.8-22.92 10.72L81 21.84l.13-1.24a126.55 126.55 0 00-13.42 4.79H67l-3.53-3a5.68 5.68 0 00-4.53-1.48 25.81 25.81 0 00-3.07.32l-1.06.24.4.19 1.42.7 1.14.56.23.08c.71 0 1.13-.15 1.53-.15A1.44 1.44 0 0160 23h.07a3.07 3.07 0 01.87.57l2.8 2.43a2.23 2.23 0 00-1 .6c-4.08.17-18 1-22 3.72l6.81 5.89L45 37.43l4.23 6.41 6 5.17-1.93 1-.8 1.59-4.89 2.4L44 52.91l-1.29.52-1-.58-.29.17a1.31 1.31 0 00-.42-1.46l-.81-.7.76.75c-2-1.37-8.45-.32-14.63 2.45-6.36 2.85-10.05 6.43-8.24 8l-.08-.18c1.17 1 2.11 1.91 5.9 1l-.74.57v.12L0 77.79l61.89 35.83 106.7-60.44c1.22-.65-9.15-6.04-9.36-5.26z" style="mix-blend-mode:multiply" fill="url(#Ѕезым_нный_градиент_2-2)"/></g><g id="_Группа_3" data-name="&lt;Группа&gt;"><path id="_Контур_3" data-name="&lt;Контур&gt;" d="M93.23 10v29.61c0 .75.94 1.36 2.09 1.36s2.09-.61 2.09-1.36V10z" fill="url(#Ѕезым_нный_градиент_21)"/><ellipse id="_Контур_4" data-name="&lt;Контур&gt;" class="cls-5" cx="95.32" cy="10.03" rx="2.09" ry="1.36"/></g><g id="_Группа_4" data-name="&lt;Группа&gt;"><path id="_Контур_5" data-name="&lt;Контур&gt;" class="cls-6" d="M96.37 3.62v6.16a1.15 1.15 0 01-1.06.5 1.48 1.48 0 01-.49-.07 1.05 1.05 0 01-.47-.27V4.69a3.31 3.31 0 00-.11-1 .14.14 0 000-.06.43.43 0 00-.2-.23c-.21-.1-.52 0-.89-.18l-.06-.27-.25-1.09-.33-1.4-.09-.38.7-.07a6 6 0 011.79.34c1.21.47 1.46 1.48 1.46 3.27z"/><path id="_Контур_6" data-name="&lt;Контур&gt;" class="cls-7" d="M94.83 5.27v4.94a1.05 1.05 0 01-.47-.27V4.69a3.31 3.31 0 00-.11-1 .14.14 0 000-.06.43.43 0 00-.2-.23c-.21-.1-.52 0-.89-.18l-.06-.27-.25-1.09a3.71 3.71 0 01.54.17c1.18.43 1.44 1.44 1.44 3.24z"/><path id="_Контур_7" data-name="&lt;Контур&gt;" class="cls-8" d="M94.91.34A6 6 0 0093.12 0l-.7.07.09.37.09.41a6 6 0 011.79.34c1.21.48 1.47 1.49 1.47 3.28v5.69a.87.87 0 00.5-.39V3.62c.01-1.79-.24-2.8-1.45-3.28z"/><path id="_Контур_8" data-name="&lt;Контур&gt;" class="cls-9" d="M91.75 1a3.19 3.19 0 001.54 2.43c.85.49 1.54.2 1.54-.65a1.62 1.62 0 000-.29A3.33 3.33 0 0093.29.31l-.19-.1c-.76-.35-1.35-.04-1.35.79z"/><path id="_Контур_9" data-name="&lt;Контур&gt;" class="cls-7" d="M94.5 2.55a.74.74 0 01-.17.52c-.21.24-.6.25-1 0a2.55 2.55 0 01-1.21-1.92c0-.63.47-.87 1.07-.59l.14.07.17.11a2.64 2.64 0 011 1.58 1 1 0 010 .23z"/><path id="_Контур_10" data-name="&lt;Контур&gt;" class="cls-10" d="M94.5 2.55a.74.74 0 01-.17.52 2.48 2.48 0 01-1-1.8.75.75 0 01.17-.53 2.64 2.64 0 011 1.58 1 1 0 010 .23z"/></g><g id="_Группа_5" data-name="&lt;Группа&gt;"><path id="_Контур_11" data-name="&lt;Контур&gt;" d="M115.73 23.33v1c0 1.15 1.43 2.09 3.2 2.09s3.2-.93 3.2-2.09v-1.1z" fill="url(#Ѕезым_нный_градиент_21-2)"/><path id="_Контур_12" data-name="&lt;Контур&gt;" d="M115.37 21.68v1.16c0 1.28 1.6 2.32 3.56 2.32s3.56-1 3.56-2.32v-1.28z" fill="url(#Ѕезым_нный_градиент_25)"/><ellipse id="_Контур_13" data-name="&lt;Контур&gt;" class="cls-13" cx="118.93" cy="21.68" rx="3.56" ry="2.32"/><path id="_Контур_14" data-name="&lt;Контур&gt;" d="M115.73 18.39v2.88c0 1.15 1.43 2.09 3.2 2.09s3.2-.93 3.2-2.09v-3z" fill="url(#Ѕезым_нный_градиент_21-3)"/><path id="_Контур_15" data-name="&lt;Контур&gt;" d="M115.37 16.34v1.16c0 1.28 1.6 2.32 3.56 2.32s3.56-1 3.56-2.32v-1.28z" fill="url(#Ѕезым_нный_градиент_25-2)"/><ellipse id="_Контур_16" data-name="&lt;Контур&gt;" class="cls-13" cx="118.93" cy="16.34" rx="3.56" ry="2.32"/><path id="_Контур_17" data-name="&lt;Контур&gt;" d="M115.73 15v1c0 1.15 1.43 2.09 3.2 2.09s3.2-.93 3.2-2.09v-1.06z" fill="url(#Ѕезым_нный_градиент_21-4)"/><ellipse id="_Контур_18" data-name="&lt;Контур&gt;" class="cls-5" cx="118.93" cy="15.05" rx="3.2" ry="2.09"/></g><g id="_Группа_6" data-name="&lt;Группа&gt;"><path id="_Контур_19" data-name="&lt;Контур&gt;" class="cls-17" d="M131.13 27.13L168.94 49v-8.23L131.13 18.9v8.23z"/><path id="_Контур_20" data-name="&lt;Контур&gt;" class="cls-5" d="M167.35 48.79l.9.41 1.74-8.99-1.37-.16-2.18 1.16.91 7.58z"/><path id="_Контур_21" data-name="&lt;Контур&gt;" class="cls-18" d="M168.25 49.2l2.01-.89.2-8.35-3.11 1.66.9 7.58z"/><path id="_Контур_22" data-name="&lt;Контур&gt;" class="cls-5" d="M132.6 18.06l37.86 21.9-1.52.81-37.81-21.87 1.47-.84z"/></g><path id="_Контур_23" data-name="&lt;Контур&gt;" class="cls-17" d="M167.35 41.62l-.91-.41.91 7.58.9.41-.9-7.58z"/><path id="_Контур_24" data-name="&lt;Контур&gt;" class="cls-17" d="M137.81 8.42l2.87.54a40.28 40.28 0 0112.19 6.64l5.3 5a3.84 3.84 0 011.22 2.8v20.3L135.57 30l-2.14-19.12c0-1.18 3.21-2.68 4.38-2.46z"/><path id="_Контур_25" data-name="&lt;Контур&gt;" class="cls-5" d="M159.38 23.36V43.7l-3.22-1.85V25.09a3.84 3.84 0 00-1.22-2.8s-3-3.12-4.65-4.51a32.3 32.3 0 00-5-3.49 43.56 43.56 0 00-7.87-3.59l-1.92-.63-1.5-.27c.39-.64 3-1.54 3.76-1.39l2.87.55a40.7 40.7 0 017.72 3.55 39.33 39.33 0 014.46 3.09l5.3 5a3.81 3.81 0 011.27 2.76z"/><path id="_Контур_26" data-name="&lt;Контур&gt;" d="M156.11 24.94l-16.69 11.91s-36.65-11.8-30-17.32C113 16.56 134 9.8 134 9.8s.43.12 1.12.35 1.69.58 2.82 1a43.7 43.7 0 016.52 3 39.7 39.7 0 015.8 4.1c1.1.94 2 1.79 2.65 2.49l1 1c2.09 2.1 2.2 3.2 2.2 3.2z" fill="#ff6056"/><path id="_Контур_27" data-name="&lt;Контур&gt;" class="cls-20" d="M153 20.76L131.2 33.2l-3-3.1-9.53-9.79-2.49-2.56 19.05-7.6c.7.23 1.69.58 2.82 1a43.7 43.7 0 016.52 3 39.7 39.7 0 015.8 4.1c1.04.96 1.91 1.81 2.63 2.51z"/><path id="_Контур_28" data-name="&lt;Контур&gt;" class="cls-21" d="M150.31 18.27l-22.17 11.84-.27.14-11.67-8.8 2.41-1.13L138 11.17a43.7 43.7 0 016.52 3 39.7 39.7 0 015.79 4.1z"/><path id="_Контур_29" data-name="&lt;Контур&gt;" class="cls-22" d="M102.76 30.3l4.14-2.39v-6.64l-4.14 2.4v6.63z"/><path id="_Контур_30" data-name="&lt;Контур&gt;" class="cls-22" d="M111.86 38.89l-10.21 7.73-7.07-1.97 17.28-11.95v6.19z"/><path id="_Контур_31" data-name="&lt;Контур&gt;" class="cls-22" d="M101.27 51.1L75.66 65.88v-9.73L94.2 45.58l7.07 5.52z"/><path id="_Контур_32" data-name="&lt;Контур&gt;" class="cls-22" d="M96.35 38.95l-4.18 2.41V15.39l4.18-2.41v25.97z"/><path id="_Контур_33" data-name="&lt;Контур&gt;" class="cls-23" d="M161.97 43.47l-58.8 33.33 2.47-7.17 56.33-32.37v6.21z"/><path id="_Контур_34" data-name="&lt;Контур&gt;" fill="#222" d="M105.89 63.3l1.32.76v7.2l-2.4 1.33-15.06 2.1 16.14-11.39z"/><g id="_Группа_7" data-name="&lt;Группа&gt;"><path id="_Контур_35" data-name="&lt;Контур&gt;" fill="#9faaab" d="M121.02 70.24l17.27-9.97v-6.2l-17.27 9.97v6.2z"/><path id="_Контур_36" data-name="&lt;Контур&gt;" class="cls-26" d="M137.33 58.16v-2.84l-2.04 1.07v3.41l2.04.78v-2.42z"/><path id="_Контур_37" data-name="&lt;Контур&gt;" class="cls-8" d="M138.34 60l-16.15 9.32 1.96 1.14 16.15-9.33-1.96-1.13z"/><path id="_Контур_38" data-name="&lt;Контур&gt;" class="cls-27" d="M136.33 52.92l-16.15 9.32 1.96 1.14 16.15-9.33-1.96-1.13z"/><path id="_Контур_39" data-name="&lt;Контур&gt;" class="cls-28" d="M140.3 61.59l-16.15 9.32v-.45l16.15-9.33v.46z"/><path id="_Контур_40" data-name="&lt;Контур&gt;" class="cls-8" d="M135.37 57.03l-16.15 9.32 1.96 1.14 16.15-9.33-1.96-1.13z"/><path id="_Контур_41" data-name="&lt;Контур&gt;" class="cls-28" d="M137.33 58.62l-16.15 9.32v-.45l16.15-9.33v.46z"/></g><g id="_Группа_8" data-name="&lt;Группа&gt;"><path id="_Контур_42" data-name="&lt;Контур&gt;" d="M112.78 76.43l13.31-7.87c1.77-1 1.93-4.06.36-6.78s-4.28-4.1-6.05-3.08l-13.47 8z" fill="url(#Ѕезым_нный_градиент_21-5)"/><ellipse id="_Контур_43" data-name="&lt;Контур&gt;" cx="109.93" cy="71.5" rx="3.7" ry="5.69" transform="rotate(-30 109.942 71.499)" fill="#8d9296"/><ellipse id="_Контур_44" data-name="&lt;Контур&gt;" class="cls-26" cx="109.29" cy="71.87" rx="2.97" ry="4.56" transform="rotate(-30 109.284 71.863)"/></g><g id="_Группа_9" data-name="&lt;Группа&gt;"><path id="_Контур_45" data-name="&lt;Контур&gt;" d="M144.32 52.54a5 5 0 001.94 4.46c1.63 1.09 5.12 3 5.12 3 4.91-2.83 14.54-12.67 14.54-17.58 0-2.13-4.59-3.75-5.85-4.56-1.63-1-4.1-.89-6.88.71-4.89 2.79-8.87 9.06-8.87 13.97z" fill="url(#Ѕезым_нный_градиент_35)"/><path id="_Контур_46" data-name="&lt;Контур&gt;" class="cls-32" d="M149.12 55.34c0 4.91 4 6.59 8.88 3.76s8.88-9.11 8.88-14-4-6.59-8.88-3.76-8.88 9.09-8.88 14z"/><path id="_Контур_47" data-name="&lt;Контур&gt;" d="M151.75 53.35c0 3.26 2.64 4.37 5.9 2.49s5.9-6 5.9-9.3-2.64-4.37-5.9-2.49-5.9 6.04-5.9 9.3z" fill="url(#Ѕезым_нный_градиент_40)"/><path id="_Контур_48" data-name="&lt;Контур&gt;" class="cls-34" d="M152.11 53.61c0 3.26 2.64 4.37 5.9 2.49s5.9-6 5.9-9.3-2.64-4.37-5.9-2.49-5.9 6.05-5.9 9.3z"/><path id="_Контур_49" data-name="&lt;Контур&gt;" d="M163.3 47.16c0 2.92-2.37 6.66-5.29 8.35s-5.29.68-5.29-2.24a5.56 5.56 0 01.09-1 11.45 11.45 0 015.2-7.36c.21-.12.43-.23.63-.32 2.62-1.21 4.66-.14 4.66 2.57z" fill="url(#Ѕезым_нный_градиент_34)"/><path id="_Контур_50" data-name="&lt;Контур&gt;" class="cls-36" d="M160.73 46.85a8.28 8.28 0 01-4 6.31 4.62 4.62 0 01-1.17.51 2 2 0 01-2.61-1 1.65 1.65 0 01-.13-.39 7.73 7.73 0 01.29-1.2 11.88 11.88 0 014.16-5.66 8.66 8.66 0 01.75-.5l.53-.27.1-.05c1.22-.05 2.06.76 2.08 2.25z"/><path id="_Контур_51" data-name="&lt;Контур&gt;" d="M160.36 46.3c0 2.17-2.74 6.12-4.92 7.41h-.09a.93.93 0 01-.28-.09h-.11a13.72 13.72 0 01-2-.89 1.65 1.65 0 01-.13-.39 7.73 7.73 0 01.29-1.2 11.88 11.88 0 014.16-5.66 8.66 8.66 0 01.75-.5l.53-.27a13.61 13.61 0 011.6 1.4z" fill="url(#Ѕезым_нный_градиент_16)"/><path id="_Контур_52" data-name="&lt;Контур&gt;" class="cls-9" d="M160.87 47.75a7.16 7.16 0 01-3.45 5.45c-1.9 1.1-3.45.44-3.45-1.46a3.63 3.63 0 01.06-.65 7.47 7.47 0 013.39-4.8l.41-.21c1.71-.79 3.04-.08 3.04 1.67z"/><path id="_Контур_53" data-name="&lt;Контур&gt;" d="M159.23 48.89a3.49 3.49 0 01-1.68 2.65c-.93.53-1.68.22-1.68-.71a1.77 1.77 0 010-.32 3.64 3.64 0 011.65-2.34l.2-.1c.86-.38 1.51-.07 1.51.82z" fill="url(#Ѕезым_нный_градиент_34-2)"/><path id="_Контур_54" data-name="&lt;Контур&gt;" class="cls-36" d="M157.79 49.12a1.4 1.4 0 01-.67 1.06c-.37.21-.67.09-.67-.28a.71.71 0 010-.13 1.46 1.46 0 01.66-.94h.08c.34-.19.6-.06.6.29z"/></g><path id="_Контур_55" data-name="&lt;Контур&gt;" class="cls-39" d="M139.43 52L123 61.41s-4.4-25.18 0-31.81c1.88-2.83 12.54-5.28 12.54-5.28l-.77 1.68 3.29 9.15z"/><g id="_Группа_10" data-name="&lt;Группа&gt;"><path id="_Контур_56" data-name="&lt;Контур&gt;" class="cls-8" d="M135.06 37.53a5.51 5.51 0 00.89-1.48 1.91 1.91 0 00.06-1.3l-1.29-7c-.26-.9-1-1.09-2-.52l-4.38 2.4a2.87 2.87 0 00-.75.67 5.93 5.93 0 00-1.4 3.06V41c0 1.28.69 1.66 1.8 1l6.24-3.79a4.35 4.35 0 00.86-.68z"/><path id="_Контур_57" data-name="&lt;Контур&gt;" d="M134.4 37.62l-6.24 3.79c-1 .6-1.6.27-1.6-.87v-7.72a4.12 4.12 0 011.53-2.64l4.38-2.4c.94-.52 1.61-.35 1.85.46l1.3 7.06a3.19 3.19 0 01-1.22 2.32z" fill="#6ba9b0"/></g><path id="_Контур_58" data-name="&lt;Контур&gt;" class="cls-8" d="M131.88 50.88a1.15 1.15 0 01-1.15-1.15v-5.9a1.7 1.7 0 01.85-1.47L134 41a1.15 1.15 0 011.73 1v5.9a1.7 1.7 0 01-.85 1.47l-2.38 1.37a1.16 1.16 0 01-.62.14z"/><path id="_Контур_59" data-name="&lt;Контур&gt;" d="M134.63 49l-2.38 1.37a.75.75 0 01-1.12-.65v-5.9a1.29 1.29 0 01.65-1.12l2.38-1.37a.75.75 0 011.12.65v5.9a1.29 1.29 0 01-.65 1.12z" fill="#4e98a1"/><path id="_Контур_60" data-name="&lt;Контур&gt;" class="cls-20" d="M135.59 24.32s-9.14-7.94-27.35-17c-4.48-2.22-16.49 4.15-16.49 4.15S116.43 35.18 123 29.6c3.77-3.14 12.59-5.28 12.59-5.28z"/><path id="_Контур_61" data-name="&lt;Контур&gt;" class="cls-39" d="M117.82 25.67s10.37-5 13.69-4.67c-3.37-2-11.2-6.81-15.67-9s-16.49 4.15-16.49 4.15 4.17 4 9.53 8.31c2.12-.96 8.94 1.21 8.94 1.21z"/><path id="_Контур_62" data-name="&lt;Контур&gt;" class="cls-21" d="M117 25.54s10.56-4.93 14.54-4.53c-3.37-2-15-9.46-19.46-11.68s-16.49 4.15-16.49 4.15 7.77 5.93 13.13 10.24c2.12-.94 8.28 1.82 8.28 1.82z"/><g id="_Группа_11" data-name="&lt;Группа&gt;"><path id="_Контур_63" data-name="&lt;Контур&gt;" class="cls-42" d="M124.22 18.84l-.81.52c-.22.14-.24.38-.47.25l-.36-.29c-.25-.14-.52-.67-.28-.82l.81-.51c.22-.14 1.1-.53 1.33-.39h.09c.26.18-.07 1.09-.31 1.24z"/><path id="_Контур_64" data-name="&lt;Контур&gt;" class="cls-43" d="M125.37 18.95l-1.29.82a.8.8 0 01-.82 0l-.31-.18c-.28-.16.09-1.31.35-1.47l.92-.08c.25-.15.63-.55.89-.4l.21.16a.9.9 0 01.05 1.15z"/><path id="_Контур_65" data-name="&lt;Контур&gt;" class="cls-44" d="M125 18.23l-.81.52a.71.71 0 01-.73 0h-.1a.38.38 0 010-.65l.81-.51a.71.71 0 01.73 0h.09a.38.38 0 01.01.64z"/></g><path id="_Контур_66" data-name="&lt;Контур&gt;" d="M156.1 37.84L139.43 52l-1.88-17.68C149 28 156.1 24.94 156.1 24.94z" fill="#bf301c"/><path id="_Контур_67" data-name="&lt;Контур&gt;" class="cls-18" d="M159.26 36.01l-3.16 1.82V24.32l3.16-1.48v13.17z"/><path id="_Контур_68" data-name="&lt;Контур&gt;" class="cls-46" d="M108.72 27.56l14.33.67s-21.92-14.17-30-17.31c-11.27-4.38-17.4-2.39-17.4-2.39z"/><path id="_Контур_69" data-name="&lt;Контур&gt;" class="cls-39" d="M117.23 24.38h.12c-5.7-3.76-12.2-7.78-16.08-9.29C90 10.76 83.41 13 83.41 13L99 22c1.69-.6 8.17-1.54 18.23 2.38z"/><path id="_Контур_70" data-name="&lt;Контур&gt;" d="M117.23 24.4h.12c-5.7-3.76-12.2-8.22-16.08-9.73-11.27-4.38-17.86-3-17.86-3l15.59 9c1.69-.54 8.17-.18 18.23 3.73z" fill="#ff574c"/><path id="_Контур_71" data-name="&lt;Контур&gt;" class="cls-39" d="M108.72 68.07L123 58.69V28.23s-9.88-4-14.33-.67z"/><path id="_Контур_72" data-name="&lt;Контур&gt;" class="cls-48" d="M75.66 8.54l33.06 19.02v40.51L75.66 49.05V8.54z"/><path id="_Контур_73" data-name="&lt;Контур&gt;" class="cls-8" d="M125.69 56.54l-18.15 10.55v2.72l.65.4 18.15-13.26-.65-.41z"/><path id="_Контур_74" data-name="&lt;Контур&gt;" class="cls-7" d="M126.34 56.95L108.19 67.5v2.71l18.15-10.54v-2.72z"/><g id="_Группа_12" data-name="&lt;Группа&gt;"><path id="_Контур_75" data-name="&lt;Контур&gt;" class="cls-26" d="M112.49 66.29v.43a.56.56 0 01-.28.47l-1.84 1.07a.22.22 0 01-.33-.19V68l1.54-.9a.56.56 0 00.28-.47v-.31l.3-.17a.22.22 0 01.33.14z"/><path id="_Контур_76" data-name="&lt;Контур&gt;" class="cls-49" d="M111.86 66.27v.31a.56.56 0 01-.28.47L110 68v-.31a.56.56 0 01.28-.47z"/></g><g id="_Группа_13" data-name="&lt;Группа&gt;"><path id="_Контур_77" data-name="&lt;Контур&gt;" class="cls-26" d="M125.48 58.61V59a.56.56 0 01-.28.47l-1.84 1.07a.22.22 0 01-.33-.19v-.12l1.54-.9a.56.56 0 00.28-.47v-.31l.3-.17a.22.22 0 01.33.23z"/><path id="_Контур_78" data-name="&lt;Контур&gt;" class="cls-49" d="M124.85 58.59v.31a.56.56 0 01-.28.47l-1.54.9V60a.56.56 0 01.28-.47z"/></g><g id="_Группа_14" data-name="&lt;Группа&gt;"><path id="_Контур_79" data-name="&lt;Контур&gt;" class="cls-26" d="M121.15 61.17v.43a.56.56 0 01-.28.47L119 63.14a.22.22 0 01-.33-.19v-.12l1.54-.9a.56.56 0 00.28-.47v-.31l.3-.17a.22.22 0 01.36.19z"/><path id="_Контур_80" data-name="&lt;Контур&gt;" class="cls-49" d="M120.52 61.15v.31a.56.56 0 01-.28.47l-1.54.9v-.31a.56.56 0 01.3-.52z"/></g><g id="_Группа_15" data-name="&lt;Группа&gt;"><path id="_Контур_81" data-name="&lt;Контур&gt;" class="cls-26" d="M116.82 63.73v.43a.56.56 0 01-.28.47l-1.84 1.07a.22.22 0 01-.33-.19v-.12l1.54-.9a.56.56 0 00.28-.47v-.31l.3-.17a.22.22 0 01.33.19z"/><path id="_Контур_82" data-name="&lt;Контур&gt;" class="cls-49" d="M116.19 63.71V64a.56.56 0 01-.28.47l-1.54.9v-.31a.56.56 0 01.28-.47z"/></g><path id="_Контур_83" data-name="&lt;Контур&gt;" class="cls-23" d="M167.12 39.25l-4.69-2.65s2.76-.7 3.82.6.87 2.05.87 2.05z"/><g id="_Группа_16" data-name="&lt;Группа&gt;"><path id="_Контур_84" data-name="&lt;Контур&gt;" class="cls-46" d="M145.35 59.13l-6.6-3.73c2.39-16.21 11.45-24 17.7-24.26 3.36-.16 9.89 4.26 11.23 5.93l-5.24-.47c-.41-1.66 2 .44-.49 1-4.16 1.06-13.18 6.08-16.6 21.53z"/></g><g id="_Группа_17" data-name="&lt;Группа&gt;"><path id="_Контур_85" data-name="&lt;Контур&gt;" class="cls-39" d="M146.85 59.35l-1.5-.22c2.39-16.21 12.55-22.52 18.8-22.81 3.36-.16 3.86.17 4.45 2.57l-1.47.36c-.41-1.66-.33-1.54-2.9-1.42-5.76.27-15.13 6.17-17.38 21.52z"/></g><path id="_Контур_86" data-name="&lt;Контур&gt;" class="cls-22" d="M126.34 56.27l-4.19 2.41V32.71l4.19-2.41v25.97z"/><path id="_Контур_87" data-name="&lt;Контур&gt;" class="cls-50" d="M155.17 35.91l-1.55.89-1.24-.71 1.55-.89 1.24.71z"/><g id="_Группа_18" data-name="&lt;Группа&gt;"><path id="_Контур_88" data-name="&lt;Контур&gt;" fill="#cf9219" d="M155.95 35.48l-1.55.9-1.25-.72 1.56-.89 1.24.71z"/><path id="_Контур_89" data-name="&lt;Контур&gt;" class="cls-49" d="M155.95 35.48v.88l-1.55.9v-.88l1.55-.9z"/><path id="_Контур_90" data-name="&lt;Контур&gt;" fill="#b06a00" d="M154.4 36.38v.88l-1.25-.72v-.88l1.25.72z"/></g><g id="_Группа_19" data-name="&lt;Группа&gt;"><path id="_Контур_91" data-name="&lt;Контур&gt;" d="M137.55 45.85v1c0 1.15 1.43 2.09 3.2 2.09S144 48 144 46.89v-1.14z" fill="url(#Ѕезым_нный_градиент_21-6)"/><path id="_Контур_92" data-name="&lt;Контур&gt;" d="M137.19 44.2v1.16c0 1.28 1.6 2.32 3.56 2.32s3.56-1 3.56-2.32v-1.27z" fill="url(#Ѕезым_нный_градиент_25-3)"/><ellipse id="_Контур_93" data-name="&lt;Контур&gt;" class="cls-13" cx="140.75" cy="44.2" rx="3.56" ry="2.32"/><path id="_Контур_94" data-name="&lt;Контур&gt;" d="M137.55 40.91v2.88c0 1.15 1.43 2.09 3.2 2.09s3.2-.93 3.2-2.09v-3z" fill="url(#Ѕезым_нный_градиент_21-7)"/><path id="_Контур_95" data-name="&lt;Контур&gt;" d="M137.19 38.86V40c0 1.28 1.6 2.32 3.56 2.32s3.56-1 3.56-2.32v-1.26z" fill="url(#Ѕезым_нный_градиент_25-4)"/><ellipse id="_Контур_96" data-name="&lt;Контур&gt;" class="cls-13" cx="140.75" cy="38.86" rx="3.56" ry="2.32"/><path id="_Контур_97" data-name="&lt;Контур&gt;" d="M137.55 37.57v1c0 1.15 1.43 2.09 3.2 2.09s3.2-.93 3.2-2.09v-1.11z" fill="url(#Ѕезым_нный_градиент_21-8)"/><ellipse id="_Контур_98" data-name="&lt;Контур&gt;" class="cls-5" cx="140.75" cy="37.57" rx="3.2" ry="2.09"/></g><g id="_Группа_20" data-name="&lt;Группа&gt;"><path id="_Контур_99" data-name="&lt;Контур&gt;" d="M122.19 28.61V58.2c0 .75.94 1.36 2.09 1.36s2.09-.61 2.09-1.36V28.55z" fill="url(#Ѕезым_нный_градиент_21-9)"/><ellipse id="_Контур_100" data-name="&lt;Контур&gt;" class="cls-5" cx="124.28" cy="28.61" rx="2.09" ry="1.36"/></g><g id="_Группа_21" data-name="&lt;Группа&gt;"><path id="_Контур_101" data-name="&lt;Контур&gt;" class="cls-6" d="M125.33 22.21v6.16a1.15 1.15 0 01-1.06.5 1.48 1.48 0 01-.49-.07 1.06 1.06 0 01-.47-.27v-5.25a3.3 3.3 0 00-.11-1 .14.14 0 000-.06.43.43 0 00-.2-.22c-.21-.1-.52 0-.89-.18l-.11-.32-.25-1.09-.29-1.41-.09-.37.7-.07a6 6 0 011.79.34c1.22.51 1.47 1.52 1.47 3.31z"/><path id="_Контур_102" data-name="&lt;Контур&gt;" class="cls-7" d="M123.78 23.86v4.94a1.06 1.06 0 01-.47-.27v-5.25a3.3 3.3 0 00-.11-1 .14.14 0 000-.06.43.43 0 00-.2-.22c-.21-.1-.52 0-.89-.18l-.11-.32-.25-1.09a3.71 3.71 0 01.54.17c1.24.42 1.49 1.48 1.49 3.28z"/><path id="_Контур_103" data-name="&lt;Контур&gt;" class="cls-8" d="M123.86 18.93a6 6 0 00-1.79-.34l-.7.07.09.37.09.41a6 6 0 011.79.34c1.21.48 1.47 1.49 1.47 3.28v5.69a.87.87 0 00.5-.39v-6.15c.02-1.79-.23-2.8-1.45-3.28z"/><path id="_Контур_104" data-name="&lt;Контур&gt;" class="cls-9" d="M120.7 19.54a3.19 3.19 0 001.54 2.46c.85.49 1.54.2 1.54-.65a1.62 1.62 0 000-.29 3.33 3.33 0 00-1.51-2.14l-.18-.09c-.8-.39-1.39-.08-1.39.71z"/><path id="_Контур_105" data-name="&lt;Контур&gt;" class="cls-7" d="M123.46 21.14a.74.74 0 01-.17.52c-.21.24-.6.25-1 0a2.55 2.55 0 01-1.29-1.93c0-.63.47-.87 1.07-.59l.14.07.17.11a2.64 2.64 0 011 1.58.94.94 0 01.08.24z"/><path id="_Контур_106" data-name="&lt;Контур&gt;" class="cls-10" d="M123.46 21.14a.74.74 0 01-.17.52 2.48 2.48 0 01-1-1.8.75.75 0 01.17-.53 2.64 2.64 0 011 1.58.94.94 0 010 .23z"/></g><g id="_Группа_22" data-name="&lt;Группа&gt;"><path id="_Контур_107" data-name="&lt;Контур&gt;" d="M163.63 31.2v1.35a.59.59 0 01-.32.53c-.17.09-1.07.76-1.26.65l-3-3.62a1.58 1.58 0 01-.8-1.37l-1.59-.66c0-.2 1-.63 1.12-.73h.06a.59.59 0 01.59 0l4.41 2.51a1.58 1.58 0 01.79 1.34z" fill="url(#Ѕезым_нный_градиент_20)"/><path id="_Контур_108" data-name="&lt;Контур&gt;" d="M162.53 31.84v1.35a.59.59 0 01-.89.51l-4.41-2.51a1.58 1.58 0 01-.8-1.37v-1.34a.59.59 0 01.89-.51l4.41 2.51a1.58 1.58 0 01.8 1.36z" fill="#828282"/></g><path id="_Контур_109" data-name="&lt;Контур&gt;" class="cls-48" d="M83.41 11.72v3.22l15.57 8.73v-2.95l-15.57-9z"/><path id="_Контур_110" data-name="&lt;Контур&gt;" d="M148.41 12.52l-3.08 1.77a43.56 43.56 0 00-7.87-3.59l-1.92-.63L134 9.8c.39-.64 3-1.54 3.76-1.39l2.87.55a40.7 40.7 0 017.78 3.56z" fill="#c6d4d4"/><path id="_Контур_111" data-name="&lt;Контур&gt;" class="cls-62" d="M95 71.77l9.92 5.64a2.49 2.49 0 00-.23-3c-1.26-1.69-4-3.11-4.71-2.79s-4.98.15-4.98.15z"/><g id="_Группа_23" data-name="&lt;Группа&gt;"><g id="_Группа_24" data-name="&lt;Группа&gt;"><path id="_Контур_112" data-name="&lt;Контур&gt;" d="M45.41 65.37a5 5 0 001.94 4.43c1.63 1.09 5.12 3 5.12 3C57.38 69.95 67 60.11 67 55.2c0-2.13-4.59-3.75-5.85-4.56-1.63-1-4.1-.89-6.88.71-4.88 2.84-8.86 9.11-8.86 14.02z" fill="url(#Ѕезым_нный_градиент_35-2)"/><path id="_Контур_113" data-name="&lt;Контур&gt;" class="cls-32" d="M50.22 68.17c0 4.91 4 6.59 8.88 3.76S68 62.82 68 57.91s-4-6.59-8.88-3.76-8.9 9.11-8.9 14.02z"/><path id="_Контур_114" data-name="&lt;Контур&gt;" d="M51.09 68.57A5 5 0 0053 73c1.63 1.09 5.12 3 5.12 3 4.94-2.85 14.58-12.69 14.58-17.6 0-2.13-4.59-3.75-5.85-4.56-1.63-1-4.1-.89-6.88.71-4.91 2.84-8.88 9.11-8.88 14.02z" fill="url(#Ѕезым_нный_градиент_35-3)"/><path id="_Контур_115" data-name="&lt;Контур&gt;" class="cls-32" d="M55.89 71.37c0 4.91 4 6.59 8.88 3.76s8.88-9.11 8.88-14-4-6.59-8.88-3.76-8.88 9.09-8.88 14z"/><path id="_Контур_116" data-name="&lt;Контур&gt;" d="M58.52 69.38c0 3.26 2.64 4.37 5.9 2.49s5.9-6 5.9-9.3-2.64-4.37-5.9-2.49-5.9 6.04-5.9 9.3z" fill="url(#Ѕезым_нный_градиент_40-2)"/><path id="_Контур_117" data-name="&lt;Контур&gt;" class="cls-34" d="M58.88 69.65c0 3.26 2.64 4.37 5.9 2.49s5.9-6 5.9-9.3-2.64-4.37-5.9-2.49-5.9 6.04-5.9 9.3z"/><path id="_Контур_118" data-name="&lt;Контур&gt;" d="M70.06 63.19c0 2.92-2.37 6.66-5.29 8.35s-5.29.68-5.29-2.24a5.56 5.56 0 01.09-1 11.45 11.45 0 015.2-7.3c.21-.12.42-.23.63-.32 2.6-1.27 4.66-.2 4.66 2.51z" fill="url(#Ѕезым_нный_градиент_34-3)"/><path id="_Контур_119" data-name="&lt;Контур&gt;" class="cls-36" d="M67.49 62.88a8.28 8.28 0 01-4 6.31 4.62 4.62 0 01-1.17.51 2 2 0 01-2.61-1 1.65 1.65 0 01-.13-.39 7.72 7.72 0 01.29-1.2A11.88 11.88 0 0164 61.45a8.68 8.68 0 01.75-.5l.53-.27.1-.05c1.25-.05 2.09.76 2.11 2.25z"/><path id="_Контур_120" data-name="&lt;Контур&gt;" d="M67.13 62.33c0 2.17-2.74 6.12-4.92 7.41h-.09a.93.93 0 01-.28-.09h-.11a13.72 13.72 0 01-2-.89 1.65 1.65 0 01-.13-.39 7.72 7.72 0 01.29-1.2A11.88 11.88 0 0164 61.45a8.68 8.68 0 01.75-.5l.53-.27a13.61 13.61 0 011.6 1.4z" fill="url(#Ѕезым_нный_градиент_34-4)"/><path id="_Контур_121" data-name="&lt;Контур&gt;" class="cls-9" d="M67.64 63.78a7.16 7.16 0 01-3.45 5.45c-1.9 1.1-3.45.44-3.45-1.46a3.63 3.63 0 01.06-.65 7.47 7.47 0 013.39-4.8l.41-.21c1.71-.79 3.04-.11 3.04 1.67z"/><path id="_Контур_122" data-name="&lt;Контур&gt;" d="M66 64.92a3.49 3.49 0 01-1.68 2.65c-.93.53-1.68.22-1.68-.71a1.77 1.77 0 010-.32 3.64 3.64 0 011.65-2.34l.2-.1c.86-.38 1.51-.04 1.51.82z" fill="url(#Ѕезым_нный_градиент_34-5)"/><path id="_Контур_123" data-name="&lt;Контур&gt;" class="cls-36" d="M64.56 65.15a1.4 1.4 0 01-.67 1.06c-.37.21-.67.09-.67-.28a.71.71 0 010-.13 1.46 1.46 0 01.66-.94h.08c.34-.19.6-.06.6.29z"/></g><g id="_Группа_25" data-name="&lt;Группа&gt;"><path id="_Контур_124" data-name="&lt;Контур&gt;" d="M25 77.14a5 5 0 002 4.43c1.63 1.09 5.12 3 5.12 3C37 81.72 46.62 71.88 46.62 67c0-2.13-4.59-3.75-5.85-4.56-1.63-1-4.1-.89-6.88.71C29 66 25 72.24 25 77.14z" fill="url(#Ѕезым_нный_градиент_35-4)"/><path id="_Контур_125" data-name="&lt;Контур&gt;" class="cls-32" d="M29.81 79.95c0 4.91 4 6.59 8.88 3.76s8.88-9.11 8.88-14-4-6.59-8.88-3.76-8.88 9.05-8.88 14z"/><path id="_Контур_126" data-name="&lt;Контур&gt;" d="M30.68 80.35a5 5 0 001.94 4.43c1.63 1.09 5.12 3 5.12 3 4.91-2.83 14.54-12.67 14.54-17.58 0-2.13-4.59-3.75-5.85-4.56-1.63-1-4.1-.89-6.88.71-4.89 2.82-8.87 9.09-8.87 14z" fill="url(#Ѕезым_нный_градиент_35-5)"/><path id="_Контур_127" data-name="&lt;Контур&gt;" class="cls-32" d="M35.49 83.15c0 4.91 4 6.59 8.88 3.76s8.88-9.11 8.88-14-4-6.59-8.88-3.76-8.88 9.09-8.88 14z"/><path id="_Контур_128" data-name="&lt;Контур&gt;" d="M38.11 81.16c0 3.26 2.64 4.37 5.9 2.49s5.9-6 5.9-9.3S47.26 70 44 71.86s-5.89 6.04-5.89 9.3z" fill="url(#Ѕезым_нный_градиент_40-3)"/><path id="_Контур_129" data-name="&lt;Контур&gt;" class="cls-34" d="M38.48 81.42c0 3.26 2.64 4.37 5.9 2.49s5.9-6 5.9-9.3-2.64-4.37-5.9-2.49-5.9 6.05-5.9 9.3z"/><path id="_Контур_130" data-name="&lt;Контур&gt;" d="M49.66 75c0 2.92-2.37 6.66-5.29 8.35s-5.29.68-5.29-2.24a5.55 5.55 0 01.09-1 11.45 11.45 0 015.2-7.36c.21-.12.42-.23.63-.32 2.63-1.24 4.66-.18 4.66 2.57z" fill="url(#Ѕезым_нный_градиент_34-6)"/><path id="_Контур_131" data-name="&lt;Контур&gt;" class="cls-36" d="M47.09 74.66a8.28 8.28 0 01-4 6.31 4.62 4.62 0 01-1.17.51 2 2 0 01-2.61-1 1.64 1.64 0 01-.13-.39 7.71 7.71 0 01.29-1.2 11.88 11.88 0 014.16-5.66 8.7 8.7 0 01.75-.5l.53-.27.1-.05c1.22-.05 2.06.76 2.08 2.25z"/><path id="_Контур_132" data-name="&lt;Контур&gt;" d="M46.73 74.11c0 2.17-2.74 6.12-4.92 7.41h-.09a.93.93 0 01-.28-.09h-.11a13.73 13.73 0 01-2-.89 1.64 1.64 0 01-.13-.39 7.71 7.71 0 01.29-1.2 11.88 11.88 0 014.16-5.66 8.7 8.7 0 01.75-.5l.53-.27a13.59 13.59 0 011.6 1.4z" fill="url(#Ѕезым_нный_градиент_34-7)"/><path id="_Контур_133" data-name="&lt;Контур&gt;" class="cls-9" d="M47.23 75.56A7.16 7.16 0 0143.78 81c-1.9 1.1-3.45.44-3.45-1.46a3.63 3.63 0 01.06-.65 7.47 7.47 0 013.39-4.8l.41-.21c1.72-.78 3.04-.09 3.04 1.68z"/><path id="_Контур_134" data-name="&lt;Контур&gt;" d="M45.59 76.7a3.49 3.49 0 01-1.68 2.65c-.93.53-1.68.22-1.68-.71a1.76 1.76 0 010-.32A3.64 3.64 0 0143.91 76l.2-.1c.84-.4 1.48-.06 1.48.8z" fill="url(#Ѕезым_нный_градиент_34-8)"/><path id="_Контур_135" data-name="&lt;Контур&gt;" class="cls-36" d="M44.16 76.93a1.4 1.4 0 01-.68 1.07c-.37.21-.67.09-.67-.28a.7.7 0 010-.13 1.46 1.46 0 01.66-.94h.08c.35-.2.61-.07.61.28z"/></g></g><g id="_Группа_26" data-name="&lt;Группа&gt;"><g id="_Группа_27" data-name="&lt;Группа&gt;"><path id="_Контур_136" data-name="&lt;Контур&gt;" d="M67.15 55.15c-.21-2.07-.32.16-.32.16-2.38-1.56-7.81-5-7.84-5l-.46-1.45c.17-.05 4.22-1.31 7.21.65a5.81 5.81 0 01.59.45c.64.55 7.49 4.24 7.88 5s-5.67-1.14-5.55 0z" fill="#d84e42"/></g><path id="_Контур_137" data-name="&lt;Контур&gt;" class="cls-62" d="M68.66 55L75 60.16a2.49 2.49 0 00-.23-3c-1.26-1.69-4-3.11-4.71-2.79z"/><g id="_Группа_28" data-name="&lt;Группа&gt;"><path id="_Контур_138" data-name="&lt;Контур&gt;" class="cls-50" d="M75 60.16a5.6 5.6 0 00-2.24-4.38c-2.38-1.56-5.89-.49-5.93-.47l-.46-1.45c.17-.05 4.22-1.31 7.21.65A7 7 0 0176.51 60z"/></g><path id="_Контур_139" data-name="&lt;Контур&gt;" class="cls-76" d="M66.37 53.86l-7.84-5.01.46 1.44 7.84 5.02-.46-1.45z"/></g><path id="_Контур_140" data-name="&lt;Контур&gt;" class="cls-77" d="M30.53 85.38l20.3 11.36 54-37.49-20.3-12.4-45.42 26.22-8.58 8.17v4.14z"/><path id="_Контур_141" data-name="&lt;Контур&gt;" class="cls-78" d="M39.11 73.07l20.3 12.33-8.58 8.22-20.3-12.38 8.58-8.17z"/><path id="_Контур_142" data-name="&lt;Контур&gt;" fill="#333" d="M52.48 94.69L32.17 82.31v4.14l20.31 12.39v-4.15z"/><path id="_Контур_143" data-name="&lt;Контур&gt;" class="cls-23" d="M50.83 97.77l54-31.75v-6.78L59.41 85.4l-8.58 8.22v4.15z"/><g id="_Группа_29" data-name="&lt;Группа&gt;"><path id="_Контур_144" data-name="&lt;Контур&gt;" d="M77 83.87a5 5 0 002 4.42c1.63 1.09 5.12 3 5.12 3C89 88.44 98.65 78.6 98.65 73.7c0-2.13-4.59-3.75-5.85-4.56-1.63-1-4.1-.89-6.88.71C81 72.69 77 79 77 83.87z" fill="url(#Ѕезым_нный_градиент_35-6)"/><path id="_Контур_145" data-name="&lt;Контур&gt;" class="cls-32" d="M81.85 86.67c0 4.91 4 6.59 8.88 3.76s8.88-9.11 8.88-14-4-6.59-8.88-3.76-8.88 9.09-8.88 14z"/><path id="_Контур_146" data-name="&lt;Контур&gt;" d="M82.71 87.07a5 5 0 001.94 4.43c1.63 1.09 5.12 3 5.12 3 4.91-2.83 14.54-12.67 14.54-17.58 0-2.13-4.59-3.75-5.85-4.56-1.63-1-4.1-.89-6.88.71-4.89 2.82-8.87 9.09-8.87 14z" fill="url(#Ѕезым_нный_градиент_35-7)"/><path id="_Контур_147" data-name="&lt;Контур&gt;" class="cls-32" d="M87.52 89.87c0 4.91 4 6.59 8.88 3.76s8.88-9.11 8.88-14-4-6.59-8.88-3.76-8.88 9.13-8.88 14z"/><path id="_Контур_148" data-name="&lt;Контур&gt;" d="M90.14 87.88c0 3.26 2.64 4.37 5.9 2.49s5.9-6 5.9-9.3S99.3 76.7 96 78.58s-5.86 6.04-5.86 9.3z" fill="url(#Ѕезым_нный_градиент_40-4)"/><path id="_Контур_149" data-name="&lt;Контур&gt;" class="cls-34" d="M90.51 88.15c0 3.26 2.64 4.37 5.9 2.49s5.9-6 5.9-9.3-2.65-4.34-5.91-2.49-5.89 6.04-5.89 9.3z"/><path id="_Контур_150" data-name="&lt;Контур&gt;" d="M101.69 81.69c0 2.92-2.37 6.66-5.29 8.35s-5.29.68-5.29-2.24a5.55 5.55 0 01.09-1 11.45 11.45 0 015.2-7.36c.21-.12.42-.23.63-.32 2.63-1.21 4.66-.12 4.66 2.57z" fill="url(#Ѕезым_нный_градиент_34-9)"/><path id="_Контур_151" data-name="&lt;Контур&gt;" class="cls-36" d="M99.12 81.38a8.28 8.28 0 01-4 6.31 4.62 4.62 0 01-1.17.51 2 2 0 01-2.61-1 1.64 1.64 0 01-.13-.39 7.71 7.71 0 01.29-1.2 11.88 11.88 0 014.16-5.66 8.71 8.71 0 01.75-.5l.53-.27.1-.05c1.22-.05 2.06.76 2.08 2.25z"/><path id="_Контур_152" data-name="&lt;Контур&gt;" d="M98.76 80.83c0 2.17-2.74 6.12-4.92 7.41h-.09a.93.93 0 01-.28-.09h-.11a13.71 13.71 0 01-2-.89 1.64 1.64 0 01-.13-.39 7.71 7.71 0 01.29-1.2 11.88 11.88 0 014.16-5.66 8.71 8.71 0 01.75-.5l.53-.27a13.59 13.59 0 011.6 1.4z" fill="url(#Ѕезым_нный_градиент_16-2)"/><path id="_Контур_153" data-name="&lt;Контур&gt;" class="cls-9" d="M99.27 82.28a7.16 7.16 0 01-3.45 5.45c-1.9 1.1-3.45.44-3.45-1.46a3.62 3.62 0 01.06-.65 7.47 7.47 0 013.39-4.8l.41-.21c1.71-.79 3.04-.1 3.04 1.67z"/><path id="_Контур_154" data-name="&lt;Контур&gt;" d="M97.63 83.42a3.49 3.49 0 01-1.68 2.65c-.93.53-1.68.22-1.68-.71a1.77 1.77 0 010-.32 3.64 3.64 0 011.65-2.34l.2-.1c.88-.38 1.51-.04 1.51.82z" fill="url(#Ѕезым_нный_градиент_34-10)"/><path id="_Контур_155" data-name="&lt;Контур&gt;" class="cls-36" d="M96.19 83.65a1.4 1.4 0 01-.67 1.06c-.37.21-.67.09-.67-.28a.7.7 0 010-.13 1.46 1.46 0 01.66-.94h.08c.34-.19.6-.06.6.29z"/></g><g id="_Группа_30" data-name="&lt;Группа&gt;"><g id="_Группа_31" data-name="&lt;Группа&gt;"><path id="_Контур_156" data-name="&lt;Контур&gt;" class="cls-46" d="M97 72.4c-.21-2.07-.32.16-.32.16-2.38-1.56-7.81-5-7.84-5l-.44-1.46c.17-.05 4.22-1.31 7.21.65a5.81 5.81 0 01.59.45c.64.55 7.49 4.24 7.88 5s-5.67-1.14-5.55 0z"/></g><g id="_Группа_32" data-name="&lt;Группа&gt;"><path id="_Контур_157" data-name="&lt;Контур&gt;" class="cls-39" d="M104.87 77.42a5.6 5.6 0 00-2.24-4.42c-2.38-1.56-5.89-.49-5.93-.47l-.46-1.45c.17-.05 4.22-1.31 7.21.65a7 7 0 012.92 5.5z"/></g><path id="_Контур_158" data-name="&lt;Контур&gt;" class="cls-76" d="M96.24 71.11L88.4 66.1l.46 1.45 7.84 5.01-.46-1.45z"/></g><g id="_Группа_33" data-name="&lt;Группа&gt;"><path id="_Контур_159" data-name="&lt;Контур&gt;" fill="#a4a4a4" d="M53.18 65.64L75.2 52.92l12.61 7.17L65.78 72.8l-12.6-7.16z"/><ellipse id="_Контур_160" data-name="&lt;Контур&gt;" class="cls-77" cx="70.85" cy="60.96" rx="7.51" ry="4.89"/><path id="_Контур_161" data-name="&lt;Контур&gt;" class="cls-78" d="M65.1 72.46l22.02-12.72 1.33 2.62-24.68 14.25 1.33-4.15z"/><path id="_Контур_162" data-name="&lt;Контур&gt;" class="cls-23" d="M52.49 65.3l12.61 7.16-1.33 4.15-12.6-7.16 1.32-4.15z"/><g id="_Группа_34" data-name="&lt;Группа&gt;"><path id="_Контур_163" data-name="&lt;Контур&gt;" d="M66.81 60.19v2.15c0 1.45 1.81 2.63 4 2.63s4-1.18 4-2.63v-2.28z" fill="url(#Ѕезым_нный_градиент_28)"/><path id="_Контур_164" data-name="&lt;Контур&gt;" d="M63.34 58.16v1c0 2.7 3.36 4.89 7.51 4.89s7.51-2.19 7.51-4.89v-1.2z" fill="url(#Ѕезым_нный_градиент_34-11)"/><ellipse id="_Контур_165" data-name="&lt;Контур&gt;" cx="70.85" cy="58.16" rx="7.51" ry="4.89" fill="#bbb"/></g></g><g id="_Группа_35" data-name="&lt;Группа&gt;"><path id="_Контур_166" data-name="&lt;Контур&gt;" d="M56.64 95.64a5 5 0 001.94 4.43c1.63 1.09 5.12 3 5.12 3 4.91-2.83 14.54-12.67 14.54-17.58 0-2.13-4.59-3.75-5.85-4.56-1.63-1-4.1-.89-6.88.71-4.9 2.82-8.87 9.1-8.87 14z" fill="url(#Ѕезым_нный_градиент_35-8)"/><path id="_Контур_167" data-name="&lt;Контур&gt;" class="cls-32" d="M61.44 98.44c0 4.91 4 6.59 8.88 3.76s8.88-9.11 8.88-14-4-6.59-8.88-3.76-8.88 9.1-8.88 14z"/><path id="_Контур_168" data-name="&lt;Контур&gt;" d="M62.31 98.85a5 5 0 001.94 4.43c1.63 1.09 5.12 3 5.12 3 4.91-2.83 14.54-12.67 14.54-17.58 0-2.13-4.59-3.75-5.85-4.56-1.63-1-4.1-.89-6.88.71-4.89 2.82-8.87 9.09-8.87 14z" fill="url(#Ѕезым_нный_градиент_35-9)"/><path id="_Контур_169" data-name="&lt;Контур&gt;" class="cls-32" d="M67.12 101.65c0 4.91 4 6.59 8.88 3.76s8.88-9.11 8.88-14-4-6.59-8.88-3.76-8.88 9.09-8.88 14z"/><path id="_Контур_170" data-name="&lt;Контур&gt;" d="M69.74 99.66c0 3.26 2.64 4.37 5.9 2.49s5.9-6 5.9-9.3-2.64-4.37-5.9-2.49-5.9 6.04-5.9 9.3z" fill="url(#Ѕезым_нный_градиент_40-5)"/><path id="_Контур_171" data-name="&lt;Контур&gt;" class="cls-34" d="M70.1 99.92c0 3.26 2.64 4.37 5.9 2.49s5.9-6 5.9-9.3-2.64-4.37-5.9-2.49-5.9 6.05-5.9 9.3z"/><path id="_Контур_172" data-name="&lt;Контур&gt;" d="M81.29 93.47c0 2.92-2.37 6.66-5.29 8.35s-5.29.68-5.29-2.24a5.56 5.56 0 01.09-1 11.45 11.45 0 015.2-7.35c.21-.12.42-.23.63-.32 2.63-1.22 4.66-.16 4.66 2.56z" fill="url(#Ѕезым_нный_градиент_34-12)"/><path id="_Контур_173" data-name="&lt;Контур&gt;" class="cls-36" d="M78.72 93.16a8.28 8.28 0 01-4 6.31 4.62 4.62 0 01-1.17.51 2 2 0 01-2.61-1 1.64 1.64 0 01-.13-.39 7.72 7.72 0 01.29-1.2 11.88 11.88 0 014.16-5.66 8.68 8.68 0 01.75-.5l.53-.27.1-.05c1.22-.05 2.06.75 2.08 2.25z"/><path id="_Контур_174" data-name="&lt;Контур&gt;" d="M78.36 92.61c0 2.17-2.74 6.12-4.92 7.41h-.09a.93.93 0 01-.28-.09h-.11a13.71 13.71 0 01-2-.89 1.64 1.64 0 01-.13-.39 7.72 7.72 0 01.29-1.2 11.88 11.88 0 014.16-5.66 8.68 8.68 0 01.75-.5l.53-.27a13.61 13.61 0 011.6 1.4z" fill="url(#Ѕезым_нный_градиент_16-3)"/><path id="_Контур_175" data-name="&lt;Контур&gt;" class="cls-9" d="M78.86 94.06a7.16 7.16 0 01-3.45 5.45C73.51 100.6 72 99.95 72 98a3.62 3.62 0 010-.6 7.47 7.47 0 013.39-4.8l.41-.21c1.74-.79 3.06-.1 3.06 1.67z"/><path id="_Контур_176" data-name="&lt;Контур&gt;" d="M77.22 95.2a3.49 3.49 0 01-1.68 2.65c-.93.53-1.68.22-1.68-.71a1.77 1.77 0 010-.32 3.64 3.64 0 011.65-2.34l.2-.1c.87-.38 1.51-.04 1.51.82z" fill="url(#Ѕезым_нный_градиент_34-13)"/><path id="_Контур_177" data-name="&lt;Контур&gt;" class="cls-36" d="M75.78 95.43a1.4 1.4 0 01-.67 1.06c-.37.21-.67.09-.67-.28a.71.71 0 010-.13 1.46 1.46 0 01.66-.94h.08c.35-.19.6-.06.6.29z"/></g><g id="_Группа_36" data-name="&lt;Группа&gt;"><path id="_Контур_178" data-name="&lt;Контур&gt;" class="cls-28" d="M53.93 97.29l1.83-.94L23 76.8l-1.83.94 32.76 19.55z"/><path id="_Контур_179" data-name="&lt;Контур&gt;" fill="#888" d="M53.93 102.49l1.83-.95v-5.19l-1.83.94v5.2z"/><path id="_Контур_180" data-name="&lt;Контур&gt;" class="cls-97" d="M21.17 77.74l32.76 19.55v5.2L21.17 82.93v-5.19z"/><g id="_Группа_37" data-name="&lt;Группа&gt;"><g id="_Группа_38" data-name="&lt;Группа&gt;"><path id="_Контур_181" data-name="&lt;Контур&gt;" class="cls-98" d="M21.53 79.63l1.11-.59-1.24-.72-1.11.6 1.24.71z"/><path id="_Контур_182" data-name="&lt;Контур&gt;" class="cls-99" d="M21.53 83.88l1.11-.6v-4.24l-1.11.59v4.25z"/><path id="_Контур_183" data-name="&lt;Контур&gt;" class="cls-100" d="M20.29 78.92l1.24.71v4.25l-1.24-.72v-4.24z"/></g><g id="_Группа_39" data-name="&lt;Группа&gt;"><path id="_Контур_184" data-name="&lt;Контур&gt;" class="cls-101" d="M22.76 80.33l1.11-.6-1.24-.71-1.11.59 1.24.72z"/><path id="_Контур_185" data-name="&lt;Контур&gt;" class="cls-99" d="M22.76 84.57l1.11-.59v-4.25l-1.11.6v4.24z"/><path id="_Контур_186" data-name="&lt;Контур&gt;" class="cls-102" d="M21.52 79.61l1.24.72v4.24l-1.24-.72v-4.24z"/></g><g id="_Группа_40" data-name="&lt;Группа&gt;"><path id="_Контур_187" data-name="&lt;Контур&gt;" class="cls-103" d="M25.73 82.05l1.11-.59-2.96-1.73-1.11.6 2.96 1.72z"/><path id="_Контур_188" data-name="&lt;Контур&gt;" fill="#b32b2b" d="M25.73 86.29l1.11-.59v-4.24l-1.11.59v4.24z"/><path id="_Контур_189" data-name="&lt;Контур&gt;" class="cls-105" d="M22.77 80.33l2.96 1.72v4.24l-2.96-1.72v-4.24z"/></g></g></g><g id="_Группа_41" data-name="&lt;Группа&gt;"><path id="_Контур_190" data-name="&lt;Контур&gt;" class="cls-27" d="M100.13 35.64l-1.66 10.19v8.9l-1.6.89-1.56 7.24 7.65-4.56-1.17-23.62-1.66.96z"/><path id="_Контур_191" data-name="&lt;Контур&gt;" class="cls-7" d="M79.8 43.93l18.67 10.8-1.6.89L78.2 44.83l1.6-.9z"/><path id="_Контур_192" data-name="&lt;Контур&gt;" class="cls-97" d="M79.8 43.93l18.67 10.8v-8.9L79.8 35.04v8.89z"/><path id="_Контур_193" data-name="&lt;Контур&gt;" fill="#878983" d="M81.47 24.86l18.66 10.79-1.66 10.18L79.8 35.04l1.67-10.18z"/><path id="_Контур_194" data-name="&lt;Контур&gt;" class="cls-97" d="M76.54 51.65L95.39 62.8l1.48-7.18L78.2 44.83l-1.66 6.82z"/><path id="_Контур_195" data-name="&lt;Контур&gt;" class="cls-7" d="M101.79 34.68l-1.66.97-18.66-10.79 1.66-.97 18.66 10.79z"/></g><g id="_Группа_42" data-name="&lt;Группа&gt;"><g id="_Группа_43" data-name="&lt;Группа&gt;"><path id="_Контур_196" data-name="&lt;Контур&gt;" class="cls-103" d="M49.5 96.39l1.11-.59-2.97-1.72-1.11.59 2.97 1.72z"/><path id="_Контур_197" data-name="&lt;Контур&gt;" class="cls-99" d="M49.5 100.64l1.11-.59V95.8l-1.11.59v4.25z"/><path id="_Контур_198" data-name="&lt;Контур&gt;" class="cls-105" d="M46.53 94.67l2.97 1.72v4.25l-2.97-1.72v-4.25z"/></g><g id="_Группа_44" data-name="&lt;Группа&gt;"><path id="_Контур_199" data-name="&lt;Контур&gt;" class="cls-101" d="M50.71 97.09l1.11-.59-1.24-.72-1.11.59 1.24.72z"/><path id="_Контур_200" data-name="&lt;Контур&gt;" class="cls-99" d="M50.71 101.33l1.11-.59V96.5l-1.11.59v4.24z"/><path id="_Контур_201" data-name="&lt;Контур&gt;" class="cls-102" d="M49.47 96.37l1.24.72v4.24l-1.24-.71v-4.25z"/></g><g id="_Группа_45" data-name="&lt;Группа&gt;"><path id="_Контур_202" data-name="&lt;Контур&gt;" class="cls-98" d="M51.89 97.77l1.11-.59-1.24-.71-1.11.59 1.24.71z"/><path id="_Контур_203" data-name="&lt;Контур&gt;" class="cls-99" d="M51.89 102.02l1.11-.6v-4.24l-1.11.59v4.25z"/><path id="_Контур_204" data-name="&lt;Контур&gt;" class="cls-100" d="M50.65 97.06l1.24.71v4.25l-1.24-.72v-4.24z"/></g></g><g id="_Группа_46" data-name="&lt;Группа&gt;"><path id="_Контур_205" data-name="&lt;Контур&gt;" d="M37.34 93.52a2.13 2.13 0 01-1-1.64v-3c0-.59.44-.81 1-.5l7.27 4.25a2.13 2.13 0 011 1.64v3c0 .59-.44.81-1 .5z" fill="#f9fcfc"/><path id="_Контур_206" data-name="&lt;Контур&gt;" d="M37.06 93.61a2.13 2.13 0 01-1-1.64V89c0-.59.44-.81 1-.5l7.27 4.25a2.13 2.13 0 011 1.64v3c0 .59-.44.81-1 .5z" fill="#e0e0e0"/><path id="_Контур_207" data-name="&lt;Контур&gt;" d="M44.33 97.66l-7.27-4.25a1.73 1.73 0 01-.8-1.34v-3c0-.48.36-.66.8-.4l7.27 4.25a1.73 1.73 0 01.8 1.34v3c-.01.48-.36.66-.8.4z" fill="#f8ffff"/><g id="_Группа_47" data-name="&lt;Группа&gt;"><path id="_Контур_208" data-name="&lt;Контур&gt;" class="cls-110" d="M45.12 94.22a1.73 1.73 0 00-.79-1.31l-7.27-4.25c-.43-.25-.78-.08-.79.39z"/><path id="_Контур_209" data-name="&lt;Контур&gt;" class="cls-110" d="M36.26 92.1a1.73 1.73 0 00.79 1.31l7.27 4.25c.43.25.78.08.79-.39z"/></g></g><g id="_Группа_48" data-name="&lt;Группа&gt;"><path id="_Контур_210" data-name="&lt;Контур&gt;" d="M116.16 50.68a1.15 1.15 0 01-1.16-1.15V37.44a1.7 1.7 0 01.85-1.47l2.38-1.37a1.15 1.15 0 011.73 1v12.08a1.7 1.7 0 01-.85 1.47l-2.38 1.37a1.16 1.16 0 01-.57.16z" fill="#981500"/><path id="_Контур_211" data-name="&lt;Контур&gt;" class="cls-39" d="M119 48.8l-2.38 1.37a.75.75 0 01-1.12-.65V37.44a1.29 1.29 0 01.65-1.12l2.38-1.37a.75.75 0 011.12.65v12.08a1.29 1.29 0 01-.65 1.12z"/></g><g id="_Группа_49" data-name="&lt;Группа&gt;"><path id="_Контур_212" data-name="&lt;Контур&gt;" class="cls-42" d="M109.42 10.26l-.81.52c-.22.14-.24.38-.47.25l-.36-.29c-.25-.14-.52-.67-.28-.82l.81-.51c.22-.14 1.1-.53 1.33-.39h.09c.27.18-.07 1.09-.31 1.24z"/><path id="_Контур_213" data-name="&lt;Контур&gt;" class="cls-43" d="M110.57 10.37l-1.29.82a.8.8 0 01-.82 0l-.31-.18c-.28-.16.09-1.31.35-1.47l.92-.08c.25-.15.63-.55.89-.4l.21.16a.9.9 0 01.05 1.15z"/><path id="_Контур_214" data-name="&lt;Контур&gt;" class="cls-44" d="M110.25 9.65l-.81.52a.71.71 0 01-.73 0h-.1a.38.38 0 010-.65l.79-.52a.71.71 0 01.73 0h.09a.38.38 0 01.03.65z"/></g><g id="_Группа_50" data-name="&lt;Группа&gt;"><path id="_Контур_215" data-name="&lt;Контур&gt;" class="cls-42" d="M117.14 14.3l-.81.52c-.22.14-.24.38-.47.25l-.36-.29c-.25-.14-.52-.67-.28-.82l.81-.51c.22-.14 1.1-.53 1.33-.39h.09c.26.18-.07 1.09-.31 1.24z"/><path id="_Контур_216" data-name="&lt;Контур&gt;" class="cls-43" d="M118.29 14.41l-1.29.82a.8.8 0 01-.82 0l-.31-.18c-.28-.16.09-1.31.35-1.47l.92-.08c.25-.15.63-.55.89-.4l.21.16a.9.9 0 01.05 1.15z"/><path id="_Контур_217" data-name="&lt;Контур&gt;" class="cls-44" d="M118 13.69l-.81.52a.71.71 0 01-.73 0h-.1a.38.38 0 010-.65l.81-.51a.71.71 0 01.73 0h.09a.38.38 0 01.01.64z"/></g><g id="_Группа_51" data-name="&lt;Группа&gt;"><path id="_Контур_218" data-name="&lt;Контур&gt;" class="cls-43" d="M153.15 28.45l-.73.36a.59.59 0 00-.32.53v.27a.34.34 0 00.48.31l.73-.37a.59.59 0 00.32-.53v-.27a.34.34 0 00-.48-.3z"/><path id="_Контур_219" data-name="&lt;Контур&gt;" class="cls-44" d="M153.34 28.63l-.73.36a.59.59 0 00-.32.53v.27a.34.34 0 00.48.31l.73-.37a.59.59 0 00.32-.53v-.27a.34.34 0 00-.48-.3z"/></g></g></g></g></g></svg>