<svg xmlns="http://www.w3.org/2000/svg" xmlns:xlink="http://www.w3.org/1999/xlink" viewBox="0 0 141.98 110.59"><defs><linearGradient id="Ѕезым_нный_градиент_34-4" x1="56.67" y1="-16538.44" x2="55.03" y2="-16541.28" xlink:href="#Ѕезым_нный_градиент_34"/><linearGradient id="Ѕезым_нный_градиент_2" x1="43.51" y1="-16551.12" x2="91.92" y2="-16467.27" gradientTransform="matrix(1 0 0 -1 0 -16440.1)" gradientUnits="userSpaceOnUse"><stop offset="0" stop-color="#ededed"/><stop offset="1" stop-color="#e6e6e6"/></linearGradient><linearGradient id="Ѕезым_нный_градиент_35" x1="117.8" y1="-16496.46" x2="109.07" y2="-16511.58" gradientTransform="matrix(1 0 0 -1 0 -16440.1)" gradientUnits="userSpaceOnUse"><stop offset=".13" stop-color="#68737b"/><stop offset=".13" stop-color="#6c7880"/><stop offset=".44" stop-color="#6c7880"/><stop offset=".44" stop-color="#50585e"/><stop offset=".84" stop-color="#50585e"/><stop offset=".84" stop-color="#3b4145"/></linearGradient><linearGradient id="Ѕезым_нный_градиент_40" x1="118.75" y1="-16500.48" x2="113" y2="-16510.42" gradientTransform="matrix(1 0 0 -1 0 -16440.1)" gradientUnits="userSpaceOnUse"><stop offset=".13" stop-color="#dbe0e3"/><stop offset=".13" stop-color="#e0e5e8"/><stop offset=".44" stop-color="#e0e5e8"/><stop offset=".44" stop-color="#c0c4c6"/><stop offset=".84" stop-color="#c0c4c6"/><stop offset=".84" stop-color="#a8abad"/></linearGradient><linearGradient id="Ѕезым_нный_градиент_34" x1="118.68" y1="-16501.26" x2="113.55" y2="-16510.14" gradientTransform="matrix(1 0 0 -1 0 -16440.1)" gradientUnits="userSpaceOnUse"><stop offset=".16" stop-color="#797b7d"/><stop offset=".16" stop-color="#919496"/><stop offset=".56" stop-color="#919496"/><stop offset=".56" stop-color="#b1b5b8"/><stop offset=".87" stop-color="#b1b5b8"/><stop offset=".87" stop-color="#acb0b3"/></linearGradient><linearGradient id="Ѕезым_нный_градиент_30" x1="116.95" y1="-16501.79" x2="113.37" y2="-16508.01" gradientTransform="matrix(1 0 0 -1 0 -16440.1)" gradientUnits="userSpaceOnUse"><stop offset=".13" stop-color="#acb0b3"/><stop offset=".13" stop-color="#b1b5b8"/><stop offset=".44" stop-color="#b1b5b8"/><stop offset=".44" stop-color="#919496"/><stop offset=".84" stop-color="#919496"/><stop offset=".84" stop-color="#797b7d"/></linearGradient><linearGradient id="Ѕезым_нный_градиент_34-2" x1="116.62" y1="-16503.97" x2="114.99" y2="-16506.81" xlink:href="#Ѕезым_нный_градиент_34"/><linearGradient id="Ѕезым_нный_градиент_35-2" x1="57.98" y1="-16531.01" x2="49.25" y2="-16546.13" xlink:href="#Ѕезым_нный_градиент_35"/><linearGradient id="Ѕезым_нный_градиент_40-2" x1="58.79" y1="-16534.95" x2="53.05" y2="-16544.89" xlink:href="#Ѕезым_нный_градиент_40"/><linearGradient id="Ѕезым_нный_градиент_34-3" x1="58.72" y1="-16535.73" x2="53.59" y2="-16544.61" xlink:href="#Ѕезым_нный_градиент_34"/><linearGradient id="Ѕезым_нный_градиент_30-2" x1="56.99" y1="-16536.27" x2="53.41" y2="-16542.48" xlink:href="#Ѕезым_нный_градиент_30"/><style>.cls-3{fill:#3a4044}.cls-4{fill:#727272}.cls-5{fill:#423131}.cls-7{fill:#424852}.cls-9{fill:#d7d9db}.cls-11{fill:#e3e5e6}.cls-13{fill:#d9dbdd}.cls-21{fill:#9f4b12}.cls-23{fill:#ed843e}.cls-30{fill:#73818e}.cls-31{fill:#99afba}.cls-33{fill:#e9b736}.cls-34{fill:#525c61}.cls-35{fill:#20232b}.cls-36{fill:#9faaab}.cls-38{fill:#e9be50}.cls-39{fill:#d2a329}.cls-40{fill:#bdcedf}.cls-41{fill:#e2e9ec}.cls-42{fill:#ff8118}.cls-46{fill:#4b4146}.cls-47{fill:#cf6621}.cls-48{fill:#ed9f51}.cls-49{fill:#bd7217}.cls-54{fill:#6bb5ff}.cls-55{fill:#dde2e6}.cls-59{fill:#ed8333}.cls-60{fill:#edbd51}.cls-61{fill:#cbe0e0}.cls-62{fill:#a6b8b6}.cls-63{fill:#859494}.cls-64{fill:#ff5440}.cls-66{fill:#e1b01b}</style></defs><g style="isolation:isolate"><g id="Слой_2" data-name="Слой 2"><g id="Layer_1" data-name="Layer 1"><g id="_Группа_" data-name="&lt;Группа&gt;"><path id="_Контур_" data-name="&lt;Контур&gt;" d="M142 56.55L71.06 15.13 13.84 48.61l3.63 2.09.31-.18 1.15.67-12.87 8.63S5.42 67 8.79 72.71l-1.22.23S1.39 79.76.26 82.18c-.51 1.09-.41 1.6 1.6 3.12l1 .74c.93.64 2 1.3 3 1.93h.06c.11.06.22.14.36.21h.07c1.07.63 2.16 1.25 3.22 1.82l1.2.63 1.28.66-1.32.76 30.17 16.61c3.49 1.92 6.54 2.68 10 .68z" style="mix-blend-mode:multiply" fill="url(#Ѕезым_нный_градиент_2)"/><g id="_Группа_2" data-name="&lt;Группа&gt;"><path id="_Контур_2" data-name="&lt;Контур&gt;" class="cls-3" d="M34.42 59a19.14 19.14 0 00.35-2.16 3.66 3.66 0 00-.13-2 3.3 3.3 0 00-1.58-1.46 1.23 1.23 0 00-1.08 0 34 34 0 00-.91 4.87 27.29 27.29 0 00-.23 3 9.75 9.75 0 00.05 2.68 1.91 1.91 0 00.86.93.61.61 0 00.46.15c.23-.06.3-.33.34-.56.16 0 1.23 1 1.34.79.33-.59-.62-2.06-.24-2.62s.87-.73 1-1.25a.6.6 0 00-.16-.68c-.22-.19-.48-.07-.37-.49s.22-.82.3-1.2z"/><path id="_Контур_3" data-name="&lt;Контур&gt;" class="cls-4" d="M66.35 96.69l-1.99-1.16-3.14-.53 5.13 3.01v-1.32z"/><path id="_Контур_4" data-name="&lt;Контур&gt;" class="cls-5" d="M119.56 61.83c0 .15 0 .31.06.46l1.38-.69 3.13 1.61c0-.15 0-.31-.06-.46l-.75-3.75c-.27-1.62-1.7-2.16-3.21-1.28l-1.22.71z"/><g id="_Группа_3" data-name="&lt;Группа&gt;"><path id="_Контур_5" data-name="&lt;Контур&gt;" d="M106.07 67.26a3.71 3.71 0 001.43 3.26c1.2.81 3.77 2.2 3.77 2.2 3.61-2.09 10.73-9.33 10.73-12.94 0-1.57-3.38-2.76-4.31-3.35-1.2-.77-3-.65-5.06.52-3.63 2.05-6.56 6.7-6.56 10.31z" fill="url(#Ѕезым_нный_градиент_35)"/><path id="_Контур_6" data-name="&lt;Контур&gt;" class="cls-7" d="M109.6 69.32c0 3.61 2.93 4.85 6.54 2.76s6.54-6.7 6.54-10.32-2.93-4.85-6.54-2.76-6.54 6.71-6.54 10.32z"/><path id="_Контур_7" data-name="&lt;Контур&gt;" d="M111.53 67.86c0 2.4 1.94 3.22 4.34 1.83s4.34-4.45 4.34-6.85-1.94-3.22-4.34-1.83-4.34 4.45-4.34 6.85z" fill="url(#Ѕезым_нный_градиент_40)"/><path id="_Контур_8" data-name="&lt;Контур&gt;" class="cls-9" d="M111.8 68.05c0 2.4 1.94 3.22 4.34 1.83s4.34-4.45 4.34-6.85-1.94-3.22-4.34-1.83-4.34 4.46-4.34 6.85z"/><path id="_Контур_9" data-name="&lt;Контур&gt;" d="M120 63.3a8.08 8.08 0 01-3.9 6.14c-2.14 1.24-3.9.5-3.9-1.65a4.09 4.09 0 01.07-.73 8.43 8.43 0 013.83-5.41l.46-.24c1.98-.89 3.44-.11 3.44 1.89z" fill="url(#Ѕезым_нный_градиент_34)"/><path id="_Контур_10" data-name="&lt;Контур&gt;" class="cls-11" d="M118.14 63.07a6.1 6.1 0 01-2.95 4.65 3.4 3.4 0 01-.86.37 1.46 1.46 0 01-1.92-.77 1.21 1.21 0 01-.1-.29 5.68 5.68 0 01.22-.89 8.75 8.75 0 013.06-4.14 6.4 6.4 0 01.55-.37l.39-.2h.07c.91-.05 1.53.57 1.54 1.64z"/><path id="_Контур_11" data-name="&lt;Контур&gt;" d="M117.88 62.67c0 1.59-2 4.51-3.62 5.45h-.07A.68.68 0 01114 68h-.08a10.1 10.1 0 01-1.47-.66 1.21 1.21 0 01-.1-.29 5.68 5.68 0 01.22-.89 8.75 8.75 0 013.02-4.16 6.4 6.4 0 01.55-.37l.39-.2a10 10 0 011.18 1z" fill="url(#Ѕезым_нный_градиент_30)"/><path id="_Контур_12" data-name="&lt;Контур&gt;" class="cls-13" d="M118.25 63.74a5.27 5.27 0 01-2.54 4c-1.4.81-2.54.33-2.54-1.07a2.68 2.68 0 010-.48 5.5 5.5 0 012.5-3.53l.3-.16c1.3-.58 2.28-.07 2.28 1.24z"/><path id="_Контур_13" data-name="&lt;Контур&gt;" d="M117 64.58a2.57 2.57 0 01-1.24 2c-.68.39-1.24.16-1.24-.52a1.3 1.3 0 010-.23 2.68 2.68 0 011.22-1.72L116 64c.57-.31 1-.06 1 .58z" fill="url(#Ѕезым_нный_градиент_34-2)"/><path id="_Контур_14" data-name="&lt;Контур&gt;" class="cls-11" d="M116 64.74a1 1 0 01-.5.78c-.27.16-.5.06-.5-.21a.52.52 0 010-.09 1.07 1.07 0 01.49-.69h.06c.24-.14.45-.04.45.21z"/></g><path id="_Контур_15" data-name="&lt;Контур&gt;" d="M59.83 94.32l-12.69 8.08s2.54-9 2.75-9.07 14.55-10.9 9.94.99z" fill="#2a313c"/><path id="_Контур_16" data-name="&lt;Контур&gt;" class="cls-5" d="M59.49 94.85c0 .15 0 .31.06.46l1.38-.69L64 96.23c0-.15 0-.32-.06-.46l-.7-3.77c-.27-1.62-1.7-2.16-3.21-1.28l-1.22.71z"/><g id="_Группа_4" data-name="&lt;Группа&gt;"><path id="_Контур_17" data-name="&lt;Контур&gt;" d="M47.3 100.92c0 1.55-.65 3.47.24 4.07 1.2.81 3.77 2.2 3.77 2.2C54.92 105.1 62 97.86 62 94.25c0-1.57-3.38-2.76-4.31-3.35-1.2-.77-3-.65-5.06.52a10.9 10.9 0 00-5.33 9.5z" fill="url(#Ѕезым_нный_градиент_35-2)"/><path id="_Контур_18" data-name="&lt;Контур&gt;" class="cls-7" d="M49.64 103.79c0 3.61 2.93 4.85 6.54 2.76s6.54-6.7 6.54-10.32-2.93-4.85-6.54-2.76-6.54 6.71-6.54 10.32z"/><path id="_Контур_19" data-name="&lt;Контур&gt;" d="M51.58 102.33c0 2.4 1.94 3.22 4.34 1.83s4.34-4.45 4.34-6.85-1.94-3.22-4.34-1.83-4.34 4.45-4.34 6.85z" fill="url(#Ѕезым_нный_градиент_40-2)"/><path id="_Контур_20" data-name="&lt;Контур&gt;" class="cls-9" d="M51.84 102.52c0 2.4 1.94 3.22 4.34 1.83s4.34-4.45 4.34-6.85-1.94-3.22-4.34-1.83-4.34 4.46-4.34 6.85z"/><path id="_Контур_21" data-name="&lt;Контур&gt;" d="M60.08 97.77a8.08 8.08 0 01-3.9 6.14c-2.14 1.24-3.9.5-3.9-1.65a4.09 4.09 0 01.07-.73 8.43 8.43 0 013.83-5.41l.46-.24c1.94-.88 3.44-.11 3.44 1.89z" fill="url(#Ѕезым_нный_градиент_34-3)"/><path id="_Контур_22" data-name="&lt;Контур&gt;" class="cls-11" d="M58.19 97.55a6.1 6.1 0 01-2.95 4.65 3.4 3.4 0 01-.86.37 1.46 1.46 0 01-1.92-.77 1.21 1.21 0 01-.1-.29 5.69 5.69 0 01.22-.89 8.75 8.75 0 013.06-4.16 6.42 6.42 0 01.55-.36l.39-.2h.07c.9-.05 1.52.54 1.54 1.65z"/><path id="_Контур_23" data-name="&lt;Контур&gt;" d="M57.92 97.14c0 1.59-2 4.51-3.62 5.45h-.07a.68.68 0 01-.21-.07h-.08a10.09 10.09 0 01-1.47-.66 1.21 1.21 0 01-.1-.29 5.69 5.69 0 01.22-.89 8.75 8.75 0 013.06-4.16 6.42 6.42 0 01.55-.36l.39-.2a10 10 0 011.18 1z" fill="url(#Ѕезым_нный_градиент_30-2)"/><path id="_Контур_24" data-name="&lt;Контур&gt;" class="cls-13" d="M58.29 98.21a5.27 5.27 0 01-2.54 4c-1.4.81-2.54.33-2.54-1.07a2.67 2.67 0 010-.48 5.5 5.5 0 012.5-3.53l.3-.16c1.31-.57 2.28-.06 2.28 1.24z"/><path id="_Контур_25" data-name="&lt;Контур&gt;" d="M57.09 99a2.57 2.57 0 01-1.24 2c-.68.39-1.24.16-1.24-.52a1.3 1.3 0 010-.23 2.68 2.68 0 011.22-1.72l.15-.08c.63-.29 1.11-.04 1.11.55z" fill="url(#Ѕезым_нный_градиент_34-4)"/><path id="_Контур_26" data-name="&lt;Контур&gt;" class="cls-11" d="M56 99.21a1 1 0 01-.5.78c-.27.16-.5.06-.5-.21a.52.52 0 010-.09 1.07 1.07 0 01.49-.69h.06c.29-.14.45 0 .45.21z"/></g><path id="_Контур_27" data-name="&lt;Контур&gt;" class="cls-21" d="M50.61 34.97l30.61 18.64v34.36L50.61 69.33V34.97z"/><path id="_Контур_28" data-name="&lt;Контур&gt;" fill="#ae571d" d="M50.07 36.21l30.87 17.8v-3.27l-30.87-17.8v3.27z"/><path id="_Контур_29" data-name="&lt;Контур&gt;" class="cls-23" d="M57.86 79.66L31.42 64.43l-.73.05s-8 4.84-10.43 7.59a6.09 6.09 0 00-1.71 4.14s7.4 6.94 26.45 15.24z"/><path id="_Контур_30" data-name="&lt;Контур&gt;" class="cls-21" d="M40.46 85.91A48.87 48.87 0 0147 79.67l3.14-2.3-16.78-9.86s-8.46 7.18-9.25 9.17 16.35 9.23 16.35 9.23z"/><path id="_Контур_31" data-name="&lt;Контур&gt;" d="M40.46 85.91A48.87 48.87 0 0147 79.67l3.14-2.3-16.78-9.86s-8.09 8-8.88 10 15.98 8.4 15.98 8.4z" fill="#de7123"/><path id="_Контур_32" data-name="&lt;Контур&gt;" d="M47.91 86.79L46 88.46c-19-8.3-26.39-15.23-26.39-15.23s0-.27.06-.41a6.34 6.34 0 00-1.11 3.4S25.95 83.15 45 91.45L48.8 88a4 4 0 01-.89-1.21z" fill="#c7621e"/><path id="_Контур_33" data-name="&lt;Контур&gt;" class="cls-7" d="M30.53 64.63a42.57 42.57 0 0010.7 8.66A145.17 145.17 0 0056.89 80l1-.34-26.47-15.23-.73.05z"/><path id="_Контур_34" data-name="&lt;Контур&gt;" class="cls-7" d="M57.86 79.65c2.94-7.7 5-15 5-15A91.21 91.21 0 0136.44 49.4a40.27 40.27 0 00-5 15s5.67 7.3 26.44 15.22z"/><path id="_Контур_35" data-name="&lt;Контур&gt;" d="M61.88 64.71c-.6 1.87-2 7.72-4.63 14.3C44.4 74.07 37.8 69.48 34.42 66.7c-.62-.5-1.12-.93-1.5-1.3-.54-.51-.87-.86-1-1.06a80.7 80.7 0 015-14.07l.46.37c.19.16.42.34.66.52 1.28 1 3.23 2.48 5.74 4.12l.81.53a90 90 0 0017.29 8.9z" fill="#538b94"/><path id="_Контур_36" data-name="&lt;Контур&gt;" d="M44.51 55.81a4.91 4.91 0 01-1.95 3.4l-5.07 3.89-1 2a2.61 2.61 0 01-1 1l-1 .57c-.62-.5-1.12-.93-1.5-1.3v-.35s1.44-8.16 3.81-13.23l1.2-.63c1.28 1 3.23 2.48 5.74 4.12z" fill="#b5d6c7"/><path id="_Контур_37" data-name="&lt;Контур&gt;" d="M18.56 76.22C25.59 82.5 45 91.45 45 91.45l-.12 9.73.34 4.71-26.72-17-.06-3.23z" fill="#d6770b"/><path id="_Контур_38" data-name="&lt;Контур&gt;" d="M18.48 76.86C29.25 85.33 44.94 92 44.94 92l-.13 7.85c-20.17-9.38-26.44-15.27-26.44-15.27l-.09-4.09z" fill="#272e39"/><path id="_Контур_39" data-name="&lt;Контур&gt;" class="cls-30" d="M42.94 97.07v.91c-4.72-2.2-16-7.79-23.28-13.53v-.94h.05c7.21 5.78 18.51 11.36 23.23 13.56z"/><path id="_Контур_40" data-name="&lt;Контур&gt;" class="cls-30" d="M42.94 95.36v.91c-4.72-2.2-16-7.79-23.28-13.53v-.94h.05c7.21 5.77 18.51 11.35 23.23 13.56z"/><path id="_Контур_41" data-name="&lt;Контур&gt;" class="cls-30" d="M42.94 93.64v.91c-4.72-2.21-16-7.79-23.28-13.53v-.94h.05c7.21 5.77 18.51 11.35 23.23 13.56z"/><path id="_Контур_42" data-name="&lt;Контур&gt;" class="cls-30" d="M42.94 91.87v.91c-4.72-2.2-16-7.79-23.28-13.53v-.87h.05c7.21 5.77 18.51 11.28 23.23 13.49z"/><g id="_Группа_5" data-name="&lt;Группа&gt;"><path id="_Контур_43" data-name="&lt;Контур&gt;" class="cls-31" d="M44.8 98.46v.91c-4.72-2.2-17.88-8.71-25.14-14.45l-1.32-1v-.94l1.34 1c7.24 5.77 20.4 12.28 25.12 14.48z"/><path id="_Контур_44" data-name="&lt;Контур&gt;" class="cls-31" d="M42.94 95.82v.91c-4.72-2.2-16-7.79-23.28-13.53v-.94h.05C26.92 88 38.22 93.62 42.94 95.82z"/><path id="_Контур_45" data-name="&lt;Контур&gt;" class="cls-31" d="M44.8 95v.91c-4.72-2.2-17.88-8.71-25.14-14.45 0 0-1.42-1-1.37-1v-.92l1.34 1C26.92 86.32 40.08 92.82 44.8 95z"/><path id="_Контур_46" data-name="&lt;Контур&gt;" class="cls-31" d="M42.94 92.33v.91c-4.72-2.2-16-7.79-23.28-13.53v-.94h.05c7.21 5.78 18.51 11.36 23.23 13.56z"/></g><path id="_Контур_47" data-name="&lt;Контур&gt;" d="M136.93 18.77v37l-1.87 1.08-9.38 5.41-1.55.89c0-.15 0-.31-.06-.47l-.22-1.12-.53-2.56c-.27-1.62-1.7-2.16-3.22-1.29l-7.82 4.52a7.52 7.52 0 00-3.21 5l-.52 3.27-.21 1.31-.07.55v.05l-1.55.89L81.21 88V51z" fill="#c2601b"/><path id="_Контур_48" data-name="&lt;Контур&gt;" class="cls-33" d="M136.93 42.17v13.65l-1.87 1.08-9.38 5.41-1.55.89c0-.15 0-.31-.06-.47l-.22-1.12-.53-2.61c-.27-1.62-1.7-2.16-3.22-1.29l-7.82 4.52a7.52 7.52 0 00-3.21 5l-.52 3.27-.21 1.31-.07.55v.05l-1.55.89L81.21 88V74.33z"/><path id="_Контур_49" data-name="&lt;Контур&gt;" class="cls-34" d="M106.96 70.58l1.6-.91-.22 1.31-.07.55v.05l-1.55.89-25.51 14.72-.99-.99.09-1.4.9.65 25.75-14.87z"/><path id="_Контур_50" data-name="&lt;Контур&gt;" class="cls-34" d="M136.93 50.41L140 52.3l-14.31 9.22-1.55.89c0-.15 0-.31-.06-.47l-.22-1.12 1.58-.91 11.5-6.65z"/><path id="_Контур_51" data-name="&lt;Контур&gt;" class="cls-35" d="M106.96 71.37l1.31.21v.78l-1.55.9-25.51 14.72-1.06-.64.11-1.8.95.69 25.75-14.86z"/><path id="_Контур_52" data-name="&lt;Контур&gt;" class="cls-35" d="M140 52.3V54l-14.31 8.26-1.55.89v-1.66l1.3-.83z"/><path id="_Контур_53" data-name="&lt;Контур&gt;" class="cls-33" d="M80.42 83.29l-.26 3.65-16.1 9.29c0-.15 0-.3-.06-.46l-.19-1-.35-1.72-.22-1.05c-.27-1.62-1.7-2.16-3.21-1.29l-7.82 4.52a7.52 7.52 0 00-3.21 5l-.72 4.44v.21a3.77 3.77 0 00-.05.45v.08l-.74.43.79-.58-3 1.74s-.15-1.14-.29-2.87c0-.6-.08-3.57-.12-4.28 0-.32 0-.66-.05-1v-3.28c0-1 .06-2 .14-3 0-.39.08-.75.12-1.11a6.08 6.08 0 011.71-4.14c2.39-2.76 11.16-7.65 11.16-7.65l5.91 1z"/><path id="_Контур_54" data-name="&lt;Контур&gt;" class="cls-36" d="M80.15 86.94l-15.66 9.03v-2.49l15.82-9.08-.16 2.54z"/><path id="_Контур_55" data-name="&lt;Контур&gt;" class="cls-33" d="M80.42 70.2v13.09l-15.25 8.62-1.17.64s.25-1.32-1.62-3.06c-1.5-1.39-4.13-3.06-5.19-4.77a3.59 3.59 0 01-.36-.75 2 2 0 010-1.16 32.78 32.78 0 011-3.16c2.93-7.69 5-15 5-15l11-10.35 3.66 1.5z"/><path id="_Контур_56" data-name="&lt;Контур&gt;" d="M80.42 70.2L63.78 80.61l-4.18 2.62-1.18.77-1.2.76-6.92 4.38-3.8 2.38-.8.27c0-.39-.74 0-.7-.34a6.08 6.08 0 011.71-4.14c2.39-2.76 11.16-7.65 11.16-7.65 2.93-7.69 5-15 5-15l11-10.35 3.66 1.5z" fill="#cd661f"/><path id="_Контур_57" data-name="&lt;Контур&gt;" class="cls-38" d="M63.45 93.07L63.24 92c-.27-1.62-1.7-2.16-3.21-1.29l-7.82 4.52a7.52 7.52 0 00-3.21 5l-.72 4.44-.68.44q0-.27.06-.58v-.24l-.28-4.29a8.1 8.1 0 011.83-5.79 6 6 0 011.58-1.37l8.52-4.92c1.41-.81 2.75-.51 3.3.69a2.37 2.37 0 01.21.7z"/><path id="_Контур_58" data-name="&lt;Контур&gt;" class="cls-39" d="M64.79 95.79l-.74.43c0-.15 0-.3-.06-.46l-.19-1-.35-1.72-.21-1.04c-.27-1.62-1.7-2.16-3.21-1.29l-7.82 4.52a7.52 7.52 0 00-3.21 5l-.72 4.44v.21a3.77 3.77 0 00-.05.45v.08l-.74.43c0-.18 0-.37.06-.57l.14-1 .69-5a8.23 8.23 0 013.51-5.44l8.53-4.92a2.64 2.64 0 012.22-.34 2.07 2.07 0 011.29 1.73l.66 4 .17 1c0 .16.01.33.03.49z"/><path id="_Контур_59" data-name="&lt;Контур&gt;" class="cls-40" d="M47.56 91v2a1.6 1.6 0 01-.79 1.38l-.63.37-.5.28a2.08 2.08 0 01-1.88.09l-4.25-1.93v-.92a20.27 20.27 0 01.14-2.08l.65.29 3.7 1.67a1.92 1.92 0 001.76-.09l.41-.23z"/><path id="_Контур_60" data-name="&lt;Контур&gt;" class="cls-41" d="M47.56 91v2a1.6 1.6 0 01-.14.66l-.53.3-.5.28a2.08 2.08 0 01-1.88.09l-4.25-1.93v-1.92L44 92.15a1.92 1.92 0 001.76-.09l.41-.23z"/><path id="_Контур_61" data-name="&lt;Контур&gt;" class="cls-40" d="M47.56 94.25v2.05a1.47 1.47 0 01-.12.6 1.51 1.51 0 01-.64.72l-.66.39-.5.28a2 2 0 01-1.88.08l-4.22-1.93v-2.92l.75.33L44 95.43a2 2 0 001.72-.1l.44-.25z"/><path id="_Контур_62" data-name="&lt;Контур&gt;" class="cls-41" d="M47.56 94.25v2.05a1.47 1.47 0 01-.12.6l-.55.32-.5.28a2 2 0 01-1.88.08l-4.22-1.93v-1.82l3.71 1.6a2 2 0 001.72-.1l.44-.25z"/><path id="_Контур_63" data-name="&lt;Контур&gt;" class="cls-42" d="M47.56 91v2a1.58 1.58 0 01-.79 1.38l-.63.37v-2.93z"/><path id="_Контур_64" data-name="&lt;Контур&gt;" class="cls-42" d="M47.56 94.25v2.05a1.51 1.51 0 01-.76 1.32l-.66.39v-2.94z"/><path id="_Контур_65" data-name="&lt;Контур&gt;" fill="#d36518" d="M80.94 54.01l57.03-32.93V17.8L80.94 50.74v3.27z"/><path id="_Контур_66" data-name="&lt;Контур&gt;" class="cls-23" d="M62.88 64.52l.07.06-.07.05s-16.23-5.94-26.44-15.22c0 0 13-9.53 14.83-8.7 11 5.1 24.35 13.83 26.23 15.07-2.22-.24-14.62 8.74-14.62 8.74z"/><path id="_Контур_67" data-name="&lt;Контур&gt;" class="cls-23" d="M50.07 32.94l30.87 17.8 57.03-32.94L107.11 0 50.07 32.94z"/><path id="_Контур_68" data-name="&lt;Контур&gt;" class="cls-40" d="M22.25 80.23v2.92l-4-2.81v-.05c0-1 .06-2 .14-3l.67.51z"/><path id="_Контур_69" data-name="&lt;Контур&gt;" class="cls-40" d="M22.25 83.48v2.93l-3.93-2.83v-2.91l.77.55z"/><path id="_Контур_70" data-name="&lt;Контур&gt;" class="cls-41" d="M22.25 80.23v1.59l-3.2-2.27v-.05c0-.55 0-1.11.05-1.67z"/><path id="_Контур_71" data-name="&lt;Контур&gt;" class="cls-41" d="M22.25 83.48v1.6l-3.17-2.29v-1.57z"/><path id="_Контур_72" data-name="&lt;Контур&gt;" class="cls-35" d="M43.11 103.61L16.83 87.94v2.65a2.54 2.54 0 001.13 2c8.92 6.83 25.14 14.68 25.14 14.68a3.7 3.7 0 003.71 0l1.78-.9v-3.64l-1.78.9a3.7 3.7 0 01-3.7-.02z"/><path id="_Контур_73" data-name="&lt;Контур&gt;" class="cls-34" d="M18.45 86.48v1.49c6.33 6.74 25.11 14.61 25.11 14.61a2.5 2.5 0 002.41.06l1.35-.51 1.29.59-1.8.92a3.66 3.66 0 01-3.66 0S27 97.32 17.24 88.65a.87.87 0 010-1.42z"/><path id="_Контур_74" data-name="&lt;Контур&gt;" class="cls-38" d="M121.86 56.69a3.67 3.67 0 011.41-.27 4 4 0 01.67.07l.58-.78a3.23 3.23 0 00-4.64-2.09L110.57 59a9 9 0 00-3.85 6l-.85 6.26.7.38.14 1.66.59-2.12.07-.55.21-1.31.52-3.27a7.52 7.52 0 013.21-5l7.82-4.52a2.07 2.07 0 012.73.16z"/><path id="_Контур_75" data-name="&lt;Контур&gt;" class="cls-39" d="M125.68 62.3l-1.55.89c0-.15 0-.31-.06-.47l-.22-1.12-.53-2.6c-.27-1.62-1.7-2.16-3.22-1.29l-7.82 4.52a7.52 7.52 0 00-3.21 5l-.52 3.27-.21 1.31-.07.55v.05l-1.55.89c0-.2 0-.41.07-.63l.17-1.26.73-5.24a9 9 0 013.85-6l9.31-5.38c1.81-1 3.51-.41 3.84 1.52l.73 4.4.18 1.06c.04.17.06.35.08.53z"/><g id="_Группа_6" data-name="&lt;Группа&gt;"><path id="_Контур_76" data-name="&lt;Контур&gt;" d="M62.71 81.25A1.29 1.29 0 0161.43 80v-1.32a28.65 28.65 0 013.38-14.12L74.27 60a1.54 1.54 0 012.27 1.36l1 6.18a5.32 5.32 0 01-2.05 4.18L67 77l-.93 2a2.91 2.91 0 01-1.18 1.28l-1.53.88a1.28 1.28 0 01-.65.09z" fill="#555d69"/><path id="_Контур_77" data-name="&lt;Контур&gt;" d="M75.3 71.27l-8.83 5.37-1 2.05a2.39 2.39 0 01-1 1l-1.48.85a.78.78 0 01-1.17-.68v-1.22s.9-9.87 3.21-13.58l9.44-4.51a1 1 0 011.53.91l1.08 6.07a4.73 4.73 0 01-1.78 3.74z" fill="#6ba9b0"/></g><g id="_Группа_7" data-name="&lt;Группа&gt;"><path id="_Контур_78" data-name="&lt;Контур&gt;" class="cls-46" d="M48.29 78.28l-.43.29a1.15 1.15 0 01-1 0l-4.54-2c-.57-.26-.62-.67-.12-.9l.42-.19a1.21 1.21 0 01.89 0l4.48 2c.55.19.66.52.3.8z"/><g id="_Группа_8" data-name="&lt;Группа&gt;"><path id="_Контур_79" data-name="&lt;Контур&gt;" class="cls-47" d="M46.32 78.48l.37.11 1.91-1.08-.3-.17-1.98 1.14z"/><path id="_Контур_80" data-name="&lt;Контур&gt;" class="cls-47" d="M45.35 78.12l.37.11 1.91-1.09-.3-.16-1.98 1.14z"/><path id="_Контур_81" data-name="&lt;Контур&gt;" class="cls-47" d="M44.39 77.75l.36.11 1.91-1.09-.3-.16-1.97 1.14z"/><path id="_Контур_82" data-name="&lt;Контур&gt;" class="cls-47" d="M43.42 77.38l.36.11 1.92-1.09-.3-.16-1.98 1.14z"/><path id="_Контур_83" data-name="&lt;Контур&gt;" class="cls-47" d="M42.52 76.98l.36.11L44.79 76l-.3-.16-1.97 1.14z"/><path id="_Контур_84" data-name="&lt;Контур&gt;" class="cls-47" d="M41.75 76.5l.37.11 1.91-1.09-.3-.16-1.98 1.14z"/></g></g><g id="_Группа_9" data-name="&lt;Группа&gt;"><path id="_Контур_85" data-name="&lt;Контур&gt;" class="cls-46" d="M32.27 69.19l.43-.27a.8.8 0 01.83.06l3.39 2.53a.52.52 0 01-.11 1l-.4.17a.83.83 0 01-.75-.09l-3.36-2.48c-.39-.29-.4-.69-.03-.92z"/><g id="_Группа_10" data-name="&lt;Группа&gt;"><path id="_Контур_86" data-name="&lt;Контур&gt;" class="cls-47" d="M34 69.12l-.29-.15L31.82 70l.22.19L34 69.12z"/><path id="_Контур_87" data-name="&lt;Контур&gt;" class="cls-47" d="M34.73 69.59l-.28-.15-1.89 1.03.21.19 1.96-1.07z"/><path id="_Контур_88" data-name="&lt;Контур&gt;" class="cls-47" d="M35.47 70.06l-.28-.15-1.9 1.03.22.19 1.96-1.07z"/><path id="_Контур_89" data-name="&lt;Контур&gt;" class="cls-47" d="M36.21 70.53l-.29-.15-1.89 1.02.22.2 1.96-1.07z"/><path id="_Контур_90" data-name="&lt;Контур&gt;" class="cls-47" d="M36.89 71.03l-.29-.15-1.89 1.02.22.2 1.96-1.07z"/><path id="_Контур_91" data-name="&lt;Контур&gt;" class="cls-47" d="M37.42 71.61l-.28-.15-1.9 1.02.22.2 1.96-1.07z"/></g></g><g id="_Группа_11" data-name="&lt;Группа&gt;"><path id="_Контур_92" data-name="&lt;Контур&gt;" class="cls-48" d="M44.14 100.82a1.13 1.13 0 00-.65-1l-3.61-1.65-.7-.32a.57.57 0 00-.77.54v.43a1.12 1.12 0 00.65 1l4.31 2a.57.57 0 00.77-.54z"/><path id="_Контур_93" data-name="&lt;Контур&gt;" class="cls-49" d="M43.86 101.33l-4.31-2a1.12 1.12 0 01-.65-1v-.43a.5.5 0 010-.12.59.59 0 00-.51.57v.43a1.12 1.12 0 00.65 1l4.31 2a.56.56 0 00.76-.4.54.54 0 01-.25-.05z"/></g><g id="_Группа_12" data-name="&lt;Группа&gt;"><path id="_Контур_94" data-name="&lt;Контур&gt;" class="cls-48" d="M23.36 89.4a1.42 1.42 0 00-.61-1.15l-2.55-1.72-.66-.44a.46.46 0 00-.72.4v.44a1.41 1.41 0 00.61 1.14l3.21 2.17a.46.46 0 00.72-.41z"/><path id="_Контур_95" data-name="&lt;Контур&gt;" class="cls-49" d="M23.1 89.87l-3.21-2.17a1.41 1.41 0 01-.61-1.14v-.44a.47.47 0 010-.11.46.46 0 00-.48.48v.44a1.41 1.41 0 00.61 1.14l3.21 2.17a.44.44 0 00.71-.27.56.56 0 01-.23-.1z"/></g><g id="_Группа_13" data-name="&lt;Группа&gt;"><path id="_Контур_96" data-name="&lt;Контур&gt;" d="M25 98.79a2 2 0 01-.86-1.59v-3c0-.59.39-.84.86-.56l6.41 3.82a2 2 0 01.81 1.54v3c0 .59-.39.84-.86.56z" style="mix-blend-mode:multiply" fill="#8b8b8b"/><path id="_Контур_97" data-name="&lt;Контур&gt;" d="M25.2 98.26a2 2 0 01-.86-1.59v-3c0-.59.39-.84.86-.56l6.41 3.82a2 2 0 01.86 1.59v3c0 .59-.39.84-.86.56z" fill="#f9fcfc"/><path id="_Контур_98" data-name="&lt;Контур&gt;" d="M25 98.38a2 2 0 01-.86-1.59v-3c0-.59.39-.84.86-.56L31.35 97a2 2 0 01.86 1.59v3c0 .59-.39.84-.86.56z" fill="#e0e0e0"/><path id="_Контур_99" data-name="&lt;Контур&gt;" d="M31.36 102l-6.41-3.82a1.65 1.65 0 01-.7-1.29v-3c0-.48.31-.69.7-.45l6.41 3.82a1.65 1.65 0 01.7 1.29v3c0 .45-.32.67-.7.45z" fill="#f8ffff"/><g id="_Группа_14" data-name="&lt;Группа&gt;"><path id="_Контур_100" data-name="&lt;Контур&gt;" class="cls-54" d="M32.05 98.49a1.65 1.65 0 00-.7-1.27l-6.4-3.82c-.38-.23-.69 0-.7.44z"/><path id="_Контур_101" data-name="&lt;Контур&gt;" class="cls-54" d="M24.25 96.9a1.65 1.65 0 00.7 1.27l6.41 3.83c.38.23.69 0 .7-.44z"/></g></g><g id="_Группа_15" data-name="&lt;Группа&gt;"><path id="_Контур_102" data-name="&lt;Контур&gt;" class="cls-55" d="M80.18 86.89l-15.39 8.9 1.56.9 15.38-8.9-1.55-.9z"/><path id="_Контур_103" data-name="&lt;Контур&gt;" fill="#b2b2b2" d="M81.73 89.11l-15.38 8.9v-1.32l15.38-8.9v1.32z"/></g><g id="_Группа_16" data-name="&lt;Группа&gt;"><path id="_Контур_104" data-name="&lt;Контур&gt;" class="cls-55" d="M75.06 75.9l-.22-.13 3.26-1.94.22.12-3.26 1.95z"/><path id="_Контур_105" data-name="&lt;Контур&gt;" class="cls-4" d="M75.33 77.53l-.49-.26v-1.5l.22.13.27 1.63z"/><path id="_Контур_106" data-name="&lt;Контур&gt;" class="cls-36" d="M78.32 73.95l-3.26 1.95.27 1.63 3.26-1.95-.27-1.63z"/></g><g id="_Группа_17" data-name="&lt;Группа&gt;"><path id="_Контур_107" data-name="&lt;Контур&gt;" d="M29.44 88a3.11 3.11 0 001.68 2.12c.92.51 1.66.37 1.65-.29a3.11 3.11 0 00-1.68-2.12c-.92-.54-1.65-.41-1.65.29z" fill="#929da6"/><path id="_Контур_108" data-name="&lt;Контур&gt;" d="M29.09 88.23a3.11 3.11 0 001.68 2.12c.92.51 1.66.37 1.65-.29a3.11 3.11 0 00-1.68-2.12c-.92-.51-1.66-.38-1.65.29z" fill="#d1d1d1"/></g><g id="_Группа_18" data-name="&lt;Группа&gt;"><path id="_Контур_109" data-name="&lt;Контур&gt;" class="cls-21" d="M49.67 46.1l-.81.52c-.22.14-.24.38-.47.25l-.39-.29c-.25-.14-.52-.67-.28-.82l.82-.52c.22-.14 1.11-.53 1.34-.39h.09c.28.15-.06 1.15-.3 1.25z"/><path id="_Контур_110" data-name="&lt;Контур&gt;" class="cls-59" d="M50.83 46.21l-1.3.83a.8.8 0 01-.82 0l-.31-.18c-.28-.16.09-1.31.36-1.48l.93-.08c.25-.15.63-.55.89-.4l.21.16a.9.9 0 01.04 1.15z"/><path id="_Контур_111" data-name="&lt;Контур&gt;" class="cls-60" d="M50.5 45.49l-.81.52A.71.71 0 0149 46h-.1a.38.38 0 010-.66l.82-.52a.71.71 0 01.73 0h.09a.38.38 0 01-.04.67z"/></g><g id="_Группа_19" data-name="&lt;Группа&gt;"><path id="_Контур_112" data-name="&lt;Контур&gt;" class="cls-21" d="M57.1 50.4l-.81.52c-.22.14-.24.38-.47.25l-.36-.29c-.25-.14-.52-.67-.28-.82l.82-.52c.22-.14 1.11-.53 1.34-.39h.09c.24.19-.09 1.11-.33 1.25z"/><path id="_Контур_113" data-name="&lt;Контур&gt;" class="cls-59" d="M58.25 50.52l-1.3.83a.8.8 0 01-.82 0l-.31-.18c-.28-.16.09-1.31.36-1.48l.93-.08c.25-.15.63-.55.89-.4l.21.16a.9.9 0 01.04 1.15z"/><path id="_Контур_114" data-name="&lt;Контур&gt;" class="cls-60" d="M57.92 49.79l-.81.52a.71.71 0 01-.73 0h-.1a.38.38 0 010-.66l.82-.52a.71.71 0 01.73 0h.09a.38.38 0 010 .66z"/></g><g id="_Группа_20" data-name="&lt;Группа&gt;"><path id="_Контур_115" data-name="&lt;Контур&gt;" class="cls-21" d="M64.52 54.71l-.81.52c-.22.14-.24.38-.47.25l-.36-.29c-.25-.14-.52-.67-.28-.82l.82-.52c.22-.14 1.11-.53 1.34-.39h.09c.24.18-.09 1.1-.33 1.25z"/><path id="_Контур_116" data-name="&lt;Контур&gt;" class="cls-59" d="M65.67 54.82l-1.3.83a.8.8 0 01-.82 0l-.31-.18c-.28-.16.09-1.31.36-1.48l.93-.08c.25-.15.63-.55.89-.4l.21.16a.9.9 0 01.04 1.15z"/><path id="_Контур_117" data-name="&lt;Контур&gt;" class="cls-60" d="M65.35 54.1l-.81.52a.71.71 0 01-.73 0h-.1a.38.38 0 010-.66l.82-.52a.71.71 0 01.73 0h.09a.38.38 0 010 .66z"/></g><g id="_Группа_21" data-name="&lt;Группа&gt;"><path id="_Контур_118" data-name="&lt;Контур&gt;" class="cls-61" d="M22.31 92.3l1-.61-1.12-.91-1 .62 1.12.9z"/><path id="_Контур_119" data-name="&lt;Контур&gt;" class="cls-62" d="M22.31 97.22l1-.62v-4.91l-1 .61v4.92z"/><path id="_Контур_120" data-name="&lt;Контур&gt;" class="cls-63" d="M21.19 91.4l1.12.9v4.92l-1.12-.9V91.4z"/></g><g id="_Группа_22" data-name="&lt;Группа&gt;"><path id="_Контур_121" data-name="&lt;Контур&gt;" class="cls-61" d="M35.52 99.94l1.05-.93-1.17-.56-1.05.93 1.17.56z"/><path id="_Контур_122" data-name="&lt;Контур&gt;" class="cls-62" d="M35.52 104.86l1.05-.93v-4.92l-1.05.93v4.92z"/><path id="_Контур_123" data-name="&lt;Контур&gt;" class="cls-63" d="M34.35 99.38l1.17.56v4.92l-1.17-.56v-4.92z"/></g><g id="_Группа_23" data-name="&lt;Группа&gt;"><path id="_Контур_124" data-name="&lt;Контур&gt;" class="cls-21" d="M85.24 49.84v.44a.56.56 0 01-.28.47l-1.86 1.07a.22.22 0 01-.33-.19v-.12l1.55-.9a.56.56 0 00.28-.47v-.31l.3-.17a.22.22 0 01.34.18z"/><path id="_Контур_125" data-name="&lt;Контур&gt;" class="cls-64" d="M84.6 49.82v.31a.56.56 0 01-.28.47l-1.55.9v-.3a.56.56 0 01.28-.48z"/></g><g id="_Группа_24" data-name="&lt;Группа&gt;"><path id="_Контур_126" data-name="&lt;Контур&gt;" class="cls-21" d="M110.69 35v.44a.56.56 0 01-.28.47L108.55 37a.22.22 0 01-.33-.19v-.12l1.55-.9a.56.56 0 00.28-.47V35l.3-.17a.22.22 0 01.34.17z"/><path id="_Контур_127" data-name="&lt;Контур&gt;" d="M110.06 35v.31a.56.56 0 01-.28.47l-1.55.9v-.31a.56.56 0 01.28-.48z" fill="#ffb81b"/></g><g id="_Группа_25" data-name="&lt;Группа&gt;"><path id="_Контур_128" data-name="&lt;Контур&gt;" class="cls-21" d="M136.14 20.18v.44a.56.56 0 01-.28.47L134 22.16a.22.22 0 01-.33-.19v-.12l1.55-.9a.56.56 0 00.28-.47v-.31l.3-.17a.22.22 0 01.34.18z"/><path id="_Контур_129" data-name="&lt;Контур&gt;" class="cls-64" d="M135.51 20.16v.31a.56.56 0 01-.28.47l-1.55.9v-.31a.56.56 0 01.28-.48z"/></g><g id="_Группа_26" data-name="&lt;Группа&gt;"><path id="_Контур_130" data-name="&lt;Контур&gt;" class="cls-38" d="M86.15 80.21v.44a.56.56 0 01-.28.47L84 82.2a.22.22 0 01-.33-.19v-.12l1.55-.9a.56.56 0 00.28-.47v-.32l.3-.17a.22.22 0 01.35.18z"/><path id="_Контур_131" data-name="&lt;Контур&gt;" class="cls-64" d="M85.52 80.2v.31a.56.56 0 01-.28.47l-1.55.9v-.31a.56.56 0 01.31-.47z"/></g><g id="_Группа_27" data-name="&lt;Группа&gt;"><path id="_Контур_132" data-name="&lt;Контур&gt;" class="cls-38" d="M133.68 52.52V53a.56.56 0 01-.28.47l-1.85 1.08a.22.22 0 01-.33-.19v-.12l1.55-.9a.56.56 0 00.28-.47v-.31l.3-.17a.22.22 0 01.33.13z"/><path id="_Контур_133" data-name="&lt;Контур&gt;" class="cls-64" d="M133 52.51v.31a.56.56 0 01-.28.47l-1.55.9v-.31a.56.56 0 01.28-.48z"/></g><g id="_Группа_28" data-name="&lt;Группа&gt;"><path id="_Контур_134" data-name="&lt;Контур&gt;" class="cls-59" d="M55.75 86.76l-.73.38a.61.61 0 00-.32.54V88a.33.33 0 00.48.3l.73-.39a.61.61 0 00.32-.54v-.27a.33.33 0 00-.48-.34z"/><path id="_Контур_135" data-name="&lt;Контур&gt;" class="cls-60" d="M55.94 86.93l-.73.38a.61.61 0 00-.32.54v.27a.33.33 0 00.48.3l.73-.42a.61.61 0 00.32-.54v-.27a.33.33 0 00-.48-.26z"/></g><g id="_Группа_29" data-name="&lt;Группа&gt;"><g id="_Группа_30" data-name="&lt;Группа&gt;"><path id="_Составной_контур_" data-name="&lt;Составной контур&gt;" class="cls-66" d="M91.18 53.81c1.77-1 3-.42 3 1.5a6.07 6.07 0 01-3 5l-2.36 1.36v-6.46zm-1 5.71l1-.59a3.3 3.3 0 001.5-2.77c0-1.14-.66-1.55-1.57-1l-1 .55z"/><path id="_Составной_контур_2" data-name="&lt;Составной контур&gt;" class="cls-66" d="M96.35 52.12v1.28L99 51.85v1.29l-2.68 1.55V56l3.06-1.77v1.29l-4.46 2.58v-6.45l4.4-2.54v1.29z"/><path id="_Составной_контур_3" data-name="&lt;Составной контур&gt;" class="cls-66" d="M104.14 51.41v1.37L100.33 55v-6.47l1.43-.83v5.08z"/><path id="_Составной_контур_4" data-name="&lt;Составной контур&gt;" class="cls-66" d="M104.83 52.38v-6.45l1.43-.82v6.45z"/><path id="_Составной_контур_5" data-name="&lt;Составной контур&gt;" class="cls-66" d="M109 50l-2.18-5.19 1.53-.88 1.44 3.92 1.44-5.58 1.47-.85-2.21 7.73z"/><path id="_Составной_контур_6" data-name="&lt;Составной контур&gt;" class="cls-66" d="M114.66 41.55v1.28l2.68-1.55v1.29l-2.68 1.55v1.3l3.06-1.77v1.29l-4.49 2.59v-6.45l4.4-2.54v1.29z"/><path id="_Составной_контур_7" data-name="&lt;Составной контур&gt;" class="cls-66" d="M121.19 41.12l-1.08.63v1.82l-1.43.83V38l2.51-1.45c1.49-.86 2.34-.54 2.34.9a4 4 0 01-1 2.66l1.18 1.45-1.62.94zm0-1.27a1.82 1.82 0 001-1.61c0-.67-.36-.81-1-.45l-1.08.63v2.06z"/><path id="_Составной_контур_8" data-name="&lt;Составной контур&gt;" class="cls-66" d="M127.3 39.41l-1.42.82v-2L123.8 35l1.43-.82 1.36 2 1.32-3.58 1.43-.83-2 5.55z"/></g></g><g id="_Группа_31" data-name="&lt;Группа&gt;"><path id="_Составной_контур_9" data-name="&lt;Составной контур&gt;" d="M87.27 80.64V72.7l16.67-9.62V71zm.42-7.69v7l15.83-9.14v-7z" fill="#bf8f00"/></g><g id="_Группа_32" data-name="&lt;Группа&gt;" style="mix-blend-mode:multiply"><path id="_Составной_контур_10" data-name="&lt;Составной контур&gt;" d="M65.09 92.16l-4.74-9.56v-4.43c.69-2 3.88-14.22 3.91-14.34v-.07h.07l12.36-7 2.8 14.16-.09 13.22zm-4.39-9.61l4.54 9.11 13.82-7.81.09-13-2.7-13.64L64.59 64c-.29 1.12-3.19 12.28-3.89 14.27z" fill="#deb159"/></g><path id="_Контур_136" data-name="&lt;Контур&gt;" class="cls-3" d="M62.18 78c.17-1.18-.12-3 .86-3.94a1.39 1.39 0 011-.23h1.27a1.91 1.91 0 011.3.53c.78.65.49 2.14.42 3-.09 1.13-.27 2.25-.4 3.37a6.31 6.31 0 01-.34 1.71c-.38.9-1.44 1.07-2.3 1.1a1.58 1.58 0 01-1.3-.44 1.16 1.16 0 01-.25-.92v-1.41a1.06 1.06 0 000-.37.18.18 0 00-.06-.09.2.2 0 00-.14 0 3.25 3.25 0 00-1 .52 1.68 1.68 0 01-1.08.3A.27.27 0 0160 81a.3.3 0 01-.06-.15 2.74 2.74 0 01.57-2.4c.41-.49 1-.43 1.53-.4h.07a.11.11 0 00.08 0 .11.11 0 00-.01-.05z"/></g></g></g></g></g></svg>