<svg xmlns="http://www.w3.org/2000/svg" xmlns:xlink="http://www.w3.org/1999/xlink" viewBox="0 0 245.92 222.44"><defs><linearGradient id="linear-gradient-162" x1="79.29" y1="-2.19" x2="163.79" y2="144.18" xlink:href="#linear-gradient-2"/><linearGradient id="linear-gradient" x1="197.04" y1="132.42" x2="197.04" y2="134.1" gradientTransform="translate(1.41)" gradientUnits="userSpaceOnUse"><stop offset=".01" stop-color="#3685fc"/><stop offset="1" stop-color="#2c65d6"/></linearGradient><linearGradient id="linear-gradient-2" x1="185.76" y1="207.9" x2="186.3" y2="208.84" gradientTransform="translate(1.41)" gradientUnits="userSpaceOnUse"><stop offset="0" stop-color="#83b8fc"/><stop offset=".99" stop-color="#609ffd"/></linearGradient><linearGradient id="linear-gradient-3" x1="199.4" y1="132.74" x2="199.4" y2="205.25" xlink:href="#linear-gradient"/><linearGradient id="linear-gradient-4" x1="186.3" y1="211.79" x2="186.3" y2="207.3" gradientTransform="translate(1.41)" gradientUnits="userSpaceOnUse"><stop offset="0" stop-color="#2c65d6"/><stop offset="1" stop-color="#3046b5"/></linearGradient><linearGradient id="linear-gradient-5" x1="182.91" y1="215.51" x2="182.91" y2="142.15" xlink:href="#linear-gradient-4"/><linearGradient id="linear-gradient-6" x1="217.17" y1="122.48" x2="217.17" y2="195" xlink:href="#linear-gradient"/><linearGradient id="linear-gradient-7" x1="214.81" y1="122.16" x2="214.81" y2="123.84" xlink:href="#linear-gradient"/><linearGradient id="linear-gradient-8" x1="218.45" y1="195" x2="218.45" y2="121.64" xlink:href="#linear-gradient-4"/><linearGradient id="linear-gradient-9" x1="221.84" y1="191.27" x2="221.84" y2="186.79" xlink:href="#linear-gradient-4"/><linearGradient id="linear-gradient-10" x1="221.29" y1="187.38" x2="221.84" y2="188.32" xlink:href="#linear-gradient-2"/><linearGradient id="linear-gradient-11" x1="234.94" y1="112.22" x2="234.94" y2="184.74" xlink:href="#linear-gradient"/><linearGradient id="linear-gradient-12" x1="232.58" y1="111.9" x2="232.58" y2="113.58" xlink:href="#linear-gradient"/><linearGradient id="linear-gradient-13" x1="203.53" y1="197.64" x2="204.07" y2="198.58" xlink:href="#linear-gradient-2"/><linearGradient id="linear-gradient-14" x1="200.1" y1="134.1" x2="200.1" y2="130.13" xlink:href="#linear-gradient-4"/><linearGradient id="linear-gradient-15" x1="204.07" y1="201.53" x2="204.07" y2="197.04" xlink:href="#linear-gradient-4"/><linearGradient id="linear-gradient-16" x1="200.68" y1="205.25" x2="200.68" y2="131.89" xlink:href="#linear-gradient-4"/><linearGradient id="linear-gradient-17" x1="181.64" y1="143" x2="181.64" y2="215.51" xlink:href="#linear-gradient"/><linearGradient id="linear-gradient-18" x1="179.27" y1="142.68" x2="179.27" y2="144.36" xlink:href="#linear-gradient"/><linearGradient id="linear-gradient-19" x1="182.33" y1="144.36" x2="182.33" y2="140.39" xlink:href="#linear-gradient-4"/><linearGradient id="linear-gradient-20" x1="236.21" y1="184.74" x2="236.21" y2="111.38" xlink:href="#linear-gradient-4"/><linearGradient id="linear-gradient-21" x1="239.61" y1="181.01" x2="239.61" y2="176.53" xlink:href="#linear-gradient-4"/><linearGradient id="linear-gradient-22" x1="239.06" y1="177.12" x2="239.61" y2="178.06" xlink:href="#linear-gradient-2"/><linearGradient id="linear-gradient-23" x1="242.74" y1="180.08" x2="242.74" y2="174.6" xlink:href="#linear-gradient-4"/><linearGradient id="linear-gradient-24" x1="1.37" y1="121.42" x2="1.37" y2="128.08" xlink:href="#linear-gradient"/><linearGradient id="linear-gradient-25" x1="-.02" y1="120.62" x2="2.76" y2="125.44" xlink:href="#linear-gradient-2"/><linearGradient id="linear-gradient-26" x1="4.22" y1="128.08" x2="4.22" y2="124.64" xlink:href="#linear-gradient-4"/><linearGradient id="linear-gradient-27" x1="85.87" y1="124.63" x2="85.87" y2="219.07" xlink:href="#linear-gradient"/><linearGradient id="linear-gradient-28" x1="20.56" y1="134.07" x2="20.56" y2="137.51" xlink:href="#linear-gradient"/><linearGradient id="linear-gradient-29" x1="17.71" y1="130.86" x2="17.71" y2="134.07" xlink:href="#linear-gradient"/><linearGradient id="linear-gradient-30" x1="85.94" y1="171.82" x2="85.94" y2="175.26" xlink:href="#linear-gradient"/><linearGradient id="linear-gradient-31" x1="66.75" y1="159.17" x2="66.75" y2="162.38" xlink:href="#linear-gradient"/><linearGradient id="linear-gradient-32" x1="36.91" y1="143.51" x2="36.91" y2="146.95" xlink:href="#linear-gradient"/><linearGradient id="linear-gradient-33" x1="34.06" y1="140.3" x2="34.06" y2="143.51" xlink:href="#linear-gradient"/><linearGradient id="linear-gradient-34" x1="69.6" y1="162.38" x2="69.6" y2="165.82" xlink:href="#linear-gradient"/><linearGradient id="linear-gradient-35" x1="50.4" y1="149.73" x2="50.4" y2="152.95" xlink:href="#linear-gradient"/><linearGradient id="linear-gradient-36" x1="83.09" y1="168.61" x2="83.09" y2="171.82" xlink:href="#linear-gradient"/><linearGradient id="linear-gradient-37" x1="53.25" y1="152.95" x2="53.25" y2="156.39" xlink:href="#linear-gradient"/><linearGradient id="linear-gradient-38" x1="132.13" y1="196.92" x2="132.13" y2="200.13" xlink:href="#linear-gradient"/><linearGradient id="linear-gradient-39" x1="102.29" y1="181.26" x2="102.29" y2="184.7" xlink:href="#linear-gradient"/><linearGradient id="linear-gradient-40" x1="99.44" y1="178.04" x2="99.44" y2="181.26" xlink:href="#linear-gradient"/><linearGradient id="linear-gradient-41" x1="134.98" y1="200.13" x2="134.98" y2="203.57" xlink:href="#linear-gradient"/><linearGradient id="linear-gradient-42" x1="115.78" y1="187.48" x2="115.78" y2="190.69" xlink:href="#linear-gradient"/><linearGradient id="linear-gradient-43" x1="118.63" y1="190.69" x2="118.63" y2="194.13" xlink:href="#linear-gradient"/><linearGradient id="linear-gradient-44" x1="164.82" y1="215.79" x2="164.82" y2="219" xlink:href="#linear-gradient"/><linearGradient id="linear-gradient-45" x1="151.32" y1="209.57" x2="151.32" y2="213.01" xlink:href="#linear-gradient"/><linearGradient id="linear-gradient-46" x1="148.47" y1="206.35" x2="148.47" y2="209.57" xlink:href="#linear-gradient"/><linearGradient id="linear-gradient-47" x1="17.71" y1="130.86" x2="17.71" y2="137.51" xlink:href="#linear-gradient"/><linearGradient id="linear-gradient-48" x1="34.06" y1="140.3" x2="34.06" y2="146.95" xlink:href="#linear-gradient"/><linearGradient id="linear-gradient-49" x1="83.09" y1="168.61" x2="83.09" y2="175.26" xlink:href="#linear-gradient"/><linearGradient id="linear-gradient-50" x1="66.75" y1="159.17" x2="66.75" y2="165.82" xlink:href="#linear-gradient"/><linearGradient id="linear-gradient-51" x1="50.4" y1="149.74" x2="50.4" y2="156.39" xlink:href="#linear-gradient"/><linearGradient id="linear-gradient-52" x1="99.44" y1="178.04" x2="99.44" y2="184.7" xlink:href="#linear-gradient"/><linearGradient id="linear-gradient-53" x1="132.13" y1="196.92" x2="132.13" y2="203.57" xlink:href="#linear-gradient"/><linearGradient id="linear-gradient-54" x1="115.78" y1="187.48" x2="115.78" y2="194.13" xlink:href="#linear-gradient"/><linearGradient id="linear-gradient-55" x1="148.47" y1="206.36" x2="148.47" y2="213.01" xlink:href="#linear-gradient"/><linearGradient id="linear-gradient-56" x1="164.82" y1="215.79" x2="164.82" y2="222.44" xlink:href="#linear-gradient"/><linearGradient id="linear-gradient-57" x1="243.11" y1="175.4" x2="243.11" y2="175.4" xlink:href="#linear-gradient-2"/><linearGradient id="linear-gradient-58" x1="172.45" y1="222.44" x2="172.45" y2="215.75" xlink:href="#linear-gradient-4"/><linearGradient id="linear-gradient-59" x1="209.23" y1="199.2" x2="209.23" y2="196.03" xlink:href="#linear-gradient-4"/><linearGradient id="linear-gradient-60" x1="217.87" y1="123.84" x2="217.87" y2="119.88" xlink:href="#linear-gradient-4"/><linearGradient id="linear-gradient-61" x1="235.64" y1="113.58" x2="235.64" y2="109.62" xlink:href="#linear-gradient-4"/><linearGradient id="linear-gradient-62" x1="1.37" y1="47.84" x2="1.37" y2="124.63" xlink:href="#linear-gradient"/><linearGradient id="linear-gradient-63" x1="34.06" y1="66.72" x2="34.06" y2="143.5" xlink:href="#linear-gradient"/><linearGradient id="linear-gradient-64" x1="17.71" y1="57.28" x2="17.71" y2="134.07" xlink:href="#linear-gradient"/><linearGradient id="linear-gradient-65" x1="23.85" y1="134.07" x2="23.85" y2="60.41" xlink:href="#linear-gradient-4"/><linearGradient id="linear-gradient-66" x1="29.24" y1="64.21" x2="29.24" y2="132.54" xlink:href="#linear-gradient"/><linearGradient id="linear-gradient-67" x1="24.87" y1="131.54" x2="30.26" y2="140.88" xlink:href="#linear-gradient-2"/><linearGradient id="linear-gradient-68" x1="20.56" y1="60.49" x2="20.56" y2="57.05" xlink:href="#linear-gradient-4"/><linearGradient id="linear-gradient-69" x1="7.51" y1="124.63" x2="7.51" y2="50.98" xlink:href="#linear-gradient-4"/><linearGradient id="linear-gradient-70" x1="12.9" y1="54.78" x2="12.9" y2="123.1" xlink:href="#linear-gradient"/><linearGradient id="linear-gradient-71" x1="8.52" y1="122.1" x2="13.92" y2="131.44" xlink:href="#linear-gradient-2"/><linearGradient id="linear-gradient-72" x1="4.22" y1="51.05" x2="4.22" y2="47.61" xlink:href="#linear-gradient-4"/><linearGradient id="linear-gradient-73" x1="40.2" y1="143.5" x2="40.2" y2="69.85" xlink:href="#linear-gradient-4"/><linearGradient id="linear-gradient-74" x1="45.59" y1="73.65" x2="45.59" y2="141.98" xlink:href="#linear-gradient"/><linearGradient id="linear-gradient-75" x1="41.21" y1="140.98" x2="46.61" y2="150.32" xlink:href="#linear-gradient-2"/><linearGradient id="linear-gradient-76" x1="36.91" y1="69.93" x2="36.91" y2="66.49" xlink:href="#linear-gradient-4"/><linearGradient id="linear-gradient-77" x1="50.4" y1="76.15" x2="50.4" y2="152.94" xlink:href="#linear-gradient"/><linearGradient id="linear-gradient-78" x1="66.75" y1="85.59" x2="66.75" y2="162.38" xlink:href="#linear-gradient"/><linearGradient id="linear-gradient-79" x1="72.89" y1="162.38" x2="72.89" y2="88.72" xlink:href="#linear-gradient-4"/><linearGradient id="linear-gradient-80" x1="78.28" y1="92.52" x2="78.28" y2="160.85" xlink:href="#linear-gradient"/><linearGradient id="linear-gradient-81" x1="73.9" y1="159.85" x2="79.3" y2="169.19" xlink:href="#linear-gradient-2"/><linearGradient id="linear-gradient-82" x1="69.6" y1="88.8" x2="69.6" y2="85.36" xlink:href="#linear-gradient-4"/><linearGradient id="linear-gradient-83" x1="83.09" y1="95.03" x2="83.09" y2="171.81" xlink:href="#linear-gradient"/><linearGradient id="linear-gradient-84" x1="89.23" y1="171.81" x2="89.23" y2="98.16" xlink:href="#linear-gradient-4"/><linearGradient id="linear-gradient-85" x1="94.62" y1="101.96" x2="94.62" y2="170.29" xlink:href="#linear-gradient"/><linearGradient id="linear-gradient-86" x1="90.25" y1="169.29" x2="95.64" y2="178.63" xlink:href="#linear-gradient-2"/><linearGradient id="linear-gradient-87" x1="85.94" y1="98.24" x2="85.94" y2="94.8" xlink:href="#linear-gradient-4"/><linearGradient id="linear-gradient-88" x1="56.54" y1="152.94" x2="56.54" y2="79.29" xlink:href="#linear-gradient-4"/><linearGradient id="linear-gradient-89" x1="61.93" y1="83.09" x2="61.93" y2="151.41" xlink:href="#linear-gradient"/><linearGradient id="linear-gradient-90" x1="57.56" y1="150.41" x2="62.95" y2="159.75" xlink:href="#linear-gradient-2"/><linearGradient id="linear-gradient-91" x1="53.25" y1="79.36" x2="53.25" y2="75.92" xlink:href="#linear-gradient-4"/><linearGradient id="linear-gradient-92" x1="99.44" y1="104.46" x2="99.44" y2="181.25" xlink:href="#linear-gradient"/><linearGradient id="linear-gradient-93" x1="132.13" y1="123.34" x2="132.13" y2="200.12" xlink:href="#linear-gradient"/><linearGradient id="linear-gradient-94" x1="138.27" y1="200.12" x2="138.27" y2="126.47" xlink:href="#linear-gradient-4"/><linearGradient id="linear-gradient-95" x1="143.66" y1="130.27" x2="143.66" y2="198.6" xlink:href="#linear-gradient"/><linearGradient id="linear-gradient-96" x1="139.28" y1="197.6" x2="144.68" y2="206.94" xlink:href="#linear-gradient-2"/><linearGradient id="linear-gradient-97" x1="134.98" y1="126.55" x2="134.98" y2="123.11" xlink:href="#linear-gradient-4"/><linearGradient id="linear-gradient-98" x1="105.58" y1="181.25" x2="105.58" y2="107.6" xlink:href="#linear-gradient-4"/><linearGradient id="linear-gradient-99" x1="110.97" y1="111.4" x2="110.97" y2="179.72" xlink:href="#linear-gradient"/><linearGradient id="linear-gradient-100" x1="106.59" y1="178.72" x2="111.99" y2="188.06" xlink:href="#linear-gradient-2"/><linearGradient id="linear-gradient-101" x1="102.29" y1="107.68" x2="102.29" y2="104.23" xlink:href="#linear-gradient-4"/><linearGradient id="linear-gradient-102" x1="115.78" y1="113.9" x2="115.78" y2="190.69" xlink:href="#linear-gradient"/><linearGradient id="linear-gradient-103" x1="148.47" y1="132.77" x2="148.47" y2="209.56" xlink:href="#linear-gradient"/><linearGradient id="linear-gradient-104" x1="121.92" y1="190.69" x2="121.92" y2="117.03" xlink:href="#linear-gradient-4"/><linearGradient id="linear-gradient-105" x1="127.31" y1="120.83" x2="127.31" y2="189.16" xlink:href="#linear-gradient"/><linearGradient id="linear-gradient-106" x1="122.94" y1="188.16" x2="128.33" y2="197.5" xlink:href="#linear-gradient-2"/><linearGradient id="linear-gradient-107" x1="118.63" y1="117.11" x2="118.63" y2="113.67" xlink:href="#linear-gradient-4"/><linearGradient id="linear-gradient-108" x1="164.82" y1="142.21" x2="164.82" y2="219" xlink:href="#linear-gradient"/><linearGradient id="linear-gradient-109" x1="170.96" y1="219" x2="170.96" y2="141.55" xlink:href="#linear-gradient-4"/><linearGradient id="linear-gradient-110" x1="175.91" y1="141.55" x2="175.91" y2="216.96" xlink:href="#linear-gradient"/><linearGradient id="linear-gradient-111" x1="154.61" y1="209.56" x2="154.61" y2="135.91" xlink:href="#linear-gradient-4"/><linearGradient id="linear-gradient-112" x1="160" y1="139.71" x2="160" y2="208.03" xlink:href="#linear-gradient"/><linearGradient id="linear-gradient-113" x1="155.63" y1="207.03" x2="161.02" y2="216.37" xlink:href="#linear-gradient-2"/><linearGradient id="linear-gradient-114" x1="151.32" y1="135.99" x2="151.32" y2="132.54" xlink:href="#linear-gradient-4"/><linearGradient id="linear-gradient-115" x1="83.09" y1="44.4" x2="83.09" y2="145.42" xlink:href="#linear-gradient"/><linearGradient id="linear-gradient-116" x1="241.15" y1="176.21" x2="241.15" y2="101.02" xlink:href="#linear-gradient-4"/><linearGradient id="linear-gradient-117" x1="34.06" y1="63.28" x2="34.06" y2="66.49" xlink:href="#linear-gradient"/><linearGradient id="linear-gradient-118" x1="17.71" y1="53.84" x2="17.71" y2="57.05" xlink:href="#linear-gradient"/><linearGradient id="linear-gradient-119" x1="50.4" y1="72.71" x2="50.4" y2="75.92" xlink:href="#linear-gradient"/><linearGradient id="linear-gradient-120" x1="66.75" y1="82.15" x2="66.75" y2="85.36" xlink:href="#linear-gradient"/><linearGradient id="linear-gradient-121" x1="83.09" y1="91.59" x2="83.09" y2="94.8" xlink:href="#linear-gradient"/><linearGradient id="linear-gradient-122" x1="99.44" y1="101.02" x2="99.44" y2="104.23" xlink:href="#linear-gradient"/><linearGradient id="linear-gradient-123" x1="132.13" y1="119.9" x2="132.13" y2="123.11" xlink:href="#linear-gradient"/><linearGradient id="linear-gradient-124" x1="115.78" y1="110.46" x2="115.78" y2="113.67" xlink:href="#linear-gradient"/><linearGradient id="linear-gradient-125" x1="148.47" y1="129.33" x2="148.47" y2="132.54" xlink:href="#linear-gradient"/><linearGradient id="linear-gradient-126" x1="164.82" y1="138.77" x2="164.82" y2="141.98" xlink:href="#linear-gradient"/><linearGradient id="linear-gradient-127" x1="209.21" y1="122.32" x2="209.21" y2="197.73" xlink:href="#linear-gradient"/><linearGradient id="linear-gradient-128" x1="206.15" y1="125.71" x2="206.15" y2="122.32" xlink:href="#linear-gradient-4"/><linearGradient id="linear-gradient-129" x1="206.05" y1="145.42" x2="206.05" y2="97.59" xlink:href="#linear-gradient-4"/><linearGradient id="linear-gradient-130" x1="171.5" y1="222.28" x2="171.5" y2="215.12" xlink:href="#linear-gradient-4"/><linearGradient id="linear-gradient-131" x1="170.96" y1="219" x2="170.96" y2="215.12" xlink:href="#linear-gradient-4"/><linearGradient id="linear-gradient-132" x1="195.16" y1="96.02" x2="195.16" y2="134.27" xlink:href="#linear-gradient-2"/><linearGradient id="linear-gradient-133" x1="189.77" y1="129.76" x2="189.77" y2="92.65" xlink:href="#linear-gradient-4"/><linearGradient id="linear-gradient-134" x1="225.74" y1="92.65" x2="225.74" y2="100.52" xlink:href="#linear-gradient"/><linearGradient id="linear-gradient-135" x1="42.67" y1="44.83" x2="42.67" y2="7.72" xlink:href="#linear-gradient-4"/><linearGradient id="linear-gradient-136" x1="48.06" y1="11.09" x2="48.06" y2="49.33" xlink:href="#linear-gradient-2"/><linearGradient id="linear-gradient-137" x1="78.63" y1="7.72" x2="78.63" y2="15.59" xlink:href="#linear-gradient"/><linearGradient id="linear-gradient-138" x1="59.01" y1="54.26" x2="59.01" y2="17.16" xlink:href="#linear-gradient-4"/><linearGradient id="linear-gradient-139" x1="64.4" y1="20.52" x2="64.4" y2="58.77" xlink:href="#linear-gradient-2"/><linearGradient id="linear-gradient-140" x1="94.98" y1="17.16" x2="94.98" y2="25.03" xlink:href="#linear-gradient"/><linearGradient id="linear-gradient-141" x1="75.36" y1="63.7" x2="75.36" y2="26.6" xlink:href="#linear-gradient-4"/><linearGradient id="linear-gradient-142" x1="80.75" y1="29.96" x2="80.75" y2="68.21" xlink:href="#linear-gradient-2"/><linearGradient id="linear-gradient-143" x1="111.32" y1="26.6" x2="111.32" y2="34.47" xlink:href="#linear-gradient"/><linearGradient id="linear-gradient-144" x1="91.7" y1="73.14" x2="91.7" y2="36.03" xlink:href="#linear-gradient-4"/><linearGradient id="linear-gradient-145" x1="97.09" y1="39.4" x2="97.09" y2="77.64" xlink:href="#linear-gradient-2"/><linearGradient id="linear-gradient-146" x1="127.67" y1="36.03" x2="127.67" y2="43.9" xlink:href="#linear-gradient"/><linearGradient id="linear-gradient-147" x1="108.05" y1="82.57" x2="108.05" y2="45.47" xlink:href="#linear-gradient-4"/><linearGradient id="linear-gradient-148" x1="113.44" y1="48.83" x2="113.44" y2="87.08" xlink:href="#linear-gradient-2"/><linearGradient id="linear-gradient-149" x1="144.01" y1="45.47" x2="144.01" y2="53.34" xlink:href="#linear-gradient"/><linearGradient id="linear-gradient-150" x1="124.39" y1="92.01" x2="124.39" y2="54.91" xlink:href="#linear-gradient-4"/><linearGradient id="linear-gradient-151" x1="129.78" y1="58.27" x2="129.78" y2="96.52" xlink:href="#linear-gradient-2"/><linearGradient id="linear-gradient-152" x1="160.36" y1="54.91" x2="160.36" y2="62.78" xlink:href="#linear-gradient"/><linearGradient id="linear-gradient-153" x1="140.73" y1="101.45" x2="140.73" y2="64.34" xlink:href="#linear-gradient-4"/><linearGradient id="linear-gradient-154" x1="146.13" y1="67.71" x2="146.13" y2="105.95" xlink:href="#linear-gradient-2"/><linearGradient id="linear-gradient-155" x1="176.7" y1="64.34" x2="176.7" y2="72.21" xlink:href="#linear-gradient"/><linearGradient id="linear-gradient-156" x1="157.08" y1="110.89" x2="157.08" y2="73.78" xlink:href="#linear-gradient-4"/><linearGradient id="linear-gradient-157" x1="162.47" y1="77.14" x2="162.47" y2="115.39" xlink:href="#linear-gradient-2"/><linearGradient id="linear-gradient-158" x1="193.05" y1="73.78" x2="193.05" y2="81.65" xlink:href="#linear-gradient"/><linearGradient id="linear-gradient-159" x1="173.42" y1="120.32" x2="173.42" y2="83.22" xlink:href="#linear-gradient-4"/><linearGradient id="linear-gradient-160" x1="178.82" y1="86.58" x2="178.82" y2="124.83" xlink:href="#linear-gradient-2"/><linearGradient id="linear-gradient-161" x1="209.39" y1="83.22" x2="209.39" y2="91.09" xlink:href="#linear-gradient"/><style>.cls-2{fill:#bddff4}.cls-19{fill:#e2f1f7}</style></defs><g id="Слой_2" data-name="Слой 2"><g id="Layer_1" data-name="Layer 1"><path fill="url(#linear-gradient)" d="M197.91 133.47v-1.05l1.09.62v1.06l-1.09-.63z"/><path class="cls-2" d="M197.91 132.42v1.05l1.09.63 1.27-.74v71.27l-15.22 8.79v-1.63l5.32-3.08v-1.41l-1.08-.62-4.24 2.45v-66.98l1.21-.7v-1.06l-1.08-.62 12.73-7.35z"/><path fill="url(#linear-gradient-2)" d="M185.05 209.13l4.24-2.45 1.08.62-5.32 3.08v-1.25z"/><path fill="url(#linear-gradient-3)" d="M200.27 204.63v-71.27l1.09-.62v72.51l-1.09-.62z"/><path fill="url(#linear-gradient-4)" d="M185.05 210.38l5.32-3.08v1.41l-5.32 3.08v-1.41z"/><path fill="url(#linear-gradient-5)" d="M185.05 210.38v4.29l-1.46.84V143l1.46-.85v68.23z"/><path fill="url(#linear-gradient-6)" d="M219.13 195l-1.09-.63V123.1l1.09-.62V195z"/><path class="cls-2" d="M218.04 123.1v71.27l-5.82 3.36v-73.57l3.46-2v1.05l1.09.63 1.27-.74z"/><path fill="url(#linear-gradient-7)" d="M215.68 123.21v-1.05l1.09.62v1.06l-1.09-.63z"/><path fill="url(#linear-gradient-8)" d="M220.59 194.15l-1.46.85v-72.52l1.46-.84v72.51z"/><path fill="url(#linear-gradient-9)" d="M220.59 191.27v-1.41l5.32-3.07v1.41l-5.32 3.07z"/><path fill="url(#linear-gradient-10)" d="M225.91 186.79l-5.32 3.07v-1.25l4.23-2.45 1.09.63z"/><path class="cls-2" d="M224.82 186.16l-4.23 2.45v-66.97l1.21-.71v-1.05l-1.08-.63 12.73-7.35v1.06l1.08.62 1.28-.74v71.27l-15.22 8.79v-1.63l5.32-3.07v-1.41l-1.09-.63z"/><path fill="url(#linear-gradient-11)" d="M235.81 184.11v-71.27l1.09-.62v72.52l-1.09-.63z"/><path fill="url(#linear-gradient-12)" d="M233.45 112.96v-1.06l1.08.63v1.05l-1.08-.62z"/><path class="cls-2" d="M204.03 130.13l-1.08-.62 6.33-3.65v73.57l-6.46 3.73v-1.63l5.32-3.08v-1.41l-1.08-.62-4.24 2.45v-66.98l1.21-.7v-1.06z"/><path fill="url(#linear-gradient-13)" d="M202.82 198.87l4.24-2.45 1.08.62-5.32 3.08v-1.25z"/><path fill="url(#linear-gradient-14)" d="M202.82 130.84l-1.46.84-2.36 1.36v1.06l1.27-.74 1.09-.62 1.46-.85 1.21-.7v-1.06l-1.21.71z"/><path fill="url(#linear-gradient-15)" d="M202.82 200.12l5.32-3.08v1.41l-5.32 3.08v-1.41z"/><path fill="url(#linear-gradient-16)" d="M202.82 200.12v4.29l-1.46.84v-72.51l1.46-.85v68.23z"/><path fill="url(#linear-gradient-17)" d="M183.59 215.51l-1.09-.62v-71.27l1.09-.62v72.51z"/><path class="cls-19" d="M209.28 125.86l-.25-.14-2.94-1.7-30.37 17.53 3.19 1.84 1.23-.71 1.09.62 2.36-1.36 1.46-.84 1.21-.71-1.08-.62 12.73-7.35 1.09.62 2.36-1.36 1.46-.84 1.21-.71-1.08-.62 6.33-3.65z"/><path fill="url(#linear-gradient-18)" d="M180.14 142.68l1.09.62v1.06l-1.09-.63v-1.05z"/><path class="cls-2" d="M180.14 142.68v1.05l1.09.63 1.27-.74v71.27l-3.59 2.07v-73.57l1.23-.71z"/><path fill="url(#linear-gradient-19)" d="M185.05 141.1l-1.46.84-2.36 1.36v1.06l1.27-.74 1.09-.62 1.46-.85 1.21-.7v-1.06l-1.21.71z"/><path fill="url(#linear-gradient-20)" d="M238.36 183.9l-1.46.84v-72.52l1.46-.84v72.52z"/><path fill="url(#linear-gradient-21)" d="M238.36 181.01v-1.41l5.32-3.07v1.41l-1.29.74-4.03 2.33z"/><path fill="url(#linear-gradient-22)" d="M243.68 176.53l-5.32 3.07v-1.25l4.03-2.33.2-.12.54.31.55.32z"/><path class="cls-2" d="M242.39 176.02l-4.03 2.33v-66.97l1.21-.71v-1.05l-1.08-.63 3.9-2.26v69.29z"/><path fill="url(#linear-gradient-23)" d="M243.68 177.94v-1.41l-.55-.32 2.79-1.61v3.44l-3.53 2.04v-1.4l1.29-.74z"/><path fill="url(#linear-gradient-24)" d="M0 124.86v-3.44l5.56 3.22v3.44L0 124.86z"/><path fill="url(#linear-gradient-25)" d="M5.56 124.64L0 121.42l5.56 3.21v.01z"/><path fill="url(#linear-gradient-26)" d="M5.56 128.08v-3.44 3.28l.14.08-.14.08z"/><path fill="url(#linear-gradient-27)" d="M5.56 127.92v-3.28l10.78 6.21 5.57 3.22 10.78 6.22 5.56 3.21 10.78 6.23 5.57 3.21 10.78 6.22 5.56 3.22 10.78 6.22 5.57 3.21 10.78 6.23 5.56 3.21 10.78 6.22 5.56 3.22 10.79 6.22 5.56 3.21 10.78 6.23 5.56 3.21 10.79 6.22 5.56 3.22-5.56-3.21v3.28l-10.65-6.14-.13-.08v-3.29l-5.57-3.21v3.28l-10.64-6.14-.14-.08v-3.28l-5.56-3.21v3.28l-10.65-6.15-.13-.08v-3.28l-5.56-3.21-.01 3.28-10.64-6.14-.14-.08v-3.29l-5.56-3.21v3.28l-10.65-6.14-.13-.08v-3.28l-5.57-3.21v3.28l-10.64-6.15-.14-.08v-3.28l-5.56-3.21v3.28l-10.65-6.14-.13-.08v-3.29l-5.57-3.21v3.28l-10.64-6.14-.14-.08v-3.28l-5.56-3.21v3.28l-10.64-6.15-.14-.08v-3.28l-5.56-3.21-.01 3.28L5.7 128l-.14-.08z"/><path fill="url(#linear-gradient-28)" d="M21.91 134.07v3.28l.14.08-.14.08v-3.44z"/><path fill="url(#linear-gradient-29)" d="M16.35 130.86l5.56 3.21-5.57-3.21h.01z"/><path fill="url(#linear-gradient-30)" d="M87.29 171.82v3.28l.13.08-.13.08v-3.44z"/><path fill="url(#linear-gradient-31)" d="M65.38 159.17l5.56 3.21-5.56-3.21z"/><path fill="url(#linear-gradient-32)" d="M38.25 143.51v3.28l.14.08-.14.08v-3.44z"/><path fill="url(#linear-gradient-33)" d="M32.69 140.3l5.56 3.21-5.56-3.21z"/><path fill="url(#linear-gradient-34)" d="M70.94 162.38v3.28l.14.08-.14.08v-3.44z"/><path fill="url(#linear-gradient-35)" d="M49.03 149.73l5.57 3.21-5.57-3.2v-.01z"/><path fill="url(#linear-gradient-36)" d="M81.72 168.61l5.57 3.21-5.57-3.21z"/><path fill="url(#linear-gradient-37)" d="M54.6 152.94v3.29l.13.08-.13.08v-3.45z"/><path fill="url(#linear-gradient-38)" d="M130.76 196.92l5.56 3.21-5.56-3.21z"/><path fill="url(#linear-gradient-39)" d="M103.63 181.25v3.29l.14.08-.14.08v-3.45z"/><path fill="url(#linear-gradient-40)" d="M98.07 178.04l5.56 3.21-5.56-3.21z"/><path fill="url(#linear-gradient-41)" d="M136.32 200.13v3.28l.14.08-.14.08v-3.44z"/><path fill="url(#linear-gradient-42)" d="M114.42 187.48l5.56 3.21-5.57-3.21h.01z"/><path fill="url(#linear-gradient-43)" d="M119.98 190.69v3.28l.13.08-.14.08v-3.44h.01z"/><path fill="url(#linear-gradient-44)" d="M163.45 215.79l5.56 3.21-5.56-3.21z"/><path fill="url(#linear-gradient-45)" d="M152.67 209.56v3.29l.13.08-.14.08v-3.44l.01-.01z"/><path fill="url(#linear-gradient-46)" d="M147.1 206.35l5.57 3.21-5.57-3.2v-.01z"/><path fill="url(#linear-gradient-47)" d="M21.91 137.51l-5.57-3.21v-3.44l5.57 3.21v3.44z"/><path fill="url(#linear-gradient-48)" d="M32.69 140.3l5.56 3.21v3.44l-5.56-3.21v-3.44z"/><path fill="url(#linear-gradient-49)" d="M87.29 171.82v3.44l-5.57-3.21v-3.44l5.57 3.21z"/><path fill="url(#linear-gradient-50)" d="M70.94 165.82l-5.56-3.21v-3.44l5.56 3.21v3.44z"/><path fill="url(#linear-gradient-51)" d="M54.6 156.39l-5.57-3.21v-3.44l5.57 3.2v3.45z"/><path fill="url(#linear-gradient-52)" d="M98.07 178.04l5.56 3.21v3.45l-5.56-3.21v-3.45z"/><path fill="url(#linear-gradient-53)" d="M136.32 203.57l-5.56-3.21v-3.44l5.56 3.21v3.44z"/><path fill="url(#linear-gradient-54)" d="M119.97 194.13l-5.56-3.21v-3.44l5.56 3.21v3.44z"/><path fill="url(#linear-gradient-55)" d="M147.1 206.36l5.56 3.21v3.44l-5.56-3.21v-3.44z"/><path fill="url(#linear-gradient-56)" d="M169.01 222.44l-5.56-3.21v-3.44l5.56 3.21v3.44z"/><path fill="url(#linear-gradient-57)" d="M245.92 174.6l-2.79 1.61 2.78-1.61h.01z"/><path fill="url(#linear-gradient-58)" d="M178.71 216.84l-9.7 5.6V219v3.28l7.8-4.5v-2.03l1.9 1.09z"/><path fill="url(#linear-gradient-59)" d="M212.01 197.61l-2.73 1.59v-3.17l2.73 1.58z"/><path fill="url(#linear-gradient-60)" d="M220.59 120.58l-1.46.84-2.36 1.36v1.06l1.27-.74 1.09-.62 1.46-.84 1.21-.71v-1.05l-1.21.7z"/><path class="cls-19" d="M242.39 106.73l-3.18-1.84-30.18 17.43 3.19 1.84 3.46-2 1.09.62 2.36-1.36 1.46-.84 1.21-.7-1.08-.63 12.73-7.35 1.08.63 2.37-1.37 1.46-.84 1.21-.7-1.08-.63 3.9-2.26z"/><path fill="url(#linear-gradient-61)" d="M238.36 110.32l-1.46.84-2.37 1.37v1.05l1.28-.74 1.09-.62 1.46-.84 1.21-.71v-1.05l-1.21.7z"/><path fill="url(#linear-gradient-62)" d="M0 121.42V47.84l5.56 3.21v73.58L0 121.42z"/><path fill="url(#linear-gradient-63)" d="M38.25 143.5l-5.56-3.21V66.72l5.56 3.21v73.57z"/><path fill="url(#linear-gradient-64)" d="M21.91 134.07l-5.57-3.21V57.28l5.57 3.21v73.58z"/><path fill="url(#linear-gradient-65)" d="M21.91 134.07V60.49l.13-.08 6.58 3.8v65.98l-6.71 3.88z"/><path fill="url(#linear-gradient-66)" d="M28.62 130.19V64.21l4.07 2.35v65.98l-4.07-2.35z"/><path fill="url(#linear-gradient-67)" d="M21.91 134.07l6.71-3.88 4.07 2.35v7.75l-10.78-6.22z"/><path fill="url(#linear-gradient-68)" d="M22.04 60.41l-.13.08v-3.44 3.29l.13.07z"/><path fill="url(#linear-gradient-69)" d="M5.56 124.63V51.05l.14-.07 6.58 3.8v65.97l-6.72 3.88z"/><path fill="url(#linear-gradient-70)" d="M12.28 120.75V54.78l4.06 2.35v65.97l-4.06-2.35z"/><path fill="url(#linear-gradient-71)" d="M12.28 120.75l4.06 2.35v7.75l-10.78-6.22 6.72-3.88z"/><path fill="url(#linear-gradient-72)" d="M5.7 50.98l-.14.07v-3.44 3.29l.14.08z"/><path fill="url(#linear-gradient-73)" d="M38.25 143.5V69.93l.13-.08 6.59 3.8v65.98l-6.72 3.87z"/><path fill="url(#linear-gradient-74)" d="M44.97 139.63V73.65L49.03 76v65.98l-4.06-2.35z"/><path fill="url(#linear-gradient-75)" d="M38.25 143.5l6.72-3.87 4.06 2.35v7.75l-10.78-6.23z"/><path fill="url(#linear-gradient-76)" d="M38.38 69.85l-.13.08v-3.44 3.28l.13.08z"/><path fill="url(#linear-gradient-77)" d="M54.6 152.94l-5.57-3.21V76.15l5.57 3.21v73.58z"/><path fill="url(#linear-gradient-78)" d="M70.94 162.38l-5.56-3.21V85.59l5.56 3.21v73.58z"/><path fill="url(#linear-gradient-79)" d="M70.94 162.38V88.8l.13-.08 6.59 3.8v65.98l-6.72 3.88z"/><path fill="url(#linear-gradient-80)" d="M77.66 158.5V92.52l4.06 2.35v65.98l-4.06-2.35z"/><path fill="url(#linear-gradient-81)" d="M70.94 162.38l6.72-3.88 4.06 2.35v7.75l-10.78-6.22z"/><path fill="url(#linear-gradient-82)" d="M71.07 88.72l-.13.08v-3.44 3.29l.13.07z"/><path fill="url(#linear-gradient-83)" d="M87.29 171.81l-5.57-3.21V95.03l5.57 3.21v73.57z"/><path fill="url(#linear-gradient-84)" d="M87.29 171.81V98.24l.13-.08 6.58 3.8v65.98l-6.71 3.87z"/><path fill="url(#linear-gradient-85)" d="M94 167.94v-65.98l4.07 2.35v65.98L94 167.94z"/><path fill="url(#linear-gradient-86)" d="M87.29 171.81l6.71-3.87 4.07 2.35v7.75l-10.78-6.23z"/><path fill="url(#linear-gradient-87)" d="M87.42 98.16l-.13.08V94.8v3.28l.13.08z"/><path fill="url(#linear-gradient-88)" d="M54.6 152.94V79.36l.13-.07 6.58 3.8v65.97l-6.71 3.88z"/><path fill="url(#linear-gradient-89)" d="M61.31 149.06V83.09l4.07 2.35v65.97l-4.07-2.35z"/><path fill="url(#linear-gradient-90)" d="M54.6 152.94l6.71-3.88 4.07 2.35v7.75l-10.78-6.22z"/><path fill="url(#linear-gradient-91)" d="M54.73 79.29l-.13.07v-3.44 3.29l.13.08z"/><path fill="url(#linear-gradient-92)" d="M103.63 181.25l-5.56-3.21v-73.58l5.56 3.21v73.58z"/><path fill="url(#linear-gradient-93)" d="M136.32 200.12l-5.56-3.21v-73.57l5.56 3.21v73.57z"/><path fill="url(#linear-gradient-94)" d="M136.32 200.12v-73.57l.14-.08 6.57 3.8v65.98l-6.71 3.87z"/><path fill="url(#linear-gradient-95)" d="M143.03 196.25v-65.98l4.07 2.35v65.98l-4.07-2.35z"/><path fill="url(#linear-gradient-96)" d="M136.32 200.12l6.71-3.87 4.07 2.35v7.75l-10.78-6.23z"/><path fill="url(#linear-gradient-97)" d="M136.46 126.47l-.14.08v-3.44 3.28l.14.08z"/><path fill="url(#linear-gradient-98)" d="M103.63 181.25v-73.58l.14-.07 6.57 3.8v65.97l-6.71 3.88z"/><path fill="url(#linear-gradient-99)" d="M110.34 177.37V111.4l4.07 2.35v65.97l-4.07-2.35z"/><path fill="url(#linear-gradient-100)" d="M103.63 181.25l6.71-3.88 4.07 2.35v7.75l-10.78-6.22z"/><path fill="url(#linear-gradient-101)" d="M103.77 107.6l-.14.07v-3.44 3.29l.14.08z"/><path fill="url(#linear-gradient-102)" d="M119.97 190.69l-5.56-3.21V113.9l5.56 3.21v73.58z"/><path fill="url(#linear-gradient-103)" d="M152.66 209.56l-5.56-3.21v-73.57l5.56 3.21v73.57z"/><path fill="url(#linear-gradient-104)" d="M119.97 190.69v-73.58l.14-.08 6.58 3.8v65.98l-6.71 3.88h-.01z"/><path fill="url(#linear-gradient-105)" d="M126.69 186.81v-65.98l4.07 2.35v65.98l-4.07-2.35z"/><path fill="url(#linear-gradient-106)" d="M119.98 190.69l6.71-3.88 4.07 2.35v7.75l-10.78-6.22z"/><path fill="url(#linear-gradient-107)" d="M120.11 117.03l-.14.08v-3.44l.01 3.29.13.07z"/><path fill="url(#linear-gradient-108)" d="M169.01 219l-5.56-3.21v-73.58l5.56 3.21V219z"/><path fill="url(#linear-gradient-109)" d="M169.01 219v-73.58l6.71-3.87v73.57l-6.71 3.88z"/><path fill="url(#linear-gradient-110)" d="M175.72 215.12v-73.57l3.19 1.84v73.57l-.2-.12-1.9-1.09-1.08-.63h-.01z"/><path fill="url(#linear-gradient-111)" d="M152.66 209.56v-73.57l.14-.08 6.58 3.8v65.98l-6.71 3.87h-.01z"/><path fill="url(#linear-gradient-112)" d="M159.38 205.69v-65.98l4.07 2.35v65.97l-4.07-2.34z"/><path fill="url(#linear-gradient-113)" d="M152.67 209.56l6.71-3.87 4.07 2.34v7.75l-10.78-6.22z"/><path fill="url(#linear-gradient-114)" d="M152.8 135.91l-.14.08v-3.45l.01 3.29.13.08z"/><path fill="url(#linear-gradient-115)" d="M0 44.4v3.44l169.01 97.58v-3.44L0 44.4z"/><path fill="url(#linear-gradient-116)" d="M239.21 104.89l6.71-3.87v73.57l-2.79 1.62-.54-.31-.2.12v-69.29l-3.18-1.84z"/><path fill="url(#linear-gradient-117)" d="M38.25 66.49l-5.56-3.21 5.56 3.21z"/><path fill="url(#linear-gradient-118)" d="M21.91 57.05l-5.57-3.21 5.57 3.21z"/><path fill="url(#linear-gradient-119)" d="M54.6 75.92l-5.57-3.21 5.57 3.21z"/><path fill="url(#linear-gradient-120)" d="M70.94 85.36l-5.56-3.21 5.56 3.21z"/><path fill="url(#linear-gradient-121)" d="M87.29 94.8l-5.57-3.21 5.57 3.21z"/><path fill="url(#linear-gradient-122)" d="M103.63 104.23l-5.56-3.21 5.56 3.21z"/><path fill="url(#linear-gradient-123)" d="M136.32 123.11l-5.56-3.21 5.56 3.21z"/><path fill="url(#linear-gradient-124)" d="M119.97 113.67l-5.56-3.21 5.57 3.21h-.01z"/><path fill="url(#linear-gradient-125)" d="M152.66 132.54l-5.56-3.21 5.57 3.21h-.01z"/><path fill="url(#linear-gradient-126)" d="M169.01 141.98l-5.56-3.21 5.56 3.21z"/><path class="cls-2" d="M242.39 180.31l-4.03 2.33v-1.63l4.03-2.33v1.63z"/><path fill="url(#linear-gradient-127)" d="M212.22 124.16v73.57l-.21-.12-2.73-1.58v-70.17l-.25-.14v-3.4l3.19 1.84z"/><path fill="url(#linear-gradient-128)" d="M209.03 122.32v3.4l-2.94-1.7 2.94-1.7z"/><path fill="url(#linear-gradient-129)" d="M245.91 97.58l-8.58 4.96-59.48 34.34-8.84 5.1v3.29-3.29 3.44l6.71-3.87 30.37-17.53 2.94-1.7 30.18-17.43 6.71-3.87-.01-3.44z"/><path fill="url(#linear-gradient-130)" d="M176.81 217.78l-7.8 4.5V219l6.72-3.88 1.08.63v2.03z"/><path fill="url(#linear-gradient-131)" d="M175.73 215.12l-6.72 3.88 6.71-3.88h.01z"/><path fill="url(#linear-gradient-132)" d="M171.25 134.26l-7.8-4.5 58.44-33.74 7.81 4.5-58.45 33.74z"/><path fill="url(#linear-gradient-133)" d="M221.89 96.02l-58.44 33.74-2.98-1.72 61.29-35.38v3.28l.13.08z"/><path fill="url(#linear-gradient-134)" d="M221.76 95.94v-3.28l10.78 6.22-2.84 1.64-7.81-4.5-.13-.08z"/><path fill="url(#linear-gradient-135)" d="M13.37 43.11L74.65 7.72v3.29l.14.08-58.44 33.74-2.98-1.72z"/><path fill="url(#linear-gradient-136)" d="M16.35 44.83l58.44-33.74 7.8 4.5-58.44 33.74-7.8-4.5z"/><path fill="url(#linear-gradient-137)" d="M74.65 11.01V7.72l10.79 6.23-2.85 1.64-7.8-4.5-.14-.08z"/><path fill="url(#linear-gradient-138)" d="M29.71 52.55L91 17.16v3.29l.13.07-58.44 33.75-2.98-1.72z"/><path fill="url(#linear-gradient-139)" d="M32.69 54.27l58.44-33.75 7.81 4.51-58.45 33.74-7.8-4.5z"/><path fill="url(#linear-gradient-140)" d="M91 20.45v-3.29l10.78 6.23-2.84 1.64-7.81-4.51-.13-.07z"/><path fill="url(#linear-gradient-141)" d="M46.06 61.98l61.28-35.38v3.28l.14.08L49.03 63.7l-2.97-1.72z"/><path fill="url(#linear-gradient-142)" d="M49.03 63.7l58.45-33.74 7.8 4.51-58.44 33.74-7.81-4.51z"/><path fill="url(#linear-gradient-143)" d="M107.34 29.88V26.6l10.79 6.22-2.85 1.65-7.8-4.51-.14-.08z"/><path fill="url(#linear-gradient-144)" d="M62.4 71.42l61.29-35.39v3.29l.13.08-58.44 33.74-2.98-1.72z"/><path fill="url(#linear-gradient-145)" d="M65.38 73.14l58.44-33.74 7.81 4.5-58.45 33.74-7.8-4.5z"/><path fill="url(#linear-gradient-146)" d="M123.69 39.32v-3.29l10.78 6.23-2.84 1.64-7.81-4.5-.13-.08z"/><path fill="url(#linear-gradient-147)" d="M78.75 80.86l61.28-35.39v3.29l.14.07-58.45 33.75-2.97-1.72z"/><path fill="url(#linear-gradient-148)" d="M81.72 82.58l58.45-33.75 7.8 4.51-58.44 33.74-7.81-4.5z"/><path fill="url(#linear-gradient-149)" d="M140.03 48.76v-3.29l10.79 6.23-2.85 1.64-7.8-4.51-.14-.07z"/><path fill="url(#linear-gradient-150)" d="M95.09 90.29l61.29-35.38v3.28l.13.08-58.44 33.74-2.98-1.72z"/><path fill="url(#linear-gradient-151)" d="M98.07 92.01l58.44-33.74 7.81 4.51-58.44 33.74-7.81-4.51z"/><path fill="url(#linear-gradient-152)" d="M156.38 58.19v-3.28l10.78 6.22-2.84 1.65-7.81-4.51-.13-.08z"/><path fill="url(#linear-gradient-153)" d="M111.44 99.73l61.28-35.39v3.29l.14.08-58.44 33.74-2.98-1.72z"/><path fill="url(#linear-gradient-154)" d="M114.42 101.45l58.44-33.74 7.8 4.5-58.44 33.74-7.8-4.5z"/><path fill="url(#linear-gradient-155)" d="M172.72 67.63v-3.29l10.79 6.23-2.85 1.64-7.8-4.5-.14-.08z"/><path fill="url(#linear-gradient-156)" d="M127.78 109.17l61.29-35.39v3.29l.13.07-58.44 33.75-2.98-1.72z"/><path fill="url(#linear-gradient-157)" d="M130.76 110.89l58.44-33.75 7.81 4.51-58.45 33.74-7.8-4.5z"/><path fill="url(#linear-gradient-158)" d="M189.07 77.07v-3.29l10.78 6.23-2.84 1.64-7.81-4.51-.13-.07z"/><path fill="url(#linear-gradient-159)" d="M144.13 118.6l61.28-35.38v3.28l.14.08-58.45 33.74-2.97-1.72z"/><path fill="url(#linear-gradient-160)" d="M147.1 120.32l58.45-33.74 7.8 4.51-58.44 33.74-7.81-4.51z"/><path fill="url(#linear-gradient-161)" d="M205.41 86.5v-3.28l10.79 6.22-2.85 1.65-7.8-4.51-.14-.08z"/><path d="M240.35 94.37l-10.78-6.23-5.57-3.2-10.78-6.23-5.56-3.21-10.78-6.23-5.56-3.21-10.78-6.23-5.54-3.2-10.82-6.23-5.56-3.21L147.84 41l-5.56-3.21-10.78-6.23-5.56-3.21-10.78-6.23-5.56-3.21-10.8-6.26-5.56-3.21-10.78-6.22L76.91 0 0 44.4l5.56 3.21 10.78 6.23 5.56 3.21 10.78 6.23 5.56 3.21L49 72.71l5.56 3.21 10.78 6.23 5.56 3.21 10.78 6.23 5.56 3.21 10.83 6.2 5.56 3.21 10.78 6.23 5.56 3.21 10.78 6.23 5.56 3.21 10.78 6.23 5.56 3.21 10.78 6.23L169 142l7.8-4.51 61.29-35.38 7.8-4.51zm-224-49.55l-3-1.72 61.3-35.38 10.78 6.23-2.85 1.64-58.43 33.74zm16.34 9.44l-3-1.72L91 17.16l10.78 6.23L98.94 25 40.49 58.77zM49 63.7l-3-1.72 61.34-35.38 10.78 6.23-2.85 1.64-58.43 33.74zm16.34 9.44l-3-1.72L123.69 36l10.78 6.23-2.85 1.64-58.44 33.77zm16.35 9.44l-3-1.72L140 45.47l10.78 6.23-2.78 1.64-58.47 33.74zM98.07 92l-3-1.72 61.29-35.39 10.78 6.23-2.85 1.64-58.42 33.76zm16.35 9.44l-3-1.72 61.29-35.39 10.78 6.23-2.85 1.64-58.42 33.8zm16.34 9.44l-3-1.72 61.29-35.38 10.8 6.22-2.85 1.65-58.44 33.74zm16.35 9.44l-3-1.72 61.29-35.38 10.78 6.23-2.85 1.64-58.44 33.74zm82.59-19.8l-58.44 33.74-7.8-4.51-3-1.72 61.29-35.38 10.78 6.23z" fill="url(#linear-gradient-162)"/></g></g></svg>