<svg xmlns="http://www.w3.org/2000/svg" viewBox="0 0 213.49 191.7"><defs><style>.cls-1{fill:#bddff4}.cls-2{fill:#90caf4}.cls-3{fill:#5ea6d3}.cls-4{fill:#2c65d6}.cls-5{fill:#2030a5}.cls-6{fill:#3685fc}</style></defs><g id="Слой_2" data-name="Слой 2"><g id="Layer_1" data-name="Layer 1"><path class="cls-1" d="M72.05 94.91l-2.47 1.43 74.29 42.89v-20.89L85.22 84.47l-13.17 7.61v2.83z"/><path class="cls-2" d="M69.58 96.34l2.47-1.43V76.87l-2.47-1.43v-1.73l-.06.04v67.4l.06-.03v-2.18l2.47-1.42V99.94l-2.47-1.42v-2.18z"/><path class="cls-3" d="M69.58 96.34v2.18l2.47 1.42 30.08 17.37 41.74 24.1v-2.18L69.58 96.34zm0-22.63v1.73l2.47 1.43 13.17 7.6 58.65 33.87v-1.74l2.42 1.4v-.44L67.12 71.85v.44l2.46 1.42z"/><path class="cls-1" d="M72.05 137.52l-2.47 1.42 74.29 42.9v-40.43l-41.74-24.1-30.08 17.37v2.84z"/><path class="cls-3" d="M69.58 138.94v2.18l74.29 42.89v-2.17l-74.29-42.9z"/><path class="cls-1" d="M69.58 73.71l-2.46-1.42-.06.04 2.46 1.42.06-.04z"/><path class="cls-3" d="M146.29 118l-2.42-1.4v1.74l2.42 1.39V118zm-79.23 21.74l2.46 1.41v-67.4l-2.46-1.42v67.41z"/><path class="cls-2" d="M146.32 185.43l2.53-1.46v-67.41l-2.53 1.44z"/><path class="cls-3" d="M146.32 185.43V118v1.71l-2.42-1.4v20.9l2.42 1.4v2.17l-2.42-1.4v40.43l2.42 1.4v2.18z"/><path class="cls-1" d="M146.32 118l2.53-1.46-2.57 1.44z"/><path class="cls-2" d="M146.29 118l2.53-1.46v1.71l22.29-12.87 13-7.53 2.46-1.42 2.61-1.43h.06v-2.24l-43 24.8z"/><path class="cls-1" d="M189.25 115.83l-.07-.04-2.53 1.46-2.45-1.41v-2.93l-13.05-7.53-22.3 12.87v20.9l40.4-23.32z"/><path class="cls-3" d="M184.2 115.84l2.45 1.41V96.43l-2.45 1.41v18z"/><path class="cls-2" d="M186.65 117.25l2.53-1.46V94.97l-2.53 1.46v20.82zm2.6-1.42l-40.4 23.32v2.17l5.39-3.1 29.96-17.3 2.45-1.42 2.53-1.46.07-.04v-2.17z"/><path class="cls-3" d="M146.29 142.81v-2.18l-2.42-1.4v2.18l2.42 1.4z"/><path class="cls-1" d="M189.25 92.75l-79.17-45.7-42.96 24.8 79.17 45.71 42.96-24.81z"/><path class="cls-2" d="M148.85 183.93l40.4-23.33v-2.17l-40.4 23.32v2.18z"/><path class="cls-1" d="M189.25 158.43l-.07-.04-2.53 1.47-2.45-1.42v-2.93l-29.96-17.29-5.39 3.1v40.43l40.4-23.32z"/><path class="cls-2" d="M186.65 159.86l2.53-1.47v-40.35l-2.53 1.46v40.36z"/><path class="cls-3" d="M184.2 158.44l2.45 1.42V119.5l-2.45 1.42v37.52zm-37.91 26.97v-2.18l-2.42-1.39v2.17l2.42 1.4z"/><path class="cls-4" d="M197.84 184.19l4.03-2.33 2.2-1.27.68-.39 4.03-2.32 2.29-1.33.68-.39 1.74-1v-26.88l-28.65 16.54v26.88l3.12-1.81 2.18-1.25.68-.39 4.02-2.33 2.33-1.34.67-.39z"/><path class="cls-5" d="M159.81 177.25l25.03 14.45v-26.88l-25.03-14.44v26.87z"/><path class="cls-6" d="M213.49 148.28l-25.03-14.45-28.65 16.55 25.03 14.44 28.65-16.54z"/><path fill="#f74169" d="M167.13 97.2l5.58-3.22 3.05-1.76.93-.55 5.58-3.22 3.18-1.83.93-.54 2.42-1.4V47.47l-39.68 22.91v37.21l4.33-2.5 3.01-1.74.94-.54 5.58-3.22 3.21-1.85.94-.54z"/><path fill="#ca4560" d="M114.47 87.58l34.65 20.01V70.38l-34.65-20.01v37.21z"/><path fill="#fe5773" d="M188.8 47.47l-34.66-20.01-39.67 22.91 34.65 20.01 39.68-22.91z"/><path class="cls-2" d="M52.66 169.91l5.58-3.22 3.05-1.76.94-.55 5.58-3.21 3.17-1.84.94-.54 2.41-1.39v-37.21l-39.67 22.9v37.21l4.32-2.49 3.02-1.74.93-.54 5.58-3.22 3.22-1.86.93-.54z"/><path class="cls-1" d="M0 160.29l34.66 20.01v-37.21L0 123.08v37.21z"/><path fill="#e2f1f7" d="M74.33 120.19l-34.65-20.01L0 123.08l34.66 20.01 39.67-22.9z"/><path class="cls-4" d="M167.89 47.8l3.83-2.21 2.09-1.2.64-.38 3.82-2.2 2.18-1.26.64-.37 1.66-.96v-25.5l-27.2 15.7v25.51l2.97-1.72 2.06-1.19.65-.37 3.82-2.2 2.2-1.28.64-.37z"/><path class="cls-5" d="M131.79 41.21l23.76 13.72V29.42L131.79 15.7v25.51z"/><path class="cls-6" d="M182.75 13.72L158.99 0l-27.2 15.7 23.76 13.72 27.2-15.7z"/></g></g></svg>