<svg xmlns="http://www.w3.org/2000/svg" viewBox="0 0 351.83 281.84"><defs><style>.cls-1{fill:#bddff4}.cls-2{fill:#2030a5}.cls-3{fill:#2c65d6}.cls-4{fill:#3046b5}</style></defs><g id="Слой_2" data-name="Слой 2"><g id="Layer_1" data-name="Layer 1"><path class="cls-1" d="M244.92 274.74v-39.85l-26.5-15.3-2.67 1.54v36.76l-4.65-2.68v-39.85l-26.5-15.3-2.67 1.55v36.76l-4.64-2.68v-39.85l-26.5-15.3-2.67 1.54v36.77l-4.65-2.69v-39.84l-26.5-15.3-2.67 1.54v36.76l-4.64-2.68v-39.85l-26.5-15.29-2.67 1.54v36.76l-4.65-2.68v-39.85l-26.5-15.3-2.67 1.54v36.77l-4.65-2.69v-39.84l-26.49-15.3-2.67 1.54v36.76L0 133.33V54.62l257.22 148.51v78.71l-12.3-7.1z"/><path class="cls-2" d="M244.92 234.89v39.85l-2.67 1.54v-39.85l2.67-1.54z"/><path class="cls-3" d="M244.92 234.89l-2.67 1.54-26.5-15.3 2.67-1.54 26.5 15.3z"/><path class="cls-4" d="M242.25 236.43v39.85l-26.5-15.3v-39.85l26.5 15.3z"/><path class="cls-2" d="M211.1 215.36v39.85l-2.67 1.54v-39.84l2.67-1.55z"/><path class="cls-3" d="M211.1 215.36l-2.67 1.55-26.5-15.3 2.67-1.55 26.5 15.3z"/><path class="cls-4" d="M208.43 216.91v39.84l-26.5-15.29v-39.85l26.5 15.3zm-101.45-18.73l-26.49-15.29v-39.85l26.49 15.3v39.84zm-33.81-19.52l-26.5-15.3v-39.85l26.5 15.3v39.85z"/><path class="cls-2" d="M73.17 178.66v-39.85l2.67-1.54v39.85l-2.67 1.54z"/><path class="cls-3" d="M73.17 138.81l-26.5-15.3 2.67-1.54 26.5 15.3-2.67 1.54zm7.32 4.23l2.67-1.54 26.5 15.29-2.68 1.55-26.49-15.3zm-67.63-39.05l2.67-1.54 26.49 15.3-2.67 1.54-26.49-15.3z"/><path class="cls-4" d="M39.35 159.14l-26.49-15.3v-39.85l26.49 15.3v39.85z"/><path class="cls-2" d="M106.98 198.18v-39.84l2.68-1.55v39.85l-2.68 1.54zm-67.63-39.04v-39.85l2.67-1.54v39.84l-2.67 1.55z"/><path class="cls-4" d="M140.8 217.71l-26.5-15.3v-39.85l26.5 15.3v39.85z"/><path class="cls-3" d="M140.8 177.86l-26.5-15.3 2.67-1.54 26.5 15.3-2.67 1.54z"/><path class="cls-2" d="M143.47 176.32v39.84l-2.67 1.55v-39.85l2.67-1.54z"/><path class="cls-4" d="M174.62 237.23l-26.5-15.3v-39.85l26.5 15.3v39.85z"/><path class="cls-2" d="M174.62 237.23v-39.85l2.67-1.54v39.85l-2.67 1.54z"/><path class="cls-3" d="M174.62 197.38l-26.5-15.3 2.67-1.54 26.5 15.3-2.67 1.54z"/><path fill="#5ea6d3" d="M257.22 281.84v-78.71l47.31-49.7 47.3-4.92v78.71l-9.45 5.45v-65.69l-7.64 4.41-68.27 39.42v65.69l-9.25 5.34z"/><path fill="#90caf4" d="M47.3 4.92L94.61 0l257.22 148.51-47.3 4.92L47.3 4.92z"/><path fill="#e2f1f7" d="M304.53 153.43l-47.31 49.7L0 54.62l47.3-49.7 257.23 148.51z"/><path class="cls-1" d="M342.38 166.98v65.69l-7.64-4.41v-56.87l7.64-4.41z"/><path class="cls-2" d="M334.74 228.26l-68.27 39.42v-56.87l68.27-39.42v56.87z"/></g></g></svg>