<svg xmlns="http://www.w3.org/2000/svg" viewBox="0 0 45.48 36.92"><g data-name="Слой 2"><g data-name="1"><path d="M13.06 19a.58.58 0 01-.58-.58c0-.69 0-1.38.06-2.06a.58.58 0 111.16.07c0 .66-.06 1.32-.06 2a.58.58 0 01-.58.57zm19.36 0a.58.58 0 01-.58-.58 30.22 30.22 0 00-.84-7.11.58.58 0 111.14-.31 31.38 31.38 0 01.86 7.46.58.58 0 01-.58.54zM15.47 7.27a.58.58 0 01-.52-.83C16.89 2.39 19.73.06 22.74.06s5.59 2.09 7.55 5.88a.58.58 0 11-1 .53c-1.72-3.34-4.09-5.25-6.51-5.25s-5 2.08-6.74 5.72a.58.58 0 01-.57.33z"/><path d="M32.58 9.3a.58.58 0 01-.18-1.13 20.2 20.2 0 003.12-1.27 17.23 17.23 0 00-23.83-1.67.58.58 0 01-.75-.89 18.39 18.39 0 0125.94 2.35.58.58 0 01-.16.88 20.38 20.38 0 01-4 1.7z"/><path d="M22.77 7.21a.58.58 0 01-.58-.58v-6a.58.58 0 011.16 0v6a.58.58 0 01-.58.58z"/><path d="M8.85 19a.58.58 0 01-.37-.13L.21 12a.58.58 0 010-.9l8.27-6.8a.58.58 0 011 .45v3h20.29a.58.58 0 01.58.58v6.49a.58.58 0 01-.58.58H9.43v3a.58.58 0 01-.58.58zM1.5 11.59l6.77 5.57v-2.32a.58.58 0 01.58-.58h20.34V8.93H8.85a.58.58 0 01-.58-.58V6z"/><path d="M40.56 19a.58.58 0 01-.58-.58v-.06A17.24 17.24 0 0011 5.79a.58.58 0 11-.79-.85A18.4 18.4 0 0141.14 18.4v.07a.59.59 0 01-.58.53z"/><path d="M40.56 19h-1.37a.58.58 0 110-1.16h1.37a.58.58 0 110 1.16zm-6.26 0H10.86a.58.58 0 110-1.16H34.3a.58.58 0 110 1.16zM6.36 19H4.92a.58.58 0 110-1.16h1.44a.58.58 0 110 1.16z"/><path d="M4.92 19a.55.55 0 01-.58-.54v-.06c0-.51 0-1 .06-1.53a.58.58 0 111.16.1c0 .47-.06 1-.06 1.43a.61.61 0 01-.58.61zm17.82 0a.58.58 0 01-.58-.58v-2a.58.58 0 111.16 0v2a.58.58 0 01-.58.58zm9.62 2.19a.59.59 0 01-.58-.62c0-.66.06-1.32.06-2a.58.58 0 011.16 0c0 .69 0 1.38-.06 2.06a.58.58 0 01-.58.56zm-18.46 5.2a.58.58 0 01-.56-.44 31.39 31.39 0 01-.86-7.42.58.58 0 111.16 0 30.22 30.22 0 00.83 7.15.58.58 0 01-.43.7zm8.84 10.53c-2.91 0-5.59-2.09-7.55-5.88a.58.58 0 111-.53c1.72 3.34 4.09 5.25 6.51 5.25s5-2.08 6.74-5.71a.58.58 0 111 .5c-1.85 4.05-4.69 6.37-7.7 6.37z"/><path d="M22.74 36.92A18.36 18.36 0 018.6 30.29a.58.58 0 01.16-.88 20.37 20.37 0 014-1.7.58.58 0 01.35 1.11A20.18 20.18 0 0010 30.09a17.23 17.23 0 0023.83 1.66.58.58 0 01.75.89 18.41 18.41 0 01-11.84 4.28z"/><path d="M22.69 36.92a.58.58 0 01-.58-.58v-6a.58.58 0 011.16 0v6a.58.58 0 01-.58.58z"/><path d="M36.63 32.78a.58.58 0 01-.58-.58v-3H15.71a.58.58 0 01-.58-.58v-6.47a.58.58 0 01.58-.58h20.34v-3a.58.58 0 011-.45l8.27 6.8a.58.58 0 010 .9L37 32.65a.58.58 0 01-.37.13zm-20.34-4.72h20.34a.58.58 0 01.58.58V31L44 25.39l-6.77-5.57v2.33a.58.58 0 01-.58.58H16.29z"/><path d="M22.74 36.92a18.42 18.42 0 01-18.4-18.4l.58-.06h.58a17.24 17.24 0 0029 12.67.58.58 0 01.79.85 18.33 18.33 0 01-12.55 4.94zM40.5 20.59a.59.59 0 01-.58-.63c0-.48.06-1 .06-1.43a.58.58 0 111.16 0c0 .51 0 1-.06 1.53a.58.58 0 01-.58.53zm-17.76.56a.58.58 0 01-.58-.58v-2a.58.58 0 011.16 0v2a.58.58 0 01-.58.58z"/></g></g></svg>