<svg xmlns="http://www.w3.org/2000/svg" viewBox="0 0 375 268.73"><defs><style>.cls-1{fill:#fffaea}.cls-2{fill:#693119}.cls-3,.cls-4,.cls-47,.cls-49,.cls-5{fill:none;stroke-linecap:round}.cls-3,.cls-4,.cls-5{stroke:#693119}.cls-3,.cls-4,.cls-47,.cls-49,.cls-5{stroke-miterlimit:10}.cls-3{stroke-width:.86px}.cls-4{stroke-width:.64px}.cls-5{stroke-width:.43px}.cls-10{letter-spacing:-.08em}.cls-48{fill:#d2a01f}.cls-17{fill:#9d9fa2}.cls-22{letter-spacing:.02em}.cls-28{letter-spacing:-.01em}.cls-29{letter-spacing:0}.cls-30,.cls-32,.cls-34{letter-spacing:-.01em}.cls-35,.cls-38,.cls-39{letter-spacing:0}.cls-44{letter-spacing:-.05em}.cls-47,.cls-49{stroke:#d2a01f}.cls-47{stroke-width:.93px}.cls-49{stroke-width:.69px}</style></defs><g id="Слой_2" data-name="Слой 2"><g id="OBJECTS"><path id="_Контур_" data-name="&lt;Контур&gt;" class="cls-1" d="M0 0h375v268.73H0z"/><path id="_Контур_2" data-name="&lt;Контур&gt;" class="cls-1" d="M6.11 6.11h362.78v256.51H6.11z"/><circle class="cls-2" cx="11.36" cy="21.05" r=".69" transform="rotate(-84.61 11.366 21.052)"/><path class="cls-3" d="M9.82 37.56a1.12 1.12 0 010 1.58 1.4 1.4 0 01-2 0 1.75 1.75 0 010-2.47 2.61 2.61 0 012.1-.57c1.52.08 3.62.37 4-2.22"/><path class="cls-2" d="M19.87 25.53a1.5 1.5 0 011.91.7 1.74 1.74 0 01-.28 1.95 2 2 0 01-1.84.53 2 2 0 01-1.44-1.2 2.44 2.44 0 011.22-3.14 2.93 2.93 0 013.3.62.2.2 0 010 .28.2.2 0 01-.28 0 2.48 2.48 0 00-2.8-.45 1.89 1.89 0 00-.88 2.45 1.42 1.42 0 001 .8 1.28 1.28 0 001.22-.36 1 1 0 00.13-1.13.72.72 0 00-.92-.31.4.4 0 01-.35-.72z"/><path class="cls-3" d="M11.3 21.32a1.12 1.12 0 01-1-1.22 1.4 1.4 0 011.52-1.26 1.75 1.75 0 011.58 1.9 2.61 2.61 0 01-1.26 1.78c-1.22.91-3 2-1.7 4.29"/><path class="cls-4" d="M16.52 18.93a.84.84 0 01.8-.87 1 1 0 011.09 1 1.31 1.31 0 01-1.24 1.36 2 2 0 01-1.44-.74c-.8-.81-1.81-2-3.35-.81"/><path class="cls-2" d="M13.69 30.15a1.51 1.51 0 00.11-2 2.14 2.14 0 00-2.31-.62 2.69 2.69 0 00-1.63 2 3 3 0 00.78 2.62 3.91 3.91 0 002.68 1.19 4 4 0 002.8-1 5.22 5.22 0 001.28-5.84.42.42 0 01.76-.34 6.16 6.16 0 01-1.34 6.93 5.07 5.07 0 01-3.53 1.4A5.13 5.13 0 019.74 33a4.3 4.3 0 01-1.24-3.71 4.09 4.09 0 012.5-3.18 3.67 3.67 0 014 1 3.15 3.15 0 01-.12 4.27.84.84 0 11-1.18-1.21z"/><path class="cls-2" d="M16.16 23.7a1 1 0 00-1.41-.08 1.48 1.48 0 00-.43 1.6 1.85 1.85 0 001.4 1.13 2.06 2.06 0 001.81-.54 2.74 2.74 0 00.13-3.81 3.6 3.6 0 00-4-.89.29.29 0 01-.24-.53 4.25 4.25 0 014.78.93 3.5 3.5 0 011 2.44 3.54 3.54 0 01-1 2.45 3 3 0 01-2.59.85 2.82 2.82 0 01-2.2-1.71A2.53 2.53 0 0114 22.8a2.17 2.17 0 012.94.08.58.58 0 01-.83.82z"/><circle class="cls-2" cx="13.81" cy="30.47" r="1.37" transform="rotate(-45 13.81 30.47)"/><circle class="cls-2" cx="16.38" cy="23.61" r=".94" transform="rotate(-45 16.381 23.615)"/><circle class="cls-2" cx="20.07" cy="26.16" r=".65" transform="rotate(-23.34 20.066 26.154)"/><circle class="cls-2" cx="22.86" cy="25.4" r=".65" transform="rotate(-23.34 22.873 25.396)"/><circle class="cls-2" cx="9.62" cy="37.73" r=".69" transform="rotate(-45 9.617 37.727)"/><circle class="cls-2" cx="16.72" cy="18.94" r=".52" transform="rotate(-2.65 16.648 18.986)"/><path class="cls-3" d="M37.56 9.82a1.12 1.12 0 001.58 0 1.4 1.4 0 000-2 1.75 1.75 0 00-2.47 0 2.61 2.61 0 00-.57 2.1c.08 1.52.36 3.62-2.22 4"/><path class="cls-2" d="M26.27 20.19a.72.72 0 00.31.92 1 1 0 001.13-.11 1.28 1.28 0 00.37-1.18 1.42 1.42 0 00-.8-1 1.89 1.89 0 00-2.45.88 2.48 2.48 0 00.45 2.8.2.2 0 010 .28.2.2 0 01-.28 0 2.93 2.93 0 01-.62-3.3 2.44 2.44 0 013.14-1.22 2 2 0 011.2 1.44 2 2 0 01-.53 1.84 1.74 1.74 0 01-1.95.28 1.5 1.5 0 01-.7-1.91.4.4 0 11.73.32z"/><path class="cls-3" d="M21.32 11.3a1.12 1.12 0 00-1.22-1 1.4 1.4 0 00-1.26 1.52 1.75 1.75 0 001.9 1.58 2.61 2.61 0 001.78-1.26c.91-1.22 2-3 4.29-1.7"/><path class="cls-4" d="M18.93 16.52a.84.84 0 00-.87.8 1 1 0 001 1.09 1.31 1.31 0 001.36-1.24 2 2 0 00-.74-1.45c-.81-.8-2-1.81-.81-3.35"/><path class="cls-2" d="M31.34 14.88a3.15 3.15 0 01-4.27.12 3.67 3.67 0 01-1-4 4.09 4.09 0 013.22-2.5A4.3 4.3 0 0133 9.74a5.13 5.13 0 011.46 3.55 5.07 5.07 0 01-1.4 3.53 6.16 6.16 0 01-6.93 1.34.42.42 0 01.34-.76 5.22 5.22 0 005.83-1.29 4 4 0 001-2.8 3.91 3.91 0 00-1.19-2.68 3 3 0 00-2.62-.78 2.69 2.69 0 00-2 1.63 2.14 2.14 0 00.62 2.31 1.51 1.51 0 002-.11.84.84 0 111.25 1.14z"/><path class="cls-2" d="M22.88 17a2.17 2.17 0 01-.08-3 2.53 2.53 0 012.77-.67 2.82 2.82 0 011.71 2.2 3 3 0 01-.85 2.59 3.54 3.54 0 01-2.45 1 3.5 3.5 0 01-2.44-1 4.25 4.25 0 01-.93-4.78.29.29 0 01.53.24 3.6 3.6 0 00.89 4 2.74 2.74 0 003.78-.12 2.06 2.06 0 00.54-1.81 1.85 1.85 0 00-1.13-1.4 1.48 1.48 0 00-1.6.43 1 1 0 00.08 1.41.58.58 0 11-.78.86z"/><circle class="cls-2" cx="30.47" cy="13.81" r="1.37" transform="rotate(-45 30.47 13.809)"/><circle class="cls-2" cx="23.61" cy="16.38" r=".94" transform="rotate(-45 23.606 16.382)"/><circle class="cls-2" cx="26.16" cy="20.07" r=".65" transform="rotate(-66.66 26.155 20.065)"/><circle class="cls-2" cx="25.4" cy="22.86" r=".65" transform="rotate(-66.65 25.398 22.864)"/><circle class="cls-2" cx="37.73" cy="9.62" r=".69" transform="rotate(-45 37.723 9.615)"/><circle class="cls-2" cx="18.94" cy="16.72" r=".52" transform="rotate(-87.35 18.946 16.718)"/><path class="cls-2" d="M19.25 19.25a6.32 6.32 0 015.46 5.46 6.32 6.32 0 01-5.46-5.46zm-7.3-8.77a2.2 2.2 0 01-1.79-.32 2.2 2.2 0 01.32 1.79 1 1 0 001.31 1.22 3 3 0 012 .62 3 3 0 01-.62-2 1 1 0 00-1.22-1.31zm2.2 4.1s-2.31-1.67-3.81.17.54 3.85 2.3 2.1c0 0-1.55.19-1.54-.8s1.07-1.6 3.05-1.47zm2.6 2.27s-2.89-2-3.26-.76 3.26.76 3.26.76zm-2.17-2.7s-1.67-2.31.17-3.81 3.85.54 2.1 2.3c0 0 .19-1.55-.8-1.54s-1.61 1.07-1.47 3.05zm2.27 2.6s-2-2.89-.76-3.26.76 3.26.76 3.26z"/><circle class="cls-2" cx="14.87" cy="14.87" r=".57" transform="rotate(-45 14.87 14.87)"/><path class="cls-5" d="M8.45 43a1.12 1.12 0 01-1.12-1.12 1.4 1.4 0 011.4-1.4 1.75 1.75 0 011.75 1.75 2.65 2.65 0 01-1.08 1.89c-.7.65-.92 2.27-.92 4.65v4.57"/><circle class="cls-2" cx="8.47" cy="42.75" r=".69"/><path class="cls-5" d="M43 8.45a1.12 1.12 0 00-1.12-1.12 1.4 1.4 0 00-1.4 1.4 1.75 1.75 0 001.75 1.75 2.65 2.65 0 001.89-1.08c.65-.7 2.27-.92 4.65-.92h4.57"/><circle class="cls-2" cx="42.75" cy="8.47" r=".69"/><circle class="cls-2" cx="363.64" cy="21.05" r=".69" transform="rotate(-5.39 363.73 21.06)"/><path class="cls-3" d="M365.18 37.56a1.12 1.12 0 000 1.58 1.4 1.4 0 002 0 1.75 1.75 0 000-2.47 2.61 2.61 0 00-2.1-.57c-1.52.08-3.62.37-4-2.22"/><path class="cls-2" d="M354.81 26.27a.72.72 0 00-.92.31 1 1 0 00.13 1.13 1.28 1.28 0 001.18.37 1.42 1.42 0 001-.8 1.89 1.89 0 00-.88-2.45 2.48 2.48 0 00-2.8.45.2.2 0 01-.28 0 .2.2 0 010-.28 2.93 2.93 0 013.3-.62 2.44 2.44 0 011.22 3.14 2 2 0 01-1.44 1.2 2 2 0 01-1.84-.53 1.74 1.74 0 01-.28-1.95 1.5 1.5 0 011.91-.7.4.4 0 01-.32.73z"/><path class="cls-3" d="M363.7 21.32a1.12 1.12 0 001-1.22 1.4 1.4 0 00-1.52-1.26 1.75 1.75 0 00-1.58 1.9 2.61 2.61 0 001.26 1.78c1.22.91 3 2 1.7 4.29"/><path class="cls-4" d="M358.48 18.93a.84.84 0 00-.8-.87 1 1 0 00-1.09 1 1.31 1.31 0 001.24 1.36 2 2 0 001.44-.74c.8-.81 1.81-2 3.35-.81"/><path class="cls-2" d="M360.12 31.34a3.15 3.15 0 01-.12-4.27 3.67 3.67 0 014-1 4.09 4.09 0 012.47 3.18 4.3 4.3 0 01-1.21 3.75 5.13 5.13 0 01-3.55 1.46 5.07 5.07 0 01-3.53-1.4 6.16 6.16 0 01-1.34-6.93.42.42 0 01.76.34 5.22 5.22 0 001.29 5.83 4 4 0 002.8 1 3.91 3.91 0 002.68-1.19 3 3 0 00.78-2.62 2.69 2.69 0 00-1.63-2 2.14 2.14 0 00-2.31.62 1.51 1.51 0 00.11 2 .84.84 0 01-1.14 1.25z"/><path class="cls-2" d="M358 22.88a2.17 2.17 0 013-.08 2.53 2.53 0 01.67 2.77 2.82 2.82 0 01-2.2 1.71 3 3 0 01-2.59-.85 3.54 3.54 0 01-1-2.45 3.5 3.5 0 011-2.44 4.25 4.25 0 014.78-.93.29.29 0 01-.24.53 3.6 3.6 0 00-4 .89 2.74 2.74 0 00.12 3.78 2.06 2.06 0 001.81.54 1.85 1.85 0 001.4-1.13 1.48 1.48 0 00-.43-1.6 1 1 0 00-1.41.08.58.58 0 01-.86-.78z"/><circle class="cls-2" cx="361.19" cy="30.47" r="1.37" transform="rotate(-45 361.2 30.466)"/><circle class="cls-2" cx="358.62" cy="23.61" r=".94" transform="rotate(-45 358.621 23.614)"/><circle class="cls-2" cx="354.93" cy="26.16" r=".65" transform="rotate(-66.66 354.928 26.16)"/><circle class="cls-2" cx="352.14" cy="25.4" r=".65" transform="rotate(-66.66 352.124 25.406)"/><circle class="cls-2" cx="365.38" cy="37.73" r=".69" transform="rotate(-45 365.377 37.726)"/><circle class="cls-2" cx="358.28" cy="18.94" r=".52" transform="rotate(-87.35 358.297 18.931)"/><path class="cls-3" d="M337.44 9.82a1.12 1.12 0 01-1.58 0 1.4 1.4 0 010-2 1.75 1.75 0 012.47 0 2.61 2.61 0 01.57 2.1c-.08 1.52-.37 3.62 2.22 4"/><path class="cls-2" d="M349.47 19.87a1.5 1.5 0 01-.7 1.91 1.74 1.74 0 01-1.95-.28 2 2 0 01-.53-1.84 2 2 0 011.2-1.44 2.44 2.44 0 013.14 1.22 2.93 2.93 0 01-.62 3.3.2.2 0 01-.28 0 .2.2 0 010-.28 2.48 2.48 0 00.45-2.8 1.89 1.89 0 00-2.45-.88 1.42 1.42 0 00-.8 1 1.28 1.28 0 00.37 1.18 1 1 0 001.13.13.72.72 0 00.31-.92.4.4 0 01.72-.35z"/><path class="cls-3" d="M353.68 11.3a1.12 1.12 0 011.22-1 1.4 1.4 0 011.26 1.52 1.75 1.75 0 01-1.9 1.58 2.61 2.61 0 01-1.78-1.26c-.91-1.22-2-3-4.29-1.7"/><path class="cls-4" d="M356.07 16.52a.84.84 0 01.87.8 1 1 0 01-1 1.09 1.31 1.31 0 01-1.36-1.24 2 2 0 01.74-1.45c.81-.8 2-1.81.81-3.35"/><path class="cls-2" d="M344.85 13.69a1.51 1.51 0 002 .11 2.14 2.14 0 00.62-2.31 2.69 2.69 0 00-2-1.63 3 3 0 00-2.62.78 3.92 3.92 0 00-1.19 2.68 4 4 0 001 2.8 5.22 5.22 0 005.83 1.29.42.42 0 01.34.76 6.16 6.16 0 01-6.93-1.34 5.07 5.07 0 01-1.4-3.53 5.13 5.13 0 011.5-3.56 4.3 4.3 0 013.75-1.23 4.09 4.09 0 013.14 2.49 3.67 3.67 0 01-1 4 3.15 3.15 0 01-4.27-.12.84.84 0 111.21-1.18z"/><path class="cls-2" d="M351.3 16.16a1 1 0 00.08-1.41 1.48 1.48 0 00-1.6-.43 1.85 1.85 0 00-1.13 1.4 2.06 2.06 0 00.54 1.81 2.74 2.74 0 003.78.12 3.6 3.6 0 00.89-4 .29.29 0 01.53-.24 4.25 4.25 0 01-.93 4.78 3.5 3.5 0 01-2.44 1 3.54 3.54 0 01-2.45-1 3 3 0 01-.85-2.59 2.82 2.82 0 011.71-2.2 2.53 2.53 0 012.77.67 2.17 2.17 0 01-.08 2.94.58.58 0 11-.82-.83z"/><circle class="cls-2" cx="344.53" cy="13.81" r="1.37" transform="rotate(-45 344.522 13.814)"/><circle class="cls-2" cx="351.39" cy="16.38" r=".94" transform="rotate(-45 351.394 16.378)"/><circle class="cls-2" cx="348.84" cy="20.07" r=".65" transform="rotate(-23.34 348.896 20.067)"/><circle class="cls-2" cx="349.6" cy="22.86" r=".65" transform="rotate(-23.34 349.63 22.869)"/><circle class="cls-2" cx="337.27" cy="9.62" r=".69" transform="rotate(-45 337.265 9.62)"/><circle class="cls-2" cx="356.06" cy="16.72" r=".52" transform="rotate(-2.65 355.408 16.656)"/><path class="cls-2" d="M355.75 19.25a6.32 6.32 0 00-5.46 5.46 6.32 6.32 0 005.46-5.46zm7.3-8.77a2.2 2.2 0 001.79-.32 2.2 2.2 0 00-.32 1.79 1 1 0 01-1.31 1.22 3 3 0 00-2 .62 3 3 0 00.62-2 1 1 0 011.22-1.31zm-2.2 4.1s2.31-1.67 3.81.17-.54 3.85-2.3 2.1c0 0 1.55.19 1.54-.8s-1.07-1.6-3.05-1.47zm-2.6 2.27s2.89-2 3.26-.76-3.26.76-3.26.76zm2.17-2.7s1.67-2.31-.17-3.81-3.85.54-2.1 2.3c0 0-.19-1.55.8-1.54s1.61 1.07 1.47 3.05zm-2.27 2.6s2-2.89.76-3.26-.76 3.26-.76 3.26z"/><circle class="cls-2" cx="360.13" cy="14.87" r=".57" transform="rotate(-45 360.155 14.859)"/><path class="cls-5" d="M366.55 43a1.12 1.12 0 001.12-1.12 1.4 1.4 0 00-1.4-1.4 1.75 1.75 0 00-1.75 1.75 2.65 2.65 0 001.08 1.89c.7.65.92 2.27.92 4.65v4.57"/><circle class="cls-2" cx="366.53" cy="42.75" r=".69"/><path class="cls-5" d="M332 8.45a1.12 1.12 0 011.12-1.12 1.4 1.4 0 011.4 1.4 1.75 1.75 0 01-1.75 1.75 2.65 2.65 0 01-1.89-1.08c-.65-.7-2.27-.92-4.65-.92h-4.57"/><circle class="cls-2" cx="332.25" cy="8.47" r=".69"/><circle class="cls-2" cx="11.36" cy="247.68" r=".69" transform="rotate(-5.39 11.334 247.727)"/><path class="cls-3" d="M9.82 231.17a1.12 1.12 0 000-1.58 1.4 1.4 0 00-2 0 1.75 1.75 0 000 2.47 2.61 2.61 0 002.1.57c1.52-.08 3.62-.37 4 2.22"/><path class="cls-2" d="M20.19 242.46a.72.72 0 00.92-.31A1 1 0 0021 241a1.28 1.28 0 00-1.18-.37 1.42 1.42 0 00-1 .8 1.89 1.89 0 00.88 2.45 2.48 2.48 0 002.8-.45.2.2 0 01.28 0 .2.2 0 010 .28 2.93 2.93 0 01-3.3.62 2.44 2.44 0 01-1.22-3.14 2 2 0 011.44-1.2 2 2 0 011.84.53 1.74 1.74 0 01.28 1.95 1.5 1.5 0 01-1.91.7.4.4 0 01.32-.73z"/><path class="cls-3" d="M11.3 247.41a1.12 1.12 0 00-1 1.22 1.4 1.4 0 001.52 1.26 1.75 1.75 0 001.58-1.9 2.61 2.61 0 00-1.26-1.78c-1.22-.91-3-2-1.7-4.29"/><path class="cls-4" d="M16.52 249.8a.84.84 0 00.8.87 1 1 0 001.09-1 1.31 1.31 0 00-1.24-1.36 2 2 0 00-1.44.74c-.8.81-1.81 2-3.35.81"/><path class="cls-2" d="M14.88 237.39a3.15 3.15 0 01.12 4.27 3.67 3.67 0 01-4 1 4.09 4.09 0 01-2.47-3.18 4.3 4.3 0 011.23-3.75 5.13 5.13 0 013.55-1.46 5.07 5.07 0 013.53 1.4 6.16 6.16 0 011.34 6.93.42.42 0 01-.76-.34 5.22 5.22 0 00-1.29-5.83 4 4 0 00-2.8-1 3.92 3.92 0 00-2.68 1.19 3 3 0 00-.78 2.62 2.69 2.69 0 001.63 2 2.14 2.14 0 002.31-.62 1.51 1.51 0 00-.11-2 .84.84 0 111.14-1.25z"/><path class="cls-2" d="M17 245.85a2.17 2.17 0 01-2.94.08 2.53 2.53 0 01-.67-2.77 2.82 2.82 0 012.2-1.71 3 3 0 012.59.85 3.54 3.54 0 011 2.45 3.5 3.5 0 01-1 2.44 4.25 4.25 0 01-4.78.93.29.29 0 01.24-.53 3.6 3.6 0 004-.89 2.74 2.74 0 00-.12-3.78 2.06 2.06 0 00-1.81-.54 1.85 1.85 0 00-1.4 1.13 1.48 1.48 0 00.43 1.6 1 1 0 001.41-.08.58.58 0 11.86.78z"/><circle class="cls-2" cx="13.81" cy="238.26" r="1.37" transform="rotate(-45 13.81 238.26)"/><circle class="cls-2" cx="16.38" cy="245.12" r=".94" transform="rotate(-45 16.384 245.124)"/><circle class="cls-2" cx="20.07" cy="242.57" r=".65" transform="rotate(-66.66 20.06 242.561)"/><circle class="cls-2" cx="22.86" cy="243.33" r=".65" transform="rotate(-66.66 22.859 243.323)"/><circle class="cls-2" cx="9.62" cy="231" r=".69" transform="rotate(-45 9.616 231.007)"/><circle class="cls-2" cx="16.72" cy="249.79" r=".52" transform="rotate(-87.35 16.732 249.795)"/><path class="cls-3" d="M37.56 258.91a1.12 1.12 0 011.58 0 1.4 1.4 0 010 2 1.75 1.75 0 01-2.47 0 2.61 2.61 0 01-.57-2.1c.08-1.52.36-3.62-2.22-4"/><path class="cls-2" d="M25.53 248.86a1.5 1.5 0 01.7-1.91 1.74 1.74 0 011.95.28 2 2 0 01.53 1.84 2 2 0 01-1.2 1.44 2.44 2.44 0 01-3.14-1.22A2.93 2.93 0 0125 246a.2.2 0 01.28 0 .2.2 0 010 .28 2.48 2.48 0 00-.45 2.8 1.89 1.89 0 002.45.88 1.42 1.42 0 00.8-1 1.28 1.28 0 00-.37-1.18 1 1 0 00-1.13-.13.72.72 0 00-.31.92.4.4 0 11-.72.35z"/><path class="cls-3" d="M21.32 257.43a1.12 1.12 0 01-1.22 1 1.4 1.4 0 01-1.26-1.52 1.75 1.75 0 011.9-1.58 2.61 2.61 0 011.78 1.26c.91 1.22 2 3 4.29 1.7"/><path class="cls-4" d="M18.93 252.21a.84.84 0 01-.87-.8 1 1 0 011-1.09 1.31 1.31 0 011.36 1.24 2 2 0 01-.74 1.45c-.81.8-2 1.81-.81 3.35"/><path class="cls-2" d="M30.15 255a1.51 1.51 0 00-2-.11 2.14 2.14 0 00-.62 2.31 2.69 2.69 0 002 1.63 3 3 0 002.62-.78 3.92 3.92 0 001.19-2.68 4 4 0 00-1-2.8 5.22 5.22 0 00-5.83-1.29.42.42 0 01-.34-.76 6.16 6.16 0 016.93 1.34 5.07 5.07 0 011.4 3.53A5.13 5.13 0 0133 259a4.3 4.3 0 01-3.75 1.23 4.09 4.09 0 01-3.18-2.47 3.67 3.67 0 011-4 3.15 3.15 0 014.27.12.84.84 0 11-1.21 1.18z"/><path class="cls-2" d="M23.7 252.57a1 1 0 00-.08 1.41 1.48 1.48 0 001.6.43 1.85 1.85 0 001.13-1.4 2.06 2.06 0 00-.54-1.81 2.74 2.74 0 00-3.78-.12 3.6 3.6 0 00-.89 4 .29.29 0 01-.53.24 4.25 4.25 0 01.93-4.78 3.5 3.5 0 012.44-1 3.54 3.54 0 012.45 1 3 3 0 01.85 2.59 2.82 2.82 0 01-1.71 2.2 2.53 2.53 0 01-2.77-.67 2.17 2.17 0 01.08-2.94.58.58 0 11.82.83z"/><circle class="cls-2" cx="30.47" cy="254.92" r="1.37" transform="rotate(-45 30.47 254.919)"/><circle class="cls-2" cx="23.61" cy="252.35" r=".94" transform="rotate(-45 23.616 252.348)"/><circle class="cls-2" cx="26.16" cy="248.66" r=".65" transform="matrix(.92 -.4 .4 .92 -96.38 30.72)"/><circle class="cls-2" cx="25.4" cy="245.87" r=".65" transform="rotate(-23.35 25.4 245.82)"/><circle class="cls-2" cx="37.73" cy="259.11" r=".69" transform="rotate(-45 37.728 259.113)"/><circle class="cls-2" cx="18.94" cy="252.01" r=".52" transform="rotate(-2.65 18.839 251.546)"/><path class="cls-2" d="M19.25 249.48a6.32 6.32 0 005.46-5.48 6.32 6.32 0 00-5.46 5.46zm-7.3 8.77a2.2 2.2 0 00-1.79.32 2.2 2.2 0 00.32-1.79 1 1 0 011.31-1.22 3 3 0 002-.62 3 3 0 00-.62 2 1 1 0 01-1.22 1.31zm2.2-4.1s-2.31 1.67-3.81-.17.54-3.85 2.3-2.1c0 0-1.55-.19-1.54.8s1.07 1.6 3.05 1.47zm2.6-2.27s-2.89 2-3.26.76 3.26-.76 3.26-.76zm-2.17 2.7s-1.67 2.31.17 3.81 3.85-.54 2.1-2.3c0 0 .19 1.55-.8 1.54s-1.61-1.07-1.47-3.05zm2.27-2.58s-2 2.89-.76 3.26.76-3.26.76-3.26z"/><circle class="cls-2" cx="14.87" cy="253.86" r=".57" transform="rotate(-45 14.865 253.843)"/><path class="cls-5" d="M8.45 225.72a1.12 1.12 0 00-1.12 1.12 1.4 1.4 0 001.4 1.4 1.75 1.75 0 001.75-1.75 2.65 2.65 0 00-1.08-1.89c-.7-.65-.92-2.27-.92-4.65v-4.57"/><circle class="cls-2" cx="8.47" cy="225.98" r=".69"/><path class="cls-5" d="M43 260.28a1.12 1.12 0 01-1.12 1.12 1.4 1.4 0 01-1.4-1.4 1.75 1.75 0 011.75-1.75 2.65 2.65 0 011.89 1.08c.65.7 2.27.92 4.65.92h4.57"/><circle class="cls-2" cx="42.75" cy="260.26" r=".69"/><circle class="cls-2" cx="363.64" cy="247.68" r=".69" transform="rotate(-84.61 363.628 247.676)"/><path class="cls-3" d="M365.18 231.17a1.12 1.12 0 010-1.58 1.4 1.4 0 012 0 1.75 1.75 0 010 2.47 2.61 2.61 0 01-2.1.57c-1.52-.08-3.62-.37-4 2.22"/><path class="cls-2" d="M355.13 243.2a1.5 1.5 0 01-1.91-.7 1.74 1.74 0 01.28-1.95 2 2 0 011.84-.53 2 2 0 011.44 1.2 2.44 2.44 0 01-1.22 3.14 2.93 2.93 0 01-3.3-.62.2.2 0 010-.28.2.2 0 01.28 0 2.48 2.48 0 002.8.45 1.89 1.89 0 00.88-2.45 1.42 1.42 0 00-1-.8 1.28 1.28 0 00-1.22.34 1 1 0 00-.13 1.13.72.72 0 00.92.31.4.4 0 01.35.72z"/><path class="cls-3" d="M363.7 247.41a1.12 1.12 0 011 1.22 1.4 1.4 0 01-1.52 1.26 1.75 1.75 0 01-1.58-1.9 2.61 2.61 0 011.26-1.78c1.22-.91 3-2 1.7-4.29"/><path class="cls-4" d="M358.48 249.8a.84.84 0 01-.8.87 1 1 0 01-1.09-1 1.31 1.31 0 011.24-1.36 2 2 0 011.44.74c.8.81 1.81 2 3.35.81"/><path class="cls-2" d="M361.31 238.58a1.51 1.51 0 00-.11 2 2.14 2.14 0 002.31.62 2.69 2.69 0 001.63-2 3 3 0 00-.78-2.62 3.91 3.91 0 00-2.68-1.19 4 4 0 00-2.8 1 5.22 5.22 0 00-1.29 5.83.42.42 0 01-.76.34 6.16 6.16 0 011.34-6.93 5.07 5.07 0 013.53-1.4 5.13 5.13 0 013.55 1.46 4.3 4.3 0 011.23 3.75 4.09 4.09 0 01-2.47 3.18 3.67 3.67 0 01-4-1 3.15 3.15 0 01.12-4.27.84.84 0 011.18 1.21z"/><path class="cls-2" d="M358.84 245a1 1 0 001.41.08 1.48 1.48 0 00.43-1.6 1.85 1.85 0 00-1.4-1.13 2.06 2.06 0 00-1.81.54 2.74 2.74 0 00-.12 3.78 3.6 3.6 0 004 .89.29.29 0 01.24.53 4.25 4.25 0 01-4.78-.93 3.5 3.5 0 01-1-2.44 3.54 3.54 0 011-2.45 3 3 0 012.59-.85 2.82 2.82 0 012.2 1.71 2.53 2.53 0 01-.67 2.77 2.17 2.17 0 01-2.94-.08.58.58 0 01.83-.82z"/><circle class="cls-2" cx="361.19" cy="238.26" r="1.37" transform="rotate(-45 361.182 238.264)"/><circle class="cls-2" cx="358.62" cy="245.12" r=".94" transform="rotate(-45 358.623 245.123)"/><circle class="cls-2" cx="354.93" cy="242.57" r=".65" transform="rotate(-23.34 354.934 242.573)"/><circle class="cls-2" cx="352.14" cy="243.33" r=".65" transform="rotate(-23.34 352.176 243.341)"/><circle class="cls-2" cx="365.38" cy="231" r=".69" transform="rotate(-45 365.376 231.006)"/><circle class="cls-2" cx="358.28" cy="249.79" r=".52" transform="rotate(-2.65 357.594 249.432)"/><path class="cls-3" d="M337.44 258.91a1.12 1.12 0 00-1.58 0 1.4 1.4 0 000 2 1.75 1.75 0 002.47 0 2.61 2.61 0 00.57-2.1c-.08-1.52-.37-3.62 2.22-4"/><path class="cls-2" d="M348.73 248.54a.72.72 0 00-.31-.92 1 1 0 00-1.13.13 1.28 1.28 0 00-.37 1.18 1.42 1.42 0 00.8 1 1.89 1.89 0 002.45-.88 2.48 2.48 0 00-.45-2.8.2.2 0 010-.28.2.2 0 01.28 0 2.93 2.93 0 01.62 3.3 2.44 2.44 0 01-3.14 1.22 2 2 0 01-1.2-1.44 2 2 0 01.53-1.84 1.74 1.74 0 011.95-.28 1.5 1.5 0 01.7 1.91.4.4 0 11-.73-.32z"/><path class="cls-3" d="M353.68 257.43a1.12 1.12 0 001.22 1 1.4 1.4 0 001.26-1.52 1.75 1.75 0 00-1.9-1.58 2.61 2.61 0 00-1.78 1.26c-.91 1.22-2 3-4.29 1.7"/><path class="cls-4" d="M356.07 252.21a.84.84 0 00.87-.8 1 1 0 00-1-1.09 1.31 1.31 0 00-1.36 1.24 2 2 0 00.74 1.45c.81.8 2 1.81.81 3.35"/><path class="cls-2" d="M343.66 253.85a3.15 3.15 0 014.27-.12 3.67 3.67 0 011 4 4.09 4.09 0 01-3.18 2.47A4.3 4.3 0 01342 259a5.13 5.13 0 01-1.46-3.55 5.07 5.07 0 011.4-3.53 6.16 6.16 0 016.93-1.34.42.42 0 01-.34.76 5.22 5.22 0 00-5.83 1.29 4 4 0 00-1 2.8 3.92 3.92 0 001.19 2.68 3 3 0 002.62.78 2.69 2.69 0 002-1.63 2.14 2.14 0 00-.62-2.31 1.51 1.51 0 00-2 .11.84.84 0 11-1.25-1.14z"/><path class="cls-2" d="M352.12 251.75a2.17 2.17 0 01.08 2.94 2.53 2.53 0 01-2.77.67 2.82 2.82 0 01-1.71-2.2 3 3 0 01.85-2.59 3.54 3.54 0 012.45-1 3.5 3.5 0 012.44 1 4.25 4.25 0 01.93 4.78.29.29 0 01-.53-.24 3.6 3.6 0 00-.89-4 2.74 2.74 0 00-3.78.12 2.06 2.06 0 00-.54 1.81 1.85 1.85 0 001.13 1.4 1.48 1.48 0 001.6-.43 1 1 0 00-.08-1.41.58.58 0 01.78-.86z"/><circle class="cls-2" cx="344.53" cy="254.92" r="1.37" transform="rotate(-45 344.516 254.907)"/><circle class="cls-2" cx="351.39" cy="252.35" r=".94" transform="rotate(-45 351.387 252.35)"/><circle class="cls-2" cx="348.84" cy="248.66" r=".65" transform="rotate(-66.65 348.868 248.66)"/><circle class="cls-2" cx="349.6" cy="245.87" r=".65" transform="rotate(-66.66 349.59 245.866)"/><circle class="cls-2" cx="337.27" cy="259.11" r=".69" transform="rotate(-45 337.27 259.118)"/><circle class="cls-2" cx="356.06" cy="252.01" r=".52" transform="rotate(-87.1 357.18 251.442)"/><path class="cls-2" d="M355.75 249.48a6.32 6.32 0 01-5.46-5.46 6.32 6.32 0 015.46 5.46zm7.3 8.77a2.2 2.2 0 011.79.32 2.2 2.2 0 01-.32-1.79 1 1 0 00-1.31-1.22 3 3 0 01-2-.62 3 3 0 01.62 2 1 1 0 001.22 1.31zm-2.2-4.1s2.31 1.67 3.81-.17-.54-3.85-2.3-2.1c0 0 1.55-.19 1.54.8s-1.07 1.6-3.05 1.47zm-2.6-2.27s2.89 2 3.26.76-3.26-.76-3.26-.76zm2.17 2.7s1.67 2.31-.17 3.81-3.85-.54-2.1-2.3c0 0-.19 1.55.8 1.54s1.61-1.07 1.47-3.05zm-2.27-2.58s2 2.89.76 3.26-.76-3.26-.76-3.26z"/><circle class="cls-2" cx="360.13" cy="253.86" r=".57" transform="rotate(-45 360.135 253.867)"/><path class="cls-5" d="M366.55 225.72a1.12 1.12 0 011.12 1.12 1.4 1.4 0 01-1.4 1.4 1.75 1.75 0 01-1.75-1.75 2.65 2.65 0 011.08-1.89c.7-.65.92-2.27.92-4.65v-4.57"/><circle class="cls-2" cx="366.53" cy="225.98" r=".69"/><path class="cls-5" d="M332 260.28a1.12 1.12 0 001.12 1.12 1.4 1.4 0 001.4-1.4 1.75 1.75 0 00-1.75-1.75 2.65 2.65 0 00-1.89 1.08c-.65.7-2.27.92-4.65.92h-4.57"/><circle class="cls-2" cx="332.25" cy="260.26" r=".69"/><path class="cls-5" d="M321.66 8.47H53.34m313.19 206.92V53.34M53.34 260.26h268.32M8.47 53.34v162.05"/><path stroke-linejoin="round" stroke-width="1.08" stroke="#693119" fill="none" stroke-linecap="round" d="M41.95 12.21L12.21 41.95v184.83l29.74 29.73h291.1l29.74-29.73V41.95l-29.74-29.74H41.95z"/><path class="cls-5" d="M43.47 252.85l-27.59-27.59V43.47l27.59-27.59h288.06l27.59 27.59v181.79l-27.59 27.59H43.47z"/><g id="_Группа_" data-name="&lt;Группа&gt;"><g id="_Группа_2" data-name="&lt;Группа&gt;"><text transform="translate(115.06 88.08)" font-family="Cambo-Regular,Cambo Regular" font-size="11.2" fill="#693119">CE<tspan x="12.01" y="0" letter-spacing=".01em">R</tspan><tspan x="18.14" y="0">TIFI</tspan><tspan x="34.52" y="0" letter-spacing="0">C</tspan><tspan class="cls-10" x="41.06" y="0">A</tspan><tspan x="47.06" y="0">TE OF APPRECI</tspan><tspan class="cls-10" x="115.55" y="0">A</tspan><tspan x="121.55" y="0">TION</tspan></text><text transform="translate(127.67 103.39)" fill="#d2a01f" font-size="7.76" letter-spacing=".03em" font-family="Cambo-Regular,Cambo Regular">THIS CE<tspan x="25.91" y="0">R</tspan><tspan x="30.34" y="0">TIFI</tspan><tspan x="42.46" y="0">C</tspan><tspan x="47.18" y="0" letter-spacing="-.05em">A</tspan><tspan x="51.53" y="0">TE IS PRESENTED</tspan><tspan x="108.77" y="0" letter-spacing="-.02em"> </tspan><tspan x="110.29" y="0" letter-spacing="0">T</tspan><tspan x="114.13" y="0">O</tspan></text><g id="_Группа_3" data-name="&lt;Группа&gt;"><path id="_Контур_3" data-name="&lt;Контур&gt;" class="cls-17" d="M95.96 92.96h183.07v.36H95.96z"/></g></g><g id="_Группа_4" data-name="&lt;Группа&gt;"><text transform="translate(117.33 141.92)" font-size="25.85" font-family="GreatVibes-Regular,Great Vibes" fill="#693119">Name Surname</text><text transform="translate(159.35 156.86)" letter-spacing=".03em" font-size="6.03" fill="#d2a01f" font-family="Cambo-Regular,Cambo Regular">THE <tspan x="11.78" y="0" letter-spacing="0">C</tspan><tspan x="15.3" y="0">OM</tspan><tspan x="24.61" y="0" letter-spacing="-.06em">P</tspan><tspan class="cls-22" x="27.47" y="0">A</tspan><tspan x="31.31" y="0" letter-spacing=".02em">N</tspan><tspan class="cls-22" x="35.39" y="0">Y N</tspan><tspan x="44.35" y="0" letter-spacing=".02em">A</tspan><tspan class="cls-22" x="48.17" y="0">ME</tspan></text><g id="_Группа_5" data-name="&lt;Группа&gt;"><path id="_Контур_4" data-name="&lt;Контур&gt;" class="cls-17" d="M76.65 148.05h221.69v.55H76.65z"/></g><text transform="translate(89.51 164.92)" font-size="5.09" fill="#919191" font-family="Cambo-Regular,Cambo Regular" id="_Группа_6" data-name="&lt;Группа&gt;"><tspan letter-spacing="-.01em">L</tspan><tspan x="2.33" y="0" letter-spacing="0">o</tspan><tspan class="cls-28" x="5.13" y="0">r</tspan><tspan x="6.74" y="0">em ipsum dolor sit ame</tspan><tspan class="cls-29" x="56.47" y="0">t</tspan><tspan x="58.14" y="0">, </tspan><tspan class="cls-30" x="60.27" y="0">c</tspan><tspan x="62.52" y="0">onse</tspan><tspan x="72.71" y="0" letter-spacing=".01em">c</tspan><tspan class="cls-32" x="75.05" y="0">t</tspan><tspan x="76.71" y="0">etur adipiscing eli</tspan><tspan class="cls-29" x="114.27" y="0">t</tspan><tspan x="115.94" y="0">, sed do eiusmod </tspan><tspan class="cls-32" x="152.89" y="0">t</tspan><tspan x="154.54" y="0">empor incididu</tspan><tspan x="187" y="0" letter-spacing="0">n</tspan><tspan x="189.8" y="0">tut</tspan><tspan x=".69" y="6.11">labo</tspan><tspan class="cls-34" x="10.04" y="6.11">r</tspan><tspan x="11.65" y="6.11">e et dolo</tspan><tspan class="cls-28" x="30.26" y="6.11">r</tspan><tspan x="31.87" y="6.11">e ma </tspan><tspan class="cls-30" x="43.28" y="6.11">g</tspan><tspan x="46.09" y="6.11">na aliqua. </tspan><tspan class="cls-35" x="67.55" y="6.11">U</tspan><tspan x="70.86" y="6.11">t enim ad minim </tspan><tspan class="cls-34" x="106.7" y="6.11">v</tspan><tspan x="109.1" y="6.11">eniam, quis nostrud </tspan><tspan x="152.19" y="6.11" letter-spacing="0">e</tspan><tspan x="154.72" y="6.11" letter-spacing="-.01em">x</tspan><tspan class="cls-38" x="157" y="6.11">e</tspan><tspan class="cls-34" x="159.55" y="6.11">r</tspan><tspan x="161.17" y="6.11">cit</tspan><tspan class="cls-39" x="166.32" y="6.11">a</tspan><tspan x="168.76" y="6.11">tion ullam</tspan><tspan class="cls-32" x="190.24" y="6.11">c</tspan><tspan x="192.49" y="6.11">o</tspan><tspan x="3.85" y="12.22">labo</tspan><tspan class="cls-35" x="13.19" y="12.22">r</tspan><tspan x="14.88" y="12.22">is nisi ut aliquip </tspan><tspan class="cls-29" x="48.72" y="12.22">e</tspan><tspan x="51.25" y="12.22">x ea </tspan><tspan class="cls-30" x="60.77" y="12.22">c</tspan><tspan x="63.02" y="12.22">ommodo </tspan><tspan class="cls-32" x="83.84" y="12.22">c</tspan><tspan x="86.09" y="12.22" letter-spacing="0">onsequ</tspan><tspan class="cls-39" x="101.95" y="12.22">at</tspan><tspan x="106.05" y="12.22">. </tspan><tspan x="108.19" y="12.22" letter-spacing="0">D</tspan><tspan x="111.59" y="12.22">uis au</tspan><tspan class="cls-32" x="123.94" y="12.22">t</tspan><tspan x="125.59" y="12.22">e iru</tspan><tspan x="134.88" y="12.22" letter-spacing="-.01em">r</tspan><tspan x="136.5" y="12.22">e dolor in </tspan><tspan class="cls-34" x="157.63" y="12.22">r</tspan><tspan x="159.24" y="12.22">ep</tspan><tspan class="cls-34" x="164.69" y="12.22">r</tspan><tspan class="cls-38" x="166.3" y="12.22">ehende</tspan><tspan class="cls-35" x="182.47" y="12.22">r</tspan><tspan x="184.16" y="12.22">it in</tspan></text></g><g id="_Группа_7" data-name="&lt;Группа&gt;"><g id="_Группа_8" data-name="&lt;Группа&gt;"><text transform="translate(85.26 216.14)" letter-spacing=".01em" font-size="6.03" font-family="Cambo-Regular,Cambo Regular" fill="#693119">D<tspan class="cls-44" x="4.08" y="0">A</tspan><tspan x="7.46" y="0" letter-spacing=".03em">TE</tspan></text><path id="_Контур_5" data-name="&lt;Контур&gt;" class="cls-17" d="M53.05 208.1h78.14v.36H53.05z"/></g><g id="_Группа_9" data-name="&lt;Группа&gt;"><text transform="translate(267.89 216.14)" letter-spacing=".02em" font-size="6.03" font-family="Cambo-Regular,Cambo Regular" fill="#693119">SIGN<tspan class="cls-44" x="12.89" y="0">A</tspan><tspan x="16.26" y="0">TURE</tspan></text><path id="_Контур_6" data-name="&lt;Контур&gt;" class="cls-17" d="M243.81 208.1h78.14v.36h-78.14z"/></g></g></g><path class="cls-47" d="M166.41 58.8a1.2 1.2 0 01-1.2 1.2 1.5 1.5 0 01-1.5-1.5 1.88 1.88 0 011.88-1.88 2.81 2.81 0 012 1.16c1.09 1.21 2.48 3 4.77 1.39"/><path class="cls-48" d="M183.19 57.3a1.61 1.61 0 01.92 2 1.88 1.88 0 01-1.69 1.27 2.09 2.09 0 01-1.8-1 2.2 2.2 0 01-.18-2 2.62 2.62 0 013.31-1.46 3.15 3.15 0 012 3 .21.21 0 01-.22.21.22.22 0 01-.21-.21 2.67 2.67 0 00-1.79-2.47 2 2 0 00-2.53 1.14 1.52 1.52 0 00.17 1.39 1.37 1.37 0 001.18.62 1.09 1.09 0 001-.76.77.77 0 00-.47-.93.43.43 0 01.28-.82z"/><path class="cls-47" d="M179.88 47.58a1.2 1.2 0 01.16-1.69 1.5 1.5 0 012.12.2 1.88 1.88 0 01-.25 2.65 2.81 2.81 0 01-2.31.4c-1.61-.24-3.84-.76-4.56 2"/><path class="cls-49" d="M185.67 49.74a.9.9 0 011.27-.06 1.12 1.12 0 01.07 1.59 1.4 1.4 0 01-2 .09 2.09 2.09 0 01-.53-1.66c0-1.22.16-2.92-1.93-3.16"/><path class="cls-48" d="M175 56.11a1.62 1.62 0 001.64-1.46 2.3 2.3 0 00-1.29-2.23 2.89 2.89 0 00-2.79.3 3.21 3.21 0 00-1.4 2.58 4.21 4.21 0 001.13 2.95 4.27 4.27 0 002.9 1.36 5.61 5.61 0 005.41-3.45.45.45 0 01.84.32 6.62 6.62 0 01-6.29 4.25 5.45 5.45 0 01-3.75-1.62 5.51 5.51 0 01-1.59-3.81 4.63 4.63 0 011.91-3.79A4.4 4.4 0 01176 51a4 4 0 012.32 3.79 3.39 3.39 0 01-3.32 3.14h-.05a.91.91 0 010-1.82z"/><path class="cls-48" d="M181.77 53.08a1.12 1.12 0 00-1-1.13 1.59 1.59 0 00-1.54.89 2 2 0 00.21 1.92 2.21 2.21 0 001.78 1 2.94 2.94 0 003-2.78 3.87 3.87 0 00-2.38-3.73.31.31 0 01.22-.58A4.57 4.57 0 01185 53a3.76 3.76 0 01-1.12 2.59 3.8 3.8 0 01-2.63 1.1 3.19 3.19 0 01-2.61-1.32 3 3 0 01-.37-3 2.72 2.72 0 012.62-1.6 2.34 2.34 0 012.18 2.3.63.63 0 01-1.25 0z"/><circle class="cls-48" cx="174.84" cy="56.45" r="1.47"/><circle class="cls-48" cx="182" cy="53.19" r="1.02"/><circle class="cls-48" cx="182.87" cy="57.93" r=".7" transform="rotate(-68.34 182.881 57.92)"/><circle class="cls-48" cx="185.57" cy="59.47" r=".7" transform="rotate(-68.34 185.582 59.473)"/><circle class="cls-48" cx="166.13" cy="58.78" r=".75"/><circle class="cls-48" cx="185.81" cy="49.89" r=".56" transform="rotate(-47.65 185.803 49.896)"/><path class="cls-48" d="M156.35 57.5a4.77 4.77 0 01-4.35 3.36 3.93 3.93 0 01-2.77-1 4 4 0 01-1.34-2.66 3.33 3.33 0 011.18-2.82 3.17 3.17 0 013.06-.6 2.84 2.84 0 011.87 2.64 2.44 2.44 0 01-2.24 2.44.65.65 0 11-.08-1.31 1.17 1.17 0 001.1-1.13 1.66 1.66 0 00-1-1.54 2.08 2.08 0 00-2 .36 2.31 2.31 0 00-.88 1.93 3.07 3.07 0 003.1 2.88 4 4 0 003.72-2.75.32.32 0 01.62.19z"/><circle class="cls-48" cx="151.62" cy="57.8" r="1.06" transform="rotate(-3.99 151.758 57.886)"/><path class="cls-48" d="M155.73 57.32A4.77 4.77 0 01160 54a3.93 3.93 0 012.77 1 4 4 0 011.34 2.66A3.33 3.33 0 01163 60.4a3.17 3.17 0 01-3.06.6 2.84 2.84 0 01-1.94-2.6 2.44 2.44 0 012.28-2.4.65.65 0 11.08 1.31 1.17 1.17 0 00-1.1 1.13 1.66 1.66 0 001 1.54 2.08 2.08 0 002-.36 2.31 2.31 0 00.88-1.93 3.07 3.07 0 00-3.11-2.89 4 4 0 00-3.72 2.75.32.32 0 01-.62-.19z"/><circle class="cls-48" cx="160.46" cy="57.02" r="1.06" transform="rotate(-4 160.291 56.919)"/><circle class="cls-48" cx="164.98" cy="53.59" r="1.41"/><circle class="cls-48" cx="146.59" cy="59.07" r="1.11"/><path class="cls-47" d="M208.59 58.8a1.2 1.2 0 001.2 1.2 1.5 1.5 0 001.5-1.5 1.88 1.88 0 00-1.88-1.88 2.81 2.81 0 00-2 1.16c-1.09 1.21-2.48 3-4.77 1.39"/><path class="cls-48" d="M192.13 58.1a.77.77 0 00-.47.93 1.09 1.09 0 001 .76 1.37 1.37 0 001.18-.62 1.52 1.52 0 00.17-1.39 2 2 0 00-2.53-1.19 2.67 2.67 0 00-1.79 2.47.21.21 0 01-.21.21.22.22 0 01-.21-.21 3.15 3.15 0 012-3 2.62 2.62 0 013.31 1.46 2.2 2.2 0 01-.18 2 2.09 2.09 0 01-1.8 1 1.88 1.88 0 01-1.69-1.27 1.61 1.61 0 01.92-2 .43.43 0 11.31.81z"/><path class="cls-47" d="M195.12 47.58a1.2 1.2 0 00-.16-1.69 1.5 1.5 0 00-2.12.2 1.88 1.88 0 00.25 2.65 2.81 2.81 0 002.31.4c1.61-.24 3.84-.76 4.56 2"/><path class="cls-49" d="M189.33 49.74a.9.9 0 00-1.27-.06 1.12 1.12 0 00-.07 1.59 1.4 1.4 0 002 .09 2.09 2.09 0 00.53-1.66c0-1.22-.16-2.92 1.93-3.16"/><path class="cls-48" d="M200 57.93a3.39 3.39 0 01-3.33-3.16A4 4 0 01199 51a4.4 4.4 0 014.3.54 4.63 4.63 0 011.91 3.79 5.51 5.51 0 01-1.59 3.81 5.45 5.45 0 01-3.75 1.62 6.62 6.62 0 01-6.29-4.25.45.45 0 01.84-.32 5.61 5.61 0 005.41 3.45 4.27 4.27 0 002.9-1.36 4.21 4.21 0 001.13-2.95 3.21 3.21 0 00-1.4-2.58 2.89 2.89 0 00-2.79-.3 2.3 2.3 0 00-1.29 2.23 1.62 1.62 0 001.62 1.43.91.91 0 11.09 1.81H200z"/><path class="cls-48" d="M192 53.08a2.34 2.34 0 012.18-2.3 2.72 2.72 0 012.62 1.6 3 3 0 01-.37 3 3.19 3.19 0 01-2.61 1.32 3.8 3.8 0 01-2.63-1.1A3.76 3.76 0 01190 53a4.57 4.57 0 013-4.35.31.31 0 01.22.58 3.87 3.87 0 00-2.4 3.77 2.94 2.94 0 003 2.78 2.21 2.21 0 001.78-1 2 2 0 00.21-1.92 1.59 1.59 0 00-1.54-.89 1.12 1.12 0 00-1 1.13.63.63 0 01-1.25.06v-.06z"/><circle class="cls-48" cx="200.16" cy="56.45" r="1.47"/><circle class="cls-48" cx="193" cy="53.19" r="1.02"/><circle class="cls-48" cx="192.13" cy="57.93" r=".7" transform="rotate(-21.66 192.093 57.908)"/><circle class="cls-48" cx="189.43" cy="59.47" r=".7" transform="rotate(-21.66 189.408 59.48)"/><circle class="cls-48" cx="208.87" cy="58.78" r=".75"/><circle class="cls-48" cx="189.19" cy="49.89" r=".56" transform="rotate(-42.35 189.204 49.898)"/><path class="cls-48" d="M219.27 57.3a4 4 0 003.73 2.75 3.07 3.07 0 003.11-2.89 2.31 2.31 0 00-.88-1.93 2.08 2.08 0 00-2-.36 1.66 1.66 0 00-1 1.54 1.17 1.17 0 001.1 1.13.65.65 0 010 1.31h-.06a2.44 2.44 0 01-2.27-2.43 2.84 2.84 0 011.86-2.61 3.17 3.17 0 013.06.6 3.33 3.33 0 011.18 2.82 4 4 0 01-1.34 2.66 3.93 3.93 0 01-2.77 1 4.77 4.77 0 01-4.31-3.37.32.32 0 01.62-.19z"/><circle class="cls-48" cx="223.38" cy="57.8" r="1.06" transform="rotate(-86.01 223.368 57.806)"/><path class="cls-48" d="M218.65 57.52a4 4 0 00-3.72-2.75 3.07 3.07 0 00-3.11 2.89 2.31 2.31 0 00.88 1.93 2.08 2.08 0 002 .36 1.66 1.66 0 001-1.54 1.17 1.17 0 00-1.1-1.13.65.65 0 110-1.31h.06A2.44 2.44 0 01217 58.4a2.84 2.84 0 01-1.9 2.6 3.17 3.17 0 01-3.06-.6 3.33 3.33 0 01-1.18-2.82 4 4 0 011.34-2.66A3.93 3.93 0 01215 54a4.77 4.77 0 014.31 3.37.32.32 0 01-.62.19z"/><circle class="cls-48" cx="214.54" cy="57.02" r="1.06" transform="rotate(-86 214.548 57.011)"/><circle class="cls-48" cx="210.02" cy="53.59" r="1.41"/><circle class="cls-48" cx="228.41" cy="59.07" r="1.11"/><path class="cls-48" d="M187.5 52.06a6.79 6.79 0 010 8.3 6.79 6.79 0 010-8.3zm1.12-12.23a2.37 2.37 0 01-1.12-1.6 2.37 2.37 0 01-1.12 1.6 1.1 1.1 0 00.07 1.92c.83.5 1 2 1 2s.22-1.49 1-2a1.1 1.1 0 00.17-1.92zm-1.45 4.8s-.48-3-3-2.77-2.51 3.34.15 3.34c0 0-1.32-1-.57-1.78s2.02-.42 3.42 1.21zm.25 3.69s-.67-3.72-1.9-3 1.9 3 1.9 3zm.41-3.69s.48-3 3-2.77 2.51 3.34-.15 3.34c0 0 1.32-1 .57-1.78s-2.02-.42-3.42 1.21zm-.26 3.69s.67-3.72 1.9-3-1.9 3-1.9 3z"/><circle class="cls-48" cx="187.5" cy="45.39" r=".61"/><path class="cls-47" d="M166.41 209.93a1.2 1.2 0 00-1.2-1.2 1.5 1.5 0 00-1.5 1.5 1.88 1.88 0 001.88 1.88 2.81 2.81 0 002-1.16c1.09-1.21 2.48-3 4.77-1.39"/><path class="cls-48" d="M182.87 210.63a.77.77 0 00.47-.93 1.09 1.09 0 00-1-.76 1.37 1.37 0 00-1.18.62 1.53 1.53 0 00-.17 1.39 2 2 0 002.53 1.19 2.67 2.67 0 001.79-2.47.21.21 0 01.21-.21.22.22 0 01.21.21 3.15 3.15 0 01-2 3 2.62 2.62 0 01-3.31-1.46 2.2 2.2 0 01.18-2 2.09 2.09 0 011.8-1 1.88 1.88 0 011.69 1.27 1.61 1.61 0 01-.92 2 .43.43 0 01-.31-.81z"/><path class="cls-47" d="M179.88 221.15a1.2 1.2 0 00.16 1.69 1.5 1.5 0 002.12-.2 1.88 1.88 0 00-.25-2.65 2.81 2.81 0 00-2.31-.4c-1.61.24-3.84.76-4.56-2"/><path class="cls-49" d="M185.67 219a.9.9 0 001.27.06 1.12 1.12 0 00.07-1.59 1.4 1.4 0 00-2-.09 2.09 2.09 0 00-.53 1.66c0 1.22.16 2.92-1.93 3.16"/><path class="cls-48" d="M175 210.8a3.39 3.39 0 013.33 3.16 4 4 0 01-2.32 3.79 4.4 4.4 0 01-4.3-.54 4.63 4.63 0 01-1.91-3.79 5.51 5.51 0 011.59-3.81 5.46 5.46 0 013.75-1.62 6.62 6.62 0 016.29 4.25.45.45 0 01-.84.32 5.61 5.61 0 00-5.41-3.45 4.27 4.27 0 00-2.9 1.36 4.21 4.21 0 00-1.13 2.95 3.21 3.21 0 001.4 2.58 2.89 2.89 0 002.79.3 2.3 2.3 0 001.29-2.23 1.62 1.62 0 00-1.64-1.46.91.91 0 11-.09-1.81h.1z"/><path class="cls-48" d="M183 215.65a2.34 2.34 0 01-2.18 2.3 2.72 2.72 0 01-2.62-1.6 3 3 0 01.37-3 3.19 3.19 0 012.61-1.32 3.8 3.8 0 012.63 1.1 3.76 3.76 0 011.12 2.59 4.57 4.57 0 01-2.93 4.34.31.31 0 01-.22-.58 3.87 3.87 0 002.38-3.73 2.94 2.94 0 00-3-2.78 2.21 2.21 0 00-1.78 1 2 2 0 00-.21 1.92 1.59 1.59 0 001.54.89 1.12 1.12 0 001-1.13.63.63 0 111.25-.06v.06z"/><circle class="cls-48" cx="174.84" cy="212.28" r="1.47"/><circle class="cls-48" cx="182" cy="215.54" r="1.02"/><circle class="cls-48" cx="182.87" cy="210.8" r=".7" transform="rotate(-21.66 182.842 210.785)"/><circle class="cls-48" cx="185.57" cy="209.25" r=".7" transform="rotate(-21.66 185.548 209.244)"/><circle class="cls-48" cx="166.13" cy="209.95" r=".75"/><circle class="cls-48" cx="185.81" cy="218.84" r=".56" transform="rotate(-42.36 185.785 218.828)"/><path class="cls-48" d="M155.73 211.43a4 4 0 00-3.72-2.75 3.07 3.07 0 00-3.11 2.89 2.31 2.31 0 00.88 1.93 2.08 2.08 0 002 .36 1.66 1.66 0 001-1.54 1.17 1.17 0 00-1.1-1.13.65.65 0 010-1.31h.06a2.44 2.44 0 012.24 2.44 2.84 2.84 0 01-1.86 2.61 3.17 3.17 0 01-3.06-.6 3.33 3.33 0 01-1.18-2.82 4 4 0 011.34-2.66 3.93 3.93 0 012.77-1 4.77 4.77 0 014.31 3.37.32.32 0 01-.62.19z"/><circle class="cls-48" cx="151.62" cy="210.93" r="1.06" transform="rotate(-86 151.633 210.93)"/><path class="cls-48" d="M156.35 211.21a4 4 0 003.72 2.75 3.07 3.07 0 003.11-2.89 2.31 2.31 0 00-.88-1.93 2.08 2.08 0 00-2-.36 1.66 1.66 0 00-1 1.54 1.17 1.17 0 001.1 1.13.65.65 0 110 1.31h-.06a2.44 2.44 0 01-2.24-2.44 2.84 2.84 0 011.86-2.61 3.17 3.17 0 013.06.6 3.33 3.33 0 011.18 2.82 4 4 0 01-1.34 2.66 3.93 3.93 0 01-2.77 1 4.77 4.77 0 01-4.31-3.37.32.32 0 01.62-.19z"/><circle class="cls-48" cx="160.46" cy="211.71" r="1.06" transform="rotate(-86.01 160.446 211.715)"/><circle class="cls-48" cx="164.98" cy="215.14" r="1.41"/><circle class="cls-48" cx="146.59" cy="209.66" r="1.11"/><path class="cls-47" d="M208.59 209.93a1.2 1.2 0 011.2-1.2 1.5 1.5 0 011.5 1.5 1.88 1.88 0 01-1.88 1.88 2.81 2.81 0 01-2-1.16c-1.09-1.21-2.48-3-4.77-1.39"/><path class="cls-48" d="M191.81 211.43a1.61 1.61 0 01-.92-2 1.88 1.88 0 011.69-1.27 2.09 2.09 0 011.8 1 2.2 2.2 0 01.18 2 2.62 2.62 0 01-3.31 1.46 3.15 3.15 0 01-2-3 .21.21 0 01.22-.21.22.22 0 01.21.21 2.67 2.67 0 001.79 2.47 2 2 0 002.53-1.19 1.53 1.53 0 00-.17-1.39 1.37 1.37 0 00-1.18-.62 1.09 1.09 0 00-1 .76.77.77 0 00.47.93.43.43 0 01-.28.82z"/><path class="cls-47" d="M195.12 221.15a1.2 1.2 0 01-.16 1.69 1.5 1.5 0 01-2.12-.2 1.88 1.88 0 01.25-2.65 2.81 2.81 0 012.31-.4c1.61.24 3.84.76 4.56-2"/><path class="cls-49" d="M189.33 219a.9.9 0 01-1.27.06 1.12 1.12 0 01-.07-1.59 1.4 1.4 0 012-.09 2.09 2.09 0 01.53 1.66c0 1.22-.16 2.92 1.93 3.16"/><path class="cls-48" d="M200 212.62a1.62 1.62 0 00-1.64 1.46 2.3 2.3 0 001.29 2.23 2.89 2.89 0 002.79-.3 3.21 3.21 0 001.4-2.58 4.21 4.21 0 00-1.13-2.95 4.27 4.27 0 00-2.9-1.36 5.61 5.61 0 00-5.41 3.45.45.45 0 01-.84-.32 6.62 6.62 0 016.29-4.25 5.46 5.46 0 013.75 1.62 5.51 5.51 0 011.59 3.81 4.63 4.63 0 01-1.91 3.79 4.4 4.4 0 01-4.3.54 4 4 0 01-2.32-3.79 3.39 3.39 0 013.34-3.17h.05a.91.91 0 110 1.82z"/><path class="cls-48" d="M193.23 215.65a1.12 1.12 0 001 1.13 1.59 1.59 0 001.54-.89 2 2 0 00-.21-1.92 2.21 2.21 0 00-1.78-1 2.94 2.94 0 00-3 2.78 3.87 3.87 0 002.38 3.73.31.31 0 01-.22.58 4.57 4.57 0 01-2.93-4.34 3.76 3.76 0 011.12-2.59 3.8 3.8 0 012.63-1.1 3.19 3.19 0 012.61 1.32 3 3 0 01.37 3 2.72 2.72 0 01-2.62 1.6 2.34 2.34 0 01-2.18-2.3.63.63 0 111.25 0z"/><circle class="cls-48" cx="200.16" cy="212.28" r="1.47"/><circle class="cls-48" cx="193" cy="215.54" r="1.02"/><circle class="cls-48" cx="192.13" cy="210.8" r=".7" transform="rotate(-68.34 192.146 210.81)"/><circle class="cls-48" cx="189.43" cy="209.25" r=".7" transform="rotate(-68.34 189.446 209.257)"/><circle class="cls-48" cx="208.87" cy="209.95" r=".75"/><circle class="cls-48" cx="189.19" cy="218.84" r=".56" transform="rotate(-47.64 189.217 218.852)"/><path class="cls-48" d="M218.65 211.23a4.77 4.77 0 014.31-3.37 3.93 3.93 0 012.77 1 4 4 0 011.34 2.66 3.33 3.33 0 01-1.18 2.82 3.17 3.17 0 01-3.06.6 2.84 2.84 0 01-1.86-2.61 2.44 2.44 0 012.24-2.44.65.65 0 11.08 1.31 1.17 1.17 0 00-1.1 1.13 1.66 1.66 0 001 1.54 2.08 2.08 0 002-.36 2.31 2.31 0 00.88-1.93 3.07 3.07 0 00-3.11-2.89 4 4 0 00-3.72 2.75.32.32 0 01-.62-.19z"/><circle class="cls-48" cx="223.38" cy="210.93" r="1.06" transform="rotate(-4 223.155 210.785)"/><path class="cls-48" d="M219.27 211.41a4.77 4.77 0 01-4.31 3.37 3.93 3.93 0 01-2.77-1 4 4 0 01-1.34-2.66 3.33 3.33 0 011.18-2.82 3.17 3.17 0 013.06-.6 2.84 2.84 0 011.86 2.61 2.44 2.44 0 01-2.24 2.44.65.65 0 11-.08-1.31 1.17 1.17 0 001.1-1.13 1.66 1.66 0 00-1-1.54 2.08 2.08 0 00-2 .36 2.31 2.31 0 00-.88 1.93 3.07 3.07 0 003.11 2.89 4 4 0 003.72-2.75.32.32 0 01.62.19z"/><circle class="cls-48" cx="214.54" cy="211.71" r="1.06" transform="rotate(-3.99 214.798 211.988)"/><circle class="cls-48" cx="210.02" cy="215.14" r="1.41"/><circle class="cls-48" cx="228.41" cy="209.66" r="1.11"/><path class="cls-48" d="M187.5 216.67a6.79 6.79 0 000-8.3 6.79 6.79 0 000 8.3zm1.12 12.23a2.37 2.37 0 00-1.12 1.6 2.37 2.37 0 00-1.12-1.6 1.1 1.1 0 01.07-1.92c.83-.5 1-2 1-2s.22 1.49 1 2a1.1 1.1 0 01.17 1.92zm-1.45-4.8s-.48 3-3 2.77-2.51-3.34.15-3.34c0 0-1.32 1-.57 1.78s2.02.41 3.42-1.21zm.25-3.7s-.67 3.72-1.9 3 1.9-3 1.9-3zm.41 3.7s.48 3 3 2.77 2.51-3.34-.15-3.34c0 0 1.32 1 .57 1.78s-2.02.41-3.42-1.21zm-.26-3.7s.67 3.72 1.9 3-1.9-3-1.9-3z"/><circle class="cls-48" cx="187.5" cy="223.34" r=".61"/></g></g></svg>