<?xml version="1.0"?>
<svg xmlns="http://www.w3.org/2000/svg" xmlns:xlink="http://www.w3.org/1999/xlink" xmlns:svgjs="http://svgjs.com/svgjs" version="1.1" width="512" height="512" x="0" y="0" viewBox="0 0 512 512.0005" style="enable-background:new 0 0 512 512" xml:space="preserve" class=""><g><path xmlns="http://www.w3.org/2000/svg" d="m462.8125 124.234375-224-123c-2.996094-1.644531-6.628906-1.644531-9.625 0l-224 123c-3.199219 1.757813-5.1875 5.117187-5.1875 8.765625v79.945312c0 5.523438 4.476562 10 10 10s10-4.476562 10-10v-63.046874l67 36.792968v70.890625c0 3.644531 1.984375 7 5.179688 8.757813l48 26.421875c1.5.824219 3.160156 1.238281 4.820312 1.238281 1.761719 0 3.519531-.464844 5.089844-1.390625 3.042968-1.800781 4.910156-5.074219 4.910156-8.609375v-59.972656l69 37.890625v223.183593l-204-112.019531v-74.136719c0-5.523437-4.476562-10-10-10s-10 4.476563-10 10v80.054688c0 3.648438 1.988281 7.007812 5.1875 8.765625l224 123c1.5.824219 3.15625 1.234375 4.8125 1.234375s3.3125-.410156 4.8125-1.234375l224-123c3.199219-1.757813 5.1875-5.113281 5.1875-8.765625v-246c0-3.648438-1.988281-7.007812-5.1875-8.765625zm-228.8125 120.359375-68.183594-37.441406 203.226563-111.589844 68.179687 37.4375zm114.265625-160.441406-203.222656 111.59375-27.628907-15.171875 203.222657-111.59375zm-114.265625-62.742188 65.859375 36.164063-203.222656 111.589843-65.859375-36.164062zm-127 230.261719v-54l28 15.375v54.035156zm305 141.179687v-86.851562c0-5.523438-4.476562-10-10-10s-10 4.476562-10 10v97.832031l-148 81.269531v-223.183593l204-112.019531v223.183593zm0 0" fill="#ffffff" data-original="#000000" style="" class=""/><path xmlns="http://www.w3.org/2000/svg" d="m10 265.949219c2.628906 0 5.210938-1.070313 7.070312-2.929688 1.859376-1.871093 2.929688-4.441406 2.929688-7.078125 0-2.632812-1.070312-5.210937-2.929688-7.070312-1.859374-1.863282-4.441406-2.929688-7.070312-2.929688s-5.210938 1.066406-7.070312 2.929688c-1.859376 1.859375-2.929688 4.4375-2.929688 7.070312 0 2.636719 1.070312 5.207032 2.929688 7.078125 1.859374 1.859375 4.441406 2.929688 7.070312 2.929688zm0 0" fill="#ffffff" data-original="#000000" style="" class=""/><path xmlns="http://www.w3.org/2000/svg" d="m402 260.441406c-2.628906 0-5.210938 1.070313-7.070312 2.929688-1.859376 1.871094-2.929688 4.4375-2.929688 7.070312 0 2.640625 1.070312 5.210938 2.929688 7.078125 1.859374 1.859375 4.441406 2.929688 7.070312 2.929688s5.210938-1.070313 7.070312-2.929688c1.859376-1.867187 2.929688-4.4375 2.929688-7.078125 0-2.632812-1.070312-5.199218-2.929688-7.070312-1.859374-1.859375-4.441406-2.929688-7.070312-2.929688zm0 0" fill="#ffffff" data-original="#000000" style="" class=""/></g></svg>
