<svg xmlns="http://www.w3.org/2000/svg" viewBox="0 0 90.77 80.35"><defs><clipPath id="clip-path"><path class="cls-1" d="M36.72 72.09a4.65 4.65 0 00-.72 2.25 1.2 1.2 0 002 1.15 5.1 5.1 0 002.29-4 1.2 1.2 0 00-2-1.15 4.65 4.65 0 00-1.57 1.75z"/></clipPath><clipPath id="clip-path-2"><path class="cls-1" d="M78.86 47.76a4.65 4.65 0 00-.67 2.24 1.2 1.2 0 002 1.15 5.1 5.1 0 002.29-4 1.2 1.2 0 00-2-1.15 4.65 4.65 0 00-1.62 1.76z"/></clipPath><style>.cls-1{fill:none}.cls-2{fill:#2a2a2a}.cls-3{fill:#545454}.cls-4{fill:#828282}.cls-5{fill:#3e3e3e}.cls-6{fill:#262626}.cls-7{fill:#373737}.cls-10{fill:#4e4e4e}.cls-13{fill:#6b6b6b}.cls-14{fill:#f5f5f5}.cls-16{fill:#f0c238}.cls-18{fill:#999}.cls-20{fill:#3a3a3a}.cls-21{fill:#b3b3b3}</style></defs><g id="Слой_2" data-name="Слой 2"><g id="Layer_2" data-name="Layer 2"><path class="cls-2" d="M35 78.54a2.34 2.34 0 01-.79-.76 4 4 0 01-.56-2.2 10.11 10.11 0 014.57-7.92 4 4 0 012.16-.66 2.3 2.3 0 011 .3l-3.51-2a3.21 3.21 0 00-3.24.32 10.11 10.11 0 00-4.57 7.92 3.21 3.21 0 001.34 3zm42.09-24.33a2.34 2.34 0 01-.79-.76 4 4 0 01-.56-2.2 10.11 10.11 0 014.57-7.92 4 4 0 012.19-.62 2.3 2.3 0 011 .3L80 41a3.21 3.21 0 00-3.24.32 10.11 10.11 0 00-4.57 7.92 3.21 3.21 0 001.34 3z"/><path class="cls-3" d="M10.58 42.4l1.49.86v-3.13l-1.49-.86v3.13z"/><path class="cls-4" d="M10.58 39.27l.25-.15 1.49.86-.25.15-1.49-.86z"/><path class="cls-5" d="M12.07 43.26l.25-.15v-3.13l-.25.15v3.13z"/><path class="cls-6" d="M84.3 45.31l-6.09-3.51 7.08-2.57-.99 6.08zM42.23 69.6l-6.08-3.51 7.07-2.57-.99 6.08z"/><path class="cls-7" d="M0 61.13l.7.4 8.72-5.04-.69-.4L0 61.13zm90.07-23.96l-.83-.48v.95l.83-.47z"/><path d="M89.37 13.62v23.95l-7.12 4.11a4.07 4.07 0 00-3.24.59 10.21 10.21 0 00-3.24 3.15L40.19 66a4 4 0 00-3.24.59 10.28 10.28 0 00-3.24 3.15 11.2 11.2 0 00-2 6l-5.82 3.36-.89-4.36 1.33-7.53L32.51 59l6.7-14.33a9.79 9.79 0 014-4.34z" fill="#c6a22a"/><path d="M89.37 13.62L43.19 40.28a9.79 9.79 0 00-4 4.34L34.59 42l-19-11a9.79 9.79 0 014-4.33L65.78 0z" fill="#ffcb27"/><path class="cls-7" d="M33.71 69.71a12.11 12.11 0 00-2 6l-5.82 3.36-.89-4.33zm55.66-32.14v4.81l-4.43 2.56a3.18 3.18 0 00-1.86-2.81l-.1-.07a2.44 2.44 0 00-.74-.38z"/><path class="cls-6" d="M85 45.71l-.69-.4a4 4 0 00-1.21-3.18 3.18 3.18 0 011.86 2.81 6 6 0 01.04.77z"/><path class="cls-10" d="M90.77 37.57v4.81L85 45.71a6 6 0 000-.77 3.18 3.18 0 00-1.86-2.81l-.14-.05 6.38-3.69z"/><path fill="#d24a43" d="M89.5 41.46l1.27-.73v-3.16l-1.27.73v3.16z"/><path class="cls-10" d="M48.32 55.13l-1.17.67v-2.77l1.17-.68v2.78z"/><path class="cls-7" d="M48.25 55l-.6.34v-2.43l.6-.35V55z"/><path class="cls-10" d="M62.64 46.86l-1.17.67v-2.77l1.17-.68v2.78z"/><path d="M51 64.15V39.89l12.73-7.35v24.27zm.32-24.08V63.6l12.08-7V33.1zm-9.05 27.3l-.14-.26 6.91-3.99V41.37l-9.5 5.49-3.11 6.69v12.56h-.3V53.48l3.17-6.83 10.04-5.8v22.44l-7.07 4.08z" fill="#967b20"/><path class="cls-5" d="M36.66 54.66a.69.69 0 01.07-.29l3.32-7.11a.72.72 0 01.28-.32l7.34-4.24a.32.32 0 01.48.28v8.5a.32.32 0 01-.16.28L37.14 58a.32.32 0 01-.48-.28z"/><path class="cls-4" d="M37 54.51l3.32-7.11a.4.4 0 01.15-.18l6.86-4a.32.32 0 01.48.28v7.8a.32.32 0 01-.16.28l-10.21 5.9a.32.32 0 01-.44-.28v-2.54a.37.37 0 010-.15z"/><path class="cls-13" d="M83.36 33.22L63.55 44.66v-1.45l19.81-11.43v1.44z"/><path class="cls-5" d="M63.55 44.44v-1.01l19.62-11.32v1L63.55 44.44z"/><path class="cls-7" d="M62.64 46.69l-.6.34V44.6l.6-.35v2.44z"/><path class="cls-14" d="M28.8 67.26l-2.78 1.6.3-1.65 2.48-1.43v1.48z"/><path d="M68.28 31.92l.92-.53a1.11 1.11 0 01.44-.17.36.36 0 01.28.08.55.55 0 01.16.28 1.62 1.62 0 010 .42 2.2 2.2 0 01-.07.62 1.93 1.93 0 01-.2.46 1.49 1.49 0 01-.28.34 2.33 2.33 0 01-.37.28l-.92.53zm.62.17v1.26l.15-.09a1.06 1.06 0 00.28-.21.69.69 0 00.13-.25 1.52 1.52 0 000-.43q0-.37-.1-.44t-.34.06zm1.54-1.41l1.65-1v.49l-1 .6v.37l1-.55v.47l-1 .55v.45l1.07-.62V32l-1.68 1zm2.02-1.17l.62-.36v1.74l1-.56v.57l-1.58.91zm1.89-1.09l.62-.36v2.31l-.62.36zm.86-.5l.65-.37.45 1.4.44-1.95.63-.36-.74 2.74-.67.39zm2.37-1.36l1.65-1v.49l-1 .6v.37l1-.55V27l-1 .55V28l1.07-.62v.52l-1.68 1zm2.02 1.14v-2.31l1-.59a1.65 1.65 0 01.44-.2.25.25 0 01.24.07.46.46 0 01.09.32 1 1 0 01-.07.37 1.35 1.35 0 01-.19.34 1.53 1.53 0 01-.22.22.4.4 0 01.16 0l.1.06.09.09.3.5-.7.4-.33-.51c0-.07-.08-.1-.11-.11a.21.21 0 00-.15 0h-.05v.94zm.62-1.7l.26-.15.16-.13a.38.38 0 00.1-.13.36.36 0 000-.16q0-.11-.06-.14s-.12 0-.23.07l-.27.16zm1.22-1.67l.69-.4.4.55.4-1 .68-.39-.78 1.79v1l-.62.36v-1z" fill="#fff"/><path class="cls-16" d="M2.73 53.59l23.59 13.62-1.34 7.53L1.39 61.13l1.34-7.54z"/><path class="cls-16" d="M2.73 53.59l6.19-8.25 23.59 13.62-6.19 8.25L2.73 53.59zM15.62 31l23.59 13.62-6.7 14.34L8.92 45.34 15.62 31z"/><path class="cls-5" d="M10.88 43.47l4.49-9.61a.32.32 0 01.45-.14L37.14 46a.32.32 0 01.13.42L32.78 56a.32.32 0 01-.45.14L11 43.88a.32.32 0 01-.12-.41z"/><path class="cls-4" d="M36.86 46.57l-.22.47-4 8.55a.32.32 0 01-.45.14l-7-4-5.48-3.16-5.08-2.97L12 44.07l-.55-.32a.32.32 0 01-.13-.42l4.22-9a.32.32 0 01.45-.14L24.37 39 27 40.55l5.11 2.95 4.61 2.66a.32.32 0 01.14.41z"/><path class="cls-14" d="M4.92 56.68l-2.49-1.44.3-1.65 2.48 1.44-.29 1.65zm21.1 12.18l-2.48-1.43.29-1.65 2.49 1.43-.3 1.65z"/><path class="cls-7" d="M5.21 55.03l18.62 10.75-1.98 6.15-17.01-9.82.37-7.08z"/><path class="cls-6" d="M4.84 62.11l1.01-5.7 17.01 9.82-1.01 5.7-17.01-9.82z"/><path class="cls-7" transform="rotate(-60 14.019 63.22)" d="M13.62 53.4h.8v19.64h-.8z"/><path class="cls-7" transform="rotate(-60 13.685 65.117)" d="M13.28 55.3h.8v19.64h-.8z"/><path class="cls-7" d="M24.29 75.15l.69.4 9.43-5.44-.7-.41-9.42 5.45zm66.48-37.58l-.7-.4-7.82 4.51.7.4 7.82-4.51z"/><path class="cls-6" d="M42.93 70l-.69-.4A4 4 0 0041 66.42a3.18 3.18 0 011.86 2.81 6 6 0 01.07.77z"/><path class="cls-10" d="M67.74 50.86v4.81L42.93 70a6 6 0 000-.77A3.18 3.18 0 0041 66.42l-.14-.05 6.38-3.69z"/><path class="cls-7" d="M67.75 50.86l-.7-.4-26.86 15.51.69.4 26.87-15.51z"/><path class="cls-10" d="M34.4 70.11a12.11 12.11 0 00-2 6L25 80.35v-4.8z"/><path class="cls-7" d="M67.05 50.46l.7.4 8.72-5.04-.69-.4-8.73 5.04z"/><path class="cls-10" d="M76.47 45.82a12.11 12.11 0 00-2 6l-6.68 3.86v-4.82z"/><path fill="#ffe485" d="M89.37 13.62l-5.71 3.43-5.75 3.38-11.52 6.71-11.57 6.63-5.8 3.28-5.83 3.23 5.72-3.42 5.74-3.39 11.52-6.71 11.57-6.62 5.81-3.28 5.82-3.24z"/><path class="cls-18" d="M27 40.55L14.63 45.6l-2.65-1.53 12.39-5.05L27 40.55zm9.86 6.02l-.22.47-11.43 4.67-5.48-3.16 12.38-5.05 4.61 2.66a.32.32 0 01.14.41z"/><path class="cls-5" d="M14.59 45.88a.24.24 0 010-.48l2.08-.4a.24.24 0 11.09.48l-2.12.38z"/><path class="cls-5" d="M21.11 48h-.08l-4.4-2.6a.16.16 0 01.16-.28l4.41 2.54a.16.16 0 01-.08.3zm2.53 3.11a.24.24 0 010-.48l2.12-.38a.24.24 0 01.09.48l-2.12.38z"/><path class="cls-5" d="M30.17 53.19h-.08l-4.41-2.54a.16.16 0 11.16-.28l4.41 2.54a.16.16 0 01-.08.3z"/><path class="cls-3" d="M36.81 57.55l1.49.86v-3.14l-1.49-.86v3.14z"/><path class="cls-4" d="M36.81 54.41l.26-.15 1.49.86-.26.15-1.49-.86z"/><path class="cls-5" d="M38.3 58.41l.26-.15v-3.14l-.26.15v3.14z"/><path fill="#f3d052" d="M8.92 45.34l-3.71 9.69 18.62 10.75 8.68-6.82L8.92 45.34z"/><path class="cls-10" d="M41.94 65.76l-1.06.61a4.05 4.05 0 00-3.24.58 10.31 10.31 0 00-3.24 3.15l-1.06.61a12.59 12.59 0 011.06-1.9l.21-.29a10.1 10.1 0 013-2.86 4.05 4.05 0 013.24-.58h.12a2.05 2.05 0 01.36.17 2.59 2.59 0 01.61.51z"/><path class="cls-7" d="M41.36 65.3a2.05 2.05 0 00-.36-.17h-.12a4.05 4.05 0 00-3.24.58 10.1 10.1 0 00-3 2.86l-.21.29a12.59 12.59 0 00-1.06 1.9l-.7-.4a12.74 12.74 0 011.06-1.9 10.35 10.35 0 013.24-3.15 4.06 4.06 0 013.24-.58 2.39 2.39 0 01.48.21z"/><path class="cls-10" d="M84.05 41.45l-1.05.61a4.05 4.05 0 00-3.24.58 10.31 10.31 0 00-3.24 3.15l-1.06.61a12.58 12.58 0 011.06-1.9l.21-.29a10.1 10.1 0 013-2.86 4.05 4.05 0 013.27-.58h.12a2 2 0 01.36.17 2.59 2.59 0 01.57.51z"/><path class="cls-7" d="M83.47 41a2 2 0 00-.36-.17h-.12a4.05 4.05 0 00-3.24.58 10.1 10.1 0 00-3 2.86l-.21.29a12.58 12.58 0 00-1.06 1.9l-.7-.4a12.75 12.75 0 011.06-1.9A10.35 10.35 0 0179.06 41a4.06 4.06 0 013.24-.58 2.39 2.39 0 01.48.21z"/><path class="cls-3" d="M21.06 75.02v4.81l-2.52-1.45L.3 67.85v-4.81l18.24 10.53 2.52 1.45z"/><path class="cls-7" d="M.3 63.04l20.76 11.99 3.92.52L0 61.13l.3 1.91z"/><path class="cls-13" d="M21.06 79.83l3.92.52v-4.8l-3.92-.52v4.8zM.3 67.85L0 65.93v-4.8l.3 1.91v4.81z"/><path class="cls-7" d="M25.68 75.15l-.7.4L0 61.13l.7-.41 24.98 14.43z"/><path class="cls-20" d="M38.19 78.22a10.11 10.11 0 004.57-7.92 3.22 3.22 0 00-1.34-3 2.3 2.3 0 00-1-.3 4 4 0 00-2.19.62 10.11 10.11 0 00-4.57 7.92 4 4 0 00.56 2.2 2.34 2.34 0 00.79.76 3.22 3.22 0 003.18-.28z"/><path class="cls-21" d="M40.77 71.45c0-1.64-1.16-2.31-2.58-1.49a5.71 5.71 0 00-2.58 4.47c0 1.64 1.16 2.31 2.58 1.49a5.71 5.71 0 002.58-4.47z"/><path class="cls-4" d="M39.76 70.21a1.05 1.05 0 00-.69-.11 2.18 2.18 0 00-.73.28 5.11 5.11 0 00-2.29 4 2.18 2.18 0 00.12.77 1.06 1.06 0 00.44.55 1.43 1.43 0 001.39-.21 5.09 5.09 0 002.29-4 1.43 1.43 0 00-.53-1.28z"/><path class="cls-18" d="M39.06 70.1a2.18 2.18 0 00-.73.28 5.11 5.11 0 00-2.29 4 2.18 2.18 0 00.12.77 2.09 2.09 0 00.73-.28 5.09 5.09 0 002.29-4 2.08 2.08 0 00-.12-.77z"/><g clip-path="url(#clip-path)"><path class="cls-2" d="M37 74.07a.57.57 0 01-.19-.18 1 1 0 01-.14-.54 2.47 2.47 0 011.12-1.93 1 1 0 01.53-.15.56.56 0 01.26.07l-.86-.49a.78.78 0 00-.79.08 2.47 2.47 0 00-1.12 1.93.78.78 0 00.33.72z"/><path class="cls-20" d="M37.78 74a2.47 2.47 0 001.12-1.93.78.78 0 00-.33-.72.56.56 0 00-.26-.07 1 1 0 00-.53.15 2.47 2.47 0 00-1.12 1.93 1 1 0 00.14.54.57.57 0 00.19.18.78.78 0 00.79-.08z"/><path class="cls-3" d="M38.29 71.81a.36.36 0 00-.17 0 .67.67 0 00-.31.1 1.61 1.61 0 00-.73 1.26.64.64 0 00.07.31.39.39 0 00.13.12.51.51 0 00.51-.05 1.61 1.61 0 00.73-1.26.51.51 0 00-.23-.48z"/><path class="cls-13" d="M38.09 71.77a.67.67 0 00-.31.1 1.61 1.61 0 00-.73 1.26.64.64 0 00.07.31.66.66 0 00.31-.1 1.6 1.6 0 00.73-1.26.67.67 0 00-.07-.31z"/></g><path class="cls-20" d="M80.33 53.89A10.11 10.11 0 0084.9 46a3.22 3.22 0 00-1.34-3 2.3 2.3 0 00-1-.3 4 4 0 00-2.19.62 10.11 10.11 0 00-4.57 7.92 4 4 0 00.56 2.2 2.34 2.34 0 00.79.76 3.22 3.22 0 003.18-.31z"/><path class="cls-21" d="M82.91 47.12c0-1.64-1.16-2.31-2.58-1.49a5.71 5.71 0 00-2.58 4.47c0 1.64 1.16 2.31 2.58 1.49a5.71 5.71 0 002.58-4.47z"/><path class="cls-4" d="M81.9 45.88a1.05 1.05 0 00-.69-.11 2.18 2.18 0 00-.73.28 5.11 5.11 0 00-2.29 4 2.18 2.18 0 00.12.77 1.05 1.05 0 00.44.55 1.43 1.43 0 001.42-.17 5.09 5.09 0 002.29-4 1.43 1.43 0 00-.56-1.32z"/><path class="cls-18" d="M81.21 45.77a2.18 2.18 0 00-.73.28 5.11 5.11 0 00-2.29 4 2.18 2.18 0 00.12.77 2.08 2.08 0 00.73-.28 5.09 5.09 0 002.29-4 2.09 2.09 0 00-.12-.77z"/><g clip-path="url(#clip-path-2)"><path class="cls-2" d="M79.13 49.74a.57.57 0 01-.19-.18 1 1 0 01-.14-.56 2.47 2.47 0 011.12-1.93 1 1 0 01.53-.15.56.56 0 01.26.07l-.86-.49a.78.78 0 00-.79.08 2.47 2.47 0 00-1.12 1.93.78.78 0 00.33.72z"/><path class="cls-20" d="M79.92 49.66A2.47 2.47 0 0081 47.73a.78.78 0 00-.33-.72.56.56 0 00-.26-.07 1 1 0 00-.53.15A2.47 2.47 0 0078.8 49a1 1 0 00.14.54.57.57 0 00.19.18.78.78 0 00.79-.06z"/><path class="cls-3" d="M80.43 47.48a.36.36 0 00-.17 0 .67.67 0 00-.31.1 1.61 1.61 0 00-.73 1.26.64.64 0 00.07.31.39.39 0 00.13.12.51.51 0 00.51-.05 1.61 1.61 0 00.71-1.22.51.51 0 00-.21-.52z"/><path class="cls-13" d="M80.23 47.44a.67.67 0 00-.31.1 1.61 1.61 0 00-.73 1.26.64.64 0 00.07.31.66.66 0 00.31-.1 1.6 1.6 0 00.73-1.26.66.66 0 00-.07-.31z"/></g><path class="cls-3" d="M37.85 44.21a6.8 6.8 0 00-1.92 3L14.58 34.9a6.8 6.8 0 011.92-3z"/><path class="cls-5" d="M37.85 44.21l-.58 2.23-1.34.78a6.8 6.8 0 011.92-3.01z"/><path class="cls-3" d="M6.65 62.67l-1.06-.62-.01 3.2 1.07.62v-3.2z"/><path class="cls-5" d="M7.69 62.07l-1.04.6v3.2l1.03-.6.01-3.2z"/><path class="cls-3" d="M17.72 69.05l-1.07-.61v3.2l1.06.62.01-3.21z"/><path class="cls-5" d="M18.75 68.45l-1.03.6-.01 3.21 1.04-.6v-3.21z"/><path class="cls-3" d="M17.72 67.82v1.23l-12.13-7v-1.23l12.13 7z"/><path class="cls-13" d="M18.75 67.22l-1.03.6-12.13-7 1.03-.6 12.13 7z"/><path class="cls-5" d="M18.75 68.45l-1.03.6v-1.23l1.03-.6v1.23z"/><path fill="#deb334" d="M44.8 30.73l-10.55-6.09v-.36l10.55-5.73 10.55 5.73v.36L44.8 30.73z"/><path fill="#ffd03b" d="M44.8 30.37l-10.55-6.09 10.55-6.09 10.55 6.09-10.55 6.09z"/></g></g></svg>