<svg xmlns="http://www.w3.org/2000/svg" viewBox="0 0 90.41 66.76"><defs><style>.cls-7{fill:#3b66c2}.cls-11{fill:#fff}.cls-13{fill:#c29a77}.cls-14{fill:#94765a}.cls-17{fill:#3e3e3e}.cls-19{fill:#858585}</style></defs><g id="Слой_2" data-name="Слой 2"><g id="Layer_2" data-name="Layer 2"><path d="M0 45.66a1.7 1.7 0 001 1.43l.24.14L28.3 62.86a6.35 6.35 0 005.7-.24l55-31.75.17-.11A2.24 2.24 0 0090.41 29a1.7 1.7 0 00-1-1.43L62.11 11.8a6.35 6.35 0 00-5.71.2l-55 31.79A2.35 2.35 0 000 45.66zm6.51-3.11L54.25 15a2.29 2.29 0 012.06-.09l.46.27L84 30.92c.53.3.46.84-.15 1.19L36.16 59.67a2.29 2.29 0 01-2.06.09L6.81 44l-.45-.26c-.53-.31-.46-.84.15-1.19z" fill="#e4e4e4"/><path d="M0 45.66V49a1.7 1.7 0 001 1.43l27.3 15.76a6.35 6.35 0 005.7-.24L89 34.2a2.35 2.35 0 001.4-1.87V29a2.24 2.24 0 01-1.22 1.76l-.17.11L34 62.62a6.35 6.35 0 01-5.72.24L1.22 47.22 1 47.09a1.7 1.7 0 01-1-1.43z" fill="#b0b0b0"/><path d="M6.36 43.74l.45.26L34.1 59.75a2.29 2.29 0 002.06-.09L83.9 32.1c.61-.35.68-.88.15-1.19L56.77 15.17l-.46-.27a2.29 2.29 0 00-2.06.09L6.51 42.55c-.61.35-.68.88-.15 1.19z" fill="#5e96ff"/><path d="M73.88 41.89A.3.3 0 0074 42a.31.31 0 00.32 0l5.25-3c.53-.31.64-1.26.32-1.45a.24.24 0 00-.17 0l-.15.06-5.25 3a1.17 1.17 0 00-.44 1.28z" fill="#cacaca"/><path d="M73.71 41.87L74 42a.3.3 0 01-.12-.14 1.17 1.17 0 01.44-1.3l5.25-3a.32.32 0 01.32 0l-.29-.17a.31.31 0 00-.32 0l-5.25 3c-.53.34-.64 1.29-.32 1.48z" fill="#979797"/><path d="M19.58 53.26l-1.72 1a1.42 1.42 0 01-1.28 0l-1.72-1a.39.39 0 010-.74l1.72-1a1.42 1.42 0 011.28 0l1.72 1a.39.39 0 010 .74zm52.86-31.65a.89.89 0 00.81 0 .25.25 0 000-.47.89.89 0 00-.81 0 .25.25 0 000 .47z" fill="#919395"/><path class="cls-7" d="M75.67 29.67s.07-.1.15-.1a.18.18 0 010 .2s-.07.06-.09.09 0 .12 0 .19a1.29 1.29 0 01-.06.19c0 .06 0 .15-.15.16s0-.12-.05-.18-.12 0-.18 0 .12-.29-.08-.43-.37-.13-.27-.21.2 0 .29.08h.15c.11.01.18.05.29.01zm-.29.8c.1.11 0 .28-.07.41s0 .1 0 .14-.12.1-.16.16 0 .21-.07.31a.6.6 0 01-.19.31c-.12.08-.43.18-.4 0a1.35 1.35 0 01.13-.25 4.06 4.06 0 00.41-.67c0-.12 0-.23.07-.33s.21-.05.28-.08zM68 28.08h.06c.06 0 .13.17 0 .25a.64.64 0 01-.29.06c-.23-.07.23-.23.23-.31zm.15.58c.08 0 .55-.08.56 0s-.14.05-.23.09-.18.11-.31.12-.31-.06-.48 0a.76.76 0 00-.33.09c-.12.09 0 .18 0 .29s-.16.12-.28.16-.3 0-.39 0-.14.26-.31.2 0-.17-.07-.21a.76.76 0 00-.33-.07 1.58 1.58 0 00-.19 0h-.23c-.27.05-.51.24-.73.2h-.33c-.07 0-.29-.14-.2-.21a.86.86 0 01.47-.08s.07 0 .12.07a.63.63 0 00.34 0c.1 0 0-.16 0-.24a.33.33 0 01.15-.17 2 2 0 01.3-.07l.26-.09.26-.06a2.92 2.92 0 01.81-.19h.2c.08 0 .31-.1.4-.06s0 .09 0 .12.39.05.54.11zm2.9 1.42c.11 0 .11.11.16.16a2.1 2.1 0 01.26.18 1.75 1.75 0 01.14.32.58.58 0 01.07.32c0 .06 0 .11-.05.17a1.18 1.18 0 000 .27v.26c0 .08.15.23 0 .33a.93.93 0 00-.21.17c-.07.11-.06.21-.12.25s-.21 0-.28.06-.07.1-.17.16a.93.93 0 01-.16 0c-.16.05-.29.13-.45.07s-.06-.09-.14-.12-.15 0-.24 0a.25.25 0 00-.22-.07c-.06 0-.08-.06-.09-.09a.83.83 0 00-.1.14c0 .06 0 .14-.06.17s-.11 0-.18-.07a1.75 1.75 0 00-.4-.05 2.47 2.47 0 00-.4.11c-.3.13-.33.32-.51.45s-.12.06-.16.1a.68.68 0 00-.2.43 3.39 3.39 0 00-.52.33c-.12.14-.07.29-.39.43-.1 0-.23.05-.31 0s0-.12 0-.17a.45.45 0 00-.16-.19c-.06 0-.17 0-.24-.09s-.09-.09-.14-.12-.2-.05-.29-.09l-.11-.06a1.39 1.39 0 01-.16-.06v-.12c0-.04-.13 0-.23-.09s-.05-.09-.11-.16-.1-.08-.12-.1 0-.11.06-.14 0-.25.15-.34l.1-.06c.06-.05.09-.15.17-.23s.18-.13.21-.2a.36.36 0 000-.29c-.06-.08-.15-.12-.11-.18s.07 0 .1-.07a.33.33 0 00.07-.14c0-.07-.08-.12-.07-.19a.63.63 0 01.06-.19.3.3 0 01.1-.1c.13-.07.36 0 .46-.1s0-.12 0-.18-.11-.18 0-.26.22-.09.18-.16-.13 0-.12-.07.41-.08.57-.17.14-.19.28-.13 0 .09.08.13.08 0 .1.06-.1.11 0 .16.29 0 .43 0h.37a.87.87 0 00.29 0c.09-.05.06-.17 0-.26a1.79 1.79 0 00-.33-.28s0-.07-.08-.1-.21-.2-.15-.29a1.27 1.27 0 01.63.21c.12 0 .22-.09.36 0s.08.07.13.09.2 0 .27.07.2.13.34.15.3-.06.5 0a.78.78 0 00.2.06h.48a2.51 2.51 0 00.3 0 1.87 1.87 0 01.16-.03zM54.9 22.52a1 1 0 01.9-.12c-.23.22-.77.21-1 .45a.08.08 0 000 .13c.17.08.53-.15.71-.09 0 .06-.13.08-.17.11a.37.37 0 00-.11.23c0 .07.09.18 0 .22s-.27.07-.36.16 0 .08 0 .11-.27.1-.21.2.21.1.32.09.1-.05.17-.07a1.71 1.71 0 01.29 0 .79.79 0 01.19 0c.07 0 0 .05.1.07s.22 0 .27 0 0 .07 0 .11.1 0 .16 0 0 .06.09.08.15 0 .19.06a.07.07 0 010 .1c-.27 0-.57 0-.88.07a2.37 2.37 0 01-1.11 0v-.15l-.11-.05c-.1-.06-.12-.17-.18-.2a.87.87 0 00-.4 0s.08 0 .12.07a.09.09 0 010 .15c-.15.11-.39 0-.58.18s0 .16.11.22.19 0 .24 0-.16.18-.22.2-.33.06-.45.14-.06.1-.1.13c-.22.19-.8.33-.65.52 0 0 .07 0 .1.07s0 .08.06.11.07.05.1.08 0 .21.2.15 0 0 .08-.06.33 0 .41-.1.06-.11.1-.13a.81.81 0 01.27-.07 1.39 1.39 0 00.28-.06c.08-.05 0-.06 0-.12a3 3 0 01.69 0h.35a1.51 1.51 0 01.34 0s0 .05.06.08.11 0 .12.08a1.86 1.86 0 01-.57 0h-.57c-.04 0 .27.08.33.09a1.37 1.37 0 01.4.06c.06 0 .12.1.21.15l.18.09a.85.85 0 01.11.13s.12.09.14.13a.17.17 0 010 .23c-.07 0-.16 0-.22.07s0 .13 0 .22.15 0 .2.09 0 .15.06.2.22 0 .31 0a3.56 3.56 0 01.55 0 1.05 1.05 0 01.36.07c.08.05 0 .27-.17.31s-.19 0-.3-.07a1.7 1.7 0 00-.24 0h-.13c-.14 0-.18.06-.34.1s-.17 0-.26-.06a.56.56 0 00-.43.13c-.07.07 0 .13-.09.19s-.24-.16-.41-.08 0 .21 0 .29-.09.1 0 .14.18 0 .3 0h.29c.07 0 0-.1.09-.14a.8.8 0 01.33-.11c.07.08-.08.27.06.35s.19 0 .31 0h.69a2 2 0 00.25 0c.06 0 0 0 .09.07s.17 0 .25 0 .34.14.28.24c.22.18.37.34.34.53s-.2.32-.33.48 0 .09 0 .13-.3.2-.16.28.2 0 .28 0 .14.17.08.22a.33.33 0 01-.29 0c-.11-.05 0-.16-.08-.2a.44.44 0 00-.43 0 .32.32 0 000 .43 1.9 1.9 0 00.6 0 1.9 1.9 0 011.34.22c.08.11 0 .22-.09.33s.1.21 0 .31-.15-.05-.21-.07a2 2 0 00-.38 0h-.32a2 2 0 00-.34.07h-.24c-.04 0 0 .07.14.15s.11.18.29.25a1.75 1.75 0 00.29 0 3.31 3.31 0 00.4.07h.23a2.62 2.62 0 01.57 0 3.54 3.54 0 01.33.15c.14 0 .37 0 .4.12a1.5 1.5 0 01-.34.07 1.68 1.68 0 01-.51 0h-.17c-.11 0-.19-.08-.32-.12a1.91 1.91 0 00-.47 0h-.35c-.09 0-.22-.17-.37-.24h-.12c-.08 0-.15-.09-.22-.11a2.14 2.14 0 00-.24 0l-.24-.05c-.14 0-.37-.12-.46-.08s0 .19-.11.26a.35.35 0 01-.25 0c-.07 0-.08-.08-.14-.11a.94.94 0 00-.39-.05h-.73c-.1 0-.2-.06-.26 0s0 .1-.07.14a1.39 1.39 0 01-.18.16c-.16.11-.34.17-.11.27.07.07 0 .13 0 .19v.55c0 .03-.13.19-.07.3s.33.1.45.19.07.1.13.14a1.78 1.78 0 01.19.09v.09c0 .04 0 .07.06.09s0 .08 0 .12v.11c0 .03-.57 0-.81-.08s-.25 0-.38 0-.28-.09-.46-.11-.32 0-.45-.06l-.37-.11a2.73 2.73 0 01-.37-.13c-.12-.06-.17-.12-.3-.09s0 .13-.1.19-.5.11-.57 0-.34.05-.56.06a1.24 1.24 0 00-.45 0s-.06.05-.08.07l-.28.17a2.2 2.2 0 01-.34.23l-.31.14a1.21 1.21 0 01-.41.14c-.07 0-.21-.05-.29 0s-.08.1-.13.15a.89.89 0 01-.5.18l-.31.05c-.22 0-.51-.11-.71 0s-.13.13-.06.18a.94.94 0 00.3.06 3.18 3.18 0 01.7 0s.07-.08.15-.08.23.13.34.1c.41-.18.31-.35.33-.53h.28a.69.69 0 00.3 0c.06 0 .1-.06.19-.08a1.54 1.54 0 01.45 0c.06 0 .12.19.13.24s0 .09 0 .12.09.06.1.07 0 .1 0 .15a.87.87 0 010 .15v.16c0 .05-.2.15-.22.24s.07.11.05.18-.16.16-.22.25 0 .13-.05.18l-.08.06s-.05.1-.09.14l-.11.09c-.09.1-.07.25-.28.28s-.41-.14-.62-.17-.2 0-.3 0 0-.06 0-.09a1.75 1.75 0 00-.38 0h-.21a3.29 3.29 0 01-.77 0l-.14-.07a1.13 1.13 0 00-.29 0h-.44a3.51 3.51 0 00-.77 0c-.06 0-.13.1-.12.14a3 3 0 00.46.08 4 4 0 01.45.06l.15.05h.6c.19 0 .18.1.32.15a3.92 3.92 0 00.5 0c.13 0 .25.08.36.1a1.89 1.89 0 00.54 0h.71c.06 0 .06.06.1.09a1.14 1.14 0 00.45 0s.06-.08.12-.13l.1-.06s0-.08.07-.12.18-.12.27-.19.07-.16.17-.2a.39.39 0 01.31.17l.08.06c.11.11.11.25.2.36s.08.06.11.1a.89.89 0 01.1.4.82.82 0 010 .2c0 .07-.05.13-.07.2a.89.89 0 000 .44c0 .05.06.1.07.14s0 .14 0 .2a1.21 1.21 0 00.13.19c.06.08 0 .18.18.25s.14 0 .21 0a.76.76 0 01.27.16 1.94 1.94 0 00.51.08c.19.09.34.2.51.28s.21.07.27.14a.4.4 0 010 .29c0 .08-.13.16-.15.25s0 .13 0 .2-.07.24 0 .29a1.23 1.23 0 00.23.07 1.06 1.06 0 01.47.25c.09.12-.25.29-.12.4s.11 0 .16.07a1 1 0 01.17.19v.2c0 .07.09.17.1.26a1.24 1.24 0 010 .4.79.79 0 01-.3.4c-.1.07-.24.12-.33.19s0 .07-.08.11l-.09.06s0 .09-.1.12a.7.7 0 01-.53 0c-.05 0-.06-.08-.11-.11a2 2 0 00-.35-.06c-.15 0-.28-.07-.41-.09s-.25 0-.36 0a2.34 2.34 0 01-.57-.19c-.06 0-.15 0-.23-.07a2.77 2.77 0 00-.25-.13h-.27c-.1 0-.37-.08-.51-.1a1.8 1.8 0 01-.42-.05 1.59 1.59 0 01-.23-.15c-.05 0-.06-.09-.11-.14l-.43-.58c-.16-.14 0-.31-.3-.43-.12-.05-.24 0-.37-.1s-.08-.07-.13-.1a1.67 1.67 0 00-.35-.09 4.51 4.51 0 00-.75-.17h-.43a1.21 1.21 0 01-.32-.06c-.05 0 0-.07-.08-.1s-.17-.12-.25-.19a.72.72 0 00-.19-.16.85.85 0 00-.44 0c-.15.05-.2.17-.36.25s-.43-.1-.64 0a1.18 1.18 0 00-.52.48.68.68 0 01-.16.23 2.8 2.8 0 01-.29.11 1.59 1.59 0 00-.31.21c-.08.07-.09.16-.17.22a1.6 1.6 0 01-.66.12h-.66a1.54 1.54 0 01-.38-.09 2.81 2.81 0 00-.55 0 2.17 2.17 0 01-.54 0c-.06 0-.09-.07-.14-.1s-.18 0-.24-.06 0-.13-.09-.18l-.11-.08c-.07-.06-.06-.13-.21-.19s-.15 0-.22-.06 0-.06-.09-.08-.19 0-.29 0-.08-.14-.13-.23-.08-.09-.09-.12 0-.14 0-.2-.1-.1-.12-.13 0-.1 0-.18-.06-.11 0-.14.07-.09.09-.13a.34.34 0 000-.39.34.34 0 01-.23-.21c0-.08-.09-.15-.05-.24s.14-.16.09-.27a.38.38 0 00-.13-.18.55.55 0 00-.37 0c-.09 0-.13.15-.26.13s-.09-.05-.12-.07-.16 0-.2 0-.09-.14-.17-.21a1.61 1.61 0 00-.39-.2c-.08-.18.28-.29.56-.43l.12-.08c.16-.09.33-.14.24-.25a1.12 1.12 0 00-.28-.18 1.61 1.61 0 00-.43 0c-.14 0-.24.11-.39.08s.2-.15.27-.24-.07-.1 0-.14.12 0 .16-.06a.56.56 0 00.12-.2v-.16c0-.05.06-.06.08-.09a.33.33 0 00.05-.22c0-.09-.1-.17 0-.23s.39-.21.28-.3-.33-.06-.41-.16 0-.12.1-.24a.66.66 0 01.31.11c.08 0 .21-.16.16-.21s-.3 0-.38 0-.2-.07-.28 0-.07.26-.23.35a.65.65 0 01-.41.06 3.93 3.93 0 00-.43-.19c-.05-.1.08-.2.13-.3s0-.08 0-.12.19-.11.22-.18 0-.06-.07-.11 0-.08 0-.12 0-.05-.06-.08.08-.2 0-.29-.1 0-.15-.05.12-.09.17-.13 0-.16.11-.23a2 2 0 00.24-.2s0-.1.07-.14l.1-.05.08-.08c.06 0 .16-.08.24-.12a1.39 1.39 0 01.38-.22h.25c.1 0 .08-.06.14-.09s.24-.07.36-.13l.12-.07a4.05 4.05 0 01.5-.16c.13 0 .39-.14.49-.09s0 .19-.11.24-.39.14-.48.25a.78.78 0 00.73-.06c-.08-.06-.15 0-.23 0s.23-.09.33-.17 0-.07-.08-.1a.36.36 0 01.29-.28c-.09-.06-.25 0-.28-.11s.15-.14.22-.12 0 .05.07.08a.29.29 0 00.22 0c.08-.05 0-.11.05-.18s.06-.06.08-.09 0-.09.06-.12l.1-.07s0-.09.09-.12.15 0 .22-.05.05-.06.1-.09l.12-.07c.07-.06.08-.11.15-.15s.2 0 .2-.08-.17 0-.19-.06c.14-.07.28-.16.42-.23s.51-.16.68-.26c-.14-.06-.24 0-.35.05a1.15 1.15 0 01-.28 0 .63.63 0 01-.09-.19c0-.09.25-.23.42-.22s.2.07.27 0-.06-.14 0-.19.19 0 .24 0 0-.15.07-.21.09 0 .18-.07-.1 0-.13-.08.29-.2.37-.3-.12 0-.12-.06.2-.22.34-.34.11-.18.19-.24.23-.08.31-.12a.44.44 0 00.12-.11v-.12a3 3 0 01.25-.15c.08-.06.12-.13.2-.16s.19 0 .26-.05.34-.24.54-.31h.15c.15 0 .21-.1.37 0s.25 0 .38-.07a1.08 1.08 0 00.2-.13l.33-.18.19-.05.12-.07.17-.07c.09-.06.07-.14.13-.19a.92.92 0 01.15-.07c.15-.08.29-.2.43-.25a1.91 1.91 0 01.38-.07h.26a.92.92 0 00.27-.08v-.12c0-.05.52-.25.59-.37s0-.07 0-.11c.24-.16.52-.3.76-.44a2.51 2.51 0 01.24-.15c.1 0 .25 0 .36-.06s.16-.09.26-.13l.2-.06a1.38 1.38 0 00.25-.17 2.18 2.18 0 01.69-.36 2.19 2.19 0 00.4-.08c.17-.08.39-.25.56-.34l.12-.05s0-.08.1-.12.35-.06.45-.14-.13 0-.12-.07.11-.07.19-.11.07-.07.11-.09.28-.06.42-.11a1.51 1.51 0 00.35-.19 1 1 0 01.2-.15h.15l.11-.06h.13c.21-.07.44-.18.66-.25a2.72 2.72 0 00.38-.12s-.01-.42.05-.45zm-5.39 5.65a.58.58 0 00-.39-.12c-.08.07.1.08.15.12s.05.14.15.19 0 .08 0 .12v-.11c0-.05.14-.15.09-.2zm-5.31-.35a.24.24 0 00-.11.15s-.07.07 0 .09.19-.18.11-.25zm2.42 3.39c-.1 0-.1.09 0 .1s.04-.08 0-.11zm-4.9-.62c.25-.09.11-.28-.16-.27a1.25 1.25 0 01-.29 0c-.14 0-.25-.08-.35 0 .18.11.5 0 .65.07s.03.15.15.19zm3.29 2c.11-.1-.26-.14-.33-.07s.26.14.32.08zm.52 1c-.27-.2-.52-.07-.78-.16s.18-.06.14-.12a.35.35 0 00-.39.08.42.42 0 01-.19 0 1.52 1.52 0 01-.64 0c-.1-.06 0-.16.11-.24s-.17-.12-.26-.1c-.27.11-.35.19-.39.34s-.06.13-.06.17a.14.14 0 00.07.12h.41a2.08 2.08 0 00.42 0 1.67 1.67 0 01.42 0c.05 0 0 .06.06.1a.75.75 0 00.2.14H45a1.62 1.62 0 00.38-.1c.08-.07.15-.15.15-.21zm-2.63.85c.19-.16-.12-.21-.31-.18l-.47.09c-.1 0-.4.11-.47.07s.06-.16-.16-.2-.37.25-.22.31.13 0 .23 0c-.05.07-.07.17-.17.22s-.28 0-.42 0-.22 0-.3.1 0 .18 0 .26v.1l.08.05c.07.07 0 .14.12.18s.2 0 .27 0-.08.08 0 .13c.28 0 .1-.13.15-.19s.2-.1.26-.16 0-.11.08-.17a.48.48 0 01.13-.12c.26-.17.62-.17.86-.31a2.23 2.23 0 00.34-.16zm.51.91c-.09-.06-.2-.07-.34-.14s-.18.22-.36.3-.3 0-.39.1 0 .1 0 .14-.28.05-.36.16a2.09 2.09 0 01-1-.17c-.24 0-.28.14-.26.23s-.13 0-.08.08.4 0 .51 0 0 .1 0 .15.08.06.06.12a.38.38 0 01-.45 0h-.52a.78.78 0 01-.21 0s-.08-.06-.13-.08a1.15 1.15 0 00-.46.05 3.5 3.5 0 01-.46.09h-.64c-.08 0 0 .07 0 .1s.32 0 .47.05.22 0 .31 0a1.54 1.54 0 00.25-.08h.23c.08 0 .27-.09.38 0s-.22.07-.17.14.13 0 .19.05a.11.11 0 010 .2c-.06 0-.05-.08-.11-.11a1.54 1.54 0 00-.67 0c-.08 0-.14.05-.21.07a3 3 0 01-.52 0c-.15 0-.35-.06-.48 0s0 .09-.06.13a.75.75 0 00-.06.12s0 .09-.06.12-.28.07-.35.14 0 .05 0 .1.1 0 .15.07-.06.09-.09.15a.57.57 0 000 .27v.13c0 .03.11 0 .14.06a.21.21 0 010 .18s0 .06-.06.09 0 .11 0 .15-.45.24-.28.32.25 0 .34-.08.25-.12.3-.17 0-.09.06-.14l.06-.07v-.12a1 1 0 01.23-.22c.11-.07.25-.13.38-.23s.06-.09.12-.12.25-.11.32-.15.05-.1.12-.13a.39.39 0 01.25 0s.05 0 .1.06.15 0 .19 0 0 .15.08.18a.94.94 0 00.27 0 1.15 1.15 0 00.27-.07c.05 0 .08-.06.13-.09a1.32 1.32 0 01.33-.09h.35c.13 0 .12-.06.18-.09s.35-.06.43-.12-.08-.13-.16-.2.24-.4.48-.36c.08 0 .12-.07.21-.1s.13 0 .18 0l.11-.07c.18-.09.46-.11.57-.2s.05-.15.13-.2.39-.09.5-.23-.09-.16-.18-.27-.19-.14-.27-.18zm7.84 4.33a.31.31 0 00-.29-.16.32.32 0 00.29.18zm-2-1c0-.05 0-.13-.12-.16s-.42.15-.33.24.16.07.21.14a.41.41 0 00.29-.09s0-.02-.03-.07zm.4.82c0-.06-.16 0-.25-.06s-.16-.11-.27-.09a.59.59 0 00.54.21zM37.87 34c-.34 0-.42.33-.64.44a.64.64 0 01-.39.05l-.12-.06-.18-.06c-.15-.09.2-.34 0-.45s-.35.14-.34.23.06.06.08.11-.19.27-.11.4a.31.31 0 00.14.12c.1 0 .3-.06.4 0s-.09.2 0 .29.16.06.2.09 0 .1-.1.19 0 .13 0 .17-.12 0-.15.06 0 .07 0 .13-.24.07-.16.13.19 0 .25-.06 0-.08.1-.11.24-.06.31-.09.15-.25.32-.34.17 0 .21-.07 0-.15.07-.21c-.18-.07-.34-.19-.22-.28s.39 0 .25-.15a.31.31 0 00-.26 0s0 .12-.13.1 0-.09.06-.13 0-.07 0-.1.54-.24.41-.4zm33.82-1.32a.3.3 0 01.1.3c0 .08-.15.29-.34.22a1 1 0 01-.23-.2c-.07-.1.08-.1.19-.15s.14-.16.28-.17z"/><path class="cls-7" d="M58.1 26l.4.12c0 .12-.2.21-.27.33s.06.13 0 .18-.13 0-.18.06 0 .23-.17.29c0 .08.26.14.17.21s-.2 0-.31 0a1.17 1.17 0 01-.31 0c-.07 0 0-.17-.05-.21s0-.17 0-.22.24-.13.29-.2-.08-.13-.07-.17.05-.05.07-.08 0-.21-.24-.27-.39 0-.41-.13a1.1 1.1 0 01.7 0c.07 0 .1.08.17.11zm-.94-.59v.23c0 .03-.21 0-.27.1s.05.07.1.12a.6.6 0 01-.36 0c-.05 0 0-.08-.07-.12s-.19-.06-.33-.09.39-.07.61-.16.16-.14.32-.08zm8.72 5.16c.08 0 0 .11-.11.09s.03-.11.11-.09zm-10.37-5.02c.13 0 .44-.09.39.05a.47.47 0 01-.39-.05zm8.99 5.4c0-.09 0-.22.26-.29.07.08-.06.16-.09.24s0 .17-.1.24h-.07c-.1-.06-.03-.14 0-.19zm-1.9-.78c.1-.06.16-.13.27-.15s-.29.24-.47.39 0 .06-.08.08a.11.11 0 010-.19c.06-.05.19-.08.28-.13zm.4.1c.13.06 0 .17 0 .25s.37.09.55.1.17.08.16.12-.55 0-.73 0 .45.26.22.34-.15-.08-.27-.13-.2 0-.27 0-.06-.1-.09-.14-.23-.14-.14-.19.21 0 .24 0 .12-.28.33-.35zm1 .92c0 .06-.17.14-.25.12s.13-.16.25-.12zm0 .21a.44.44 0 01-.26 0c0 .01.2-.04.26 0zm-2.27-.9a1.7 1.7 0 01.24 0c.06 0-.07.12 0 .17s.07 0 .16.1 0 .13 0 .2.25.13.24.22-.07.1-.14.14-.26 0-.38.1-.07.08-.12.1-.1 0-.17 0-.13.07-.18.08a.67.67 0 01-.27-.07h-.3c-.12 0-.47-.17-.35-.27s.16-.05.19-.08-.06-.11 0-.18.09-.07.13-.12a.18.18 0 000-.15s-.06-.1 0-.15.06-.08.07-.13-.1-.19-.12-.3.28-.07.36 0 .2 0 .29 0 0 .21.23.31zm1.84.92c0 .06-.2.11-.18.18a.35.35 0 01-.27.07c0-.05.09-.08.14-.12s.16-.19.31-.13zm-.57.33c0 .09-.16.12-.27.17l-.29.15c-.13.06-.31.09-.44.15s-.13.09-.2.12a1.44 1.44 0 01-.57.11c-.09 0 0-.14.16-.2s.42-.06.58-.2S62 32 62 32s.27-.08.38-.16.06 0 .11 0 .31-.12.51-.09zm-2.2.06c.22-.13.57.06.35.19s-.56-.06-.35-.19z"/><path class="cls-7" d="M60.44 32a.85.85 0 01.3 0c.06 0 0 .09 0 .15s.29.14.29.22-.09.08-.15.11a6.2 6.2 0 01-.81 0 2.32 2.32 0 01-.3 0c-.13 0-.24-.06-.37-.08s-.25 0-.37 0-.18-.06-.28-.07a2.19 2.19 0 00-.26 0h-.17c-.24 0-.52.08-.72 0 0-.06.11 0 .21-.08s.11-.07.16-.09a3 3 0 01.43 0h.52l.31-.06a1.32 1.32 0 01.56 0s.07.06.11.07a.87.87 0 00.21 0h.24c.07 0 .02-.17.09-.17zm-5.87 1.37c.1 0 .65 0 .75.13s0 .12-.09.17-.56-.15-.66-.27v-.03zm-.66 5.01l.15.05c.06 0 0 .1 0 .14a1.22 1.22 0 01.38.38c.08.11.2.21.27.31s0 .07 0 .1.31.26.26.37a.77.77 0 01-.17.18.56.56 0 01-.4 0 1.84 1.84 0 01-.17-.08 1.32 1.32 0 01-.26-.09c-.16-.11-.08-.26-.22-.35s-.28-.09-.38-.16-.13-.14-.12-.19.13-.14.16-.21a.34.34 0 000-.21c0-.06-.08-.09-.08-.13v-.1c0-.04-.07-.06-.07-.1s.47.02.65.09zm-15.32-6.3c-.12 0 .07-.13.13-.07s-.08.08-.13.07zm4.28 3.56c-.07 0 .06-.15.16-.14s-.03.17-.16.14zm-3.39 1.5c0-.09.26-.19.38-.26S40 37 40 37a1 1 0 01-.52.14zm-1.09.12c0-.14.18-.18.38 0 0 .06 0 .18-.14.16a1.19 1.19 0 00-.24-.16zm-.11-.26c.09 0 .09.07.07.11s-.26-.11-.07-.11zm-2.65-.26c.09 0 0 .13.13.17s-.26.21-.43.34-.08.16-.24.18 0-.08 0-.12-.11 0-.17 0 0-.11-.09-.16.1-.1 0-.15a.32.32 0 00-.22 0h-.46c-.07 0-.19-.08-.23-.13a.25.25 0 010-.21c0-.06.15-.09.13-.15h.05c.06 0 0 .06.06.09s.18-.07.27 0 0 .11.08.14a1.75 1.75 0 00.38 0h.46c.1.02.21-.03.28 0z"/><path class="cls-7" d="M34.37 37.11c.08 0 0 .08.07.13s.15.08.17.12-.06.08-.09.12-.15.28-.38.25c-.07-.05 0-.1-.05-.15s-.13 0-.18 0 0-.06.06-.12 0-.09 0-.15a.4.4 0 01.4-.2zm6.85 7.61c.34.17.21.37.28.57 0 0 .07.09.09.15s0 .19.22.31c.07 0 .16 0 .23.09a1.49 1.49 0 01.25.17s0 .1.09.13.11 0 .15.07a.53.53 0 01.1.16c.07.13.24.24.14.37s-.2.14-.27.22a1.37 1.37 0 00-.06.13c-.08.13-.19.31-.07.42s.31.11.44.21a.77.77 0 010 .14s.06.09.07.14 0 .13 0 .2l.1.07v.07l.07.07c0 .07.12.24.06.31s-.44.18-.54.26h.45a.48.48 0 01.19 0 .2.2 0 01.13.22.65.65 0 01-.17.19c-.05 0-.21.14-.2.18s.24.1.27.16-.24.14-.29.21a.34.34 0 00.24.05c.09 0 .12-.09.22-.07s0 .12.06.18.13 0 .18.08-.08.18 0 .24.44-.14.62 0 0 .12.09.19.08 0 .12.06 0 .1.07.13a1.3 1.3 0 00.43 0 2.37 2.37 0 00.43 0c.19 0 .35-.15.53-.11s0 .1 0 .16a.26.26 0 00-.13.08l-.12.07c-.17 0-.34.1-.53.16h-1.51a1.73 1.73 0 01-.46-.07c-.07 0-.05-.1-.14-.13s-.2.06-.29 0-.08-.09-.15-.12-.16 0-.18-.05.09-.05.11-.1c-.16 0-.33-.19-.49-.13 0 .07.24.06.17.14s-.27-.06-.4-.1a2.06 2.06 0 01-.25-.08 1.27 1.27 0 00-.12-.07c-.14-.06-.36 0-.49-.09s-.07-.08-.13-.12l-.13-.07s-.07-.08-.12-.11a2 2 0 00-.36-.18c-.12 0-.29 0-.41-.1l-.15-.09-.18-.06a1.21 1.21 0 01-.14-.1c-.1-.07-.26-.12-.36-.18l.02.14c-.09 0-.21-.08-.31-.13a4.45 4.45 0 00-.45-.24 2.8 2.8 0 00-.46-.15 2.75 2.75 0 00-.59 0l-.27.07a2.73 2.73 0 01-.83.08l-.18-.06h-.43c-.15 0-.57-.09-.85-.12s-.29 0-.42 0a1.28 1.28 0 01-.3 0 1.89 1.89 0 01-.33-.1c-.07-.05 0-.19-.06-.23s-.19 0-.26 0-.19-.13-.25-.23a.82.82 0 01-.07-.1v-.15c0-.06-.05-.07-.07-.11s0-.17 0-.23a2.21 2.21 0 00-.5-.28h-.27c-.08 0-.27-.09-.38 0s0 .11 0 .16.13.08.08.12-.24 0-.39.07l-.17.07h-.41c-.14 0-.16.07-.27.06a1 1 0 01-.19-.09h-.6c-.16 0-.21.09-.33.13h-.16A1.27 1.27 0 0129 48c-.25.05-.63 0-.83.08s-.08.15-.16.2a2 2 0 01-.43.13l-.43.12h-.31l-.2.07h-.31a.71.71 0 01-.31 0c-.07 0-.07-.11-.13-.15a1.46 1.46 0 00-.71-.14h-.48l-.12-.07h-.37a1.73 1.73 0 01-.39 0c-.12 0-.15-.13-.28-.16s-.36.12-.12.22a2.71 2.71 0 00.31 0c.08 0 .15.06.25.09s.22 0 .31 0 .29.12.4.14.27 0 .29.07-.18 0-.28 0a1 1 0 01-.29 0c-.06 0-.09-.09-.17-.11s-.4.09-.53 0 0-.11-.07-.15-.27 0-.37 0a2.18 2.18 0 01-.3-.13 2.49 2.49 0 00-.27-.13 1 1 0 00-.34 0c-.12 0-.16.07-.26.05a1.35 1.35 0 01-.29-.09c-.12-.05-.23-.12-.35-.18a2.31 2.31 0 01-.35-.19c0-.07 0-.14-.05-.22s-.1-.09-.13-.15a1.35 1.35 0 010-.36.83.83 0 00-.14-.36s-.09-.13-.15-.16-.32 0-.41 0 0-.09 0-.14a.67.67 0 00-.13-.1 2.28 2.28 0 01-.29-.13c-.06-.05 0-.14-.13-.15s-.11.12-.23.13-.1-.07-.19-.12h-.12s0-.11-.07-.11a1.82 1.82 0 00-.46 0 2.62 2.62 0 00-.49.23c-.13.05-.28 0-.37.09s0 .1-.06.17-.16.13-.23.19 0 .12-.13.16-.14 0-.23 0a1.32 1.32 0 00-.12.1 2.66 2.66 0 01-.51.3 3 3 0 01-.46.13c-.15 0-.4.11-.47.07s.07-.16.12-.22.09-.16.16-.21l.14-.06s.05-.08.1-.12.29-.17.16-.23-.4.31-.57.22 0-.15.09-.23a1.66 1.66 0 01.28-.23c.1-.06.34-.07.27-.17s-.2-.07-.29-.1.11-.17.2-.24a1.08 1.08 0 00.23-.24 1.05 1.05 0 01.23-.24c.1-.08.17-.17.26-.24s.16-.1.23-.16.09-.12.18-.17.14 0 .21-.06l.17-.09h.16c.07 0 .12-.09.19-.12l.21-.07c.15-.07.27-.17.42-.24l.19-.06.16-.09c.08 0 .2 0 .28-.07s.22-.2.34-.29a3 3 0 00.29-.19 1.83 1.83 0 01.21-.2l.14-.07s0-.09.09-.12.15 0 .23 0 .15-.09.23-.14.11-.11.21-.16.55-.12.59-.24 0 0-.06-.09-.06-.16-.18-.21c-.17.1-.24.25-.43.37s-.16-.15-.07-.27.05-.21.18-.31a2.55 2.55 0 01.43-.21c.09 0 .16-.1.22-.12s.24 0 .33 0l.14-.06c.09 0 .2-.05.22-.13s.14 0 .22 0 0-.12.05-.19.08 0 .12-.07.05-.16.19-.13 0 .11 0 .17a.21.21 0 00.09.17c.09 0 .18-.05.3 0s-.05.07-.08.12 0 .09 0 .13a3.33 3.33 0 01-.45.23h.22a1.13 1.13 0 00.44-.21c.09-.05.22-.1.24-.17s-.06-.09-.07-.13a.24.24 0 01.14-.19.3.3 0 01.18 0c.08 0-.05.1 0 .15s.21-.19.15-.23-.15 0-.2 0 0-.13-.08-.17-.11.08-.18.11a.86.86 0 01-.38 0s.1-.08.16-.11.05-.18.2-.28.1-.1.19-.08 0 .15.14.18 0-.16.05-.26a.62.62 0 01.09-.14s0-.11.08-.13.1 0 .16 0 .08-.07.15 0-.39.32-.3.48.18.17.33.17.17-.08.26-.06 0 .11.11.14.14-.15.18-.22.1-.18 0-.25-.23.12-.35.08a.24.24 0 01-.12-.14.7.7 0 01.39-.5l.16-.06c.16-.08.25-.23.43-.26s.21-.12.32-.21.26.06.47 0c.06 0 .1-.05.16-.08s.14 0 .21 0 .14-.06.2 0 0 .07.08.09.09 0 .15.05.2 0 .34-.07a.76.76 0 01.37 0v.18c0 .04-.08.15-.14.18s-.29 0-.4 0-.06.07 0 .11.25 0 .35 0 .07.11 0 .21a1.38 1.38 0 00-.3.09c0 .07.18 0 .22.07a1.2 1.2 0 01-.44.18 1.23 1.23 0 01-.15.06 1.82 1.82 0 01-.26 0 .8.8 0 00-.34.06c-.1.06-.12.23-.33.21s.28-.23.38-.38 0-.11 0-.16.21-.22.07-.28-.16 0-.24 0h-.43c-.11 0 0 .07-.09.11s-.28.11-.33.2.06 0 .07.1 0 .09 0 .13.09.08.08.12-.14.17-.2.24 0 .09-.06.11-.2 0-.24.07.23 0 .34 0a.87.87 0 01.35 0c.08.13-.19.1-.3.17s-.06.31-.35.27c-.08-.07 0-.15-.06-.22-.1.08-.1.21-.2.31s-.11.08-.14.12-.06.16-.13.25-.08.06-.11.1a1.47 1.47 0 00-.17.29 1.06 1.06 0 00-.11.28s0 .16.06.18.17 0 .23 0 0 .09.13.09.11-.06.2-.1a2.08 2.08 0 01.5-.09 1.78 1.78 0 00.38-.11c.13-.06.21-.17.32-.12s0 .14.07.17.09.1.16.14a.43.43 0 00.3 0 .18.18 0 00.07-.25c-.06-.08-.23-.15-.23-.24.41-.23.54-.55.09-.76a.92.92 0 01-.16-.07c-.06 0 0-.15-.1-.18.07-.09-.12-.19 0-.27s.28-.08.39-.17.05-.08.1-.1a1.3 1.3 0 01.36 0c.1 0 .14-.05.22 0s0 .11.12.15a.43.43 0 00.28 0 .36.36 0 00.16-.16c.06-.1 0-.25.1-.3a1.18 1.18 0 01.5.11c.11 0 .16.1.25.15s.33 0 .49-.05.12 0 .17 0h.23c.07 0 0 .17.22.26s0 .1 0 .14.23-.1.4-.08.1.06.16.12.28.08.16.15-.17 0-.26 0l-.16.08-.16.07c-.12.06-.2.14-.32.15a1.36 1.36 0 010-.44s.06-.11 0-.14-.16.1-.18.16a.5.5 0 01-.12.21c-.12.1-.37.17-.4.29s.17-.06.25 0a.27.27 0 01-.18.08h-.16a.82.82 0 00-.32.15c-.07.06-.1.14 0 .19s.23-.2.4-.15 0 .21.14.28a.46.46 0 00.26 0c.06 0 0-.07.08-.09s.1 0 .15 0 0-.16.07-.22c.25 0 .11.18 0 .28s-.23.23-.29.32 0 .28-.22.21 0-.11-.05-.17-.19.19-.27.28-.35.34-.19.47.13.05.13.08-.12.1-.15.14-.06.14-.1.18l-.1.08v.21c0 .09-.06.09-.06.12s.11.12.05.18-.13 0-.14.08.31.12.37.22a1.26 1.26 0 01-.12.33c0 .07-.08.11-.12.19s0 .13 0 .2-.14.34.12.48l.21.08.12.06c.1 0 .29.07.28.15a2.12 2.12 0 01-.49.12c-.11 0-.12-.11-.21-.15a.67.67 0 00-.33 0c-.06 0-.05.09-.11.12s-.22 0-.31.06-.18.14-.33.21 0 .21-.14.3-.15 0-.23.07a1.69 1.69 0 00-.28.13c-.13.09-.13.22-.19.33s-.13.23 0 .32.16.09.2.14a.63.63 0 010 .1.92.92 0 00.58.44 3.44 3.44 0 00.45.08 1 1 0 00.37-.08 1 1 0 00.15-.14 2 2 0 00.18-.15c.12-.14-.17-.27-.08-.43a.86.86 0 01.26-.22.39.39 0 01.23.06s0 .08.08.12.1.08.13.12 0 .11.06.15.08 0 .1.07 0 .11.1.12c.26-.07.38-.25.57-.33a.6.6 0 01.41 0c.08 0 .07.11.15.16s.19.17.28.22a1.11 1.11 0 00.76 0c.16-.1.09-.25.37-.32h.34c.07 0 0-.15 0-.22s-.12-.12-.08-.2.14-.11.21-.21a.38.38 0 00.06-.14s0-.11.08-.11 0 .11.16.12.06-.17.14-.23a1.32 1.32 0 01.26-.05 1.19 1.19 0 00.29 0c.06 0 .1-.08.18-.12s.23 0 .29-.07 0-.12.08-.17a.44.44 0 01.39-.1c.09 0 0-.1.09-.12s.13.05.22.07h.12c.08 0 .16 0 .26-.06a2.54 2.54 0 01.37 0 1.17 1.17 0 00.48-.08c.1-.05.14-.12.23-.16a1.75 1.75 0 01.62-.13 1 1 0 01.31 0l.19.07c.15 0 .36 0 .49.11a.78.78 0 00.26 0 1.27 1.27 0 00.25 0s.06 0 .09-.07a1.5 1.5 0 01.33-.1 2 2 0 01.21-.06h.26c.08 0 .1-.07.17-.1s.28-.09.37-.14.07-.07.12-.09c.22-.12.6 0 .88-.12.09 0 .17-.09.23-.11a1.24 1.24 0 01.37-.18zm-14.36-5.1s.06 0 0-.07-.08.07 0 .07zm-1.86.11h-.05s.05.02.05 0zm2.59 3.48a.58.58 0 00-.25.13s-.1.08-.06.11.41-.15.32-.24zm-.59.19c0-.07-.13-.11-.22-.08s0 .05-.09.08-.15 0-.19.05-.11.1-.1.13.1 0 .15 0 .23.17.32.13-.1-.2 0-.29.13.02.13-.02zm5.82 3.22c.06 0-.13-.12-.17-.05s.13.09.18.05zm-5.58-3c-.17 0-.2.16-.29.22s-.18.09-.07.14.17 0 .21-.1a.5.5 0 00.16-.21zm-1-.15c.09-.14-.34-.15-.44-.11s-.23.26-.34.38-.15.12-.09.18c.22 0 .21-.16.35-.22s.19 0 .26 0a2 2 0 00.22-.18zm0 .15c-.08 0-.22.14-.24.19s0 .19 0 .19v.15c0 .05.1.29.26.22s.06-.17 0-.2-.17-.22-.13-.33.18-.11.09-.17zm-3.74-1.61v-.08a2.35 2.35 0 00-.42.22c-.19 0-.34.05-.17.16s.28-.22.57-.25zm1.69 1.7c.09-.06-.14-.26-.26-.14s.07.28.24.19zm6.21 3.95c-.15-.01-.11.1-.02.05zm-8.5-4.23s.11-.07.06-.11a.58.58 0 00-.21 0c-.06 0 0 .09-.06.14s-.12.13-.06.17a.6.6 0 00.25-.15zm-.68-.33s.13-.06.11-.11c-.24-.08-.37.14-.51.24 0 0 0 .1.09.15s.18-.13.29-.22zm-.32 3.2s-.15-.06-.17 0a.16.16 0 00.15.05zm-1.53-.57s-.06 0 0 0-.01.08-.02.06z"/><path class="cls-7" d="M26.26 39.71c.1 0 0 .24-.17.19s0-.21.17-.19zM46 50.91l-.1.09a.26.26 0 01.1-.09zM25 39.76h.05c.05 0 0 0 0 .05zm.62 1.24c.05 0 0 .17-.15.13s0 0 0-.06a.19.19 0 01.15-.07zm4.74 6.68c-.07.08-.11-.03 0 0zm-9.66-1.33c0-.06.17 0 .17 0a.16.16 0 01-.17 0zm-1.39-.58h-.07c-.07 0 .04.02.07 0zm.27.45v.13h-.09c-.09-.05-.04-.15.09-.13z"/><path d="M58.15 17.38a1.69 1.69 0 00-.65-.21 2.87 2.87 0 00-1.74.45 5.53 5.53 0 00-1.07.82 8 8 0 00-1.9 2.93 6.12 6.12 0 00-.41 2.09c0 1.42 1.46 3.79 2.47 5.25.5.73.89 1.23.91 1.27s3.38-8.26 3.38-10.42a2.37 2.37 0 00-.99-2.18zm-2.39 6c-.81.47-1.49.26-1.74-.44a1.87 1.87 0 01-.09-.62 4 4 0 011.83-3.17 1.82 1.82 0 01.58-.23c.73-.14 1.25.35 1.25 1.28a4 4 0 01-1.83 3.18z" fill="#d24a43"/><path d="M57.59 20.21a4 4 0 01-1.83 3.17c-.81.47-1.49.26-1.74-.44a1.83 1.83 0 00.58-.23 4 4 0 001.83-3.17 1.87 1.87 0 00-.09-.62c.73-.14 1.25.35 1.25 1.29z" fill="#ba362f"/><path d="M58.15 17.38a1.69 1.69 0 00-.65-.21 2.87 2.87 0 00-1.74.45 5.53 5.53 0 00-1.07.82 8 8 0 00-1.9 2.93 6.12 6.12 0 00-.41 2.09c0 1.42 1.46 3.79 2.47 5.25.5.73.89 1.23.91 1.27l-1.15-.67S51.23 25 51.23 22.8a7.46 7.46 0 013.38-5.8 2.37 2.37 0 012.39-.28z" fill="#e04f48"/><path class="cls-11" d="M35.39 42.22h-.92v-.41h1v.42zm1.76-.09v-.41a14.63 14.63 0 002-.32l.1.41a15.13 15.13 0 01-2.1.32zm3.59-.83l-.16-.39a7 7 0 001.7-1l.26.33a7.37 7.37 0 01-1.8 1.06zm2.94-2.25l-.35-.23A4.69 4.69 0 0044 37l.41.07a5.11 5.11 0 01-.73 1.99zm.91-3.55l-.41-.05a6.25 6.25 0 01.58-2l.37.18a5.84 5.84 0 00-.54 1.87zM46 32.36l-.31-.27a7.66 7.66 0 011.57-1.34l.23.35A7.27 7.27 0 0046 32.36zm2.88-2L48.7 30a13.65 13.65 0 011.93-.68l.11.4a13.21 13.21 0 00-1.87.62zm3.44-1.03l-.07-.41c.64-.1 1-.13 1.05-.13v.42s-.37.02-.98.12z"/><path fill="#f2c799" d="M30.27 40.93l-6.29-3.63 6.29-3.64 6.29 3.64-6.29 3.63z"/><path class="cls-13" d="M33.1 39.3l-6.3-3.64.65-.37 6.29 3.64-.64.37z"/><path class="cls-14" d="M33.4 39.12l-6.29-3.63.03-.02 6.3 3.63-.04.02z"/><path fill="#e6bd91" d="M30.27 48.2l-6.29-3.64V37.3l6.29 3.63v7.27z"/><path fill="#d9b389" d="M36.56 44.56l-6.29 3.64v-7.27l6.29-3.63v7.26z"/><path class="cls-13" d="M33.74 38.93v7.26l-.64.38V39.3l.64-.37z"/><path class="cls-14" d="M33.44 39.1v7.27l-.04.02v-7.27l.04-.02z"/><path class="cls-17" d="M25.6 44.7l-.81-.47v-.12l.81.46v.13z"/><path class="cls-17" d="M25.07 44.27l-.07-.04v-.63l.07.03v.64zm.37.21l-.06-.03v-.64l.06.04v.63z"/><path class="cls-17" d="M25.04 43.28l.07.38-.15-.09.08-.29zm.29.51l.08-.3.08.39-.16-.09zm3.92 2.91l.04.02v-1.08l-.04-.02v1.08zm-.18-.1l.12.07v-1.08l-.12-.07v1.08zm-.11-.06l.08.05V45.5l-.08-.04v1.08zm-.15-.09l.12.07v-1.08l-.12-.07v1.08zm-.13-.07l.12.07v-1.09l-.12-.07v1.09zm-.12-.07l.1.05v-1.08l-.1-.06v1.09zm-.12-.07l.08.04V45.2l-.08-.05v1.09zm-.11-.07l.04.03v-1.09l-.04-.02v1.08zm-.15-.08l.08.04v-1.08l-.08-.05v1.09zm-.11-.07l.04.03v-1.09l-.04-.02v1.08zm-.16-.09l.1.06V44.9l-.1-.05v1.08zm-.1-.06l.04.03v-1.09l-.04-.02v1.08zm7.25-1.73h.18l.16-.42a.3.3 0 01.05-.08l-.23.14a.2.2 0 00-.05.09zm.32-.28v.13l.19-.11.09-.24v.05-.06a.11.11 0 00-.07.05v.05zm.15.2l.11.15.1-.06a.15.15 0 000-.11l-.09-.12zm-.12.43l.1.15v-.08l.12-.07.1-.27h-.06l-.22.12v-.06zm-.29.05l-.05.13a.18.18 0 000 .07h.06l.19-.11v-.24z"/><path class="cls-17" d="M34.91 44.36H35v.22l.12.16a.19.19 0 010-.1l.11-.27h.06l-.1-.14z"/><path fill="#f4f4f4" d="M26.6 41.31l-1.99-1.15v-1.2l1.99 1.15v1.2z"/><path class="cls-19" d="M26.5 40.38l-1.79-1.03v-.18l1.79 1.04v.17zm0 .36l-1.79-1.03v-.18l1.79 1.03v.18zm-.65-.01l-1.14-.66v-.18l1.14.66v.18z"/><path class="cls-11" d="M49.22 47.46l-1.85-1.07-.66.38-.38-.22 1.77-1 .38.22-.66.38 1.85 1.07zm1.4-.81l-2.23-1.29.95-.55a2.54 2.54 0 01.58-.26 1.22 1.22 0 01.47 0 1.2 1.2 0 01.45.15.45.45 0 01.27.32c0 .12-.07.24-.23.37a2.47 2.47 0 01.43 0 6 6 0 01.62.06l.71.09-.54.31-.81-.09-.56-.05a.8.8 0 00-.23 0 1.16 1.16 0 00-.25.12l-.09.05.93.54zm-.84-1l.33-.19a2.05 2.05 0 00.38-.25.13.13 0 000-.13.25.25 0 00-.09-.08.52.52 0 00-.24-.07.6.6 0 00-.26 0l-.34.18-.35.2zm5.09-1.45l-.49.28-.7-.18-.89.51.32.4-.48.28-1.35-1.79.48-.27zm-1.71 0L52 43.87l.53.65zm2.56-1.44l.57-.17a.55.55 0 01.21.5.78.78 0 01-.41.44 2 2 0 01-1 .25 2.28 2.28 0 01-1.11-.31q-.56-.32-.58-.66t.45-.61a1.84 1.84 0 01.9-.24 2 2 0 01.64.11l-.34.32a1.07 1.07 0 00-.44-.06.92.92 0 00-.4.12q-.25.14-.22.33t.42.42a1.72 1.72 0 00.75.26 1 1 0 00.57-.12.33.33 0 00.19-.24.4.4 0 00-.2-.34zm1.64 0l-2.23-1.29.45-.26 1 .57-.08-1.09.6-.35v1l2.24.27-.58.34-1.66-.25v.43l.67.39zm2.23-1.29l-2.23-1.29.45-.26 2.19 1.3zm.88-.47l-2.23-1.29.44-.25 2.4.33-1.49-.86.42-.24 2.23 1.29-.45.26-2.35-.32 1.45.84zm2.46-2.4l-.38-.22 1-.56.89.51a.69.69 0 01-.17.38 1.46 1.46 0 01-.44.37 2.19 2.19 0 01-.76.27 2.24 2.24 0 01-.81 0 2.38 2.38 0 01-.72-.27 1.17 1.17 0 01-.47-.44.48.48 0 010-.49 1.09 1.09 0 01.42-.37 2 2 0 01.82-.27 1.79 1.79 0 01.78.1l-.36.31a1.1 1.1 0 00-.44 0 1 1 0 00-.42.13q-.29.17-.28.38t.38.42a1.66 1.66 0 00.77.24 1.21 1.21 0 00.66-.15.75.75 0 00.23-.2.57.57 0 00.11-.22l-.28-.16z"/><path d="M44 15l-4 .48L21.79 26c-.73.42-1.32.07-1.32-.76v-11A2.93 2.93 0 0121.79 12L41.6.54c.73-.42 1.32-.07 1.32.76v11.13z" fill="#e8e8e8"/><path d="M42.53.45a.68.68 0 00-.36-.09 1.2 1.2 0 00-.57.18L21.79 12a2.93 2.93 0 00-1.32 2.28v11a1.2 1.2 0 00.13.58.69.69 0 00.26.27l-.62-.36a.92.92 0 01-.39-.85v-11a2.93 2.93 0 011.32-2.28L41 .18a.93.93 0 01.93-.09z" fill="#cfcfcf"/><path class="cls-19" d="M35.19 9.07l-12.85 7.42v-1.28l12.85-7.42v1.28zm0 2.56l-12.85 7.42v-1.28l12.85-7.42v1.28zm-4.61 5.23l-8.24 4.76v-1.28l8.24-4.76v1.28z"/></g></g></svg>