<svg xmlns="http://www.w3.org/2000/svg" viewBox="0 0 91.51 82.56"><defs><clipPath id="clip-path"><path class="cls-1" d="M84.43 40.95a3.81 3.81 0 00-.55 1.84 1 1 0 001.63.94 4.18 4.18 0 001.87-3.25 1 1 0 00-1.63-.94 3.81 3.81 0 00-1.32 1.41z"/></clipPath><clipPath id="clip-path-2"><path class="cls-1" d="M75.84 45.91a3.81 3.81 0 00-.55 1.84 1 1 0 001.63.94 4.18 4.18 0 001.87-3.25 1 1 0 00-1.63-.94 3.81 3.81 0 00-1.32 1.41z"/></clipPath><clipPath id="clip-path-3"><path class="cls-1" d="M50.33 60.64a3.81 3.81 0 00-.55 1.84 1 1 0 001.63.94 4.18 4.18 0 001.87-3.25 1 1 0 00-1.63-.94 3.81 3.81 0 00-1.32 1.41z"/></clipPath><clipPath id="clip-path-4"><path class="cls-1" d="M28.2 73.41a3.81 3.81 0 00-.55 1.84 1 1 0 001.63.94A4.18 4.18 0 0031.15 73a1 1 0 00-1.63-1 3.81 3.81 0 00-1.32 1.41z"/></clipPath><style>.cls-1{fill:none}.cls-2{fill:#828282}.cls-3{fill:#3e3e3e}.cls-4{fill:#6b6b6b}.cls-5{fill:#545454}.cls-6{fill:#2a2a2a}.cls-7{fill:#b3b3b3}.cls-8{fill:#999}.cls-10{fill:#3a3a3a}.cls-12{fill:#373737}.cls-13{fill:#262626}.cls-14{fill:#afafaf}.cls-17{fill:#4e8bff}.cls-18{fill:#ddd}.cls-19{fill:#c7c7c7}.cls-20{fill:#f4f4f4}.cls-21{fill:#3965ba}.cls-22{fill:#6399ff}</style></defs><g id="Слой_2" data-name="Слой 2"><g id="Layer_2" data-name="Layer 2"><path class="cls-2" d="M36.14 63.11l54.84-31.66L73.05 21.1 18.2 52.77l17.94 10.34z"/><path class="cls-3" d="M72.88 25.18l17.93 10.35v-1.44L72.88 23.74v1.44z"/><path class="cls-4" d="M90.81 35.53l.17-.1v-1.44l-.17.1v1.44z"/><path class="cls-5" d="M90.98 33.99l-.17.1-17.93-10.35.17-.1 17.93 10.35zM1.36 53.74l1.51.87v-3.17l-1.51-.87v3.17z"/><path class="cls-2" d="M1.36 50.57l.26-.15 1.51.87-.26.15-1.51-.87z"/><path class="cls-3" d="M2.87 54.61l.26-.15v-3.17l-.26.15v3.17z"/><path class="cls-3" d="M2.15 52.74a.15.15 0 01-.15-.15v-3a.15.15 0 01.23-.13l1.24.72a.15.15 0 01-.15.26l-1-.59v2.72a.15.15 0 01-.17.17zM.78 67.46l6.29-3.63-.78-.45L0 67.01l.78.45z"/><path class="cls-6" d="M83 46.23a1.91 1.91 0 01-.64-.62 3.3 3.3 0 01-.45-1.81 8.28 8.28 0 013.75-6.49 3.29 3.29 0 011.79-.51 1.89 1.89 0 01.86.25l-2.91-1.66a2.63 2.63 0 00-2.65.26A8.28 8.28 0 0079 42.14a2.63 2.63 0 001.1 2.43z"/><path class="cls-3" d="M85.63 46a8.28 8.28 0 003.75-6.49 2.64 2.64 0 00-1.1-2.43 1.89 1.89 0 00-.86-.25 3.29 3.29 0 00-1.79.51 8.28 8.28 0 00-3.75 6.49 3.3 3.3 0 00.45 1.81 1.91 1.91 0 00.64.62 2.63 2.63 0 002.66-.26z"/><path class="cls-7" d="M87.74 40.42c0-1.34-.95-1.89-2.11-1.22a4.67 4.67 0 00-2.11 3.66c0 1.34.95 1.89 2.11 1.22a4.67 4.67 0 002.11-3.66z"/><path class="cls-2" d="M86.92 39.41a.86.86 0 00-.57-.09 1.78 1.78 0 00-.6.23 4.19 4.19 0 00-1.87 3.25 1.78 1.78 0 00.1.63.86.86 0 00.36.45 1.17 1.17 0 001.17-.14 4.17 4.17 0 001.87-3.25 1.17 1.17 0 00-.46-1.08z"/><path class="cls-8" d="M86.35 39.32a1.78 1.78 0 00-.6.23 4.19 4.19 0 00-1.87 3.25 1.78 1.78 0 00.1.63 1.7 1.7 0 00.6-.23 4.17 4.17 0 001.87-3.2 1.71 1.71 0 00-.1-.68z"/><g clip-path="url(#clip-path)"><path class="cls-6" d="M84.65 42.57a.47.47 0 01-.16-.15.81.81 0 01-.11-.44 2 2 0 01.91-1.58.8.8 0 01.44-.12.46.46 0 01.21.06l-.7-.41a.64.64 0 00-.65.06 2 2 0 00-.91 1.58.64.64 0 00.27.59z"/><path class="cls-10" d="M85.29 42.5a2 2 0 00.91-1.58.64.64 0 00-.27-.59.46.46 0 00-.21-.06.8.8 0 00-.44.12 2 2 0 00-.9 1.61.81.81 0 00.11.44.47.47 0 00.16.15.64.64 0 00.64-.09z"/><path class="cls-5" d="M85.71 40.72a.3.3 0 00-.14 0 .55.55 0 00-.25.08 1.32 1.32 0 00-.59 1 .53.53 0 00.06.26.32.32 0 00.1.1.42.42 0 00.42 0 1.32 1.32 0 00.59-1 .42.42 0 00-.19-.44z"/><path class="cls-4" d="M85.55 40.68a.55.55 0 00-.25.08 1.32 1.32 0 00-.59 1 .53.53 0 00.06.26A.54.54 0 0085 42a1.31 1.31 0 00.59-1 .54.54 0 00-.04-.32z"/></g><path class="cls-6" d="M74.39 51.19a1.92 1.92 0 01-.64-.62 3.3 3.3 0 01-.45-1.81 8.28 8.28 0 013.7-6.48 3.29 3.29 0 011.79-.51 1.89 1.89 0 01.86.25l-2.88-1.66a2.63 2.63 0 00-2.65.26 8.28 8.28 0 00-3.75 6.49 2.63 2.63 0 001.1 2.43z"/><path class="cls-3" d="M77 50.93a8.28 8.28 0 003.75-6.49A2.64 2.64 0 0079.69 42a1.89 1.89 0 00-.86-.25 3.29 3.29 0 00-1.79.51 8.28 8.28 0 00-3.75 6.49 3.3 3.3 0 00.45 1.81 1.92 1.92 0 00.64.62 2.63 2.63 0 002.62-.25z"/><path class="cls-7" d="M79.15 45.38c0-1.34-.95-1.89-2.11-1.22a4.67 4.67 0 00-2.11 3.66c0 1.34.95 1.89 2.11 1.22a4.67 4.67 0 002.11-3.66z"/><path class="cls-2" d="M78.33 44.37a.86.86 0 00-.57-.09 1.78 1.78 0 00-.6.23 4.19 4.19 0 00-1.87 3.25 1.78 1.78 0 00.1.63.86.86 0 00.36.45 1.17 1.17 0 001.17-.14 4.17 4.17 0 001.87-3.25 1.17 1.17 0 00-.46-1.08z"/><path class="cls-8" d="M77.76 44.28a1.78 1.78 0 00-.6.23 4.19 4.19 0 00-1.87 3.25 1.78 1.78 0 00.1.63 1.71 1.71 0 00.6-.23 4.17 4.17 0 001.87-3.25 1.71 1.71 0 00-.1-.63z"/><g clip-path="url(#clip-path-2)"><path class="cls-6" d="M76.06 47.53a.47.47 0 01-.16-.15.81.81 0 01-.11-.44 2 2 0 01.91-1.58.8.8 0 01.44-.12.46.46 0 01.21.06l-.7-.41a.64.64 0 00-.65.06 2 2 0 00-.91 1.58.64.64 0 00.27.59z"/><path class="cls-10" d="M76.7 47.46a2 2 0 00.91-1.58.64.64 0 00-.27-.59.46.46 0 00-.21-.06.8.8 0 00-.44.12 2 2 0 00-.91 1.58.81.81 0 00.11.44.47.47 0 00.16.15.64.64 0 00.65-.06z"/><path class="cls-5" d="M77.12 45.68a.3.3 0 00-.14 0 .55.55 0 00-.25.08 1.32 1.32 0 00-.59 1 .53.53 0 00.06.26.32.32 0 00.1.1.42.42 0 00.42 0 1.32 1.32 0 00.59-1 .42.42 0 00-.19-.44z"/><path class="cls-4" d="M77 45.64a.55.55 0 00-.25.08 1.32 1.32 0 00-.59 1 .53.53 0 00.06.26.54.54 0 00.25-.08 1.31 1.31 0 00.59-1 .54.54 0 00-.06-.26z"/></g><path class="cls-12" d="M91.51 37.41l-1 .57A2.55 2.55 0 0087 36.81c-.14 0-.34.15-.51.23l-.31.16-8.85 5.11s-.56.35-.82.56A10.89 10.89 0 0073 48.08l-1 .57a13 13 0 014.49-6.87c.27-.2.82-.54.82-.54l8.85-5.11s.56-.3.82-.41a3.52 3.52 0 013.16 0 3.11 3.11 0 011.37 1.69z"/><path class="cls-13" d="M90.17 35.74a3.52 3.52 0 00-3.16 0c-.27.11-.82.41-.82.41l-8.85 5.11s-.56.35-.82.54A13 13 0 0072 48.66l-4.16-2.4a13 13 0 014.49-6.87c.27-.2.82-.54.82-.54L82 33.72s.56-.3.82-.41a3.52 3.52 0 013.16 0z"/><path class="cls-2" d="M51.73 54.24l6.26 3.61V52.7l-6.26-3.61v5.15z"/><path class="cls-6" d="M55.96 58.18l-4.17-2.4 3.36-.12 1.22 1.66-.41.86zM33.88 70.93l-4.17-2.41 3.36-.11 1.22 1.65-.41.87z"/><path class="cls-14" d="M70.49 50.63l-12.5 7.22V52.7l12.5-7.22v5.15z"/><path class="cls-5" d="M59.81 51.65l-.91.53v5.14l.91-.52v-5.15zm3.26-1.88l-.91.53v5.14l.91-.52v-5.15zm3.26-1.88l-.92.53v5.14l.92-.52v-5.15zm3.25-1.88l-.91.52v5.15l.91-.52v-5.15z"/><path class="cls-6" d="M48.88 65.92a1.92 1.92 0 01-.64-.62 3.3 3.3 0 01-.45-1.81A8.28 8.28 0 0151.53 57a3.29 3.29 0 011.79-.51 1.89 1.89 0 01.86.25l-2.88-1.66a2.63 2.63 0 00-2.65.26 8.28 8.28 0 00-3.75 6.49 2.63 2.63 0 001.1 2.43z"/><path class="cls-10" d="M51.53 65.66a8.28 8.28 0 003.75-6.49 2.64 2.64 0 00-1.1-2.43 1.89 1.89 0 00-.86-.25 3.29 3.29 0 00-1.79.51 8.28 8.28 0 00-3.75 6.49 3.3 3.3 0 00.45 1.81 1.92 1.92 0 00.64.62 2.63 2.63 0 002.66-.26z"/><path class="cls-7" d="M53.64 60.11c0-1.34-.95-1.89-2.11-1.22a4.67 4.67 0 00-2.11 3.66c0 1.34.95 1.89 2.11 1.22a4.67 4.67 0 002.11-3.66z"/><path class="cls-2" d="M52.81 59.1a.86.86 0 00-.57-.09 1.78 1.78 0 00-.6.23 4.19 4.19 0 00-1.87 3.25 1.78 1.78 0 00.1.63.86.86 0 00.36.45 1.17 1.17 0 001.17-.14 4.17 4.17 0 001.87-3.25 1.17 1.17 0 00-.46-1.08z"/><path class="cls-8" d="M52.25 59a1.78 1.78 0 00-.6.23 4.19 4.19 0 00-1.87 3.25 1.78 1.78 0 00.1.63 1.71 1.71 0 00.6-.23 4.17 4.17 0 001.87-3.25 1.71 1.71 0 00-.1-.63z"/><g clip-path="url(#clip-path-3)"><path class="cls-6" d="M50.55 62.25a.47.47 0 01-.16-.15.81.81 0 01-.11-.44 2 2 0 01.91-1.58.8.8 0 01.44-.12.46.46 0 01.21.06l-.7-.41a.64.64 0 00-.65.06 2 2 0 00-.91 1.58.64.64 0 00.27.59z"/><path class="cls-10" d="M51.19 62.19a2 2 0 00.91-1.58.64.64 0 00-.27-.59.46.46 0 00-.21-.06.8.8 0 00-.44.12 2 2 0 00-.91 1.58.81.81 0 00.11.44.47.47 0 00.16.15.64.64 0 00.65-.06z"/><path class="cls-5" d="M51.61 60.41a.3.3 0 00-.14 0 .55.55 0 00-.25.08 1.32 1.32 0 00-.59 1 .53.53 0 00.06.26.32.32 0 00.1.1.42.42 0 00.42 0 1.32 1.32 0 00.59-1 .42.42 0 00-.19-.44z"/><path class="cls-4" d="M51.44 60.37a.55.55 0 00-.25.08 1.32 1.32 0 00-.59 1 .53.53 0 00.06.26.54.54 0 00.25-.08 1.31 1.31 0 00.59-1 .54.54 0 00-.06-.26z"/></g><path class="cls-12" d="M46.09 63l1-.57a10.93 10.93 0 013.49-5.21 7.18 7.18 0 01.82-.56c1.52-.88 2.87-.83 3.73 0a3 3 0 01.87 1.52l1-.11a3.47 3.47 0 00-1.85-3 4.13 4.13 0 00-3.73.52 8.39 8.39 0 00-.82.55A13 13 0 0046.09 63z"/><path class="cls-6" d="M26.75 78.69a1.92 1.92 0 01-.64-.62 3.3 3.3 0 01-.45-1.81 8.28 8.28 0 013.75-6.49 3.29 3.29 0 011.79-.51 1.89 1.89 0 01.86.25l-2.88-1.66a2.63 2.63 0 00-2.65.26 8.28 8.28 0 00-3.75 6.49 2.63 2.63 0 001.09 2.4z"/><path class="cls-10" d="M29.4 78.43a8.28 8.28 0 003.75-6.49A2.63 2.63 0 0032 69.52a1.89 1.89 0 00-.86-.25 3.29 3.29 0 00-1.79.51 8.28 8.28 0 00-3.75 6.49 3.3 3.3 0 00.45 1.81 1.92 1.92 0 00.64.62 2.63 2.63 0 002.71-.27z"/><path class="cls-7" d="M31.51 72.89c0-1.34-.95-1.89-2.11-1.22a4.67 4.67 0 00-2.11 3.66c0 1.34.95 1.89 2.11 1.22a4.67 4.67 0 002.11-3.66z"/><path class="cls-2" d="M30.69 71.87a.86.86 0 00-.57-.09 1.78 1.78 0 00-.6.23 4.19 4.19 0 00-1.87 3.25 1.78 1.78 0 00.1.63.86.86 0 00.36.45 1.17 1.17 0 001.17-.14 4.17 4.17 0 001.87-3.2 1.17 1.17 0 00-.46-1.13z"/><path class="cls-8" d="M30.12 71.78a1.78 1.78 0 00-.6.23 4.19 4.19 0 00-1.87 3.25 1.78 1.78 0 00.1.63 1.71 1.71 0 00.6-.23 4.17 4.17 0 001.87-3.25 1.71 1.71 0 00-.1-.63z"/><g clip-path="url(#clip-path-4)"><path class="cls-6" d="M28.42 75a.47.47 0 01-.16-.15.8.8 0 01-.11-.44 2 2 0 01.91-1.58.8.8 0 01.44-.12.46.46 0 01.21.06l-.7-.41a.64.64 0 00-.65.06 2 2 0 00-.91 1.58.64.64 0 00.27.59z"/><path class="cls-10" d="M29.06 75a2 2 0 00.94-1.62.64.64 0 00-.27-.59.46.46 0 00-.21-.06.8.8 0 00-.44.12 2 2 0 00-.91 1.58.8.8 0 00.11.44.47.47 0 00.16.15.64.64 0 00.62-.02z"/><path class="cls-5" d="M29.48 73.18a.29.29 0 00-.14 0 .55.55 0 00-.25.08 1.32 1.32 0 00-.59 1 .53.53 0 00.06.26.32.32 0 00.1.1.42.42 0 00.42 0 1.32 1.32 0 00.59-1 .42.42 0 00-.19-.44z"/><path class="cls-4" d="M29.32 73.15a.55.55 0 00-.25.08 1.32 1.32 0 00-.59 1 .53.53 0 00.06.26.54.54 0 00.25-.08 1.31 1.31 0 00.59-1 .55.55 0 00-.06-.26z"/></g><path class="cls-17" d="M46.09 63.58l-12.21 7.05-.83-3.53 15.5-8.95-2.46 5.43z"/><path class="cls-17" d="M90.98 31.45L36.14 63.11v2.21l54.84-31.67v-2.2z"/><path class="cls-14" d="M38.71 40.53v21.09L20.77 51.27V30.18l17.94 10.35z"/><path class="cls-18" d="M38.71 61.62l52.27-30.17v-21.1L38.71 40.53v21.09z"/><path class="cls-19" d="M40.69 41.91v16.25l2.1-1.16V40.7z"/><path class="cls-18" d="M40.69 41.91v15.56l1.57-.9V41l-1.57.91z"/><path class="cls-19" d="M44.85 39.51v16.25L47 54.55V38.3z"/><path class="cls-18" d="M44.85 39.51v15.56l1.57-.9V38.6l-1.57.91z"/><path class="cls-19" d="M49 37.11v16.25l2.11-1.21V35.89z"/><path class="cls-18" d="M49.01 37.11v15.56l1.58-.91V36.2l-1.58.91z"/><path class="cls-19" d="M53.17 34.71V51l2.11-1.21v-16.3z"/><path class="cls-18" d="M53.17 34.71v15.56l1.58-.91V33.79l-1.58.92z"/><path class="cls-19" d="M57.33 32.3v16.25l2.11-1.21V31.09z"/><path class="cls-18" d="M57.33 32.3v15.56l1.58-.9V31.39l-1.58.91z"/><path class="cls-19" d="M61.49 29.9v16.25l2.11-1.21V28.69z"/><path class="cls-18" d="M61.49 29.9v15.56l1.58-.9V28.99l-1.58.91z"/><path class="cls-19" d="M65.65 27.5v16.25l2.11-1.21V26.28z"/><path class="cls-18" d="M65.65 27.5v15.56l1.58-.91V26.59l-1.58.91z"/><path class="cls-19" d="M69.81 25.1v16.25l2.11-1.21V23.88z"/><path class="cls-18" d="M69.81 25.1v15.56l1.58-.91V24.18l-1.58.92z"/><path class="cls-19" d="M74 22.7v16.24l2.11-1.21V21.48z"/><path class="cls-18" d="M73.97 22.7v15.55l1.58-.9V21.78l-1.58.92z"/><path class="cls-19" d="M78.14 20.29v16.25l2.11-1.21V19.08z"/><path class="cls-18" d="M78.14 20.29v15.56l1.57-.9V19.38l-1.57.91z"/><path class="cls-19" d="M82.3 17.89v16.25l2.11-1.21V16.67z"/><path class="cls-18" d="M82.3 17.89v15.56l1.57-.91V16.98l-1.57.91z"/><path class="cls-19" d="M86.46 15.49v16.25l2.11-1.21V14.27z"/><path class="cls-18" d="M86.46 15.49v15.56l1.57-.91V14.57l-1.57.92z"/><path class="cls-20" d="M38.71 40.53l52.27-30.18L73.05 0 20.77 30.18l17.94 10.35z"/><path class="cls-17" d="M36.14 50.42V67L33 68.79a4.19 4.19 0 00-3.73.35 7.11 7.11 0 00-.82.56A10.91 10.91 0 0025 74.76h-1l-5.29 3.05v-7.22l2.6-10 .5-1.92L33 52.21z"/><path class="cls-3" d="M23.69 66.73L21 68.26c-.21.12-.36 0-.3-.3l1.63-7a.7.7 0 01.3-.43l5.1-2.94c.17-.1.31 0 .31.18v3.15a.68.68 0 01-.15.39l-4.08 5.3a.58.58 0 01-.12.12z"/><path class="cls-4" d="M21 68a.1.1 0 010-.1l1.63-7a.23.23 0 01.1-.14l5.1-2.94c.06 0 .1 0 .1.06V61a.22.22 0 010 .13l-4.08 5.3-.06.05z"/><path class="cls-3" d="M26.85 68.48l1-.59a.46.46 0 00.21-.36v-.67c0-.13-.09-.19-.21-.12l-.8.46a.46.46 0 00-.19.27l-.22.8c-.04.18.06.29.21.21z"/><path class="cls-21" d="M20 77.16v-7.9l2.16-9 6.41-3.7v11.35a12.88 12.88 0 00-4.47 6.84zm.12-7.88V77L24 74.72a13 13 0 014.48-6.87V56.79l-6.2 3.58z"/><path class="cls-3" d="M34.9 70.83l-1 .11a3 3 0 00-.9-1.53 2.25 2.25 0 00-.44-.32 3.32 3.32 0 00-3.29.35 7.18 7.18 0 00-.82.56A10.91 10.91 0 0025 75.06v.15l-1 .57c.06-.24.13-.48.21-.72a13 13 0 014.28-6.15 8.38 8.38 0 01.82-.55 4.13 4.13 0 013.69-.52 3.47 3.47 0 011.9 2.99z"/><path class="cls-17" d="M36.14 46.79v3.63l-14.32 8.27.56-1.69a7.38 7.38 0 013-4z"/><path class="cls-5" d="M19.5 78.26v4.3l6.28-3.64v-4.29l-6.28 3.63z"/><path class="cls-12" d="M20.13 79.82l3.64-2.1v-1.39l-3.64 2.09v1.4zm0 1.82l3.64-2.1v-1.4l-3.64 2.1v1.4z"/><path class="cls-5" d="M16.11 77.81v4.29l-2.17-1.25L.26 72.96v-4.29l13.68 7.89 2.17 1.25z"/><path class="cls-22" d="M.78 67.46l17.94 10.35V70.6L.78 60.25v7.21z"/><path class="cls-3" d="M.26 68.67l15.85 9.14 3.39.45L0 67.01l.26 1.66z"/><path class="cls-22" d="M3.88 48.34l17.94 10.35-3.1 11.91L.78 60.25l3.1-11.91z"/><path class="cls-3" d="M21.17 60l-2.54 9.75a.3.3 0 01-.44.18L1.33 60.22a.3.3 0 01-.14-.34l2.54-9.75a.3.3 0 01.44-.18L21 59.67a.3.3 0 01.17.33z"/><path class="cls-2" d="M20.82 60.15l-.5 1.92-1.89 7.23a.3.3 0 01-.44.18l-6.55-3.78L6.71 63 2.3 60.43l-.63-.36a.3.3 0 01-.14-.34l.36-1.38 2-7.77a.3.3 0 01.44-.18l7.05 4.07 2.28 1.31 4.41 2.55 2.58 1.49a.3.3 0 01.17.33z"/><path class="cls-4" d="M16.11 82.1l3.39.46v-4.3l-3.39-.45v4.29z"/><path d="M36.14 46.79L25.41 53a7.38 7.38 0 00-3 4l-.56 1.73L3.89 48.34l.56-1.73a7.38 7.38 0 013-4l10.73-6.2z" fill="#5e96ff"/><path d="M34.35 43.88l-4.87 2.81a8.89 8.89 0 00-4.3 5l-15.68-9a8.89 8.89 0 014.3-5l4.87-2.81z" fill="#75a5ff"/><path d="M34.35 43.88v2.47l-9.17 5.3a8.89 8.89 0 014.3-5z" fill="#5992ff"/><path class="cls-5" d="M3.54 67.36v-3.09a.6.6 0 01.9-.52l11.21 6.46a.6.6 0 01.3.52v3.18a.6.6 0 01-.84.55l-5.3-2.29-.11-.06-5.9-4.26a.6.6 0 01-.26-.49z"/><path class="cls-13" d="M14.66 73.68l-10.43-6a.6.6 0 01-.3-.52V64.9a.6.6 0 01.9-.52l10.43 6a.6.6 0 01.3.52v2.24a.6.6 0 01-.9.54z"/><path class="cls-3" d="M15.06 71.03L4.44 64.9v-.4l10.62 6.13v.4zm0 1.27L4.44 66.16v-.39l10.62 6.13v.4zm0 1.26L4.44 67.43v-.4l10.62 6.13v.4zm4.44 4.7l6.28-3.63-.78-.45-6.28 3.63.78.45z"/><path class="cls-4" d="M.26 72.96L0 71.3v-4.29l.26 1.66v4.29z"/><path class="cls-18" d="M16.11 77.81v2.04l-1.61-.93v-2.04l1.61.93zM1.87 69.6v2.03L.26 70.7v-2.03l1.61.93z"/><path class="cls-20" d="M.26 68.67v2.03L0 69.05v-2.04l.26 1.66zm17.15 9.32v2.03l-1.3-.17v-2.04l1.3.18z"/><path class="cls-5" d="M22.19 65.77l1.51.87v-3.18l-1.51-.87v3.18z"/><path class="cls-2" d="M22.19 62.59l.26-.15 1.51.87-.26.15-1.51-.87z"/><path class="cls-3" d="M23.7 66.64l.26-.16v-3.17l-.26.15v3.18zm-.7-1.88a.15.15 0 01-.15-.15v-2.89l-1.16-.67a.15.15 0 11.15-.26l1.24.72a.15.15 0 01.08.13v3a.15.15 0 01-.16.12z"/><path class="cls-8" d="M13.69 55.78L2.3 60.43l-.63-.36a.3.3 0 01-.14-.34l.36-1.38 9.52-3.88zm7.13 4.37l-.5 1.92-8.88 3.63L6.71 63l11.39-4.67 2.58 1.49a.3.3 0 01.14.33z"/><path class="cls-5" d="M21.82 58.69a5.86 5.86 0 00-1.66 2.59L2.23 50.93a5.86 5.86 0 011.66-2.59z"/><path class="cls-3" d="M3.54 61.43a.15.15 0 010-.3l1.83-.33a.15.15 0 01.05.3l-1.83.33z"/><path class="cls-3" d="M8.21 62.7h-.06L5.32 61a.11.11 0 11.11-.2l2.84 1.64a.11.11 0 01-.06.21zm3.14 3.24a.15.15 0 010-.3l1.83-.33a.15.15 0 01.17.12.15.15 0 01-.12.17l-1.83.33z"/><path class="cls-3" d="M16 67.21h-.06l-2.84-1.64a.11.11 0 11.11-.2L16.08 67a.11.11 0 01-.06.21zm5.82-8.52l-.5 1.92-1.16.67a5.86 5.86 0 011.66-2.59z"/><path fill="#457ce3" d="M45.19 59.96v2.2l-9.01 5.21v-2.21l9.01-5.2z"/><path class="cls-21" d="M30.26 62.87V55.6l4.15-2.39v7.26zm.12-7.19v7l3.93-2.27v-7z"/></g></g></svg>