<svg xmlns="http://www.w3.org/2000/svg" viewBox="0 0 70.44 93.45"><defs><style>.cls-1{fill:#6b6b6b}.cls-2{fill:#545454}.cls-3{fill:#828282}.cls-4{fill:#afafaf}.cls-5{fill:#999}.cls-6{fill:#f0d587}.cls-7{fill:#feed9d}.cls-8{fill:#d7b56f}.cls-9{fill:#e2c07b}.cls-10{fill:#b79157}.cls-11{fill:#cead69}.cls-12{fill:#b08a56}.cls-13{fill:#e5c67d}.cls-14{fill:#d8b567}.cls-15{fill:#957646}.cls-16{fill:#fff}.cls-17{fill:#b89b5f}.cls-18{fill:#f2c799}.cls-19{fill:#c29a77}.cls-20{fill:#94765a}.cls-21{fill:#e6bd91}.cls-22{fill:#d9b389}.cls-23{fill:#3e3e3e}.cls-24{fill:#f4f4f4}.cls-25{fill:#858585}</style></defs><g id="Слой_2" data-name="Слой 2"><g id="Layer_2" data-name="Layer 2"><path class="cls-1" d="M68.52 63.66l.96.55V14.46l-.96-.55v49.75z"/><path class="cls-2" d="M70.44 63.66l-.96.55V14.46l.96-.55v49.75z"/><path class="cls-3" d="M69.48 14.46l-.96-.55.96-.55.96.55-.96.55z"/><path class="cls-1" d="M0 82.57l.96.55V33.37L0 32.82v49.75z"/><path class="cls-2" d="M1.92 82.57l-.96.55V33.37l.96-.55v49.75z"/><path class="cls-3" d="M.96 33.37L0 32.82l.96-.55.96.55-.96.55z"/><path class="cls-4" d="M19.11 78.78l50.24-29.01-17.99-10.39L1.12 68.39l17.99 10.39z"/><path class="cls-3" d="M69.35 49.77v.87L19.11 79.65v-.87l50.24-29.01z"/><path class="cls-5" d="M1.12 68.39v.87l17.99 10.39v-.87L1.12 68.39z"/><path class="cls-6" d="M53.68 47.26l-11.26-6.5 7.84-4.53 11.26 6.5-7.84 4.53z"/><path class="cls-7" d="M50.26 36.23l-7.84 4.52 11.26 6.5 7.84-4.52zm3.42 10.11L44 40.76l6.26-3.61 9.68 5.59-.61.35z"/><path class="cls-8" d="M53.68 56.31L42.42 49.8v-9.04l11.26 6.5v9.05z"/><path class="cls-9" d="M43.21 42.13l9.68 5.59v7.22l-9.68-5.59v-7.22zm-.79-1.37v9l11.26 6.5v-9l-11.26-6.5z"/><path class="cls-10" d="M61.52 51.78l-7.84 4.53v-9.05l7.84-4.53v9.05z"/><path class="cls-11" d="M60.73 44.1v7.22l-6.25 3.61v-7.22l6.25-3.61zm.79-1.37l-7.84 4.52v9l7.84-4.52v-9z"/><path class="cls-12" d="M59.94 42.73l-.61.35-9.07-5.23v-.71l9.68 5.59z"/><path class="cls-13" d="M44.01 40.76l.61.35 5.64-3.26v-.71l-6.25 3.62z"/><path class="cls-12" d="M43.21 42.13l.61.35V49l-.61.35v-7.22z"/><path class="cls-13" d="M52.89 54.94v-.71L43.82 49l-.61.35 9.68 5.59z"/><path class="cls-14" d="M60.73 44.1l-.61.35v6.52l.61.36V44.1z"/><path class="cls-13" d="M54.48 54.94l-.01-.71 5.65-3.26.61.36-6.25 3.61z"/><path class="cls-15" d="M55.83 52.15l.38-.22v-1.68l-.38.22v1.68z"/><path class="cls-15" d="M56.51 50.09l-.49-1.1-.49 1.66.98-.56z"/><path class="cls-16" d="M50.82 42.2l-2.48-1.44 1.29-.74 2.48 1.43-1.29.75z"/><path class="cls-15" d="M57.65 51.52l-.05.03V50.2l.05-.03v1.35zm.21-.12l-.14.08v-1.35l.14-.08v1.35zm.14-.08l-.1.05v-1.35l.1-.05v1.35zm.19-.11l-.15.08v-1.34l.15-.09v1.35zm.16-.09l-.15.08v-1.35l.15-.08v1.35zm.15-.09l-.12.07v-1.35l.12-.07v1.35zm.15-.09l-.1.06v-1.35l.1-.06v1.35zm.14-.08l-.05.03v-1.35l.05-.03v1.35zm.19-.11l-.1.06v-1.35l.1-.06v1.35zm.13-.08l-.05.03v-1.35l.05-.02v1.34zm.2-.11l-.12.07v-1.35l.12-.07v1.35zm.13-.07l-.05.03v-1.36l.05-.02v1.35z"/><path class="cls-17" d="M46.62 46.27l-2.23-1.29v-.22l2.23 1.29v.22zm0 .44l-2.23-1.28v-.23l2.23 1.29v.22zm-.8-.01l-1.43-.83v-.22l1.43.82v.23z"/><path class="cls-6" d="M27.77 63.5l-11.26-6.51 7.83-4.52 11.26 6.5-7.83 4.53z"/><path class="cls-7" d="M24.34 52.47L16.51 57l11.26 6.5L35.6 59zm3.42 10.11L18.09 57l6.26-3.61L34 59l-.61.35z"/><path class="cls-8" d="M27.77 72.55l-11.26-6.51v-9.05l11.26 6.51v9.05z"/><path class="cls-9" d="M17.3 58.36L27 64v7.22l-9.7-5.63v-7.23zM16.51 57v9l11.26 6.5v-9L16.51 57z"/><path class="cls-10" d="M35.6 68.02l-7.83 4.53V63.5l7.83-4.53v9.05z"/><path class="cls-11" d="M34.81 60.34v7.22l-6.25 3.61V64l6.25-3.61zM35.6 59l-7.83 4.5v9L35.6 68v-9z"/><path class="cls-12" d="M34.02 58.97l-.61.35-9.07-5.23v-.71l9.68 5.59z"/><path class="cls-13" d="M18.09 56.99l.61.36 5.64-3.26v-.71l-6.25 3.61z"/><path class="cls-12" d="M17.3 58.37l.61.35v6.51l-.61.36v-7.22z"/><path class="cls-13" d="M26.98 71.17v-.7l-9.07-5.24-.61.36 9.68 5.58z"/><path class="cls-14" d="M34.81 60.34l-.61.35v6.52l.61.35v-7.22z"/><path class="cls-13" d="M28.56 71.17v-.7l5.64-3.26.61.35-6.25 3.61z"/><path class="cls-15" d="M29.91 68.39l.39-.22v-1.68l-.39.22v1.68z"/><path class="cls-15" d="M30.59 66.33l-.49-1.1-.48 1.66.97-.56z"/><path class="cls-16" d="M24.9 58.43L22.43 57l1.28-.74 2.48 1.43-1.29.74z"/><path class="cls-15" d="M31.73 67.76l-.04.03v-1.35l.04-.03v1.35zm.22-.12l-.15.08v-1.35l.15-.08v1.35zm.13-.08l-.09.05v-1.35l.09-.05v1.35zm.19-.11l-.15.08v-1.35l.15-.08v1.35zm.16-.09l-.14.08v-1.35l.14-.09v1.36zm.15-.09l-.12.07v-1.35l.12-.07v1.35zm.15-.09l-.09.06v-1.35l.09-.06v1.35zm.14-.08l-.05.03v-1.35l.05-.03v1.35zm.19-.11l-.1.06V65.7l.1-.06v1.35zm.14-.08l-.05.03v-1.35l.05-.03v1.35zm.2-.11l-.12.07v-1.35l.12-.07v1.35zm.12-.07l-.05.02V65.4l.05-.02v1.35z"/><path class="cls-17" d="M20.7 62.51l-2.23-1.29V61l2.23 1.29v.22zm0 .44l-2.23-1.28v-.22l2.23 1.28v.22zm-.8-.01l-1.43-.83v-.22l1.43.82v.23z"/><path class="cls-18" d="M41.98 53.7l-6.66-3.85 6.66-3.84 6.65 3.84-6.65 3.85z"/><path class="cls-19" d="M44.97 51.97l-6.66-3.84.68-.39 6.66 3.84-.68.39z"/><path class="cls-20" d="M45.29 51.79l-6.66-3.85.03-.02 6.66 3.85-.03.02z"/><path class="cls-21" d="M41.98 61.39l-6.66-3.85v-7.69l6.66 3.85v7.69z"/><path class="cls-22" d="M48.63 57.54l-6.65 3.85V53.7l6.65-3.85v7.69z"/><path class="cls-19" d="M45.65 51.58v7.69l-.68.39v-7.69l.68-.39z"/><path class="cls-20" d="M45.32 51.77v7.68l-.03.03v-7.69l.03-.02z"/><path class="cls-23" d="M37.03 57.69l-.85-.5v-.13l.85.49v.14z"/><path class="cls-23" d="M36.47 57.23l-.07-.04v-.67l.07.04v.67zm.39.23l-.06-.04v-.67l.06.04v.67z"/><path class="cls-23" d="M36.44 56.19l.08.4-.17-.09.09-.31zm.31.53l.08-.31.08.41-.16-.1zm4.14 3.09l.04.02v-1.15l-.04-.02v1.15zm-.18-.11l.13.07v-1.14l-.13-.08v1.15zm-.12-.07l.09.05v-1.14l-.09-.05v1.14zm-.16-.09l.13.08v-1.15l-.13-.07v1.14zm-.13-.08l.12.07v-1.14l-.12-.07v1.14zm-.13-.07l.1.06V58.3l-.1-.06v1.15zm-.13-.08l.08.05v-1.14l-.08-.05v1.14zm-.12-.06l.04.02v-1.14l-.04-.03v1.15zm-.16-.09l.09.04v-1.14l-.09-.05v1.15zm-.11-.07l.04.02v-1.14l-.04-.03v1.15zm-.17-.1l.1.06V57.9l-.1-.06v1.15zm-.11-.06l.04.02v-1.14l-.04-.03v1.15zM47 57.09h.19l.17-.44a.32.32 0 01.05-.09l-.24.14a.22.22 0 00-.06.09zm.38-.29l.05.08-.05.06.2-.11.1-.25v.06-.06a.11.11 0 00-.08.06v.06zm.15.2l.11.15.1-.06a.16.16 0 000-.11l-.1-.13zm-.11.46l.1.16v-.08l.12-.07v-.05l.11-.28h-.06l-.23.13v-.07zm-.31.06l-.05.13a.19.19 0 000 .07h.06l.2-.12v-.2z"/><path class="cls-23" d="M46.89 57.33h.06l-.05.13v.1l.12.17a.2.2 0 010-.1l.12-.29h.07l-.1-.15z"/><path class="cls-24" d="M38.09 54.1l-2.11-1.22v-1.26l2.11 1.22v1.26z"/><path class="cls-25" d="M37.98 53.12l-1.89-1.09v-.19l1.89 1.09v.19zm0 .38l-1.89-1.09v-.19l1.89 1.09v.19zm-.68-.02l-1.21-.7v-.18l1.21.7v.18z"/><path class="cls-4" d="M19.11 61.44l50.24-29.01-17.99-10.39L1.12 51.05l17.99 10.39z"/><path class="cls-3" d="M69.35 32.43v.87L19.11 62.31v-.87l50.24-29.01z"/><path class="cls-5" d="M1.12 51.05v.87l17.99 10.39v-.87L1.12 51.05z"/><path class="cls-18" d="M26.95 42.59l-9.42-5.43 9.42-5.44 9.41 5.44-9.41 5.43z"/><path class="cls-19" d="M31.17 40.15l-9.42-5.43.97-.56 9.41 5.44-.96.55z"/><path class="cls-20" d="M31.63 39.89l-9.42-5.44.05-.03 9.42 5.44-.05.03z"/><path class="cls-21" d="M26.95 53.47l-9.42-5.44V37.16l9.42 5.43v10.88z"/><path class="cls-22" d="M36.36 48.03l-9.41 5.44V42.59l9.41-5.43v10.87z"/><path class="cls-19" d="M32.13 39.6v10.87l-.96.56V40.15l.96-.55z"/><path class="cls-20" d="M31.68 39.86v10.87l-.05.03V39.89l.05-.03z"/><path class="cls-23" d="M19.96 48.23l-1.22-.7v-.18l1.22.7v.18zm-.8-.64l-.09-.06v-.94l.09.05v.95z"/><path class="cls-23" d="M19.71 47.91l-.09-.06v-.94l.09.05v.95zm-.6-1.8l.12.58-.24-.14.12-.44zm.44.76l.12-.44.12.57-.24-.13zm5.86 4.36l.06.03v-1.62l-.06-.03v1.62zm-.25-.15l.17.11v-1.63l-.17-.1v1.62zm-.17-.09l.12.06v-1.62l-.12-.06v1.62zm-.23-.13l.18.1v-1.62l-.18-.11v1.63zm-.19-.12l.18.11v-1.63l-.18-.1v1.62zm-.18-.1l.14.08V49.1l-.14-.08v1.62zm-.18-.11l.11.07v-1.62l-.11-.07v1.62zm-.17-.09l.06.03v-1.62l-.06-.03v1.62zm-.22-.13l.11.07v-1.62l-.11-.07v1.62zm-.17-.1l.06.04v-1.62l-.06-.04v1.62zm-.24-.13l.15.08v-1.62l-.15-.09v1.63zm-.15-.09l.06.03V48.4l-.06-.03v1.62zm10.85-2.6h.26l.24-.62a.46.46 0 01.08-.13l-.34.2a.31.31 0 00-.08.13zm.48-.39l.07.11-.07.09.28-.16.14-.36-.06.08-.07-.08a.16.16 0 00-.11.08v.08zm.22.27l.16.22.14-.08.07-.06a.22.22 0 00.06-.16.13.13 0 000-.07l-.13-.18z"/><path class="cls-23" d="M34.64 47.91l.14.23V48l.18-.1v-.12l.15-.4a.29.29 0 01-.08.07l-.32.18v-.09zm-.44.09l-.07.19a.28.28 0 000 .1v.06h.09l.29-.17v-.36z"/><path class="cls-23" d="M33.89 47.72H34l-.07.18v.14l.17.24a.28.28 0 010-.15l.16-.41h.09l-.15-.21z"/><path class="cls-24" d="M21.45 43.16l-2.98-1.72v-1.79l2.98 1.72v1.79z"/><path class="cls-25" d="M21.3 41.78l-2.68-1.55v-.26l2.68 1.54v.27zm0 .53l-2.68-1.54v-.27l2.68 1.54v.27zm-.97-.02l-1.71-.99v-.27l1.71.99v.27z"/><path class="cls-18" d="M55.53 28.38l-6.65-3.84 6.65-3.84 6.66 3.84-6.66 3.84z"/><path class="cls-19" d="M58.52 26.66l-6.66-3.85.69-.39 6.65 3.85-.68.39z"/><path class="cls-20" d="M58.84 26.47l-6.65-3.84.03-.02 6.66 3.84-.04.02z"/><path class="cls-21" d="M55.53 36.07l-6.65-3.84v-7.69l6.65 3.84v7.69z"/><path class="cls-22" d="M62.19 32.23l-6.66 3.84v-7.69l6.66-3.84v7.69z"/><path class="cls-19" d="M59.2 26.27v7.68l-.68.4v-7.69l.68-.39z"/><path class="cls-20" d="M58.88 26.45v7.69l-.03.02v-7.69l.03-.02z"/><path class="cls-23" d="M50.59 32.37l-.86-.5v-.12l.86.49v.13zm-.56-.46l-.07-.03v-.67l.07.04v.66zm.39.23l-.07-.04v-.67l.07.04v.67z"/><path class="cls-23" d="M49.99 30.87l.09.41-.17-.1.08-.31zm.31.54l.09-.31.08.4-.17-.09zm4.15 3.08l.04.03v-1.15l-.04-.03v1.15zm-.18-.1l.12.07v-1.15l-.12-.07v1.15zm-.12-.07l.08.05v-1.15l-.08-.05v1.15zm-.16-.09l.13.07v-1.15l-.13-.07v1.15zm-.14-.08l.13.07v-1.15l-.13-.07v1.15zm-.12-.08l.1.06v-1.14l-.1-.06v1.14zM53.6 34l.08.05V32.9l-.08-.05V34zm-.12-.07l.04.03v-1.15l-.04-.02v1.14zm-.16-.09l.09.05v-1.15l-.09-.05v1.15zm-.12-.07l.05.03v-1.15l-.05-.02v1.14zm-.16-.1l.1.06v-1.14l-.1-.06v1.14zm-.11-.06l.04.03v-1.15l-.04-.02v1.14zm7.67-1.83h.19l.17-.44a.33.33 0 01.05-.09l-.24.14a.22.22 0 00-.06.09zm.34-.29l.05.08-.05.06.2-.11.1-.25v.06-.06a.11.11 0 00-.08.06v.06zm.15.2l.11.15.1-.06a.16.16 0 000-.11l-.1-.13zm-.09.46l.1.16v-.08l.12-.07v-.05l.11-.28h-.06l-.23.13v-.06zm-.34.06l-.05.13a.2.2 0 000 .07h.06l.2-.12v-.25z"/><path class="cls-23" d="M60.45 32h.06l-.05.13v.1l.12.17a.2.2 0 010-.1l.12-.3h.07l-.1-.15z"/><path class="cls-24" d="M51.65 28.79l-2.11-1.22V26.3l2.11 1.22v1.27z"/><path class="cls-25" d="M51.54 27.81l-1.89-1.1v-.18l1.89 1.09v.19zm0 .37l-1.89-1.09v-.19l1.89 1.1v.18zm-.68-.01l-1.21-.7v-.19l1.21.7v.19z"/><path class="cls-1" d="M17.88 92.89l.96.56V43.7l-.96-.55v49.74z"/><path class="cls-2" d="M19.8 92.89l-.96.56V43.7l.96-.55v49.74z"/><path class="cls-3" d="M18.84 43.7l-.96-.55.96-.56.96.56-.96.55z"/><path class="cls-6" d="M44.23 35.3l-7.32-4.23 7.32-4.23 7.32 4.23-7.32 4.23z"/><path class="cls-7" d="M44.23 26.84l-7.32 4.23 7.32 4.23 7.32-4.23zm0 7.6l-5.85-3.37 5.85-3.37 5.84 3.37-.57.33z"/><path class="cls-8" d="M44.23 43.75l-7.32-4.23v-8.45l7.32 4.23v8.45z"/><path class="cls-9" d="M37.65 32.35l5.84 3.37v6.75l-5.84-3.37v-6.75zm-.74-1.28v8.46l7.32 4.23V35.3l-7.32-4.23z"/><path class="cls-10" d="M51.55 39.52l-7.32 4.23V35.3l7.32-4.23v8.45z"/><path class="cls-11" d="M50.81 32.35v6.75L45 42.47v-6.75l5.84-3.37zm.74-1.28l-7.32 4.23v8.46l7.32-4.23v-8.46z"/><path class="cls-12" d="M50.08 31.07l-.57.33-5.28-3.05v-.65l5.85 3.37z"/><path class="cls-13" d="M38.39 31.07l.57.33 5.27-3.05v-.65l-5.84 3.37z"/><path class="cls-12" d="M37.65 32.35l.57.33v6.09l-.57.33v-6.75z"/><path class="cls-13" d="M43.49 42.47v-.66l-5.27-3.04-.57.33 5.84 3.37z"/><path class="cls-14" d="M50.81 32.35l-.57.33v6.09l.57.33v-6.75z"/><path class="cls-13" d="M44.97 42.47v-.66l5.27-3.04.57.33-5.84 3.37z"/><path class="cls-15" d="M46.23 39.87l.36-.2V38.1l-.36.2v1.57z"/><path class="cls-15" d="M46.87 37.94l-.46-1.02-.45 1.55.91-.53z"/><path class="cls-16" d="M44.76 32.41l-2.32-1.33 1.2-.7 2.32 1.34-1.2.69z"/><path class="cls-15" d="M47.94 39.28l-.05.03v-1.26l.05-.03v1.26zm.2-.11l-.14.08v-1.27l.14-.07v1.26zm.13-.08l-.1.06v-1.27l.1-.05v1.26zm.17-.1l-.14.08v-1.26l.14-.08v1.26zm.15-.09l-.14.08v-1.26l.14-.08v1.26zm.14-.08l-.11.07v-1.26l.11-.07v1.26zm.14-.08l-.09.05v-1.26l.09-.05v1.26zm.13-.07l-.04.02v-1.26l.04-.02v1.26zm.18-.11l-.09.06v-1.26l.09-.06v1.26zm.12-.07l-.04.03v-1.26l.04-.03v1.26zm.19-.11l-.11.07v-1.26l.11-.07v1.26zm.12-.06l-.05.02v-1.26l.05-.03v1.27z"/><path class="cls-17" d="M40.83 36.22l-2.09-1.2v-.21l2.09 1.2v.21zm0 .42l-2.09-1.2v-.21l2.09 1.2v.21zm-.75-.02l-1.34-.77v-.21l1.34.77v.21z"/><path class="cls-5" d="M0 31.98v.84L18.84 43.7v-.84L0 31.98z"/><path class="cls-3" d="M70.44 13.07v.84L18.84 43.7v-.84l51.6-29.79z"/><path fill="#c7c7c7" d="M18.84 42.86l51.6-29.79L51.6 2.19 0 31.98l18.84 10.88z"/><path class="cls-18" d="M45.32 7.86l9.07-5.24L49.85 0l-9.07 5.24 4.54 2.62z"/><path class="cls-19" d="M43.36 6.72l9.07-5.23-.61-.36-9.07 5.24.61.35z"/><path class="cls-20" d="M43.07 6.56l9.07-5.24-.04-.02-9.07 5.24.04.02z"/><path class="cls-22" d="M45.32 14.78V7.86l-4.54-2.62v6.92l4.54 2.62z"/><path class="cls-19" d="M43.35 13.63V6.72l-.62-.36v6.92l.62.35z"/><path class="cls-20" d="M43.06 13.47V6.55l-.04-.02v6.92l.04.02z"/><path class="cls-21" d="M45.32 14.78l9.07-5.24V2.62l-9.07 5.24v6.92z"/><path class="cls-23" d="M52.38 9.97l.78-.44v-.12l-.78.44v.12z"/><path class="cls-23" d="M52.89 9.56l.06-.03v-.6l-.06.03v.6zm-.35.21l.06-.04v-.6l-.06.03v.61z"/><path class="cls-23" d="M52.92 8.62l-.07.37.15-.09-.08-.28zm-.28.48l-.07-.28-.08.37.15-.09zm-5.89 4.03l-.04.03v-1.04l.04-.02v1.03zm.16-.09l-.11.07v-1.04l.11-.06v1.03zm.11-.06l-.08.04v-1.03l.08-.04v1.03zm.14-.08l-.11.06v-1.03l.11-.06v1.03zm.12-.07l-.11.06v-1.03l.11-.07v1.04zm.12-.07l-.09.05v-1.03l.09-.05v1.03zm.11-.07l-.07.05V11.7l.07-.04v1.03zm.11-.06l-.04.02v-1.03l.04-.02v1.03zm.14-.08l-.07.04v-1.03l.07-.04v1.03zm.11-.06l-.04.02v-1.03l.04-.02v1.03zm.15-.09l-.09.05v-1.03l.09-.05v1.03zm.1-.05l-.04.02v-1.04l.04-.02v1.04zm-6.24-1.01a.2.2 0 00-.05-.08l-.22-.13a.29.29 0 010 .08l.15.4h.17z"/><path class="cls-23" d="M41.63 11.22v-.05a.1.1 0 00-.07-.05v.05-.05l.09.23.18.1v-.13zm-.27.08l-.09.12a.14.14 0 000 .1l.09.05.1-.14zm.19.39v.06l-.21-.12h-.05l.09.25.11.06v.08l.09-.15zm.18.17v.23l.18.11h.06a.17.17 0 000-.07v-.12z"/><path class="cls-23" d="M41.93 11.69l-.09.13h.06l.1.26a.18.18 0 010 .09l.11-.16v-.21h.05z"/><path class="cls-24" d="M51.2 6.86l1.89-1.1V4.63L51.2 5.72v1.14z"/><path class="cls-25" d="M51.29 5.98l1.7-.99v-.16l-1.7.98v.17zm0 .34l1.7-.99v-.16l-1.7.98v.17zm.61-.02l1.09-.63V5.5l-1.09.63v.17z"/><path class="cls-18" d="M52.13 12.88l9.07-5.23-4.54-2.62-9.07 5.23 4.54 2.62z"/><path class="cls-19" d="M50.16 11.75l9.07-5.24-.61-.35-9.07 5.23.61.36z"/><path class="cls-20" d="M49.88 11.58l9.07-5.23-.04-.02-9.07 5.23.04.02z"/><path class="cls-22" d="M52.13 19.8v-6.92l-4.54-2.62v6.92l4.54 2.62z"/><path class="cls-19" d="M50.15 18.66v-6.92l-.61-.35v6.92l.61.35z"/><path class="cls-20" d="M49.87 18.5v-6.92l-.04-.03v6.92l.04.03z"/><path class="cls-21" d="M52.13 19.8l9.07-5.23V7.65l-9.07 5.23v6.92z"/><path class="cls-23" d="M59.19 15l.77-.45v-.12l-.77.45V15z"/><path class="cls-23" d="M59.7 14.59l.06-.04v-.6l-.06.03v.61zm-.36.2l.07-.03v-.6l-.07.03v.6z"/><path class="cls-23" d="M59.73 13.65l-.08.36.15-.08-.07-.28zm-.28.48l-.07-.28-.08.37.15-.09zm-5.9 4.03l-.03.02v-1.03l.03-.02v1.03zm.17-.09l-.12.06V17.1l.12-.06v1.03zm.1-.06l-.07.04v-1.03l.07-.05v1.04zm.15-.09l-.12.07v-1.03l.12-.07v1.03zm.12-.07l-.11.07v-1.03l.11-.07v1.03zm.11-.06l-.09.05v-1.03l.09-.06v1.04zm.12-.07l-.08.04v-1.03l.08-.04v1.03zm.1-.06l-.03.02v-1.03l.03-.02v1.03zm.15-.09l-.08.05v-1.03l.08-.05v1.03zm.1-.05l-.03.02V16.5l.03-.02v1.04zm.16-.09l-.1.05v-1.03l.1-.06v1.04zm.09-.06l-.04.02v-1.03l.04-.02v1.03zm-6.24-1a.2.2 0 00-.05-.08l-.22-.13a.29.29 0 010 .08l.15.4h.17z"/><path class="cls-23" d="M48.43 16.24v-.05a.1.1 0 00-.07-.05v.05-.05l.09.23.18.1v-.13zm-.26.09l-.09.12a.14.14 0 000 .1l.09.05.1-.14zm.19.39v.06l-.21-.12h-.05l.09.25.11.06v.08l.09-.15zm.17.17v.23l.18.11h.06a.18.18 0 000-.07v-.12z"/><path class="cls-23" d="M48.73 16.72l-.09.13h.06l.1.26a.18.18 0 010 .09l.11-.16v-.21h.05z"/><path class="cls-24" d="M58 11.88l1.9-1.09V9.65L58 10.74v1.14z"/><path class="cls-25" d="M58.1 11l1.7-.98v-.17l-1.7.98V11zm0 .34l1.7-.98v-.17l-1.7.98v.17zm.61-.01l1.09-.63v-.17l-1.09.63v.17z"/><path class="cls-18" d="M37.76 17.72L25.25 10.5l6.26-3.61 12.5 7.21-6.25 3.62z"/><path class="cls-19" d="M40.46 16.15l-12.5-7.21.84-.49 12.51 7.22-.85.48z"/><path class="cls-20" d="M40.86 15.93l-12.5-7.22.05-.03 12.5 7.21-.05.04z"/><path class="cls-22" d="M37.76 27.25v-9.53l6.25-3.62v9.54l-6.25 3.61z"/><path class="cls-19" d="M40.48 25.68v-9.54l.84-.48v9.53l-.84.49z"/><path class="cls-20" d="M40.87 25.45v-9.53l.06-.04v9.54l-.06.03z"/><path class="cls-21" d="M37.76 27.25l-12.51-7.21V10.5l12.51 7.22v9.53z"/><path class="cls-23" d="M28.02 20.63l-1.06-.61v-.16l1.06.61v.16z"/><path class="cls-23" d="M27.32 20.07l-.08-.05v-.83l.08.05v.83zm.49.28l-.08-.05v-.83l.08.05v.83z"/><path class="cls-23" d="M27.28 18.77l.1.5-.2-.11.1-.39zm.38.67l.11-.39.1.5-.21-.11zm8.13 5.55l.05.03V23.6l-.05-.03v1.42zm-.22-.13l.15.09v-1.42l-.15-.09v1.42zm-.15-.08l.1.06v-1.42l-.1-.06v1.42zm-.2-.12l.16.09v-1.42l-.16-.09v1.42zm-.17-.09l.16.09v-1.43l-.16-.09v1.43zm-.16-.09l.13.07v-1.42l-.13-.08v1.43zm-.16-.1l.11.06v-1.42l-.11-.06v1.42zm-.14-.08l.05.03v-1.42l-.05-.03v1.42zm-.2-.12l.1.06v-1.42l-.1-.06v1.42zm-.14-.08l.05.03v-1.42l-.05-.03v1.42zm-.21-.12l.12.07v-1.42l-.12-.07v1.42zm-.14-.08l.05.03v-1.42l-.05-.03v1.42zm8.47-1.03h.23l.21-.55a.4.4 0 01.07-.11l-.3.18a.27.27 0 00-.07.11zm.41-.37l.07.1-.06.08.24-.14.12-.31-.06.07-.09-.07a.14.14 0 00-.1.07v.07zm.22.26l.14.19.13-.07.06-.05a.2.2 0 00.05-.14.11.11 0 000-.06l-.12-.16z"/><path class="cls-23" d="M42.83 23.32l.13.2v-.1l.15-.09v-.06l.13-.35a.25.25 0 01-.07.06l-.28.16V23zm-.39.08l-.07.16a.24.24 0 000 .09v.06c0 .06.08 0 .08 0l.25-.15v-.31z"/><path class="cls-23" d="M42.17 23.15h.08l-.06.16v.13l.15.21a.25.25 0 010-.13l.14-.36h.08l-.12-.16z"/><path class="cls-24" d="M29.66 16.34l-2.61-1.51v-1.57l2.61 1.51v1.57z"/><path class="cls-25" d="M29.53 15.13l-2.35-1.36v-.23l2.35 1.35v.24zm0 .46l-2.35-1.35v-.23l2.35 1.35v.23zm-.84-.01l-1.51-.87v-.24l1.51.87v.24z"/><path class="cls-6" d="M18.1 26.8l-8.84-5.11 8.84-5.11 8.85 5.11-8.85 5.11z"/><path class="cls-7" d="M18.1 16.58l-8.84 5.1 8.84 5.12 8.84-5.11zm0 9.18L11 21.69l7.06-4.08 7.06 4.08-.69.4z"/><path class="cls-8" d="M18.1 37.01L9.26 31.9V21.69l8.84 5.11v10.21z"/><path class="cls-9" d="M10.15 23.24l7.06 4.08v8.15l-7.06-4.08v-8.15zm-.89-1.55V31.9L18.1 37V26.8l-8.84-5.11z"/><path class="cls-10" d="M26.95 31.9l-8.85 5.11V26.8l8.85-5.11V31.9z"/><path class="cls-11" d="M26.06 23.24v8.15L19 35.46v-8.15l7.06-4.08zm.89-1.55L18.1 26.8V37l8.84-5.11v-10.2z"/><path class="cls-12" d="M25.16 21.69l-.68.4-6.38-3.68v-.8l7.06 4.08z"/><path class="cls-13" d="M11.05 21.69l.68.4 6.37-3.68v-.8l-7.05 4.08z"/><path class="cls-12" d="M10.15 23.24l.69.39v7.36l-.69.4v-8.15z"/><path class="cls-13" d="M17.21 35.46v-.79l-6.37-3.68-.69.4 7.06 4.07z"/><path class="cls-14" d="M26.05 23.24l-.68.39v7.36l.68.4v-8.15z"/><path class="cls-13" d="M19 35.46v-.79l6.37-3.68.68.4L19 35.46z"/><path class="cls-15" d="M20.52 32.32l.44-.25v-1.9l-.44.26v1.89z"/><path class="cls-15" d="M21.29 29.99l-.55-1.24-.55 1.87 1.1-.63z"/><path class="cls-16" d="M18.74 23.31l-2.8-1.61 1.45-.84 2.8 1.61-1.45.84z"/><path class="cls-15" d="M22.58 31.61l-.05.03v-1.53l.05-.03v1.53zm.24-.14l-.17.09v-1.52l.17-.09v1.52zm.16-.09l-.12.06v-1.52l.12-.06v1.52zm.21-.12l-.17.09v-1.52l.17-.1v1.53zm.18-.11l-.17.1v-1.53l.17-.09v1.52zm.17-.1l-.14.08v-1.52l.14-.08v1.52zm.17-.1l-.11.07V29.5l.11-.07v1.52zm.15-.09l-.05.04v-1.53l.05-.03v1.52zm.22-.12l-.11.07v-1.53l.11-.06v1.52zm.15-.09l-.05.03v-1.52l.05-.03v1.52zm.23-.13l-.14.08v-1.52l.14-.08v1.52zm.14-.08l-.06.03v-1.52l.06-.03v1.52z"/><path class="cls-17" d="M13.99 27.91l-2.51-1.45v-.25l2.51 1.45v.25zm0 .5l-2.51-1.45v-.25l2.51 1.45v.25zm-.9-.02l-1.61-.93v-.25l1.61.93v.25z"/></g></g></svg>