<svg xmlns="http://www.w3.org/2000/svg" xmlns:xlink="http://www.w3.org/1999/xlink" viewBox="0 0 169.06 105.98"><defs><linearGradient id="Ѕезым_нный_градиент_2" x1="51.34" y1="-16846.8" x2="107.82" y2="-16748.98" gradientTransform="matrix(1 0 0 -1 0 -16743.85)" gradientUnits="userSpaceOnUse"><stop offset="0" stop-color="#ededed"/><stop offset="1" stop-color="#e6e6e6"/></linearGradient><linearGradient id="Ѕезым_нный_градиент_4-2" x1="137.66" y1="-16788.95" x2="132.79" y2="-16797.39" xlink:href="#Ѕезым_нный_градиент_4"/><linearGradient id="Ѕезым_нный_градиент_35" x1="123.56" y1="-16749.3" x2="111.7" y2="-16769.84" gradientTransform="matrix(1 0 0 -1 0 -16743.85)" gradientUnits="userSpaceOnUse"><stop offset=".13" stop-color="#68737b"/><stop offset=".13" stop-color="#6c7880"/><stop offset=".44" stop-color="#6c7880"/><stop offset=".44" stop-color="#50585e"/><stop offset=".84" stop-color="#50585e"/><stop offset=".84" stop-color="#3b4145"/></linearGradient><linearGradient id="Ѕезым_нный_градиент_35-2" x1="129.23" y1="-16752.5" x2="117.38" y2="-16773.04" xlink:href="#Ѕезым_нный_градиент_35"/><linearGradient id="Ѕезым_нный_градиент_40" x1="129.59" y1="-16768.35" x2="123.65" y2="-16761.07" gradientTransform="matrix(1 0 0 -1 0 -16743.85)" gradientUnits="userSpaceOnUse"><stop offset=".13" stop-color="#dbe0e3"/><stop offset=".13" stop-color="#e0e5e8"/><stop offset=".44" stop-color="#e0e5e8"/><stop offset=".44" stop-color="#c0c4c6"/><stop offset=".84" stop-color="#c0c4c6"/><stop offset=".84" stop-color="#a8abad"/></linearGradient><linearGradient id="Ѕезым_нный_градиент_34" x1="130.42" y1="-16759.01" x2="123.46" y2="-16771.08" gradientTransform="matrix(1 0 0 -1 0 -16743.85)" gradientUnits="userSpaceOnUse"><stop offset=".16" stop-color="#797b7d"/><stop offset=".16" stop-color="#919496"/><stop offset=".56" stop-color="#919496"/><stop offset=".56" stop-color="#b1b5b8"/><stop offset=".87" stop-color="#b1b5b8"/><stop offset=".87" stop-color="#acb0b3"/></linearGradient><linearGradient id="Ѕезым_нный_градиент_34-2" x1="128.08" y1="-16759.74" x2="123.21" y2="-16768.18" xlink:href="#Ѕезым_нный_градиент_34"/><linearGradient id="Ѕезым_нный_градиент_34-3" x1="127.64" y1="-16762.7" x2="125.41" y2="-16766.55" xlink:href="#Ѕезым_нный_градиент_34"/><linearGradient id="Ѕезым_нный_градиент_35-3" x1="103.16" y1="-16761.08" x2="91.3" y2="-16781.61" xlink:href="#Ѕезым_нный_градиент_35"/><linearGradient id="Ѕезым_нный_градиент_35-4" x1="108.83" y1="-16764.28" x2="96.97" y2="-16784.82" xlink:href="#Ѕезым_нный_градиент_35"/><linearGradient id="Ѕезым_нный_градиент_40-2" x1="109.18" y1="-16780.13" x2="103.24" y2="-16772.85" xlink:href="#Ѕезым_нный_градиент_40"/><linearGradient id="Ѕезым_нный_градиент_34-4" x1="110.02" y1="-16770.79" x2="103.05" y2="-16782.86" xlink:href="#Ѕезым_нный_градиент_34"/><linearGradient id="Ѕезым_нный_градиент_34-5" x1="107.68" y1="-16771.52" x2="102.8" y2="-16779.96" xlink:href="#Ѕезым_нный_градиент_34"/><linearGradient id="Ѕезым_нный_градиент_34-6" x1="107.23" y1="-16774.48" x2="105.01" y2="-16778.33" xlink:href="#Ѕезым_нный_градиент_34"/><linearGradient id="Ѕезым_нный_градиент_35-5" x1="153.54" y1="-16766.73" x2="141.68" y2="-16787.27" xlink:href="#Ѕезым_нный_градиент_35"/><linearGradient id="Ѕезым_нный_градиент_35-6" x1="159.22" y1="-16769.93" x2="147.36" y2="-16790.47" xlink:href="#Ѕезым_нный_градиент_35"/><linearGradient id="Ѕезым_нный_градиент_40-3" x1="160.5" y1="-16775.38" x2="152.7" y2="-16788.89" xlink:href="#Ѕезым_нный_градиент_40"/><linearGradient id="Ѕезым_нный_градиент_34-7" x1="160.41" y1="-16776.44" x2="153.44" y2="-16788.51" xlink:href="#Ѕезым_нный_градиент_34"/><linearGradient id="Ѕезым_нный_градиент_4" x1="158.06" y1="-16777.17" x2="153.19" y2="-16785.61" gradientTransform="matrix(1 0 0 -1 0 -16743.85)" gradientUnits="userSpaceOnUse"><stop offset=".13" stop-color="#acb0b3"/><stop offset=".13" stop-color="#b1b5b8"/><stop offset=".44" stop-color="#b1b5b8"/><stop offset=".44" stop-color="#919496"/><stop offset=".84" stop-color="#919496"/><stop offset=".84" stop-color="#797b7d"/></linearGradient><linearGradient id="Ѕезым_нный_градиент_34-8" x1="157.62" y1="-16780.13" x2="155.39" y2="-16783.98" xlink:href="#Ѕезым_нный_градиент_34"/><linearGradient id="Ѕезым_нный_градиент_35-7" x1="133.14" y1="-16778.51" x2="121.28" y2="-16799.04" xlink:href="#Ѕезым_нный_градиент_35"/><linearGradient id="Ѕезым_нный_градиент_35-8" x1="138.81" y1="-16781.71" x2="126.95" y2="-16802.25" xlink:href="#Ѕезым_нный_градиент_35"/><linearGradient id="Ѕезым_нный_градиент_40-4" x1="140.1" y1="-16787.16" x2="132.3" y2="-16800.67" xlink:href="#Ѕезым_нный_градиент_40"/><linearGradient id="Ѕезым_нный_градиент_34-9" x1="140" y1="-16788.22" x2="133.04" y2="-16800.29" xlink:href="#Ѕезым_нный_градиент_34"/><linearGradient id="Ѕезым_нный_градиент_21-9" x1="89.11" y1="-16795.51" x2="93.29" y2="-16795.51" xlink:href="#Ѕезым_нный_градиент_21"/><linearGradient id="Ѕезым_нный_градиент_34-10" x1="137.21" y1="-16791.91" x2="134.99" y2="-16795.76" xlink:href="#Ѕезым_нный_градиент_34"/><linearGradient id="Ѕезым_нный_градиент_28" x1="122.22" y1="-16767.86" x2="130.31" y2="-16767.86" gradientTransform="matrix(1 0 0 -1 0 -16743.85)" gradientUnits="userSpaceOnUse"><stop offset=".16" stop-color="#4d4e4f"/><stop offset=".16" stop-color="#646668"/><stop offset=".56" stop-color="#646668"/><stop offset=".56" stop-color="#85888a"/><stop offset=".87" stop-color="#85888a"/><stop offset=".87" stop-color="#808385"/></linearGradient><linearGradient id="Ѕезым_нный_градиент_34-11" x1="128.65" y1="-16760.29" x2="123.42" y2="-16769.35" xlink:href="#Ѕезым_нный_градиент_34"/><linearGradient id="Ѕезым_нный_градиент_21" x1="58.03" y1="-16775.6" x2="62.22" y2="-16775.6" gradientTransform="matrix(1 0 0 -1 0 -16743.85)" gradientUnits="userSpaceOnUse"><stop offset=".16" stop-color="#a7aaac"/><stop offset=".16" stop-color="#bec2c5"/><stop offset=".56" stop-color="#bec2c5"/><stop offset=".56" stop-color="#dee3e7"/><stop offset=".87" stop-color="#dee3e7"/><stop offset=".87" stop-color="#d9dee2"/></linearGradient><linearGradient id="Ѕезым_нный_градиент_21-2" x1="38.02" y1="-16798.15" x2="44.43" y2="-16798.15" xlink:href="#Ѕезым_нный_градиент_21"/><linearGradient id="Ѕезым_нный_градиент_25" x1="37.66" y1="-16796.67" x2="44.79" y2="-16796.67" gradientTransform="matrix(1 0 0 -1 0 -16743.85)" gradientUnits="userSpaceOnUse"><stop offset=".16" stop-color="#bcc0c2"/><stop offset=".16" stop-color="#d3d7db"/><stop offset=".56" stop-color="#d3d7db"/><stop offset=".56" stop-color="#f3f8fd"/><stop offset=".87" stop-color="#f3f8fd"/><stop offset=".87" stop-color="#eef3f8"/></linearGradient><linearGradient id="Ѕезым_нный_градиент_21-3" x1="38.02" y1="-16794.13" x2="44.43" y2="-16794.13" xlink:href="#Ѕезым_нный_градиент_21"/><linearGradient id="Ѕезым_нный_градиент_25-2" x1="37.66" y1="-16791.32" x2="44.79" y2="-16791.32" xlink:href="#Ѕезым_нный_градиент_25"/><linearGradient id="Ѕезым_нный_градиент_21-4" x1="38.02" y1="-16789.86" x2="44.43" y2="-16789.86" xlink:href="#Ѕезым_нный_градиент_21"/><linearGradient id="Ѕезым_нный_градиент_20" x1="22.48" y1="-16814.14" x2="24.81" y2="-16818.17" gradientTransform="matrix(1 0 0 -1 0 -16743.85)" gradientUnits="userSpaceOnUse"><stop offset=".13" stop-color="#d9dee2"/><stop offset=".13" stop-color="#dee3e7"/><stop offset=".44" stop-color="#dee3e7"/><stop offset=".44" stop-color="#bec2c5"/><stop offset=".84" stop-color="#bec2c5"/><stop offset=".84" stop-color="#a7aaac"/></linearGradient><linearGradient id="Ѕезым_нный_градиент_21-5" x1="108.03" y1="-16811.88" x2="102.26" y2="-16801.88" xlink:href="#Ѕезым_нный_градиент_21"/><linearGradient id="Ѕезым_нный_градиент_35-9" x1="72.13" y1="-16821.41" x2="60.27" y2="-16841.95" xlink:href="#Ѕезым_нный_градиент_35"/><linearGradient id="Ѕезым_нный_градиент_40-5" x1="73.41" y1="-16826.86" x2="65.61" y2="-16840.37" xlink:href="#Ѕезым_нный_градиент_40"/><linearGradient id="Ѕезым_нный_градиент_34-12" x1="73.32" y1="-16827.92" x2="66.35" y2="-16839.99" xlink:href="#Ѕезым_нный_градиент_34"/><linearGradient id="Ѕезым_нный_градиент_4-3" x1="70.97" y1="-16828.65" x2="66.1" y2="-16837.09" xlink:href="#Ѕезым_нный_градиент_4"/><linearGradient id="Ѕезым_нный_градиент_34-13" x1="70.53" y1="-16831.6" x2="68.3" y2="-16835.46" xlink:href="#Ѕезым_нный_градиент_34"/><linearGradient id="Ѕезым_нный_градиент_21-6" x1="70.88" y1="-16818.45" x2="77.29" y2="-16818.45" xlink:href="#Ѕезым_нный_градиент_21"/><linearGradient id="Ѕезым_нный_градиент_25-3" x1="70.52" y1="-16816.96" x2="77.65" y2="-16816.96" xlink:href="#Ѕезым_нный_градиент_25"/><linearGradient id="Ѕезым_нный_градиент_21-7" x1="70.88" y1="-16814.43" x2="77.29" y2="-16814.43" xlink:href="#Ѕезым_нный_градиент_21"/><linearGradient id="Ѕезым_нный_градиент_25-4" x1="70.52" y1="-16811.62" x2="77.65" y2="-16811.62" xlink:href="#Ѕезым_нный_градиент_25"/><linearGradient id="Ѕезым_нный_градиент_21-8" x1="70.88" y1="-16810.16" x2="77.29" y2="-16810.16" xlink:href="#Ѕезым_нный_градиент_21"/><linearGradient id="Ѕезым_нный_градиент_20-2" x1="53.5" y1="-16832.05" x2="55.82" y2="-16836.09" xlink:href="#Ѕезым_нный_градиент_20"/><style>.cls-3{fill:#b2b2b2}.cls-4{fill:#888}.cls-7{fill:#424852}.cls-10{fill:#d7d9db}.cls-12{fill:#e3e5e6}.cls-14{fill:#d9dbdd}.cls-23{fill:#add1b9}.cls-24{fill:#878787}.cls-25{fill:#747474}.cls-27{fill:#4f4f4f}.cls-40{fill:#d9483d}.cls-41{fill:#ff574c}.cls-42{fill:#b23625}.cls-43{fill:#bdc1c4}.cls-47{fill:#a6a9ab}.cls-49{fill:#e1f0f0}.cls-50{fill:#b9c6c7}.cls-51{fill:#dde2e6}.cls-54{fill:#bfcccc}.cls-60{fill:#828282}.cls-61{fill:#bdcedf}.cls-62{fill:#e2e9ec}.cls-64{fill:#74c7ac}.cls-67{fill:#80898a}.cls-78{fill:#eac72f}.cls-79{fill:#ff7660}.cls-80{fill:#ff8c6f}.cls-83{fill:#cedbdb}.cls-84{fill:#99afba}.cls-100{fill:#a93e38}.cls-101{fill:#ed8333}.cls-102{fill:#edbd51}.cls-109{fill:#6bb5ff}.cls-111{fill:#73818e}.cls-112{fill:#4b4146}</style></defs><g style="isolation:isolate"><g id="Слой_2" data-name="Слой 2"><g id="Layer_1" data-name="Layer 1"><g id="_Группа_" data-name="&lt;Группа&gt;"><path id="_Составной_контур_" data-name="&lt;Составной контур&gt;" d="M13.65 80.53l27.52 14.7L23.8 81.78l-3.22-1.46A25.72 25.72 0 0033.84 77c4.74-3 4.87-6.68.53-8.61a50.85 50.85 0 0110.18 1.11l.37-1.37-.57-7.21L49 62.47l11.23-7A4 4 0 0063 55l13.95-8.54a4.74 4.74 0 00.65-2.34c5.32 1.65 13.5.51 18.48-2.6s4.87-7.2-.43-9a19.31 19.31 0 00-6.55-.84c-1.91.05-2.88-1.9-1.39-2.83l3.55-2.2c1.09-.67 2.8-.23 3.12.88.38 1.34 1.72 2.52 4 3.28 5.31 1.79 13.72.66 18.79-2.51s4.87-7.2-.43-9C114.46 18.53 17.6 80.77 14.69 81c-1.37.11 42.47 25.55 43.55 24.89l110.18-65.56-52-24.46 4.6-3.12-5.62-1.89-.88.61-8.45-2.85-7.79 1.57L88.24 16l-4.66-.35-1 .4c1.39-2-.27-2.56-2.14-3.19l.34.08c-2.92-1-9.05 1-13.7 4.46s-5.94 6.81-3.36 7.91l-1.39-.41 1.3.44a9 9 0 004.7-.14L66.27 27l2.14 2-3.89 2.65-2.81.35-1.62 1-9.62-3.24-11.7-2.29-2.08 1.35-10.95-3.61c-4.64 2.19-5.1 9.7-5.13 11.91a2.16 2.16 0 00-1 .55l-4.47-1.51a4.37 4.37 0 01-1.07-.47h-.06a.4.4 0 01-.17-.26c0-.22.2-.45.17-.83l-.27-.15-1.08-.61-1.34-.84-.32-.19-.36.57a4.5 4.5 0 00-.42 1.62c0 1.21 1 1.8 2.95 2.45l5.66 1.91a1.74 1.74 0 000 .4 51.67 51.67 0 00-7.61 7.26l2.2-.07 7.61 5.48C9.7 59.91 3.56 64.87 3.56 64.87l-.67-.23L0 66.82s10.65 9.92 11.57 11.73c0 .68.44 1.15 1.36 1.74h.1l.54.33z" style="mix-blend-mode:multiply" fill="url(#Ѕезым_нный_градиент_2)"/><g id="_Группа_2" data-name="&lt;Группа&gt;"><g id="_Группа_3" data-name="&lt;Группа&gt;"><path id="_Контур_" data-name="&lt;Контур&gt;" class="cls-3" d="M167.22 24.06l1.84-.94L136.3 4.2l-1.84.95 32.76 18.91z"/><path id="_Контур_2" data-name="&lt;Контур&gt;" class="cls-4" d="M167.22 29.26l1.84-.95v-5.19l-1.84.94v5.2z"/><path id="_Контур_3" data-name="&lt;Контур&gt;" fill="#5a5c54" d="M134.46 5.15l32.76 18.91v5.2l-32.76-18.92V5.15z"/></g><g id="_Группа_4" data-name="&lt;Группа&gt;"><g id="_Группа_5" data-name="&lt;Группа&gt;"><path id="_Контур_4" data-name="&lt;Контур&gt;" d="M107.62 20.25a5 5 0 001.94 4.43c1.63 1.09 5.12 3 5.12 3 4.91-2.83 14.54-12.67 14.54-17.58 0-2.13-4.59-3.75-5.85-4.56-1.63-1-4.1-.89-6.88.71-4.9 2.82-8.87 9.09-8.87 14z" fill="url(#Ѕезым_нный_градиент_35)"/><path id="_Контур_5" data-name="&lt;Контур&gt;" class="cls-7" d="M112.42 23c0 4.91 4 6.59 8.88 3.76s8.88-9.11 8.88-14-4-6.59-8.88-3.76-8.88 9.14-8.88 14z"/><path id="_Контур_6" data-name="&lt;Контур&gt;" d="M113.29 23.45a5 5 0 001.94 4.43c1.63 1.09 5.12 3 5.12 3 4.91-2.88 14.55-12.69 14.55-17.6 0-2.13-4.59-3.75-5.85-4.56-1.63-1-4.1-.89-6.88.71-4.9 2.84-8.88 9.11-8.88 14.02z" fill="url(#Ѕезым_нный_градиент_35-2)"/><path id="_Контур_7" data-name="&lt;Контур&gt;" class="cls-7" d="M118.1 26.25c0 4.91 4 6.59 8.88 3.76s8.88-9.11 8.88-14-4-6.59-8.88-3.76-8.88 9.09-8.88 14z"/><path id="_Контур_8" data-name="&lt;Контур&gt;" d="M120.72 24.26c0 3.26 2.64 4.37 5.9 2.49s5.9-6 5.9-9.3-2.64-4.37-5.9-2.49-5.9 6.04-5.9 9.3z" fill="url(#Ѕезым_нный_градиент_40)"/><path id="_Контур_9" data-name="&lt;Контур&gt;" class="cls-10" d="M121.08 24.53c0 3.26 2.64 4.37 5.9 2.49s5.9-6 5.9-9.3-2.64-4.37-5.9-2.49-5.9 6.04-5.9 9.3z"/><path id="_Контур_10" data-name="&lt;Контур&gt;" d="M132.27 18.07c0 2.92-2.37 6.66-5.29 8.35s-5.29.68-5.29-2.24a5.55 5.55 0 01.09-1 11.45 11.45 0 015.2-7.36c.21-.12.42-.23.63-.32 2.63-1.21 4.66-.14 4.66 2.57z" fill="url(#Ѕезым_нный_градиент_34)"/><path id="_Контур_11" data-name="&lt;Контур&gt;" class="cls-12" d="M129.7 17.76a8.28 8.28 0 01-4 6.31 4.62 4.62 0 01-1.17.51 2 2 0 01-2.61-1 1.64 1.64 0 01-.13-.39 7.72 7.72 0 01.29-1.2 11.89 11.89 0 014.16-5.66 8.72 8.72 0 01.75-.5l.53-.27.1-.05c1.22-.05 2.06.76 2.08 2.25z"/><path id="_Контур_12" data-name="&lt;Контур&gt;" d="M129.34 17.21c0 2.17-2.74 6.12-4.92 7.41h-.09a.93.93 0 01-.28-.09h-.11a13.73 13.73 0 01-2-.89 1.64 1.64 0 01-.13-.39 7.72 7.72 0 01.29-1.2 11.89 11.89 0 014.16-5.66 8.72 8.72 0 01.75-.5l.53-.27a13.61 13.61 0 011.6 1.4z" fill="url(#Ѕезым_нный_градиент_34-2)"/><path id="_Контур_13" data-name="&lt;Контур&gt;" class="cls-14" d="M129.84 18.66a7.16 7.16 0 01-3.45 5.45c-1.9 1.1-3.45.44-3.45-1.46A3.63 3.63 0 01123 22a7.47 7.47 0 013.39-4.8l.41-.21c1.72-.79 3.04-.1 3.04 1.67z"/><path id="_Контур_14" data-name="&lt;Контур&gt;" d="M128.2 19.8a3.49 3.49 0 01-1.68 2.65c-.93.53-1.68.22-1.68-.71a1.76 1.76 0 010-.32 3.64 3.64 0 011.65-2.34l.2-.1c.87-.38 1.51-.04 1.51.82z" fill="url(#Ѕезым_нный_градиент_34-3)"/><path id="_Контур_15" data-name="&lt;Контур&gt;" class="cls-12" d="M126.76 20a1.4 1.4 0 01-.67 1.06c-.37.21-.67.09-.67-.28a.71.71 0 010-.13 1.46 1.46 0 01.66-.94h.08c.35-.16.6-.03.6.29z"/></g><g id="_Группа_6" data-name="&lt;Группа&gt;"><path id="_Контур_16" data-name="&lt;Контур&gt;" d="M87.21 32a5 5 0 001.94 4.43c1.63 1.09 5.12 3 5.12 3 4.91-2.83 14.54-12.67 14.54-17.58 0-2.13-4.59-3.75-5.85-4.56-1.63-1-4.1-.89-6.88.71-4.89 2.84-8.87 9.12-8.87 14z" fill="url(#Ѕезым_нный_градиент_35-3)"/><path id="_Контур_17" data-name="&lt;Контур&gt;" class="cls-7" d="M92 34.83c0 4.91 4 6.59 8.88 3.76s8.88-9.11 8.88-14-4-6.59-8.88-3.76-8.88 9.09-8.88 14z"/><path id="_Контур_18" data-name="&lt;Контур&gt;" d="M92.89 35.23a5 5 0 001.94 4.43c1.63 1.09 5.12 3 5.12 3 4.91-2.85 14.55-12.66 14.55-17.6 0-2.13-4.59-3.75-5.85-4.56-1.63-1-4.1-.89-6.88.71-4.91 2.79-8.88 9.11-8.88 14.02z" fill="url(#Ѕезым_нный_градиент_35-4)"/><path id="_Контур_19" data-name="&lt;Контур&gt;" class="cls-7" d="M97.69 38c0 4.91 4 6.59 8.88 3.76s8.88-9.11 8.88-14-4-6.59-8.88-3.76-8.88 9.12-8.88 14z"/><path id="_Контур_20" data-name="&lt;Контур&gt;" d="M100.32 36c0 3.26 2.64 4.37 5.9 2.49s5.9-6 5.9-9.3-2.64-4.37-5.9-2.49-5.9 6.08-5.9 9.3z" fill="url(#Ѕезым_нный_градиент_40-2)"/><path id="_Контур_21" data-name="&lt;Контур&gt;" class="cls-10" d="M100.68 36.3c0 3.26 2.64 4.37 5.9 2.49s5.9-6 5.9-9.3-2.64-4.37-5.9-2.49-5.9 6-5.9 9.3z"/><path id="_Контур_22" data-name="&lt;Контур&gt;" d="M111.87 29.85c0 2.92-2.37 6.66-5.29 8.35s-5.29.68-5.29-2.24a5.55 5.55 0 01.09-1 11.45 11.45 0 015.2-7.36c.21-.12.42-.23.63-.32 2.62-1.21 4.66-.15 4.66 2.57z" fill="url(#Ѕезым_нный_градиент_34-4)"/><path id="_Контур_23" data-name="&lt;Контур&gt;" class="cls-12" d="M109.3 29.54a8.28 8.28 0 01-4 6.31 4.62 4.62 0 01-1.17.51 2 2 0 01-2.61-1 1.64 1.64 0 01-.13-.39 7.71 7.71 0 01.29-1.2 11.88 11.88 0 014.16-5.66 8.74 8.74 0 01.75-.5l.53-.27.1-.05c1.22-.05 2.06.71 2.08 2.25z"/><path id="_Контур_24" data-name="&lt;Контур&gt;" d="M108.93 29c0 2.17-2.74 6.12-4.92 7.41h-.09a.93.93 0 01-.28-.09h-.11a13.72 13.72 0 01-2-.89 1.64 1.64 0 01-.13-.39 7.71 7.71 0 01.29-1.2 11.88 11.88 0 014.16-5.66 8.74 8.74 0 01.75-.5l.53-.27a13.61 13.61 0 011.6 1.4z" fill="url(#Ѕезым_нный_градиент_34-5)"/><path id="_Контур_25" data-name="&lt;Контур&gt;" class="cls-14" d="M109.44 30.44a7.16 7.16 0 01-3.44 5.45c-1.9 1.1-3.45.44-3.45-1.46a3.62 3.62 0 01.06-.65A7.47 7.47 0 01106 29l.41-.21c1.7-.79 3.03-.12 3.03 1.65z"/><path id="_Контур_26" data-name="&lt;Контур&gt;" d="M107.8 31.58a3.49 3.49 0 01-1.68 2.65c-.93.53-1.68.22-1.68-.71a1.77 1.77 0 010-.32 3.64 3.64 0 011.65-2.34l.2-.1c.86-.38 1.51-.04 1.51.82z" fill="url(#Ѕезым_нный_градиент_34-6)"/><path id="_Контур_27" data-name="&lt;Контур&gt;" class="cls-12" d="M106.36 31.81a1.4 1.4 0 01-.67 1.06c-.37.21-.67.09-.67-.28a.7.7 0 010-.13 1.46 1.46 0 01.66-.94h.08c.34-.19.6-.06.6.29z"/></g></g><path id="_Контур_28" data-name="&lt;Контур&gt;" fill="#725986" d="M138.31 21.84l-1.43.82v-9.04l1.43-.83v9.05z"/><path id="_Контур_29" data-name="&lt;Контур&gt;" class="cls-23" d="M121.94 24.14c0 2.78 2.26 3.74 5 2.13s5-5.17 5-7.95-2.26-3.74-5-2.13-5 5.17-5 7.95z"/><path id="_Контур_30" data-name="&lt;Контур&gt;" class="cls-24" d="M160.57 20.89l-53.99 27.96-18.84-12.01 45.42-26.22 7.12-1.45 20.29 11.72z"/><path id="_Контур_31" data-name="&lt;Контур&gt;" class="cls-25" d="M160.57 20.89L152 22.63l-18.84-12.01 7.12-1.45 20.29 11.72z"/><path id="_Контур_32" data-name="&lt;Контур&gt;" fill="#a4a4a4" d="M107.9 26.79l22.03-12.72 12.6 7.16-22.02 12.72-12.61-7.16z"/><ellipse id="_Контур_33" data-name="&lt;Контур&gt;" class="cls-24" cx="126.26" cy="22.45" rx="7.51" ry="4.89"/><path id="_Контур_34" data-name="&lt;Контур&gt;" class="cls-27" d="M160.57 25.04l-53.99 31.17v-7.36L152 22.63l8.57-1.74v4.15z"/><path id="_Контур_35" data-name="&lt;Контур&gt;" class="cls-25" d="M120.51 33.95l22.02-12.72 1.33 2.62-24.68 14.25 1.33-4.15z"/><g id="_Группа_7" data-name="&lt;Группа&gt;"><path id="_Контур_36" data-name="&lt;Контур&gt;" d="M137.6 37.68a5 5 0 001.94 4.43c1.63 1.09 5.12 3 5.12 3 4.91-2.83 14.54-12.67 14.54-17.58 0-2.13-4.59-3.75-5.85-4.56-1.63-1-4.1-.89-6.88.71-4.89 2.82-8.87 9.09-8.87 14z" fill="url(#Ѕезым_нный_градиент_35-5)"/><path id="_Контур_37" data-name="&lt;Контур&gt;" class="cls-7" d="M142.4 40.48c0 4.91 4 6.59 8.88 3.76s8.88-9.11 8.88-14-4-6.59-8.88-3.76-8.88 9.09-8.88 14z"/><path id="_Контур_38" data-name="&lt;Контур&gt;" d="M143.27 40.88a5 5 0 001.94 4.43c1.63 1.09 5.12 3 5.12 3 4.91-2.83 14.54-12.67 14.54-17.58 0-2.13-4.59-3.75-5.85-4.56-1.63-1-4.1-.89-6.88.71-4.89 2.82-8.87 9.12-8.87 14z" fill="url(#Ѕезым_нный_градиент_35-6)"/><path id="_Контур_39" data-name="&lt;Контур&gt;" class="cls-7" d="M148.08 43.68c0 4.91 4 6.59 8.88 3.76s8.88-9.11 8.88-14-4-6.59-8.88-3.76-8.88 9.09-8.88 14z"/><path id="_Контур_40" data-name="&lt;Контур&gt;" d="M150.7 41.69c0 3.26 2.64 4.37 5.9 2.49s5.9-6 5.9-9.3-2.64-4.37-5.9-2.49-5.9 6.04-5.9 9.3z" fill="url(#Ѕезым_нный_градиент_40-3)"/><path id="_Контур_41" data-name="&lt;Контур&gt;" class="cls-10" d="M151.07 42c0 3.26 2.64 4.37 5.9 2.49s5.9-6 5.9-9.3-2.64-4.37-5.9-2.49-5.9 6-5.9 9.3z"/><path id="_Контур_42" data-name="&lt;Контур&gt;" d="M162.25 35.5c0 2.92-2.37 6.66-5.29 8.35s-5.29.68-5.29-2.24a5.56 5.56 0 01.09-1 11.45 11.45 0 015.2-7.36c.21-.12.42-.23.63-.32 2.63-1.21 4.66-.14 4.66 2.57z" fill="url(#Ѕезым_нный_градиент_34-7)"/><path id="_Контур_43" data-name="&lt;Контур&gt;" class="cls-12" d="M159.68 35.19a8.28 8.28 0 01-4 6.31 4.62 4.62 0 01-1.17.51 2 2 0 01-2.61-1 1.65 1.65 0 01-.13-.39 7.72 7.72 0 01.29-1.2 11.88 11.88 0 014.16-5.66 8.68 8.68 0 01.75-.5l.53-.27.1-.05c1.22-.05 2.06.76 2.08 2.25z"/><path id="_Контур_44" data-name="&lt;Контур&gt;" d="M159.32 34.64c0 2.17-2.74 6.12-4.92 7.41h-.09a.93.93 0 01-.28-.09h-.11a13.72 13.72 0 01-2-.89 1.65 1.65 0 01-.13-.39 7.72 7.72 0 01.29-1.2 11.88 11.88 0 014.16-5.66 8.68 8.68 0 01.75-.5l.53-.27a13.62 13.62 0 011.6 1.4z" fill="url(#Ѕезым_нный_градиент_4)"/><path id="_Контур_45" data-name="&lt;Контур&gt;" class="cls-14" d="M159.82 36.09a7.16 7.16 0 01-3.45 5.45c-1.9 1.1-3.45.44-3.45-1.46a3.63 3.63 0 01.06-.65 7.47 7.47 0 013.39-4.8l.41-.21c1.72-.79 3.04-.1 3.04 1.67z"/><path id="_Контур_46" data-name="&lt;Контур&gt;" d="M158.19 37.23a3.49 3.49 0 01-1.68 2.65c-.93.53-1.68.22-1.68-.71a1.77 1.77 0 010-.32 3.64 3.64 0 011.65-2.34l.2-.1c.86-.41 1.51-.04 1.51.82z" fill="url(#Ѕезым_нный_градиент_34-8)"/><path id="_Контур_47" data-name="&lt;Контур&gt;" class="cls-12" d="M156.75 37.46a1.4 1.4 0 01-.67 1.06c-.37.21-.67.09-.67-.28a.71.71 0 010-.13 1.46 1.46 0 01.66-.94h.08c.34-.17.6-.06.6.29z"/></g><g id="_Группа_8" data-name="&lt;Группа&gt;"><path id="_Контур_48" data-name="&lt;Контур&gt;" d="M117.19 49.45a5 5 0 001.94 4.43c1.63 1.09 5.12 3 5.12 3 4.92-2.88 14.55-12.69 14.55-17.59 0-2.13-4.59-3.75-5.85-4.56-1.63-1-4.1-.89-6.88.71-4.9 2.83-8.88 9.11-8.88 14.01z" fill="url(#Ѕезым_нный_градиент_35-7)"/><path id="_Контур_49" data-name="&lt;Контур&gt;" class="cls-7" d="M122 52.25c0 4.91 4 6.59 8.88 3.76s8.88-9.11 8.88-14-4-6.59-8.88-3.76-8.88 9.1-8.88 14z"/><path id="_Контур_50" data-name="&lt;Контур&gt;" d="M122.87 52.66a5 5 0 001.94 4.43c1.63 1.09 5.12 3 5.12 3 4.91-2.83 14.54-12.67 14.54-17.58 0-2.13-4.59-3.75-5.85-4.56-1.63-1-4.1-.89-6.88.71-4.89 2.82-8.87 9.09-8.87 14z" fill="url(#Ѕезым_нный_градиент_35-8)"/><path id="_Контур_51" data-name="&lt;Контур&gt;" class="cls-7" d="M127.68 55.46c0 4.91 4 6.59 8.88 3.76s8.88-9.11 8.88-14-4-6.59-8.88-3.76-8.88 9.09-8.88 14z"/><path id="_Контур_52" data-name="&lt;Контур&gt;" d="M130.3 53.47c0 3.26 2.64 4.37 5.9 2.49s5.9-6 5.9-9.3-2.64-4.37-5.9-2.49-5.9 6.04-5.9 9.3z" fill="url(#Ѕезым_нный_градиент_40-4)"/><path id="_Контур_53" data-name="&lt;Контур&gt;" class="cls-10" d="M130.66 53.73c0 3.26 2.64 4.37 5.9 2.49s5.9-6 5.9-9.3-2.64-4.37-5.9-2.49-5.9 6.05-5.9 9.3z"/><path id="_Контур_54" data-name="&lt;Контур&gt;" d="M141.85 47.28c0 2.92-2.37 6.66-5.29 8.35s-5.29.68-5.29-2.24a5.55 5.55 0 01.09-1 11.45 11.45 0 015.2-7.36c.21-.12.42-.23.63-.32 2.63-1.21 4.66-.15 4.66 2.57z" fill="url(#Ѕезым_нный_градиент_34-9)"/><path id="_Контур_55" data-name="&lt;Контур&gt;" class="cls-12" d="M139.28 47a8.28 8.28 0 01-4 6.31 4.62 4.62 0 01-1.17.51 2 2 0 01-2.61-1 1.64 1.64 0 01-.13-.39 7.72 7.72 0 01.29-1.2 11.88 11.88 0 014.16-5.66 8.72 8.72 0 01.75-.5l.53-.27.1-.05c1.22-.08 2.06.72 2.08 2.25z"/><path id="_Контур_56" data-name="&lt;Контур&gt;" d="M138.91 46.42c0 2.16-2.74 6.12-4.92 7.41h-.09a.93.93 0 01-.28-.09h-.11a13.73 13.73 0 01-2-.89 1.64 1.64 0 01-.13-.39 7.72 7.72 0 01.29-1.2 11.88 11.88 0 014.16-5.66 8.72 8.72 0 01.75-.5l.53-.27a13.61 13.61 0 011.6 1.4z" fill="url(#Ѕезым_нный_градиент_4-2)"/><path id="_Контур_57" data-name="&lt;Контур&gt;" class="cls-14" d="M139.42 47.87a7.16 7.16 0 01-3.42 5.45c-1.9 1.1-3.45.44-3.45-1.46a3.63 3.63 0 01.06-.65 7.47 7.47 0 013.39-4.8l.41-.21c1.68-.79 3.01-.1 3.01 1.67z"/><path id="_Контур_58" data-name="&lt;Контур&gt;" d="M137.78 49a3.49 3.49 0 01-1.68 2.65c-.93.53-1.68.22-1.68-.71a1.77 1.77 0 010-.32 3.64 3.64 0 011.65-2.34l.2-.1c.87-.37 1.51-.03 1.51.82z" fill="url(#Ѕезым_нный_градиент_34-10)"/><path id="_Контур_59" data-name="&lt;Контур&gt;" class="cls-12" d="M136.34 49.24a1.4 1.4 0 01-.67 1.06c-.37.21-.67.09-.67-.28a.71.71 0 010-.13 1.46 1.46 0 01.66-.94h.08c.34-.2.6-.06.6.29z"/></g><g id="_Группа_9" data-name="&lt;Группа&gt;"><g id="_Группа_10" data-name="&lt;Группа&gt;"><path id="_Контур_60" data-name="&lt;Контур&gt;" class="cls-40" d="M132.55 41c0 .46-3.25 3.83-6.13 8.94a37.49 37.49 0 00-3.28 7.63l-7.84-5a20.75 20.75 0 012.39-7.69 31.71 31.71 0 017-8.88z"/></g><path id="_Контур_61" data-name="&lt;Контур&gt;" class="cls-41" d="M132.55 41c0 .46-3.25 3.83-6.13 8.94l-8.73-5a31.71 31.71 0 017-8.88z"/><path id="_Контур_62" data-name="&lt;Контур&gt;" class="cls-42" d="M124.14 57.21l-1 .36c.86-9.32 9.07-16.28 9.42-16.57l.47.66c-.09.07-8.09 6.86-8.89 15.55z"/></g><path id="_Контур_63" data-name="&lt;Контур&gt;" class="cls-27" d="M107.9 26.79l12.61 7.16-1.33 4.15-12.6-7.16 1.32-4.15z"/><path id="_Контур_64" data-name="&lt;Контур&gt;" class="cls-43" d="M107.95 24.84l1.67 8.27v8.9l2.81-1.63v4.94l-2.81 1.62-.78.44-2.55 1.48V25.8l1.66-.96z"/><g id="_Группа_11" data-name="&lt;Группа&gt;"><path id="_Контур_65" data-name="&lt;Контур&gt;" d="M122.22 21.68v2.15c0 1.45 1.81 2.63 4 2.63s4-1.18 4-2.63v-2.28z" fill="url(#Ѕезым_нный_градиент_28)"/><path id="_Контур_66" data-name="&lt;Контур&gt;" d="M118.75 19.64v1c0 2.7 3.36 4.89 7.51 4.89s7.51-2.19 7.51-4.89V19.4z" fill="url(#Ѕезым_нный_градиент_34-11)"/><ellipse id="_Контур_67" data-name="&lt;Контур&gt;" cx="126.26" cy="19.64" rx="7.51" ry="4.89" fill="#bbb"/></g><path id="_Контур_68" data-name="&lt;Контур&gt;" class="cls-47" d="M112.43 40.38l-2.81-2.18v3.81l2.81-1.63z"/><path id="_Контур_69" data-name="&lt;Контур&gt;" class="cls-47" d="M107.95 24.84l-.66-.94v1.32l.66-.38z"/></g><g id="_Группа_12" data-name="&lt;Группа&gt;"><path id="_Контур_70" data-name="&lt;Контур&gt;" d="M58 17.94v26.33c0 .75.94 1.36 2.09 1.36s2.09-.61 2.09-1.36v-26.4z" fill="url(#Ѕезым_нный_градиент_21)"/><ellipse id="_Контур_71" data-name="&lt;Контур&gt;" class="cls-49" cx="60.13" cy="17.94" rx="2.09" ry="1.36"/><g id="_Группа_13" data-name="&lt;Группа&gt;"><path id="_Контур_72" data-name="&lt;Контур&gt;" class="cls-50" d="M63.57 6.49a2.67 2.67 0 01-1 2.31l-.57.45a2 2 0 00-.77 1.6v6.75a1.11 1.11 0 01-1.09.56 1.13 1.13 0 01-1.06-.52V10.3a3.57 3.57 0 011.32-2.77l2.31-2.08s.76-.2.86 1.04z"/><path id="_Контур_73" data-name="&lt;Контур&gt;" class="cls-51" d="M59.5 18v-7.35a3.57 3.57 0 011.32-2.77l2.31-2.08a.64.64 0 01.26 0 .66.66 0 00-.71-.35l-2.31 2.08a3.57 3.57 0 00-1.32 2.77v7.35a.84.84 0 00.48.4z"/><path id="_Контур_74" data-name="&lt;Контур&gt;" class="cls-47" d="M63.21 8L62 9.14a3.57 3.57 0 00-1.32 2.77v6.15a.85.85 0 00.55-.46v-6.75a2 2 0 01.77-1.6l.56-.46a2.85 2.85 0 00.65-.79z"/></g></g><g id="_Группа_14" data-name="&lt;Группа&gt;"><path id="_Контур_75" data-name="&lt;Контур&gt;" d="M38 52.78v1c0 1.15 1.43 2.09 3.2 2.09s3.2-.93 3.2-2.09v-1.1z" fill="url(#Ѕезым_нный_градиент_21-2)"/><path id="_Контур_76" data-name="&lt;Контур&gt;" d="M37.66 51.13v1.16c0 1.28 1.6 2.32 3.56 2.32s3.56-1 3.56-2.32V51z" fill="url(#Ѕезым_нный_градиент_25)"/><ellipse id="_Контур_77" data-name="&lt;Контур&gt;" class="cls-54" cx="41.23" cy="51.13" rx="3.56" ry="2.32"/><path id="_Контур_78" data-name="&lt;Контур&gt;" d="M38 47.84v2.88c0 1.15 1.43 2.09 3.2 2.09s3.2-.93 3.2-2.09v-3z" fill="url(#Ѕезым_нный_градиент_21-3)"/><path id="_Контур_79" data-name="&lt;Контур&gt;" d="M37.66 45.79v1.16c0 1.28 1.6 2.32 3.56 2.32s3.56-1 3.56-2.32v-1.28z" fill="url(#Ѕезым_нный_градиент_25-2)"/><ellipse id="_Контур_80" data-name="&lt;Контур&gt;" class="cls-54" cx="41.23" cy="45.79" rx="3.56" ry="2.32"/><path id="_Контур_81" data-name="&lt;Контур&gt;" d="M38 44.5v1c0 1.15 1.43 2.09 3.2 2.09s3.2-.93 3.2-2.09v-1.11z" fill="url(#Ѕезым_нный_градиент_21-4)"/><path id="_Контур_82" data-name="&lt;Контур&gt;" class="cls-49" d="M44.43 44.5c0 1.15-1.43 2.09-3.2 2.09S36 45.92 36 44.77s3.43-2.35 5.2-2.35 3.23.93 3.23 2.08z"/></g><path id="_Контур_83" data-name="&lt;Контур&gt;" class="cls-23" d="M26.27 79.58c0 2.95 2.39 4 5.33 2.26s5.33-6.91 5.33-9.85-2.39-2.51-5.33-.81c.89-.53-5.33 10.19-5.33 8.4z"/><g id="_Группа_15" data-name="&lt;Группа&gt;"><g id="_Группа_16" data-name="&lt;Группа&gt;"><path id="_Контур_84" data-name="&lt;Контур&gt;" d="M47.16 66.89c-.88-5-2.87-7.51-5.92-7.53h-.54c-.31-.55-3.54.15-4 .45-.23.15-4 5.09-10.6 16.66l-6-3.34c1.16-6.12 9.09-18 16.27-18h.05a6.07 6.07 0 012.62.58c1 .5 5.79 2.57 6.67 4 .8 1.38 1.03 4.82 1.45 7.18z" fill="#c4372a"/></g></g><g id="_Группа_17" data-name="&lt;Группа&gt;"><g id="_Группа_18" data-name="&lt;Группа&gt;"><path id="_Контур_85" data-name="&lt;Контур&gt;" d="M25.84 71.85v1.35a.59.59 0 01-.32.53c-.17.09-1.07.76-1.26.65l-3-3.62a1.58 1.58 0 01-.8-1.37l-1.59-.66c0-.2 1-.63 1.12-.73h.06a.59.59 0 01.59 0L25 70.48a1.58 1.58 0 01.84 1.37z" fill="url(#Ѕезым_нный_градиент_20)"/><path id="_Контур_86" data-name="&lt;Контур&gt;" class="cls-60" d="M24.74 72.49v1.35a.59.59 0 01-.89.51l-4.41-2.51a1.58 1.58 0 01-.8-1.37v-1.35a.59.59 0 01.89-.51l4.41 2.51a1.58 1.58 0 01.8 1.37z"/></g><path id="_Контур_87" data-name="&lt;Контур&gt;" class="cls-61" d="M21.35 71.39a.76.76 0 01-.09.39c-.17.31-.59.37-1.06.09A2.37 2.37 0 0119 70c0-.46.26-.71.66-.66a1.25 1.25 0 01.51.17 2.39 2.39 0 011.18 1.88z"/><path id="_Контур_88" data-name="&lt;Контур&gt;" class="cls-61" d="M23.93 72.94a.76.76 0 01-.09.39c-.18.31-.59.37-1.07.1a2.42 2.42 0 01-1.15-1.83c0-.47.26-.71.65-.67a1.25 1.25 0 01.51.17 2.41 2.41 0 011.15 1.84z"/><path id="_Контур_89" data-name="&lt;Контур&gt;" class="cls-62" d="M21.35 71.39a.76.76 0 01-.09.39 1.25 1.25 0 01-.51-.17 2.39 2.39 0 01-1.15-1.83.76.76 0 01.09-.39 1.25 1.25 0 01.51.17 2.39 2.39 0 011.15 1.83z"/><path id="_Контур_90" data-name="&lt;Контур&gt;" class="cls-62" d="M23.93 72.94a.76.76 0 01-.09.39 1.09 1.09 0 01-.51-.16 2.43 2.43 0 01-1.16-1.83.8.8 0 01.09-.4 1.25 1.25 0 01.51.17 2.41 2.41 0 011.16 1.83z"/></g><path id="_Контур_91" data-name="&lt;Контур&gt;" fill="#ae6800" d="M25.98 76.99L86.89 38.8v-9.47L25.98 67.52v9.47z"/><path id="_Контур_92" data-name="&lt;Контур&gt;" class="cls-64" d="M43.62 63.62l17.28-8.53v-6.2l-17.28 9.97v4.76z"/><path id="_Контур_93" data-name="&lt;Контур&gt;" class="cls-64" d="M61.28 59.13l25.61-14.79V34.6L61.28 49.39v9.74z"/><path id="_Контур_94" data-name="&lt;Контур&gt;" class="cls-64" d="M86.89 29.73L62.41 43.86v2.72l24.48-14.13v-2.72z"/><path id="_Контур_95" data-name="&lt;Контур&gt;" class="cls-40" d="M107.29 17.32l-15 20.84-29.88 5.7V18.52c0-2.07 1.89-6.32 3.14-8C70.24 4.37 72.45 2.31 77.31 0z"/><path id="_Контур_96" data-name="&lt;Контур&gt;" class="cls-42" d="M85.06 33.64c0-2.07 1.93-7.06 3.05-8.8 4.3-6.66 7.87-8.81 12.66-11.1v-1.13L82 2.91c-4.86 2.31-8.67 6.9-11.23 13.44-.76 1.93-2.1 5.51-2.1 7.59l-1.54 22.83L86 43.17z"/><path id="_Контур_97" data-name="&lt;Контур&gt;" class="cls-41" d="M85.06 32.51c0-2.07 1.93-7.06 3.05-8.8C92.42 17 96 14.9 100.78 12.61L82 1.78c-4.86 2.31-8.67 6.9-11.23 13.44-.76 1.93-2.1 5.51-2.1 7.59l-1.54 22.83L86 42z"/><path id="_Контур_98" data-name="&lt;Контур&gt;" class="cls-27" d="M51.57 95.82l56.33-32.98v-6.22L51.57 86.91v8.91z"/><g id="_Группа_19" data-name="&lt;Группа&gt;"><path id="_Контур_99" data-name="&lt;Контур&gt;" d="M99.81 72.78l13.31-7.87c1.77-1 1.93-4.06.36-6.78S109.2 54 107.43 55L94 63z" fill="url(#Ѕезым_нный_градиент_21-5)"/><ellipse id="_Контур_100" data-name="&lt;Контур&gt;" cx="96.97" cy="67.85" rx="3.7" ry="5.69" transform="rotate(-30 96.962 67.84)" fill="#8d9296"/><ellipse id="_Контур_101" data-name="&lt;Контур&gt;" class="cls-67" cx="96.33" cy="68.22" rx="2.97" ry="4.56" transform="rotate(-30 96.323 68.21)"/></g><path id="_Контур_102" data-name="&lt;Контур&gt;" fill="#9faaab" d="M73.61 85.63l17.27-9.97v-6.2l-17.27 9.97v6.2z"/><path id="_Контур_103" data-name="&lt;Контур&gt;" class="cls-67" d="M89.92 73.55v-2.84l-2.04 1.07v3.41l2.04.78v-2.42z"/><path id="_Контур_104" data-name="&lt;Контур&gt;" class="cls-51" d="M90.93 75.39l-16.15 9.32 1.96 1.14 16.15-9.33-1.96-1.13z"/><path id="_Контур_105" data-name="&lt;Контур&gt;" class="cls-43" d="M88.92 68.31l-16.15 9.32 1.96 1.14 16.15-9.33-1.96-1.13z"/><path id="_Контур_106" data-name="&lt;Контур&gt;" class="cls-4" d="M74.78 84.71v.46l1.96 1.13v-.45l-1.96-1.14z"/><path id="_Контур_107" data-name="&lt;Контур&gt;" class="cls-3" d="M92.89 76.98L76.74 86.3v-.45l16.15-9.33v.46z"/><path id="_Контур_108" data-name="&lt;Контур&gt;" class="cls-51" d="M87.96 72.42l-16.15 9.32 1.96 1.14 16.15-9.33-1.96-1.13z"/><path id="_Контур_109" data-name="&lt;Контур&gt;" class="cls-3" d="M89.92 74.01l-16.15 9.32v-.45l16.15-9.33v.46z"/><path id="_Контур_110" data-name="&lt;Контур&gt;" class="cls-42" d="M76.02 76.6l16.38-9.45V35.52l-15.63 9.29.45 5.11.84-1.56-2.04 13.13V76.6z"/><path id="_Контур_111" data-name="&lt;Контур&gt;" d="M49.8 87.6l26.2-11V61.49c-6-3.19-26.2 11.77-26.2 11.77z" fill="#aa2513"/><path id="_Контур_112" data-name="&lt;Контур&gt;" d="M80.75 86.32l-4.82-2.64a14.26 14.26 0 00-1.64-4.86h.54c3.04-.01 5.04 2.52 5.92 7.5z" fill="#3a4044"/><g id="_Группа_20" data-name="&lt;Группа&gt;"><path id="_Контур_113" data-name="&lt;Контур&gt;" d="M56.18 92.36a5 5 0 001.94 4.43c1.63 1.09 5.12 3 5.12 3 4.91-2.83 14.54-12.67 14.54-17.58 0-2.13-4.59-3.75-5.85-4.56-1.63-1-4.1-.89-6.88.71-4.89 2.82-8.87 9.09-8.87 14z" fill="url(#Ѕезым_нный_градиент_35-9)"/><path id="_Контур_114" data-name="&lt;Контур&gt;" class="cls-7" d="M61 95.16c0 4.91 4 6.59 8.88 3.76s8.88-9.11 8.88-14-4-6.59-8.88-3.76-8.88 9.09-8.88 14z"/><path id="_Контур_115" data-name="&lt;Контур&gt;" d="M63.61 93.17c0 3.26 2.64 4.37 5.9 2.49s5.9-6 5.9-9.3-2.64-4.37-5.9-2.49-5.9 6.04-5.9 9.3z" fill="url(#Ѕезым_нный_градиент_40-5)"/><path id="_Контур_116" data-name="&lt;Контур&gt;" class="cls-10" d="M64 93.43c0 3.26 2.64 4.37 5.9 2.49s5.9-6 5.9-9.3-2.64-4.37-5.9-2.49-5.9 6.05-5.9 9.3z"/><path id="_Контур_117" data-name="&lt;Контур&gt;" d="M75.16 87c0 2.92-2.37 6.66-5.29 8.35s-5.29.68-5.29-2.24a5.56 5.56 0 01.09-1 11.45 11.45 0 015.2-7.36c.21-.12.42-.23.63-.32 2.63-1.23 4.66-.17 4.66 2.57z" fill="url(#Ѕезым_нный_градиент_34-12)"/><path id="_Контур_118" data-name="&lt;Контур&gt;" class="cls-12" d="M72.59 86.67a8.28 8.28 0 01-4 6.31 4.62 4.62 0 01-1.17.51 2 2 0 01-2.61-1 1.65 1.65 0 01-.13-.39 7.72 7.72 0 01.29-1.2 11.88 11.88 0 014.16-5.66 8.68 8.68 0 01.75-.5l.53-.27.1-.05c1.22-.06 2.06.75 2.08 2.25z"/><path id="_Контур_119" data-name="&lt;Контур&gt;" d="M72.23 86.11c0 2.17-2.74 6.12-4.92 7.41h-.09a.93.93 0 01-.28-.09h-.11a13.72 13.72 0 01-2-.89 1.65 1.65 0 01-.13-.39 7.72 7.72 0 01.29-1.2 11.88 11.88 0 014.16-5.66 8.68 8.68 0 01.75-.5l.53-.27a13.62 13.62 0 011.6 1.4z" fill="url(#Ѕезым_нный_градиент_4-3)"/><path id="_Контур_120" data-name="&lt;Контур&gt;" class="cls-14" d="M72.74 87.57A7.16 7.16 0 0169.28 93c-1.9 1.1-3.45.44-3.45-1.46a3.63 3.63 0 01.06-.65 7.47 7.47 0 013.39-4.8l.41-.21c1.72-.77 3.05-.08 3.05 1.69z"/><path id="_Контур_121" data-name="&lt;Контур&gt;" d="M71.1 88.71a3.49 3.49 0 01-1.68 2.65c-.93.53-1.68.22-1.68-.71a1.77 1.77 0 010-.32A3.64 3.64 0 0169.42 88l.2-.1c.83-.39 1.48-.05 1.48.81z" fill="url(#Ѕезым_нный_градиент_34-13)"/><path id="_Контур_122" data-name="&lt;Контур&gt;" class="cls-12" d="M69.66 88.93A1.4 1.4 0 0169 90c-.37.21-.67.09-.67-.28a.71.71 0 010-.13 1.46 1.46 0 01.66-.94h.08c.33-.2.59-.06.59.28z"/></g><path id="_Контур_123" data-name="&lt;Контур&gt;" class="cls-51" d="M79 58.38a1.25 1.25 0 01-1-.46 1.21 1.21 0 01-.24-1l1.29-8.58a4.65 4.65 0 012-2.93l4.38-2.79a1.39 1.39 0 012.15 1.18v7.72a3.61 3.61 0 01-1.8 3.12l-6.24 3.6a1.23 1.23 0 01-.61.17z"/><path id="_Контур_124" data-name="&lt;Контур&gt;" d="M79.38 57.87l6.24-3.6a3.2 3.2 0 001.6-2.77v-7.73a1 1 0 00-1.53-.84l-4.38 2.79a4.2 4.2 0 00-1.85 2.65L78.16 57a.82.82 0 001.22.87z" fill="#6ba9b0"/><path id="_Контур_125" data-name="&lt;Контур&gt;" class="cls-51" d="M79.31 69.87a1.15 1.15 0 01-1.15-1.15v-5.9a1.7 1.7 0 01.84-1.47L81.38 60a1.15 1.15 0 011.73 1v5.9a1.7 1.7 0 01-.85 1.47l-2.38 1.37a1.16 1.16 0 01-.57.13z"/><path id="_Контур_126" data-name="&lt;Контур&gt;" d="M82.06 68l-2.38 1.37a.75.75 0 01-1.12-.65v-5.9a1.29 1.29 0 01.65-1.12l2.38-1.37a.75.75 0 011.11.67v5.9a1.29 1.29 0 01-.64 1.1z" fill="#4e98a1"/><path id="_Контур_127" data-name="&lt;Контур&gt;" class="cls-51" d="M107.25 55.02L89.11 65.57v2.72l.65.4 18.14-13.27-.65-.4z"/><path id="_Контур_128" data-name="&lt;Контур&gt;" class="cls-47" d="M107.9 55.42L89.76 65.97v2.72l18.14-10.55v-2.72z"/><g id="_Группа_21" data-name="&lt;Группа&gt;"><path id="_Контур_129" data-name="&lt;Контур&gt;" class="cls-67" d="M94.05 64.77v.43a.56.56 0 01-.28.47l-1.84 1.07a.22.22 0 01-.33-.19v-.12l1.54-.9a.56.56 0 00.28-.47v-.31l.3-.17a.22.22 0 01.33.19z"/><path id="_Контур_130" data-name="&lt;Контур&gt;" class="cls-78" d="M93.42 64.75v.31a.56.56 0 01-.28.47l-1.54.9v-.31a.56.56 0 01.28-.47z"/></g><g id="_Группа_22" data-name="&lt;Группа&gt;"><path id="_Контур_131" data-name="&lt;Контур&gt;" class="cls-67" d="M107 57.08v.43a.56.56 0 01-.28.47l-1.84 1.07a.22.22 0 01-.33-.19v-.12l1.54-.9a.56.56 0 00.28-.47v-.31l.3-.17a.22.22 0 01.33.19z"/><path id="_Контур_132" data-name="&lt;Контур&gt;" class="cls-78" d="M106.42 57.07v.31a.56.56 0 01-.28.47l-1.54.9v-.31a.56.56 0 01.28-.47z"/></g><g id="_Группа_23" data-name="&lt;Группа&gt;"><path id="_Контур_133" data-name="&lt;Контур&gt;" class="cls-67" d="M102.72 59.64v.43a.56.56 0 01-.28.47l-1.84 1.07a.22.22 0 01-.33-.19v-.12l1.54-.9a.56.56 0 00.28-.47v-.31l.3-.17a.22.22 0 01.33.19z"/><path id="_Контур_134" data-name="&lt;Контур&gt;" class="cls-78" d="M102.09 59.63v.31a.56.56 0 01-.28.47l-1.54.9V61a.56.56 0 01.28-.47z"/></g><g id="_Группа_24" data-name="&lt;Группа&gt;"><path id="_Контур_135" data-name="&lt;Контур&gt;" class="cls-67" d="M98.38 62.21v.43a.56.56 0 01-.28.47l-1.84 1.07a.22.22 0 01-.33-.19v-.12l1.54-.9a.56.56 0 00.28-.47v-.31l.3-.17a.22.22 0 01.33.19z"/><path id="_Контур_136" data-name="&lt;Контур&gt;" class="cls-78" d="M97.75 62.19v.31a.56.56 0 01-.28.47l-1.54.9v-.31a.56.56 0 01.28-.47z"/></g><path id="_Контур_137" data-name="&lt;Контур&gt;" class="cls-79" d="M47.24 29.35C47.63 38 79.53 55 77.22 46.67c-.68-2.45 15.18-10.72 15.18-10.72S75.26 30 62.41 18.63c0 0-15.41 6.08-15.17 10.72z"/><path id="_Контур_138" data-name="&lt;Контур&gt;" class="cls-42" d="M85.83 33.26c-5.62-2.53-13.94-6.31-21.3-12.26-5.4 2.69-15.75 8.3-15.59 11.74a5.49 5.49 0 00.26 1.37c3.59 4.58 11.47 9.83 18 12.87 3 .55 4.87-.15 4.14-2.77-.61-2.21 11.82-8.69 14.49-10.95z"/><path id="_Контур_139" data-name="&lt;Контур&gt;" class="cls-80" d="M85.83 33.26a99 99 0 01-21.3-12.84c-5.4 2.69-15.75 8.3-15.59 11.74a5.49 5.49 0 00.26 1.37c3.59 4.58 11.47 9.83 18 12.87 3 .55 4.87-.15 4.14-2.77-.61-2.15 11.47-8.76 14.49-10.37z"/><path id="_Контур_140" data-name="&lt;Контур&gt;" d="M75.72 61.55c-6.06 1.71-23.89 10.12-23.89 10.12L28.78 57.84S37.23 51.61 46 44.17c6.57-5.56 28.64 16 29.93 17.26-.05.03-.13.08-.21.12z" fill="#ff6056"/><path id="_Контур_141" data-name="&lt;Контур&gt;" class="cls-42" d="M69.57 58.37L47.24 72.03 30.67 59.45l21.14-17.1 17.76 16.02z"/><path id="_Контур_142" data-name="&lt;Контур&gt;" class="cls-79" d="M71.89 56.9L47.24 71.17 30.67 58.6l21.14-17.1 20.08 15.4z"/><path id="_Контур_143" data-name="&lt;Контур&gt;" class="cls-80" d="M69.75 52.16L45.02 68.83l-14.46-6.57 24.39-18.48 14.8 8.38z"/><path id="_Контур_144" data-name="&lt;Контур&gt;" d="M36.94 63.76l3.73-2.92a25.24 25.24 0 00-9.53-3.47 3.47 3.47 0 00-3.23 1.21l-1.39 1.66z" fill="#c6d4d4"/><path id="_Контур_145" data-name="&lt;Контур&gt;" class="cls-49" d="M53 73.43v12.34l-3.2 1.83-.55-13.9v-.52l-12.31-9.42 3.73-2.92C43.3 62 48.27 66.44 51 69a6.16 6.16 0 012 4.43z"/><path id="_Контур_146" data-name="&lt;Контур&gt;" class="cls-83" d="M53 73.43v12.34l-3.2 1.83-.55-13.9 3.53-1.7a6 6 0 01.22 1.43z"/><path id="_Контур_147" data-name="&lt;Контур&gt;" class="cls-84" d="M28.22 59.72l2.87.54a40.28 40.28 0 0112.19 6.64l5.3 5a3.84 3.84 0 011.22 2.8V95L26 81.3V61.58a1.89 1.89 0 012.22-1.86z"/><path id="_Контур_148" data-name="&lt;Контур&gt;" class="cls-49" d="M18.56 72.01l37.91 21.87 2.35-.4 1.16.67-2.77 1.7-39.98-23.07 1.33-.77z"/><path id="_Контур_149" data-name="&lt;Контур&gt;" class="cls-84" d="M60 94.15l-.85 9-.7.42a2.29 2.29 0 01-1.35.34 2.34 2.34 0 01-1.1-.3L18.11 81.7a1.72 1.72 0 01-.88-1.51v-7.41L56 95.14a2.34 2.34 0 001.1.3 2.29 2.29 0 001.35-.34z"/><path id="_Контур_150" data-name="&lt;Контур&gt;" class="cls-83" d="M60 94.15l-.85 9-.7.42a2.29 2.29 0 01-1.35.34v-8.47a2.29 2.29 0 001.35-.34z"/><path id="_Контур_151" data-name="&lt;Контур&gt;" d="M59.12 101.74l-.7.43a2.39 2.39 0 01-2.45 0L17.23 79.85v.35a1.75 1.75 0 00.87 1.51L56 103.56a2.39 2.39 0 002.45 0l.7-.43.14-1.43z" fill="#d84e42"/><path id="_Контур_152" data-name="&lt;Контур&gt;" class="cls-49" d="M23.84 84.99l-3.71-2.13v-1.34l3.71 2.13v1.34z"/><g id="_Группа_25" data-name="&lt;Группа&gt;"><path id="_Контур_153" data-name="&lt;Контур&gt;" d="M70.88 73.08v1c0 1.15 1.43 2.09 3.2 2.09s3.2-.93 3.2-2.09V73z" fill="url(#Ѕезым_нный_градиент_21-6)"/><path id="_Контур_154" data-name="&lt;Контур&gt;" d="M70.52 71.43v1.16c0 1.28 1.6 2.32 3.56 2.32s3.56-1 3.56-2.32v-1.27z" fill="url(#Ѕезым_нный_градиент_25-3)"/><ellipse id="_Контур_155" data-name="&lt;Контур&gt;" class="cls-54" cx="74.08" cy="71.43" rx="3.56" ry="2.32"/><path id="_Контур_156" data-name="&lt;Контур&gt;" d="M70.88 68.14V71c0 1.15 1.43 2.09 3.2 2.09s3.2-.93 3.2-2.09v-3z" fill="url(#Ѕезым_нный_градиент_21-7)"/><path id="_Контур_157" data-name="&lt;Контур&gt;" d="M70.52 66.09v1.16c0 1.28 1.6 2.32 3.56 2.32s3.56-1 3.56-2.32V66z" fill="url(#Ѕезым_нный_градиент_25-4)"/><ellipse id="_Контур_158" data-name="&lt;Контур&gt;" class="cls-54" cx="74.08" cy="66.09" rx="3.56" ry="2.32"/><path id="_Контур_159" data-name="&lt;Контур&gt;" d="M70.88 64.8v1c0 1.15 1.43 2.09 3.2 2.09s3.2-.93 3.2-2.09v-1.11z" fill="url(#Ѕезым_нный_градиент_21-8)"/><ellipse id="_Контур_160" data-name="&lt;Контур&gt;" class="cls-49" cx="74.08" cy="64.8" rx="3.2" ry="2.09"/></g><g id="_Группа_26" data-name="&lt;Группа&gt;"><path id="_Контур_161" data-name="&lt;Контур&gt;" class="cls-40" d="M80.75 86.32a14.64 14.64 0 00-1.57-4.75 4.87 4.87 0 00-4.35-2.78h-.54c-.31-.55-3.54.15-4 .46a27.32 27.32 0 00-7.17 6.28 55.36 55.36 0 00-6 8.72l-7.6-4.23c.51-2.65 3-5.88 6.36-8.7 4.36-3.71 10-6.72 14.12-6.72a6.07 6.07 0 012.62.58c1 .5 5.79 2.57 6.67 4a5 5 0 01.52 1.42c.42 1.66.63 3.98.94 5.72z"/></g><path id="_Контур_162" data-name="&lt;Контур&gt;" class="cls-41" d="M79.84 80.64c-.22.3-.44.62-.66.93a4.87 4.87 0 00-4.35-2.78h-.54c-.31-.55-3.54.15-4 .46a27.32 27.32 0 00-7.17 6.28l-7.27-4.21c4.36-3.71 10-6.72 14.12-6.72H70a6.07 6.07 0 012.62.58c1 .5 5.79 2.57 6.67 4a5 5 0 01.55 1.46z"/><path id="_Контур_163" data-name="&lt;Контур&gt;" fill="#b03a28" d="M68.09 76.73l-1.55.89-1.24-.71 1.55-.89 1.24.71z"/><g id="_Группа_27" data-name="&lt;Группа&gt;"><path id="_Контур_164" data-name="&lt;Контур&gt;" class="cls-42" d="M82.24 86.06l-1.5.26c-.88-5-2.87-7.51-5.92-7.53h-.54c-6.15.55-14.45 9.31-15.47 14.66l-1.74.8c1.08-5.68 9.23-15.47 16.14-16.85a8.53 8.53 0 011.58-.16 6 6 0 014.47 1.94c1.31 1.36 2.38 3.5 2.98 6.88z"/></g><path id="_Контур_165" data-name="&lt;Контур&gt;" class="cls-40" d="M78.06 48.36l-2.04 13.13-16.95-8.2-1.78-.82-.28-.14-10.98-8.16 2.39-13.73 11.52 8.25 1.73 1 16.39 8.67z"/><path id="_Контур_166" data-name="&lt;Контур&gt;" fill="#538b94" d="M77.25 48.67l-1.94 11.37-16.24-7.86-1.79-.83-.04-.02-10.07-7.57 1.92-11.35 1.43.83 6.39 3.69 3.03 1.75 1.73 1 15.58 8.99z"/><path id="_Контур_167" data-name="&lt;Контур&gt;" fill="#75a2a9" d="M61.09 49.81l-1.79-.83-.04-.02-10.07-7.56-1.81 1.09-.21 1.27 10.07 7.57.04.02 1.79.83 16.24 7.86.53-3.09-14.75-7.14z"/><path id="_Контур_168" data-name="&lt;Контур&gt;" d="M56.91 36.93a2.92 2.92 0 01-.5.35l-6.24 3.6A.82.82 0 0149 40l1.31-6a3.7 3.7 0 01.26-.8z" fill="#b5d6c7"/><g id="_Группа_28" data-name="&lt;Группа&gt;"><path id="_Контур_169" data-name="&lt;Контур&gt;" fill="#cf9219" d="M68.87 76.3l-1.55.89-1.25-.71 1.56-.89 1.24.71z"/><path id="_Контур_170" data-name="&lt;Контур&gt;" class="cls-78" d="M68.87 76.3v.88l-1.55.9v-.89l1.55-.89z"/><path id="_Контур_171" data-name="&lt;Контур&gt;" fill="#b06a00" d="M67.32 77.19v.89l-1.25-.72v-.88l1.25.71z"/></g><g id="_Группа_29" data-name="&lt;Группа&gt;"><g id="_Группа_30" data-name="&lt;Группа&gt;"><path id="_Контур_172" data-name="&lt;Контур&gt;" d="M56.86 89.76v1.35a.59.59 0 01-.32.53c-.17.09-1.07.76-1.26.65l-3-3.62a1.58 1.58 0 01-.8-1.37l-1.59-.66c0-.2 1-.63 1.12-.73h.06a.59.59 0 01.59 0l4.41 2.51a1.58 1.58 0 01.79 1.34z" fill="url(#Ѕезым_нный_градиент_20-2)"/><path id="_Контур_173" data-name="&lt;Контур&gt;" class="cls-60" d="M55.76 90.41v1.35a.59.59 0 01-.89.51l-4.41-2.51a1.58 1.58 0 01-.8-1.37V87a.59.59 0 01.89-.51L55 89a1.58 1.58 0 01.76 1.41z"/></g><path id="_Контур_174" data-name="&lt;Контур&gt;" class="cls-61" d="M52.37 89.3a.76.76 0 01-.09.39c-.17.31-.59.37-1.06.09A2.37 2.37 0 0150.05 88c0-.46.26-.71.66-.66a1.25 1.25 0 01.51.17 2.39 2.39 0 011.15 1.79z"/><path id="_Контур_175" data-name="&lt;Контур&gt;" class="cls-61" d="M55 90.86a.76.76 0 01-.09.39c-.18.31-.59.37-1.07.1a2.42 2.42 0 01-1.15-1.83c0-.47.26-.71.65-.67a1.25 1.25 0 01.51.17A2.41 2.41 0 0155 90.86z"/><path id="_Контур_176" data-name="&lt;Контур&gt;" class="cls-62" d="M52.37 89.3a.76.76 0 01-.09.39 1.25 1.25 0 01-.51-.17 2.39 2.39 0 01-1.15-1.83.76.76 0 01.09-.39 1.25 1.25 0 01.51.17 2.39 2.39 0 011.15 1.83z"/><path id="_Контур_177" data-name="&lt;Контур&gt;" class="cls-62" d="M55 90.86a.76.76 0 01-.09.39 1.09 1.09 0 01-.51-.16 2.43 2.43 0 01-1.16-1.83.8.8 0 01.09-.4 1.25 1.25 0 01.51.17A2.41 2.41 0 0155 90.86z"/></g><path id="_Контур_178" data-name="&lt;Контур&gt;" class="cls-40" d="M61.67 39.68v.01l-2.6 12.49-.29.98-1.78-.83.28-.98 2.66-12.66v-.01l1.73 1z"/><g id="_Группа_31" data-name="&lt;Группа&gt;"><path id="_Контур_179" data-name="&lt;Контур&gt;" d="M89.11 36.22V65.8c0 .75.94 1.36 2.09 1.36s2.09-.61 2.09-1.36V36.15z" fill="url(#Ѕезым_нный_градиент_21-9)"/><ellipse id="_Контур_180" data-name="&lt;Контур&gt;" class="cls-49" cx="91.2" cy="36.22" rx="2.09" ry="1.36"/><g id="_Группа_32" data-name="&lt;Группа&gt;"><path id="_Контур_181" data-name="&lt;Контур&gt;" class="cls-50" d="M94.65 24.76a2.67 2.67 0 01-1 2.31l-.56.46a2 2 0 00-.77 1.6v6.76a1.11 1.11 0 01-1.09.56 1.13 1.13 0 01-1.06-.52v-7.35a3.57 3.57 0 011.32-2.77l2.31-2.08s.75-.2.85 1.03z"/><path id="_Контур_182" data-name="&lt;Контур&gt;" class="cls-51" d="M90.58 36.27v-7.35a3.57 3.57 0 011.32-2.77l2.31-2.08a.64.64 0 01.26 0 .66.66 0 00-.71-.35l-2.31 2.08a3.57 3.57 0 00-1.32 2.77v7.35a.84.84 0 00.48.4z"/><path id="_Контур_183" data-name="&lt;Контур&gt;" class="cls-47" d="M94.29 26.3l-1.23 1.11a3.57 3.57 0 00-1.32 2.77v6.15a.85.85 0 00.55-.46v-6.75a2 2 0 01.77-1.6l.56-.46a2.85 2.85 0 00.67-.76z"/></g></g><path id="_Контур_184" data-name="&lt;Контур&gt;" d="M47.24 29.35a7.65 7.65 0 00.84 1.65c5.49 6.69 30 17.32 30 17.32l-.84-1.69s-23.46-10.68-30-17.28z" fill="#a83832"/><g id="_Группа_33" data-name="&lt;Группа&gt;"><path id="_Контур_185" data-name="&lt;Контур&gt;" class="cls-100" d="M57.63 27.64l-.81.52c-.22.14-.24.38-.47.25l-.35-.29c-.25-.14-.52-.67-.28-.82l.81-.51c.22-.14 1.1-.53 1.33-.39h.09c.25.18-.08 1.09-.32 1.24z"/><path id="_Контур_186" data-name="&lt;Контур&gt;" class="cls-101" d="M58.78 27.75l-1.29.82a.8.8 0 01-.82 0l-.31-.18c-.28-.16.09-1.31.35-1.47l.92-.08c.25-.15.63-.55.89-.4l.21.16a.9.9 0 01.05 1.15z"/><path id="_Контур_187" data-name="&lt;Контур&gt;" class="cls-102" d="M58.45 27l-.81.52a.71.71 0 01-.73 0h-.1a.38.38 0 010-.65l.81-.51a.71.71 0 01.73 0h.09a.38.38 0 01.01.64z"/></g><g id="_Группа_34" data-name="&lt;Группа&gt;"><path id="_Контур_188" data-name="&lt;Контур&gt;" class="cls-100" d="M65 31.93l-.81.52c-.22.14-.24.38-.47.25l-.36-.29c-.25-.14-.52-.67-.28-.82l.81-.51c.22-.14 1.1-.53 1.33-.39h.09c.28.18-.05 1.09-.31 1.24z"/><path id="_Контур_189" data-name="&lt;Контур&gt;" class="cls-101" d="M66.17 32l-1.29.82a.8.8 0 01-.82 0l-.31-.18c-.28-.16.09-1.31.35-1.47l.92-.08c.25-.15.63-.55.89-.4l.21.16a.9.9 0 01.05 1.15z"/><path id="_Контур_190" data-name="&lt;Контур&gt;" class="cls-102" d="M65.85 31.32l-.81.52a.71.71 0 01-.73 0h-.1a.38.38 0 010-.65l.81-.51a.71.71 0 01.73 0h.09a.38.38 0 01.01.64z"/></g><g id="_Группа_35" data-name="&lt;Группа&gt;"><path id="_Контур_191" data-name="&lt;Контур&gt;" class="cls-100" d="M72.42 36.22l-.81.52c-.22.14-.24.38-.47.25l-.36-.29c-.25-.14-.52-.67-.28-.82l.81-.51c.22-.14 1.1-.53 1.33-.39h.09c.27.17-.07 1.09-.31 1.24z"/><path id="_Контур_192" data-name="&lt;Контур&gt;" class="cls-101" d="M73.57 36.33l-1.29.82a.8.8 0 01-.82 0l-.31-.15c-.28-.16.09-1.31.35-1.47l.92-.08c.25-.15.63-.55.89-.4l.21.16a.9.9 0 01.05 1.12z"/><path id="_Контур_193" data-name="&lt;Контур&gt;" class="cls-102" d="M73.24 35.61l-.81.52a.71.71 0 01-.73 0h-.1a.38.38 0 010-.65l.81-.51a.71.71 0 01.73 0h.09a.38.38 0 01.01.64z"/></g><path id="_Контур_194" data-name="&lt;Контур&gt;" d="M39.22 66.14a.49.49 0 01-.14.38c-.29.28-.93.25-1.7-.12-1-.5-1.82-1.43-1.82-2.07 0-.47.42-.65 1-.54a3.12 3.12 0 01.8.28c1.04.51 1.86 1.44 1.86 2.07z" fill="#cf5633"/><path id="_Контур_195" data-name="&lt;Контур&gt;" d="M28.84 76.78l17.52 10.08a.83.83 0 001.24-.72V75.28a2.05 2.05 0 00-1-1.78L29.05 63.43a.83.83 0 00-1.24.72V75a2.05 2.05 0 001.03 1.78z" fill="#7895a4"/><path id="_Контур_196" data-name="&lt;Контур&gt;" class="cls-83" d="M46.78 86.67L29.26 76.6a2.05 2.05 0 01-1-1.78V64a.81.81 0 01.29-.63.82.82 0 00-.71.82V75a2.05 2.05 0 001 1.78l17.52 10.08a.82.82 0 001-.09.81.81 0 01-.58-.1z"/><g id="_Группа_36" data-name="&lt;Группа&gt;"><path id="_Контур_197" data-name="&lt;Контур&gt;" class="cls-42" d="M107.29 55.85L92.4 64.43v-25.1a18.81 18.81 0 011.28-6.89c1.7-4.11 8.89-13.81 13.61-15.12z"/></g><path id="_Контур_198" data-name="&lt;Контур&gt;" class="cls-49" d="M31.25 89.25l-3.7-2.12v-1.35l3.7 2.13v1.34z"/><path id="_Контур_199" data-name="&lt;Контур&gt;" class="cls-49" d="M38.67 93.52l-3.71-2.13v-1.35l3.71 2.13v1.35z"/><path id="_Контур_200" data-name="&lt;Контур&gt;" class="cls-49" d="M46.08 97.78l-3.7-2.14V94.3l3.7 2.13v1.35z"/><path id="_Контур_201" data-name="&lt;Контур&gt;" class="cls-49" d="M53.5 102.04l-3.71-2.13v-1.35l3.71 2.13v1.35z"/><g id="_Группа_37" data-name="&lt;Группа&gt;"><path id="_Контур_202" data-name="&lt;Контур&gt;" d="M30.75 88.37a2.13 2.13 0 01-1-1.64v-3c0-.59.44-.81 1-.5L38 87.46a2.13 2.13 0 011 1.64v3c0 .59-.44.81-1 .5z" style="mix-blend-mode:multiply" fill="#8b8b8b"/><path id="_Контур_203" data-name="&lt;Контур&gt;" d="M31 87.87a2.13 2.13 0 01-1-1.64v-3c0-.59.44-.81 1-.5L38.31 87a2.13 2.13 0 011 1.64v3c0 .59-.44.81-1 .5z" fill="#f9fcfc"/><path id="_Контур_204" data-name="&lt;Контур&gt;" d="M30.75 88a2.13 2.13 0 01-1-1.64v-3c0-.59.44-.81 1-.5L38 87.05a2.13 2.13 0 011 1.64v3c0 .59-.44.81-1 .5z" fill="#e0e0e0"/><path id="_Контур_205" data-name="&lt;Контур&gt;" d="M38 92l-7.27-4.25a1.73 1.73 0 01-.8-1.34v-3c0-.48.36-.66.8-.4L38 87.25a1.73 1.73 0 01.8 1.34v3c.02.49-.33.67-.8.41z" fill="#f8ffff"/><g id="_Группа_38" data-name="&lt;Группа&gt;"><path id="_Контур_206" data-name="&lt;Контур&gt;" class="cls-109" d="M38.82 88.57a1.73 1.73 0 00-.82-1.32L30.75 83c-.43-.25-.78-.08-.79.39z"/><path id="_Контур_207" data-name="&lt;Контур&gt;" class="cls-109" d="M30 86.44a1.73 1.73 0 00.79 1.31L38 92c.43.25.78.08.79-.39z"/></g></g><g id="_Группа_39" data-name="&lt;Группа&gt;"><path id="_Контур_208" data-name="&lt;Контур&gt;" d="M98.52 51.1a1.15 1.15 0 01-1.15-1.15V37.86a1.7 1.7 0 01.85-1.47l2.37-1.39a1.15 1.15 0 011.73 1v12.1a1.7 1.7 0 01-.85 1.47l-2.38 1.37a1.16 1.16 0 01-.57.16z" fill="#981500"/><path id="_Контур_209" data-name="&lt;Контур&gt;" class="cls-42" d="M101.35 49.22L99 50.59a.75.75 0 01-1.12-.65V37.86a1.29 1.29 0 01.65-1.12l2.38-1.37A.75.75 0 01102 36v12.1a1.29 1.29 0 01-.65 1.12z"/></g><g id="_Группа_40" data-name="&lt;Группа&gt;"><path id="_Контур_210" data-name="&lt;Контур&gt;" class="cls-101" d="M57.91 71.38l-.73.28a.52.52 0 00-.32.5v.27a.38.38 0 00.48.36l.73-.28a.52.52 0 00.32-.5v-.27a.38.38 0 00-.48-.36z"/><path id="_Контур_211" data-name="&lt;Контур&gt;" class="cls-102" d="M58.09 71.58l-.73.28a.52.52 0 00-.32.5v.27a.38.38 0 00.48.36l.73-.28a.52.52 0 00.32-.5v-.27a.38.38 0 00-.48-.36z"/></g><g id="_Группа_41" data-name="&lt;Группа&gt;"><path id="_Контур_212" data-name="&lt;Контур&gt;" class="cls-111" d="M47.6 84.66v.9c-4-1.94-14-7.1-19.82-10.88v-.91c5.83 3.77 15.77 8.93 19.82 10.89z"/><path id="_Контур_213" data-name="&lt;Контур&gt;" class="cls-111" d="M47.6 82.95v.91c-4-2-14-7.11-19.82-10.89v-.91C33.61 75.83 43.55 81 47.6 82.95z"/><path id="_Контур_214" data-name="&lt;Контур&gt;" class="cls-111" d="M47.6 81.23v.91a223.93 223.93 0 01-19.82-10.89v-.91A224 224 0 0047.6 81.23z"/><path id="_Контур_215" data-name="&lt;Контур&gt;" class="cls-111" d="M47.6 79.46v.91a224 224 0 01-19.82-10.88v-.85A224.32 224.32 0 0047.6 79.46z"/><g id="_Группа_42" data-name="&lt;Группа&gt;"><path id="_Контур_216" data-name="&lt;Контур&gt;" class="cls-84" d="M47.6 85.13V86c-4.46-2.2-14.33-7.41-19.82-10.94v-.91c5.49 3.57 15.36 8.79 19.82 10.98z"/><path id="_Контур_217" data-name="&lt;Контур&gt;" class="cls-84" d="M47.6 83.41v.91c-4-2-14-7.11-19.82-10.89v-.91c5.83 3.78 15.77 8.94 19.82 10.89z"/><path id="_Контур_218" data-name="&lt;Контур&gt;" class="cls-84" d="M47.6 81.71v.91c-4.46-2.2-14.33-7.41-19.82-10.94v-.91c5.49 3.53 15.36 8.75 19.82 10.94z"/><path id="_Контур_219" data-name="&lt;Контур&gt;" class="cls-84" d="M47.6 79.93v.91A223.93 223.93 0 0127.78 70v-1A223.93 223.93 0 0047.6 79.93z"/></g><path id="_Контур_220" data-name="&lt;Контур&gt;" class="cls-111" d="M47.6 77.68v.91a224 224 0 01-19.82-10.88v-.91A224 224 0 0047.6 77.68z"/><path id="_Контур_221" data-name="&lt;Контур&gt;" class="cls-111" d="M47.6 76v.91c-4-2-14-7.11-19.82-10.9v-.91C33.61 68.87 43.55 74 47.6 76z"/><path id="_Контур_222" data-name="&lt;Контур&gt;" class="cls-111" d="M47.54 75.14a224 224 0 01-19.72-10.83A.73.73 0 0128 64a.74.74 0 01.37-.19l4.14 2.58.11.07c2 1.16 4.06 2.28 6 3.3l.15.08c2.61 1.28 8 4.31 8 4.31a1.59 1.59 0 01.51.47 1.49 1.49 0 01.26.52z"/><g id="_Группа_43" data-name="&lt;Группа&gt;"><path id="_Контур_223" data-name="&lt;Контур&gt;" class="cls-84" d="M47.6 78.17v.91c-4.46-2.2-14.33-7.41-19.82-10.94v-.91C33.27 70.76 43.14 76 47.6 78.17z"/><path id="_Контур_224" data-name="&lt;Контур&gt;" class="cls-84" d="M47.6 76.45v.91c-4-2-14-7.11-19.82-10.9v-.91c5.83 3.79 15.77 8.95 19.82 10.9z"/><path id="_Контур_225" data-name="&lt;Контур&gt;" class="cls-84" d="M47.6 75.59v.05c-4.46-2.19-14.33-7.4-19.82-10.93v-.19a.53.53 0 010-.21A.73.73 0 0128 64c1.46.93 3 1.93 4.51 2.82l.11.07c2 1.16 4.06 2.28 6 3.3l.15.08c1.86 1 6.92 3.56 8.46 4.33a1.49 1.49 0 01.28.57 1.63 1.63 0 01.09.42z"/></g></g><g id="_Группа_44" data-name="&lt;Группа&gt;"><g id="_Группа_45" data-name="&lt;Группа&gt;"><path id="_Контур_226" data-name="&lt;Контур&gt;" class="cls-112" d="M64.82 57.86l-.44.3a1.19 1.19 0 01-1 0l-4.71-2.11c-.59-.27-.65-.7-.13-.93l.43-.19a1.26 1.26 0 01.92 0l4.65 2c.54.3.66.68.28.93z"/><g id="_Группа_46" data-name="&lt;Группа&gt;"><path id="_Контур_227" data-name="&lt;Контур&gt;" class="cls-80" d="M62.78 58.07l.38.12 1.98-1.13-.31-.17-2.05 1.18z"/><path id="_Контур_228" data-name="&lt;Контур&gt;" class="cls-80" d="M61.78 57.69l.37.11 1.99-1.13-.31-.16-2.05 1.18z"/><path id="_Контур_229" data-name="&lt;Контур&gt;" class="cls-80" d="M60.77 57.31l.38.11 1.98-1.13-.31-.16-2.05 1.18z"/><path id="_Контур_230" data-name="&lt;Контур&gt;" class="cls-80" d="M59.77 56.93l.38.11 1.98-1.13-.31-.17-2.05 1.19z"/><path id="_Контур_231" data-name="&lt;Контур&gt;" class="cls-80" d="M58.83 56.51l.38.12 1.98-1.13-.31-.17-2.05 1.18z"/><path id="_Контур_232" data-name="&lt;Контур&gt;" class="cls-80" d="M58.04 56.01l.37.11 1.99-1.13-.31-.17-2.05 1.19z"/></g></g><g id="_Группа_47" data-name="&lt;Группа&gt;"><path id="_Контур_233" data-name="&lt;Контур&gt;" class="cls-112" d="M48.19 48.42l.45-.28a.83.83 0 01.86.06l3.5 2.63a.54.54 0 01-.12 1l-.42.18a.86.86 0 01-.78-.1l-3.48-2.55c-.38-.28-.39-.7-.01-.94z"/><g id="_Группа_48" data-name="&lt;Группа&gt;"><path id="_Контур_234" data-name="&lt;Контур&gt;" class="cls-80" d="M49.98 48.35l-.29-.15-1.97 1.06.23.21 2.03-1.12z"/><path id="_Контур_235" data-name="&lt;Контур&gt;" class="cls-80" d="M50.75 48.84l-.3-.15-1.96 1.06.22.2 2.04-1.11z"/><path id="_Контур_236" data-name="&lt;Контур&gt;" class="cls-80" d="M51.52 49.33l-.3-.16-1.97 1.06.23.21 2.04-1.11z"/><path id="_Контур_237" data-name="&lt;Контур&gt;" class="cls-80" d="M52.28 49.81l-.3-.15-1.96 1.06.22.21 2.04-1.12z"/><path id="_Контур_238" data-name="&lt;Контур&gt;" class="cls-80" d="M52.98 50.33l-.29-.15-1.97 1.06.23.21 2.03-1.12z"/><path id="_Контур_239" data-name="&lt;Контур&gt;" class="cls-80" d="M53.54 50.93l-.3-.15-1.96 1.06.22.21 2.04-1.12z"/></g></g></g></g></g></g></g></svg>