<svg xmlns="http://www.w3.org/2000/svg" xmlns:xlink="http://www.w3.org/1999/xlink" viewBox="0 0 258.99 175.64"><defs><linearGradient id="Ѕезым_нный_градиент_2" x1="81.42" y1="184.03" x2="177.57" y2="17.5" gradientUnits="userSpaceOnUse"><stop offset="0" stop-color="#ededed"/><stop offset="1" stop-color="#e6e6e6"/></linearGradient><linearGradient id="Ѕезым_нный_градиент_35-6" x1="204.85" y1="-16504.54" x2="192.99" y2="-16525.08" xlink:href="#Ѕезым_нный_градиент_35"/><linearGradient id="Ѕезым_нный_градиент_21" x1="198.36" y1="-16460.91" x2="202.55" y2="-16460.91" gradientTransform="matrix(1 0 0 -1 0 -16435.44)" gradientUnits="userSpaceOnUse"><stop offset=".16" stop-color="#a7aaac"/><stop offset=".16" stop-color="#bec2c5"/><stop offset=".56" stop-color="#bec2c5"/><stop offset=".56" stop-color="#dee3e7"/><stop offset=".87" stop-color="#dee3e7"/><stop offset=".87" stop-color="#d9dee2"/></linearGradient><linearGradient id="Ѕезым_нный_градиент_35" x1="244.15" y1="-16488.36" x2="232.3" y2="-16508.9" gradientTransform="matrix(1 0 0 -1 0 -16435.44)" gradientUnits="userSpaceOnUse"><stop offset=".13" stop-color="#68737b"/><stop offset=".13" stop-color="#6c7880"/><stop offset=".44" stop-color="#6c7880"/><stop offset=".44" stop-color="#50585e"/><stop offset=".84" stop-color="#50585e"/><stop offset=".84" stop-color="#3b4145"/></linearGradient><linearGradient id="Ѕезым_нный_градиент_40" x1="245.44" y1="-16493.81" x2="237.64" y2="-16507.32" gradientTransform="matrix(1 0 0 -1 0 -16435.44)" gradientUnits="userSpaceOnUse"><stop offset=".13" stop-color="#dbe0e3"/><stop offset=".13" stop-color="#e0e5e8"/><stop offset=".44" stop-color="#e0e5e8"/><stop offset=".44" stop-color="#c0c4c6"/><stop offset=".84" stop-color="#c0c4c6"/><stop offset=".84" stop-color="#a8abad"/></linearGradient><linearGradient id="Ѕезым_нный_градиент_34" x1="245.34" y1="-16494.87" x2="238.38" y2="-16506.94" gradientTransform="matrix(1 0 0 -1 0 -16435.44)" gradientUnits="userSpaceOnUse"><stop offset=".16" stop-color="#797b7d"/><stop offset=".16" stop-color="#919496"/><stop offset=".56" stop-color="#919496"/><stop offset=".56" stop-color="#b1b5b8"/><stop offset=".87" stop-color="#b1b5b8"/><stop offset=".87" stop-color="#acb0b3"/></linearGradient><linearGradient id="Ѕезым_нный_градиент_10" x1="243" y1="-16495.6" x2="238.13" y2="-16504.04" gradientTransform="matrix(1 0 0 -1 0 -16435.44)" gradientUnits="userSpaceOnUse"><stop offset=".13" stop-color="#acb0b3"/><stop offset=".13" stop-color="#b1b5b8"/><stop offset=".44" stop-color="#b1b5b8"/><stop offset=".44" stop-color="#919496"/><stop offset=".84" stop-color="#919496"/><stop offset=".84" stop-color="#797b7d"/></linearGradient><linearGradient id="Ѕезым_нный_градиент_34-2" x1="242.56" y1="-16498.56" x2="240.33" y2="-16502.41" xlink:href="#Ѕезым_нный_градиент_34"/><linearGradient id="Ѕезым_нный_градиент_21-2" x1="225.73" y1="-16508.86" x2="219.96" y2="-16498.86" xlink:href="#Ѕезым_нный_градиент_21"/><linearGradient id="Ѕезым_нный_градиент_21-3" x1="198.65" y1="-16478.29" x2="188.35" y2="-16496.13" xlink:href="#Ѕезым_нный_градиент_21"/><linearGradient id="Ѕезым_нный_градиент_21-4" x1="232.1" y1="-16479.57" x2="236.29" y2="-16479.57" xlink:href="#Ѕезым_нный_градиент_21"/><linearGradient id="Ѕезым_нный_градиент_35-2" x1="173.22" y1="-16486.04" x2="161.36" y2="-16506.58" xlink:href="#Ѕезым_нный_градиент_35"/><linearGradient id="Ѕезым_нный_градиент_35-3" x1="178.89" y1="-16489.24" x2="167.04" y2="-16509.78" xlink:href="#Ѕезым_нный_градиент_35"/><linearGradient id="Ѕезым_нный_градиент_40-2" x1="179.25" y1="-16505.09" x2="173.31" y2="-16497.81" xlink:href="#Ѕезым_нный_градиент_40"/><linearGradient id="Ѕезым_нный_градиент_34-3" x1="180.08" y1="-16495.76" x2="173.12" y2="-16507.82" xlink:href="#Ѕезым_нный_градиент_34"/><linearGradient id="Ѕезым_нный_градиент_34-4" x1="177.74" y1="-16496.48" x2="172.87" y2="-16504.92" xlink:href="#Ѕезым_нный_градиент_34"/><linearGradient id="Ѕезым_нный_градиент_34-5" x1="177.3" y1="-16499.44" x2="175.07" y2="-16503.29" xlink:href="#Ѕезым_нный_градиент_34"/><linearGradient id="Ѕезым_нный_градиент_35-4" x1="152.82" y1="-16497.82" x2="140.96" y2="-16518.35" xlink:href="#Ѕезым_нный_градиент_35"/><linearGradient id="Ѕезым_нный_градиент_35-5" x1="158.49" y1="-16501.02" x2="146.63" y2="-16521.56" xlink:href="#Ѕезым_нный_градиент_35"/><linearGradient id="Ѕезым_нный_градиент_40-3" x1="158.84" y1="-16516.87" x2="152.9" y2="-16509.59" xlink:href="#Ѕезым_нный_градиент_40"/><linearGradient id="Ѕезым_нный_градиент_34-6" x1="159.68" y1="-16507.53" x2="152.71" y2="-16519.6" xlink:href="#Ѕезым_нный_градиент_34"/><linearGradient id="Ѕезым_нный_градиент_34-7" x1="157.34" y1="-16508.26" x2="152.46" y2="-16516.7" xlink:href="#Ѕезым_нный_градиент_34"/><linearGradient id="Ѕезым_нный_градиент_34-8" x1="156.89" y1="-16511.22" x2="154.67" y2="-16515.07" xlink:href="#Ѕезым_нный_градиент_34"/><linearGradient id="Ѕезым_нный_градиент_34-17" x1="87.2" y1="-16588.63" x2="84.96" y2="-16592.51" xlink:href="#Ѕезым_нный_градиент_34"/><linearGradient id="Ѕезым_нный_градиент_35-7" x1="210.52" y1="-16507.74" x2="198.67" y2="-16528.28" xlink:href="#Ѕезым_нный_градиент_35"/><linearGradient id="Ѕезым_нный_градиент_40-4" x1="211.81" y1="-16513.19" x2="204.01" y2="-16526.7" xlink:href="#Ѕезым_нный_градиент_40"/><linearGradient id="Ѕезым_нный_градиент_34-9" x1="211.71" y1="-16514.25" x2="204.75" y2="-16526.32" xlink:href="#Ѕезым_нный_градиент_34"/><linearGradient id="Ѕезым_нный_градиент_10-2" x1="209.37" y1="-16514.98" x2="204.5" y2="-16523.42" xlink:href="#Ѕезым_нный_градиент_10"/><linearGradient id="Ѕезым_нный_градиент_34-10" x1="208.92" y1="-16517.94" x2="206.7" y2="-16521.79" xlink:href="#Ѕезым_нный_градиент_34"/><linearGradient id="Ѕезым_нный_градиент_28" x1="178.67" y1="-16497.99" x2="186.77" y2="-16497.99" gradientTransform="matrix(1 0 0 -1 0 -16435.44)" gradientUnits="userSpaceOnUse"><stop offset=".16" stop-color="#4d4e4f"/><stop offset=".16" stop-color="#646668"/><stop offset=".56" stop-color="#646668"/><stop offset=".56" stop-color="#85888a"/><stop offset=".87" stop-color="#85888a"/><stop offset=".87" stop-color="#808385"/></linearGradient><linearGradient id="Ѕезым_нный_градиент_34-11" x1="185.1" y1="-16490.42" x2="179.88" y2="-16499.48" xlink:href="#Ѕезым_нный_градиент_34"/><linearGradient id="Ѕезым_нный_градиент_35-8" x1="184.45" y1="-16516.32" x2="172.59" y2="-16536.85" xlink:href="#Ѕезым_нный_градиент_35"/><linearGradient id="Ѕезым_нный_градиент_35-9" x1="190.12" y1="-16519.52" x2="178.26" y2="-16540.06" xlink:href="#Ѕезым_нный_градиент_35"/><linearGradient id="Ѕезым_нный_градиент_40-5" x1="191.4" y1="-16524.97" x2="183.6" y2="-16538.48" xlink:href="#Ѕезым_нный_градиент_40"/><linearGradient id="Ѕезым_нный_градиент_34-12" x1="191.31" y1="-16526.03" x2="184.34" y2="-16538.1" xlink:href="#Ѕезым_нный_градиент_34"/><linearGradient id="Ѕезым_нный_градиент_10-3" x1="188.97" y1="-16526.76" x2="184.09" y2="-16535.2" xlink:href="#Ѕезым_нный_градиент_10"/><linearGradient id="Ѕезым_нный_градиент_34-13" x1="188.52" y1="-16529.72" x2="186.3" y2="-16533.57" xlink:href="#Ѕезым_нный_градиент_34"/><linearGradient id="Ѕезым_нный_градиент_35-10" x1="109.31" y1="-16566.67" x2="97.39" y2="-16587.31" xlink:href="#Ѕезым_нный_градиент_35"/><linearGradient id="Ѕезым_нный_градиент_40-6" x1="110.6" y1="-16572.15" x2="102.76" y2="-16585.72" xlink:href="#Ѕезым_нный_градиент_40"/><linearGradient id="Ѕезым_нный_градиент_34-14" x1="110.5" y1="-16573.21" x2="103.5" y2="-16585.34" xlink:href="#Ѕезым_нный_градиент_34"/><linearGradient id="Ѕезым_нный_градиент_10-4" x1="108.15" y1="-16573.94" x2="103.25" y2="-16582.43" xlink:href="#Ѕезым_нный_градиент_10"/><linearGradient id="Ѕезым_нный_градиент_34-15" x1="107.7" y1="-16576.91" x2="105.47" y2="-16580.79" xlink:href="#Ѕезым_нный_градиент_34"/><linearGradient id="Ѕезым_нный_градиент_35-11" x1="88.81" y1="-16578.39" x2="76.89" y2="-16599.03" xlink:href="#Ѕезым_нный_градиент_35"/><linearGradient id="Ѕезым_нный_градиент_40-7" x1="90.09" y1="-16583.86" x2="82.26" y2="-16597.44" xlink:href="#Ѕезым_нный_градиент_40"/><linearGradient id="Ѕезым_нный_градиент_34-16" x1="90" y1="-16584.93" x2="83" y2="-16597.06" xlink:href="#Ѕезым_нный_градиент_34"/><linearGradient id="Ѕезым_нный_градиент_10-5" x1="87.65" y1="-16585.66" x2="82.75" y2="-16594.14" xlink:href="#Ѕезым_нный_градиент_10"/><style>.cls-4{fill:#e1f0f0}.cls-5{fill:#b9c6c7}.cls-6{fill:#a6a9ab}.cls-7{fill:#dde2e6}.cls-8{fill:#d9dbdd}.cls-9{fill:#72777a}.cls-10{fill:#99afba}.cls-13{fill:#424852}.cls-15{fill:#d7d9db}.cls-17{fill:#e3e5e6}.cls-21{fill:#8d9296}.cls-22{fill:#80898a}.cls-24{fill:#eac72f}.cls-25{fill:#1c8eb0}.cls-27{fill:#74c7ac}.cls-30{fill:#005677}.cls-31{fill:#343434}.cls-32{fill:#878787}.cls-33{fill:#4f4f4f}.cls-37{fill:#a93e38}.cls-38{fill:#ed8333}.cls-39{fill:#edbd51}.cls-54{fill:#3a4044}.cls-57{fill:#747474}.cls-77{fill:#b2b2b2}.cls-78{fill:#888}.cls-79{fill:#5a5c54}.cls-82{fill:#db4040}.cls-83{fill:#db721c}.cls-84{fill:#850f0f}.cls-85{fill:#fff5f5}.cls-86{fill:#b88f8f}.cls-87{fill:#ff8c2e}.cls-88{fill:#b35000}.cls-89{fill:#b32b2b}.cls-93{fill:#6bb5ff}.cls-94{fill:#6da7ed}.cls-96{fill:#4271ce}.cls-97{fill:#3a3b36}.cls-109{fill:#949494}.cls-110{fill:#757575}.cls-111{fill:#c4c4c4}.cls-112{fill:#edf2f6}.cls-115{fill:#6f7f87}.cls-116{fill:#919191}.cls-117{fill:#b7bcbd}.cls-118{fill:#ebebeb}.cls-119{fill:#607173}.cls-120{fill:#7b8694}.cls-121{fill:#9fbdbf}.cls-122{fill:#d9d9d9}.cls-123{fill:#b8b8b8}.cls-124{fill:#c9d2db}</style></defs><g style="isolation:isolate"><g id="Слой_2" data-name="Слой 2"><g id="Layer_1" data-name="Layer 1"><g id="_Группа_" data-name="&lt;Группа&gt;"><path id="_Контур_" data-name="&lt;Контур&gt;" style="mix-blend-mode:multiply" fill="url(#Ѕезым_нный_градиент_2)" d="M192.1 25.9l66.89 38.72-192.1 111.02L0 136.91 192.1 25.9z"/><g id="_Группа_2" data-name="&lt;Группа&gt;"><g id="_Группа_3" data-name="&lt;Группа&gt;"><g id="_Группа_4" data-name="&lt;Группа&gt;"><path id="_Контур_2" data-name="&lt;Контур&gt;" d="M198.36 10v29.61c0 .75.94 1.36 2.09 1.36s2.09-.61 2.09-1.36V10z" fill="url(#Ѕезым_нный_градиент_21)"/><ellipse id="_Контур_3" data-name="&lt;Контур&gt;" class="cls-4" cx="200.45" cy="10.03" rx="2.09" ry="1.36"/></g><g id="_Группа_5" data-name="&lt;Группа&gt;"><path id="_Контур_4" data-name="&lt;Контур&gt;" class="cls-5" d="M201.5 3.62v6.16a1.15 1.15 0 01-1.06.5 1.48 1.48 0 01-.49-.07 1.05 1.05 0 01-.47-.27V4.69a3.31 3.31 0 00-.11-1 .14.14 0 000-.06.43.43 0 00-.2-.23c-.21-.1-.52 0-.89-.18l-.06-.27-.22-1.13-.36-1.36-.09-.37.7-.07a6 6 0 011.75.32c1.25.48 1.5 1.49 1.5 3.28z"/><path id="_Контур_5" data-name="&lt;Контур&gt;" class="cls-6" d="M200 5.27v4.94a1.05 1.05 0 01-.47-.27V4.69a3.31 3.31 0 00-.11-1 .14.14 0 000-.06.43.43 0 00-.2-.23c-.21-.1-.52 0-.89-.18l-.06-.27-.27-1.13a3.71 3.71 0 01.54.17c1.16.47 1.46 1.48 1.46 3.28z"/><path id="_Контур_6" data-name="&lt;Контур&gt;" class="cls-7" d="M200 .34a6 6 0 00-1.76-.34l-.7.07.09.37.09.41a6 6 0 011.79.34c1.21.48 1.47 1.49 1.47 3.28v5.69a.87.87 0 00.5-.39V3.62c.02-1.79-.23-2.8-1.48-3.28z"/><path id="_Контур_7" data-name="&lt;Контур&gt;" class="cls-8" d="M196.88 1a3.19 3.19 0 001.54 2.43c.85.49 1.54.2 1.54-.65a1.61 1.61 0 000-.29 3.33 3.33 0 00-1.54-2.18l-.18-.09c-.77-.36-1.36-.05-1.36.78z"/><path id="_Контур_8" data-name="&lt;Контур&gt;" class="cls-6" d="M199.63 2.55a.74.74 0 01-.17.52c-.21.24-.6.25-1 0a2.56 2.56 0 01-1.21-1.92c0-.63.47-.87 1.07-.59l.14.07.17.11a2.64 2.64 0 011 1.58 1 1 0 010 .23z"/><path id="_Контур_9" data-name="&lt;Контур&gt;" class="cls-9" d="M199.63 2.55a.74.74 0 01-.17.52 2.48 2.48 0 01-1-1.8.75.75 0 01.17-.53 2.64 2.64 0 011 1.58 1 1 0 010 .23z"/></g></g><g id="_Группа_6" data-name="&lt;Группа&gt;"><path id="_Контур_10" data-name="&lt;Контур&gt;" class="cls-10" d="M219.47 41.03l37.8 21.87v-8.23l-37.8-21.87v8.23z"/><path id="_Контур_11" data-name="&lt;Контур&gt;" class="cls-4" d="M255.69 62.69l.9.41 1.74-8.99-1.37-.16-2.18 1.16.91 7.58z"/><path id="_Контур_12" data-name="&lt;Контур&gt;" fill="#cedbdb" d="M256.59 63.1l2.01-.89.2-8.35-3.11 1.66.9 7.58z"/><path id="_Контур_13" data-name="&lt;Контур&gt;" class="cls-4" d="M220.94 31.95l37.86 21.91-1.53.81-37.8-21.87 1.47-.85z"/></g><path id="_Контур_14" data-name="&lt;Контур&gt;" class="cls-10" d="M255.69 55.52l-.91-.41.91 7.58.9.41-.9-7.58z"/><g id="_Группа_7" data-name="&lt;Группа&gt;"><path id="_Контур_15" data-name="&lt;Контур&gt;" d="M228.21 67.72a5 5 0 001.94 4.43c1.63 1.09 5.12 3 5.12 3 4.91-2.83 14.54-12.67 14.54-17.58 0-2.13-4.59-3.75-5.85-4.56-1.63-1-4.1-.89-6.88.71-4.89 2.82-8.87 9.1-8.87 14z" fill="url(#Ѕезым_нный_градиент_35)"/><path id="_Контур_16" data-name="&lt;Контур&gt;" class="cls-13" d="M233 70.52c0 4.91 4 6.59 8.88 3.76s8.88-9.11 8.88-14-4-6.59-8.88-3.76-8.88 9.1-8.88 14z"/><path id="_Контур_17" data-name="&lt;Контур&gt;" d="M235.64 68.53c0 3.26 2.64 4.37 5.9 2.49s5.9-6 5.9-9.3-2.64-4.37-5.9-2.49-5.9 6.05-5.9 9.3z" fill="url(#Ѕезым_нный_градиент_40)"/><path id="_Контур_18" data-name="&lt;Контур&gt;" class="cls-15" d="M236 68.8c0 3.26 2.64 4.37 5.9 2.49s5.9-6 5.9-9.3-2.64-4.37-5.9-2.49-5.9 6.04-5.9 9.3z"/><path id="_Контур_19" data-name="&lt;Контур&gt;" d="M247.19 62.34c0 2.92-2.37 6.66-5.29 8.35s-5.29.68-5.29-2.24a5.56 5.56 0 01.09-1 11.45 11.45 0 015.2-7.36c.21-.12.43-.23.63-.32 2.63-1.2 4.66-.14 4.66 2.57z" fill="url(#Ѕезым_нный_градиент_34)"/><path id="_Контур_20" data-name="&lt;Контур&gt;" class="cls-17" d="M244.62 62a8.28 8.28 0 01-4 6.31 4.62 4.62 0 01-1.17.51 2 2 0 01-2.61-1 1.65 1.65 0 01-.13-.39 7.72 7.72 0 01.29-1.2 11.88 11.88 0 014.16-5.66 8.68 8.68 0 01.75-.5l.53-.27.1-.05c1.22-.02 2.06.79 2.08 2.25z"/><path id="_Контур_21" data-name="&lt;Контур&gt;" d="M244.26 61.48c0 2.17-2.74 6.12-4.92 7.41h-.09a.93.93 0 01-.28-.09h-.11a13.7 13.7 0 01-2-.89 1.65 1.65 0 01-.13-.39 7.72 7.72 0 01.29-1.2 11.88 11.88 0 014.16-5.66 8.68 8.68 0 01.75-.5l.53-.27a13.61 13.61 0 011.6 1.4z" fill="url(#Ѕезым_нный_градиент_10)"/><path id="_Контур_22" data-name="&lt;Контур&gt;" class="cls-8" d="M244.76 62.94a7.16 7.16 0 01-3.45 5.45c-1.9 1.1-3.45.44-3.45-1.46a3.63 3.63 0 01.06-.65 7.47 7.47 0 013.39-4.8l.41-.21c1.72-.8 3.04-.1 3.04 1.67z"/><path id="_Контур_23" data-name="&lt;Контур&gt;" d="M243.12 64.08a3.49 3.49 0 01-1.68 2.65c-.93.53-1.68.22-1.68-.71a1.77 1.77 0 010-.32 3.64 3.64 0 011.65-2.34l.2-.1c.87-.38 1.51-.05 1.51.82z" fill="url(#Ѕезым_нный_градиент_34-2)"/><path id="_Контур_24" data-name="&lt;Контур&gt;" class="cls-17" d="M241.68 64.3a1.4 1.4 0 01-.67 1.06c-.37.21-.67.09-.67-.28a.71.71 0 010-.13A1.46 1.46 0 01241 64h.08c.35-.18.6 0 .6.3z"/></g><g id="_Группа_8" data-name="&lt;Группа&gt;"><path id="_Контур_25" data-name="&lt;Контур&gt;" d="M217.51 78.16l13.31-7.87c1.77-1 1.93-4.06.36-6.78s-4.28-4.1-6.05-3.08l-13.47 8z" fill="url(#Ѕезым_нный_градиент_21-2)"/><ellipse id="_Контур_26" data-name="&lt;Контур&gt;" class="cls-21" cx="214.67" cy="73.24" rx="3.7" ry="5.69" transform="rotate(-30 214.675 73.242)"/><ellipse id="_Контур_27" data-name="&lt;Контур&gt;" class="cls-22" cx="214.03" cy="73.61" rx="2.97" ry="4.56" transform="rotate(-30 214.036 73.61)"/></g><g id="_Группа_9" data-name="&lt;Группа&gt;"><path id="_Контур_28" data-name="&lt;Контур&gt;" d="M189.22 61.2l13.31-7.87c1.77-1 1.93-4.06.36-6.78s-4.28-4.1-6.05-3.08l-13.47 8z" fill="url(#Ѕезым_нный_градиент_21-3)"/><ellipse id="_Контур_29" data-name="&lt;Контур&gt;" class="cls-21" cx="186.38" cy="56.27" rx="3.7" ry="5.69" transform="rotate(-30 186.385 56.262)"/><ellipse id="_Контур_30" data-name="&lt;Контур&gt;" class="cls-22" cx="185.74" cy="56.64" rx="2.97" ry="4.56" transform="rotate(-30 185.74 56.65)"/></g><path id="_Контур_31" data-name="&lt;Контур&gt;" class="cls-24" d="M225.54 32.34l-16.37 9.45V10.33l15.17-6.73-.84 3.56 2.04 9.54v15.64z"/><path id="_Контур_32" data-name="&lt;Контур&gt;" class="cls-24" d="M228.87 35.49l-6.72 3.88s.46-7.7-9-2.49l15.68-12.42z"/><path id="_Контур_33" data-name="&lt;Контур&gt;" class="cls-24" d="M228.87 29.46l-3.49 2.01V16.53l3.49-1.62v14.55z"/><path id="_Контур_34" data-name="&lt;Контур&gt;" class="cls-25" d="M255.52 34v15.65l-2 1.13-2 1.17-.37.21-1 .56-1.09.63c-1.09-.31-2.63-.18-4.73 1l-5.22 3v-29.7l4.48-5.87 10.69-.87-.85 3.56z"/><path id="_Контур_35" data-name="&lt;Контур&gt;" d="M224.34 3.6c8.27 1.21 30 17.31 30 17.31s-5.19.09-15.18 6.74c-7.21 4.8-30-17.32-30-17.32S220.24 3 224.34 3.6z" fill="#4eceff"/><path id="_Контур_36" data-name="&lt;Контур&gt;" class="cls-27" d="M218.86 29.03l4.14-2.39V20l-4.14 2.39v6.64z"/><path id="_Контур_37" data-name="&lt;Контур&gt;" class="cls-27" d="M224.76 41.68l5.57-3.22v-9.33l-5.57 3.21v9.34z"/><path id="_Контур_38" data-name="&lt;Контур&gt;" class="cls-25" d="M256.8 53.86l-4.67 2.83s.46-7.7-9-2.49l13.67-11.38z"/><path id="_Контур_39" data-name="&lt;Контур&gt;" class="cls-25" d="M256.8 47.83l-1.44.96V33.85l1.44 2.62v11.36z"/><g id="_Группа_10" data-name="&lt;Группа&gt;"><path id="_Контур_40" data-name="&lt;Контур&gt;" d="M224.82 24.88l14.33.67s-21.92-14.17-30-17.31c-11.27-4.38-17.4-2.39-17.4-2.39z" fill="#70caed"/><path id="_Контур_41" data-name="&lt;Контур&gt;" class="cls-25" d="M233.34 21.7h.12c-5.7-3.76-12.2-7.78-16.08-9.29-11.27-4.38-17.86-2.15-17.86-2.15l15.59 9c1.69-.53 8.17-1.47 18.23 2.44z"/><path id="_Контур_42" data-name="&lt;Контур&gt;" d="M233.34 21.73h.12c-5.7-3.76-12.2-8.22-16.08-9.73-11.27-4.38-17.86-3-17.86-3l15.59 9c1.69-.54 8.17-.19 18.23 3.73z" fill="#78d9ff"/><path id="_Контур_43" data-name="&lt;Контур&gt;" class="cls-25" d="M224.82 65.39L239.15 56V25.56s-9.89-4-14.33-.67z"/><path id="_Контур_44" data-name="&lt;Контур&gt;" class="cls-30" d="M191.76 5.86l33.06 19.03v40.5l-33.06-19.02V5.86z"/><path id="_Контур_45" data-name="&lt;Контур&gt;" class="cls-30" d="M199.51 9.04v3.23L215.09 21v-2.95l-15.58-9.01z"/></g><path id="_Контур_46" data-name="&lt;Контур&gt;" class="cls-31" d="M253.44 58.44l-1.5-1.13-.36-1.71v-.08a3 3 0 00-.2-.39 3.92 3.92 0 00-.35-.51 3.82 3.82 0 011.85 1.64 2.93 2.93 0 01.2.39v.08z"/><path id="_Контур_47" data-name="&lt;Контур&gt;" class="cls-32" d="M253.15 56.1l.28 2.35-.36-1.71v-.08a2.93 2.93 0 00-.2-.39 3.82 3.82 0 00-1.87-1.65 3.6 3.6 0 00-1.88-1.26c-1.09-.31-1.55.7-3.65 1.91l-10.95 6.81-1.52-1.14v-1.3l6.14-3.54 2.56-1.48 2.66-1.54c.23-.15.49-.29.76-.44a9 9 0 012-.77 5.1 5.1 0 014.06.3 8.85 8.85 0 012 1.49 2.08 2.08 0 01.47.79z"/><path id="_Контур_48" data-name="&lt;Контур&gt;" class="cls-33" d="M254.74 57.68l-1.31.76-.36-1.71v-.08a2.93 2.93 0 00-.2-.39 3.82 3.82 0 00-1.87-1.64l-.38-.13c-1.09-.31-2.63-.18-4.73 1l-5.22 3-6.14 3.54v-1.26l6.14-3.54 2.56-1.48 2.66-1.54c.23-.15.49-.29.76-.43a9 9 0 012-.77 5.1 5.1 0 014.06.3 3.23 3.23 0 01.37.27l.09.08a4.25 4.25 0 011.24 2.22l.27 1.35z"/><g id="_Группа_11" data-name="&lt;Группа&gt;"><path id="_Контур_49" data-name="&lt;Контур&gt;" class="cls-33" d="M252.13 35.75a5.51 5.51 0 00.89-1.48 1.91 1.91 0 00.06-1.3l-1.29-7c-.26-.9-1-1.09-2-.52l-4.38 2.4a2.87 2.87 0 00-.75.67 5.93 5.93 0 00-1.4 3.06v7.72c0 1.28.69 1.66 1.8 1l6.24-3.79a4.35 4.35 0 00.86-.68z"/><path id="_Контур_50" data-name="&lt;Контур&gt;" d="M251.47 35.84l-6.24 3.79c-1 .6-1.6.27-1.6-.87V31a4.12 4.12 0 011.53-2.64l4.38-2.4c.94-.52 1.61-.35 1.85.46l1.3 7.06a3.19 3.19 0 01-1.22 2.36z" fill="#6ba9b0"/></g><path id="_Контур_51" data-name="&lt;Контур&gt;" class="cls-33" d="M248.95 48.2a1.15 1.15 0 01-1.15-1.2v-5.9a1.7 1.7 0 01.85-1.47l2.35-1.32a1.15 1.15 0 011.73 1v5.9a1.7 1.7 0 01-.85 1.47L249.52 48a1.16 1.16 0 01-.57.2z"/><path id="_Контур_52" data-name="&lt;Контур&gt;" d="M251.7 46.32l-2.38 1.37a.75.75 0 01-1.12-.69v-5.9a1.29 1.29 0 01.65-1.12l2.38-1.37a.75.75 0 011.12.65v5.9a1.29 1.29 0 01-.65 1.16z" fill="#4e98a1"/><g id="_Группа_12" data-name="&lt;Группа&gt;"><path id="_Контур_53" data-name="&lt;Контур&gt;" d="M228 51.43a1.15 1.15 0 01-1.15-1.15V38.19a1.7 1.7 0 01.85-1.47l2.3-1.37a1.15 1.15 0 011.73 1v12.08a1.7 1.7 0 01-.85 1.47l-2.38 1.37a1.16 1.16 0 01-.5.16z" fill="#006b96"/><path id="_Контур_54" data-name="&lt;Контур&gt;" class="cls-25" d="M230.79 49.55l-2.38 1.37a.75.75 0 01-1.12-.65V38.19a1.29 1.29 0 01.65-1.12l2.38-1.37a.75.75 0 011.12.65v12.08a1.29 1.29 0 01-.65 1.12z"/></g><path id="_Контур_55" data-name="&lt;Контур&gt;" class="cls-31" d="M234.51 60.77l-1.5-1.13v1.3l1.5 1.14v-1.31z"/><g id="_Группа_13" data-name="&lt;Группа&gt;"><g id="_Группа_14" data-name="&lt;Группа&gt;"><path id="_Контур_56" data-name="&lt;Контур&gt;" class="cls-7" d="M238.83 54.47l-14.01 8.25v2.72l.65.4 14.01-10.97-.65-.4z"/><path id="_Контур_57" data-name="&lt;Контур&gt;" class="cls-6" d="M239.48 54.87l-14.01 8.25v2.72l14.01-8.25v-2.72z"/></g><g id="_Группа_15" data-name="&lt;Группа&gt;"><path id="_Контур_58" data-name="&lt;Контур&gt;" class="cls-22" d="M236.72 57.64v.43a.56.56 0 01-.28.47l-1.84 1.07a.22.22 0 01-.33-.19v-.12l1.54-.9a.56.56 0 00.28-.47v-.31l.3-.17a.22.22 0 01.33.19z"/><path id="_Контур_59" data-name="&lt;Контур&gt;" class="cls-24" d="M236.09 57.62v.31a.56.56 0 01-.28.47l-1.54.9V59a.56.56 0 01.28-.47z"/></g><g id="_Группа_16" data-name="&lt;Группа&gt;"><path id="_Контур_60" data-name="&lt;Контур&gt;" class="cls-22" d="M232.39 60.2v.43a.56.56 0 01-.28.47l-1.84 1.07a.22.22 0 01-.33-.19v-.12l1.54-.9a.56.56 0 00.28-.47v-.31l.3-.17a.22.22 0 01.33.19z"/><path id="_Контур_61" data-name="&lt;Контур&gt;" class="cls-24" d="M231.76 60.18v.31a.56.56 0 01-.28.47l-1.54.9v-.31a.56.56 0 01.28-.47z"/></g></g><g id="_Группа_17" data-name="&lt;Группа&gt;"><path id="_Контур_62" data-name="&lt;Контур&gt;" class="cls-37" d="M238.9 18.81l-.81.52c-.22.14-.24.38-.47.25l-.36-.29c-.25-.14-.52-.67-.28-.82l.81-.51c.22-.14 1.1-.53 1.33-.39h.09c.26.18-.07 1.1-.31 1.24z"/><path id="_Контур_63" data-name="&lt;Контур&gt;" class="cls-38" d="M240 18.93l-1.29.82a.8.8 0 01-.82 0l-.31-.18c-.28-.16.09-1.31.35-1.47l.92-.08c.25-.15.63-.55.89-.4l.21.16a.9.9 0 01.05 1.15z"/><path id="_Контур_64" data-name="&lt;Контур&gt;" class="cls-39" d="M239.72 18.21l-.81.52a.71.71 0 01-.73 0h-.1a.38.38 0 010-.65l.81-.51a.71.71 0 01.73 0h.09a.38.38 0 01.01.64z"/></g><g id="_Группа_18" data-name="&lt;Группа&gt;"><path id="_Контур_65" data-name="&lt;Контур&gt;" class="cls-37" d="M224.11 10.24l-.81.52c-.22.14-.24.38-.47.25l-.36-.29c-.25-.14-.52-.67-.28-.82l.81-.51c.22-.14 1.1-.53 1.33-.39h.09c.26.18-.08 1.09-.31 1.24z"/><path id="_Контур_66" data-name="&lt;Контур&gt;" class="cls-38" d="M225.25 10.35l-1.29.82a.8.8 0 01-.82 0l-.31-.18c-.28-.16.09-1.31.35-1.47l.92-.08c.25-.15.63-.55.89-.4l.21.16a.9.9 0 01.05 1.15z"/><path id="_Контур_67" data-name="&lt;Контур&gt;" class="cls-39" d="M224.93 9.63l-.81.52a.71.71 0 01-.73 0h-.1a.38.38 0 010-.65l.81-.51a.71.71 0 01.73 0h.09a.38.38 0 01.01.64z"/></g><g id="_Группа_19" data-name="&lt;Группа&gt;"><path id="_Контур_68" data-name="&lt;Контур&gt;" class="cls-37" d="M231.82 14.28l-.81.52c-.22.14-.24.38-.47.25l-.36-.29c-.25-.14-.52-.67-.28-.82l.81-.51c.22-.14 1.1-.53 1.33-.39h.09c.26.18-.07 1.09-.31 1.24z"/><path id="_Контур_69" data-name="&lt;Контур&gt;" class="cls-38" d="M233 14.39l-1.29.82a.8.8 0 01-.82 0l-.31-.18c-.28-.16.09-1.31.35-1.47l.92-.08c.25-.15.63-.55.89-.4l.21.16a.9.9 0 01.05 1.15z"/><path id="_Контур_70" data-name="&lt;Контур&gt;" class="cls-39" d="M232.64 13.67l-.81.52a.71.71 0 01-.73 0h-.1a.38.38 0 010-.65l.81-.51a.71.71 0 01.73 0h.09a.38.38 0 01.01.64z"/></g><g id="_Группа_20" data-name="&lt;Группа&gt;"><g id="_Группа_21" data-name="&lt;Группа&gt;"><path id="_Контур_71" data-name="&lt;Контур&gt;" d="M232.1 28.7v29.58c0 .75.94 1.36 2.09 1.36s2.09-.61 2.09-1.36V28.63z" fill="url(#Ѕезым_нный_градиент_21-4)"/><ellipse id="_Контур_72" data-name="&lt;Контур&gt;" class="cls-4" cx="234.2" cy="28.7" rx="2.09" ry="1.36"/></g><g id="_Группа_22" data-name="&lt;Группа&gt;"><path id="_Контур_73" data-name="&lt;Контур&gt;" class="cls-5" d="M235.24 22.29v6.16a1.15 1.15 0 01-1.06.5 1.49 1.49 0 01-.49-.07 1.06 1.06 0 01-.47-.27v-5.25a3.31 3.31 0 00-.11-1 .14.14 0 000-.06.43.43 0 00-.2-.23c-.21-.1-.52 0-.89-.18l-.06-.27-.25-1.09-.31-1.37-.09-.37.7-.07a6 6 0 011.79.34c1.2.43 1.44 1.44 1.44 3.23z"/><path id="_Контур_74" data-name="&lt;Контур&gt;" class="cls-6" d="M233.7 23.94v4.94a1.06 1.06 0 01-.47-.27v-5.25a3.31 3.31 0 00-.11-1 .14.14 0 000-.06.43.43 0 00-.2-.23c-.21-.1-.52 0-.89-.18l-.06-.27-.25-1.09a3.72 3.72 0 01.54.17c1.18.43 1.44 1.44 1.44 3.24z"/><path id="_Контур_75" data-name="&lt;Контур&gt;" class="cls-7" d="M233.78 19a6 6 0 00-1.79-.34l-.7.07.09.37.09.41a6 6 0 011.79.34c1.21.48 1.47 1.49 1.47 3.28v5.69a.87.87 0 00.5-.39v-6.14c.01-1.79-.23-2.8-1.45-3.29z"/><path id="_Контур_76" data-name="&lt;Контур&gt;" class="cls-8" d="M230.62 19.62a3.19 3.19 0 001.54 2.43c.85.49 1.54.2 1.54-.65a1.62 1.62 0 000-.29 3.33 3.33 0 00-1.54-2.11l-.18-.09c-.77-.38-1.36-.08-1.36.71z"/><path id="_Контур_77" data-name="&lt;Контур&gt;" class="cls-6" d="M233.37 21.22a.74.74 0 01-.17.52c-.21.24-.6.25-1 0a2.56 2.56 0 01-1.21-1.92c0-.63.47-.87 1.07-.59l.14.07.17.11a2.64 2.64 0 011 1.58 1 1 0 010 .23z"/><path id="_Контур_78" data-name="&lt;Контур&gt;" class="cls-9" d="M233.37 21.22a.74.74 0 01-.17.52 2.48 2.48 0 01-1-1.8.75.75 0 01.17-.53 2.64 2.64 0 011 1.58 1 1 0 010 .23z"/></g></g><g id="_Группа_23" data-name="&lt;Группа&gt;"><path id="_Контур_79" data-name="&lt;Контур&gt;" class="cls-27" d="M217.76 48.44l-30.23 17.48v-9.74l23.16-13.26 7.07 5.52z"/><g id="_Группа_24" data-name="&lt;Группа&gt;"><g id="_Группа_25" data-name="&lt;Группа&gt;"><path id="_Контур_80" data-name="&lt;Контур&gt;" d="M157.28 65.4a5 5 0 001.94 4.43c1.63 1.09 5.12 3 5.12 3 4.91-2.83 14.54-12.67 14.54-17.58 0-2.13-4.59-3.75-5.85-4.56-1.63-1-4.1-.89-6.88.71-4.9 2.82-8.87 9.09-8.87 14z" fill="url(#Ѕезым_нный_градиент_35-2)"/><path id="_Контур_81" data-name="&lt;Контур&gt;" class="cls-13" d="M162.08 68.2c0 4.91 4 6.59 8.88 3.76s8.88-9.11 8.88-14-4-6.59-8.88-3.76-8.88 9.09-8.88 14z"/><path id="_Контур_82" data-name="&lt;Контур&gt;" d="M163 68.6a5 5 0 001.9 4.4c1.63 1.09 5.12 3 5.12 3 4.91-2.83 14.54-12.67 14.54-17.58 0-2.13-4.59-3.75-5.85-4.56-1.63-1-4.1-.89-6.88.71-4.9 2.85-8.83 9.13-8.83 14.03z" fill="url(#Ѕезым_нный_градиент_35-3)"/><path id="_Контур_83" data-name="&lt;Контур&gt;" class="cls-13" d="M167.76 71.41c0 4.91 4 6.59 8.88 3.76s8.88-9.11 8.88-14-4-6.59-8.88-3.76-8.88 9.09-8.88 14z"/><path id="_Контур_84" data-name="&lt;Контур&gt;" d="M170.38 69.42c0 3.26 2.64 4.37 5.9 2.49s5.9-6 5.9-9.3-2.64-4.37-5.9-2.49-5.9 6.04-5.9 9.3z" fill="url(#Ѕезым_нный_градиент_40-2)"/><path id="_Контур_85" data-name="&lt;Контур&gt;" class="cls-15" d="M170.74 69.68c0 3.26 2.64 4.37 5.9 2.49s5.9-6 5.9-9.3-2.64-4.37-5.9-2.49-5.9 6.04-5.9 9.3z"/><path id="_Контур_86" data-name="&lt;Контур&gt;" d="M181.93 63.22c0 2.92-2.37 6.66-5.29 8.35s-5.29.68-5.29-2.24a5.55 5.55 0 01.09-1 11.45 11.45 0 015.2-7.36c.21-.12.43-.23.63-.32 2.63-1.2 4.66-.14 4.66 2.57z" fill="url(#Ѕезым_нный_градиент_34-3)"/><path id="_Контур_87" data-name="&lt;Контур&gt;" class="cls-17" d="M179.36 62.92a8.28 8.28 0 01-4 6.31 4.62 4.62 0 01-1.17.51 2 2 0 01-2.61-1 1.64 1.64 0 01-.13-.39 7.71 7.71 0 01.29-1.2 11.88 11.88 0 014.16-5.66 8.7 8.7 0 01.75-.5l.53-.27.1-.05c1.22-.06 2.06.75 2.08 2.25z"/><path id="_Контур_88" data-name="&lt;Контур&gt;" d="M179 62.36c0 2.17-2.74 6.12-4.92 7.41h-.09a.93.93 0 01-.28-.09h-.11a13.71 13.71 0 01-2-.89 1.64 1.64 0 01-.13-.39 7.71 7.71 0 01.29-1.2 11.88 11.88 0 014.16-5.66 8.7 8.7 0 01.75-.5l.53-.27a13.59 13.59 0 011.6 1.4z" fill="url(#Ѕезым_нный_градиент_34-4)"/><path id="_Контур_89" data-name="&lt;Контур&gt;" class="cls-8" d="M179.5 63.82a7.16 7.16 0 01-3.45 5.45c-1.9 1.1-3.45.44-3.45-1.46a3.62 3.62 0 01.06-.65 7.47 7.47 0 013.39-4.8l.41-.21c1.72-.79 3.04-.15 3.04 1.67z"/><path id="_Контур_90" data-name="&lt;Контур&gt;" d="M177.86 65a3.49 3.49 0 01-1.68 2.65c-.93.53-1.68.22-1.68-.71a1.77 1.77 0 010-.32 3.64 3.64 0 011.65-2.34l.2-.1c.87-.42 1.51-.08 1.51.82z" fill="url(#Ѕезым_нный_градиент_34-5)"/><path id="_Контур_91" data-name="&lt;Контур&gt;" class="cls-17" d="M176.42 65.18a1.4 1.4 0 01-.67 1.06c-.37.21-.67.09-.67-.28a.7.7 0 010-.13 1.46 1.46 0 01.66-.94h.08c.35-.19.6-.05.6.29z"/></g><g id="_Группа_26" data-name="&lt;Группа&gt;"><path id="_Контур_92" data-name="&lt;Контур&gt;" d="M136.87 77.18a5 5 0 001.94 4.43c1.63 1.09 5.12 3 5.12 3 4.91-2.83 14.54-12.67 14.54-17.58 0-2.13-4.59-3.75-5.85-4.56-1.63-1-4.1-.89-6.88.71-4.89 2.82-8.87 9.09-8.87 14z" fill="url(#Ѕезым_нный_градиент_35-4)"/><path id="_Контур_93" data-name="&lt;Контур&gt;" class="cls-13" d="M141.68 80c0 4.91 4 6.59 8.88 3.76s8.88-9.11 8.88-14-4-6.59-8.88-3.76-8.88 9.07-8.88 14z"/><path id="_Контур_94" data-name="&lt;Контур&gt;" d="M142.55 80.38a5 5 0 001.94 4.43c1.63 1.09 5.12 3 5.12 3 4.91-2.83 14.54-12.67 14.54-17.58 0-2.13-4.59-3.75-5.85-4.56-1.63-1-4.1-.89-6.88.71-4.89 2.82-8.87 9.1-8.87 14z" fill="url(#Ѕезым_нный_градиент_35-5)"/><path id="_Контур_95" data-name="&lt;Контур&gt;" class="cls-13" d="M147.35 83.18c0 4.91 4 6.59 8.88 3.76s8.88-9.11 8.88-14-4-6.59-8.88-3.76-8.88 9.1-8.88 14z"/><path id="_Контур_96" data-name="&lt;Контур&gt;" d="M150 81.19c0 3.26 2.64 4.37 5.9 2.49s5.9-6 5.9-9.3-2.64-4.37-5.9-2.49-5.9 6.05-5.9 9.3z" fill="url(#Ѕезым_нный_градиент_40-3)"/><path id="_Контур_97" data-name="&lt;Контур&gt;" class="cls-15" d="M150.34 81.46c0 3.26 2.64 4.37 5.9 2.49s5.9-6 5.9-9.3-2.64-4.37-5.9-2.49-5.9 6.04-5.9 9.3z"/><path id="_Контур_98" data-name="&lt;Контур&gt;" d="M161.53 75c0 2.92-2.37 6.66-5.29 8.35s-5.29.68-5.29-2.24a5.55 5.55 0 01.09-1 11.45 11.45 0 015.2-7.36c.21-.12.43-.23.63-.32 2.62-1.2 4.66-.14 4.66 2.57z" fill="url(#Ѕезым_нный_градиент_34-6)"/><path id="_Контур_99" data-name="&lt;Контур&gt;" class="cls-17" d="M159 74.7a8.28 8.28 0 01-4 6.31 4.63 4.63 0 01-1.17.51 2 2 0 01-2.61-1 1.64 1.64 0 01-.13-.39 7.72 7.72 0 01.29-1.2 11.88 11.88 0 014.16-5.66 8.67 8.67 0 01.75-.5l.53-.27.1-.05c1.18-.06 2.02.75 2.08 2.25z"/><path id="_Контур_100" data-name="&lt;Контур&gt;" d="M158.59 74.14c0 2.17-2.74 6.12-4.92 7.41h-.09a.93.93 0 01-.28-.09h-.11a13.72 13.72 0 01-2-.89 1.64 1.64 0 01-.13-.39 7.72 7.72 0 01.29-1.2 11.88 11.88 0 014.16-5.66 8.67 8.67 0 01.75-.5l.53-.27a13.62 13.62 0 011.6 1.4z" fill="url(#Ѕезым_нный_градиент_34-7)"/><path id="_Контур_101" data-name="&lt;Контур&gt;" class="cls-8" d="M159.1 75.6a7.16 7.16 0 01-3.45 5.4c-1.9 1.1-3.45.44-3.45-1.46a3.62 3.62 0 01.06-.65 7.47 7.47 0 013.39-4.8l.41-.21c1.71-.75 3.04-.05 3.04 1.72z"/><path id="_Контур_102" data-name="&lt;Контур&gt;" d="M157.46 76.74a3.49 3.49 0 01-1.68 2.65c-.93.53-1.68.22-1.68-.71a1.77 1.77 0 010-.32 3.64 3.64 0 011.68-2.36l.2-.1c.83-.36 1.48-.03 1.48.84z" fill="url(#Ѕезым_нный_градиент_34-8)"/><path id="_Контур_103" data-name="&lt;Контур&gt;" class="cls-17" d="M156 77a1.4 1.4 0 01-.67 1.06c-.37.21-.67.09-.67-.28a.71.71 0 010-.13 1.46 1.46 0 01.66-.94h.08c.36-.23.6-.1.6.29z"/></g></g><g id="_Группа_27" data-name="&lt;Группа&gt;"><g id="_Группа_28" data-name="&lt;Группа&gt;"><path id="_Контур_104" data-name="&lt;Контур&gt;" d="M179 55.18c-.21-2.07-.32.16-.32.16-2.38-1.56-7.81-5-7.84-5l-.46-1.45c.17-.05 4.22-1.31 7.21.65a5.81 5.81 0 01.59.45c.64.55 7.49 4.24 7.88 5s-5.67-1.14-5.55 0z" fill="#d84e42"/></g><path id="_Контур_105" data-name="&lt;Контур&gt;" class="cls-54" d="M180.53 55l6.33 5.17a2.49 2.49 0 00-.23-3c-1.26-1.69-4-3.11-4.71-2.79z"/><g id="_Группа_29" data-name="&lt;Группа&gt;"><path id="_Контур_106" data-name="&lt;Контур&gt;" d="M186.86 60.2a5.6 5.6 0 00-2.24-4.38c-2.38-1.56-5.89-.49-5.93-.47l-.46-1.45c.17-.05 4.22-1.31 7.21.65a7 7 0 012.92 5.5z" fill="#b03a28"/></g><path id="_Контур_107" data-name="&lt;Контур&gt;" fill="#9a1200" d="M178.24 53.9l-7.84-5.02.45 1.45 7.85 5.01-.46-1.44z"/></g><path id="_Контур_108" data-name="&lt;Контур&gt;" class="cls-32" d="M142.39 85.42l20.31 11.36 58.62-40.19-20.31-12.39-50.04 28.91-8.58 8.16v4.15z"/><path id="_Контур_109" data-name="&lt;Контур&gt;" class="cls-57" d="M150.97 73.11l20.31 12.32-8.58 8.23-20.31-12.39 8.58-8.16z"/><path id="_Контур_110" data-name="&lt;Контур&gt;" fill="#333" d="M164.35 94.73l-20.31-12.39v4.15l20.31 12.38v-4.14z"/><path id="_Контур_111" data-name="&lt;Контур&gt;" class="cls-33" d="M162.7 97.8l58.62-34.43v-6.79l-50.04 28.85-8.58 8.23v4.14z"/><g id="_Группа_30" data-name="&lt;Группа&gt;"><path id="_Контур_112" data-name="&lt;Контур&gt;" class="cls-54" d="M211.77 73.09l6.33 5.17a2.49 2.49 0 00-.23-3c-1.26-1.69-4-3.11-4.71-2.79z"/><path id="_Контур_113" data-name="&lt;Контур&gt;" d="M188.91 83.9a5 5 0 001.94 4.43c1.63 1.09 5.12 3 5.12 3 4.91-2.83 14.54-12.67 14.54-17.58 0-2.13-4.59-3.75-5.85-4.56-1.63-1-4.1-.89-6.88.71-4.9 2.82-8.87 9.1-8.87 14z" fill="url(#Ѕезым_нный_градиент_35-6)"/><path id="_Контур_114" data-name="&lt;Контур&gt;" class="cls-13" d="M193.71 86.7c0 4.91 4 6.59 8.88 3.76s8.88-9.11 8.88-14-4-6.59-8.88-3.76-8.88 9.09-8.88 14z"/><path id="_Контур_115" data-name="&lt;Контур&gt;" d="M194.58 87.1a5 5 0 001.94 4.43c1.63 1.09 5.12 3 5.12 3 4.91-2.83 14.54-12.67 14.54-17.58 0-2.13-4.59-3.75-5.85-4.56-1.63-1-4.1-.89-6.88.71-4.89 2.82-8.87 9.1-8.87 14z" fill="url(#Ѕезым_нный_градиент_35-7)"/><g id="_Группа_31" data-name="&lt;Группа&gt;"><g id="_Группа_32" data-name="&lt;Группа&gt;"><path id="_Контур_116" data-name="&lt;Контур&gt;" d="M210.26 73.25c-.21-2.07-.32.16-.32.16-2.38-1.56-7.81-5-7.84-5l-.46-1.45c.17-.05 4.22-1.31 7.21.65a5.8 5.8 0 01.59.45c.64.55 7.49 4.24 7.88 5s-5.67-1.14-5.55 0z" fill="#2fc8d8"/></g><g id="_Группа_33" data-name="&lt;Группа&gt;"><path id="_Контур_117" data-name="&lt;Контур&gt;" class="cls-25" d="M218.1 78.27a5.6 5.6 0 00-2.24-4.38c-2.38-1.56-5.89-.49-5.93-.47l-.45-1.42c.17-.05 4.22-1.31 7.21.65a7 7 0 012.92 5.5z"/></g><path id="_Контур_118" data-name="&lt;Контур&gt;" fill="#007d9a" d="M209.48 71.96l-7.84-5.01.46 1.44 7.84 5.02-.46-1.45z"/></g><path id="_Контур_119" data-name="&lt;Контур&gt;" class="cls-13" d="M199.39 89.9c0 4.91 4 6.59 8.88 3.76s8.88-9.11 8.88-14-4-6.59-8.88-3.76-8.88 9.1-8.88 14z"/><path id="_Контур_120" data-name="&lt;Контур&gt;" d="M202 87.92c0 3.26 2.64 4.37 5.9 2.49s5.9-6 5.9-9.3-2.64-4.37-5.9-2.49-5.9 6.04-5.9 9.3z" fill="url(#Ѕезым_нный_градиент_40-4)"/><path id="_Контур_121" data-name="&lt;Контур&gt;" class="cls-15" d="M202.37 88.18c0 3.26 2.64 4.37 5.9 2.49s5.9-6 5.9-9.3-2.64-4.37-5.9-2.49-5.9 6.04-5.9 9.3z"/><path id="_Контур_122" data-name="&lt;Контур&gt;" d="M213.56 81.72c0 2.92-2.37 6.66-5.29 8.35s-5.29.68-5.29-2.24a5.56 5.56 0 01.09-1 11.45 11.45 0 015.2-7.36c.21-.12.42-.23.63-.32 2.63-1.2 4.66-.15 4.66 2.57z" fill="url(#Ѕезым_нный_градиент_34-9)"/><path id="_Контур_123" data-name="&lt;Контур&gt;" class="cls-17" d="M211 81.42a8.28 8.28 0 01-4 6.31 4.62 4.62 0 01-1.17.51 2 2 0 01-2.61-1 1.65 1.65 0 01-.13-.39 7.72 7.72 0 01.29-1.2 11.88 11.88 0 014.14-5.65 8.66 8.66 0 01.75-.5l.53-.27.1-.05c1.23-.07 2.1.74 2.1 2.24z"/><path id="_Контур_124" data-name="&lt;Контур&gt;" d="M210.63 80.86c0 2.17-2.74 6.12-4.92 7.41h-.09a.93.93 0 01-.28-.09h-.11a13.72 13.72 0 01-2-.89 1.65 1.65 0 01-.13-.39 7.72 7.72 0 01.29-1.2 11.88 11.88 0 014.13-5.7 8.66 8.66 0 01.75-.5l.53-.27a13.62 13.62 0 011.6 1.4z" fill="url(#Ѕезым_нный_градиент_10-2)"/><path id="_Контур_125" data-name="&lt;Контур&gt;" class="cls-8" d="M211.13 82.32a7.16 7.16 0 01-3.45 5.45c-1.9 1.1-3.45.44-3.45-1.46a3.63 3.63 0 01.06-.65 7.47 7.47 0 013.39-4.8l.41-.21c1.72-.8 3.04-.1 3.04 1.67z"/><path id="_Контур_126" data-name="&lt;Контур&gt;" d="M209.49 83.46a3.49 3.49 0 01-1.68 2.65c-.93.53-1.68.22-1.68-.71a1.77 1.77 0 010-.32 3.64 3.64 0 011.65-2.34l.2-.1c.87-.38 1.51-.05 1.51.82z" fill="url(#Ѕезым_нный_градиент_34-10)"/><path id="_Контур_127" data-name="&lt;Контур&gt;" class="cls-17" d="M208.05 83.68a1.4 1.4 0 01-.67 1.06c-.37.21-.67.09-.67-.28a.71.71 0 010-.13 1.46 1.46 0 01.66-.94h.08c.35-.19.6-.05.6.29z"/></g><g id="_Группа_34" data-name="&lt;Группа&gt;"><path id="_Контур_128" data-name="&lt;Контур&gt;" fill="#a4a4a4" d="M165.05 65.67l22.02-12.71 12.61 7.16-22.03 12.71-12.6-7.16z"/><ellipse id="_Контур_129" data-name="&lt;Контур&gt;" class="cls-32" cx="182.72" cy="60.99" rx="7.51" ry="4.89"/><path id="_Контур_130" data-name="&lt;Контур&gt;" class="cls-57" d="M176.97 72.49l22.02-12.71 1.33 2.62-24.68 14.24 1.33-4.15z"/><path id="_Контур_131" data-name="&lt;Контур&gt;" class="cls-33" d="M164.36 65.33l12.61 7.16-1.33 4.15-12.61-7.16 1.33-4.15z"/><g id="_Группа_35" data-name="&lt;Группа&gt;"><path id="_Контур_132" data-name="&lt;Контур&gt;" d="M178.67 60.23v2.15c0 1.45 1.81 2.63 4 2.63s4-1.18 4-2.63V60.1z" fill="url(#Ѕезым_нный_градиент_28)"/><path id="_Контур_133" data-name="&lt;Контур&gt;" d="M175.21 58.19v1c0 2.7 3.36 4.89 7.51 4.89s7.51-2.19 7.51-4.89v-1.2z" fill="url(#Ѕезым_нный_градиент_34-11)"/><ellipse id="_Контур_134" data-name="&lt;Контур&gt;" cx="182.72" cy="58.19" rx="7.51" ry="4.89" fill="#bbb"/></g></g><g id="_Группа_36" data-name="&lt;Группа&gt;"><path id="_Контур_135" data-name="&lt;Контур&gt;" d="M168.5 95.68a5 5 0 001.94 4.43c1.63 1.09 5.12 3 5.12 3 4.91-2.83 14.54-12.67 14.54-17.58 0-2.13-4.59-3.75-5.85-4.56-1.63-1-4.1-.89-6.88.71-4.89 2.82-8.87 9.09-8.87 14z" fill="url(#Ѕезым_нный_градиент_35-8)"/><path id="_Контур_136" data-name="&lt;Контур&gt;" class="cls-13" d="M173.31 98.48c0 4.91 4 6.59 8.88 3.76s8.88-9.11 8.88-14-4-6.59-8.88-3.76-8.88 9.09-8.88 14z"/><path id="_Контур_137" data-name="&lt;Контур&gt;" d="M174.18 98.88a5 5 0 001.94 4.43c1.63 1.09 5.12 3 5.12 3 4.91-2.83 14.54-12.67 14.54-17.58 0-2.13-4.59-3.75-5.85-4.56-1.63-1-4.1-.89-6.88.71-4.9 2.82-8.87 9.12-8.87 14z" fill="url(#Ѕезым_нный_градиент_35-9)"/><path id="_Контур_138" data-name="&lt;Контур&gt;" class="cls-13" d="M179 101.68c0 4.91 4 6.59 8.88 3.76s8.88-9.11 8.88-14-4-6.59-8.88-3.76-8.88 9.1-8.88 14z"/><path id="_Контур_139" data-name="&lt;Контур&gt;" d="M181.61 99.69c0 3.26 2.64 4.37 5.9 2.49s5.9-6 5.9-9.3-2.64-4.37-5.9-2.49-5.9 6.05-5.9 9.3z" fill="url(#Ѕезым_нный_градиент_40-5)"/><path id="_Контур_140" data-name="&lt;Контур&gt;" class="cls-15" d="M182 100c0 3.26 2.64 4.37 5.9 2.49s5.9-6 5.9-9.3-2.64-4.37-5.9-2.49-5.9 6-5.9 9.3z"/><path id="_Контур_141" data-name="&lt;Контур&gt;" d="M193.16 93.5c0 2.92-2.37 6.66-5.29 8.35s-5.29.68-5.29-2.24a5.55 5.55 0 01.09-1 11.45 11.45 0 015.2-7.36c.21-.12.43-.23.63-.32 2.62-1.2 4.66-.14 4.66 2.57z" fill="url(#Ѕезым_нный_градиент_34-12)"/><path id="_Контур_142" data-name="&lt;Контур&gt;" class="cls-17" d="M190.59 93.2a8.28 8.28 0 01-4 6.31 4.62 4.62 0 01-1.17.51 2 2 0 01-2.61-1 1.64 1.64 0 01-.13-.39 7.72 7.72 0 01.29-1.2 11.88 11.88 0 014.16-5.66 8.72 8.72 0 01.75-.5l.53-.27.1-.05c1.22-.06 2.06.75 2.08 2.25z"/><path id="_Контур_143" data-name="&lt;Контур&gt;" d="M190.22 92.64c0 2.17-2.74 6.12-4.92 7.41h-.09a.93.93 0 01-.28-.09h-.11a13.72 13.72 0 01-2-.89 1.64 1.64 0 01-.13-.39 7.72 7.72 0 01.29-1.2 11.88 11.88 0 014.16-5.66 8.72 8.72 0 01.75-.5l.53-.27a13.61 13.61 0 011.6 1.4z" fill="url(#Ѕезым_нный_градиент_10-3)"/><path id="_Контур_144" data-name="&lt;Контур&gt;" class="cls-8" d="M190.73 94.1a7.16 7.16 0 01-3.45 5.45c-1.9 1.1-3.45.44-3.45-1.46a3.63 3.63 0 01.06-.65 7.47 7.47 0 013.39-4.8l.41-.21c1.71-.8 3.04-.1 3.04 1.67z"/><path id="_Контур_145" data-name="&lt;Контур&gt;" d="M189.09 95.24a3.49 3.49 0 01-1.68 2.65c-.93.53-1.68.22-1.68-.71a1.76 1.76 0 010-.32 3.64 3.64 0 011.65-2.34l.2-.1c.86-.42 1.51-.05 1.51.82z" fill="url(#Ѕезым_нный_градиент_34-13)"/><path id="_Контур_146" data-name="&lt;Контур&gt;" class="cls-17" d="M187.65 95.46a1.4 1.4 0 01-.67 1.06c-.37.21-.67.09-.67-.28a.71.71 0 010-.13 1.46 1.46 0 01.66-.94h.08c.34-.17.6-.06.6.29z"/></g><g id="_Группа_37" data-name="&lt;Группа&gt;"><path id="_Контур_147" data-name="&lt;Контур&gt;" class="cls-77" d="M165.79 97.33l1.84-.95-32.76-19.55-1.84.94 32.76 19.56z"/><path id="_Контур_148" data-name="&lt;Контур&gt;" class="cls-78" d="M165.79 102.52l1.84-.94v-5.2l-1.84.95v5.19z"/><path id="_Контур_149" data-name="&lt;Контур&gt;" class="cls-79" d="M133.03 77.77l32.76 19.56v5.19l-32.76-19.55v-5.2z"/></g><g id="_Группа_38" data-name="&lt;Группа&gt;"><path id="_Контур_150" data-name="&lt;Контур&gt;" fill="#bdc1c4" d="M216.62 32.98l-1.66 10.19v8.9l-1.6.89-1.56 7.24 7.65-4.56-1.17-23.62-1.66.96z"/><path id="_Контур_151" data-name="&lt;Контур&gt;" class="cls-6" d="M196.29 41.27l18.67 10.8-1.6.89-18.66-10.79 1.59-.9z"/><path id="_Контур_152" data-name="&lt;Контур&gt;" class="cls-79" d="M196.29 41.27l18.67 10.8v-8.9l-18.67-10.79v8.89z"/><path id="_Контур_153" data-name="&lt;Контур&gt;" fill="#878983" d="M197.96 22.2l18.66 10.79-1.66 10.18-18.67-10.79 1.67-10.18z"/><path id="_Контур_154" data-name="&lt;Контур&gt;" class="cls-79" d="M193.03 48.99l18.85 11.15 1.48-7.18-18.66-10.79-1.67 6.82z"/><path id="_Контур_155" data-name="&lt;Контур&gt;" class="cls-6" d="M218.28 32.02l-1.66.97-18.66-10.79 1.66-.97 18.66 10.79z"/></g><g id="_Группа_39" data-name="&lt;Группа&gt;"><g id="_Группа_40" data-name="&lt;Группа&gt;"><path id="_Контур_156" data-name="&lt;Контур&gt;" class="cls-82" d="M161.37 96.43l1.1-.59-2.96-1.73-1.11.59 2.97 1.73z"/><path id="_Контур_157" data-name="&lt;Контур&gt;" class="cls-83" d="M161.37 100.67l1.1-.59v-4.24l-1.1.59v4.24z"/><path id="_Контур_158" data-name="&lt;Контур&gt;" class="cls-84" d="M158.4 94.7l2.97 1.73v4.24l-2.97-1.72V94.7z"/></g><g id="_Группа_41" data-name="&lt;Группа&gt;"><path id="_Контур_159" data-name="&lt;Контур&gt;" class="cls-85" d="M162.58 97.12l1.11-.59-1.24-.72-1.11.6 1.24.71z"/><path id="_Контур_160" data-name="&lt;Контур&gt;" class="cls-83" d="M162.58 101.37l1.11-.59v-4.25l-1.11.59v4.25z"/><path id="_Контур_161" data-name="&lt;Контур&gt;" class="cls-86" d="M161.34 96.41l1.24.71v4.25l-1.24-.72v-4.24z"/></g><g id="_Группа_42" data-name="&lt;Группа&gt;"><path id="_Контур_162" data-name="&lt;Контур&gt;" class="cls-87" d="M163.75 97.81l1.12-.59-1.24-.72-1.12.59 1.24.72z"/><path id="_Контур_163" data-name="&lt;Контур&gt;" class="cls-83" d="M163.75 102.05l1.12-.59v-4.24l-1.12.59v4.24z"/><path id="_Контур_164" data-name="&lt;Контур&gt;" class="cls-88" d="M162.51 97.09l1.24.72v4.24l-1.24-.71v-4.25z"/></g></g><g id="_Группа_43" data-name="&lt;Группа&gt;"><g id="_Группа_44" data-name="&lt;Группа&gt;"><path id="_Контур_165" data-name="&lt;Контур&gt;" class="cls-87" d="M133.4 79.67l1.11-.6-1.24-.71-1.11.59 1.24.72z"/><path id="_Контур_166" data-name="&lt;Контур&gt;" class="cls-83" d="M133.4 83.91l1.11-.59v-4.25l-1.11.6v4.24z"/><path id="_Контур_167" data-name="&lt;Контур&gt;" class="cls-88" d="M132.16 78.95l1.24.72v4.24l-1.24-.72v-4.24z"/></g><g id="_Группа_45" data-name="&lt;Группа&gt;"><path id="_Контур_168" data-name="&lt;Контур&gt;" class="cls-85" d="M134.63 80.36l1.11-.59-1.24-.72-1.11.59 1.24.72z"/><path id="_Контур_169" data-name="&lt;Контур&gt;" class="cls-83" d="M134.63 84.6l1.11-.59v-4.24l-1.11.59v4.24z"/><path id="_Контур_170" data-name="&lt;Контур&gt;" class="cls-86" d="M133.39 79.64l1.24.72v4.24l-1.24-.71v-4.25z"/></g><g id="_Группа_46" data-name="&lt;Группа&gt;"><path id="_Контур_171" data-name="&lt;Контур&gt;" class="cls-82" d="M137.6 82.08l1.11-.59-2.97-1.72-1.11.59 2.97 1.72z"/><path id="_Контур_172" data-name="&lt;Контур&gt;" class="cls-89" d="M137.6 86.33l1.11-.59v-4.25l-1.11.59v4.25z"/><path id="_Контур_173" data-name="&lt;Контур&gt;" class="cls-84" d="M134.63 80.36l2.97 1.72v4.25l-2.97-1.73v-4.24z"/></g></g><g id="_Группа_47" data-name="&lt;Группа&gt;"><path id="_Контур_174" data-name="&lt;Контур&gt;" d="M149.21 93.55a2.13 2.13 0 01-1-1.64v-3c0-.59.44-.81 1-.5l7.27 4.25a2.13 2.13 0 011 1.64v3c0 .59-.44.82-1 .5z" fill="#f9fcfc"/><path id="_Контур_175" data-name="&lt;Контур&gt;" d="M148.92 93.65a2.13 2.13 0 01-1-1.64V89c0-.59.44-.81 1-.5l7.27 4.25a2.13 2.13 0 011 1.64v3c0 .59-.44.81-1 .5z" fill="#e0e0e0"/><path id="_Контур_176" data-name="&lt;Контур&gt;" d="M156.19 97.69l-7.27-4.25a1.73 1.73 0 01-.8-1.34v-3c0-.48.36-.66.8-.4l7.27 4.25a1.73 1.73 0 01.8 1.34v3c.01.48-.36.71-.8.4z" fill="#f8ffff"/><g id="_Группа_48" data-name="&lt;Группа&gt;"><path id="_Контур_177" data-name="&lt;Контур&gt;" class="cls-93" d="M157 94.25a1.73 1.73 0 00-.79-1.31l-7.27-4.25c-.43-.25-.78-.08-.79.39z"/><path id="_Контур_178" data-name="&lt;Контур&gt;" class="cls-93" d="M148.13 92.13a1.73 1.73 0 00.79 1.31l7.27 4.25c.43.25.78.08.79-.39z"/></g></g></g></g><g id="_Группа_49" data-name="&lt;Группа&gt;"><g id="_Группа_50" data-name="&lt;Группа&gt;"><path id="_Контур_179" data-name="&lt;Контур&gt;" class="cls-79" d="M33.88 146.29L66.8 165.3v-4.62l-32.92-19.01v4.62z"/><path id="_Контур_180" data-name="&lt;Контур&gt;" class="cls-78" d="M66.8 165.3l.81-.46v-4.63l-.81.47v4.62z"/><path id="_Контур_181" data-name="&lt;Контур&gt;" class="cls-77" d="M34.68 141.21l32.93 19-.81.47-32.92-19.01.8-.46z"/><g id="_Группа_51" data-name="&lt;Группа&gt;"><g id="_Группа_52" data-name="&lt;Группа&gt;"><g id="_Группа_53" data-name="&lt;Группа&gt;"><path id="_Контур_182" data-name="&lt;Контур&gt;" class="cls-94" d="M44.2 146l-7.29-4.07c.87-9.37 9.11-16.36 9.46-16.66l.11-.08 27.92-16.1c.17-.05 4.24-1.32 7.25.65.81.53 6.8 3.18 7.29 4.07s-4.49.14-4.35 1.46l-1.52.16c-.22-2.09-.34-1.6-1.13-1.47-2.61.42-2 1.34-2.49 1.48L54.2 130.33c-.66.58-9.2 7.3-10 15.67z"/></g></g><path id="_Контур_183" data-name="&lt;Контур&gt;" d="M83.07 115.45l7.29 4.07s.8-2.25 0-2.93-2.94-3.5-5-3.35a4.15 4.15 0 00-2.63.8z" fill="#1a2647"/><g id="_Группа_54" data-name="&lt;Группа&gt;"><g id="_Группа_55" data-name="&lt;Группа&gt;"><path id="_Контур_184" data-name="&lt;Контур&gt;" class="cls-96" d="M45.72 146.15L44.2 146c.87-9.37 9.11-16.36 9.46-16.66l.11-.08 27.92-16.1c.17-.05 4.24-1.32 7.25.65a7.06 7.06 0 012.93 5.53l-1.52.16a5.63 5.63 0 00-2.25-4.41c-2.21-1.45-5.36-.64-5.88-.49L54.6 130.57c-.67.57-8.1 7.2-8.88 15.58z"/></g></g></g><g id="_Группа_56" data-name="&lt;Группа&gt;"><path id="_Контур_185" data-name="&lt;Контур&gt;" class="cls-77" d="M160.29 116.43l-3.38 1.95-2.22-1.31 3.39-1.96 2.21 1.32z"/><path id="_Контур_186" data-name="&lt;Контур&gt;" class="cls-97" d="M118.03 135.21l-45.85 26.46 4.98-13.76 34.05-18.95 6.82 6.25z"/><g id="_Группа_57" data-name="&lt;Группа&gt;"><path id="_Контур_187" data-name="&lt;Контур&gt;" d="M93.29 146.1a5.06 5.06 0 002 4.45c1.64 1.1 5.15 3 5.15 3 4.93-2.85 14.62-12.73 14.62-17.67 0-2.15-4.62-3.77-5.88-4.58-1.64-1.05-4.12-.89-6.91.71-4.98 2.86-8.98 9.16-8.98 14.09z" fill="url(#Ѕезым_нный_градиент_35-10)"/><path id="_Контур_188" data-name="&lt;Контур&gt;" class="cls-13" d="M98.12 148.92c0 4.93 4 6.62 8.93 3.77s8.93-9.15 8.93-14.08-4-6.62-8.93-3.77-8.93 9.16-8.93 14.08z"/><path id="_Контур_189" data-name="&lt;Контур&gt;" d="M100.75 146.92c0 3.27 2.65 4.39 5.93 2.5s5.93-6.07 5.93-9.35-2.65-4.39-5.93-2.5-5.93 6.08-5.93 9.35z" fill="url(#Ѕезым_нный_градиент_40-6)"/><path id="_Контур_190" data-name="&lt;Контур&gt;" class="cls-15" d="M101.12 147.18c0 3.27 2.65 4.39 5.93 2.5s5.93-6.07 5.93-9.35-2.65-4.39-5.93-2.5-5.93 6.08-5.93 9.35z"/><path id="_Контур_191" data-name="&lt;Контур&gt;" d="M112.36 140.69c0 2.94-2.38 6.69-5.32 8.39s-5.32.68-5.32-2.25a5.58 5.58 0 01.09-1 11.51 11.51 0 015.23-7.39c.21-.12.43-.23.63-.33 2.65-1.21 4.69-.11 4.69 2.58z" fill="url(#Ѕезым_нный_градиент_34-14)"/><path id="_Контур_192" data-name="&lt;Контур&gt;" class="cls-17" d="M109.78 140.39a8.32 8.32 0 01-4 6.34 4.64 4.64 0 01-1.18.51 2 2 0 01-2.62-1 1.65 1.65 0 01-.13-.4 7.75 7.75 0 01.29-1.21 11.94 11.94 0 014.18-5.68 8.74 8.74 0 01.75-.5l.53-.27.1-.05c1.21-.06 2.06.76 2.08 2.26z"/><path id="_Контур_193" data-name="&lt;Контур&gt;" d="M109.41 139.83c0 2.18-2.76 6.15-4.94 7.44h-.09a.93.93 0 01-.28-.09h-.11a13.79 13.79 0 01-2-.89 1.65 1.65 0 01-.13-.4 7.75 7.75 0 01.29-1.21 11.94 11.94 0 014.18-5.68 8.74 8.74 0 01.75-.5l.53-.27a13.68 13.68 0 011.61 1.4z" fill="url(#Ѕезым_нный_градиент_10-4)"/><path id="_Контур_194" data-name="&lt;Контур&gt;" class="cls-8" d="M109.92 141.29a7.19 7.19 0 01-3.47 5.47c-1.91 1.1-3.47.44-3.47-1.47a3.64 3.64 0 01.06-.65 7.51 7.51 0 013.41-4.82l.41-.21c1.73-.79 3.06-.1 3.06 1.68z"/><path id="_Контур_195" data-name="&lt;Контур&gt;" d="M108.27 142.44a3.51 3.51 0 01-1.69 2.67c-.93.54-1.69.22-1.69-.71a1.78 1.78 0 010-.32 3.66 3.66 0 011.66-2.35l.2-.1c.87-.4 1.52-.06 1.52.81z" fill="url(#Ѕезым_нный_градиент_34-15)"/><path id="_Контур_196" data-name="&lt;Контур&gt;" class="cls-17" d="M106.83 142.66a1.4 1.4 0 01-.68 1.07c-.37.21-.68.09-.68-.29a.71.71 0 010-.13 1.46 1.46 0 01.67-.94h.08c.35-.19.61-.05.61.29z"/></g><g id="_Группа_58" data-name="&lt;Группа&gt;"><path id="_Контур_197" data-name="&lt;Контур&gt;" d="M72.78 157.82a5.06 5.06 0 002 4.45c1.64 1.1 5.15 3 5.15 3 4.93-2.85 14.62-12.73 14.62-17.67 0-2.15-4.62-3.77-5.88-4.58-1.64-1.05-4.13-.89-6.91.71-4.98 2.86-8.98 9.16-8.98 14.09z" fill="url(#Ѕезым_нный_градиент_35-11)"/><path id="_Контур_198" data-name="&lt;Контур&gt;" class="cls-13" d="M77.61 160.64c0 4.93 4 6.62 8.93 3.77s8.93-9.15 8.93-14.08-4-6.62-8.93-3.77-8.93 9.14-8.93 14.08z"/><path id="_Контур_199" data-name="&lt;Контур&gt;" d="M80.25 158.64c0 3.27 2.65 4.39 5.93 2.5s5.93-6.07 5.93-9.35-2.65-4.39-5.93-2.5-5.93 6.07-5.93 9.35z" fill="url(#Ѕезым_нный_градиент_40-7)"/><path id="_Контур_200" data-name="&lt;Контур&gt;" class="cls-15" d="M80.62 158.9c0 3.27 2.65 4.39 5.93 2.5s5.93-6.07 5.93-9.35-2.65-4.39-5.93-2.5-5.93 6.08-5.93 9.35z"/><path id="_Контур_201" data-name="&lt;Контур&gt;" d="M91.86 152.41c0 2.94-2.38 6.69-5.32 8.39s-5.32.68-5.32-2.25a5.58 5.58 0 01.09-1 11.51 11.51 0 015.23-7.39c.21-.12.43-.23.63-.33 2.64-1.21 4.69-.14 4.69 2.58z" fill="url(#Ѕезым_нный_градиент_34-16)"/><path id="_Контур_202" data-name="&lt;Контур&gt;" class="cls-17" d="M89.27 152.11a8.32 8.32 0 01-4 6.34 4.64 4.64 0 01-1.18.51 2 2 0 01-2.62-1 1.65 1.65 0 01-.13-.4 7.75 7.75 0 01.29-1.21 11.94 11.94 0 014.18-5.68 8.74 8.74 0 01.75-.5l.53-.27.1-.05c1.22-.06 2.06.75 2.08 2.26z"/><path id="_Контур_203" data-name="&lt;Контур&gt;" d="M88.91 151.55c0 2.18-2.76 6.15-4.94 7.44h-.09a.94.94 0 01-.28-.09h-.11a13.79 13.79 0 01-2-.89 1.65 1.65 0 01-.13-.4 7.75 7.75 0 01.29-1.21 11.94 11.94 0 014.18-5.68 8.74 8.74 0 01.75-.5l.53-.27a13.68 13.68 0 011.61 1.4z" fill="url(#Ѕезым_нный_градиент_10-5)"/><path id="_Контур_204" data-name="&lt;Контур&gt;" class="cls-8" d="M89.42 153a7.19 7.19 0 01-3.47 5.47c-1.91 1.1-3.47.44-3.47-1.47a3.64 3.64 0 01.06-.65 7.51 7.51 0 013.41-4.82l.41-.21c1.72-.78 3.06-.09 3.06 1.68z"/><path id="_Контур_205" data-name="&lt;Контур&gt;" d="M87.77 154.16a3.51 3.51 0 01-1.69 2.67c-.93.54-1.69.22-1.69-.71a1.78 1.78 0 010-.32 3.66 3.66 0 011.66-2.35l.2-.1c.87-.35 1.52-.06 1.52.81z" fill="url(#Ѕезым_нный_градиент_34-17)"/><path id="_Контур_206" data-name="&lt;Контур&gt;" class="cls-17" d="M86.32 154.38a1.4 1.4 0 01-.68 1.07c-.37.21-.68.09-.68-.29a.72.72 0 010-.13 1.46 1.46 0 01.67-.94h.08c.35-.19.61-.09.61.29z"/></g><g id="_Группа_59" data-name="&lt;Группа&gt;"><g id="_Группа_60" data-name="&lt;Группа&gt;"><path id="_Контур_207" data-name="&lt;Контур&gt;" class="cls-94" d="M72.86 162.81l-7.29-4.07c.87-9.37 9.11-16.36 9.46-16.66l.11-.08 27.92-16.1c.17-.05 4.24-1.32 7.25.65.81.53 6.8 3.18 7.29 4.07s-4.49.14-4.35 1.46l-1.52.16c-.22-2.09-.34-1.6-1.13-1.47-2.61.42-2 1.34-2.49 1.48l-25.24 14.88c-.67.58-9.23 7.3-10.01 15.68z"/></g></g><path id="_Контур_208" data-name="&lt;Контур&gt;" class="cls-97" d="M159.04 101.28l-86.82 50.19v-4.16l86.82-50.19v4.16z"/><path id="_Контур_209" data-name="&lt;Контур&gt;" class="cls-79" d="M157.21 117.57l-1.21-.71V99.64l1.21.72v17.21z"/><path id="_Контур_210" data-name="&lt;Контур&gt;" class="cls-77" d="M157.09 104.29l-35.38 21.63v-2.29l34.44-19.96.94.62z"/><path id="_Контур_211" data-name="&lt;Контур&gt;" class="cls-77" d="M157.09 110.12l-35.38 21.63v-2.29l34.44-19.96.94.62z"/><path id="_Контур_212" data-name="&lt;Контур&gt;" class="cls-97" d="M72.22 147.31L44.2 131.09v4.16l28.02 16.22v-4.16z"/><path id="_Контур_213" data-name="&lt;Контур&gt;" d="M111.73 132.25l7.29 4.07s.8-2.25 0-2.93-2.94-3.5-5-3.35a4.15 4.15 0 00-2.63.8z" fill="#192535"/><g id="_Группа_61" data-name="&lt;Группа&gt;"><g id="_Группа_62" data-name="&lt;Группа&gt;"><path id="_Контур_214" data-name="&lt;Контур&gt;" class="cls-96" d="M74.38 163l-1.52-.14c.87-9.37 9.11-16.36 9.46-16.66l.11-.08L110.35 130c.17-.05 4.24-1.32 7.25.65a7.06 7.06 0 012.93 5.53l-1.52.16a5.63 5.63 0 00-2.25-4.41c-2.21-1.45-5.36-.64-5.88-.49l-27.62 15.92c-.67.58-8.1 7.21-8.88 15.64z"/></g></g><path id="_Контур_215" data-name="&lt;Контур&gt;" class="cls-78" d="M157.09 106.59l-34.45 19.96v-2.3l34.45-19.96v2.3z"/><path id="_Контур_216" data-name="&lt;Контур&gt;" class="cls-78" d="M157.09 112.42l-34.45 19.95v-2.3l34.45-19.95v2.3z"/><path id="_Контур_217" data-name="&lt;Контур&gt;" class="cls-78" d="M124.02 134.37l-1.74 1.01V120.4l1.74-1v14.97z"/><path id="_Контур_218" data-name="&lt;Контур&gt;" class="cls-78" d="M158.95 116.57l-1.74 1v-17.21l1.74-1v17.21z"/><path id="_Контур_219" data-name="&lt;Контур&gt;" class="cls-78" d="M160.29 117.44l-3.38 1.96v-1.02l3.38-1.95v1.01z"/><path id="_Контур_220" data-name="&lt;Контур&gt;" class="cls-79" d="M122.28 135.21l-1.21-.55v-14.97l1.21.71v14.81z"/></g><g id="_Группа_63" data-name="&lt;Группа&gt;"><g id="_Группа_64" data-name="&lt;Группа&gt;"><path id="_Контур_221" data-name="&lt;Контур&gt;" class="cls-109" d="M64.01 158.98l.53-.31v-3.35l-.53.3v3.36z"/><path id="_Контур_222" data-name="&lt;Контур&gt;" class="cls-110" d="M64.01 158.98l-.59-.34v-3.36l.59.34v3.36z"/><path id="_Контур_223" data-name="&lt;Контур&gt;" class="cls-111" d="M64.54 155.32l-.53.3-.59-.34.52-.31.6.35z"/></g><g id="_Группа_65" data-name="&lt;Группа&gt;"><path id="_Контур_224" data-name="&lt;Контур&gt;" class="cls-109" d="M55.2 153.88l.53-.31v-3.36l-.53.31v3.36z"/><path id="_Контур_225" data-name="&lt;Контур&gt;" class="cls-110" d="M55.2 153.88l-.59-.35v-3.35l.59.34v3.36z"/><path id="_Контур_226" data-name="&lt;Контур&gt;" class="cls-111" d="M55.73 150.21l-.53.31-.59-.34.53-.31.59.34z"/></g><g id="_Группа_66" data-name="&lt;Группа&gt;"><path id="_Контур_227" data-name="&lt;Контур&gt;" class="cls-109" d="M46.4 148.78l.53-.31v-3.36l-.53.31v3.36z"/><path id="_Контур_228" data-name="&lt;Контур&gt;" class="cls-110" d="M46.4 148.78l-.59-.35v-3.36l.59.35v3.36z"/><path id="_Контур_229" data-name="&lt;Контур&gt;" class="cls-111" d="M46.93 145.11l-.53.31-.59-.35.52-.3.6.34z"/></g><g id="_Группа_67" data-name="&lt;Группа&gt;"><path id="_Контур_230" data-name="&lt;Контур&gt;" class="cls-109" d="M37.59 143.67l.53-.3v-3.36l-.53.31v3.35z"/><path id="_Контур_231" data-name="&lt;Контур&gt;" class="cls-110" d="M37.59 143.67l-.59-.34v-3.36l.59.35v3.35z"/><path id="_Контур_232" data-name="&lt;Контур&gt;" class="cls-111" d="M38.12 140.01l-.53.31-.59-.35.53-.3.59.34z"/></g></g><g id="_Группа_68" data-name="&lt;Группа&gt;"><path id="_Контур_233" data-name="&lt;Контур&gt;" class="cls-77" d="M65.96 152.53l3.01-1.74-32.93-19.01-3 1.74 32.92 19.01z"/><path id="_Контур_234" data-name="&lt;Контур&gt;" class="cls-78" d="M65.96 157.75l3.01-1.74v-5.22l-3.01 1.74v5.22z"/><path id="_Контур_235" data-name="&lt;Контур&gt;" class="cls-79" d="M33.04 133.52l32.92 19.01v5.22l-32.92-19.01v-5.22z"/></g><path id="_Контур_236" data-name="&lt;Контур&gt;" class="cls-112" d="M187.5 3.99L220.43 23 66.89 111.64 33.96 92.63 187.5 3.99z"/><path id="_Контур_237" data-name="&lt;Контур&gt;" fill="#c8d5e2" d="M220.43 52.12l-46.99 27.12-3.64 13.72-102.91 59.41v-40.73L220.43 23v29.12z"/><path id="_Контур_238" data-name="&lt;Контур&gt;" fill="#c0ccd9" d="M69.73 113.28l147.85-85.35v22.55L171 77.36l-3.65 13.72-97.62 56.36v-34.16z"/><path id="_Контур_239" data-name="&lt;Контур&gt;" class="cls-112" d="M216.01 28.84v20.82l-46.58 26.89-3.64 13.72-96.06 55.45v1.72l97.62-56.36L171 77.36l46.58-26.88V27.93l-1.57.91z"/><path id="_Контур_240" data-name="&lt;Контур&gt;" class="cls-10" d="M66.89 152.37l-32.93-19.01V92.63l32.93 19.01v40.73z"/><g id="_Группа_69" data-name="&lt;Группа&gt;"><path id="_Составной_контур_" data-name="&lt;Составной контур&gt;" class="cls-115" d="M65.83 150.15L35 132.36V94.85l30.82 17.79zm-30-18.25L65 148.77V113.1L35.81 96.22z"/></g><g id="_Группа_70" data-name="&lt;Группа&gt;"><path id="_Контур_241" data-name="&lt;Контур&gt;" class="cls-115" d="M49.07 103.45h.79v37.35h-.79z"/></g><g id="_Группа_71" data-name="&lt;Группа&gt;"><g id="_Группа_72" data-name="&lt;Группа&gt;"><path id="_Контур_242" data-name="&lt;Контур&gt;" class="cls-116" d="M44.74 133.09l2.96 1.77v2.22l-2.96-1.77v-2.22z"/><path id="_Контур_243" data-name="&lt;Контур&gt;" class="cls-117" d="M48.2 134.56l-.5.3v2.22l.5-.29v-2.23z"/><path id="_Контур_244" data-name="&lt;Контур&gt;" class="cls-118" d="M45.25 132.79l-.51.3 2.96 1.77.5-.3-2.95-1.77z"/></g><g id="_Группа_73" data-name="&lt;Группа&gt;"><path id="_Контур_245" data-name="&lt;Контур&gt;" class="cls-116" d="M50.85 136.54l2.95 1.78v2.22l-2.95-1.77v-2.23z"/><path id="_Контур_246" data-name="&lt;Контур&gt;" class="cls-117" d="M54.31 138.02l-.51.3v2.22l.51-.29v-2.23z"/><path id="_Контур_247" data-name="&lt;Контур&gt;" class="cls-118" d="M51.35 136.25l-.5.29 2.95 1.78.51-.3-2.96-1.77z"/></g><g id="_Группа_74" data-name="&lt;Группа&gt;"><path id="_Контур_248" data-name="&lt;Контур&gt;" class="cls-116" d="M44.74 104.15l2.96 1.77v2.22l-2.96-1.77v-2.22z"/><path id="_Контур_249" data-name="&lt;Контур&gt;" class="cls-117" d="M48.2 105.63l-.5.29v2.22l.5-.29v-2.22z"/><path id="_Контур_250" data-name="&lt;Контур&gt;" class="cls-118" d="M45.25 103.86l-.51.29 2.96 1.77.5-.29-2.95-1.77z"/></g><g id="_Группа_75" data-name="&lt;Группа&gt;"><path id="_Контур_251" data-name="&lt;Контур&gt;" class="cls-116" d="M50.85 107.61l2.95 1.77v2.22l-2.95-1.77v-2.22z"/><path id="_Контур_252" data-name="&lt;Контур&gt;" class="cls-117" d="M54.31 109.09l-.51.29v2.22l.51-.29v-2.22z"/><path id="_Контур_253" data-name="&lt;Контур&gt;" class="cls-118" d="M51.35 107.31l-.5.3 2.95 1.77.51-.29-2.96-1.78z"/></g><g id="_Группа_76" data-name="&lt;Группа&gt;"><path id="_Контур_254" data-name="&lt;Контур&gt;" class="cls-116" d="M62.4 115.06l2.95 1.77v1.11l-2.95-1.77v-1.11z"/><path id="_Контур_255" data-name="&lt;Контур&gt;" class="cls-117" d="M65.86 116.54l-.51.29v1.11l.51-.29v-1.11z"/><path id="_Контур_256" data-name="&lt;Контур&gt;" class="cls-118" d="M62.9 114.77l-.5.29 2.95 1.77.51-.29-2.96-1.77z"/></g><g id="_Группа_77" data-name="&lt;Группа&gt;"><path id="_Контур_257" data-name="&lt;Контур&gt;" class="cls-116" d="M62.4 143.98l2.95 1.77v1.11l-2.95-1.77v-1.11z"/><path id="_Контур_258" data-name="&lt;Контур&gt;" class="cls-117" d="M65.86 145.46l-.51.29v1.11l.51-.29v-1.11z"/><path id="_Контур_259" data-name="&lt;Контур&gt;" class="cls-118" d="M62.9 143.68l-.5.3 2.95 1.77.51-.29-2.96-1.78z"/></g><g id="_Группа_78" data-name="&lt;Группа&gt;"><path id="_Контур_260" data-name="&lt;Контур&gt;" class="cls-116" d="M34.99 99.19l2.96 1.77v1.11l-2.96-1.77v-1.11z"/><path id="_Контур_261" data-name="&lt;Контур&gt;" class="cls-117" d="M38.45 100.66l-.5.3v1.11l.5-.29v-1.12z"/><path id="_Контур_262" data-name="&lt;Контур&gt;" class="cls-118" d="M35.5 98.89l-.51.3 2.96 1.77.5-.3-2.95-1.77z"/></g><g id="_Группа_79" data-name="&lt;Группа&gt;"><path id="_Контур_263" data-name="&lt;Контур&gt;" class="cls-116" d="M34.99 128.1l2.96 1.78v1.11l-2.96-1.78v-1.11z"/><path id="_Контур_264" data-name="&lt;Контур&gt;" class="cls-117" d="M38.45 129.58l-.5.3v1.11l.5-.3v-1.11z"/><path id="_Контур_265" data-name="&lt;Контур&gt;" class="cls-118" d="M35.5 127.81l-.51.29 2.96 1.78.5-.3-2.95-1.77z"/></g><g id="_Группа_80" data-name="&lt;Группа&gt;"><path id="_Контур_266" data-name="&lt;Контур&gt;" class="cls-119" d="M51.87 105.11l.71.43v37.48l-.71-.43v-37.48z"/><path id="_Контур_267" data-name="&lt;Контур&gt;" class="cls-120" d="M53.09 105.25l-.51.29v37.48l.51-.29v-37.48z"/><path id="_Контур_268" data-name="&lt;Контур&gt;" class="cls-121" d="M52.38 104.82l-.51.29.71.43.51-.29-.71-.43z"/></g><g id="_Группа_81" data-name="&lt;Группа&gt;"><path id="_Контур_269" data-name="&lt;Контур&gt;" class="cls-119" d="M45.87 101.66l.7.43v37.62l-.7-.42v-37.63z"/><path id="_Контур_270" data-name="&lt;Контур&gt;" class="cls-120" d="M47.08 101.8l-.51.29v37.62l.51-.29V101.8z"/><path id="_Контур_271" data-name="&lt;Контур&gt;" class="cls-121" d="M46.37 101.37l-.5.29.7.43.51-.29-.71-.43z"/></g></g><path id="_Контур_272" data-name="&lt;Контур&gt;" class="cls-79" d="M154.69 117.07l2.22 1.31v1.02l-2.22-1.31v-1.02z"/><g id="_Группа_82" data-name="&lt;Группа&gt;"><g id="_Группа_83" data-name="&lt;Группа&gt;"><g id="_Группа_84" data-name="&lt;Группа&gt;"><path id="_Контур_273" data-name="&lt;Контур&gt;" class="cls-87" d="M34.64 144.08l1.11-.59-1.24-.72-1.12.59 1.25.72z"/><path id="_Контур_274" data-name="&lt;Контур&gt;" class="cls-83" d="M34.64 148.35l1.11-.6v-4.26l-1.11.59v4.27z"/><path id="_Контур_275" data-name="&lt;Контур&gt;" class="cls-88" d="M33.39 143.36l1.25.72v4.27l-1.25-.72v-4.27z"/></g><g id="_Группа_85" data-name="&lt;Группа&gt;"><path id="_Контур_276" data-name="&lt;Контур&gt;" class="cls-85" d="M35.87 144.78l1.12-.59-1.25-.72-1.11.59 1.24.72z"/><path id="_Контур_277" data-name="&lt;Контур&gt;" class="cls-83" d="M35.87 149.05l1.12-.6v-4.26l-1.12.59v4.27z"/><path id="_Контур_278" data-name="&lt;Контур&gt;" class="cls-86" d="M34.63 144.06l1.24.72v4.27l-1.24-.72v-4.27z"/></g><g id="_Группа_86" data-name="&lt;Группа&gt;"><path id="_Контур_279" data-name="&lt;Контур&gt;" class="cls-82" d="M38.86 146.51l1.12-.59-2.99-1.73-1.11.59 2.98 1.73z"/><path id="_Контур_280" data-name="&lt;Контур&gt;" class="cls-89" d="M38.86 150.78l1.12-.59v-4.27l-1.12.59v4.27z"/><path id="_Контур_281" data-name="&lt;Контур&gt;" class="cls-84" d="M35.88 144.78l2.98 1.73v4.27l-2.98-1.73v-4.27z"/></g></g><g id="_Группа_87" data-name="&lt;Группа&gt;"><g id="_Группа_88" data-name="&lt;Группа&gt;"><path id="_Контур_282" data-name="&lt;Контур&gt;" class="cls-82" d="M62.74 160.29l1.12-.59-2.98-1.73-1.12.59 2.98 1.73z"/><path id="_Контур_283" data-name="&lt;Контур&gt;" class="cls-83" d="M62.74 164.56l1.12-.6v-4.26l-1.12.59v4.27z"/><path id="_Контур_284" data-name="&lt;Контур&gt;" class="cls-84" d="M59.76 158.56l2.98 1.73v4.27l-2.98-1.73v-4.27z"/></g><g id="_Группа_89" data-name="&lt;Группа&gt;"><path id="_Контур_285" data-name="&lt;Контур&gt;" class="cls-85" d="M63.96 160.99l1.12-.59-1.24-.72-1.12.59 1.24.72z"/><path id="_Контур_286" data-name="&lt;Контур&gt;" class="cls-83" d="M63.96 165.26l1.12-.6v-4.26l-1.12.59v4.27z"/><path id="_Контур_287" data-name="&lt;Контур&gt;" class="cls-86" d="M62.72 160.27l1.24.72v4.27l-1.24-.72v-4.27z"/></g><g id="_Группа_90" data-name="&lt;Группа&gt;"><path id="_Контур_288" data-name="&lt;Контур&gt;" class="cls-87" d="M65.14 161.68l1.12-.6-1.24-.72-1.12.6 1.24.72z"/><path id="_Контур_289" data-name="&lt;Контур&gt;" class="cls-83" d="M65.14 165.94l1.12-.59v-4.27l-1.12.6v4.26z"/><path id="_Контур_290" data-name="&lt;Контур&gt;" class="cls-88" d="M63.9 160.96l1.24.72v4.26l-1.24-.72v-4.26z"/></g></g></g></g><g id="_Группа_91" data-name="&lt;Группа&gt;"><path id="_Контур_291" data-name="&lt;Контур&gt;" class="cls-112" d="M211.66 24.64l-.46-.26L183.11 7.8 133 36.59l28.55 16.78s50.1-28.77 50.11-28.73z"/><path id="_Контур_292" data-name="&lt;Контур&gt;" class="cls-122" d="M211.66 24.64v1.55l-50.12 28.69v-1.5l50.12-28.74z"/><path id="_Контур_293" data-name="&lt;Контур&gt;" class="cls-123" d="M161.54 53.38v1.5L132.99 37.9v-1.31l28.55 16.79z"/></g><g id="_Группа_92" data-name="&lt;Группа&gt;"><path id="_Контур_294" data-name="&lt;Контур&gt;" class="cls-124" d="M188.69 17.2l7.66 5.91-23.75-12.68-37.43 23.68 10.36 6.06s43.16-23 43.16-22.97z"/><path id="_Контур_295" data-name="&lt;Контур&gt;" class="cls-112" d="M201.25 21.54l-.39-.22-23.78-14-34 19.56 24.15 14.2s34.01-19.57 34.02-19.54z"/><path id="_Контур_296" data-name="&lt;Контур&gt;" class="cls-122" d="M201.25 21.54l8.71 3.25-45.65 26.19 2.94-9.92 34-19.52z"/><path id="_Контур_297" data-name="&lt;Контур&gt;" class="cls-123" d="M167.25 41.06l-2.94 9.92-27.79-16 6.58-8.12 24.15 14.2z"/><path id="_Контур_298" data-name="&lt;Контур&gt;" d="M147.15 27.44l30-17.28 19.3 11.31s-19.53 11.18-30 17.24z" fill="#363636"/><g id="_Группа_93" data-name="&lt;Группа&gt;"><path id="_Контур_299" data-name="&lt;Контур&gt;" class="cls-112" d="M168.41 38.8l1.12-.53-21.43-12.55-.25.25.16.1-.87.32c2.68 1.51 14.29 8.38 21.27 12.41z"/><path id="_Контур_300" data-name="&lt;Контур&gt;" class="cls-112" d="M170.34 37.68l1.12-.53L150 24.6l-.25.25.16.1-.87.32c2.7 1.51 14.32 8.38 21.3 12.41z"/><path id="_Контур_301" data-name="&lt;Контур&gt;" class="cls-112" d="M172.26 36.57l1.12-.53L152 23.48l-.25.25.16.1-.87.32c2.63 1.51 14.24 8.38 21.22 12.42z"/><path id="_Контур_302" data-name="&lt;Контур&gt;" class="cls-112" d="M174.18 35.45l1.12-.53-21.42-12.56-.25.25.16.1-.87.32c2.67 1.52 14.29 8.38 21.26 12.42z"/><path id="_Контур_303" data-name="&lt;Контур&gt;" class="cls-112" d="M176.11 34.33l1.12-.53-21.43-12.55-.25.25.16.1-.87.32c2.68 1.51 14.29 8.37 21.27 12.41z"/><path id="_Контур_304" data-name="&lt;Контур&gt;" class="cls-112" d="M178 33.21l1.12-.53-21.39-12.55-.25.25.16.1-.87.32c2.67 1.51 14.28 8.38 21.23 12.41z"/><path id="_Контур_305" data-name="&lt;Контур&gt;" class="cls-112" d="M180 32.09l1.12-.53L159.65 19l-.25.25.16.1-.87.32c2.68 1.52 14.31 8.39 21.31 12.42z"/><path id="_Контур_306" data-name="&lt;Контур&gt;" class="cls-112" d="M181.88 31l1.12-.53-21.42-12.58-.25.25.16.1-.87.32c2.67 1.51 14.28 8.38 21.26 12.44z"/><path id="_Контур_307" data-name="&lt;Контур&gt;" class="cls-112" d="M183.81 29.85l1.12-.53-21.43-12.55-.25.25.16.1-.87.32c2.68 1.56 14.29 8.38 21.27 12.41z"/><path id="_Контур_308" data-name="&lt;Контур&gt;" class="cls-112" d="M185.73 28.73l1.12-.53-21.43-12.55-.25.25.16.1-.87.32c2.68 1.51 14.29 8.38 21.27 12.41z"/><path id="_Контур_309" data-name="&lt;Контур&gt;" class="cls-112" d="M187.66 27.62l1.12-.53-21.43-12.56-.25.25.16.1-.87.32c2.67 1.51 14.29 8.38 21.27 12.42z"/><path id="_Контур_310" data-name="&lt;Контур&gt;" class="cls-112" d="M189.58 26.5l1.12-.5-21.43-12.58-.25.25.16.1-.87.32c2.69 1.51 14.29 8.37 21.27 12.41z"/><path id="_Контур_311" data-name="&lt;Контур&gt;" class="cls-112" d="M191.5 25.38l1.12-.53L171.2 12.3l-.25.25.16.1-.87.32c2.67 1.51 14.29 8.38 21.26 12.41z"/><path id="_Контур_312" data-name="&lt;Контур&gt;" class="cls-112" d="M193.43 24.26l1.12-.53-21.43-12.55-.25.25.16.1-.87.32c2.68 1.51 14.29 8.38 21.27 12.41z"/><path id="_Контур_313" data-name="&lt;Контур&gt;" class="cls-112" d="M195.35 23.14l1.12-.53L175 10.06l-.25.25.16.1-.87.32c2.72 1.51 14.34 8.38 21.31 12.41z"/></g></g><path id="_Контур_314" data-name="&lt;Контур&gt;" class="cls-10" d="M217.58 27.93v22.55l-1.57-.82V28.84l1.57-.91z"/><path id="_Контур_315" data-name="&lt;Контур&gt;" fill="#a4bbc7" d="M171 77.36l-1.57-.81-3.64 13.72 1.56.81L171 77.36z"/><path id="_Контур_316" data-name="&lt;Контур&gt;" class="cls-124" d="M177.09 7.3l5.06 1.31 27.81 16.18-8.71-3.25L177.09 7.3z"/></g></g></g></g></g></svg>