<svg xmlns="http://www.w3.org/2000/svg" xmlns:xlink="http://www.w3.org/1999/xlink" viewBox="0 0 156.59 93.52"><defs><linearGradient id="Ѕезым_нный_градиент_34-2" x1="142.99" y1="-16177.16" x2="141.35" y2="-16180" xlink:href="#Ѕезым_нный_градиент_34"/><linearGradient id="Ѕезым_нный_градиент_35-2" x1="88.19" y1="-16201.57" x2="79.44" y2="-16216.71" xlink:href="#Ѕезым_нный_градиент_35"/><linearGradient id="Ѕезым_нный_градиент_40" x1="145.12" y1="-16173.66" x2="139.36" y2="-16183.62" gradientTransform="matrix(1 0 0 -1 0 -16137.07)" gradientUnits="userSpaceOnUse"><stop offset=".13" stop-color="#dbe0e3"/><stop offset=".13" stop-color="#e0e5e8"/><stop offset=".44" stop-color="#e0e5e8"/><stop offset=".44" stop-color="#c0c4c6"/><stop offset=".84" stop-color="#c0c4c6"/><stop offset=".84" stop-color="#a8abad"/></linearGradient><linearGradient id="Ѕезым_нный_градиент_34" x1="145.05" y1="-16174.44" x2="139.91" y2="-16183.34" gradientTransform="matrix(1 0 0 -1 0 -16137.07)" gradientUnits="userSpaceOnUse"><stop offset=".16" stop-color="#797b7d"/><stop offset=".16" stop-color="#919496"/><stop offset=".56" stop-color="#919496"/><stop offset=".56" stop-color="#b1b5b8"/><stop offset=".87" stop-color="#b1b5b8"/><stop offset=".87" stop-color="#acb0b3"/></linearGradient><linearGradient id="Ѕезым_нный_градиент_24" x1="143.32" y1="-16174.98" x2="139.73" y2="-16181.2" gradientTransform="matrix(1 0 0 -1 0 -16137.07)" gradientUnits="userSpaceOnUse"><stop offset=".13" stop-color="#acb0b3"/><stop offset=".13" stop-color="#b1b5b8"/><stop offset=".44" stop-color="#b1b5b8"/><stop offset=".44" stop-color="#919496"/><stop offset=".84" stop-color="#919496"/><stop offset=".84" stop-color="#797b7d"/></linearGradient><linearGradient id="Ѕезым_нный_градиент_35" x1="144.17" y1="-16169.64" x2="135.42" y2="-16184.78" gradientTransform="matrix(1 0 0 -1 0 -16137.07)" gradientUnits="userSpaceOnUse"><stop offset=".13" stop-color="#68737b"/><stop offset=".13" stop-color="#6c7880"/><stop offset=".44" stop-color="#6c7880"/><stop offset=".44" stop-color="#50585e"/><stop offset=".84" stop-color="#50585e"/><stop offset=".84" stop-color="#3b4145"/></linearGradient><linearGradient id="Ѕезым_нный_градиент_2" x1="54.85" y1="-16226.08" x2="106.06" y2="-16137.38" gradientTransform="matrix(1 0 0 -1 0 -16137.07)" gradientUnits="userSpaceOnUse"><stop offset="0" stop-color="#ededed"/><stop offset="1" stop-color="#e6e6e6"/></linearGradient><linearGradient id="Ѕезым_нный_градиент_40-2" x1="89.13" y1="-16205.59" x2="83.38" y2="-16215.55" xlink:href="#Ѕезым_нный_градиент_40"/><linearGradient id="Ѕезым_нный_градиент_34-3" x1="89.06" y1="-16206.37" x2="83.93" y2="-16215.27" xlink:href="#Ѕезым_нный_градиент_34"/><linearGradient id="Ѕезым_нный_градиент_24-2" x1="87.34" y1="-16206.91" x2="83.74" y2="-16213.13" xlink:href="#Ѕезым_нный_градиент_24"/><linearGradient id="Ѕезым_нный_градиент_34-4" x1="87.01" y1="-16209.09" x2="85.37" y2="-16211.93" xlink:href="#Ѕезым_нный_градиент_34"/><clipPath id="clip-path"><path id="_Обтравочный_контур_" data-name="&lt;Обтравочный контур&gt;" fill="none" d="M60.78 60.5L39.3 48.08v21L60.78 81.5v-21z"/></clipPath><style>.cls-70{fill:none}.cls-4{fill:#423131}.cls-6{fill:#424852}.cls-8{fill:#d7d9db}.cls-10{fill:#e3e5e6}.cls-12{fill:#d9dbdd}.cls-15{fill:#74c7ac}.cls-16{fill:#cd661f}.cls-17{fill:#ed843e}.cls-18{fill:#9f4b12}.cls-19{fill:#de7123}.cls-20{fill:#3a4044}.cls-23{fill:#e9b736}.cls-24{fill:#dde2e6}.cls-26{fill:#9faaab}.cls-70{stroke-miterlimit:10}.cls-28{fill:#e9be50}.cls-29{fill:#d2a329}.cls-31{fill:#bdcedf}.cls-32{fill:#ff8118}.cls-44{fill:#cddbdc}.cls-45{fill:#b4c9cb}.cls-47{fill:#525c61}.cls-50{fill:#20232b}.cls-52{fill:#ff5440}.cls-53{fill:#ffb81b}.cls-55{fill:#9a9a9a}.cls-56{fill:#dbdbdb}.cls-57{fill:#9a0f0f}.cls-58{fill:#db4040}.cls-59{fill:#d48600}.cls-60{fill:#ffb432}.cls-61{fill:#ed8333}.cls-62{fill:#edbd51}.cls-66{fill:#4b4146}.cls-68{fill:#795b39}.cls-69{fill:#a78147}.cls-70{stroke:#783e00;stroke-width:.11px}.cls-71{fill:#783e00}.cls-72{fill:#cdb67d}.cls-73{fill:#d6c190}.cls-74{fill:#838383}.cls-75{fill:#313131}.cls-76{fill:#b39e71}.cls-77{fill:#aa8d5b}.cls-79{fill:#f1bc95}.cls-80{fill:#d18d6d}.cls-81{fill:#1b1b1b}.cls-82{fill:#2a2a2a}.cls-84{fill:#758fa1}.cls-86{fill:#6081fc}.cls-87{fill:#2e5fd1}.cls-89{fill:#87b7ff}.cls-100{fill:#654532}.cls-102{fill:#bfbfbf}</style></defs><g style="isolation:isolate"><g id="Слой_2" data-name="Слой 2"><g id="Layer_1" data-name="Layer 1"><g id="_Группа_" data-name="&lt;Группа&gt;"><g id="_Группа_2" data-name="&lt;Группа&gt;"><path id="_Контур_" data-name="&lt;Контур&gt;" d="M153.94 34.9l-19.76-12.47 4.21-3.26-1.14-.74-1.09-.7c-1-.61-2.06-1.24-3.15-1.86h-.07c-.11-.08-.25-.14-.36-.21h-.06c-1.09-.62-2.23-1.21-3.35-1.75l-1.28-.58c-2.63-1.16-3.52-1.22-5.41-.92-4.2.59-17.48 4.84-17.48 4.84l-.41.71C94.7 16 82.27 16.37 82.27 16.37l-15 7.45-1.16-.67.31-.18-3.63-2.1L0 57.14l3.63 2.1.31-.18 58.71 34.46 92.19-51.88c2.87-1.64 1.95-5.11-.9-6.74z" style="mix-blend-mode:multiply" fill="url(#Ѕезым_нный_градиент_2)"/><g id="_Группа_3" data-name="&lt;Группа&gt;"><path id="_Контур_2" data-name="&lt;Контур&gt;" class="cls-4" d="M145.82 36.58c0 .15 0 .31.06.46l1.38-.69 3.13 1.65c0-.15 0-.32-.06-.46l-.75-3.79c-.27-1.63-1.7-2.16-3.22-1.29l-1.23.71z"/><g id="_Группа_4" data-name="&lt;Группа&gt;"><path id="_Контур_3" data-name="&lt;Контур&gt;" d="M132.41 43.48a3.72 3.72 0 001.43 3.26c1.2.81 3.78 2.2 3.78 2.2 3.62-2.09 10.73-9.35 10.73-13 0-1.57-3.39-2.76-4.31-3.36-1.2-.77-3-.66-5.07.52-3.62 2.14-6.56 6.76-6.56 10.38z" fill="url(#Ѕезым_нный_градиент_35)"/><path id="_Контур_4" data-name="&lt;Контур&gt;" class="cls-6" d="M136 45.55c0 3.62 2.93 4.86 6.55 2.77s6.55-6.72 6.55-10.34-2.93-4.86-6.55-2.77S136 41.93 136 45.55z"/><path id="_Контур_5" data-name="&lt;Контур&gt;" d="M137.89 44.08c0 2.4 1.95 3.22 4.35 1.84s4.35-4.46 4.35-6.86-1.95-3.22-4.35-1.84-4.35 4.46-4.35 6.86z" fill="url(#Ѕезым_нный_градиент_40)"/><path id="_Контур_6" data-name="&lt;Контур&gt;" class="cls-8" d="M138.16 44.27c0 2.4 1.95 3.22 4.35 1.84s4.35-4.46 4.35-6.86-1.95-3.22-4.35-1.84-4.35 4.46-4.35 6.86z"/><path id="_Контур_7" data-name="&lt;Контур&gt;" d="M146.41 39.51a8.09 8.09 0 01-3.9 6.16c-2.15 1.24-3.9.5-3.9-1.65a4.1 4.1 0 01.07-.73 8.44 8.44 0 013.84-5.42l.46-.24c1.93-.9 3.43-.12 3.43 1.88z" fill="url(#Ѕезым_нный_градиент_34)"/><path id="_Контур_8" data-name="&lt;Контур&gt;" class="cls-10" d="M144.51 39.29a6.11 6.11 0 01-3 4.66 3.41 3.41 0 01-.87.37 1.47 1.47 0 01-1.93-.77 1.21 1.21 0 01-.1-.29 5.7 5.7 0 01.22-.89 8.77 8.77 0 013.17-4.14 6.43 6.43 0 01.55-.37l.39-.2h.07c.87-.07 1.49.52 1.5 1.63z"/><path id="_Контур_9" data-name="&lt;Контур&gt;" d="M144.25 38.88c0 1.6-2 4.51-3.63 5.46h-.07a.68.68 0 01-.21-.07h-.08a10.12 10.12 0 01-1.47-.66 1.21 1.21 0 01-.1-.29 5.7 5.7 0 01.22-.89 8.77 8.77 0 013.09-4.2 6.43 6.43 0 01.55-.37l.39-.2a10 10 0 011.18 1z" fill="url(#Ѕезым_нный_градиент_24)"/><path id="_Контур_10" data-name="&lt;Контур&gt;" class="cls-12" d="M144.62 40a5.28 5.28 0 01-2.55 4c-1.4.81-2.55.33-2.55-1.08a2.67 2.67 0 010-.48 5.51 5.51 0 012.5-3.54l.3-.16c1.32-.61 2.3-.09 2.3 1.26z"/><path id="_Контур_11" data-name="&lt;Контур&gt;" d="M143.41 40.79a2.57 2.57 0 01-1.24 2c-.68.39-1.24.16-1.24-.52a1.31 1.31 0 010-.23 2.68 2.68 0 011.22-1.72l.15-.08c.63-.33 1.11-.08 1.11.55z" fill="url(#Ѕезым_нный_градиент_34-2)"/><path id="_Контур_12" data-name="&lt;Контур&gt;" class="cls-10" d="M142.35 41a1 1 0 01-.5.78c-.27.16-.5.06-.5-.21a.52.52 0 010-.09 1.07 1.07 0 01.49-.69h.06c.26-.19.45-.09.45.21z"/></g><path id="_Контур_13" data-name="&lt;Контур&gt;" d="M118.6 22.65a8.29 8.29 0 01-4 6.3c-2.21 1.27-4 .52-4-1.69a8.28 8.28 0 014-6.3c2.21-1.27 4-.52 4 1.69z" fill="#add1b9"/><path id="_Контур_14" data-name="&lt;Контур&gt;" class="cls-15" d="M91.54 41.78l14.68-8.48v-4.76L91.54 39.28v2.5z"/><path id="_Контур_15" data-name="&lt;Контур&gt;" class="cls-15" d="M100.24 21.43l-3.46 4.26v-4.13l3.46-2v1.87z"/><path id="_Контур_16" data-name="&lt;Контур&gt;" class="cls-16" d="M152.77 27.22v3.34c0 .37 0 .72-.05 1.07q-.06 1.13-.12 2.11c-.14 1.9-.29 3.21-.29 3.21l-1.14.59-.74.43c0-.15 0-.31-.06-.46l-.19-1-.35-1.72-.21-1.09c-.27-1.63-1.7-2.17-3.21-1.29l-4.07 2.35-3.81 2.24a7.54 7.54 0 00-3.21 5l-.24 1.52-.48 2.93v.21a3.78 3.78 0 00-.05.45v.08l-.74.43L118 56.63v-9.44l7.38-10.23 11.45-14.59 3.22-1.27s8.35-2.1 10.74-2.1c1.08 0 1.43 2.51 1.71 4.45l.12 1a2.49 2.49 0 010 .27c.1.78.14 1.64.15 2.5z"/><path id="_Контур_17" data-name="&lt;Контур&gt;" class="cls-17" d="M125.13 3.89a74.05 74.05 0 0113.56 6.51c7.88 4.93 13.06 8.8 13.06 8.8l-15.28 4.23L111.1 6.31s10.99-2.91 14.03-2.42z"/><path id="_Контур_18" data-name="&lt;Контур&gt;" class="cls-18" d="M138.68 10.4a71.22 71.22 0 00-9.64-5c-2.95.21-12.93 3.33-12.93 3.33l15.55 10.8 16.29-3.06c-2.27-1.55-5.45-3.68-9.27-6.07z"/><path id="_Контур_19" data-name="&lt;Контур&gt;" class="cls-19" d="M138.68 10.4a51.8 51.8 0 00-8.08-4.28c-2.95.21-14.49 2.64-14.49 2.64l15.55 10.8 16.29-3.06c-2.27-1.58-5.45-3.71-9.27-6.1z"/><path id="_Контур_20" data-name="&lt;Контур&gt;" class="cls-20" d="M136.33 23.37A41.4 41.4 0 00113 6.47z"/><path id="_Контур_21" data-name="&lt;Контур&gt;" d="M136.46 23.42l-.59.2-8-6.63L102 1.93A51.13 51.13 0 01112.15 6c5.31 2.85 11.58 4.06 24.31 17.42z" fill="#538b94"/><path id="_Контур_22" data-name="&lt;Контур&gt;" d="M101.36 1.74C115.91 6.1 127.85 17 127.85 17L118 21.9 91.54 6.65s7.97-5.46 9.82-4.91z" fill="#de752f"/><path id="_Контур_23" data-name="&lt;Контур&gt;" class="cls-16" d="M142.34 33.18c0 .55 0 1.08-.05 1.6L138.53 37a7.54 7.54 0 00-3.21 5l-.24 1.52-.82.48L118 53.29V21.9l9.85-4.9s6.17 4.79 8.87 7c.57.46 3.4-.82 3.67-.11.39 1 1.12 4.66 1.57 6.37a10.78 10.78 0 01.38 2.92z"/><path id="_Контур_24" data-name="&lt;Контур&gt;" class="cls-23" d="M152.77 27.22v3.34c0 .37 0 .72-.05 1.07q-.06 1.13-.12 2.11c-.14 1.9-.29 3.21-.29 3.21l-1.14.59-.74.43c0-.15 0-.31-.06-.46l-.19-1-.35-1.72-.21-1.09c-.27-1.63-1.7-2.17-3.21-1.29l-4.07 2.35-3.81 2.24a7.54 7.54 0 00-3.21 5l-.24 1.52-.48 2.93v.21a3.78 3.78 0 00-.05.45v.08l-.74.43L118 56.63V39l34.37-17.74c.11.84.39 5.1.4 5.96z"/><g id="_Группа_5" data-name="&lt;Группа&gt;"><path id="_Контур_25" data-name="&lt;Контур&gt;" class="cls-24" d="M120.55 39.1l-.22-.13 3.27-1.95.22.13-3.27 1.95z"/><path id="_Контур_26" data-name="&lt;Контур&gt;" fill="#727272" d="M120.82 40.73l-.49-.25v-1.51l.22.13.27 1.63z"/><path id="_Контур_27" data-name="&lt;Контур&gt;" class="cls-26" d="M123.82 37.15l-3.27 1.95.27 1.63 3.27-1.94-.27-1.64z"/></g><path id="_Контур_28" data-name="&lt;Контур&gt;" style="mix-blend-mode:multiply" stroke-miterlimit="10" stroke="#deb159" stroke-width=".36" fill="none" d="M126.64 17.81l-8.52 4.58v20.44l.68 10.58 13.14-7.63 1.73-7.81 2.66-6.31-.26-6.17-9.43-7.68z"/><path id="_Контур_29" data-name="&lt;Контур&gt;" class="cls-28" d="M149.79 34.8l-.21-1.09c-.27-1.63-1.7-2.17-3.21-1.29L138.53 37a7.54 7.54 0 00-3.21 5l-.72 4.45-.68.44c0-.18-1.78-.24-1.78-.24l.35-1.1a44.35 44.35 0 001.32-5.85 7.77 7.77 0 011.72-3.72 6 6 0 011.59-1.37l8.54-4.93c1.41-.81 2.76-.51 3.31.69a2.37 2.37 0 01.21.7z"/><path id="_Контур_30" data-name="&lt;Контур&gt;" class="cls-29" d="M151.13 37.53l-.74.43c0-.15 0-.31-.06-.46l-.19-1-.35-1.72-.21-1.09c-.27-1.63-1.7-2.17-3.21-1.29l-4.07 2.35-3.77 2.25a7.54 7.54 0 00-3.21 5l-.24 1.52-.48 2.93v.21a3.78 3.78 0 00-.05.45v.08l-.74.43c0-.18 0-.37.06-.57l.14-1 .28-2.07.41-2.91a8.24 8.24 0 013.52-5.45l4.17-2.4 4.37-2.53a2.64 2.64 0 012.23-.34 2.08 2.08 0 011.25 1.65l.66 4 .17 1c.03.2.04.37.06.53z"/><g id="_Группа_6" data-name="&lt;Группа&gt;"><path id="_Контур_31" data-name="&lt;Контур&gt;" class="cls-26" d="M133.09 46.07l-15.69 9.05v-2.5l15.85-9.09-.16 2.54z"/><g id="_Группа_7" data-name="&lt;Группа&gt;"><path id="_Контур_32" data-name="&lt;Контур&gt;" class="cls-24" d="M133.12 46.02l-15.42 8.92 1.56.9 15.41-8.92-1.55-.9z"/><path id="_Контур_33" data-name="&lt;Контур&gt;" fill="#b2b2b2" d="M134.67 48.24l-15.41 8.92v-1.32l15.41-8.92v1.32z"/></g></g><path id="_Контур_34" data-name="&lt;Контур&gt;" class="cls-31" d="M152.77 26.71v.05l-1.41.81-.58.34a.48.48 0 01-.44 0 1 1 0 01-.36-.7v-1.74l1.42-.82 1.27-.73c.04.88.09 1.83.1 2.79z"/><path id="_Контур_35" data-name="&lt;Контур&gt;" class="cls-31" d="M152.77 27.05v2.96l-1.38.79-.58.34a.48.48 0 01-.44 0 1 1 0 01-.36-.69v-1.76l1.42-.82z"/><path id="_Контур_36" data-name="&lt;Контур&gt;" class="cls-32" d="M151.35 24.65v2.93a2.42 2.42 0 01-.58.34.48.48 0 01-.44 0 1 1 0 01-.36-.7 7.33 7.33 0 010-1.79z"/><path id="_Контур_37" data-name="&lt;Контур&gt;" class="cls-32" d="M151.35 27.9v2.94a2.41 2.41 0 01-.58.34.48.48 0 01-.44 0 1 1 0 01-.36-.69 7 7 0 010-1.81z"/><g id="_Группа_8" data-name="&lt;Группа&gt;"><path id="_Контур_38" data-name="&lt;Контур&gt;" d="M134.84 29.93a4 4 0 00.6-2.39l-.18-1.23s-5.12-3.86-8.34-6.7l-6.1 3a2.11 2.11 0 00-.64.53 4.55 4.55 0 00-.55 2.84l.22 6.83c.22 1.54.91 2.33 1.82 2.1l10-5.17.84 1a.66.66 0 00.89.14l1.05-.56a1.26 1.26 0 00.39-.39z" fill="#555d69"/><path id="_Контур_39" data-name="&lt;Контур&gt;" d="M121.75 34.24L131.93 29l.87 1a.54.54 0 00.73.11l1-.54a2.13 2.13 0 00.62-1.72l-.15-1.17s-6.24-4.93-8.16-6.34l-6.09 3a2.86 2.86 0 00-.8 2.26l.18 6.76c.19 1.4.79 2.09 1.62 1.88z" fill="#6ba9b0"/></g><g id="_Группа_9" data-name="&lt;Группа&gt;"><path id="_Контур_40" data-name="&lt;Контур&gt;" class="cls-4" d="M90 70c0 .15 0 .31.06.46l1.38-.69 3.13 1.62c0-.15 0-.32-.06-.46l-.75-3.79c-.27-1.63-1.7-2.16-3.22-1.29l-1.23.71z"/><g id="_Группа_10" data-name="&lt;Группа&gt;"><path id="_Контур_41" data-name="&lt;Контур&gt;" d="M76.43 75.41a3.72 3.72 0 001.43 3.26c1.2.81 3.78 2.2 3.78 2.2 3.62-2.09 10.73-9.35 10.73-13 0-1.57-3.39-2.76-4.31-3.36-1.2-.77-3-.66-5.07.52-3.63 2.13-6.56 6.76-6.56 10.38z" fill="url(#Ѕезым_нный_градиент_35-2)"/><path id="_Контур_42" data-name="&lt;Контур&gt;" class="cls-6" d="M80 77.48c0 3.62 2.93 4.86 6.55 2.77s6.55-6.72 6.55-10.34-2.93-4.86-6.55-2.77S80 73.86 80 77.48z"/><path id="_Контур_43" data-name="&lt;Контур&gt;" d="M81.91 76c0 2.4 1.95 3.22 4.35 1.84s4.35-4.46 4.35-6.86-1.95-3.22-4.35-1.84-4.35 4.47-4.35 6.86z" fill="url(#Ѕезым_нный_градиент_40-2)"/><path id="_Контур_44" data-name="&lt;Контур&gt;" class="cls-8" d="M82.18 76.2c0 2.4 1.95 3.22 4.35 1.84s4.35-4.46 4.35-6.86-1.95-3.18-4.35-1.84-4.35 4.46-4.35 6.86z"/><path id="_Контур_45" data-name="&lt;Контур&gt;" d="M90.43 71.44a8.09 8.09 0 01-3.9 6.16c-2.15 1.24-3.9.5-3.9-1.65a4.1 4.1 0 01.07-.73 8.45 8.45 0 013.84-5.42l.46-.24c1.93-.9 3.43-.12 3.43 1.88z" fill="url(#Ѕезым_нный_градиент_34-3)"/><path id="_Контур_46" data-name="&lt;Контур&gt;" class="cls-10" d="M88.53 71.22a6.11 6.11 0 01-3 4.66 3.41 3.41 0 01-.87.37 1.47 1.47 0 01-1.93-.77 1.21 1.21 0 01-.1-.29 5.69 5.69 0 01.22-.89A8.76 8.76 0 0186 70.16a6.43 6.43 0 01.55-.37l.39-.2h.07c.89-.07 1.51.52 1.52 1.63z"/><path id="_Контур_47" data-name="&lt;Контур&gt;" d="M88.26 70.81c0 1.6-2 4.51-3.63 5.46h-.07a.69.69 0 01-.21-.07h-.08a10.13 10.13 0 01-1.47-.66 1.21 1.21 0 01-.1-.29 5.69 5.69 0 01.22-.89 8.76 8.76 0 013.08-4.2 6.43 6.43 0 01.55-.37l.39-.2a10 10 0 011.18 1z" fill="url(#Ѕезым_нный_градиент_24-2)"/><path id="_Контур_48" data-name="&lt;Контур&gt;" class="cls-12" d="M88.64 71.88a5.28 5.28 0 01-2.55 4c-1.4.81-2.55.33-2.55-1.08a2.68 2.68 0 010-.48 5.51 5.51 0 012.5-3.54l.3-.16c1.32-.56 2.3-.05 2.3 1.26z"/><path id="_Контур_49" data-name="&lt;Контур&gt;" d="M87.43 72.72a2.57 2.57 0 01-1.24 2c-.68.39-1.24.16-1.24-.52a1.3 1.3 0 010-.23 2.68 2.68 0 011.22-1.72l.15-.08c.68-.33 1.11-.09 1.11.55z" fill="url(#Ѕезым_нный_градиент_34-4)"/><path id="_Контур_50" data-name="&lt;Контур&gt;" class="cls-10" d="M86.37 72.89a1 1 0 01-.5.78c-.27.16-.5.06-.5-.21a.52.52 0 010-.09 1.08 1.08 0 01.49-.69h.06c.26-.15.45-.05.45.21z"/></g><path id="_Контур_51" data-name="&lt;Контур&gt;" fill="#d6770b" d="M34.7 35.03l30.67 17.58v35.53L34.7 69.46V35.03z"/><path id="_Контур_52" data-name="&lt;Контур&gt;" fill="#a64f00" d="M38.45 41.38l21.47 12.31v29.56L38.45 70.83V41.38z"/><path id="_Контур_53" data-name="&lt;Контур&gt;" fill="#4e6073" d="M39.3 47.13l21.48 12.31V81.5L39.3 69.08V47.13z"/><path id="_Контур_54" data-name="&lt;Контур&gt;" fill="#919ca8" d="M60.78 56.6v24.9L39.3 69.08 60.78 56.6z"/><g id="_Группа_11" data-name="&lt;Группа&gt;"><path id="_Контур_55" data-name="&lt;Контур&gt;" class="cls-44" d="M39.3 41.9l21.48 12.3v1.95L39.3 43.73V41.9z"/><path id="_Контур_56" data-name="&lt;Контур&gt;" class="cls-45" d="M39.3 43.66l21.48 12.31v1.94L39.3 45.49v-1.83z"/></g><g id="_Группа_12" data-name="&lt;Группа&gt;"><path id="_Контур_57" data-name="&lt;Контур&gt;" class="cls-44" d="M39.3 45.4l21.48 12.31v1.94L39.3 47.23V45.4z"/><path id="_Контур_58" data-name="&lt;Контур&gt;" fill="#202a32" d="M39.3 46.59L60.78 58.9v1.6L39.3 48.08v-1.49z"/></g><g id="_Группа_13" data-name="&lt;Группа&gt;"><path id="_Контур_59" data-name="&lt;Контур&gt;" class="cls-47" d="M39.3 69.08l21.48 12.41v2.67L39.3 71.02v-1.94z"/><path id="_Контур_60" data-name="&lt;Контур&gt;" class="cls-45" d="M39.3 71.67l21.48 12.3v1.95L39.3 73.5v-1.83z"/></g><path id="_Контур_61" data-name="&lt;Контур&gt;" fill="#ae571d" d="M34.16 36.28l30.93 17.84v-3.29L34.16 33v3.28z"/><path id="_Контур_62" data-name="&lt;Контур&gt;" d="M121.19 18.81v37.11L119.32 57 96.08 70.44l-1.56.9c0-.15 0-.32-.06-.47l-.22-1.12-.52-2.67c-.27-1.63-1.7-2.17-3.22-1.29l-7.83 4.53a7.54 7.54 0 00-3.21 5l-.52 3.28-.21 1.31-.07.55v.05l-1.56.9-11.73 6.73V51z" fill="#c2601b"/><path id="_Контур_63" data-name="&lt;Контур&gt;" class="cls-23" d="M121.19 42.28v13.64L119.32 57 96.08 70.44l-1.56.9c0-.15 0-.32-.06-.47l-.22-1.12-.52-2.67c-.27-1.63-1.7-2.17-3.22-1.29l-7.83 4.53a7.54 7.54 0 00-3.21 5l-.52 3.28-.21 1.31-.07.55v.05l-1.56.9-11.73 6.73V74.49z"/><path id="_Контур_64" data-name="&lt;Контур&gt;" class="cls-47" d="M77.33 78.74l1.59-.92-.21 1.32-.07.55v.05l-1.56.89-14.62 7.43-33.25-19.37 5.49-3.3v2.12l3.75 2.16.85-.59v1.08l26.45 15.23 11.58-6.65z"/><path id="_Контур_65" data-name="&lt;Контур&gt;" class="cls-47" d="M121.91 53.77L96.08 69.66l-1.56.9c0-.15 0-.32-.06-.47L94.24 69l1.59-.92L121.2 53.4z"/><path id="_Контур_66" data-name="&lt;Контур&gt;" class="cls-50" d="M77.33 79.53l1.31.21v.78l-1.56.9-14.62 8.39L29.1 70.49l.11-1.8 33.25 19.37 14.87-8.53z"/><path id="_Контур_67" data-name="&lt;Контур&gt;" class="cls-50" d="M121.91 53.77v1.75L96.08 70.45l-1.56.9v-1.67l1.3-.83z"/><path id="_Контур_68" data-name="&lt;Контур&gt;" fill="#d36518" d="M65.09 54.12l57.15-33v-3.28L65.09 50.83v3.29z"/><path id="_Контур_69" data-name="&lt;Контур&gt;" class="cls-28" d="M92.25 64.82a3.67 3.67 0 011.42-.27 4 4 0 01.68.07l.58-.78a3.23 3.23 0 00-4.65-2.09l-9.33 5.39a9.05 9.05 0 00-3.86 6l-.85 6.28.7.38.14 1.66.59-2.12.07-.55.26-1.36.52-3.28a7.54 7.54 0 013.21-5l7.83-4.53a2.07 2.07 0 012.69.2z"/><path id="_Контур_70" data-name="&lt;Контур&gt;" class="cls-29" d="M96.08 70.44l-1.56.9c0-.15 0-.32-.06-.47l-.22-1.12-.52-2.67c-.27-1.63-1.7-2.17-3.22-1.29l-7.83 4.53a7.54 7.54 0 00-3.21 5l-.52 3.28-.21 1.31-.07.55v.05l-1.56.9c0-.2 0-.41.07-.63l.17-1.26.73-5.25a9.05 9.05 0 013.86-6l9.33-5.39c1.81-1 3.52-.41 3.85 1.53l.73 4.41.16 1.09c0 .17.06.35.08.53z"/><g id="_Группа_14" data-name="&lt;Группа&gt;"><path id="_Контур_71" data-name="&lt;Контур&gt;" class="cls-18" d="M69.4 49.93v.44a.56.56 0 01-.28.47l-1.85 1.08a.22.22 0 01-.33-.19v-.12l1.55-.9a.56.56 0 00.28-.47v-.31l.3-.17a.22.22 0 01.33.17z"/><path id="_Контур_72" data-name="&lt;Контур&gt;" class="cls-52" d="M68.77 49.92v.31a.56.56 0 01-.28.47l-1.55.9v-.3a.56.56 0 01.28-.48z"/></g><g id="_Группа_15" data-name="&lt;Группа&gt;"><path id="_Контур_73" data-name="&lt;Контур&gt;" class="cls-18" d="M94.9 35.08v.44a.56.56 0 01-.28.47l-1.85 1.08a.22.22 0 01-.33-.19v-.12l1.55-.9a.56.56 0 00.28-.47v-.31l.3-.17a.22.22 0 01.33.17z"/><path id="_Контур_74" data-name="&lt;Контур&gt;" class="cls-53" d="M94.27 35.06v.31a.56.56 0 01-.28.47l-1.55.9v-.31a.56.56 0 01.28-.48z"/></g><g id="_Группа_16" data-name="&lt;Группа&gt;"><path id="_Контур_75" data-name="&lt;Контур&gt;" class="cls-18" d="M120.4 20.22v.44a.56.56 0 01-.28.47l-1.85 1.08a.22.22 0 01-.33-.19v-.12l1.55-.9a.56.56 0 00.28-.47v-.33l.3-.17a.22.22 0 01.33.19z"/><path id="_Контур_76" data-name="&lt;Контур&gt;" class="cls-52" d="M119.77 20.2v.31a.56.56 0 01-.28.47l-1.55.9v-.31a.56.56 0 01.28-.48z"/></g><g id="_Группа_17" data-name="&lt;Группа&gt;"><path id="_Контур_77" data-name="&lt;Контур&gt;" class="cls-28" d="M70.32 80.37v.44a.56.56 0 01-.28.47l-1.85 1.08a.22.22 0 01-.33-.19V82l1.55-.9a.56.56 0 00.28-.47v-.31l.3-.17a.22.22 0 01.33.22z"/><path id="_Контур_78" data-name="&lt;Контур&gt;" class="cls-52" d="M69.68 80.35v.31a.56.56 0 01-.28.47l-1.55.9v-.31a.56.56 0 01.28-.48z"/></g><g id="_Группа_18" data-name="&lt;Группа&gt;"><path id="_Контур_79" data-name="&lt;Контур&gt;" class="cls-28" d="M117.93 52.62v.44a.56.56 0 01-.28.47l-1.85 1.08a.22.22 0 01-.33-.19v-.12l1.55-.9a.56.56 0 00.28-.47v-.31l.3-.17a.22.22 0 01.33.17z"/><path id="_Контур_80" data-name="&lt;Контур&gt;" class="cls-52" d="M117.3 52.61v.31a.56.56 0 01-.28.47l-1.55.9V54a.56.56 0 01.28-.48z"/></g><g id="_Группа_19" data-name="&lt;Группа&gt;"><g id="_Группа_20" data-name="&lt;Группа&gt;"><path id="_Составной_контур_" data-name="&lt;Составной контур&gt;" class="cls-23" d="M75.38 53.91c1.77-1 3-.42 3 1.51a6.08 6.08 0 01-3 5L73 61.77V55.3zm-1 5.72l1-.59a3.31 3.31 0 001.5-2.78c0-1.14-.66-1.55-1.57-1l-1 .55z"/><path id="_Составной_контур_2" data-name="&lt;Составной контур&gt;" class="cls-23" d="M80.56 52.21v1.28l2.69-1.55v1.29l-2.69 1.55v1.3l3.06-1.77v1.29l-4.49 2.59v-6.45l4.41-2.54v1.29z"/><path id="_Составной_контур_3" data-name="&lt;Составной контур&gt;" class="cls-23" d="M88.37 51.5v1.38l-3.82 2.2v-6.47l1.45-.82v5.09z"/><path id="_Составной_контур_4" data-name="&lt;Составной контур&gt;" class="cls-23" d="M89.06 52.48V46l1.43-.83v6.47z"/><path id="_Составной_контур_5" data-name="&lt;Составной контур&gt;" class="cls-23" d="M93.23 50.07L91 44.86l1.57-.86L94 47.91l1.44-5.59 1.47-.85-2.21 7.74z"/><path id="_Составной_контур_6" data-name="&lt;Составной контур&gt;" class="cls-23" d="M98.91 41.62v1.28l2.69-1.55v1.29l-2.69 1.55v1.3l3.09-1.76V45l-4.49 2.59v-6.44l4.41-2.54v1.29z"/><path id="_Составной_контур_7" data-name="&lt;Составной контур&gt;" class="cls-23" d="M105.45 41.19l-1.09.63v1.82l-1.43.83V38l2.52-1.45c1.49-.86 2.34-.54 2.34.9a4 4 0 01-1 2.67l1.18 1.45-1.62.94zm0-1.27a1.83 1.83 0 001-1.61c0-.67-.36-.81-1-.45l-1.09.63v2.06z"/><path id="_Составной_контур_8" data-name="&lt;Составной контур&gt;" class="cls-23" d="M111.57 39.48l-1.42.82v-2l-2.09-3.3 1.43-.83 1.36 2 1.33-3.58 1.43-.83-2 5.56z"/></g></g><path id="_Контур_81" data-name="&lt;Контур&gt;" stroke="#bf8f00" stroke-width=".42" stroke-miterlimit="10" fill="none" d="M97.38 65.55l16.28-9.4v-7.47l-16.28 9.4v7.47z"/></g><g id="_Группа_21" data-name="&lt;Группа&gt;"><path id="_Контур_82" data-name="&lt;Контур&gt;" class="cls-55" d="M64.32 76.46c0 .83-.68 1.12-1.51.64a3.13 3.13 0 01-1.51-2.38c0-.83.68-1.12 1.51-.64a3.13 3.13 0 011.51 2.38z"/><path id="_Контур_83" data-name="&lt;Контур&gt;" class="cls-56" d="M63.87 76.45c0 .71-.57 1-1.28.54a2.66 2.66 0 01-1.28-2c0-.71.57-1 1.28-.54a2.66 2.66 0 011.28 2z"/></g><g id="_Группа_22" data-name="&lt;Группа&gt;"><path id="_Контур_84" data-name="&lt;Контур&gt;" class="cls-57" d="M64.32 72c0 .83-.68 1.12-1.51.64a3.13 3.13 0 01-1.51-2.38c0-.83.68-1.12 1.51-.64A3.13 3.13 0 0164.32 72z"/><path id="_Контур_85" data-name="&lt;Контур&gt;" class="cls-58" d="M63.87 72c0 .71-.57 1-1.28.54a2.66 2.66 0 01-1.28-2c0-.71.57-1 1.28-.54a2.66 2.66 0 011.28 2z"/></g><g id="_Группа_23" data-name="&lt;Группа&gt;"><path id="_Контур_86" data-name="&lt;Контур&gt;" class="cls-55" d="M38 61.29c0 .83-.68 1.12-1.51.64a3.13 3.13 0 01-1.51-2.38c0-.83.68-1.12 1.51-.64A3.13 3.13 0 0138 61.29z"/><path id="_Контур_87" data-name="&lt;Контур&gt;" class="cls-56" d="M37.5 61.27c0 .71-.57 1-1.28.54a2.66 2.66 0 01-1.28-2c0-.71.57-1 1.28-.54a2.66 2.66 0 011.28 2z"/></g><g id="_Группа_24" data-name="&lt;Группа&gt;"><path id="_Контур_88" data-name="&lt;Контур&gt;" class="cls-57" d="M38 56.87c0 .83-.68 1.12-1.51.64a3.13 3.13 0 01-1.51-2.38c0-.83.68-1.12 1.51-.64A3.13 3.13 0 0138 56.87z"/><path id="_Контур_89" data-name="&lt;Контур&gt;" class="cls-58" d="M37.5 56.86c0 .71-.57 1-1.28.54a2.66 2.66 0 01-1.28-2c0-.71.57-1 1.28-.54a2.66 2.66 0 011.28 2z"/></g><g id="_Группа_25" data-name="&lt;Группа&gt;"><path id="_Контур_90" data-name="&lt;Контур&gt;" class="cls-59" d="M63.87 56.88c0 .58-.47.78-1.05.45a2.19 2.19 0 01-1.05-1.66c0-.58.47-.78 1.05-.45a2.19 2.19 0 011.05 1.66z"/><path id="_Контур_91" data-name="&lt;Контур&gt;" class="cls-60" d="M63.55 56.87c0 .49-.4.66-.9.38a1.86 1.86 0 01-.9-1.41c0-.49.4-.66.9-.38a1.86 1.86 0 01.9 1.41z"/></g><g id="_Группа_26" data-name="&lt;Группа&gt;"><path id="_Контур_92" data-name="&lt;Контур&gt;" class="cls-59" d="M37.5 41.7c0 .58-.47.78-1.05.45a2.19 2.19 0 01-1.05-1.66c0-.58.47-.78 1.05-.45a2.19 2.19 0 011.05 1.66z"/><path id="_Контур_93" data-name="&lt;Контур&gt;" class="cls-60" d="M37.18 41.69c0 .49-.4.66-.9.38a1.86 1.86 0 01-.9-1.41c0-.49.4-.66.9-.38a1.86 1.86 0 01.9 1.41z"/></g><g id="_Группа_27" data-name="&lt;Группа&gt;"><path id="_Контур_94" data-name="&lt;Контур&gt;" class="cls-18" d="M42.77 39.42v.44a.56.56 0 00.28.47l1.85 1.08a.22.22 0 00.33-.19v-.12l-1.55-.9a.56.56 0 01-.28-.47v-.31l-.3-.17a.22.22 0 00-.33.17z"/><path id="_Контур_95" data-name="&lt;Контур&gt;" class="cls-53" d="M43.4 39.41v.31a.56.56 0 00.28.47l1.55.9v-.31a.56.56 0 00-.28-.48z"/></g><g id="_Группа_28" data-name="&lt;Группа&gt;"><path id="_Контур_96" data-name="&lt;Контур&gt;" class="cls-18" d="M48.1 42.53V43a.56.56 0 00.28.47l1.85 1.08a.22.22 0 00.33-.19v-.12L49 43.31a.56.56 0 01-.28-.47v-.31l-.3-.17a.22.22 0 00-.32.17z"/><path id="_Контур_97" data-name="&lt;Контур&gt;" class="cls-53" d="M48.73 42.52v.31a.56.56 0 00.28.47l1.55.9v-.3a.56.56 0 00-.28-.48z"/></g><g id="_Группа_29" data-name="&lt;Группа&gt;"><path id="_Контур_98" data-name="&lt;Контур&gt;" class="cls-18" d="M53.43 45.65v.44a.56.56 0 00.28.47l1.85 1.08a.22.22 0 00.33-.19v-.12l-1.55-.9a.56.56 0 01-.28-.47v-.31l-.3-.17a.22.22 0 00-.33.17z"/><path id="_Контур_99" data-name="&lt;Контур&gt;" class="cls-53" d="M54.07 45.63v.31a.56.56 0 00.28.47l1.55.9V47a.56.56 0 00-.28-.48z"/></g><g id="_Группа_30" data-name="&lt;Группа&gt;"><path id="_Контур_100" data-name="&lt;Контур&gt;" class="cls-18" d="M102.39 5.67l-.81.52c-.22.14-.24.38-.47.25l-.36-.29c-.25-.14-.52-.67-.28-.82l.82-.52c.22-.14 1.11-.53 1.34-.39h.09c.28.18-.09 1.1-.33 1.25z"/><path id="_Контур_101" data-name="&lt;Контур&gt;" class="cls-61" d="M103.54 5.78l-1.3.83a.8.8 0 01-.83 0l-.31-.18c-.28-.16.09-1.31.36-1.48l.93-.08c.25-.15.63-.55.89-.4l.21.16a.91.91 0 01.05 1.15z"/><path id="_Контур_102" data-name="&lt;Контур&gt;" class="cls-62" d="M103.21 5.05l-.81.52a.71.71 0 01-.74 0h-.1a.39.39 0 010-.66l.82-.52a.72.72 0 01.73 0h.09a.39.39 0 01.01.66z"/></g><g id="_Группа_31" data-name="&lt;Группа&gt;"><path id="_Контур_103" data-name="&lt;Контур&gt;" class="cls-18" d="M110.64 9.45l-.81.52c-.22.14-.24.38-.47.25l-.36-.28c-.25-.14-.52-.67-.28-.82l.82-.52c.22-.14 1.11-.53 1.34-.39h.09c.24.18-.09 1.1-.33 1.24z"/><path id="_Контур_104" data-name="&lt;Контур&gt;" class="cls-61" d="M111.79 9.57l-1.3.83a.8.8 0 01-.83 0l-.31-.18c-.28-.16.09-1.31.36-1.48l.93-.08c.25-.15.63-.55.89-.4l.21.16a.91.91 0 01.05 1.15z"/><path id="_Контур_105" data-name="&lt;Контур&gt;" class="cls-62" d="M111.46 8.84l-.81.52a.71.71 0 01-.74 0h-.1a.39.39 0 010-.66l.82-.52a.72.72 0 01.73 0h.09a.39.39 0 01.01.66z"/></g><g id="_Группа_32" data-name="&lt;Группа&gt;"><path id="_Контур_106" data-name="&lt;Контур&gt;" class="cls-18" d="M117.26 14.29l-.81.52c-.22.14-.24.38-.47.25l-.36-.29c-.25-.14-.52-.67-.28-.82l.82-.52c.22-.14 1.11-.53 1.34-.39h.09c.25.18-.09 1.1-.33 1.25z"/><path id="_Контур_107" data-name="&lt;Контур&gt;" class="cls-61" d="M118.42 14.4l-1.3.83a.8.8 0 01-.83 0l-.31-.18c-.28-.16.09-1.31.36-1.48l.93-.08c.25-.15.63-.55.89-.4l.21.16a.91.91 0 01.05 1.15z"/><path id="_Контур_108" data-name="&lt;Контур&gt;" class="cls-62" d="M118.09 13.68l-.81.52a.72.72 0 01-.74 0h-.1a.39.39 0 010-.66l.82-.52a.72.72 0 01.73 0h.09a.39.39 0 01.01.66z"/><path id="_Контур_109" data-name="&lt;Контур&gt;" class="cls-17" d="M34.16 33l30.93 17.83 57.15-32.99L91.31 0 34.16 33z"/></g><path id="_Контур_110" data-name="&lt;Контур&gt;" d="M152.7 30.47l2.12 1.31c-1 2-1.5 4.57-2.45 5.26l-1.74 1v-3.63l1.89-1.35c.09-.06.18-2.59.18-2.59z" fill="#4c4e57"/><path id="_Контур_111" data-name="&lt;Контур&gt;" class="cls-50" d="M154.82 31.78v3.64c-1 2-.72 1.63-1.68 2.31l-1.53 1.14v-3.63l1.53-1.14c.96-.69.73-.31 1.68-2.32z"/><path id="_Контур_112" data-name="&lt;Контур&gt;" fill="#07090c" d="M150.63 34.41v3.64l.99.83v-3.65l-.99-.82z"/><g id="_Группа_33" data-name="&lt;Группа&gt;"><path id="_Контур_113" data-name="&lt;Контур&gt;" class="cls-20" d="M139.26 20.77a2.47 2.47 0 011 1.47 4.2 4.2 0 010 1c0 .63-.07.85-.08 1.49a45.13 45.13 0 01-.31 5.65 3.77 3.77 0 01-.38 1.09c-.19.31-.72.9-1.12.77a3 3 0 01-.56-.23c-.31-.18-.65-2.65-.8-3a1.6 1.6 0 01-.12-.8v-.73a1.63 1.63 0 000-.35c0-.19-.3-.18-.48-.23a.25.25 0 01-.11-.05.23.23 0 01-.05-.1 10.15 10.15 0 01-.19-1.21c0-.29-.1-.84.15-1.05.09-.08.65-.1.65-.17v-1.4a16.66 16.66 0 01.17-1.81c.05-.34 0-1.08.53-1.1a1.94 1.94 0 01.8.31 8 8 0 01.9.45z"/><path id="_Контур_114" data-name="&lt;Контур&gt;" d="M137.68 20.72a39.37 39.37 0 00-.37 4.09 19.86 19.86 0 000 3.78c.19.45 1 3.06 1 3.06s.64-5 .72-7.62a12.59 12.59 0 000-2.44 2.6 2.6 0 00-1.35-.87z" fill="#e0e0e0"/></g><g id="_Группа_34" data-name="&lt;Группа&gt;"><path id="_Контур_115" data-name="&lt;Контур&gt;" class="cls-66" d="M120.88 8.64l.4-.14a1.19 1.19 0 01.8.1l3.41 1.8c.42.23.4.5 0 .59l-.37.07a1.25 1.25 0 01-.73-.11L121 9.21c-.42-.21-.45-.45-.12-.57z"/><g id="_Группа_35" data-name="&lt;Группа&gt;"><path id="_Контур_116" data-name="&lt;Контур&gt;" class="cls-19" d="M122.54 8.72l-.28-.11-1.75.49.22.14 1.81-.52z"/><path id="_Контур_117" data-name="&lt;Контур&gt;" class="cls-19" d="M123.27 9.07l-.28-.11-1.75.49.23.13 1.8-.51z"/><path id="_Контур_118" data-name="&lt;Контур&gt;" class="cls-19" d="M124.01 9.41l-.28-.11-1.75.49.22.14 1.81-.52z"/><path id="_Контур_119" data-name="&lt;Контур&gt;" class="cls-19" d="M124.75 9.75l-.29-.11-1.74.49.22.14 1.81-.52z"/><path id="_Контур_120" data-name="&lt;Контур&gt;" class="cls-19" d="M125.43 10.11l-.29-.11-1.74.49.22.13 1.81-.51z"/><path id="_Контур_121" data-name="&lt;Контур&gt;" class="cls-19" d="M125.98 10.5l-.29-.11-1.74.49.22.14 1.81-.52z"/></g></g><g id="_Группа_36" data-name="&lt;Группа&gt;"><path id="_Контур_122" data-name="&lt;Контур&gt;" class="cls-66" d="M134.6 18.08l-.46.13a1 1 0 01-.81-.18l-3-2.47c-.38-.31-.27-.64.24-.71l.42-.06a1.06 1.06 0 01.73.2l3 2.4c.28.27.28.61-.12.69z"/><g id="_Группа_37" data-name="&lt;Группа&gt;"><path id="_Контур_123" data-name="&lt;Контур&gt;" class="cls-19" d="M132.88 17.84l.26.16 2-.45-.19-.18-2.07.47z"/><path id="_Контур_124" data-name="&lt;Контур&gt;" class="cls-19" d="M132.21 17.37l.26.15 2-.45-.19-.18-2.07.48z"/><path id="_Контур_125" data-name="&lt;Контур&gt;" class="cls-19" d="M131.54 16.89l.27.16 2-.45-.19-.18-2.08.47z"/><path id="_Контур_126" data-name="&lt;Контур&gt;" class="cls-19" d="M130.87 16.42l.27.15 2-.44-.19-.19-2.08.48z"/><path id="_Контур_127" data-name="&lt;Контур&gt;" class="cls-19" d="M130.27 15.93l.26.16 2-.45-.19-.19-2.07.48z"/><path id="_Контур_128" data-name="&lt;Контур&gt;" class="cls-19" d="M129.81 15.4l.27.16 2-.45-.19-.18-2.08.47z"/></g></g></g></g><g clip-path="url(#clip-path)" id="_Группа_обтравки_" data-name="&lt;Группа обтравки&gt;"><g id="_Группа_38" data-name="&lt;Группа&gt;"><g id="_Группа_39" data-name="&lt;Группа&gt;"><g id="_Группа_40" data-name="&lt;Группа&gt;"><g id="_Группа_41" data-name="&lt;Группа&gt;"><g id="_Группа_42" data-name="&lt;Группа&gt;"><path id="_Контур_129" data-name="&lt;Контур&gt;" class="cls-68" d="M54.7 69.52l-7.21-4.16V57.6l7.21 4.16v7.76z"/><path id="_Контур_130" data-name="&lt;Контур&gt;" class="cls-69" d="M60.42 58.44l-5.72 3.32v7.76l5.72-3.31v-7.77z"/><path id="_Контур_131" data-name="&lt;Контур&gt;" class="cls-70" d="M57.13 61.35l-1.74 1.02v2.36l1.74-1v-2.38z"/></g><path id="_Контур_132" data-name="&lt;Контур&gt;" class="cls-71" d="M56.53 62.65v1.18l-.55.31.01-1.18-.27.15.54-1.16.54.54-.27.16z"/><path id="_Контур_133" data-name="&lt;Контур&gt;" class="cls-72" d="M60.42 58.44l-5.72 3.32-3.38-1.95-1.1-.63-2.73-1.58 5.72-3.32 2.74 1.58 1.1.63 3.37 1.95z"/></g></g><path id="_Контур_134" data-name="&lt;Контур&gt;" class="cls-73" d="M51.32 59.81l-1.1-.63 5.73-3.32 1.1.63-5.73 3.32z"/><g id="_Группа_43" data-name="&lt;Группа&gt;"><path id="_Контур_135" data-name="&lt;Контур&gt;" class="cls-74" d="M50.09 66.19l-2.07-1.18v-1.79l2.07 1.18v1.79z"/><path id="_Контур_136" data-name="&lt;Контур&gt;" class="cls-75" d="M49.98 65.96l-1.84-1.05v-.08l1.84 1.05v.08z"/><path id="_Контур_137" data-name="&lt;Контур&gt;" class="cls-75" d="M49.98 65.74l-1.84-1.05v-.08l1.84 1.05v.08z"/><path id="_Контур_138" data-name="&lt;Контур&gt;" class="cls-75" d="M49.98 65.51l-1.84-1.05v-.08l1.84 1.05v.08z"/><path id="_Контур_139" data-name="&lt;Контур&gt;" class="cls-75" d="M49.98 65.29l-1.84-1.05v-.08l1.84 1.05v.08z"/><path id="_Контур_140" data-name="&lt;Контур&gt;" class="cls-75" d="M49.98 64.87l-1.84-1.05v-.26l1.84 1.05v.26z"/></g><path id="_Контур_141" data-name="&lt;Контур&gt;" class="cls-76" d="M50.22 59.18v2.61l.22-.61.24.86.32-.56.28.9.04-2.57-1.1-.63z"/><path id="_Контур_142" data-name="&lt;Контур&gt;" class="cls-71" d="M58.44 60.7l-.52.3v.7l.52-.3v-.7z"/><path id="_Контур_143" data-name="&lt;Контур&gt;" class="cls-71" d="M59.17 60.27l-.52.31v.7l.52-.3v-.71z"/><path id="_Контур_144" data-name="&lt;Контур&gt;" class="cls-71" d="M59.91 59.85l-.53.31v.7l.53-.31v-.7z"/></g><g id="_Группа_44" data-name="&lt;Группа&gt;"><g id="_Группа_45" data-name="&lt;Группа&gt;"><g id="_Группа_46" data-name="&lt;Группа&gt;"><g id="_Группа_47" data-name="&lt;Группа&gt;"><path id="_Контур_145" data-name="&lt;Контур&gt;" class="cls-68" d="M47.82 73.5l-7.21-4.15v-7.76l7.21 4.16v7.75z"/><path id="_Контур_146" data-name="&lt;Контур&gt;" class="cls-69" d="M53.55 62.43l-5.73 3.32v7.75l5.73-3.3v-7.77z"/><path id="_Контур_147" data-name="&lt;Контур&gt;" class="cls-70" d="M50.25 65.34l-1.74 1.01v2.37l1.74-1.01v-2.37z"/></g><path id="_Контур_148" data-name="&lt;Контур&gt;" class="cls-71" d="M49.65 66.64v1.17l-.55.31.01-1.18-.27.16.54-1.16.55.54-.28.16z"/><path id="_Контур_149" data-name="&lt;Контур&gt;" class="cls-72" d="M53.54 62.43l-5.72 3.32-3.38-1.95-1.1-.63-2.73-1.58 5.73-3.32 2.73 1.57 1.1.64 3.37 1.95z"/></g></g><path id="_Контур_150" data-name="&lt;Контур&gt;" class="cls-73" d="M44.44 63.8l-1.1-.63 5.73-3.33 1.1.64-5.73 3.32z"/><g id="_Группа_48" data-name="&lt;Группа&gt;"><path id="_Контур_151" data-name="&lt;Контур&gt;" class="cls-74" d="M43.21 70.17l-2.07-1.18v-1.78l2.07 1.18v1.78z"/><path id="_Контур_152" data-name="&lt;Контур&gt;" class="cls-75" d="M43.1 69.95l-1.84-1.05v-.08l1.84 1.05v.08z"/><path id="_Контур_153" data-name="&lt;Контур&gt;" class="cls-75" d="M43.1 69.72l-1.84-1.05v-.08l1.84 1.05v.08z"/><path id="_Контур_154" data-name="&lt;Контур&gt;" class="cls-75" d="M43.1 69.5l-1.84-1.05v-.08l1.84 1.05v.08z"/><path id="_Контур_155" data-name="&lt;Контур&gt;" class="cls-75" d="M43.1 69.28l-1.84-1.05v-.09l1.84 1.06v.08z"/><path id="_Контур_156" data-name="&lt;Контур&gt;" class="cls-75" d="M43.1 68.85l-1.84-1.05v-.25l1.84 1.05v.25z"/></g><path id="_Контур_157" data-name="&lt;Контур&gt;" class="cls-76" d="M43.34 63.17v2.61l.22-.61.24.86.32-.56.28.89.04-2.56-1.1-.63z"/><path id="_Контур_158" data-name="&lt;Контур&gt;" class="cls-71" d="M51.56 64.69l-.52.3v.7l.52-.3v-.7z"/><path id="_Контур_159" data-name="&lt;Контур&gt;" class="cls-71" d="M52.3 64.26l-.53.31v.7l.53-.31v-.7z"/><path id="_Контур_160" data-name="&lt;Контур&gt;" class="cls-71" d="M53.03 63.84l-.52.3v.7l.52-.3v-.7z"/></g><g id="_Группа_49" data-name="&lt;Группа&gt;"><g id="_Группа_50" data-name="&lt;Группа&gt;"><g id="_Группа_51" data-name="&lt;Группа&gt;"><g id="_Группа_52" data-name="&lt;Группа&gt;"><path id="_Контур_161" data-name="&lt;Контур&gt;" class="cls-68" d="M62.69 74.08l-7.2-4.16v-7.75l7.2 4.16v7.75z"/><path id="_Контур_162" data-name="&lt;Контур&gt;" class="cls-77" d="M68.42 63l-5.73 3.33v7.75l5.73-3.3V63z"/><path id="_Контур_163" data-name="&lt;Контур&gt;" class="cls-70" d="M65.13 65.92l-1.75 1.01v2.37l1.75-1.01v-2.37z"/></g><path id="_Контур_164" data-name="&lt;Контур&gt;" class="cls-71" d="M64.53 67.21l-.01 1.18-.54.31v-1.18l-.27.16.55-1.16.54.54-.27.15z"/><path id="_Контур_165" data-name="&lt;Контур&gt;" class="cls-72" d="M68.42 63.01l-5.72 3.32-3.39-1.96-1.1-.63-2.72-1.57 5.72-3.32 2.73 1.57 1.1.64 3.38 1.95z"/></g></g><path id="_Контур_166" data-name="&lt;Контур&gt;" class="cls-73" d="M59.31 64.37l-1.1-.63 5.73-3.32 1.1.64-5.73 3.31z"/><g id="_Группа_53" data-name="&lt;Группа&gt;"><path id="_Контур_167" data-name="&lt;Контур&gt;" class="cls-74" d="M58.09 70.75l-2.07-1.18v-1.79l2.07 1.19v1.78z"/><path id="_Контур_168" data-name="&lt;Контур&gt;" class="cls-75" d="M57.97 70.53l-1.84-1.06v-.08l1.84 1.05v.09z"/><path id="_Контур_169" data-name="&lt;Контур&gt;" class="cls-75" d="M57.97 70.3l-1.84-1.05v-.08l1.84 1.05v.08z"/><path id="_Контур_170" data-name="&lt;Контур&gt;" class="cls-75" d="M57.97 70.08l-1.84-1.05v-.09L57.97 70v.08z"/><path id="_Контур_171" data-name="&lt;Контур&gt;" class="cls-75" d="M57.97 69.85l-1.84-1.05v-.08l1.84 1.05v.08z"/><path id="_Контур_172" data-name="&lt;Контур&gt;" class="cls-75" d="M57.97 69.43l-1.84-1.05v-.26l1.84 1.05v.26z"/></g><path id="_Контур_173" data-name="&lt;Контур&gt;" class="cls-76" d="M58.21 63.74v2.62l.22-.62.24.87.32-.56.29.89.03-2.57-1.1-.63z"/><path id="_Контур_174" data-name="&lt;Контур&gt;" class="cls-71" d="M66.43 65.26l-.52.31v.7l.52-.31v-.7z"/><path id="_Контур_175" data-name="&lt;Контур&gt;" class="cls-71" d="M67.17 64.84l-.53.3v.7l.53-.3v-.7z"/><path id="_Контур_176" data-name="&lt;Контур&gt;" class="cls-71" d="M67.9 64.42l-.52.3v.7l.52-.3v-.7z"/></g><g id="_Группа_54" data-name="&lt;Группа&gt;"><g id="_Группа_55" data-name="&lt;Группа&gt;"><g id="_Группа_56" data-name="&lt;Группа&gt;"><g id="_Группа_57" data-name="&lt;Группа&gt;"><path id="_Контур_177" data-name="&lt;Контур&gt;" class="cls-68" d="M55.81 78.07l-7.2-4.16v-7.75l7.2 4.15v7.76z"/><path id="_Контур_178" data-name="&lt;Контур&gt;" class="cls-77" d="M61.54 66.99l-5.73 3.32v7.76l5.73-3.3v-7.78z"/><path id="_Контур_179" data-name="&lt;Контур&gt;" class="cls-70" d="M58.25 69.91l-1.75 1.01v2.37l1.75-1.01v-2.37z"/></g><path id="_Контур_180" data-name="&lt;Контур&gt;" class="cls-71" d="M57.65 71.2l-.01 1.18-.54.31v-1.18l-.27.15.55-1.16.54.54-.27.16z"/><path id="_Контур_181" data-name="&lt;Контур&gt;" class="cls-72" d="M61.54 66.99l-5.72 3.32-3.39-1.95-1.09-.63-2.73-1.58 5.72-3.32 2.73 1.58 1.1.63 3.38 1.95z"/></g></g><path id="_Контур_182" data-name="&lt;Контур&gt;" class="cls-73" d="M52.43 68.36l-1.09-.63 5.72-3.32 1.1.63-5.73 3.32z"/><g id="_Группа_58" data-name="&lt;Группа&gt;"><path id="_Контур_183" data-name="&lt;Контур&gt;" class="cls-74" d="M51.21 74.74l-2.07-1.18v-1.79l2.07 1.18v1.79z"/><path id="_Контур_184" data-name="&lt;Контур&gt;" class="cls-75" d="M51.09 74.51l-1.84-1.05v-.08l1.84 1.05v.08z"/><path id="_Контур_185" data-name="&lt;Контур&gt;" class="cls-75" d="M51.09 74.29l-1.84-1.05v-.08l1.84 1.05v.08z"/><path id="_Контур_186" data-name="&lt;Контур&gt;" class="cls-75" d="M51.09 74.06l-1.84-1.05v-.08l1.84 1.05v.08z"/><path id="_Контур_187" data-name="&lt;Контур&gt;" class="cls-75" d="M51.09 73.84l-1.84-1.05v-.08l1.84 1.05v.08z"/><path id="_Контур_188" data-name="&lt;Контур&gt;" class="cls-75" d="M51.09 73.42l-1.84-1.05v-.26l1.84 1.05v.26z"/></g><path id="_Контур_189" data-name="&lt;Контур&gt;" class="cls-76" d="M51.34 67.73l-.01 2.61.22-.61.24.87.32-.56.29.89.03-2.57-1.09-.63z"/><path id="_Контур_190" data-name="&lt;Контур&gt;" class="cls-71" d="M59.55 69.25l-.52.3v.7l.52-.3v-.7z"/><path id="_Контур_191" data-name="&lt;Контур&gt;" class="cls-71" d="M60.29 68.83l-.52.3v.7l.52-.3v-.7z"/><path id="_Контур_192" data-name="&lt;Контур&gt;" class="cls-71" d="M61.02 68.4l-.52.31v.7l.52-.31v-.7z"/></g><g id="_Группа_59" data-name="&lt;Группа&gt;"><g id="_Группа_60" data-name="&lt;Группа&gt;"><g id="_Группа_61" data-name="&lt;Группа&gt;"><g id="_Группа_62" data-name="&lt;Группа&gt;"><path id="_Контур_193" data-name="&lt;Контур&gt;" class="cls-68" d="M54.7 61.48l-7.21-4.15v-7.76l7.21 4.16v7.75z"/><path id="_Контур_194" data-name="&lt;Контур&gt;" class="cls-69" d="M60.42 50.41l-5.72 3.32v7.75l5.72-3.3v-7.77z"/><path id="_Контур_195" data-name="&lt;Контур&gt;" class="cls-70" d="M57.13 53.32l-1.74 1.01v2.37l1.74-1.01v-2.37z"/></g><path id="_Контур_196" data-name="&lt;Контур&gt;" class="cls-71" d="M56.53 54.61v1.18l-.55.31.01-1.18-.27.16.54-1.16.54.54-.27.15z"/><path id="_Контур_197" data-name="&lt;Контур&gt;" class="cls-72" d="M60.42 50.41l-5.72 3.32-3.38-1.95-1.1-.63-2.73-1.58 5.72-3.32 2.74 1.58 1.1.63 3.37 1.95z"/></g></g><path id="_Контур_198" data-name="&lt;Контур&gt;" class="cls-73" d="M51.32 51.78l-1.1-.63 5.73-3.32 1.1.63-5.73 3.32z"/><g id="_Группа_63" data-name="&lt;Группа&gt;"><path id="_Контур_199" data-name="&lt;Контур&gt;" class="cls-74" d="M50.09 58.16l-2.07-1.19v-1.78l2.07 1.18v1.79z"/><path id="_Контур_200" data-name="&lt;Контур&gt;" class="cls-75" d="M49.98 57.93l-1.84-1.05v-.08l1.84 1.05v.08z"/><path id="_Контур_201" data-name="&lt;Контур&gt;" class="cls-75" d="M49.98 57.7l-1.84-1.05v-.08l1.84 1.05v.08z"/><path id="_Контур_202" data-name="&lt;Контур&gt;" class="cls-75" d="M49.98 57.48l-1.84-1.05v-.08l1.84 1.05v.08z"/><path id="_Контур_203" data-name="&lt;Контур&gt;" class="cls-75" d="M49.98 57.26l-1.84-1.05v-.09l1.84 1.05v.09z"/><path id="_Контур_204" data-name="&lt;Контур&gt;" class="cls-75" d="M49.98 56.83l-1.84-1.05v-.25l1.84 1.05v.25z"/></g><path id="_Контур_205" data-name="&lt;Контур&gt;" class="cls-76" d="M50.22 51.15v2.61l.22-.61.24.86.32-.56.28.89.04-2.56-1.1-.63z"/><path id="_Контур_206" data-name="&lt;Контур&gt;" class="cls-71" d="M58.44 52.66l-.52.31v.7l.52-.3v-.71z"/><path id="_Контур_207" data-name="&lt;Контур&gt;" class="cls-71" d="M59.17 52.24l-.52.31v.7l.52-.31v-.7z"/><path id="_Контур_208" data-name="&lt;Контур&gt;" class="cls-71" d="M59.91 51.82l-.53.3v.7l.53-.3v-.7z"/></g><g id="_Группа_64" data-name="&lt;Группа&gt;"><g id="_Группа_65" data-name="&lt;Группа&gt;"><g id="_Группа_66" data-name="&lt;Группа&gt;"><g id="_Группа_67" data-name="&lt;Группа&gt;"><path id="_Контур_209" data-name="&lt;Контур&gt;" class="cls-68" d="M47.82 65.47l-7.21-4.16v-7.75l7.21 4.16v7.75z"/><path id="_Контур_210" data-name="&lt;Контур&gt;" class="cls-69" d="M53.55 54.4l-5.73 3.32v7.75l5.73-3.3V54.4z"/><path id="_Контур_211" data-name="&lt;Контур&gt;" class="cls-70" d="M50.25 57.31l-1.74 1.01v2.37l1.74-1.01v-2.37z"/></g><path id="_Контур_212" data-name="&lt;Контур&gt;" class="cls-71" d="M49.65 58.6v1.18l-.55.31.01-1.18-.27.16.54-1.16.55.54-.28.15z"/><path id="_Контур_213" data-name="&lt;Контур&gt;" class="cls-72" d="M53.54 54.4l-5.72 3.32-3.38-1.96-1.1-.63-2.73-1.57 5.73-3.32 2.73 1.57 1.1.64 3.37 1.95z"/></g></g><path id="_Контур_214" data-name="&lt;Контур&gt;" class="cls-73" d="M44.44 55.76l-1.1-.63 5.73-3.32 1.1.64-5.73 3.31z"/><g id="_Группа_68" data-name="&lt;Группа&gt;"><path id="_Контур_215" data-name="&lt;Контур&gt;" class="cls-74" d="M43.21 62.14l-2.07-1.18v-1.79l2.07 1.19v1.78z"/><path id="_Контур_216" data-name="&lt;Контур&gt;" class="cls-75" d="M43.1 61.92l-1.84-1.05v-.09l1.84 1.06v.08z"/><path id="_Контур_217" data-name="&lt;Контур&gt;" class="cls-75" d="M43.1 61.69l-1.84-1.05v-.08l1.84 1.05v.08z"/><path id="_Контур_218" data-name="&lt;Контур&gt;" class="cls-75" d="M43.1 61.47l-1.84-1.05v-.08l1.84 1.05v.08z"/><path id="_Контур_219" data-name="&lt;Контур&gt;" class="cls-75" d="M43.1 61.24l-1.84-1.05v-.08l1.84 1.05v.08z"/><path id="_Контур_220" data-name="&lt;Контур&gt;" class="cls-75" d="M43.1 60.82l-1.84-1.05v-.25l1.84 1.05v.25z"/></g><path id="_Контур_221" data-name="&lt;Контур&gt;" class="cls-76" d="M43.34 55.13v2.62l.22-.62.24.87.32-.56.28.89.04-2.57-1.1-.63z"/><path id="_Контур_222" data-name="&lt;Контур&gt;" class="cls-71" d="M51.56 56.65l-.52.31v.7l.52-.31v-.7z"/><path id="_Контур_223" data-name="&lt;Контур&gt;" class="cls-71" d="M52.3 56.23l-.53.3v.7l.53-.3v-.7z"/><path id="_Контур_224" data-name="&lt;Контур&gt;" class="cls-71" d="M53.03 55.81l-.52.3v.7l.52-.3v-.7z"/></g><g id="_Группа_69" data-name="&lt;Группа&gt;"><g id="_Группа_70" data-name="&lt;Группа&gt;"><g id="_Группа_71" data-name="&lt;Группа&gt;"><g id="_Группа_72" data-name="&lt;Группа&gt;"><path id="_Контур_225" data-name="&lt;Контур&gt;" class="cls-68" d="M62.69 66.05l-7.2-4.16v-7.76l7.2 4.16v7.76z"/><path id="_Контур_226" data-name="&lt;Контур&gt;" class="cls-77" d="M68.42 54.97l-5.73 3.32v7.76l5.73-3.3v-7.78z"/><path id="_Контур_227" data-name="&lt;Контур&gt;" class="cls-70" d="M65.13 57.88l-1.75 1.02v2.37l1.75-1.01v-2.38z"/></g><path id="_Контур_228" data-name="&lt;Контур&gt;" class="cls-71" d="M64.53 59.18l-.01 1.18-.54.31v-1.18l-.27.15.55-1.16.54.54-.27.16z"/><path id="_Контур_229" data-name="&lt;Контур&gt;" class="cls-72" d="M68.42 54.97l-5.72 3.32-3.39-1.95-1.1-.63-2.72-1.58 5.72-3.32 2.73 1.58 1.1.63 3.38 1.95z"/></g></g><path id="_Контур_230" data-name="&lt;Контур&gt;" class="cls-73" d="M59.31 56.34l-1.1-.63 5.73-3.32 1.1.63-5.73 3.32z"/><g id="_Группа_73" data-name="&lt;Группа&gt;"><path id="_Контур_231" data-name="&lt;Контур&gt;" class="cls-74" d="M58.09 62.72l-2.07-1.18v-1.79l2.07 1.18v1.79z"/><path id="_Контур_232" data-name="&lt;Контур&gt;" class="cls-75" d="M57.97 62.49l-1.84-1.05v-.08l1.84 1.05v.08z"/><path id="_Контур_233" data-name="&lt;Контур&gt;" class="cls-75" d="M57.97 62.27l-1.84-1.05v-.08l1.84 1.05v.08z"/><path id="_Контур_234" data-name="&lt;Контур&gt;" class="cls-75" d="M57.97 62.05l-1.84-1.06v-.08l1.84 1.05v.09z"/><path id="_Контур_235" data-name="&lt;Контур&gt;" class="cls-75" d="M57.97 61.82l-1.84-1.05v-.08l1.84 1.05v.08z"/><path id="_Контур_236" data-name="&lt;Контур&gt;" class="cls-75" d="M57.97 61.4l-1.84-1.05v-.26l1.84 1.05v.26z"/></g><path id="_Контур_237" data-name="&lt;Контур&gt;" class="cls-76" d="M58.21 55.71v2.61l.22-.61.24.87.32-.56.29.89.03-2.57-1.1-.63z"/><path id="_Контур_238" data-name="&lt;Контур&gt;" class="cls-71" d="M66.43 57.23l-.52.3v.7l.52-.3v-.7z"/><path id="_Контур_239" data-name="&lt;Контур&gt;" class="cls-71" d="M67.17 56.81l-.53.3v.7l.53-.3v-.7z"/><path id="_Контур_240" data-name="&lt;Контур&gt;" class="cls-71" d="M67.9 56.38l-.52.31v.7l.52-.31v-.7z"/></g><g id="_Группа_74" data-name="&lt;Группа&gt;"><g id="_Группа_75" data-name="&lt;Группа&gt;"><g id="_Группа_76" data-name="&lt;Группа&gt;"><g id="_Группа_77" data-name="&lt;Группа&gt;"><path id="_Контур_241" data-name="&lt;Контур&gt;" class="cls-68" d="M55.81 70.04l-7.2-4.16v-7.76l7.2 4.16v7.76z"/><path id="_Контур_242" data-name="&lt;Контур&gt;" class="cls-77" d="M61.54 58.96l-5.73 3.32v7.76l5.73-3.31v-7.77z"/><path id="_Контур_243" data-name="&lt;Контур&gt;" class="cls-70" d="M58.25 61.87l-1.75 1.02v2.36l1.75-1v-2.38z"/></g><path id="_Контур_244" data-name="&lt;Контур&gt;" class="cls-71" d="M57.65 63.17l-.01 1.18-.54.31v-1.18l-.27.15.55-1.16.54.54-.27.16z"/><path id="_Контур_245" data-name="&lt;Контур&gt;" class="cls-72" d="M61.54 58.96l-5.72 3.32-3.39-1.95-1.09-.63-2.73-1.58 5.72-3.32 2.73 1.58 1.1.63 3.38 1.95z"/></g></g><path id="_Контур_246" data-name="&lt;Контур&gt;" class="cls-73" d="M52.43 60.33l-1.09-.63 5.72-3.32 1.1.63-5.73 3.32z"/><g id="_Группа_78" data-name="&lt;Группа&gt;"><path id="_Контур_247" data-name="&lt;Контур&gt;" class="cls-74" d="M51.21 66.71l-2.07-1.18v-1.79l2.07 1.18v1.79z"/><path id="_Контур_248" data-name="&lt;Контур&gt;" class="cls-75" d="M51.09 66.48l-1.84-1.05v-.08l1.84 1.05v.08z"/><path id="_Контур_249" data-name="&lt;Контур&gt;" class="cls-75" d="M51.09 66.26l-1.84-1.05v-.08l1.84 1.04v.09z"/><path id="_Контур_250" data-name="&lt;Контур&gt;" class="cls-75" d="M51.09 66.03l-1.84-1.05v-.08l1.84 1.05v.08z"/><path id="_Контур_251" data-name="&lt;Контур&gt;" class="cls-75" d="M51.09 65.81l-1.84-1.05v-.08l1.84 1.05v.08z"/><path id="_Контур_252" data-name="&lt;Контур&gt;" class="cls-75" d="M51.09 65.39l-1.84-1.05v-.26l1.84 1.05v.26z"/></g><path id="_Контур_253" data-name="&lt;Контур&gt;" class="cls-76" d="M51.34 59.7l-.01 2.61.22-.61.24.86.32-.56.29.9.03-2.57-1.09-.63z"/><path id="_Контур_254" data-name="&lt;Контур&gt;" class="cls-71" d="M59.55 61.22l-.52.3v.7l.52-.3v-.7z"/><path id="_Контур_255" data-name="&lt;Контур&gt;" class="cls-71" d="M60.29 60.79l-.52.31v.7l.52-.31v-.7z"/><path id="_Контур_256" data-name="&lt;Контур&gt;" class="cls-71" d="M61.02 60.37l-.52.31v.7l.52-.31v-.7z"/></g></g></g><g id="_Группа_79" data-name="&lt;Группа&gt;"><path id="_Контур_257" data-name="&lt;Контур&gt;" d="M38.18 90.89c-1.35 2-5.61 3-9.51 2.17s-6-3.12-4.62-5.14 5.61-3 9.51-2.17 5.97 3.12 4.62 5.14z" fill="#d4d4d4"/><path id="_Контур_258" data-name="&lt;Контур&gt;" class="cls-79" d="M41.89 68.19c-.12 0-.21.06-.33 0a2.58 2.58 0 01-.47-.18 2.49 2.49 0 01-.38-.16c-.42-.27-.82-.59-1.24-.88-.6-.4-2-1.72-2-1.72-1.28.35-.48 1.89-.08 2.11a12.22 12.22 0 001.35.56c.28.11.56.23.83.36a.76.76 0 01.25.27c.25.34.76.41 1 .78a1.63 1.63 0 01.12.4s0 .07.05.07H41a.43.43 0 00.24-.3 2 2 0 00-.1-.36c.12 0 .19.12.29.18a3.81 3.81 0 00.92.32.81.81 0 00.44.06.83.83 0 00.27-.12.26.26 0 01.08-.07h.08a.14.14 0 00.1-.11.41.41 0 000-.15.13.13 0 00.12-.1.31.31 0 000-.17.38.38 0 00-.2-.21.54.54 0 01-.18-.1.94.94 0 01-.06-.1.45.45 0 00-.17-.13 2.43 2.43 0 00-.94-.25z"/><path id="_Контур_259" data-name="&lt;Контур&gt;" class="cls-80" d="M39.91 68.45a5.94 5.94 0 00-.47-.37c-.19-.13-.4-.21-.58-.34s-1.2-.65-1-1.2a1.61 1.61 0 00.08-.42v-.36a2.93 2.93 0 01-.32-.41 1.4 1.4 0 01-.24.61c-.12.14-.47.28-.52.46a.89.89 0 00.1.47 1.33 1.33 0 00.42.53 12.22 12.22 0 001.35.56c.18.07.38.13.55.21s.27.26.4.38a2.18 2.18 0 00.37.25c.08 0 .6.51.5.17 0-.14-.19-.22-.3-.29z"/><g id="_Группа_80" data-name="&lt;Группа&gt;"><g id="_Группа_81" data-name="&lt;Группа&gt;"><path id="_Контур_260" data-name="&lt;Контур&gt;" class="cls-81" d="M34 88l-.1.27a1 1 0 00-.1.5 3.71 3.71 0 010 .68l1.3.55.52-.06s.16.15.19.17a2.83 2.83 0 001.35.64 4.32 4.32 0 001.12 0 .8.8 0 00.23 0 1.54 1.54 0 00.65-.5.68.68 0 00-.14-.8 4.36 4.36 0 00-1.87-1l-.43-1.1s-.86.25-.92.27a1.75 1.75 0 01-.75.16 2.18 2.18 0 00-.82 0h-.05a.13.13 0 000 .05c-.07.05-.1.17-.18.17z"/></g><g id="_Группа_82" data-name="&lt;Группа&gt;"><path id="_Контур_261" data-name="&lt;Контур&gt;" class="cls-82" d="M38.94 89.34c.21.2 0 .45-.21.55a.83.83 0 01-.35.06 3.65 3.65 0 01-.81-.08 3.28 3.28 0 01-.63-.16 3.06 3.06 0 01-.52-.21c-.17-.11-.2-.34-.3-.5s-.23-.25-.31-.39-.1-.32 0-.37a3.1 3.1 0 00.94-.85l.39 1s.21.06.24.07a5.6 5.6 0 01.57.23 4 4 0 01.67.38 2.94 2.94 0 01.32.27z"/></g><path id="_Контур_262" data-name="&lt;Контур&gt;" d="M34 87.74s-.35-4.15.32-5.53a4 4 0 00.51-2.56c0-.56-.76-1.13-1.12-1.46a3.26 3.26 0 01-.7-.77 7.76 7.76 0 01-.61-1.18.67.67 0 00-.3-.42.81.81 0 01-.18-.07.35.35 0 01-.1-.14 10.23 10.23 0 01-.93-3.84c0-.26-.1-.54.18-.58s.49 0 .73 0a4.37 4.37 0 001.48-.54 7.4 7.4 0 00.86-.57c.2-.15.47-.41.73-.21a.88.88 0 01.24.38c.66 1.59 1.21 3.21 1.72 4.85.31 1 .61 1.9.89 2.87a3.84 3.84 0 01.28 1.5 28.28 28.28 0 01-.84 3.27 15 15 0 00-.33 2.47v2.33a2 2 0 01-2.83.2z" fill="#7d98ae"/><path id="_Контур_263" data-name="&lt;Контур&gt;" class="cls-84" d="M32.77 77.44c.35.36.66.77 1 1.13a3.58 3.58 0 01.67.85c.19.36.09.54 0 .92l-.3 1.87c-.08.51-.19 1-.24 1.53a22.27 22.27 0 000 4 2.82 2.82 0 00.69.37 6.39 6.39 0 00-.14-1.35 13.26 13.26 0 01.1-3.59 11.89 11.89 0 01.45-1.79c.09-.25.18-.52.24-.78a2.49 2.49 0 00.07-1 2.19 2.19 0 00-.08-.34 1.6 1.6 0 00-.45-.87c-.31-.25-.62-.52-.92-.79a6.92 6.92 0 01-1.52-1.89 6.81 6.81 0 01-.64-2.43c0-.42-.06-.85-.08-1.28 0-.14 0-.82.18-.85a2.24 2.24 0 01-1.1-.15 1.83 1.83 0 000 .66v.79a4.81 4.81 0 00.14.9 9.11 9.11 0 001 2.68 6.1 6.1 0 00.93 1.41z"/><g id="_Группа_83" data-name="&lt;Группа&gt;"><path id="_Контур_264" data-name="&lt;Контур&gt;" class="cls-81" d="M24.28 85.94l-.19.21a.94.94 0 00-.28.43 3.72 3.72 0 01-.21.65l.95.89.5.14s.1.2.11.23a2.83 2.83 0 001 1.09 4.33 4.33 0 001 .44.79.79 0 00.22.06 1.54 1.54 0 00.79-.22.68.68 0 00.17-.79A4.36 4.36 0 0027 87.43v-1.18s-.89-.09-.95-.09a1.76 1.76 0 01-.76-.13 2.18 2.18 0 00-.77-.3h-.1z"/></g><g id="_Группа_84" data-name="&lt;Группа&gt;"><path id="_Контур_265" data-name="&lt;Контур&gt;" class="cls-82" d="M28.35 89c.12.26-.17.42-.4.43a.83.83 0 01-.35-.07 3.65 3.65 0 01-.72-.37 3.28 3.28 0 01-.53-.38 3.05 3.05 0 01-.4-.38c-.12-.17-.06-.39-.09-.58s-.12-.31-.15-.48 0-.34.15-.34a3.1 3.1 0 001.14-.47v1.08s.18.14.2.16a5.54 5.54 0 01.45.42 3.93 3.93 0 01.48.61 2.87 2.87 0 01.22.37z"/></g><path id="_Контур_266" data-name="&lt;Контур&gt;" class="cls-84" d="M31.11 74.07a4.27 4.27 0 010-.62l.13-1.45a.59.59 0 000-.31.55.55 0 00-.19-.19 3.74 3.74 0 00-1.27-.57.68.68 0 00-.61.07.69.69 0 00-.15.25 7.38 7.38 0 00-.44 1.45 10.39 10.39 0 00-.29 1.51 12.07 12.07 0 01-.26 2 11.68 11.68 0 01-1.31 3.5 19.31 19.31 0 00-1 1.71 22.43 22.43 0 00-1.28 4.46 2.46 2.46 0 001.78.66l1-.13c.28-.71 2.17-5.9 2.6-6.3A5.06 5.06 0 0030.8 79a4.88 4.88 0 00.39-1.69 12.84 12.84 0 000-2.6c-.05-.24-.07-.44-.08-.64z"/><path id="_Контур_267" data-name="&lt;Контур&gt;" d="M33.21 70.92L33 71a3.52 3.52 0 01-2.12 0c-.17 0-.37-.06-.47.08a.46.46 0 00-.06.25 8.93 8.93 0 01-.89 3c-.16.39-.21.78-.35 1.16s-.09.89-.23 1.32a5.75 5.75 0 01-.33.75l-.49 1c-.53 1.07-1.28 2-1.74 3.1a10.11 10.11 0 00-.41 1.23c-.23.84-.4 2.35-.54 3.21a2.37 2.37 0 000 .32 1.79 1.79 0 00.84.1l1-.13a6.92 6.92 0 00.55-1.35 13.32 13.32 0 00.57-1.31 6.43 6.43 0 01.95-1.81c.35-.5.71-1 1.07-1.51a9.19 9.19 0 001.52-3.63 3 3 0 01.29-1 2.31 2.31 0 01.88-.69c.12-.06.24-.11.36-.17A2 2 0 0034 74a5 5 0 00.58-1c.1-.35.25-.7.37-1a5.88 5.88 0 01.29-.74c.1-.21.23-.45.11-.65a.53.53 0 00-.37-.21 2.77 2.77 0 00-1.77.52z" fill="#87a4bb"/><path id="_Контур_268" data-name="&lt;Контур&gt;" class="cls-86" d="M34 59.1a1.47 1.47 0 011.47 0c.65.47.75.86.95 2s.37 2.42.37 2.42l1.3 1.94s.25.84-.8 1.58-4.43-7.46-3.29-7.94z"/><path id="_Контур_269" data-name="&lt;Контур&gt;" class="cls-87" d="M36.22 60.08a1.72 1.72 0 00-.72-1 1.47 1.47 0 00-1.47 0c-.19.08-.26.36-.23.77a5.78 5.78 0 001.14-.25 1.52 1.52 0 011.11.31c.05.09.1.09.17.17z"/><path id="_Контур_270" data-name="&lt;Контур&gt;" class="cls-86" d="M35.87 67c-.39 3.35-.4 4-.4 4s-1.73 2.41-6.82.63c0 0 .78-2.86.55-3.42s-1.89-2.77-1.86-4.07-.2-2.39 1.16-3.44a25 25 0 012-1.48 7.66 7.66 0 011.54-.77 2.65 2.65 0 011.57 0 3.49 3.49 0 012 1.24c.39.69.65 3.93.26 7.31z"/><path id="_Контур_271" data-name="&lt;Контур&gt;" class="cls-87" d="M33.63 58.4a2.65 2.65 0 00-1.57 0 7.67 7.67 0 00-1.54.77 25 25 0 00-2 1.48c-1.36 1-1.13 2.14-1.16 3.44s1.63 3.5 1.86 4.07-.55 3.42-.55 3.42a12.82 12.82 0 001.54.43s.08-1.49.08-1.59A12.85 12.85 0 0030 66a5.76 5.76 0 00-1-1.67 2 2 0 01-.35-.94 6.53 6.53 0 01-.15-1.09 1.08 1.08 0 01.07-.47 1.28 1.28 0 01.29-.38 6.75 6.75 0 011.94-1.52 8.54 8.54 0 012.2-.49 13.37 13.37 0 012.36-.05 4 4 0 00-1.73-.99z"/><path id="_Контур_272" data-name="&lt;Контур&gt;" class="cls-80" d="M34.35 60.67a.92.92 0 01-1.45.87c-.31-.23-.65-.51-1-.81a5.13 5.13 0 01-1.39-1.58 7.66 7.66 0 011.54-.77 2.65 2.65 0 011.57 0 11.14 11.14 0 01.71 2.24z"/><path id="_Контур_273" data-name="&lt;Контур&gt;" d="M32.07 60.53a4 4 0 010-1.12c.05-.34.16-.67.19-1v-.07l-.22.05a7.67 7.67 0 00-1.54.77 5.13 5.13 0 001.39 1.58l.29.25a4.25 4.25 0 01-.11-.46z" fill="#c77752"/><path id="_Контур_274" data-name="&lt;Контур&gt;" class="cls-89" d="M30.75 59h-.06c-.1 0-.17.07-.25.12l-.47.29c-.19.11 0 .43.08.55a2.59 2.59 0 00.38.6 4 4 0 001 .78 4.89 4.89 0 00.82.4c.11 0 .74.37.81.28a.93.93 0 000-.18v-.25a3.7 3.7 0 00.07-.45c0-.14-.07-.11-.19-.13a2.48 2.48 0 01-.79-.34 4.84 4.84 0 01-.84-.67 2.4 2.4 0 01-.49-.83.3.3 0 00-.07-.17z"/><path id="_Контур_275" data-name="&lt;Контур&gt;" class="cls-89" d="M35 59.29c0-.18 0-.43-.18-.51a.47.47 0 00-.4.1.28.28 0 00-.14.33 1.57 1.57 0 01-.19 1 .39.39 0 00-.09.24.34.34 0 00.07.13 2.52 2.52 0 01.34.93.64.64 0 00.25-.31l.32-.62a1 1 0 00.09-.21 1 1 0 000-.24 1.55 1.55 0 000-.43 1.19 1.19 0 01-.07-.41z"/><path id="_Контур_276" data-name="&lt;Контур&gt;" d="M30.89 58v1a4.36 4.36 0 001.8 1c1.09.28 1.38 0 1.38 0v-2.24s-2.93-.98-3.18.24z" fill="#deb08a"/><path id="_Контур_277" data-name="&lt;Контур&gt;" class="cls-80" d="M30.89 58v1a4.46 4.46 0 001.26.8 3.87 3.87 0 010-.48c0-.34.05-.69 0-1a3.45 3.45 0 00-.27-.95c-.49.06-.88.22-.99.63z"/><path id="_Контур_278" data-name="&lt;Контур&gt;" d="M34.83 59.55c-.2.66-.86.8-1.7.55a3.23 3.23 0 01-1.12-.7l-.31-.3-.07-.1-.06-.07-.08-.09c-1.9-2.54-.5-2.67.08-3.68a1.09 1.09 0 01.16-.22 1.24 1.24 0 01.16-.16 3.85 3.85 0 012.93-.9 1.49 1.49 0 011 1 3.18 3.18 0 01.19.72.48.48 0 010 .1 22 22 0 01-1.18 3.85z" fill="#f0b88f"/><path id="_Контур_279" data-name="&lt;Контур&gt;" d="M36 55.72a1.31 1.31 0 01-.48.06 5.47 5.47 0 01-1.3-.14c-.18 0-.43-.17-.62-.09a1.12 1.12 0 00-.43.3 1.46 1.46 0 00-.14.21 2.81 2.81 0 00-.38.82c-.06.3-.14.59-.21.88a3.37 3.37 0 01-.28.62 2.2 2.2 0 00-.14 1l-.31-.3-.08-.08-.06-.07-.08-.09c-1.9-2.54-.5-2.67.08-3.68a1.09 1.09 0 01.16-.22 1.24 1.24 0 01.16-.16 2.41 2.41 0 011.37-.52 4 4 0 01.93 0 3.3 3.3 0 011.16.36c.11.07.3.13.48.22a3.18 3.18 0 01.19.72.48.48 0 01-.02.16z" fill="#df9876"/><g id="_Группа_85" data-name="&lt;Группа&gt;"><path id="_Контур_280" data-name="&lt;Контур&gt;" d="M31.27 58.42a2.2 2.2 0 00-.27-1.2 1.37 1.37 0 01-.14-.44.9.9 0 01.18-.6.39.39 0 01.59 0 1.21 1.21 0 01.18.48 6.24 6.24 0 01.1.67l.39.12c.09-.44.23-.87.33-1.3.2-.87 1.09-1.09 2.57-.94a1 1 0 01.8.35 2.11 2.11 0 00-.3-1.51 3.74 3.74 0 00-2-1.48 3 3 0 00-2.45.53 3.33 3.33 0 00-1.17 2.08 4.62 4.62 0 000 1.46 3.1 3.1 0 00.76 1.69 4 4 0 00.33.32s.09-.19.1-.23z" fill="#4f2900"/><path id="_Контур_281" data-name="&lt;Контур&gt;" d="M34.2 53.1a5.15 5.15 0 01.85.4l.22.13.19.11a3.44 3.44 0 00-1.7-1.16 3 3 0 00-2.45.53 3.33 3.33 0 00-1.17 2.08 4.62 4.62 0 000 1.46 3.13 3.13 0 00.55 1.41v-1.32a7.27 7.27 0 01.27-1.89A2.73 2.73 0 0133.33 53a2 2 0 01.87.1z" fill="#422200"/></g></g><g id="_Группа_86" data-name="&lt;Группа&gt;"><g id="_Группа_87" data-name="&lt;Группа&gt;"><g id="_Группа_88" data-name="&lt;Группа&gt;"><g id="_Группа_89" data-name="&lt;Группа&gt;"><path id="_Контур_282" data-name="&lt;Контур&gt;" fill="#d2b371" d="M37.26 73.92l5.43-3.14V65.6l-5.43 3.14v5.18z"/><path id="_Контур_283" data-name="&lt;Контур&gt;" fill="#a17f4c" d="M32.94 66.23l4.32 2.51v5.18l-4.32-2.49v-5.2z"/></g><path id="_Контур_284" data-name="&lt;Контур&gt;" fill="#f5df95" d="M32.94 66.23l4.32 2.51 2.55-1.48.82-.47 2.06-1.19-4.31-2.5-2.06 1.19-.83.48-2.55 1.46z"/></g></g><path id="_Контур_285" data-name="&lt;Контур&gt;" fill="#fee9ab" d="M39.81 67.26l.82-.47-4.31-2.5-.83.48 4.32 2.49z"/><path id="_Контур_286" data-name="&lt;Контур&gt;" fill="#dbc68a" d="M40.63 66.79l.01 1.97-.17-.46-.18.65-.24-.42-.22.67-.02-1.94.82-.47z"/><path id="_Контур_287" data-name="&lt;Контур&gt;" class="cls-100" d="M34.44 67.93l.39.23v.53l-.39-.23v-.53z"/><path id="_Контур_288" data-name="&lt;Контур&gt;" class="cls-100" d="M33.88 67.61l.4.23v.53l-.4-.23v-.53z"/><path id="_Контур_289" data-name="&lt;Контур&gt;" class="cls-100" d="M33.33 67.3l.4.23v.52l-.4-.22v-.53z"/><g id="_Группа_90" data-name="&lt;Группа&gt;"><path id="_Контур_290" data-name="&lt;Контур&gt;" fill="#ebebeb" d="M37.42 63.94l1.22.72.92-.52-1.22-.72-.92.52z"/><path id="_Контур_291" data-name="&lt;Контур&gt;" class="cls-102" d="M37.57 63.94l1.08.63.05-.02-1.09-.64-.04.03z"/><path id="_Контур_292" data-name="&lt;Контур&gt;" class="cls-102" d="M37.69 63.87l1.08.64.04-.03-1.08-.63-.04.02z"/><path id="_Контур_293" data-name="&lt;Контур&gt;" class="cls-102" d="M37.8 63.8l1.08.64.04-.02-1.08-.64-.04.02z"/><path id="_Контур_294" data-name="&lt;Контур&gt;" class="cls-102" d="M37.92 63.74l1.08.64.04-.03-1.08-.64-.04.03z"/><path id="_Контур_295" data-name="&lt;Контур&gt;" class="cls-102" d="M38.13 63.61l1.09.64.13-.07-1.08-.64-.14.07z"/></g><g id="_Группа_91" data-name="&lt;Группа&gt;"><g id="_Группа_92" data-name="&lt;Группа&gt;"><path id="_Составной_контур_9" data-name="&lt;Составной контур&gt;" class="cls-100" d="M36.93 70.3l-.93-.53v-1.23l.91.53zm-.86-.56l.81.47V69.1l-.81-.47z"/></g><path id="_Контур_296" data-name="&lt;Контур&gt;" class="cls-100" d="M36.34 69.22v.59l.27.15v-.58l.13.07-.27-.57-.27.27.14.07z"/></g></g><g id="_Группа_93" data-name="&lt;Группа&gt;"><path id="_Контур_297" data-name="&lt;Контур&gt;" class="cls-79" d="M36.81 70l-.4.17h-.1a3.65 3.65 0 01-.67.29 1.85 1.85 0 01-.72 0c-1-.2-2.78-1-3.88-1.06-.37-.1-.64.29-.73.59a2.3 2.3 0 00-.08.56 1.49 1.49 0 00.29.63c.12.21.26.22.48.26l.61.09a12.38 12.38 0 001.68.09 8.49 8.49 0 012.8.12 1.33 1.33 0 00.64.12 2.84 2.84 0 00.46-.07 5.49 5.49 0 00.8-.09c.27 0 .24.08.56-.45s0-.5 0-.5v-.19a.14.14 0 00-.15-.18l-1.15-.07-.14-.09c.21-.14.63-.47.57-.63s-.6.3-.87.41z"/><path id="_Контур_298" data-name="&lt;Контур&gt;" class="cls-80" d="M30.8 71.2a.28.28 0 00.09.23 1.53 1.53 0 00.49.08 12.11 12.11 0 001.92.12 8.49 8.49 0 012.8.12 2 2 0 00.5.12 2.73 2.73 0 00-1-.5 17.17 17.17 0 00-2.56-.17 8.32 8.32 0 01-1.45-.2 3.74 3.74 0 01-.45-.13c-.09 0-.14-.09-.23 0a.49.49 0 00-.11.33z"/><path id="_Контур_299" data-name="&lt;Контур&gt;" d="M29.22 61.32a2.27 2.27 0 01.72.9 10.89 10.89 0 011 3.34c.14 1.22.14 3.18 1.41 3.86a.48.48 0 01.13.08.29.29 0 01.06.12 1.58 1.58 0 010 .57 3.56 3.56 0 01-.31 1.38.57.57 0 01-.16.2.67.67 0 01-.4.09H31a.75.75 0 01-.5-.23A4.73 4.73 0 0129.29 69a17.77 17.77 0 00-.88-3c-.1-.25-.21-.51-.33-.75a4.57 4.57 0 01-.64-2.51 2.72 2.72 0 01.76-1.4.93.93 0 01.36-.22.78.78 0 01.66.2z" fill="#365aeb"/></g></g></g></g></g></g></svg>