<svg xmlns="http://www.w3.org/2000/svg" viewBox="0 0 110 87.01"><defs><style>.cls-2{fill:#d4d4d4}.cls-20,.cls-3{fill:#b37a00}.cls-10,.cls-11,.cls-12,.cls-16,.cls-3,.cls-4,.cls-5,.cls-6,.cls-7,.cls-8,.cls-9{fill-rule:evenodd}.cls-4{fill:#28272c}.cls-5{fill:#18171d}.cls-7{fill:#2e2d30}.cls-8{fill:#1b1b1f}.cls-9{fill:#3b3b3b}.cls-10{fill:#d49332}.cls-11{fill:#a76022}.cls-12{fill:#e0a100}.cls-13{fill:#f1c33a}.cls-14{fill:#838383}.cls-16{fill:#cecece}.cls-19{fill:#ffe057}.cls-21{fill:#976305}.cls-22{fill:#1d1d1d}.cls-23{fill:#2f2f2f}.cls-24{fill:#393939}.cls-25{fill:#0e0e0e}.cls-26{fill:#28292c}.cls-30{fill:#1e1e1e}.cls-31{fill:#090909}.cls-39{fill:#a1886f;mix-blend-mode:multiply}.cls-40{fill:#ffc534}.cls-41{fill:#fae35a}.cls-42{fill:#272727}.cls-43{fill:#636363}.cls-44{fill:#4a4a4a}.cls-45{fill:#bfbfbf}.cls-46{fill:#e2e2e2}.cls-47{fill:#d6b163}.cls-48{fill:#7d5129}.cls-49{fill:#b78841}.cls-50{fill:#91693a}.cls-51{fill:#613f1f}.cls-52{fill:#ad7e45}.cls-53{fill:#996232}</style></defs><g style="isolation:isolate"><g id="Слой_2" data-name="Слой 2"><g id="Layer_1" data-name="Layer 1"><g id="_Группа_" data-name="&lt;Группа&gt;"><path id="_Контур_" data-name="&lt;Контур&gt;" class="cls-2" d="M110 72.19L73.97 51.34 49.89 65.79l36.18 19.89L110 72.19z"/><path id="_Контур_2" data-name="&lt;Контур&gt;" class="cls-2" d="M66.39 49.94L34.58 31.32 10.51 45.77l31.95 17.67 23.93-13.5z"/><path id="_Контур_3" data-name="&lt;Контур&gt;" class="cls-2" d="M77.98 54.86L61.37 37.12l-31.7 18.92 22.54 13.71 25.77-14.89z"/><path id="_Контур_4" data-name="&lt;Контур&gt;" class="cls-2" d="M.55 34.12L14 25.26a5.45 5.45 0 015.49.05l23.92 12.35-23.73 11L.38 35.87a1.08 1.08 0 01.17-1.75z"/><g id="_Группа_2" data-name="&lt;Группа&gt;"><path id="_Контур_5" data-name="&lt;Контур&gt;" class="cls-2" d="M98.64 85.32L95.61 87 66.14 70.03l3.03-1.69 29.47 16.98z"/><path id="_Контур_6" data-name="&lt;Контур&gt;" class="cls-2" d="M107.74 79.97l-3.03 1.68-29.46-16.98 3.03-1.68 29.46 16.98z"/></g><g id="_Группа_3" data-name="&lt;Группа&gt;"><g id="_Группа_4" data-name="&lt;Группа&gt;"><path id="_Контур_7" data-name="&lt;Контур&gt;" class="cls-3" d="M31.24 44.85v7.27l7.22 5.44s-.18-10.74-7.22-12.71z"/><g id="_Группа_5" data-name="&lt;Группа&gt;"><g id="_Группа_6" data-name="&lt;Группа&gt;"><g id="_Группа_7" data-name="&lt;Группа&gt;"><g id="_Группа_8" data-name="&lt;Группа&gt;"><path id="_Составной_контур_" data-name="&lt;Составной контур&gt;" class="cls-4" d="M36.52 45.73c-2.42-1.32-4.52-.33-4.67 2.2a8.24 8.24 0 004.1 7c2.42 1.32 4.52.33 4.67-2.2a8.24 8.24 0 00-4.1-7z"/><path id="_Контур_8" data-name="&lt;Контур&gt;" class="cls-4" d="M29.21 47.93l3.98-2.46-1.25 2.45-2.73.01z"/><path id="_Контур_9" data-name="&lt;Контур&gt;" class="cls-4" d="M35.46 57.55l4-2.48-3.38-1.58-.41 2.87-.21 1.19z"/><path id="_Составной_контур_2" data-name="&lt;Составной контур&gt;" class="cls-5" d="M32.54 48.2c-2.42-1.32-4.52-.33-4.67 2.2a8.24 8.24 0 004.1 7c2.42 1.32 4.52.33 4.67-2.2a8.24 8.24 0 00-4.1-7z"/><path id="_Составной_контур_3" data-name="&lt;Составной контур&gt;" class="cls-6" d="M32.46 49.49c-1.74-.95-3.25-.23-3.37 1.59a5.94 5.94 0 003 5c1.74.95 3.25.23 3.37-1.59a5.94 5.94 0 00-3-5z"/><path id="_Составной_контур_4" data-name="&lt;Составной контур&gt;" class="cls-7" d="M32.54 48.2c-2.42-1.32-4.52-.33-4.67 2.2a8.24 8.24 0 004.1 7c2.42 1.32 4.52.33 4.67-2.2a8.24 8.24 0 00-4.1-7z"/><path id="_Составной_контур_5" data-name="&lt;Составной контур&gt;" class="cls-8" d="M32.51 48.65c-2.18-1.19-4.08-.29-4.22 2A7.44 7.44 0 0032 56.94c2.18 1.19 4.08.29 4.22-2a7.44 7.44 0 00-3.71-6.29z"/></g></g><path id="_Составной_контур_6" data-name="&lt;Составной контур&gt;" class="cls-9" d="M32.44 49.75c-1.6-.87-3-.22-3.1 1.46a5.47 5.47 0 002.72 4.64c1.6.87 3 .22 3.1-1.46a5.47 5.47 0 00-2.72-4.64z"/><path id="_Составной_контур_7" data-name="&lt;Составной контур&gt;" class="cls-10" d="M32.55 50c-1.42-.77-2.65-.19-2.74 1.29a4.83 4.83 0 002.4 4.09c1.42.77 2.65.19 2.74-1.29a4.83 4.83 0 00-2.4-4.09z"/><path id="_Составной_контур_8" data-name="&lt;Составной контур&gt;" class="cls-11" d="M32.55 50c-1.37-.75-2.56-.19-2.65 1.25a4.68 4.68 0 002.33 4c1.37.75 2.56.19 2.65-1.25a4.68 4.68 0 00-2.33-4z"/><path id="_Составной_контур_9" data-name="&lt;Составной контур&gt;" class="cls-10" d="M32.54 50.21c-1.29-.7-2.41-.17-2.49 1.17a4.39 4.39 0 002.18 3.72c1.29.7 2.41.17 2.49-1.17a4.39 4.39 0 00-2.18-3.72z"/><path id="_Составной_контур_10" data-name="&lt;Составной контур&gt;" class="cls-12" d="M34.56 53.44a4.11 4.11 0 00-2-3.09h-.08c-1.18-.6-2.19-.1-2.26 1.13A4.16 4.16 0 0032.23 55c1.22.65 2.27.16 2.35-1.1a1.74 1.74 0 00-.02-.46z"/><path id="_Составной_контур_11" data-name="&lt;Составной контур&gt;" class="cls-11" d="M32.52 50.35h-.08c-.45 0-.77.36-.81 1a2.85 2.85 0 001.44 2.43c.66.37 1.25.23 1.48-.27a4.11 4.11 0 00-2.03-3.16z"/></g></g><g id="_Группа_9" data-name="&lt;Группа&gt;"><path id="_Контур_10" data-name="&lt;Контур&gt;" class="cls-13" d="M59.49 19.91l-7.5-4.33v11.95l7.5 4.34V19.91z"/><path id="_Контур_11" data-name="&lt;Контур&gt;" class="cls-14" d="M56.34 18.01L35.36 30.6l3.63 2.18 20.5-12.87-3.15-1.9z"/><path id="_Контур_12" data-name="&lt;Контур&gt;" class="cls-13" d="M76.19 41.52l1.29.75v-.75h-1.29z"/></g><g id="_Группа_10" data-name="&lt;Группа&gt;"><g id="_Группа_11" data-name="&lt;Группа&gt;"><g id="_Группа_12" data-name="&lt;Группа&gt;"><g id="_Группа_13" data-name="&lt;Группа&gt;"><path id="_Составной_контур_12" data-name="&lt;Составной контур&gt;" class="cls-4" d="M81.17 44.07c-2.42-1.32-4.52-.33-4.67 2.2a8.24 8.24 0 004.1 7c2.42 1.32 4.52.33 4.67-2.2a8.24 8.24 0 00-4.1-7z"/><path id="_Контур_13" data-name="&lt;Контур&gt;" fill="#010007" fill-rule="evenodd" d="M73.87 46.27l3.98-2.47-1.26 2.46-2.72.01z"/><path id="_Контур_14" data-name="&lt;Контур&gt;" class="cls-4" d="M80.11 55.89l4-2.49-3.37-1.57-.42 2.87-.21 1.19z"/><path id="_Составной_контур_13" data-name="&lt;Составной контур&gt;" class="cls-5" d="M77.19 46.54c-2.42-1.32-4.52-.33-4.67 2.2a8.24 8.24 0 004.1 7C79 57 81.13 56 81.29 53.52a8.24 8.24 0 00-4.1-6.98z"/><path id="_Составной_контур_14" data-name="&lt;Составной контур&gt;" class="cls-6" d="M77.11 47.82c-1.74-.95-3.25-.23-3.37 1.59a5.94 5.94 0 003 5c1.74.95 3.25.23 3.37-1.59a5.94 5.94 0 00-3-5z"/><path id="_Составной_контур_15" data-name="&lt;Составной контур&gt;" class="cls-7" d="M77.19 46.54c-2.42-1.32-4.52-.33-4.67 2.2a8.24 8.24 0 004.1 7C79 57 81.13 56 81.29 53.52a8.24 8.24 0 00-4.1-6.98z"/><path id="_Составной_контур_16" data-name="&lt;Составной контур&gt;" class="cls-8" d="M77.16 47c-2.18-1.19-4.08-.29-4.22 2a7.44 7.44 0 003.7 6.31c2.18 1.19 4.08.29 4.22-2a7.44 7.44 0 00-3.7-6.31z"/></g></g><path id="_Составной_контур_17" data-name="&lt;Составной контур&gt;" class="cls-9" d="M77.09 48.08c-1.6-.87-3-.22-3.1 1.46a5.47 5.47 0 002.72 4.64c1.6.87 3 .22 3.1-1.46a5.47 5.47 0 00-2.72-4.64z"/><path id="_Составной_контур_18" data-name="&lt;Составной контур&gt;" class="cls-16" d="M77.21 48.3c-1.42-.77-2.65-.19-2.74 1.29a4.83 4.83 0 002.4 4.09c1.42.77 2.65.19 2.74-1.29a4.83 4.83 0 00-2.4-4.09z"/><path id="_Составной_контур_19" data-name="&lt;Составной контур&gt;" d="M77.2 48.38c-1.37-.75-2.56-.19-2.65 1.25a4.68 4.68 0 002.33 4c1.37.75 2.56.18 2.65-1.25a4.68 4.68 0 00-2.33-4z" fill="#a19e9c" fill-rule="evenodd"/><path id="_Составной_контур_20" data-name="&lt;Составной контур&gt;" class="cls-16" d="M77.19 48.54c-1.29-.7-2.41-.17-2.49 1.17a4.39 4.39 0 002.18 3.72c1.29.7 2.41.17 2.49-1.17a4.39 4.39 0 00-2.18-3.72z"/><path id="_Составной_контур_21" data-name="&lt;Составной контур&gt;" d="M79.21 51.77a4.11 4.11 0 00-2-3.09h-.08c-1.18-.6-2.19-.1-2.26 1.13a4.16 4.16 0 002.06 3.51c1.22.65 2.27.16 2.35-1.1a1.75 1.75 0 00-.07-.45z" fill="#7c7774" fill-rule="evenodd"/><path id="_Составной_контур_22" data-name="&lt;Составной контур&gt;" class="cls-16" d="M77.18 48.68h-.08c-.45 0-.77.36-.81 1A2.85 2.85 0 0077.73 52c.66.37 1.25.23 1.48-.27a4.11 4.11 0 00-2.03-3.05z"/></g></g><path id="_Контур_15" data-name="&lt;Контур&gt;" class="cls-19" d="M80 40.54l-3.38 2.25-26.41-7.15v-7.15a2.78 2.78 0 01.7-1.85 2.84 2.84 0 013.44-.87z"/><path id="_Контур_16" data-name="&lt;Контур&gt;" class="cls-20" d="M61.57 58.64l-2.83 1.63 2.83 3.18v-4.81z"/><path id="_Контур_17" data-name="&lt;Контур&gt;" class="cls-3" d="M46.95 65.34l9.24-4.67-2.31-5.08s-3.27-2.22-5.35-1.16c-2.25 1.15-3.25 5.76-1.58 10.91z"/><path id="_Контур_18" data-name="&lt;Контур&gt;" class="cls-21" d="M76.8 46.71l-15.23 8.88v7.86l15.23-8.89v-7.85z"/><path id="_Контур_19" data-name="&lt;Контур&gt;" class="cls-22" d="M35.36 30.6l-3.91 9.78L56.5 54.86V42.89L35.36 30.6z"/><g id="_Группа_14" data-name="&lt;Группа&gt;"><path id="_Составной_контур_23" data-name="&lt;Составной контур&gt;" class="cls-23" d="M72.92 6.43L62.73.54a4.06 4.06 0 00-4.35.2l-.16.1A4 4 0 0056.68 4v26.87L76 42.23c.26-21.76-3.08-35.8-3.08-35.8zM76 37.4l-15-8.84V3.64a.76.76 0 01.76-.76.67.67 0 01.36.12l9.48 5.49c1.22 2.02 5.79 10.93 4.4 28.91z"/><path id="_Контур_20" data-name="&lt;Контур&gt;" class="cls-24" d="M57.4 3.26a4 4 0 01.8-2.39A4 4 0 0056.68 4v26.87L76 42.23c0-.39 0-.76.08-1.15L57.4 30.1z"/><path id="_Контур_21" data-name="&lt;Контур&gt;" class="cls-24" d="M61.69 2.89a.75.75 0 00-.72.75v24.92L76 37.4c0-.4 0-.77.07-1.16l-14.38-8.45z"/><path id="_Контур_22" data-name="&lt;Контур&gt;" class="cls-25" d="M77.09 39.59L56.93 51.34 38.99 41.16l20.16-11.75 17.94 10.18z"/><path id="_Контур_23" data-name="&lt;Контур&gt;" class="cls-22" d="M59.15 17.43L38.99 29.18v11.98l20.16-11.75V17.43z"/><path id="_Контур_24" data-name="&lt;Контур&gt;" class="cls-14" d="M40.13 30.32l19.02-11.09v-1.8L38.99 29.18v11.98l1.14-.67V30.32z"/><g id="_Группа_15" data-name="&lt;Группа&gt;"><path id="_Контур_25" data-name="&lt;Контур&gt;" class="cls-26" d="M65.87 36.55v1a1.14 1.14 0 01-.56 1l-6.81 3.9a2.76 2.76 0 01-2.72 0l-8.65-5V24.72a3 3 0 011.49-2.57l7-4.06c.61-.37 2.27.63 2.27 1.35L57 31.82l4 2.34 3.61 2.09z"/><path id="_Контур_26" data-name="&lt;Контур&gt;" class="cls-26" d="M65.87 36.55v1a1.14 1.14 0 01-.56 1l-6.81 3.9a2.76 2.76 0 01-2.72 0l-8.65-5v-1l.93.53 16.57-.73z"/><path id="_Контур_27" data-name="&lt;Контур&gt;" d="M51.63 28.42l6.11-7.53.1-1.46c0-.71-1.66-1.71-2.27-1.35l-7 4.06a3 3 0 00-1.48 2.57l1.32.73z" fill="#848484"/><path id="_Контур_28" data-name="&lt;Контур&gt;" d="M56.5 18.9l-7 4.06a3 3 0 00-1.48 2.57V37l9.83-5.67V19.69a.92.92 0 00-1.35-.79z" fill="#414245"/><path id="_Контур_29" data-name="&lt;Контур&gt;" d="M48.06 37l7.71 4.45a2.74 2.74 0 002.72 0l6.81-3.9a1.12 1.12 0 000-2l-7.41-4.25z" fill="#646566"/></g><path id="_Контур_30" data-name="&lt;Контур&gt;" class="cls-30" d="M62.73 2.05l-6 3.51L45 12.34h-4l17.19-10 .16-.1c1.07-.74 3-2.22 4.35-1.71z"/><path id="_Составной_контур_24" data-name="&lt;Составной контур&gt;" class="cls-23" d="M74.64 14.13c-.14-.81-.26-1.55-.39-2.23a37 37 0 00-1.32-5.47L55.24 16.71s3.58 13.82 3.9 41.94l4.48-2.71 2.71-1.64 5.59-3.38 2.71-1.64 2-1.19c.11-16.77-.97-27.58-1.99-33.96zm0 24.48a11.46 11.46 0 01-2.71 2.24 21.71 21.71 0 01-2 1.07 14.05 14.05 0 01-3.63 1.23 6.18 6.18 0 01-2.71 0c-.66-.17-1.07-.52-1.15-1C60.28 30 59.68 23 59 18.93a2.44 2.44 0 01.91-2.7l1.33-.78 9.17-5.33A1.46 1.46 0 0171 9.9a1.56 1.56 0 011.88 1.1q.1.74.2 1.59c.37 2.91.86 7 1.55 13.69.3 2.84.64 6.15 1 10.06a3.43 3.43 0 01-.99 2.27z"/><g id="_Группа_16" data-name="&lt;Группа&gt;"><path id="_Контур_31" data-name="&lt;Контур&gt;" class="cls-24" d="M71.74 10.34c.62 4.11 1.19 11.59 2.78 25.33.09.74-.69 3.17-5.7 5.58a10.79 10.79 0 01-6.23 1.28c.57 1 3.62 1.18 7.37-.62 5-2.41 5.75-4.84 5.7-5.58A242.19 242.19 0 0072.89 11a1.52 1.52 0 00-1.4-1.1 1 1 0 01.25.44z"/><g id="_Группа_17" data-name="&lt;Группа&gt;"><path id="_Контур_32" data-name="&lt;Контур&gt;" class="cls-24" d="M60.88 1.62l8.36 4.79 1.83-1.06L62.73.54a4.06 4.06 0 00-4.35.2l-.16.1L41 10.83h4l11.68-6.78z"/><path id="_Контур_33" data-name="&lt;Контур&gt;" class="cls-24" d="M71.07 5.35l-15.84 9.24-8.32-4.83-1.86 1.07 8.36 4.82 1.83 1.06L72.93 6.42l-1.86-1.07z"/></g><path id="_Контур_34" data-name="&lt;Контур&gt;" class="cls-14" d="M59.72 53.34a18.25 18.25 0 01-.41 3.87L58 58c.23-1.85.43-3.61.58-5.31 2.49-27.56-5.26-37-5.26-37h.1l1.83 1.05s0 .07.08.13a2.66 2.66 0 01.26.4c1.41 2.31 2.3 17.4 4.13 36.07z"/></g><path id="_Составной_контур_25" data-name="&lt;Составной контур&gt;" class="cls-31" d="M55.6 17.25a2.66 2.66 0 00-.26-.4c0-.07-.07-.1-.08-.13l-1.83-1.05-8.36-4.81A4 4 0 0039 14.34v26.82l19.57 11.5 1.15.68.35.2c.32-14.39-2.9-33.81-4.47-36.29zm2.7 30.43l-15-8.82V13.92a.76.76 0 01.74-.76.72.72 0 01.36.12l9.53 5.49c1.21 2.03 2.62 10.23 4.38 28.91z"/><g id="_Группа_18" data-name="&lt;Группа&gt;"><path id="_Контур_35" data-name="&lt;Контур&gt;" class="cls-24" d="M44.4 13.28a.71.71 0 00-.36-.1.75.75 0 00-.75.75v24.93l15 8.83c0-.59.07-1.14.1-1.71L44.91 38V13.57z"/></g></g><g id="_Группа_19" data-name="&lt;Группа&gt;"><g id="_Группа_20" data-name="&lt;Группа&gt;"><g id="_Группа_21" data-name="&lt;Группа&gt;"><g id="_Группа_22" data-name="&lt;Группа&gt;"><path id="_Составной_контур_26" data-name="&lt;Составной контур&gt;" class="cls-4" d="M56.77 58.1c-2.42-1.32-4.52-.33-4.67 2.2a8.24 8.24 0 004.1 7c2.42 1.32 4.52.33 4.67-2.2a8.24 8.24 0 00-4.1-7z"/><path id="_Контур_36" data-name="&lt;Контур&gt;" class="cls-4" d="M49.46 60.29l3.98-2.46-1.25 2.45-2.73.01z"/><path id="_Контур_37" data-name="&lt;Контур&gt;" class="cls-4" d="M55.7 69.92l4.01-2.49-3.38-1.57-.41 2.86-.22 1.2z"/><path id="_Составной_контур_27" data-name="&lt;Составной контур&gt;" class="cls-5" d="M52.78 60.56c-2.42-1.32-4.52-.33-4.67 2.2a8.24 8.24 0 004.1 7c2.42 1.32 4.52.33 4.67-2.2a8.24 8.24 0 00-4.1-7z"/><path id="_Составной_контур_28" data-name="&lt;Составной контур&gt;" class="cls-6" d="M52.7 61.85c-1.74-.95-3.25-.23-3.37 1.59a5.94 5.94 0 003 5c1.74.95 3.25.23 3.37-1.59a5.94 5.94 0 00-3-5z"/><path id="_Составной_контур_29" data-name="&lt;Составной контур&gt;" class="cls-7" d="M52.78 60.56c-2.42-1.32-4.52-.33-4.67 2.2a8.24 8.24 0 004.1 7c2.42 1.32 4.52.33 4.67-2.2a8.24 8.24 0 00-4.1-7z"/><path id="_Составной_контур_30" data-name="&lt;Составной контур&gt;" class="cls-8" d="M52.76 61c-2.18-1.19-4.08-.29-4.22 2a7.44 7.44 0 003.7 6.31c2.18 1.19 4.08.29 4.22-2a7.44 7.44 0 00-3.7-6.31z"/></g></g><path id="_Составной_контур_31" data-name="&lt;Составной контур&gt;" class="cls-9" d="M52.69 62.11c-1.6-.87-3-.22-3.1 1.46a5.47 5.47 0 002.72 4.64c1.6.87 3 .22 3.1-1.46a5.47 5.47 0 00-2.72-4.64z"/><path id="_Составной_контур_32" data-name="&lt;Составной контур&gt;" class="cls-10" d="M52.8 62.32c-1.42-.77-2.65-.19-2.74 1.29a4.83 4.83 0 002.4 4.09c1.42.77 2.65.19 2.74-1.29a4.83 4.83 0 00-2.4-4.09z"/><path id="_Составной_контур_33" data-name="&lt;Составной контур&gt;" class="cls-11" d="M52.79 62.41c-1.37-.75-2.56-.19-2.65 1.25a4.68 4.68 0 002.33 4c1.37.75 2.56.19 2.65-1.25a4.68 4.68 0 00-2.33-4z"/><path id="_Составной_контур_34" data-name="&lt;Составной контур&gt;" class="cls-10" d="M52.78 62.57c-1.29-.7-2.41-.17-2.49 1.17a4.39 4.39 0 002.18 3.72c1.29.7 2.41.17 2.49-1.17a4.39 4.39 0 00-2.18-3.72z"/><path id="_Составной_контур_35" data-name="&lt;Составной контур&gt;" class="cls-12" d="M54.81 65.8a4.11 4.11 0 00-2-3.09h-.08c-1.18-.6-2.15-.09-2.26 1.13a4 4 0 002.06 3.51c1.2.69 2.27.16 2.35-1.1a1.75 1.75 0 00-.07-.45z"/><path id="_Составной_контур_36" data-name="&lt;Составной контур&gt;" class="cls-11" d="M52.77 62.71h-.08c-.45 0-.77.36-.81 1a2.85 2.85 0 001.44 2.43c.66.37 1.25.23 1.48-.27a4.11 4.11 0 00-2.03-3.16z"/></g></g><path id="_Контур_38" data-name="&lt;Контур&gt;" class="cls-21" d="M56.93 54.26l-.4 4.09-8-3.91c-.32.32-1.11 5-1.11 5l-.47 5.87-5.16-3-3.07-1.78-1.28-.74v-5.63l-6-8.64-.79-.41.77-5.59z"/><path id="_Контур_39" data-name="&lt;Контур&gt;" fill="#ffb700" d="M56.97 61.27l17.82-10.64 5.36-9.91-23.22 13.54.04 7.01z"/><g id="_Группа_23" data-name="&lt;Группа&gt;"><path id="_Контур_40" data-name="&lt;Контур&gt;" class="cls-31" d="M33.42 41.63l.7.4 1.86 5.59-.69-.39-1.87-5.6z"/><path id="_Контур_41" data-name="&lt;Контур&gt;" class="cls-31" d="M34.88 42.44l.69.39 1.87 5.6-.7-.39-1.86-5.6z"/><path id="_Контур_42" data-name="&lt;Контур&gt;" class="cls-31" d="M36.34 43.25l.69.39 1.86 5.6-.69-.4-1.86-5.59z"/><path id="_Контур_43" data-name="&lt;Контур&gt;" class="cls-31" d="M37.79 44.06l.69.39 1.87 5.6-.7-.4-1.86-5.59z"/></g><path id="_Контур_44" data-name="&lt;Контур&gt;" class="cls-14" d="M74.06 11.99l.89.52-2.7 1.62-.9-.52 2.71-1.62z"/><path id="_Контур_45" data-name="&lt;Контур&gt;" class="cls-20" d="M42.31 24.3l-2.4-2.88V17.8l2.4 2.89v3.61z"/><path id="_Контур_46" data-name="&lt;Контур&gt;" class="cls-20" d="M42.31 31.43l-2.4-2.89v-3.61l2.4 2.88v3.62z"/><path id="_Контур_47" data-name="&lt;Контур&gt;" class="cls-20" d="M42.31 38.55l-2.4-2.89v-3.61l2.4 2.88v3.62z"/><g id="_Группа_24" data-name="&lt;Группа&gt;"><g id="_Группа_25" data-name="&lt;Группа&gt;"><path id="_Контур_48" data-name="&lt;Контур&gt;" class="cls-24" d="M52.69 13.23l.56.33L67.1 5.29l-.53-.34-13.88 8.28z"/><path id="_Контур_49" data-name="&lt;Контур&gt;" class="cls-30" d="M53.25 13.56l.66.27 13.19-7.9v-.64l-13.85 8.27z"/></g><g id="_Группа_26" data-name="&lt;Группа&gt;"><path id="_Контур_50" data-name="&lt;Контур&gt;" class="cls-24" d="M49.07 11.12l.56.33 13.85-8.27-.53-.35-13.88 8.29z"/><path id="_Контур_51" data-name="&lt;Контур&gt;" class="cls-30" d="M49.63 11.45l.66.26 13.19-7.89v-.64l-13.85 8.27z"/></g></g><g id="_Группа_27" data-name="&lt;Группа&gt;"><path id="_Контур_52" data-name="&lt;Контур&gt;" class="cls-22" d="M53 14.57v-.8h.51l.16-.11a3.5 3.5 0 013.17 0l.18.13h.47v.8a1.15 1.15 0 01-.67.91 3.5 3.5 0 01-3.17 0 1.08 1.08 0 01-.65-.93z"/><path id="_Контур_53" data-name="&lt;Контур&gt;" d="M53 13.77l.38-3.89h3.73l.38 3.84a1.15 1.15 0 01-.67.91 3.5 3.5 0 01-3.17 0 1.08 1.08 0 01-.65-.86z" fill="#c97735"/><path id="_Контур_54" data-name="&lt;Контур&gt;" d="M56.58 13a2.94 2.94 0 00-2.66 0c-.74.43-.75 1.12 0 1.54a2.94 2.94 0 002.66 0c.72-.43.73-1.12 0-1.54z" fill="#bc5705"/><path id="_Контур_55" data-name="&lt;Контур&gt;" d="M54.28 11c.47-.82 1.24-.81 1.73 0a3.3 3.3 0 010 3c-.47.82-1.24.81-1.73 0a3.3 3.3 0 010-3z" fill="#bd4d00"/><path id="_Контур_56" data-name="&lt;Контур&gt;" d="M56.58 14.44a3.08 3.08 0 01-1.21.37l-.07-.06a2.25 2.25 0 01-.21-.3 4.36 4.36 0 010-4 1.85 1.85 0 01.53-.6h1.2l.08.07.34 3.5a1.15 1.15 0 01-.66 1.02z" fill="#e07705"/><path id="_Контур_57" data-name="&lt;Контур&gt;" d="M55.41 11.38c.34-.6.91-.59 1.26 0a2.4 2.4 0 010 2.18c-.34.6-.91.59-1.26 0a2.4 2.4 0 010-2.18z" fill="#e09c05"/><path id="_Контур_58" data-name="&lt;Контур&gt;" d="M56.57 9.12a2.91 2.91 0 00-2.63 0c-.73.42-.74 1.11 0 1.52a2.91 2.91 0 002.63 0c.71-.43.72-1.11 0-1.52z" fill="#eda94d"/></g><g id="_Группа_28" data-name="&lt;Группа&gt;"><path id="_Контур_59" data-name="&lt;Контур&gt;" class="cls-39" d="M66.34 43.14v16.55l-2.71 1.62V43.13a6.18 6.18 0 002.71.01z"/><path id="_Контур_60" data-name="&lt;Контур&gt;" class="cls-39" d="M74.64 11.66v14.62c-.7-6.74-1.18-10.78-1.55-13.69l1.16-.7z"/><path id="_Контур_61" data-name="&lt;Контур&gt;" class="cls-39" d="M74.64 38.61v16.2l-2.71 1.62V40.85a11.46 11.46 0 002.71-2.24z"/><path id="_Контур_62" data-name="&lt;Контур&gt;" class="cls-40" d="M68.31 16.55l-2.71 1.62v43.15l2.71-1.63V16.55z"/><path id="_Контур_63" data-name="&lt;Контур&gt;" class="cls-40" d="M76.61 11.67l-2.71 1.62v43.15l2.71-1.63V11.67z"/><path id="_Контур_64" data-name="&lt;Контур&gt;" class="cls-20" d="M73.01 12.77l.89.52v43.15l-.89-.53V12.77z"/><path id="_Контур_65" data-name="&lt;Контур&gt;" class="cls-20" d="M64.71 17.64l.89.53v43.15l-.89-.53V17.64z"/><g id="_Группа_29" data-name="&lt;Группа&gt;"><path id="_Контур_66" data-name="&lt;Контур&gt;" class="cls-41" d="M64.29 17.45l1.45.92 11.04-6.6-1.45-.92-11.04 6.6z"/><path id="_Контур_67" data-name="&lt;Контур&gt;" class="cls-40" d="M65.74 18.37v2.91l11.04-6.6v-2.91l-11.04 6.6z"/><path id="_Контур_68" data-name="&lt;Контур&gt;" class="cls-20" d="M64.29 17.45v2.9l1.45.93v-2.91l-1.45-.92z"/></g><g id="_Группа_30" data-name="&lt;Группа&gt;"><path id="_Контур_69" data-name="&lt;Контур&gt;" class="cls-42" d="M68.66 53.95l-2.97 1.78v12.19l2.97-1.78V53.95z"/><path id="_Контур_70" data-name="&lt;Контур&gt;" class="cls-42" d="M77.77 48.6l-2.98 1.78v12.18l2.98-1.78V48.6z"/><path id="_Контур_71" data-name="&lt;Контур&gt;" class="cls-25" d="M73.81 49.8l.98.58v12.18l-.98-.57V49.8z"/><path id="_Контур_72" data-name="&lt;Контур&gt;" class="cls-25" d="M64.71 55.16l.98.57v12.19l-.98-.58V55.16z"/><path id="_Контур_73" data-name="&lt;Контур&gt;" class="cls-14" d="M67.68 53.38l.98.57-2.97 1.78-.98-.57 2.97-1.78z"/><path id="_Контур_74" data-name="&lt;Контур&gt;" class="cls-14" d="M76.78 48.02l.99.58-2.98 1.78-.98-.58 2.97-1.78z"/><g id="_Группа_31" data-name="&lt;Группа&gt;"><path id="_Контур_75" data-name="&lt;Контур&gt;" class="cls-43" d="M98.12 81.98l-3.03 1.68-29.46-16.98L68.66 65l29.46 16.98z"/><path id="_Контур_76" data-name="&lt;Контур&gt;" class="cls-44" d="M95.1 84.8l-.01-1.14-29.46-16.98.01 1.14L95.1 84.8z"/><path id="_Контур_77" data-name="&lt;Контур&gt;" class="cls-45" d="M98.13 83.12l-.01-1.14-3.03 1.68.01 1.14 3.03-1.68z"/><path id="_Контур_78" data-name="&lt;Контур&gt;" class="cls-45" d="M107.24 77.76l-.01-1.14-3.03 1.69.01 1.13 3.03-1.68z"/></g><path id="_Контур_79" data-name="&lt;Контур&gt;" class="cls-43" d="M107.23 76.62l-3.03 1.69-29.46-16.98 3.03-1.68 29.46 16.97z"/><path id="_Контур_80" data-name="&lt;Контур&gt;" class="cls-44" d="M104.21 79.44l-.01-1.13-29.46-16.98.01 1.14 29.46 16.97z"/></g><g id="_Группа_32" data-name="&lt;Группа&gt;"><path id="_Контур_81" data-name="&lt;Контур&gt;" class="cls-41" d="M63.01 59.52l1.05.58 16.07-9.6-1.05-.58-16.07 9.6z"/><path id="_Контур_82" data-name="&lt;Контур&gt;" class="cls-40" d="M64.06 60.1v4.23l16.07-9.6V50.5l-16.07 9.6z"/><path id="_Контур_83" data-name="&lt;Контур&gt;" class="cls-20" d="M63.01 59.52v4.23l1.05.58V60.1l-1.05-.58z"/></g><g id="_Группа_33" data-name="&lt;Группа&gt;"><path id="_Контур_84" data-name="&lt;Контур&gt;" class="cls-41" d="M68.31 53.7v.91l5.6-3.34-.8-.44-4.8 2.87z"/><path id="_Контур_85" data-name="&lt;Контур&gt;" class="cls-40" d="M68.31 54.61V56l5.6-3.35v-1.38l-5.6 3.34z"/></g><g id="_Группа_34" data-name="&lt;Группа&gt;"><path id="_Контур_86" data-name="&lt;Контур&gt;" class="cls-41" d="M68.31 46.49v.91l5.6-3.34-.8-.44-4.8 2.87z"/><path id="_Контур_87" data-name="&lt;Контур&gt;" class="cls-40" d="M68.31 47.4v1.39l5.6-3.35v-1.38l-5.6 3.34z"/></g><g id="_Группа_35" data-name="&lt;Группа&gt;"><path id="_Контур_88" data-name="&lt;Контур&gt;" class="cls-41" d="M68.31 39.28v.92l5.6-3.35-.8-.44-4.8 2.87z"/><path id="_Контур_89" data-name="&lt;Контур&gt;" class="cls-40" d="M68.31 40.2v1.38l5.6-3.35v-1.38l-5.6 3.35z"/></g><g id="_Группа_36" data-name="&lt;Группа&gt;"><path id="_Контур_90" data-name="&lt;Контур&gt;" class="cls-41" d="M68.31 32.08v.91l5.6-3.35-.8-.44-4.8 2.88z"/><path id="_Контур_91" data-name="&lt;Контур&gt;" class="cls-40" d="M68.31 32.99v1.38l5.6-3.35v-1.38l-5.6 3.35z"/></g><g id="_Группа_37" data-name="&lt;Группа&gt;"><path id="_Контур_92" data-name="&lt;Контур&gt;" class="cls-41" d="M68.31 24.87v.91l5.6-3.35-.8-.43-4.8 2.87z"/><path id="_Контур_93" data-name="&lt;Контур&gt;" class="cls-40" d="M68.31 25.78v1.38l5.6-3.34v-1.39l-5.6 3.35z"/></g><path id="_Контур_94" data-name="&lt;Контур&gt;" class="cls-23" d="M72.87 14.16l1.48 2.01 1.6-.92-1.48-2.01-1.6.92z"/><path id="_Контур_95" data-name="&lt;Контур&gt;" class="cls-23" d="M69.72 15.98l1.48 2.01 1.6-.92-1.48-2.01-1.6.92z"/><path id="_Контур_96" data-name="&lt;Контур&gt;" class="cls-23" d="M66.57 17.8l1.47 2.01 1.6-.92-1.47-2.01-1.6.92z"/></g><g id="_Группа_38" data-name="&lt;Группа&gt;"><path id="_Контур_97" data-name="&lt;Контур&gt;" class="cls-39" d="M49.79 52.88l-3.95 2.89 2 1.36 2.3-.13 1.32 2.1c.95-.51 3.15.52 3.52 1a23.2 23.2 0 002.7 2.83l2.58-3-8.38-6.06z"/><path id="_Контур_98" data-name="&lt;Контур&gt;" class="cls-20" d="M57.68 62.93l-1.06-.61-.72-3.97 1.78 1.04v3.54z"/><path id="_Контур_99" data-name="&lt;Контур&gt;" class="cls-20" d="M49.34 55.05l8.15 4.85.19.11 3.95-2.26-.2-.12-.04-.02-12.05-3.17v.61z"/><path id="_Контур_100" data-name="&lt;Контур&gt;" class="cls-20" d="M45.85 55.77l3.49-.72 3.94-2.27-7.43 2.37v.62z"/><path id="_Контур_101" data-name="&lt;Контур&gt;" class="cls-40" d="M61.63 57.12l-3.95 2.27v3.54l3.95-2.27v-3.54z"/><path id="_Контур_102" data-name="&lt;Контур&gt;" class="cls-19" d="M49.34 54.44l8.15 4.84.19.11 3.95-2.26-.2-.12-.04-.02-8.11-4.83-3.94 2.28z"/><path id="_Контур_103" data-name="&lt;Контур&gt;" class="cls-19" d="M45.85 55.15l3.49-.71 3.94-2.28-3.48.72-3.95 2.27z"/></g><g id="_Группа_39" data-name="&lt;Группа&gt;"><path id="_Контур_104" data-name="&lt;Контур&gt;" class="cls-20" d="M61 58.71v1.14a.6.6 0 01-.3.52l-2 1.17a.25.25 0 01-.37-.21v-.13l1.71-1a.6.6 0 00.3-.52v-1l.33-.19a.25.25 0 01.33.22z"/><path id="_Контур_105" data-name="&lt;Контур&gt;" class="cls-46" d="M60.31 58.69v1a.6.6 0 01-.3.52l-1.71 1v-1a.61.61 0 01.3-.52z"/></g><path id="_Контур_106" data-name="&lt;Контур&gt;" class="cls-19" d="M59.13 52.96l2.5 4.16-30.25-17.6 2.2-1.3 25.55 14.74z"/><g id="_Группа_40" data-name="&lt;Группа&gt;"><path id="_Контур_107" data-name="&lt;Контур&gt;" class="cls-20" d="M82.89 48.41l-6.28-1.53v-3.47l6.28 1.46v3.54z"/><path id="_Контур_108" data-name="&lt;Контур&gt;" class="cls-20" d="M76.61 43.41l6.09 1.97.19.11 3.95-2.27-.2-.11-.03-.02-10-.3v.62z"/><path id="_Контур_109" data-name="&lt;Контур&gt;" class="cls-40" d="M86.84 42.6l-3.95 2.27v3.54l3.95-2.27V42.6z"/><path id="_Контур_110" data-name="&lt;Контур&gt;" class="cls-19" d="M76.61 42.79l6.09 1.97.19.11 3.95-2.27-.2-.11-.03-.02-7.83-4.65-2.17 1.19v3.78z"/></g><g id="_Группа_41" data-name="&lt;Группа&gt;"><path id="_Контур_111" data-name="&lt;Контур&gt;" class="cls-20" d="M86.47 44v1.14a.6.6 0 01-.3.52l-2 1.17a.25.25 0 01-.37-.21v-.14l1.7-1a.6.6 0 00.3-.52V44l.33-.19a.25.25 0 01.34.19z"/><path id="_Контур_112" data-name="&lt;Контур&gt;" class="cls-46" d="M85.77 44v1a.6.6 0 01-.3.52l-1.7 1v-1a.61.61 0 01.3-.52z"/></g></g><g id="_Группа_42" data-name="&lt;Группа&gt;"><g id="_Группа_43" data-name="&lt;Группа&gt;"><g id="_Группа_44" data-name="&lt;Группа&gt;"><path id="_Контур_113" data-name="&lt;Контур&gt;" class="cls-47" d="M108.39 68.7l-2.3 1.48L83.35 57.1l2.3-1.47 22.74 13.07z"/><path id="_Контур_114" data-name="&lt;Контур&gt;" class="cls-48" d="M106.09 70.18v4.48L83.35 61.58V57.1l22.74 13.08z"/><path id="_Контур_115" data-name="&lt;Контур&gt;" class="cls-49" d="M96.47 65.55v2.59l8.06 4.64v-2.57l-8.06-4.66z"/><path id="_Контур_116" data-name="&lt;Контур&gt;" class="cls-49" d="M85.1 59.04v2.58l8.08 4.64v-2.58l-8.08-4.64z"/><path id="_Контур_117" data-name="&lt;Контур&gt;" class="cls-50" d="M108.39 68.7v4.63l-2.3 1.33v-4.48l2.3-1.48z"/><path id="_Контур_118" data-name="&lt;Контур&gt;" class="cls-51" d="M87.19 60.28l-2.09 1.34v-2.58l2.09 1.24z"/><path id="_Контур_119" data-name="&lt;Контур&gt;" class="cls-51" d="M98.56 66.8l-2.09 1.34v-2.59l2.09 1.25z"/></g><g id="_Группа_45" data-name="&lt;Группа&gt;"><path id="_Контур_120" data-name="&lt;Контур&gt;" class="cls-47" d="M98.24 74.53l-2.3 1.48L73.2 62.94l2.31-1.48 22.73 13.07z"/><path id="_Контур_121" data-name="&lt;Контур&gt;" class="cls-48" d="M95.94 76.01v4.48L73.2 67.41v-4.47l22.74 13.07z"/><path id="_Контур_122" data-name="&lt;Контур&gt;" class="cls-49" d="M86.32 71.38v2.59l8.07 4.64v-2.57l-8.07-4.66z"/><path id="_Контур_123" data-name="&lt;Контур&gt;" class="cls-49" d="M74.95 64.87v2.58l8.08 4.64v-2.58l-8.08-4.64z"/><path id="_Контур_124" data-name="&lt;Контур&gt;" class="cls-50" d="M98.24 74.53v4.64l-2.3 1.32v-4.48l2.3-1.48z"/><path id="_Контур_125" data-name="&lt;Контур&gt;" class="cls-51" d="M77.04 66.12l-2.09 1.33v-2.58l2.09 1.25z"/><path id="_Контур_126" data-name="&lt;Контур&gt;" class="cls-51" d="M88.41 72.63l-2.09 1.34v-2.59l2.09 1.25z"/></g><g id="_Группа_46" data-name="&lt;Группа&gt;"><path id="_Контур_127" data-name="&lt;Контур&gt;" class="cls-47" d="M88.09 80.36l-2.3 1.48-22.74-13.07 2.31-1.48 22.73 13.07z"/><path id="_Контур_128" data-name="&lt;Контур&gt;" class="cls-48" d="M85.79 81.84v4.48L63.05 73.24v-4.47l22.74 13.07z"/><path id="_Контур_129" data-name="&lt;Контур&gt;" class="cls-49" d="M76.17 77.21v2.59l8.07 4.64v-2.57l-8.07-4.66z"/><path id="_Контур_130" data-name="&lt;Контур&gt;" class="cls-49" d="M64.8 70.7v2.58l8.08 4.65v-2.59L64.8 70.7z"/><path id="_Контур_131" data-name="&lt;Контур&gt;" class="cls-50" d="M88.09 80.36V85l-2.3 1.32v-4.48l2.3-1.48z"/><path id="_Контур_132" data-name="&lt;Контур&gt;" class="cls-51" d="M66.89 71.95l-2.09 1.33V70.7l2.09 1.25z"/><path id="_Контур_133" data-name="&lt;Контур&gt;" class="cls-51" d="M78.26 78.46l-2.09 1.34v-2.59l2.09 1.25z"/></g></g><g id="_Группа_47" data-name="&lt;Группа&gt;"><g id="_Группа_48" data-name="&lt;Группа&gt;"><path id="_Контур_134" data-name="&lt;Контур&gt;" class="cls-47" d="M83.49 79.24l2.3 1.47 22.6-13.13-2.3-1.48-22.6 13.14z"/><path id="_Контур_135" data-name="&lt;Контур&gt;" class="cls-52" d="M85.79 80.71v1.13l22.6-13.14v-1.12l-22.6 13.13z"/><path id="_Контур_136" data-name="&lt;Контур&gt;" class="cls-53" d="M83.49 79.24v1.28l2.3 1.32v-1.13l-2.3-1.47z"/></g><g id="_Группа_49" data-name="&lt;Группа&gt;"><path id="_Контур_137" data-name="&lt;Контур&gt;" class="cls-47" d="M78.38 76.3l2.3 1.47 22.6-13.13-2.3-1.48-22.6 13.14z"/><path id="_Контур_138" data-name="&lt;Контур&gt;" class="cls-52" d="M80.68 77.77v1.13l22.6-13.13v-1.13l-22.6 13.13z"/><path id="_Контур_139" data-name="&lt;Контур&gt;" class="cls-53" d="M78.38 76.3v1.28l2.3 1.32v-1.13l-2.3-1.47z"/></g><g id="_Группа_50" data-name="&lt;Группа&gt;"><path id="_Контур_140" data-name="&lt;Контур&gt;" class="cls-47" d="M73.27 73.36l2.3 1.47 22.6-13.13-2.3-1.48-22.6 13.14z"/><path id="_Контур_141" data-name="&lt;Контур&gt;" class="cls-52" d="M75.57 74.83v1.13l22.6-13.13V61.7l-22.6 13.13z"/><path id="_Контур_142" data-name="&lt;Контур&gt;" class="cls-53" d="M73.27 73.36v1.28l2.3 1.32v-1.13l-2.3-1.47z"/></g><g id="_Группа_51" data-name="&lt;Группа&gt;"><path id="_Контур_143" data-name="&lt;Контур&gt;" class="cls-47" d="M68.16 70.42l2.31 1.48 22.6-13.14-2.31-1.48-22.6 13.14z"/><path id="_Контур_144" data-name="&lt;Контур&gt;" class="cls-52" d="M70.47 71.9v1.13l22.6-13.14v-1.13L70.47 71.9z"/><path id="_Контур_145" data-name="&lt;Контур&gt;" class="cls-53" d="M68.16 70.42v1.28l2.31 1.33V71.9l-2.31-1.48z"/></g><g id="_Группа_52" data-name="&lt;Группа&gt;"><path id="_Контур_146" data-name="&lt;Контур&gt;" class="cls-47" d="M63.05 67.48l2.31 1.48 22.6-13.14-2.31-1.47-22.6 13.13z"/><path id="_Контур_147" data-name="&lt;Контур&gt;" class="cls-52" d="M65.36 68.96v1.13l22.6-13.14v-1.13l-22.6 13.14z"/><path id="_Контур_148" data-name="&lt;Контур&gt;" class="cls-53" d="M63.05 67.48v1.29l2.31 1.32v-1.13l-2.31-1.48z"/></g></g></g></g></g></g></g></g></svg>