<svg xmlns="http://www.w3.org/2000/svg" viewBox="0 0 82 86.6"><defs><style>.cls-20,.cls-3{fill:#b37a00}.cls-10,.cls-11,.cls-12,.cls-16,.cls-3,.cls-4,.cls-5,.cls-6,.cls-7,.cls-8,.cls-9{fill-rule:evenodd}.cls-4{fill:#28272c}.cls-5{fill:#18171d}.cls-7{fill:#2e2d30}.cls-8{fill:#1b1b1f}.cls-9{fill:#3b3b3b}.cls-10{fill:#d49332}.cls-11{fill:#a76022}.cls-12{fill:#edbb05}.cls-13{fill:#f1c33a}.cls-14{fill:#838383}.cls-16,.cls-49{fill:#cecece}.cls-19{fill:#ffe057}.cls-21{fill:#976305}.cls-22{fill:#272727}.cls-23{fill:#2f2f2f}.cls-24{fill:#393939}.cls-25{fill:#0e0e0e}.cls-26{fill:#1d1d1d}.cls-27{fill:#545557}.cls-31{fill:#1e1e1e}.cls-32{fill:#090909}.cls-34{fill:#ffb700}.cls-35{fill:#f7bb06}.cls-42{fill:#f1c435}.cls-43{fill:#fae35a}.cls-44{fill:#636363}.cls-45{fill:#4a4a4a}.cls-46{fill:#bfbfbf}.cls-47{fill:#ffc534}.cls-48{fill:#865200}.cls-50{fill:#d6b163}.cls-51{fill:#91693a}.cls-52{fill:#b78841}.cls-53{fill:#7d5129}.cls-54{fill:#613f1f}.cls-55{fill:#996232}.cls-56{fill:#ad7e45}.cls-57{fill:#a17f4c}.cls-58{fill:#cfa658}.cls-59{fill:none;stroke:#a05e00;stroke-miterlimit:10;stroke-width:.15px}.cls-60{fill:#a05e00}.cls-61{fill:#f5df95}.cls-62{fill:#fee9ab}.cls-63{fill:#ababab}.cls-64{fill:#595959}.cls-65{fill:#dbc68a}.cls-66{fill:#d2b371}</style></defs><g style="isolation:isolate"><g id="Слой_2" data-name="Слой 2"><g id="Layer_1" data-name="Layer 1"><g id="_Группа_" data-name="&lt;Группа&gt;"><g id="_Группа_2" data-name="&lt;Группа&gt;"><path id="_Составной_контур_" data-name="&lt;Составной контур&gt;" d="M59 41.48l1-.48-27.8-13.76a6.31 6.31 0 00-6.36-.06l-11.68 6.67a1.25 1.25 0 00-.2 2l14.32 13.7 5 3.84-21.13-12.15-1.56 1 21.07 12.13-7.86 4.27 8.86 5L4 79.36l3.48 2.23 28.48-16 5.86 3.34L13.15 85 16 86.6l28.6-16.12 3.4 1.94 10.66-5.68L60.9 68 82 55.2z" style="mix-blend-mode:multiply" fill="#d4d4d4"/><g id="_Группа_3" data-name="&lt;Группа&gt;"><g id="_Группа_4" data-name="&lt;Группа&gt;"><path id="_Контур_" data-name="&lt;Контур&gt;" class="cls-3" d="M78.15 44.66v7.24L71 57.31s.14-10.68 7.15-12.65z"/><g id="_Группа_5" data-name="&lt;Группа&gt;"><g id="_Группа_6" data-name="&lt;Группа&gt;"><g id="_Группа_7" data-name="&lt;Группа&gt;"><g id="_Группа_8" data-name="&lt;Группа&gt;"><path id="_Составной_контур_2" data-name="&lt;Составной контур&gt;" class="cls-4" d="M68.81 52.5c.19 2.5 2.25 3.5 4.66 2.19a8.2 8.2 0 004.09-7c-.16-2.52-2.25-3.51-4.66-2.19a8.2 8.2 0 00-4.09 7z"/><path id="_Контур_2" data-name="&lt;Контур&gt;" class="cls-4" d="M80.17 47.73l-3.97-2.46 1.25 2.45 2.72.01z"/><path id="_Контур_3" data-name="&lt;Контур&gt;" class="cls-4" d="M73.95 57.31l-3.98-2.47 3.36-1.57.41 2.85.21 1.19z"/><path id="_Составной_контур_3" data-name="&lt;Составной контур&gt;" class="cls-5" d="M72.78 55c.16 2.52 2.25 3.5 4.65 2.19a8.2 8.2 0 004.09-7c-.16-2.52-2.25-3.51-4.66-2.19a8.21 8.21 0 00-4.08 7z"/><path id="_Составной_контур_4" data-name="&lt;Составной контур&gt;" class="cls-6" d="M74 54.29c.11 1.81 1.62 2.53 3.35 1.58a5.91 5.91 0 002.94-5c-.11-1.82-1.62-2.53-3.35-1.58a5.91 5.91 0 00-2.94 5z"/><path id="_Составной_контур_5" data-name="&lt;Составной контур&gt;" class="cls-7" d="M72.78 55c.16 2.52 2.25 3.5 4.65 2.19a8.2 8.2 0 004.09-7c-.16-2.52-2.25-3.51-4.66-2.19a8.21 8.21 0 00-4.08 7z"/><path id="_Составной_контур_6" data-name="&lt;Составной контур&gt;" class="cls-8" d="M73.2 54.72c.14 2.27 2 3.16 4.2 2a7.41 7.41 0 003.69-6.28c-.14-2.28-2-3.17-4.2-2a7.41 7.41 0 00-3.69 6.28z"/></g></g><path id="_Составной_контур_7" data-name="&lt;Составной контур&gt;" class="cls-9" d="M74.24 54.15c.1 1.67 1.49 2.33 3.09 1.46A5.45 5.45 0 0080 51c-.1-1.67-1.49-2.33-3.09-1.46a5.45 5.45 0 00-2.67 4.61z"/><path id="_Составной_контур_8" data-name="&lt;Составной контур&gt;" class="cls-10" d="M74.45 53.83c.09 1.48 1.32 2.05 2.73 1.29A4.81 4.81 0 0079.57 51c-.09-1.48-1.32-2.05-2.73-1.29a4.81 4.81 0 00-2.39 4.12z"/><path id="_Составной_контур_9" data-name="&lt;Составной контур&gt;" class="cls-11" d="M74.53 53.78c.09 1.43 1.28 2 2.64 1.25a4.66 4.66 0 002.32-3.95c-.09-1.43-1.28-2-2.64-1.25a4.66 4.66 0 00-2.32 3.95z"/><path id="_Составной_контур_10" data-name="&lt;Составной контур&gt;" class="cls-10" d="M74.68 53.7c.08 1.34 1.2 1.87 2.48 1.17a4.37 4.37 0 002.18-3.7c-.08-1.34-1.2-1.87-2.48-1.17a4.37 4.37 0 00-2.18 3.7z"/><path id="_Составной_контур_11" data-name="&lt;Составной контур&gt;" class="cls-12" d="M74.82 53.63c.08 1.26 1.12 1.75 2.34 1.1a4.14 4.14 0 002-3.49c-.03-1.24-1.03-1.73-2.16-1.13h-.08a4.09 4.09 0 00-2 3.08 1.73 1.73 0 00-.1.44z"/><path id="_Составной_контур_12" data-name="&lt;Составной контур&gt;" class="cls-10" d="M74.85 53.21c.23.5.82.63 1.47.27a2.84 2.84 0 001.44-2.42c0-.59-.36-.92-.8-.95h-.08a4.09 4.09 0 00-2.03 3.1z"/></g></g><g id="_Группа_9" data-name="&lt;Группа&gt;"><path id="_Контур_4" data-name="&lt;Контур&gt;" class="cls-13" d="M50.02 19.83l7.46-4.31v11.89l-7.46 4.32v-11.9z"/><path id="_Контур_5" data-name="&lt;Контур&gt;" class="cls-14" d="M53.16 17.93l20.89 12.54-3.62 2.18-20.41-12.82 3.14-1.9z"/><path id="_Контур_6" data-name="&lt;Контур&gt;" class="cls-13" d="M33.4 41.34l-1.3.75v-.75h1.3z"/></g><g id="_Группа_10" data-name="&lt;Группа&gt;"><g id="_Группа_11" data-name="&lt;Группа&gt;"><g id="_Группа_12" data-name="&lt;Группа&gt;"><g id="_Группа_13" data-name="&lt;Группа&gt;"><path id="_Составной_контур_13" data-name="&lt;Составной контур&gt;" class="cls-4" d="M24.34 50.84c.16 2.52 2.25 3.5 4.65 2.19a8.2 8.2 0 004.09-7c-.16-2.52-2.25-3.51-4.66-2.19a8.2 8.2 0 00-4.08 7z"/><path id="_Контур_7" data-name="&lt;Контур&gt;" fill="#010007" fill-rule="evenodd" d="M35.7 46.07l-3.96-2.45 1.25 2.44 2.71.01z"/><path id="_Контур_8" data-name="&lt;Контур&gt;" class="cls-4" d="M29.48 55.65l-3.98-2.47 3.36-1.57.41 2.86.21 1.18z"/><path id="_Составной_контур_14" data-name="&lt;Составной контур&gt;" class="cls-5" d="M28.31 53.3c.16 2.52 2.25 3.5 4.65 2.19a8.2 8.2 0 004.09-7C36.89 46 34.8 45 32.39 46.34a8.2 8.2 0 00-4.08 6.96z"/><path id="_Составной_контур_15" data-name="&lt;Составной контур&gt;" class="cls-6" d="M29.53 52.63c.11 1.81 1.62 2.53 3.35 1.58a5.91 5.91 0 002.94-5c-.11-1.82-1.62-2.53-3.35-1.58a5.91 5.91 0 00-2.94 5z"/><path id="_Составной_контур_16" data-name="&lt;Составной контур&gt;" class="cls-7" d="M28.31 53.3c.16 2.52 2.25 3.5 4.65 2.19a8.2 8.2 0 004.09-7C36.89 46 34.8 45 32.39 46.34a8.2 8.2 0 00-4.08 6.96z"/><path id="_Составной_контур_17" data-name="&lt;Составной контур&gt;" class="cls-8" d="M28.73 53.06c.14 2.27 2 3.17 4.2 2a7.41 7.41 0 003.69-6.28c-.14-2.27-2-3.17-4.2-2a7.41 7.41 0 00-3.69 6.28z"/></g></g><path id="_Составной_контур_18" data-name="&lt;Составной контур&gt;" class="cls-9" d="M29.78 52.5c.1 1.67 1.49 2.33 3.09 1.46a5.45 5.45 0 002.71-4.62c-.1-1.67-1.49-2.33-3.09-1.46a5.45 5.45 0 00-2.71 4.62z"/><path id="_Составной_контур_19" data-name="&lt;Составной контур&gt;" class="cls-16" d="M30 52.17c.09 1.48 1.32 2.05 2.73 1.29a4.81 4.81 0 002.39-4.08c-.09-1.48-1.32-2.05-2.73-1.29A4.81 4.81 0 0030 52.17z"/><path id="_Составной_контур_20" data-name="&lt;Составной контур&gt;" d="M30.06 52.13c.09 1.43 1.28 2 2.64 1.25a4.66 4.66 0 002.3-3.96c-.09-1.43-1.28-2-2.64-1.25a4.66 4.66 0 00-2.3 3.96z" fill="#a19e9c" fill-rule="evenodd"/><path id="_Составной_контур_21" data-name="&lt;Составной контур&gt;" class="cls-16" d="M30.22 52c.08 1.34 1.2 1.87 2.48 1.17a4.37 4.37 0 002.18-3.7c-.08-1.34-1.2-1.87-2.48-1.17a4.37 4.37 0 00-2.18 3.7z"/><path id="_Составной_контур_22" data-name="&lt;Составной контур&gt;" d="M30.36 52c.08 1.26 1.12 1.75 2.34 1.1a4.14 4.14 0 002.05-3.49c-.08-1.22-1.08-1.73-2.25-1.13h-.08a4.09 4.09 0 00-2 3.08 1.75 1.75 0 00-.06.44z" fill="#7c7774" fill-rule="evenodd"/><path id="_Составной_контур_23" data-name="&lt;Составной контур&gt;" class="cls-16" d="M30.38 51.56c.23.5.82.63 1.47.27a2.84 2.84 0 001.44-2.42c0-.59-.36-.92-.8-.95h-.08a4.09 4.09 0 00-2.03 3.1z"/></g></g><path id="_Контур_9" data-name="&lt;Контур&gt;" class="cls-19" d="M29.6 40.37l3.4 2.24 26.28-7.12v-7.12a2.77 2.77 0 00-.7-1.84 2.83 2.83 0 00-3.43-.86z"/><path id="_Контур_10" data-name="&lt;Контур&gt;" class="cls-20" d="M47.94 58.4l2.82 1.62-2.82 3.16V58.4z"/><path id="_Контур_11" data-name="&lt;Контур&gt;" class="cls-3" d="M62.51 65.07l-9.2-4.65 2.3-5.06s3.26-2.21 5.32-1.15c2.24 1.14 3.24 5.73 1.58 10.86z"/><path id="_Контур_12" data-name="&lt;Контур&gt;" class="cls-21" d="M32.78 46.51l15.16 8.85v7.82l-15.16-8.85v-7.82z"/><path id="_Контур_13" data-name="&lt;Контур&gt;" class="cls-22" d="M74.05 30.47l3.89 9.74L53 54.63V42.71l21.05-12.24z"/><g id="_Группа_14" data-name="&lt;Группа&gt;"><path id="_Составной_контур_24" data-name="&lt;Составной контур&gt;" class="cls-23" d="M33.54 42.05l19.27-11.31V4A4 4 0 0051.3.87l-.16-.1a4 4 0 00-4.33-.2L36.64 6.4s-3.32 13.99-3.1 35.65zM38 8.45L47.43 3a.66.66 0 01.36-.11.76.76 0 01.76.75v24.8l-15 8.8C32.19 19.33 36.74 10.47 38 8.45z"/><path id="_Контур_14" data-name="&lt;Контур&gt;" class="cls-24" d="M52.1 3.25a4 4 0 00-.79-2.38A4 4 0 0152.81 4v26.74L33.54 42.05c0-.39 0-.76-.08-1.14L52.1 30z"/><path id="_Контур_15" data-name="&lt;Контур&gt;" class="cls-24" d="M47.83 2.88a.75.75 0 01.72.75v24.81l-15 8.8c0-.4 0-.76-.07-1.15l14.32-8.42z"/><path id="_Контур_16" data-name="&lt;Контур&gt;" class="cls-25" d="M32.5 39.43l20.06 11.7 17.87-10.15-20.07-11.7L32.5 39.43z"/><path id="_Контур_17" data-name="&lt;Контур&gt;" class="cls-26" d="M50.36 17.36l20.07 11.7v11.92l-20.07-11.7V17.36z"/><path id="_Контур_18" data-name="&lt;Контур&gt;" class="cls-14" d="M69.3 30.19L50.36 19.15v-1.79l20.07 11.7v11.92l-1.13-.66V30.19z"/><g id="_Группа_15" data-name="&lt;Группа&gt;"><path id="_Контур_19" data-name="&lt;Контур&gt;" class="cls-27" d="M43.67 36.39v1a1.14 1.14 0 00.56 1L51 42.32a2.75 2.75 0 002.71 0l8.61-5v-12.7a3 3 0 00-1.48-2.56l-6.93-4c-.61-.37-2.26.63-2.26 1.34l.88 12.33L48.5 34l-3.59 2.08z"/><path id="_Контур_20" data-name="&lt;Контур&gt;" class="cls-27" d="M43.67 36.39v1a1.14 1.14 0 00.56 1L51 42.32a2.75 2.75 0 002.71 0l8.61-5v-1l-.92.53-16.5-.72z"/><path id="_Контур_21" data-name="&lt;Контур&gt;" d="M57.84 28.3l-6.09-7.5-.1-1.45c0-.71 1.65-1.7 2.26-1.35l6.94 4a3 3 0 011.47 2.56l-1.32.78z" fill="#848484"/><path id="_Контур_22" data-name="&lt;Контур&gt;" d="M53 18.82l6.94 4a3 3 0 011.47 2.56v11.4l-9.79-5.64V19.61a.92.92 0 011.38-.79z" fill="#414245"/><path id="_Контур_23" data-name="&lt;Контур&gt;" d="M61.41 36.82l-7.68 4.43a2.73 2.73 0 01-2.71 0l-6.79-3.88a1.12 1.12 0 010-1.94l7.39-4.25z" fill="#646566"/></g><path id="_Контур_24" data-name="&lt;Контур&gt;" class="cls-31" d="M46.79 2l6 3.5 11.61 6.79h4L51.3 2.37l-.16-.1c-1.06-.73-3-2.21-4.33-1.7z"/><path id="_Составной_контур_25" data-name="&lt;Составной контур&gt;" class="cls-32" d="M33 47.87L50.37 58.4c.31-28 3.88-41.75 3.88-41.75L36.64 6.4S32.71 17 33 47.87zM36.68 11a1.56 1.56 0 011.86-1.1 1.61 1.61 0 01.61.21l9.14 5.31 1.31.77a2.43 2.43 0 01.92 2.7C49.83 22.9 49.24 29.92 47 42c-.24 1.3-3.31 1.74-7.46-.25-5-2.4-5.75-4.82-5.67-5.56C35.39 21.25 36.14 15 36.68 11z"/><g id="_Группа_16" data-name="&lt;Группа&gt;"><path id="_Контур_25" data-name="&lt;Контур&gt;" class="cls-24" d="M37.82 10.3c-.62 4.1-1.18 11.54-2.77 25.22-.09.74.68 3.15 5.67 5.56a10.74 10.74 0 006.2 1.28c-.57 1-3.61 1.18-7.34-.61-5-2.4-5.72-4.82-5.67-5.56A241.17 241.17 0 0136.68 11a1.51 1.51 0 011.39-1.1 1 1 0 00-.25.4z"/><g id="_Группа_17" data-name="&lt;Группа&gt;"><path id="_Контур_26" data-name="&lt;Контур&gt;" class="cls-24" d="M48.63 1.61l-8.32 4.77-1.82-1.05 8.3-4.79a4 4 0 014.33.2l.16.1 17.12 9.92h-4L52.81 4z"/><path id="_Контур_27" data-name="&lt;Контур&gt;" class="cls-24" d="M38.49 5.33l15.77 9.2 8.29-4.82 1.85 1.07-8.33 4.81-1.82 1.05L36.64 6.4l1.85-1.07z"/></g><path id="_Контур_28" data-name="&lt;Контур&gt;" class="cls-14" d="M49.79 53.11A18.19 18.19 0 0050.2 57l1.31.76c-.23-1.84-.43-3.59-.57-5.29-2.48-27.45 5.24-36.8 5.24-36.8h-.1l-1.82 1.05s0 .07-.08.13a2.69 2.69 0 00-.26.39c-1.43 2.26-2.3 17.29-4.13 35.87z"/></g><path id="_Составной_контур_26" data-name="&lt;Составной контур&gt;" class="cls-23" d="M49.44 53.31l.34-.2 1.15-.67L70.44 41V14.28a4 4 0 00-6-3.48l-8.32 4.79-1.82 1.05s0 .07-.08.13a2.69 2.69 0 00-.26.39c-1.63 2.48-4.84 21.84-4.52 36.15zm6.12-34.62l9.49-5.47a.72.72 0 01.36-.12.76.76 0 01.74.76V38.7l-15 8.78c1.85-18.56 3.2-26.77 4.41-28.79z"/><g id="_Группа_18" data-name="&lt;Группа&gt;"><path id="_Контур_29" data-name="&lt;Контур&gt;" class="cls-24" d="M65 13.22a.71.71 0 01.36-.1.75.75 0 01.74.74v24.83l-15 8.79c0-.59-.07-1.14-.1-1.7l13.45-7.9V13.52z"/></g></g><g id="_Группа_19" data-name="&lt;Группа&gt;"><g id="_Группа_20" data-name="&lt;Группа&gt;"><g id="_Группа_21" data-name="&lt;Группа&gt;"><g id="_Группа_22" data-name="&lt;Группа&gt;"><path id="_Составной_контур_27" data-name="&lt;Составной контур&gt;" class="cls-4" d="M48.65 64.81c.16 2.52 2.25 3.5 4.65 2.19a8.2 8.2 0 004.09-7c-.16-2.52-2.25-3.51-4.66-2.19a8.2 8.2 0 00-4.08 7z"/><path id="_Контур_30" data-name="&lt;Контур&gt;" class="cls-4" d="M60 60.04l-3.96-2.45 1.25 2.44 2.71.01z"/><path id="_Контур_31" data-name="&lt;Контур&gt;" class="cls-4" d="M53.79 69.62l-3.99-2.47 3.37-1.57.41 2.85.21 1.19z"/><path id="_Составной_контур_28" data-name="&lt;Составной контур&gt;" class="cls-5" d="M52.61 67.26c.16 2.52 2.25 3.5 4.65 2.19a8.2 8.2 0 004.09-7C61.2 60 59.1 59 56.7 60.31a8.21 8.21 0 00-4.09 6.95z"/><path id="_Составной_контур_29" data-name="&lt;Составной контур&gt;" class="cls-6" d="M53.83 66.6c.11 1.81 1.62 2.53 3.35 1.58a5.91 5.91 0 002.94-5c-.11-1.82-1.62-2.53-3.35-1.58a5.91 5.91 0 00-2.94 5z"/><path id="_Составной_контур_30" data-name="&lt;Составной контур&gt;" class="cls-7" d="M52.61 67.26c.16 2.52 2.25 3.5 4.65 2.19a8.2 8.2 0 004.09-7C61.2 60 59.1 59 56.7 60.31a8.21 8.21 0 00-4.09 6.95z"/><path id="_Составной_контур_31" data-name="&lt;Составной контур&gt;" class="cls-8" d="M53 67c.14 2.27 2 3.16 4.2 2a7.41 7.41 0 003.69-6.28c-.14-2.28-2-3.17-4.2-2A7.41 7.41 0 0053 67z"/></g></g><path id="_Составной_контур_32" data-name="&lt;Составной контур&gt;" class="cls-9" d="M54.08 66.46c.1 1.67 1.49 2.33 3.09 1.46a5.45 5.45 0 002.71-4.62c-.1-1.67-1.49-2.33-3.09-1.46a5.45 5.45 0 00-2.71 4.62z"/><path id="_Составной_контур_33" data-name="&lt;Составной контур&gt;" class="cls-10" d="M54.29 66.14c.09 1.48 1.32 2.05 2.73 1.29a4.81 4.81 0 002.39-4.08c-.09-1.48-1.32-2.05-2.73-1.29a4.81 4.81 0 00-2.39 4.08z"/><path id="_Составной_контур_34" data-name="&lt;Составной контур&gt;" class="cls-11" d="M54.37 66.09c.09 1.43 1.28 2 2.64 1.25a4.66 4.66 0 002.32-3.95c-.09-1.43-1.28-2-2.64-1.25a4.66 4.66 0 00-2.32 3.95z"/><path id="_Составной_контур_35" data-name="&lt;Составной контур&gt;" class="cls-10" d="M54.52 66c.08 1.34 1.2 1.87 2.48 1.17a4.37 4.37 0 002.18-3.7c-.08-1.34-1.2-1.87-2.48-1.17a4.37 4.37 0 00-2.18 3.7z"/><path id="_Составной_контур_36" data-name="&lt;Составной контур&gt;" class="cls-12" d="M54.66 65.94C54.74 67.2 55.8 67.73 57 67a4 4 0 002-3.45c-.11-1.22-1.08-1.73-2.26-1.13h-.08a4.09 4.09 0 00-2 3.08 1.73 1.73 0 000 .44z"/><path id="_Составной_контур_37" data-name="&lt;Составной контур&gt;" class="cls-10" d="M54.68 65.52c.23.5.82.63 1.47.27a2.84 2.84 0 001.44-2.42c0-.59-.36-.92-.8-.95h-.08a4.09 4.09 0 00-2.03 3.1z"/></g></g><path id="_Контур_32" data-name="&lt;Контур&gt;" d="M62.84 55.37L61.65 57l-1.18 3.36-1.7-1.11s-3.42-.6-4.25.57a23.12 23.12 0 01-2.69 2.82l-2.56-3 8.34-6z" style="mix-blend-mode:multiply" fill="#a1886f"/><path id="_Контур_33" data-name="&lt;Контур&gt;" class="cls-34" d="M52.57 54l.43 4.1 8-3.9c.31.32 1.11 5 1.11 5l.46 5.84 5.14-3 3.05-1.77 1.24-.68v-5.66l6-8.6.79-.41-.79-5.56z"/><path id="_Контур_34" data-name="&lt;Контур&gt;" class="cls-21" d="M52.53 61.01L34.78 50.42l-5.33-9.87 23.11 13.49-.03 6.97z"/><g id="_Группа_23" data-name="&lt;Группа&gt;"><path id="_Контур_35" data-name="&lt;Контур&gt;" class="cls-32" d="M75.98 41.46l-.7.39-1.85 5.57.69-.39 1.86-5.57z"/><path id="_Контур_36" data-name="&lt;Контур&gt;" class="cls-32" d="M74.53 42.26l-.7.39-1.85 5.58.69-.4 1.86-5.57z"/><path id="_Контур_37" data-name="&lt;Контур&gt;" class="cls-32" d="M73.08 43.07l-.69.39-1.86 5.57.69-.39 1.86-5.57z"/><path id="_Контур_38" data-name="&lt;Контур&gt;" class="cls-32" d="M71.63 43.87l-.69.39-1.86 5.58.69-.4 1.86-5.57z"/></g><path id="_Контур_39" data-name="&lt;Контур&gt;" class="cls-14" d="M35.51 11.94l-.89.52 2.7 1.62.89-.53-2.7-1.61z"/><path id="_Контур_40" data-name="&lt;Контур&gt;" class="cls-35" d="M67.13 24.2l2.39-2.87v-3.6l-2.39 2.87v3.6z"/><path id="_Контур_41" data-name="&lt;Контур&gt;" class="cls-35" d="M67.13 31.29l2.39-2.87v-3.6l-2.39 2.87v3.6z"/><path id="_Контур_42" data-name="&lt;Контур&gt;" class="cls-35" d="M67.13 38.38l2.39-2.87v-3.6l-2.39 2.87v3.6z"/><g id="_Группа_24" data-name="&lt;Группа&gt;"><g id="_Группа_25" data-name="&lt;Группа&gt;"><path id="_Контур_43" data-name="&lt;Контур&gt;" class="cls-24" d="M56.79 13.18l-.56.32-13.79-8.23.53-.34 13.82 8.25z"/><path id="_Контур_44" data-name="&lt;Контур&gt;" class="cls-31" d="M56.23 13.5l-.65.27-13.14-7.86v-.64l13.79 8.23z"/></g><g id="_Группа_26" data-name="&lt;Группа&gt;"><path id="_Контур_45" data-name="&lt;Контур&gt;" class="cls-24" d="M60.4 11.07l-.56.33-13.8-8.24.53-.34 13.83 8.25z"/><path id="_Контур_46" data-name="&lt;Контур&gt;" class="cls-31" d="M59.84 11.4l-.66.26-13.14-7.85v-.65l13.8 8.24z"/></g></g><g id="_Группа_27" data-name="&lt;Группа&gt;"><path id="_Контур_47" data-name="&lt;Контур&gt;" class="cls-26" d="M56.48 14.51v-.8H56l-.16-.11a3.49 3.49 0 00-3.16 0l-.18.13H52v.8a1.14 1.14 0 00.66.91 3.49 3.49 0 003.16 0 1.08 1.08 0 00.66-.93z"/><path id="_Контур_48" data-name="&lt;Контур&gt;" d="M56.48 13.72l-.38-3.88h-3.71L52 13.67a1.14 1.14 0 00.66.91 3.49 3.49 0 003.16 0 1.08 1.08 0 00.66-.86z" fill="#c97735"/><path id="_Контур_49" data-name="&lt;Контур&gt;" d="M52.91 12.94a2.93 2.93 0 012.65 0c.74.43.75 1.11 0 1.53a2.93 2.93 0 01-2.65 0c-.71-.47-.72-1.11 0-1.53z" fill="#bc5705"/><path id="_Контур_50" data-name="&lt;Контур&gt;" d="M55.21 10.93c-.47-.81-1.24-.8-1.72 0a3.28 3.28 0 000 3c.47.81 1.24.8 1.72 0a3.28 3.28 0 000-3z" fill="#bd4d00"/><path id="_Контур_51" data-name="&lt;Контур&gt;" d="M52.92 14.38a3.07 3.07 0 001.21.36l.07-.06a2.25 2.25 0 00.21-.3 4.35 4.35 0 000-3.94 1.84 1.84 0 00-.52-.6h-1.2l-.08.07-.34 3.49a1.14 1.14 0 00.65.98z" fill="#e07705"/><path id="_Контур_52" data-name="&lt;Контур&gt;" d="M54.09 11.33c-.34-.59-.9-.59-1.25 0a2.39 2.39 0 000 2.17c.34.59.9.59 1.25 0a2.39 2.39 0 000-2.17z" fill="#e09c05"/><path id="_Контур_53" data-name="&lt;Контур&gt;" d="M52.93 9.08a2.9 2.9 0 012.62 0c.73.42.74 1.1 0 1.52a2.9 2.9 0 01-2.62 0c-.71-.43-.72-1.11 0-1.52z" fill="#eda94d"/></g><g id="_Группа_28" data-name="&lt;Группа&gt;"><path id="_Контур_54" data-name="&lt;Контур&gt;" class="cls-20" d="M41.24 16.48l2.7 1.61v42.97l-2.7-1.62V16.48z"/><path id="_Контур_55" data-name="&lt;Контур&gt;" class="cls-20" d="M32.97 11.62l2.7 1.61V56.2l-2.7-1.62V11.62z"/><path id="_Контур_56" data-name="&lt;Контур&gt;" class="cls-42" d="M36.56 12.71l-.89.52V56.2l.89-.52V12.71z"/><path id="_Контур_57" data-name="&lt;Контур&gt;" class="cls-42" d="M44.83 17.57l-.89.52v42.97l.89-.52V17.57z"/><g id="_Группа_29" data-name="&lt;Группа&gt;"><path id="_Контур_58" data-name="&lt;Контур&gt;" class="cls-43" d="M45.24 17.37l-1.44.92-11-6.57 1.44-.92 11 6.57z"/><path id="_Контур_59" data-name="&lt;Контур&gt;" class="cls-20" d="M43.8 18.29v2.9l-11-6.57v-2.9l11 6.57z"/><path id="_Контур_60" data-name="&lt;Контур&gt;" class="cls-42" d="M45.24 17.37v2.9l-1.44.92v-2.9l1.44-.92z"/></g><g id="_Группа_30" data-name="&lt;Группа&gt;"><path id="_Контур_61" data-name="&lt;Контур&gt;" class="cls-22" d="M40.89 53.72l2.96 1.78v12.14l-2.96-1.78V53.72z"/><path id="_Контур_62" data-name="&lt;Контур&gt;" class="cls-22" d="M31.82 48.39l2.96 1.78V62.3l-2.96-1.77V48.39z"/><path id="_Контур_63" data-name="&lt;Контур&gt;" class="cls-25" d="M35.76 49.59l-.98.58V62.3l.98-.57V49.59z"/><path id="_Контур_64" data-name="&lt;Контур&gt;" class="cls-25" d="M44.83 54.93l-.98.57v12.14l.98-.58V54.93z"/><path id="_Контур_65" data-name="&lt;Контур&gt;" class="cls-14" d="M41.87 53.15l-.98.57 2.96 1.78.98-.57-2.96-1.78z"/><path id="_Контур_66" data-name="&lt;Контур&gt;" class="cls-14" d="M32.8 47.82l-.98.57 2.96 1.78.98-.58-2.96-1.77z"/><g id="_Группа_31" data-name="&lt;Группа&gt;"><path id="_Контур_67" data-name="&lt;Контур&gt;" class="cls-44" d="M11.55 81.64l3.01 1.67 29.35-16.9-3.02-1.68-29.34 16.91z"/><path id="_Контур_68" data-name="&lt;Контур&gt;" class="cls-45" d="M14.56 84.44v-1.13l29.35-16.9-.01 1.13-29.34 16.9z"/><path id="_Контур_69" data-name="&lt;Контур&gt;" class="cls-46" d="M11.54 82.77l.01-1.13 3.01 1.67v1.13l-3.02-1.67z"/><path id="_Контур_70" data-name="&lt;Контур&gt;" class="cls-46" d="M2.47 77.43l.01-1.13 3.02 1.68-.01 1.13-3.02-1.68z"/></g><path id="_Контур_71" data-name="&lt;Контур&gt;" class="cls-44" d="M2.48 76.3l3.02 1.68 29.34-16.91-3.02-1.67L2.48 76.3z"/><path id="_Контур_72" data-name="&lt;Контур&gt;" class="cls-45" d="M5.49 79.11l.01-1.13 29.34-16.91-.01 1.13L5.49 79.11z"/></g><g id="_Группа_32" data-name="&lt;Группа&gt;"><path id="_Контур_73" data-name="&lt;Контур&gt;" class="cls-43" d="M46.51 59.27l-1.04.57-16-9.55 1.04-.57 16 9.55z"/><path id="_Контур_74" data-name="&lt;Контур&gt;" class="cls-20" d="M45.47 59.84v4.22l-16-9.56v-4.21l16 9.55z"/><path id="_Контур_75" data-name="&lt;Контур&gt;" class="cls-42" d="M46.51 59.27v4.21l-1.04.58v-4.22l1.04-.57z"/></g><g id="_Группа_33" data-name="&lt;Группа&gt;"><path id="_Контур_76" data-name="&lt;Контур&gt;" class="cls-43" d="M41.24 53.48v.9l-5.58-3.33.79-.43 4.79 2.86z"/><path id="_Контур_77" data-name="&lt;Контур&gt;" class="cls-20" d="M41.24 54.38v1.38l-5.58-3.33v-1.38l5.58 3.33z"/></g><g id="_Группа_34" data-name="&lt;Группа&gt;"><path id="_Контур_78" data-name="&lt;Контур&gt;" class="cls-43" d="M41.24 46.3v.9l-5.58-3.33.79-.43 4.79 2.86z"/><path id="_Контур_79" data-name="&lt;Контур&gt;" class="cls-20" d="M41.24 47.2v1.38l-5.58-3.33v-1.38l5.58 3.33z"/></g><g id="_Группа_35" data-name="&lt;Группа&gt;"><path id="_Контур_80" data-name="&lt;Контур&gt;" class="cls-43" d="M41.24 39.12v.91l-5.58-3.34.79-.43 4.79 2.86z"/><path id="_Контур_81" data-name="&lt;Контур&gt;" class="cls-20" d="M41.24 40.03v1.38l-5.58-3.34v-1.38l5.58 3.34z"/></g><g id="_Группа_36" data-name="&lt;Группа&gt;"><path id="_Контур_82" data-name="&lt;Контур&gt;" class="cls-43" d="M41.24 31.94v.91l-5.58-3.33.79-.44 4.79 2.86z"/><path id="_Контур_83" data-name="&lt;Контур&gt;" class="cls-20" d="M41.24 32.85v1.38l-5.58-3.34v-1.37l5.58 3.33z"/></g><g id="_Группа_37" data-name="&lt;Группа&gt;"><path id="_Контур_84" data-name="&lt;Контур&gt;" class="cls-43" d="M41.24 24.76v.91l-5.58-3.33.79-.44 4.79 2.86z"/><path id="_Контур_85" data-name="&lt;Контур&gt;" class="cls-20" d="M41.24 25.67v1.38l-5.58-3.33v-1.38l5.58 3.33z"/></g><path id="_Контур_86" data-name="&lt;Контур&gt;" class="cls-32" d="M36.7 14.11l-1.48 2-1.59-.93 1.47-1.99 1.6.92z"/><path id="_Контур_87" data-name="&lt;Контур&gt;" class="cls-32" d="M39.83 15.92l-1.47 2-1.59-.92 1.47-2 1.59.92z"/><path id="_Контур_88" data-name="&lt;Контур&gt;" class="cls-32" d="M42.97 17.73l-1.47 2-1.59-.92 1.47-2 1.59.92z"/></g><g id="_Группа_38" data-name="&lt;Группа&gt;"><path id="_Контур_89" data-name="&lt;Контур&gt;" class="cls-47" d="M51.82 62.66l1.05-.6.72-3.96-1.77 1.04v3.52z"/><path id="_Контур_90" data-name="&lt;Контур&gt;" class="cls-47" d="M60.13 54.82l-8.12 4.83-.19.11-3.93-2.25.2-.12.03-.02 12.01-3.16v.61z"/><path id="_Контур_91" data-name="&lt;Контур&gt;" class="cls-47" d="M63.6 55.53l-3.47-.71-3.93-2.26 7.4 2.36v.61z"/><path id="_Контур_92" data-name="&lt;Контур&gt;" class="cls-20" d="M47.89 56.88l3.93 2.26v3.52l-3.93-2.25v-3.53z"/><path id="_Контур_93" data-name="&lt;Контур&gt;" class="cls-19" d="M60.13 54.21l-8.12 4.82-.19.11-3.93-2.25.2-.12.03-.02 8.08-4.81 3.93 2.27z"/><path id="_Контур_94" data-name="&lt;Контур&gt;" class="cls-19" d="M63.6 54.92l-3.47-.71-3.93-2.27 3.47.71 3.93 2.27z"/></g><g id="_Группа_39" data-name="&lt;Группа&gt;"><path id="_Контур_95" data-name="&lt;Контур&gt;" class="cls-48" d="M48.51 58.47v1.13a.6.6 0 00.3.52l2 1.17a.25.25 0 00.37-.21v-.13l-1.7-1a.6.6 0 01-.3-.52v-1l-.33-.19a.25.25 0 00-.34.23z"/><path id="_Контур_96" data-name="&lt;Контур&gt;" class="cls-49" d="M49.21 58.45v1a.6.6 0 00.3.52l1.7 1v-1a.6.6 0 00-.3-.52z"/></g><path id="_Контур_97" data-name="&lt;Контур&gt;" class="cls-19" d="M50.38 52.74l-2.49 4.14 30.12-17.52-2.19-1.31-25.44 14.69z"/><g id="_Группа_40" data-name="&lt;Группа&gt;"><path id="_Контур_98" data-name="&lt;Контур&gt;" class="cls-34" d="M26.72 48.2l6.25-1.52v-3.46l-6.25 1.46v3.52z"/><path id="_Контур_99" data-name="&lt;Контур&gt;" class="cls-34" d="M32.97 43.22l-6.07 1.97-.18.11-3.93-2.26.19-.11.04-.02 9.95-.3v.61z"/><path id="_Контур_100" data-name="&lt;Контур&gt;" class="cls-20" d="M22.79 42.42l3.93 2.26v3.52l-3.93-2.25v-3.53z"/><path id="_Контур_101" data-name="&lt;Контур&gt;" class="cls-19" d="M32.97 42.61l-6.07 1.96-.18.11-3.93-2.25.19-.12.04-.02 7.79-4.63 2.16 1.19v3.76z"/></g><g id="_Группа_41" data-name="&lt;Группа&gt;"><path id="_Контур_102" data-name="&lt;Контур&gt;" class="cls-48" d="M23.15 43.83V45a.6.6 0 00.3.52l2 1.17a.25.25 0 00.37-.21v-.18l-1.7-1a.6.6 0 01-.3-.52v-1l-.33-.19a.25.25 0 00-.34.24z"/><path id="_Контур_103" data-name="&lt;Контур&gt;" class="cls-49" d="M23.85 43.8v1a.6.6 0 00.3.52l1.7 1v-1a.6.6 0 00-.3-.52z"/></g></g></g></g><g id="_Группа_42" data-name="&lt;Группа&gt;"><g id="_Группа_43" data-name="&lt;Группа&gt;"><g id="_Группа_44" data-name="&lt;Группа&gt;"><path id="_Контур_104" data-name="&lt;Контур&gt;" class="cls-50" d="M0 67.91l2.3 1.47 22.74-13.07-2.3-1.48L0 67.91z"/><path id="_Контур_105" data-name="&lt;Контур&gt;" class="cls-51" d="M2.3 69.38v4.48l22.74-13.07v-4.48L2.3 69.38z"/><path id="_Контур_106" data-name="&lt;Контур&gt;" class="cls-52" d="M11.92 64.76v2.58l-8.06 4.65v-2.57l8.06-4.66z"/><path id="_Контур_107" data-name="&lt;Контур&gt;" class="cls-52" d="M23.29 58.24v2.59l-8.08 4.64v-2.59l8.08-4.64z"/><path id="_Контур_108" data-name="&lt;Контур&gt;" class="cls-53" d="M0 67.91v4.63l2.3 1.32v-4.48L0 67.91z"/><path id="_Контур_109" data-name="&lt;Контур&gt;" class="cls-54" d="M21.2 59.49l2.09 1.34v-2.59l-2.09 1.25z"/><path id="_Контур_110" data-name="&lt;Контур&gt;" class="cls-54" d="M9.83 66.01l2.09 1.33v-2.58l-2.09 1.25z"/></g><g id="_Группа_45" data-name="&lt;Группа&gt;"><path id="_Контур_111" data-name="&lt;Контур&gt;" class="cls-50" d="M10.15 73.74l2.3 1.47 22.74-13.07-2.3-1.48-22.74 13.08z"/><path id="_Контур_112" data-name="&lt;Контур&gt;" class="cls-51" d="M12.45 75.21v4.48l22.74-13.07v-4.48L12.45 75.21z"/><path id="_Контур_113" data-name="&lt;Контур&gt;" class="cls-52" d="M22.07 70.59v2.59l-8.06 4.64v-2.57l8.06-4.66z"/><path id="_Контур_114" data-name="&lt;Контур&gt;" class="cls-52" d="M33.44 64.07v2.59l-8.08 4.64v-2.59l8.08-4.64z"/><path id="_Контур_115" data-name="&lt;Контур&gt;" class="cls-53" d="M10.15 73.74v4.63l2.3 1.32v-4.48l-2.3-1.47z"/><path id="_Контур_116" data-name="&lt;Контур&gt;" class="cls-54" d="M31.35 65.32l2.09 1.34v-2.59l-2.09 1.25z"/><path id="_Контур_117" data-name="&lt;Контур&gt;" class="cls-54" d="M19.98 71.84l2.09 1.34v-2.59l-2.09 1.25z"/></g><g id="_Группа_46" data-name="&lt;Группа&gt;"><path id="_Контур_118" data-name="&lt;Контур&gt;" class="cls-50" d="M20.3 79.57l2.3 1.48 22.74-13.08-2.31-1.47L20.3 79.57z"/><path id="_Контур_119" data-name="&lt;Контур&gt;" class="cls-51" d="M22.6 81.05v4.47l22.74-13.07v-4.48L22.6 81.05z"/><path id="_Контур_120" data-name="&lt;Контур&gt;" class="cls-52" d="M32.22 76.42v2.59l-8.07 4.64v-2.57l8.07-4.66z"/><path id="_Контур_121" data-name="&lt;Контур&gt;" class="cls-52" d="M43.59 69.9v2.59l-8.08 4.64v-2.59l8.08-4.64z"/><path id="_Контур_122" data-name="&lt;Контур&gt;" class="cls-53" d="M20.3 79.57v4.63l2.3 1.32v-4.47l-2.3-1.48z"/><path id="_Контур_123" data-name="&lt;Контур&gt;" class="cls-54" d="M41.5 71.15l2.09 1.34V69.9l-2.09 1.25z"/><path id="_Контур_124" data-name="&lt;Контур&gt;" class="cls-54" d="M30.13 77.67l2.09 1.34v-2.59l-2.09 1.25z"/></g></g><g id="_Группа_47" data-name="&lt;Группа&gt;"><g id="_Группа_48" data-name="&lt;Группа&gt;"><path id="_Контур_125" data-name="&lt;Контур&gt;" class="cls-50" d="M24.91 78.44l-2.31 1.48L0 66.78l2.3-1.47 22.61 13.13z"/><path id="_Контур_126" data-name="&lt;Контур&gt;" class="cls-55" d="M22.6 79.92v1.13L0 67.91v-1.13l22.6 13.14z"/><path id="_Контур_127" data-name="&lt;Контур&gt;" class="cls-56" d="M24.91 78.44v1.28l-2.31 1.33v-1.13l2.31-1.48z"/></g><g id="_Группа_49" data-name="&lt;Группа&gt;"><path id="_Контур_128" data-name="&lt;Контур&gt;" class="cls-50" d="M30.01 75.5l-2.3 1.48-22.6-13.14 2.3-1.47 22.6 13.13z"/><path id="_Контур_129" data-name="&lt;Контур&gt;" class="cls-55" d="M27.71 76.98v1.13L5.11 64.97v-1.13l22.6 13.14z"/><path id="_Контур_130" data-name="&lt;Контур&gt;" class="cls-56" d="M30.01 75.5v1.28l-2.3 1.33v-1.13l2.3-1.48z"/></g><g id="_Группа_50" data-name="&lt;Группа&gt;"><path id="_Контур_131" data-name="&lt;Контур&gt;" class="cls-50" d="M35.12 72.57l-2.3 1.47-22.6-13.14 2.3-1.47 22.6 13.14z"/><path id="_Контур_132" data-name="&lt;Контур&gt;" class="cls-55" d="M32.82 74.04v1.13l-22.6-13.14V60.9l22.6 13.14z"/><path id="_Контур_133" data-name="&lt;Контур&gt;" class="cls-56" d="M35.12 72.57v1.28l-2.3 1.32v-1.13l2.3-1.47z"/></g><g id="_Группа_51" data-name="&lt;Группа&gt;"><path id="_Контур_134" data-name="&lt;Контур&gt;" class="cls-50" d="M40.23 69.63l-2.3 1.47-22.61-13.13 2.31-1.48 22.6 13.14z"/><path id="_Контур_135" data-name="&lt;Контур&gt;" class="cls-55" d="M37.93 71.1v1.13L15.32 59.09v-1.12L37.93 71.1z"/><path id="_Контур_136" data-name="&lt;Контур&gt;" class="cls-56" d="M40.23 69.63v1.28l-2.3 1.32V71.1l2.3-1.47z"/></g><g id="_Группа_52" data-name="&lt;Группа&gt;"><path id="_Контур_137" data-name="&lt;Контур&gt;" class="cls-50" d="M45.34 66.69l-2.31 1.47-22.6-13.13 2.31-1.48 22.6 13.14z"/><path id="_Контур_138" data-name="&lt;Контур&gt;" class="cls-55" d="M43.03 68.16v1.13l-22.6-13.13v-1.13l22.6 13.13z"/><path id="_Контур_139" data-name="&lt;Контур&gt;" class="cls-56" d="M45.34 66.69v1.28l-2.31 1.32v-1.13l2.31-1.47z"/></g></g></g><g id="_Группа_53" data-name="&lt;Группа&gt;"><g id="_Группа_54" data-name="&lt;Группа&gt;"><g id="_Группа_55" data-name="&lt;Группа&gt;"><g id="_Группа_56" data-name="&lt;Группа&gt;"><g id="_Группа_57" data-name="&lt;Группа&gt;"><path id="_Контур_140" data-name="&lt;Контур&gt;" class="cls-57" d="M22.94 65.82l-10.47-6.04V48.52l10.47 6.03v11.27z"/><path id="_Контур_141" data-name="&lt;Контур&gt;" class="cls-58" d="M31.25 49.73l-8.31 4.82v11.27l8.31-4.8V49.73z"/><path id="_Контур_142" data-name="&lt;Контур&gt;" class="cls-59" d="M26.47 53.96l-2.54 1.47v3.44l2.54-1.46v-3.45z"/></g><path id="_Контур_143" data-name="&lt;Контур&gt;" class="cls-60" d="M25.6 55.84l-.01 1.71-.79.45.01-1.71-.4.23.8-1.69.79.79-.4.22z"/><path id="_Контур_144" data-name="&lt;Контур&gt;" class="cls-61" d="M31.25 49.73l-8.31 4.82-4.92-2.83-1.59-.92-3.96-2.29 8.31-4.82 3.97 2.29 1.6.92 4.9 2.83z"/></g></g><path id="_Контур_145" data-name="&lt;Контур&gt;" class="cls-62" d="M18.02 51.72l-1.59-.92 8.32-4.82 1.6.92-8.33 4.82z"/><g id="_Группа_58" data-name="&lt;Группа&gt;"><path id="_Контур_146" data-name="&lt;Контур&gt;" class="cls-63" d="M16.24 60.98l-3-1.71v-2.6l3 1.72v2.59z"/><path id="_Контур_147" data-name="&lt;Контур&gt;" class="cls-64" d="M16.08 60.65l-2.68-1.52v-.12l2.68 1.53v.11z"/><path id="_Контур_148" data-name="&lt;Контур&gt;" class="cls-64" d="M16.08 60.33L13.4 58.8v-.11l2.68 1.52v.12z"/><path id="_Контур_149" data-name="&lt;Контур&gt;" class="cls-64" d="M16.08 60l-2.68-1.52v-.12l2.68 1.53V60z"/><path id="_Контур_150" data-name="&lt;Контур&gt;" class="cls-64" d="M16.08 59.68l-2.68-1.53v-.12l2.68 1.53v.12z"/><path id="_Контур_151" data-name="&lt;Контур&gt;" class="cls-64" d="M16.08 59.06l-2.68-1.52v-.37l2.68 1.52v.37z"/></g><path id="_Контур_152" data-name="&lt;Контур&gt;" class="cls-65" d="M16.43 50.8l-.01 3.8.33-.89.34 1.26.47-.82.41 1.3.05-3.73-1.59-.92z"/><path id="_Контур_153" data-name="&lt;Контур&gt;" class="cls-60" d="M28.37 53.01l-.76.44v1.02l.76-.44v-1.02z"/><path id="_Контур_154" data-name="&lt;Контур&gt;" class="cls-60" d="M29.44 52.39l-.76.45v1.01l.76-.44v-1.02z"/><path id="_Контур_155" data-name="&lt;Контур&gt;" class="cls-60" d="M30.5 51.78l-.76.44v1.02l.76-.44v-1.02z"/></g><g id="_Группа_59" data-name="&lt;Группа&gt;"><g id="_Группа_60" data-name="&lt;Группа&gt;"><g id="_Группа_61" data-name="&lt;Группа&gt;"><g id="_Группа_62" data-name="&lt;Группа&gt;"><path id="_Контур_156" data-name="&lt;Контур&gt;" class="cls-57" d="M12.95 71.61L2.48 65.57V54.31l10.47 6.04v11.26z"/><path id="_Контур_157" data-name="&lt;Контур&gt;" class="cls-58" d="M21.26 55.52l-8.31 4.83v11.26l8.31-4.8V55.52z"/><path id="_Контур_158" data-name="&lt;Контур&gt;" class="cls-59" d="M16.48 59.75l-2.54 1.48v3.44l2.54-1.47v-3.45z"/></g><path id="_Контур_159" data-name="&lt;Контур&gt;" class="cls-60" d="M15.61 61.63l-.01 1.72-.79.45v-1.72l-.39.23.79-1.69.79.79-.39.22z"/><path id="_Контур_160" data-name="&lt;Контур&gt;" class="cls-61" d="M21.26 55.52l-8.31 4.83-4.92-2.84-1.59-.92-3.96-2.29 8.31-4.82 3.97 2.29 1.59.92 4.91 2.83z"/></g></g><path id="_Контур_161" data-name="&lt;Контур&gt;" class="cls-62" d="M8.03 57.51l-1.59-.92 8.32-4.82 1.59.92-8.32 4.82z"/><g id="_Группа_63" data-name="&lt;Группа&gt;"><path id="_Контур_162" data-name="&lt;Контур&gt;" class="cls-63" d="M6.25 66.78l-3-1.72v-2.59l3 1.71v2.6z"/><path id="_Контур_163" data-name="&lt;Контур&gt;" class="cls-64" d="M6.08 66.45l-2.67-1.53v-.12l2.67 1.53v.12z"/><path id="_Контур_164" data-name="&lt;Контур&gt;" class="cls-64" d="M6.08 66.12l-2.67-1.53v-.11L6.08 66v.12z"/><path id="_Контур_165" data-name="&lt;Контур&gt;" class="cls-64" d="M6.08 65.8l-2.67-1.53v-.12l2.67 1.53v.12z"/><path id="_Контур_166" data-name="&lt;Контур&gt;" class="cls-64" d="M6.08 65.47l-2.67-1.52v-.12l2.67 1.52v.12z"/><path id="_Контур_167" data-name="&lt;Контур&gt;" class="cls-64" d="M6.08 64.86l-2.67-1.53v-.37l2.67 1.53v.37z"/></g><path id="_Контур_168" data-name="&lt;Контур&gt;" class="cls-65" d="M6.44 56.59l-.01 3.8.33-.89.34 1.26.47-.81.41 1.29.05-3.73-1.59-.92z"/><path id="_Контур_169" data-name="&lt;Контур&gt;" class="cls-60" d="M18.38 58.8l-.76.44v1.02l.76-.44V58.8z"/><path id="_Контур_170" data-name="&lt;Контур&gt;" class="cls-60" d="M19.44 58.19l-.76.44v1.02l.76-.45v-1.01z"/><path id="_Контур_171" data-name="&lt;Контур&gt;" class="cls-60" d="M20.51 57.57l-.76.45v1.01l.76-.44v-1.02z"/></g><g id="_Группа_64" data-name="&lt;Группа&gt;"><g id="_Группа_65" data-name="&lt;Группа&gt;"><g id="_Группа_66" data-name="&lt;Группа&gt;"><g id="_Группа_67" data-name="&lt;Группа&gt;"><path id="_Контур_172" data-name="&lt;Контур&gt;" class="cls-57" d="M34.55 72.45l-10.47-6.04V55.15l10.47 6.03v11.27z"/><path id="_Контур_173" data-name="&lt;Контур&gt;" class="cls-66" d="M42.86 56.36l-8.31 4.82v11.27l8.31-4.8V56.36z"/><path id="_Контур_174" data-name="&lt;Контур&gt;" class="cls-59" d="M38.08 60.59l-2.53 1.47v3.44l2.53-1.46v-3.45z"/></g><path id="_Контур_175" data-name="&lt;Контур&gt;" class="cls-60" d="M37.21 62.47l-.01 1.71-.79.45.01-1.71-.4.23.8-1.69.79.78-.4.23z"/><path id="_Контур_176" data-name="&lt;Контур&gt;" class="cls-61" d="M42.86 56.36l-8.31 4.82-4.91-2.83-1.6-.92-3.96-2.29 8.31-4.82 3.97 2.29 1.6.92 4.9 2.83z"/></g></g><path id="_Контур_177" data-name="&lt;Контур&gt;" class="cls-62" d="M29.64 58.35l-1.6-.92 8.32-4.82 1.6.92-8.32 4.82z"/><g id="_Группа_68" data-name="&lt;Группа&gt;"><path id="_Контур_178" data-name="&lt;Контур&gt;" class="cls-63" d="M27.85 67.61l-3-1.71v-2.6l3 1.72v2.59z"/><path id="_Контур_179" data-name="&lt;Контур&gt;" class="cls-64" d="M27.69 67.28l-2.67-1.52v-.12l2.67 1.53v.11z"/><path id="_Контур_180" data-name="&lt;Контур&gt;" class="cls-64" d="M27.69 66.96l-2.67-1.53v-.12l2.67 1.53v.12z"/><path id="_Контур_181" data-name="&lt;Контур&gt;" class="cls-64" d="M27.69 66.63l-2.67-1.52v-.12l2.67 1.53v.11z"/><path id="_Контур_182" data-name="&lt;Контур&gt;" class="cls-64" d="M27.69 66.31l-2.67-1.53v-.12l2.67 1.53v.12z"/><path id="_Контур_183" data-name="&lt;Контур&gt;" class="cls-64" d="M27.69 65.69l-2.67-1.52v-.37l2.67 1.52v.37z"/></g><path id="_Контур_184" data-name="&lt;Контур&gt;" class="cls-65" d="M28.04 57.43l-.01 3.8.33-.89.35 1.25.46-.81.42 1.3.05-3.73-1.6-.92z"/><path id="_Контур_185" data-name="&lt;Контур&gt;" class="cls-60" d="M39.98 59.64l-.76.44v1.02l.76-.44v-1.02z"/><path id="_Контур_186" data-name="&lt;Контур&gt;" class="cls-60" d="M41.05 59.02l-.76.45v1.01l.76-.44v-1.02z"/><path id="_Контур_187" data-name="&lt;Контур&gt;" class="cls-60" d="M42.11 58.41l-.76.44v1.02l.76-.44v-1.02z"/></g><g id="_Группа_69" data-name="&lt;Группа&gt;"><g id="_Группа_70" data-name="&lt;Группа&gt;"><g id="_Группа_71" data-name="&lt;Группа&gt;"><g id="_Группа_72" data-name="&lt;Группа&gt;"><path id="_Контур_188" data-name="&lt;Контур&gt;" class="cls-57" d="M24.56 78.24L14.09 72.2V60.94l10.47 6.04v11.26z"/><path id="_Контур_189" data-name="&lt;Контур&gt;" class="cls-66" d="M32.87 62.15l-8.31 4.83v11.26l8.31-4.8V62.15z"/><path id="_Контур_190" data-name="&lt;Контур&gt;" class="cls-59" d="M28.09 66.38l-2.54 1.48v3.44l2.54-1.47v-3.45z"/></g><path id="_Контур_191" data-name="&lt;Контур&gt;" class="cls-60" d="M27.22 68.26l-.01 1.72-.79.45.01-1.72-.4.23.8-1.69.78.79-.39.22z"/><path id="_Контур_192" data-name="&lt;Контур&gt;" class="cls-61" d="M32.87 62.15l-8.31 4.83-4.92-2.84-1.59-.92-3.96-2.28 8.31-4.83 3.97 2.29 1.6.92 4.9 2.83z"/></g></g><path id="_Контур_193" data-name="&lt;Контур&gt;" class="cls-62" d="M19.64 64.14l-1.59-.92 8.32-4.82 1.6.92-8.33 4.82z"/><g id="_Группа_73" data-name="&lt;Группа&gt;"><path id="_Контур_194" data-name="&lt;Контур&gt;" class="cls-63" d="M17.86 73.41l-3-1.72v-2.6l3 1.72v2.6z"/><path id="_Контур_195" data-name="&lt;Контур&gt;" class="cls-64" d="M17.7 73.08l-2.68-1.53v-.12l2.68 1.53v.12z"/><path id="_Контур_196" data-name="&lt;Контур&gt;" class="cls-64" d="M17.7 72.75l-2.68-1.53v-.11l2.68 1.52v.12z"/><path id="_Контур_197" data-name="&lt;Контур&gt;" class="cls-64" d="M17.7 72.43l-2.68-1.53v-.12l2.68 1.53v.12z"/><path id="_Контур_198" data-name="&lt;Контур&gt;" class="cls-64" d="M17.7 72.1l-2.68-1.53v-.11l2.68 1.52v.12z"/><path id="_Контур_199" data-name="&lt;Контур&gt;" class="cls-64" d="M17.7 71.49l-2.68-1.53v-.37l2.68 1.53v.37z"/></g><path id="_Контур_200" data-name="&lt;Контур&gt;" class="cls-65" d="M18.05 63.22l-.01 3.8.33-.89.34 1.26.47-.81.41 1.29.05-3.73-1.59-.92z"/><path id="_Контур_201" data-name="&lt;Контур&gt;" class="cls-60" d="M29.99 65.43l-.76.44v1.02l.76-.44v-1.02z"/><path id="_Контур_202" data-name="&lt;Контур&gt;" class="cls-60" d="M31.05 64.82l-.75.44v1.02l.75-.45v-1.01z"/><path id="_Контур_203" data-name="&lt;Контур&gt;" class="cls-60" d="M32.12 64.2l-.76.44v1.02l.76-.44V64.2z"/></g><g id="_Группа_74" data-name="&lt;Группа&gt;"><g id="_Группа_75" data-name="&lt;Группа&gt;"><g id="_Группа_76" data-name="&lt;Группа&gt;"><g id="_Группа_77" data-name="&lt;Группа&gt;"><path id="_Контур_204" data-name="&lt;Контур&gt;" class="cls-57" d="M22.94 54.15l-10.47-6.04V36.85l10.47 6.04v11.26z"/><path id="_Контур_205" data-name="&lt;Контур&gt;" class="cls-58" d="M31.25 38.06l-8.31 4.83v11.26l8.31-4.8V38.06z"/><path id="_Контур_206" data-name="&lt;Контур&gt;" class="cls-59" d="M26.47 42.29l-2.54 1.48v3.43l2.54-1.46v-3.45z"/></g><path id="_Контур_207" data-name="&lt;Контур&gt;" class="cls-60" d="M25.6 44.17l-.01 1.72-.79.45.01-1.72-.4.23.8-1.69.79.79-.4.22z"/><path id="_Контур_208" data-name="&lt;Контур&gt;" class="cls-61" d="M31.25 38.06l-8.31 4.83-4.92-2.84-1.59-.92-3.96-2.29 8.31-4.82 3.97 2.29 1.6.92 4.9 2.83z"/></g></g><path id="_Контур_209" data-name="&lt;Контур&gt;" class="cls-62" d="M18.02 40.05l-1.59-.92 8.32-4.82 1.6.92-8.33 4.82z"/><g id="_Группа_78" data-name="&lt;Группа&gt;"><path id="_Контур_210" data-name="&lt;Контур&gt;" class="cls-63" d="M16.24 49.31l-3-1.71v-2.59l3 1.71v2.59z"/><path id="_Контур_211" data-name="&lt;Контур&gt;" class="cls-64" d="M16.08 48.99l-2.68-1.53v-.12l2.68 1.53v.12z"/><path id="_Контур_212" data-name="&lt;Контур&gt;" class="cls-64" d="M16.08 48.66l-2.68-1.53v-.11l2.68 1.52v.12z"/><path id="_Контур_213" data-name="&lt;Контур&gt;" class="cls-64" d="M16.08 48.34l-2.68-1.53v-.12l2.68 1.53v.12z"/><path id="_Контур_214" data-name="&lt;Контур&gt;" class="cls-64" d="M16.08 48.01l-2.68-1.53v-.11l2.68 1.52v.12z"/><path id="_Контур_215" data-name="&lt;Контур&gt;" class="cls-64" d="M16.08 47.4l-2.68-1.53v-.37l2.68 1.53v.37z"/></g><path id="_Контур_216" data-name="&lt;Контур&gt;" class="cls-65" d="M16.43 39.13l-.01 3.8.33-.89.34 1.26.47-.82.41 1.3.05-3.73-1.59-.92z"/><path id="_Контур_217" data-name="&lt;Контур&gt;" class="cls-60" d="M28.37 41.34l-.76.44v1.02l.76-.44v-1.02z"/><path id="_Контур_218" data-name="&lt;Контур&gt;" class="cls-60" d="M29.44 40.73l-.76.44v1.02l.76-.45v-1.01z"/><path id="_Контур_219" data-name="&lt;Контур&gt;" class="cls-60" d="M30.5 40.11l-.76.45v1.01l.76-.44v-1.02z"/></g><g id="_Группа_79" data-name="&lt;Группа&gt;"><g id="_Группа_80" data-name="&lt;Группа&gt;"><g id="_Группа_81" data-name="&lt;Группа&gt;"><g id="_Группа_82" data-name="&lt;Группа&gt;"><path id="_Контур_220" data-name="&lt;Контур&gt;" class="cls-57" d="M12.95 59.95L2.48 53.91V42.64l10.47 6.04v11.27z"/><path id="_Контур_221" data-name="&lt;Контур&gt;" class="cls-58" d="M21.26 43.85l-8.31 4.83v11.27l8.31-4.8v-11.3z"/><path id="_Контур_222" data-name="&lt;Контур&gt;" class="cls-59" d="M16.48 48.09l-2.54 1.47V53l2.54-1.47v-3.44z"/></g><path id="_Контур_223" data-name="&lt;Контур&gt;" class="cls-60" d="M15.61 49.97l-.01 1.71-.79.45v-1.71l-.39.22.79-1.69.79.79-.39.23z"/><path id="_Контур_224" data-name="&lt;Контур&gt;" class="cls-61" d="M21.26 43.86l-8.31 4.82-4.92-2.84-1.59-.91-3.96-2.29 8.31-4.83 3.97 2.29 1.59.93 4.91 2.83z"/></g></g><path id="_Контур_225" data-name="&lt;Контур&gt;" class="cls-62" d="M8.03 45.84l-1.59-.91 8.32-4.83 1.59.93-8.32 4.81z"/><g id="_Группа_83" data-name="&lt;Группа&gt;"><path id="_Контур_226" data-name="&lt;Контур&gt;" class="cls-63" d="M6.25 55.11l-3-1.72V50.8l3 1.71v2.6z"/><path id="_Контур_227" data-name="&lt;Контур&gt;" class="cls-64" d="M6.08 54.78l-2.67-1.53v-.12l2.67 1.53v.12z"/><path id="_Контур_228" data-name="&lt;Контур&gt;" class="cls-64" d="M6.08 54.45l-2.67-1.52v-.12l2.67 1.53v.11z"/><path id="_Контур_229" data-name="&lt;Контур&gt;" class="cls-64" d="M6.08 54.13L3.41 52.6v-.12l2.67 1.53v.12z"/><path id="_Контур_230" data-name="&lt;Контур&gt;" class="cls-64" d="M6.08 53.8l-2.67-1.52v-.12l2.67 1.53v.11z"/><path id="_Контур_231" data-name="&lt;Контур&gt;" class="cls-64" d="M6.08 53.19l-2.67-1.53v-.37l2.67 1.53v.37z"/></g><path id="_Контур_232" data-name="&lt;Контур&gt;" class="cls-65" d="M6.44 44.93l-.01 3.79.33-.89.34 1.26.47-.81.41 1.29.05-3.73-1.59-.91z"/><path id="_Контур_233" data-name="&lt;Контур&gt;" class="cls-60" d="M18.38 47.13l-.76.45v1.01l.76-.44v-1.02z"/><path id="_Контур_234" data-name="&lt;Контур&gt;" class="cls-60" d="M19.44 46.52l-.76.44v1.02l.76-.44v-1.02z"/><path id="_Контур_235" data-name="&lt;Контур&gt;" class="cls-60" d="M20.51 45.91l-.76.44v1.02l.76-.45v-1.01z"/></g><g id="_Группа_84" data-name="&lt;Группа&gt;"><g id="_Группа_85" data-name="&lt;Группа&gt;"><g id="_Группа_86" data-name="&lt;Группа&gt;"><g id="_Группа_87" data-name="&lt;Группа&gt;"><path id="_Контур_236" data-name="&lt;Контур&gt;" class="cls-57" d="M34.55 60.78l-10.47-6.04V43.48l10.47 6.04v11.26z"/><path id="_Контур_237" data-name="&lt;Контур&gt;" class="cls-66" d="M42.86 44.69l-8.31 4.83v11.26l8.31-4.8V44.69z"/><path id="_Контур_238" data-name="&lt;Контур&gt;" class="cls-59" d="M38.08 48.92l-2.53 1.48v3.44l2.53-1.47v-3.45z"/></g><path id="_Контур_239" data-name="&lt;Контур&gt;" class="cls-60" d="M37.21 50.8l-.01 1.72-.79.45.01-1.72-.4.23.8-1.69.79.79-.4.22z"/><path id="_Контур_240" data-name="&lt;Контур&gt;" class="cls-61" d="M42.86 44.69l-8.31 4.83-4.91-2.84-1.6-.92-3.96-2.28 8.31-4.83 3.97 2.29 1.6.92 4.9 2.83z"/></g></g><path id="_Контур_241" data-name="&lt;Контур&gt;" class="cls-62" d="M29.64 46.68l-1.6-.92 8.32-4.82 1.6.92-8.32 4.82z"/><g id="_Группа_88" data-name="&lt;Группа&gt;"><path id="_Контур_242" data-name="&lt;Контур&gt;" class="cls-63" d="M27.85 55.95l-3-1.72v-2.6l3 1.72v2.6z"/><path id="_Контур_243" data-name="&lt;Контур&gt;" class="cls-64" d="M27.69 55.62l-2.67-1.53v-.12l2.67 1.53v.12z"/><path id="_Контур_244" data-name="&lt;Контур&gt;" class="cls-64" d="M27.69 55.29l-2.67-1.52v-.12l2.67 1.52v.12z"/><path id="_Контур_245" data-name="&lt;Контур&gt;" class="cls-64" d="M27.69 54.97l-2.67-1.53v-.12l2.67 1.53v.12z"/><path id="_Контур_246" data-name="&lt;Контур&gt;" class="cls-64" d="M27.69 54.64l-2.67-1.53V53l2.67 1.52v.12z"/><path id="_Контур_247" data-name="&lt;Контур&gt;" class="cls-64" d="M27.69 54.03l-2.67-1.53v-.37l2.67 1.53v.37z"/></g><path id="_Контур_248" data-name="&lt;Контур&gt;" class="cls-65" d="M28.04 45.76l-.01 3.8.33-.89.35 1.26.46-.81.42 1.29.05-3.73-1.6-.92z"/><path id="_Контур_249" data-name="&lt;Контур&gt;" class="cls-60" d="M39.98 47.97l-.76.44v1.02l.76-.44v-1.02z"/><path id="_Контур_250" data-name="&lt;Контур&gt;" class="cls-60" d="M41.05 47.36l-.76.44v1.02l.76-.44v-1.02z"/><path id="_Контур_251" data-name="&lt;Контур&gt;" class="cls-60" d="M42.11 46.74l-.76.45v1.01l.76-.44v-1.02z"/></g><g id="_Группа_89" data-name="&lt;Группа&gt;"><g id="_Группа_90" data-name="&lt;Группа&gt;"><g id="_Группа_91" data-name="&lt;Группа&gt;"><g id="_Группа_92" data-name="&lt;Группа&gt;"><path id="_Контур_252" data-name="&lt;Контур&gt;" class="cls-57" d="M24.56 66.57l-10.47-6.04V49.27l10.47 6.04v11.26z"/><path id="_Контур_253" data-name="&lt;Контур&gt;" class="cls-66" d="M32.87 50.48l-8.31 4.83v11.26l8.31-4.79v-11.3z"/><path id="_Контур_254" data-name="&lt;Контур&gt;" class="cls-59" d="M28.09 54.72l-2.54 1.47v3.44l2.54-1.47v-3.44z"/></g><path id="_Контур_255" data-name="&lt;Контур&gt;" class="cls-60" d="M27.22 56.59l-.01 1.72-.79.45.01-1.71-.4.22.8-1.69.78.79-.39.22z"/><path id="_Контур_256" data-name="&lt;Контур&gt;" class="cls-61" d="M32.87 50.49l-8.31 4.82-4.92-2.84-1.59-.91-3.96-2.29 8.31-4.82 3.97 2.28 1.6.93 4.9 2.83z"/></g></g><path id="_Контур_257" data-name="&lt;Контур&gt;" class="cls-62" d="M19.64 52.47l-1.59-.91 8.32-4.83 1.6.93-8.33 4.81z"/><g id="_Группа_93" data-name="&lt;Группа&gt;"><path id="_Контур_258" data-name="&lt;Контур&gt;" class="cls-63" d="M17.86 61.74l-3-1.72v-2.59l3 1.71v2.6z"/><path id="_Контур_259" data-name="&lt;Контур&gt;" class="cls-64" d="M17.7 61.41l-2.68-1.53v-.11l2.68 1.52v.12z"/><path id="_Контур_260" data-name="&lt;Контур&gt;" class="cls-64" d="M17.7 61.08l-2.68-1.52v-.12l2.68 1.53v.11z"/><path id="_Контур_261" data-name="&lt;Контур&gt;" class="cls-64" d="M17.7 60.76l-2.68-1.53v-.12l2.68 1.53v.12z"/><path id="_Контур_262" data-name="&lt;Контур&gt;" class="cls-64" d="M17.7 60.43l-2.68-1.52v-.12l2.68 1.52v.12z"/><path id="_Контур_263" data-name="&lt;Контур&gt;" class="cls-64" d="M17.7 59.82l-2.68-1.53v-.37l2.68 1.53v.37z"/></g><path id="_Контур_264" data-name="&lt;Контур&gt;" class="cls-65" d="M18.05 51.56l-.01 3.79.33-.89.34 1.26.47-.81.41 1.29.05-3.73-1.59-.91z"/><path id="_Контур_265" data-name="&lt;Контур&gt;" class="cls-60" d="M29.99 53.76l-.76.45v1.01l.76-.44v-1.02z"/><path id="_Контур_266" data-name="&lt;Контур&gt;" class="cls-60" d="M31.05 53.15l-.75.44v1.02l.75-.44v-1.02z"/><path id="_Контур_267" data-name="&lt;Контур&gt;" class="cls-60" d="M32.12 52.53l-.76.45v1.01l.76-.44v-1.02z"/></g></g></g></g></g></g></svg>