<svg xmlns="http://www.w3.org/2000/svg" viewBox="0 0 511 511" fill="#FFF"><path d="M487.7 319l14.6-14.6c9.2-9.2 9.2-24.2 0-33.4-4.5-4.5-10.4-6.9-16.7-6.9-4.7 0-9.3 1.4-13.1 4l-3.1-10.3 15.8-15.8c9.2-9.2 9.2-24.2 0-33.4-8.5-8.5-21.8-9.1-31.1-2l-18.8-63c7.5-7.2 14.7-14.2 21.4-21 19.5-19.5 35.3-40.1 44.6-58.1 15.7-30.4 9.1-46.6.8-54.9-8.3-8.3-24.5-14.8-54.9.9-18 9.3-38.6 25.1-58.1 44.6-6.8 6.8-13.8 13.9-21 21.4l-63-18.8c7.1-9.2 6.5-22.6-2-31.1-9.2-9.2-24.2-9.2-33.4 0l-15.8 15.8-10.3-3.1c2.6-3.8 4-8.4 4-13.1 0-6.3-2.5-12.2-6.9-16.7-9.2-9.2-24.2-9.2-33.4 0L193 24.3 118.5 2.1c-2.7-.8-5.6-.1-7.5 1.9L91.8 23.2c-3.2 3.2-2.8 8.7.9 11.4l188 137.6c-42.4 47.8-83.2 95.6-112 129.8l-55.3-21.3c-2.8-1.1-5.9-.4-8 1.7l-22.7 22.7c-2.9 2.9-2.9 7.7 0 10.7l113.6 113.6c2.9 2.9 7.8 2.9 10.7 0l22.7-22.7c2.1-2.1 2.8-5.3 1.7-8L210 343.4c34.2-28.8 82-69.6 129.8-112l14.9 20.4c2.7 3.6 8 4.1 11.3 1 2.7-2.6 3.1-6.9.9-9.9l-15.8-21.6c25-22.3 49.7-44.8 72.1-66l71 238.3-9.8 9.8-97.5-133.3c-2.5-3.4-7.2-4.1-10.5-1.6-3.4 2.5-4.1 7.2-1.6 10.5l102.7 140.4c2.7 3.7 8.2 4.1 11.4.9L508 401c2-2 2.7-4.8 1.9-7.5L487.7 319zm-207-281.6c3.3-3.3 8.8-3.3 12.1 0 3.3 3.3 3.3 8.7 0 12.1l-3.5 3.5-18.6-5.5 10-10.1zm-62.5-17.1c3.3-3.3 8.7-3.3 12.1 0 3.3 3.3 3.3 8.7 0 12.1l-2.3 2.3-18.6-5.5 8.8-8.9zm-109.5 7.3l9.8-9.8 238.3 71c-21.2 22.4-43.7 47.1-66 72.1L108.7 27.6zm3.8 268.9l45.9 17.6c-11.5 13.7-20.3 24.3-25.5 30.6l-34.3-34.3 13.9-13.9zm31 58.9C169.8 323.8 308.6 157.2 400 65.8c18.1-18.1 37.9-33.4 54.3-41.9 12.3-6.4 28.7-12.1 37.3-3.6 8.5 8.5 2.8 25-3.6 37.3-8.5 16.4-23.7 36.2-41.9 54.3-91.4 91.4-258 230.3-289.7 256.5l-12.9-13zm72 44.1l-13.9 13.9-34.3-34.3c6.3-5.2 16.9-14 30.6-25.5l17.6 45.9zm264.1-117.8c3.3-3.3 8.7-3.3 12.1 0s3.3 8.7 0 12.1l-8.9 8.9-5.5-18.6 2.3-2.4zm-17.1-62.5c3.3-3.3 8.7-3.3 12.1 0 3.3 3.3 3.3 8.8 0 12.1l-10.1 10.1-5.5-18.6 3.5-3.6zm-10.3 215.7l-64.3 64.3c-2.7 2.7-2.9 7.3-.4 10.2 2.8 3.3 8 3.5 11.1.4l64.3-64.3c2.9-2.9 2.9-7.7 0-10.7-3-2.9-7.8-2.9-10.7.1z"/><path d="M430.7 413.4c2.9-2.9 2.9-7.7 0-10.7-2.9-2.9-7.7-2.9-10.7 0l-40.2 40.2c-2.7 2.7-2.9 7.3-.4 10.2 2.8 3.3 8 3.5 11.1.4l40.2-40.1zm-24.1-40.2c2.9-2.9 2.9-7.7 0-10.7-2.9-2.9-7.7-2.9-10.7 0l-28.1 28.1c-2.7 2.7-2.9 7.3-.4 10.2 2.8 3.3 8 3.5 11.1.4l28.1-28zM77.1 53.2c-2.9-2.9-7.7-2.9-10.7 0L2.2 117.4c-2.9 2.9-2.9 7.7 0 10.7 2.9 2.9 7.8 2.9 10.7 0l64.3-64.3c2.9-2.9 2.9-7.7-.1-10.6zm32.2 32.1c-2.9-2.9-7.7-2.9-10.7 0l-40.2 40.2c-2.7 2.7-2.9 7.3-.4 10.2 2.8 3.3 8 3.5 11.1.4L109.3 96c2.9-3 2.9-7.8 0-10.7zm1.4 62.9c2.9 2.9 7.8 2.9 10.7 0l28.1-28.1c2.9-2.9 2.9-7.7 0-10.7-2.9-2.9-7.7-2.9-10.7 0l-28.1 28.1c-3 3-3 7.7 0 10.7z"/></svg>