<svg xmlns="http://www.w3.org/2000/svg" viewBox="0 0 512 323.8" fill="#FFF"><path d="M476.2 137.3l-13.3-53c3.6-.8 6.3-4 6.3-7.8v-8.6c0-18.6-15.1-33.7-33.7-33.7h-60.4V16.6c0-9.1-7.4-16.6-16.6-16.6H50.8c-9.1 0-16.6 7.4-16.6 16.6V162c0 4.4 3.6 8 8 8s8-3.6 8-8V16.6c0-.3.2-.5.5-.5h307.8c.3 0 .5.2.5.5V162c0 4.4 3.6 8 8 8s8-3.6 8-8v-9.1h94.6c11.6 0 21.5 7.6 24.9 18.2h-24.9c-4.4 0-8 3.6-8 8v17.1c0 13.9 11.3 25.1 25.1 25.1h9.1v35.3h-21c-6.9-19.9-25.8-34.2-48-34.2s-41.1 14.3-48 34.2h-3.9v-60.4c0-4.4-3.6-8-8-8s-8 3.6-8 8v60.4H192.8c-6.9-19.9-25.8-34.2-48-34.2s-41.1 14.3-48 34.2h-46c-.3 0-.5-.2-.5-.5v-17.6H85c4.4 0 8-3.6 8-8s-3.6-8-8-8H8c-4.4 0-8 3.6-8 8s3.6 8 8 8h26.2V256c0 9.1 7.4 16.6 16.6 16.6h43.3v.5c0 28 22.8 50.8 50.8 50.8s50.8-22.8 50.8-50.8v-.5h180.7v.5c0 28 22.8 50.8 50.8 50.8s50.8-22.8 50.8-50.8v-.5h26c4.4 0 8-3.6 8-8V179c0-21.1-15.6-38.6-35.8-41.7zm-101-87.1h60.4c9.7 0 17.6 7.9 17.6 17.6v.5h-78V50.2zm0 86.6V84.4h71.2l13.1 52.4h-84.3zm-230.4 171c-19.2 0-34.7-15.6-34.7-34.7s15.6-34.7 34.7-34.7 34.7 15.6 34.7 34.7-15.5 34.7-34.7 34.7zm282.2 0c-19.2 0-34.7-15.6-34.7-34.7s15.6-34.7 34.7-34.7c19.2 0 34.7 15.6 34.7 34.7s-15.5 34.7-34.7 34.7zm69-102.6h-9.1c-5 0-9.1-4.1-9.1-9.1V187H496v18.2z"/><path d="M144.8 256.5c-9.1 0-16.6 7.4-16.6 16.6s7.4 16.6 16.6 16.6c9.1 0 16.6-7.4 16.6-16.6 0-9.1-7.4-16.6-16.6-16.6zm282.2 0c-9.1 0-16.6 7.4-16.6 16.6s7.4 16.6 16.6 16.6 16.6-7.4 16.6-16.6-7.4-16.6-16.6-16.6zm-94-34.2H213.2c-4.4 0-8 3.6-8 8s3.6 8 8 8H333c4.4 0 8-3.6 8-8s-3.6-8-8-8zm-205.3-34.2H25.1c-4.4 0-8 3.6-8 8s3.6 8 8 8h102.6c4.4 0 8-3.6 8-8s-3.5-8-8-8zM278.8 79.3c-3.1-3.1-8.2-3.1-11.3 0l-71.3 71.3-37.1-37.1c-3.1-3.1-8.2-3.1-11.3 0-3.1 3.1-3.1 8.2 0 11.3l42.8 42.8c1.6 1.6 3.6 2.3 5.7 2.3s4.1-.8 5.7-2.3l77-77c2.9-3.1 2.9-8.2-.2-11.3z"/></svg>