<svg xmlns="http://www.w3.org/2000/svg" viewBox="0 0 100 55"><path d="M100 40c0 4.3-3.4 7.8-7.6 8-.2 3.7-3.3 6.6-7 6.6s-6.7-2.9-7-6.6h-5c-.2 3.7-3.3 6.6-7 6.6s-6.7-2.9-7-6.6h-19c-.2 3.7-3.3 6.6-7 6.6s-6.7-2.9-7-6.6h-5c-.2 3.7-3.3 6.6-7 6.6s-6.8-2.9-7-6.6C3.3 47.7 0 44.2 0 40V8c0-4.4 3.6-8 8-8h68c13.3 0 24 10.7 24 24v16zm-60.6 8H28.8c.1 1.2.7 2.3 1.7 3.2 2 1.7 4.9 1.4 6.6-.6.1-.2.4-.2.5 0 .2.1.2.4 0 .5-1.9 2.3-5.3 2.6-7.6.7-1.1-.9-1.8-2.3-1.9-3.7h-.6c.2 3.1 2.8 5.6 6 5.6 3-.1 5.6-2.6 5.9-5.7zm-19 0H9.7c.1 1.2.7 2.3 1.7 3.2 2 1.7 4.9 1.4 6.6-.6.1-.2.4-.2.5 0 .2.1.2.4 0 .5-1.9 2.3-5.3 2.6-7.6.7-1.1-1-1.8-2.4-1.9-3.8h-.6c.2 3.1 2.8 5.6 6 5.6 3.1 0 5.7-2.5 6-5.6zm71 0H80.8c.1 1.2.7 2.3 1.7 3.2 2 1.7 4.9 1.4 6.6-.6.1-.2.4-.2.5 0 .2.1.2.4 0 .5-1.9 2.3-5.3 2.6-7.6.7-1.1-.9-1.8-2.3-1.9-3.7h-.6c.2 3.1 2.8 5.6 6 5.6 3-.1 5.6-2.6 5.9-5.7zm-19 0H61.8v.2c.2 1.1.7 2.2 1.6 2.9 2 1.7 4.9 1.4 6.6-.6.1-.2.4-.2.5 0 .2.1.2.4 0 .5-1.9 2.3-5.3 2.6-7.6.7-1.1-.9-1.8-2.3-1.9-3.7h-.6c.2 3.1 2.8 5.6 6 5.6 3.1 0 5.7-2.5 6-5.6zM1 40c0 3.8 3.1 7 7 7h40V31H1v9zm98 0h-4c-1.1 0-2-.9-2-2v-2c0-1.1.9-2 2-2h4v-3H65v16h27.2c3.8-.1 6.8-3.2 6.8-7zM63 7H50c-.6 0-1 .4-1 1v39h15V8c0-.6-.4-1-1-1zm36 28h-4c-.6 0-1 .4-1 1v2c0 .6.4 1 1 1h4v-4zm-37-5v1H51v-1h11zM76 1H8C4.1 1 1 4.1 1 8v22h47V8c0-1.1.9-2 2-2h13c1.1 0 2 .9 2 2v22h34v-6C99 11.3 88.7 1 76 1zm3 5c8.3 0 15 6.7 15 15v1c0 1.1-.9 2-2 2H71c-1.1 0-2-.9-2-2V8c0-1.1.9-2 2-2h8zM22 6c1.1 0 2 .9 2 2v14c0 1.1-.9 2-2 2H8c-1.1 0-2-.9-2-2V8c0-1.1.9-2 2-2h14zm20 0c1.1 0 2 .9 2 2v14c0 1.1-.9 2-2 2H28c-1.1 0-2-.9-2-2V8c0-1.1.9-2 2-2h14zm37 1h-8c-.6 0-1 .4-1 1v14c0 .6.4 1 1 1h21c.6 0 1-.4 1-1v-1c0-7.7-6.3-14-14-14zM22 7H8c-.6 0-1 .4-1 1v14c0 .6.4 1 1 1h14c.6 0 1-.4 1-1V8c0-.6-.4-1-1-1zm20 0H28c-.6 0-1 .4-1 1v14c0 .6.4 1 1 1h14c.6 0 1-.4 1-1V8c0-.6-.4-1-1-1z" fill="#003d90"/></svg>