<svg xmlns="http://www.w3.org/2000/svg" viewBox="0 0 90.74 62.65"><defs><clipPath id="clip-path"><path class="cls-1" d="M16.88 60.57a1.18 1.18 0 00-.17.57.3.3 0 00.51.29 1.29 1.29 0 00.58-1 .3.3 0 00-.51-.29 1.18 1.18 0 00-.41.43z"/></clipPath><clipPath id="clip-path-2"><path class="cls-1" d="M18 61.23a1.18 1.18 0 00-.17.57.3.3 0 00.51.29 1.29 1.29 0 00.58-1 .3.3 0 00-.51-.29 1.18 1.18 0 00-.41.43z"/></clipPath><clipPath id="clip-path-3"><path class="cls-1" d="M56.17 53.89a1.18 1.18 0 00-.17.57.3.3 0 00.51.29 1.29 1.29 0 00.58-1 .3.3 0 00-.51-.29 1.18 1.18 0 00-.41.43z"/></clipPath><clipPath id="clip-path-4"><path class="cls-1" d="M57.31 54.54a1.18 1.18 0 00-.17.57.3.3 0 00.51.29 1.29 1.29 0 00.58-1 .3.3 0 00-.51-.29 1.18 1.18 0 00-.41.43z"/></clipPath><clipPath id="clip-path-5"><path class="cls-1" d="M11.47 30.68a1.18 1.18 0 00-.17.57.3.3 0 00.51.29 1.29 1.29 0 00.58-1 .3.3 0 00-.51-.29 1.18 1.18 0 00-.41.43z"/></clipPath><clipPath id="clip-path-6"><path class="cls-1" d="M12.61 31.34a1.18 1.18 0 00-.17.57.3.3 0 00.51.29 1.29 1.29 0 00.58-1 .3.3 0 00-.53-.3 1.18 1.18 0 00-.39.44z"/></clipPath><linearGradient id="linear-gradient" x1="34.24" y1="29.95" x2="42.06" y2="43.48" gradientUnits="userSpaceOnUse"><stop offset="0" stop-color="#f5f5f5"/><stop offset=".43" stop-color="#e8e8e8"/><stop offset="1" stop-color="#cfcfcf"/></linearGradient><style>.cls-1{fill:none}.cls-2{fill:#2a2a2a}.cls-3{fill:#3a3a3a}.cls-4{fill:#b3b3b3}.cls-5{fill:#828282}.cls-6{fill:#999}.cls-8{fill:#545454}.cls-9{fill:#6b6b6b}.cls-10{fill:#afafaf}.cls-11{fill:#ddd}.cls-17{fill:#4e8bff}.cls-18{fill:#262626}.cls-19{fill:#4e4e4e}.cls-20{fill:#e8e8e8}.cls-21{fill:#5f5f5f}.cls-22{fill:#373737}.cls-23{fill:#d9d9d9}.cls-24{fill:#5e96ff}.cls-26{fill:#3e3e3e}</style></defs><g id="Слой_2" data-name="Слой 2"><g id="Layer_2" data-name="Layer 2"><path class="cls-2" d="M16.59 61.93a.48.48 0 01-.16-.15.82.82 0 01-.11-.45 2.07 2.07 0 01.93-1.62.82.82 0 01.45-.13.47.47 0 01.21.06l-.72-.41a.66.66 0 00-.66.07 2.07 2.07 0 00-.93 1.62.66.66 0 00.27.61z"/><path class="cls-3" d="M17.25 61.87a2.07 2.07 0 00.93-1.62.66.66 0 00-.27-.61.47.47 0 00-.21-.06.82.82 0 00-.45.13 2.07 2.07 0 00-.93 1.62.82.82 0 00.11.45.48.48 0 00.16.15.66.66 0 00.66-.06z"/><path class="cls-4" d="M17.91 60.41c0-.42-.29-.59-.65-.38a1.45 1.45 0 00-.65 1.13c0 .42.29.59.65.38a1.45 1.45 0 00.65-1.13z"/><path class="cls-5" d="M17.65 60.1a.27.27 0 00-.18 0 .55.55 0 00-.19.07 1.3 1.3 0 00-.58 1 .55.55 0 000 .2.27.27 0 00.11.14.36.36 0 00.36 0 1.29 1.29 0 00.58-1 .36.36 0 00-.1-.41z"/><path class="cls-6" d="M17.47 60.07a.55.55 0 00-.19.07 1.3 1.3 0 00-.58 1 .55.55 0 000 .2.53.53 0 00.19-.07 1.29 1.29 0 00.58-1 .53.53 0 000-.2z"/><g clip-path="url(#clip-path)"><path class="cls-2" d="M16.95 61.08a.25.25 0 010-.14.63.63 0 01.28-.49.25.25 0 01.14 0h.06l-.22-.13a.2.2 0 00-.2 0 .63.63 0 00-.28.49.2.2 0 00.08.18z"/><path class="cls-3" d="M17.15 61.06a.63.63 0 00.28-.49.2.2 0 00-.08-.18h-.06a.25.25 0 00-.14 0 .63.63 0 00-.28.49.25.25 0 000 .14.2.2 0 00.28.04z"/><path class="cls-8" d="M17.28 60.5h-.13a.41.41 0 00-.18.32.16.16 0 000 .08.13.13 0 00.13 0 .41.41 0 00.18-.32.13.13 0 000-.08z"/><path class="cls-9" d="M17.23 60.49h-.08a.41.41 0 00-.18.32.16.16 0 000 .08h.08a.41.41 0 00.18-.32.17.17 0 000-.08z"/></g><path class="cls-6" d="M17.09 61.6l.24.14v-6.46l-.24-.14v6.46z"/><path class="cls-10" d="M17.33 61.74l.24-.14v-6.46l-.24.14v6.46z"/><path class="cls-11" d="M17.33 55.28l-.24-.14.24-.14.24.14-.24.14z"/><path class="cls-2" d="M17.73 62.59a.48.48 0 01-.16-.15.82.82 0 01-.11-.45 2.07 2.07 0 01.93-1.62.82.82 0 01.45-.13.47.47 0 01.21.06l-.72-.41a.66.66 0 00-.66.07 2.07 2.07 0 00-.93 1.62.66.66 0 00.27.61z"/><path class="cls-3" d="M18.39 62.53a2.07 2.07 0 00.93-1.62.66.66 0 00-.27-.61.47.47 0 00-.21-.06.82.82 0 00-.45.13 2.07 2.07 0 00-.93 1.63.82.82 0 00.11.45.48.48 0 00.16.15.66.66 0 00.66-.07z"/><path class="cls-4" d="M19 61.07c0-.42-.29-.59-.65-.38a1.45 1.45 0 00-.65 1.13c0 .42.29.59.65.38a1.45 1.45 0 00.65-1.13z"/><path class="cls-5" d="M18.79 60.75a.27.27 0 00-.18 0 .55.55 0 00-.19.07 1.3 1.3 0 00-.58 1 .55.55 0 000 .2.27.27 0 00.11.14.36.36 0 00.36 0 1.29 1.29 0 00.58-1 .36.36 0 00-.1-.41z"/><path class="cls-6" d="M18.61 60.73a.55.55 0 00-.19.07 1.3 1.3 0 00-.58 1 .55.55 0 000 .2.53.53 0 00.19-.07 1.29 1.29 0 00.58-1 .53.53 0 000-.2z"/><g clip-path="url(#clip-path-2)"><path class="cls-2" d="M18.09 61.73a.25.25 0 010-.14.63.63 0 01.28-.49.25.25 0 01.14 0h.06l-.22-.13a.2.2 0 00-.2 0 .63.63 0 00-.28.49.2.2 0 00.08.18z"/><path class="cls-3" d="M18.29 61.71a.63.63 0 00.28-.49.2.2 0 00-.08-.18h-.06a.25.25 0 00-.14 0 .63.63 0 00-.28.49.25.25 0 000 .14.2.2 0 00.28.04z"/><path class="cls-8" d="M18.42 61.16h-.13a.41.41 0 00-.18.32.16.16 0 000 .08.13.13 0 00.13 0 .41.41 0 00.18-.32.13.13 0 000-.08z"/><path class="cls-9" d="M18.36 61.15h-.08a.41.41 0 00-.18.32.16.16 0 000 .08h.08a.41.41 0 00.18-.32.17.17 0 000-.08z"/></g><path class="cls-2" d="M55.88 55.25a.48.48 0 01-.16-.15.82.82 0 01-.11-.45 2.07 2.07 0 01.93-1.65.82.82 0 01.45-.13.47.47 0 01.21.06l-.72-.41a.66.66 0 00-.66.07 2.07 2.07 0 00-.93 1.62.66.66 0 00.27.61z"/><path class="cls-3" d="M56.54 55.18a2.07 2.07 0 00.93-1.62.66.66 0 00-.27-.61.47.47 0 00-.21-.06.82.82 0 00-.45.13 2.07 2.07 0 00-.93 1.62.82.82 0 00.11.45.48.48 0 00.16.15.66.66 0 00.66-.06z"/><path class="cls-4" d="M57.2 53.72c0-.42-.29-.59-.65-.38a1.45 1.45 0 00-.65 1.13c0 .42.29.59.65.38a1.45 1.45 0 00.65-1.13z"/><path class="cls-5" d="M56.94 53.41a.27.27 0 00-.18 0 .55.55 0 00-.19.07 1.3 1.3 0 00-.58 1 .55.55 0 000 .2.27.27 0 00.11.14.36.36 0 00.36 0 1.29 1.29 0 00.58-1 .36.36 0 00-.1-.41z"/><path class="cls-6" d="M56.77 53.38a.55.55 0 00-.19.07 1.3 1.3 0 00-.58 1 .55.55 0 000 .2.53.53 0 00.19-.07 1.29 1.29 0 00.58-1 .53.53 0 000-.2z"/><g clip-path="url(#clip-path-3)"><path class="cls-2" d="M56.24 54.39a.25.25 0 010-.14.63.63 0 01.28-.49.25.25 0 01.14 0h.06l-.22-.13a.2.2 0 00-.2 0 .63.63 0 00-.28.49.2.2 0 00.08.18z"/><path class="cls-3" d="M56.44 54.37a.63.63 0 00.28-.49.2.2 0 00-.08-.18h-.06a.25.25 0 00-.14 0 .63.63 0 00-.28.49.25.25 0 000 .14.2.2 0 00.28.04z"/><path class="cls-8" d="M56.57 53.82h-.13a.41.41 0 00-.18.32.16.16 0 000 .08.13.13 0 00.13 0 .41.41 0 00.18-.32.13.13 0 000-.08z"/><path class="cls-9" d="M56.52 53.8h-.08a.41.41 0 00-.18.32.16.16 0 000 .08h.08a.41.41 0 00.18-.32.17.17 0 000-.08z"/></g><path class="cls-6" d="M56.38 54.91l.24.14v-6.46l-.24-.14v6.46z"/><path class="cls-10" d="M56.62 55.05l.24-.14v-6.46l-.24.14v6.46z"/><path class="cls-11" d="M56.62 48.59l-.24-.14.24-.14.24.14-.24.14z"/><path class="cls-2" d="M57 55.9a.48.48 0 01-.16-.15.82.82 0 01-.11-.45 2.07 2.07 0 01.93-1.62.82.82 0 01.45-.13.47.47 0 01.21.06l-.72-.41a.66.66 0 00-.66.07 2.07 2.07 0 00-.94 1.61.66.66 0 00.27.61z"/><path class="cls-3" d="M57.68 55.84a2.07 2.07 0 00.93-1.62.66.66 0 00-.27-.61.47.47 0 00-.21-.06.82.82 0 00-.45.13 2.07 2.07 0 00-.93 1.62.82.82 0 00.11.45.48.48 0 00.16.15.66.66 0 00.66-.06z"/><path class="cls-4" d="M58.34 54.38c0-.42-.29-.59-.65-.38a1.45 1.45 0 00-.69 1.14c0 .42.29.59.65.38a1.45 1.45 0 00.69-1.14z"/><path class="cls-5" d="M58.08 54.07a.27.27 0 00-.18 0 .55.55 0 00-.19.07 1.3 1.3 0 00-.58 1 .55.55 0 000 .2.27.27 0 00.11.14.36.36 0 00.36 0 1.29 1.29 0 00.58-1 .36.36 0 00-.1-.41z"/><path class="cls-6" d="M57.91 54a.55.55 0 00-.19.07 1.3 1.3 0 00-.58 1 .55.55 0 000 .2.53.53 0 00.19-.07 1.29 1.29 0 00.58-1 .53.53 0 000-.2z"/><g clip-path="url(#clip-path-4)"><path class="cls-2" d="M57.38 55a.25.25 0 010-.14.63.63 0 01.28-.49.25.25 0 01.14 0h.06l-.22-.13a.2.2 0 00-.2 0 .63.63 0 00-.28.49.2.2 0 00.08.18z"/><path class="cls-3" d="M57.58 55a.63.63 0 00.28-.49.2.2 0 00-.08-.18h-.06a.25.25 0 00-.14 0 .63.63 0 00-.28.49.25.25 0 000 .14.2.2 0 00.28.04z"/><path class="cls-8" d="M57.71 54.47h-.13a.41.41 0 00-.18.32.16.16 0 000 .08.13.13 0 00.13 0 .41.41 0 00.18-.32.13.13 0 000-.08z"/><path class="cls-9" d="M57.66 54.46h-.08a.41.41 0 00-.18.32.16.16 0 000 .08h.08a.41.41 0 00.18-.32.17.17 0 000-.08z"/></g><path class="cls-2" d="M11.18 32a.48.48 0 01-.16-.15.82.82 0 01-.11-.45 2.07 2.07 0 01.93-1.62.82.82 0 01.45-.13.47.47 0 01.21.06l-.72-.41a.66.66 0 00-.66.07 2.07 2.07 0 00-.93 1.63.66.66 0 00.27.61z"/><path class="cls-3" d="M11.84 32a2.07 2.07 0 00.93-1.62.66.66 0 00-.27-.61.47.47 0 00-.21-.06.82.82 0 00-.45.13 2.07 2.07 0 00-.93 1.62.82.82 0 00.11.45.48.48 0 00.16.15.66.66 0 00.66-.06z"/><path class="cls-4" d="M12.5 30.52c0-.42-.29-.59-.65-.38a1.45 1.45 0 00-.65 1.13c0 .42.29.59.65.38a1.45 1.45 0 00.65-1.13z"/><path class="cls-5" d="M12.24 30.2a.27.27 0 00-.18 0 .55.55 0 00-.19.07 1.3 1.3 0 00-.58 1 .55.55 0 000 .2.27.27 0 00.11.14.36.36 0 00.36 0 1.29 1.29 0 00.58-1 .36.36 0 00-.1-.41z"/><path class="cls-6" d="M12.07 30.17a.55.55 0 00-.19.07 1.3 1.3 0 00-.58 1 .55.55 0 000 .2.53.53 0 00.19-.07 1.29 1.29 0 00.58-1 .53.53 0 000-.2z"/><g clip-path="url(#clip-path-5)"><path class="cls-2" d="M11.54 31.18a.25.25 0 010-.14.63.63 0 01.28-.49.25.25 0 01.14 0h.06l-.22-.13a.2.2 0 00-.2 0 .63.63 0 00-.28.49.2.2 0 00.08.18z"/><path class="cls-3" d="M11.74 31.16a.63.63 0 00.28-.49.2.2 0 00-.08-.18h-.06a.25.25 0 00-.14 0 .63.63 0 00-.28.49.25.25 0 000 .14.2.2 0 00.28.04z"/><path class="cls-8" d="M11.87 30.61h-.13a.41.41 0 00-.18.32.16.16 0 000 .08.13.13 0 00.13 0 .41.41 0 00.18-.32.13.13 0 000-.08z"/><path class="cls-9" d="M11.82 30.6h-.08a.41.41 0 00-.18.32.16.16 0 000 .08h.08a.41.41 0 00.18-.32.17.17 0 000-.08z"/></g><path class="cls-6" d="M11.68 31.71l.24.13v-6.46l-.24-.14v6.47z"/><path class="cls-10" d="M11.92 31.84l.24-.13v-6.47l-.24.14v6.46z"/><path class="cls-11" d="M11.92 25.38l-.24-.14.24-.14.24.14-.24.14z"/><path class="cls-2" d="M12.32 32.7a.48.48 0 01-.16-.15.82.82 0 01-.11-.45 2.07 2.07 0 01.95-1.63.82.82 0 01.45-.13.47.47 0 01.21.06l-.74-.4a.66.66 0 00-.66.07 2.07 2.07 0 00-.93 1.62.66.66 0 00.27.61z"/><path class="cls-3" d="M13 32.63a2.07 2.07 0 00.92-1.63.66.66 0 00-.27-.61.47.47 0 00-.21-.06.82.82 0 00-.45.13 2.07 2.07 0 00-.99 1.63.82.82 0 00.11.45.48.48 0 00.16.15.66.66 0 00.73-.06z"/><path class="cls-4" d="M13.64 31.17c0-.42-.29-.59-.65-.38a1.45 1.45 0 00-.65 1.13c0 .42.29.59.65.38a1.45 1.45 0 00.65-1.13z"/><path class="cls-5" d="M13.38 30.86a.27.27 0 00-.18 0 .55.55 0 00-.19.07 1.3 1.3 0 00-.58 1 .55.55 0 000 .2.27.27 0 00.11.14.36.36 0 00.36 0 1.29 1.29 0 00.58-1 .36.36 0 00-.1-.41z"/><path class="cls-6" d="M13.2 30.83a.55.55 0 00-.19.07 1.3 1.3 0 00-.58 1 .55.55 0 000 .2.53.53 0 00.19-.07 1.29 1.29 0 00.58-1 .53.53 0 000-.2z"/><g clip-path="url(#clip-path-6)"><path class="cls-2" d="M12.68 31.84a.25.25 0 010-.14.63.63 0 01.28-.49.25.25 0 01.14 0h.06l-.3-.21a.2.2 0 00-.2 0 .63.63 0 00-.28.49.2.2 0 00.08.18z"/><path class="cls-3" d="M12.88 31.82a.63.63 0 00.28-.49.2.2 0 00-.08-.18h-.06a.25.25 0 00-.14 0 .63.63 0 00-.28.49.25.25 0 000 .14.2.2 0 00.28.04z"/><path class="cls-8" d="M13 31.27h-.08a.41.41 0 00-.18.32.16.16 0 000 .08.13.13 0 00.13 0 .41.41 0 00.18-.32.13.13 0 00-.05-.08z"/><path class="cls-9" d="M13 31.25h-.08a.41.41 0 00-.18.32.16.16 0 000 .08h.08a.41.41 0 00.18-.32.17.17 0 000-.08z"/></g><path class="cls-17" d="M4.07 23.89s2-2.75 7.81-3.13a2.17 2.17 0 011.45 3.77 13.55 13.55 0 01-6.22 3.74z"/><path class="cls-18" d="M8 27a1.29 1.29 0 01-.5 1.12l-.13.07A1.69 1.69 0 015.89 28a4 4 0 01-2.13-3.19 1.24 1.24 0 01.62-1.19l.14-.06a1.8 1.8 0 011.37.19A4 4 0 018 27z"/><path class="cls-8" d="M8 27a1.29 1.29 0 01-.5 1.12l-.13.07A1.69 1.69 0 015.89 28a4 4 0 01-2.13-3.19 1.24 1.24 0 01.62-1.19l.14-.06a1.8 1.8 0 011.37.19A4 4 0 018 27z"/><path class="cls-18" d="M7.82 26.69c0 1-.78 1.35-1.74.87a3.27 3.27 0 01-1.74-2.6c0-1 .78-1.35 1.74-.87a3.27 3.27 0 011.74 2.6z"/><path class="cls-19" d="M6.71 26a.28.28 0 01-.12.25h-.14c-1.5.4-.91-.56-.67-.9l.09-.12a.36.36 0 01.36 0 .89.89 0 01.48.77z"/><path class="cls-17" d="M15 33.51s2-2.75 7.81-3.13a2.17 2.17 0 011.45 3.77 13.55 13.55 0 01-6.22 3.74z"/><path class="cls-8" d="M19 36.59a1.29 1.29 0 01-.5 1.12l-.13.07a1.69 1.69 0 01-1.51-.13 4 4 0 01-2.13-3.19 1.24 1.24 0 01.62-1.19l.14-.06a1.8 1.8 0 011.37.19A4 4 0 0119 36.59z"/><path class="cls-18" d="M18.79 36.3c0 1-.78 1.35-1.74.87a3.27 3.27 0 01-1.74-2.6c0-1 .78-1.35 1.74-.87a3.27 3.27 0 011.74 2.6z"/><path class="cls-19" d="M17.68 35.62a.28.28 0 01-.12.25h-.14c-1.5.4-.91-.56-.67-.9l.09-.12a.36.36 0 01.36 0 .89.89 0 01.48.77z"/><path class="cls-20" d="M39.05 30.86l-1.59.92-13.22 7.63L.69 16.44l5.75-2.88 16.59 10.5 4.89 2.08 11.13 4.72z"/><path class="cls-21" d="M24.24 39.41l-.68.69L0 17.13l.69-.69 23.55 22.97z"/><path class="cls-22" d="M24.11 40.79L.55 17.81 0 17.13 23.56 40.1l.55.69z"/><path class="cls-23" d="M39.05 30.86l-2 1.16-10.09-5.32.96-.56 11.13 4.72z"/><path class="cls-17" d="M44.06 48.41s2.27-3.05 8.65-3.47a2.12 2.12 0 01.66.08 2.43 2.43 0 01.94 4.1 15 15 0 01-6.89 4.14z"/><path class="cls-18" d="M48.42 51.83a1.43 1.43 0 01-.55 1.24l-.14.08a1.88 1.88 0 01-1.66-.15 4.44 4.44 0 01-2.36-3.54 1.38 1.38 0 01.69-1.32l.15-.06a2 2 0 011.51.21 4.44 4.44 0 012.36 3.54z"/><path class="cls-8" d="M48.42 51.83a1.43 1.43 0 01-.55 1.24l-.14.08a1.88 1.88 0 01-1.66-.15 4.44 4.44 0 01-2.36-3.54 1.38 1.38 0 01.69-1.32l.15-.06a2 2 0 011.51.21 4.44 4.44 0 012.36 3.54z"/><path class="cls-18" d="M48.21 51.5c0 1.06-.86 1.49-1.92 1a3.62 3.62 0 01-1.92-2.88c0-1.06.86-1.49 1.92-1a3.62 3.62 0 011.92 2.88z"/><path class="cls-19" d="M47 50.75a.31.31 0 01-.13.28h-.16c-1.66.45-1-.62-.74-1l.1-.13a.4.4 0 01.4 0 1 1 0 01.53.85z"/><path class="cls-17" d="M62.5 53.7s2.27-3.05 8.65-3.47a2.12 2.12 0 01.66.08 2.43 2.43 0 01.94 4.1 15 15 0 01-6.89 4.14z"/><path class="cls-8" d="M66.86 57.13a1.43 1.43 0 01-.55 1.24l-.14.08a1.88 1.88 0 01-1.67-.14 4.44 4.44 0 01-2.36-3.54 1.38 1.38 0 01.69-1.32l.15-.06a2 2 0 011.52.21 4.44 4.44 0 012.36 3.53z"/><path class="cls-18" d="M66.65 56.8c0 1.06-.86 1.49-1.92 1a3.62 3.62 0 01-1.92-2.88c0-1.06.86-1.49 1.92-1a3.62 3.62 0 011.92 2.88z"/><path class="cls-19" d="M65.42 56a.31.31 0 01-.13.28h-.16c-1.66.45-1-.62-.74-1l.1-.13a.4.4 0 01.4 0 1 1 0 01.53.85z"/><path class="cls-9" d="M74.42 17.52a.69.69 0 00.23-.22 1.19 1.19 0 00.16-.65 3 3 0 00-1.35-2.34 1.19 1.19 0 00-.65-.18.68.68 0 00-.31.09l1-.6a1 1 0 011 .09A3 3 0 0175.85 16a1 1 0 01-.4.88z"/><path class="cls-3" d="M73.46 17.43a3 3 0 01-1.35-2.34 1 1 0 01.4-.88.68.68 0 01.31-.09 1.19 1.19 0 01.65.18 3 3 0 011.35 2.34 1.19 1.19 0 01-.16.65.69.69 0 01-.23.22 1 1 0 01-.97-.08z"/><path class="cls-17" d="M67.04 16.6l-7.28 4.16-7.83-8.34 2.24-1.29 12.87 5.47z"/><path class="cls-24" d="M59.76 20.76l.02.33-7.83-8.34-.02-.33 7.83 8.34z"/><path d="M67.04 16.6l.02.33-7.28 4.16-.02-.33 7.28-4.16z"/><path d="M64.12 32.05c-39.77 22.71-45.91 26.4-48 27.38a6.31 6.31 0 01-1.44.46C8.52 61.51.65 62.56 2 56.4c0-.24.6-2.9 3.8-7.24a9.56 9.56 0 013-2.65c-.12.06 50.06-28.68 50.2-28.73C60.46 17 74.78 9.5 75.2 17c.27 4.81-10.11 14.57-11.08 15.05z" fill="url(#linear-gradient)"/><path class="cls-26" transform="rotate(-29.78 20.944 49.582)" d="M20.44 48.82h1.01v1.51h-1.01z"/><path class="cls-26" transform="rotate(-29.79 25.725 46.837)" d="M25.23 46.08h1.01v1.51h-1.01z"/><path class="cls-26" transform="rotate(-29.79 30.517 44.106)" d="M30.02 43.34h1.01v1.51h-1.01z"/><path class="cls-26" d="M4.54 51s-1.09 3.75 8.33 1.8l-.27 1.4S1.73 55.71 4.54 51z"/><path class="cls-17" d="M64.12 32.05l-32 18.29-.57.33C16 59.6 16.9 59.12 16.07 59.45a10.16 10.16 0 01-1.44.46C8.5 61.51.66 62.55 2 56.4c1.63 3.4 9.18 1.56 12.76.67 1.76-.46-2 1.52 49.19-27.77 0 0 11.07-7.48 11.26-12.3.26 4.82-10.44 14.73-11.09 15.05z"/><path class="cls-11" d="M74.18.21l-.9 14.1-9.28 5.3 5.92-16.93L74.18.21z"/><path fill="#fff" d="M74.18.21l-2.15 1.25-2.11 1.22-.32-.19 2.07-1.24L73.81 0l.37.21z"/><path fill="#f4f4f4" d="M69.92 2.68L64 19.61l-.32-.19L69.6 2.49l.32.19z"/><path class="cls-17" d="M84.28 25.08l-.32.18-2.57 1.47-17.11-3.08 7.27-4.17 12.73 5.6z"/><path fill="#457ce3" d="M84.28 25.08l.02.33-2.89 1.65-.02-.33 2.89-1.65z"/><path class="cls-24" d="M81.39 26.73l.02.33-17.11-3.08-.02-.33 17.11 3.08z"/><path class="cls-20" d="M90.74 53.7l-5.76 2.88-51.61-11.94 14.75-8.51 3.34 1.66 10.37 5.19 5.32 2.66 23.59 8.06z"/><path class="cls-22" d="M84.85 57.95L33.23 46.01l-.54-.68L84.3 57.27l.55.68z"/><path fill="#717171" d="M90.74 53.7l-.14 1.38-5.75 2.87-.55-.68.68-.69 5.76-2.88z"/><path class="cls-21" d="M84.98 56.58l-.68.69-51.61-11.94.68-.69 51.61 11.94z"/><path class="cls-6" d="M17.54 54.62a11.91 11.91 0 00-1.33-3.45l1.57-.9a.06.06 0 01.08 0 12 12 0 011.34 3.49.06.06 0 010 .06l-1.57.9zm-1.25-3.5a12 12 0 011.3 3.35l1.41-.84a11.78 11.78 0 00-1.29-3.35z"/><path class="cls-23" d="M61.83 42.98l-1 .58-11.39-4.6 2.02-1.17 10.37 5.19z"/><path class="cls-17" d="M72.03 1.46L74.18.21l-.9 14.1-2.16 1.24.91-14.09z"/><path fill="#75a5ff" d="M74.18.21l-2.15 1.25-.36-.21L73.81 0l.37.21z"/></g></g></svg>