<svg xmlns="http://www.w3.org/2000/svg" viewBox="0 0 34.95 92.11"><defs><style>.cls-1{fill:#d23530}.cls-2{fill:#3e3e3e}.cls-3{fill:#3b66c2}.cls-6{fill:#ecb68f}.cls-9{fill:#c29a77}.cls-10{fill:#94765a}</style></defs><g id="Слой_2" data-name="Слой 2"><g id="Layer_2" data-name="Layer 2"><path class="cls-1" d="M18.15 15.08s-3.66 1.7-5.08 4.92l3.58 1.75z"/><path class="cls-2" d="M15.79 77.32s-2.55 2.79-5.7 3.19c0 0-2.3.9 0 1.45a10.31 10.31 0 006.89-.7h1.4V82h2.95v-3zm14.64 6.9s-1.5 7.34 1.3 7.84 3.6-3.25 2-7.84z"/><path class="cls-3" d="M14.25 38.26s-2.09 15.79 0 25.28.75 13.68.75 13.68 3.43 4 6.36 2.6c0 0 1.58-18.75-.72-26.25l-.45-15.32z"/><path d="M17.48 38.74c-.08-.35 1.3 20.85 8.41 29.56 0 0 2.47 13.64 4.42 16.94 0 0 3.3 1.27 4.65 0 0 0-.3-16.64-2.62-21.43 0 0-1-10-.9-14.61S31.2 39 29.82 38.06s-12.34.68-12.34.68z" fill="#477beb"/><path class="cls-1" d="M17.48 15.44c-5.2 5.37-1.48 14.24-3.72 25.26 4.76 4.92 17.51 3.36 17.17-1.53-.43-6.14 3.47-13.46 2.21-19-.73-3.25-3.18-4.85-6.58-5.58-2.61-.59-7.14-1.15-9.08.85z"/><path d="M27 11.51a8.81 8.81 0 00.17 2.92c.12.66-3.49 2.84-4.15 2.57-2.24-1-1.87-1.77-1.87-1.77a15.26 15.26 0 00.23-4.07z" fill="#e3af8a"/><path class="cls-6" d="M29.43 6.66s.28 5.87-5.34 6.9a3.48 3.48 0 01-3.82-2 12.86 12.86 0 01-.85-5.84s.84-4.49 5.45-3.64 4.56 4.58 4.56 4.58z"/><path d="M19.2 6.29s1.73-1 6 .77c.27.11.69 1.21.9 1.1 3.46-1.72 1.38 3.71 1.38 3.71s1.45 0 1.89-4.1-1.17-8.05-6.56-6.64a4.47 4.47 0 00-3.61 5.16z" fill="#484848"/><path class="cls-3" d="M29.19 4.14s.12-1.14-1.57-2.67A13.25 13.25 0 0024.41.08a1.61 1.61 0 00-1.11 0 16 16 0 00-3 1.46c-1.29 1-1.5 2.77-1.69 5.27 0 0 4.25.38 5.77.27.03.05 3.82-.94 4.81-2.94z"/><path class="cls-3" d="M18.82 5.07S23.69 7 24.33 6.74 21.6 10.18 20.17 10s-1.6-1.76-4.25-1.78z"/><path fill="#f2c799" d="M11.55 29.71L1.19 23.73l10.36-5.98 10.36 5.98-10.36 5.98z"/><path class="cls-9" d="M16.2 27.03L5.84 21.04l1.05-.61 10.37 5.98-1.06.62z"/><path class="cls-10" d="M16.7 26.74L6.34 20.75l.05-.03 10.36 5.98-.05.04z"/><path fill="#c29f7a" d="M11.55 41.67L1.19 35.69V23.73l10.36 5.98v11.96z"/><path fill="#d1ac84" d="M21.91 35.69l-10.36 5.98V29.71l10.36-5.98v11.96z"/><path class="cls-9" d="M17.26 26.41v11.97l-1.06.61V27.03l1.06-.62z"/><path class="cls-10" d="M16.75 26.7v11.97l-.05.03V26.74l.05-.04z"/><path class="cls-2" d="M3.86 35.91l-1.34-.77v-.2l1.34.77v.2zm-.88-.71l-.1-.06V34.1l.1.06v1.04z"/><path class="cls-2" d="M3.59 35.56l-.1-.06v-1.04l.1.06v1.04zm-.66-1.98l.13.63-.26-.15.13-.48zm.48.83l.13-.48.13.63-.26-.15zm6.45 4.8l.06.04v-1.78l-.06-.04v1.78zm-.28-.16l.19.11v-1.78l-.19-.11v1.78zm-.19-.1l.13.07v-1.78l-.13-.08v1.79zm-.24-.15l.19.11v-1.78l-.19-.11v1.78zm-.22-.12l.2.11v-1.78l-.2-.11v1.78zm-.2-.12l.16.1v-1.79l-.16-.09v1.78zm-.2-.11l.13.07v-1.78l-.13-.08v1.79zm-.18-.11l.07.04V36.6l-.07-.04v1.78zm-.25-.14l.13.08v-1.79l-.13-.07v1.78zm-.18-.1l.07.03v-1.78l-.07-.04v1.79zm-.26-.16l.16.1v-1.79l-.16-.09v1.78zm-.17-.09l.07.03V36.1l-.07-.04v1.79zM19.43 35h.29l.27-.68a.5.5 0 01.08-.14l-.38.22a.34.34 0 00-.09.14zm.57-.46l.08.12-.08.1.31-.18.15-.39-.07.09-.07-.09h-.05a.18.18 0 00-.12.09v.09zm.19.32l.17.24.16-.09.07-.06a.25.25 0 00.06-.18.14.14 0 000-.07l-.15-.2z"/><path class="cls-2" d="M20 35.57l.16.25v-.13l.19-.11.05-.06v-.08l.16-.44a.32.32 0 01-.09.08l-.36.2v-.1zm-.47.09l-.08.21a.3.3 0 000 .11v.07c0 .01.1 0 .1 0l.32-.18v-.39z"/><path class="cls-2" d="M19.19 35.35h.09l-.08.2v.16l.19.27a.31.31 0 010-.16l.18-.45h.1l-.16-.23z"/><path fill="#f4f4f4" d="M5.5 30.34l-3.28-1.9v-1.96l3.28 1.89v1.97z"/><path d="M5.33 28.81l-2.94-1.7v-.29l2.94 1.7v.29zm0 .59l-2.94-1.7v-.29l2.94 1.7v.29zm-1.06-.02l-1.88-1.09V28l1.88 1.09v.29z" fill="#858585"/><path class="cls-6" d="M26.75 23s-3.67 6.38-6.24 8.09a20.77 20.77 0 01-6.39 2.46s1.11 2.8 2.75 2.79 8-2.92 8.66-3.43 5.14-3.16 5.81-8zm-12.5 9.71c-.62-.22-1.27-.22-2.63-.69-.46-.16-1.19.65 0 1.25.24.12.48.08.78.3s.46.23.37.34a2.38 2.38 0 001.48-1.2z"/><path class="cls-6" d="M18 35.82c-.23.74-.76.16-2.24 1.41a7.19 7.19 0 01-4.1.74.83.83 0 01-.81-.57.83.83 0 01-.53-.62.85.85 0 01-.36-.68.85.85 0 01.25-1.59l.88-.13a8.36 8.36 0 001.7-.48 2.38 2.38 0 001.46-1.2 3 3 0 01.69.34 1.69 1.69 0 001.62-.04A2.62 2.62 0 0118 35.82z"/><path class="cls-1" d="M25.61 23.93c1.16 2 2.94 2.64 5.47 3.14 0 0 4.14-5.3 1-8.43-1.89-1.85-4.9-.64-6.47 5.29z"/><path class="cls-6" d="M2.07 31.19a.45.45 0 01-.4.49l-.87.09a.45.45 0 01-.49-.4.45.45 0 01.4-.49l.87-.09a.45.45 0 01.49.4zm.11-.79a.6.6 0 01-.78.3l-1-.47a.6.6 0 01-.3-.78.6.6 0 01.78-.3l1 .47a.6.6 0 01.3.78z"/><path class="cls-6" d="M2.11 30.63a.54.54 0 01-.58.49L.49 31a.54.54 0 01-.49-.55.54.54 0 01.59-.45l1 .09a.54.54 0 01.52.54zm.32-.88a.6.6 0 01-.83.11l-.91-.69a.6.6 0 01-.11-.83.6.6 0 01.83-.11l.91.69a.6.6 0 01.11.83z"/></g></g></svg>