<svg xmlns="http://www.w3.org/2000/svg" viewBox="0 0 76.21 74.19"><defs><style>.cls-2{fill:#f7b880}.cls-3{fill:#eda86a}.cls-4{fill:#f7c68d}.cls-5{fill:#d69e67}.cls-6{fill:#ba8552}.cls-7{fill:#453224}.cls-8{fill:#f2c79a}.cls-9{fill:#d9ac7e}.cls-10{fill:#f7cfa2}.cls-11{fill:#e8b887}.cls-12{fill:#ebe4d3;mix-blend-mode:multiply}</style></defs><g style="isolation:isolate"><g id="Слой_2" data-name="Слой 2"><g id="Layer_3" data-name="Layer 3"><path class="cls-2" d="M40.21 12.88v12.88l-1.07-.62-2.27-1.32-7.81-4.51V6.44l11.15 6.44z"/><path class="cls-3" d="M51.36 6.44v12.88l-.28.17-3.26 1.89-.78.45-1.82 1.04-.98.56-.36.21-.43.25-3.24 1.87V12.88l4.52-2.61.44-.26.31-.17.01-.01.19-.11.11-.06.59-.34.07-.04v-.01l.45-.26 4.46-2.57z"/><path class="cls-4" d="M51.36 6.44L46.9 9.01l-1.72 1-4.97 2.87-11.15-6.44 4.96-2.87 1.73-.99L40.21 0l11.15 6.44z"/><path class="cls-5" d="M46.45 9.28l-1.73.99-2.12-1.22-3.88-2.24-.77-.45-3.89-2.24-.49-.29 1.73-.99 2.22 1.28 3.88 2.24.77.45 3.88 2.24.4.23z"/><path class="cls-6" d="M44.72 10.27v2.47l.29-.61.29.28.29-.62.29.28.28-.61.29.28V9.28l-1.73.99z"/><path class="cls-6" d="M34.55 3.27l-.16.09s-.07.08 11.11 6.47l.19-.11C42.67 8 34.78 3.48 34.55 3.27z"/><path class="cls-7" d="M31.41 15.46v4.47l8 4.63v-4.47zm7.81 8.74l-7.6-4.39v-4l7.6 4.39zm-7.06-6.66v-.81l.38.22.2.86.12-.68 1.19.69v.81c0 .56-.37.8-.84.59v.83l.67.39v.24l-1.54-.89v-.24l.67.39v-.84a2.1 2.1 0 01-.85-1.56zm6.79 6.06l-1.54-.89v-.24l1.54.89zm-1.23-2.32l-.17-.1.28-1 .28 1.29-.17-.1v1.13l-.1-.06-.1-.06zm.71.41l-.17-.1.28-1 .28 1.29-.17-.1v1.13l-.1-.06-.1-.06zm-4.17-2.92h.45a2.16 2.16 0 01.85.26v-.28l.21.12v.28a4.19 4.19 0 01.84.71l.46.5s0 .06 0 0l-1.3-.75v1.18c0 .41-.05.86-.47.62a.87.87 0 01-.32-.34 1.14 1.14 0 01-.14-.58l.21.14a.73.73 0 00.09.37.44.44 0 00.17.17c.13.08.26.1.26-.5v-1.11l-1.29-.74s-.05-.06-.03-.05zm.18-.68a.94.94 0 01.18-.34 3.14 3.14 0 01.18.55c0 .11-.08.16-.18.1a.39.39 0 01-.18-.31zm.68.39a.94.94 0 01.18-.34 3.14 3.14 0 01.18.55c0 .11-.08.16-.18.1a.39.39 0 01-.19-.31zm.75.43a.94.94 0 01.18-.34 3.13 3.13 0 01.18.55c0 .11-.08.16-.18.1a.39.39 0 01-.19-.31zm.68.39a.94.94 0 01.18-.34 3.14 3.14 0 01.18.55c0 .11-.08.16-.18.1a.39.39 0 01-.19-.31z"/><path class="cls-2" d="M51.92 19.21v12.88l-1.08-.62-2.27-1.32-7.8-4.51V12.77l11.15 6.44z"/><path class="cls-3" d="M63.07 12.77v12.88l-.29.17-3.26 1.89-.78.45-1.81 1.04-.98.56-.36.21-.44.24v.01l-3.23 1.87V19.21l4.51-2.61.45-.26.3-.17.02-.01.19-.11.11-.06.58-.34.07-.04v-.01h.01l.45-.26 4.46-2.57z"/><path class="cls-4" d="M63.07 12.77l-4.46 2.57-1.73 1-4.96 2.87-11.16-6.44 4.97-2.87 1.73-.99 4.46-2.58 11.15 6.44z"/><path class="cls-5" d="M58.16 15.61l-1.73.99-2.12-1.22-3.89-2.24-.77-.45-3.88-2.24-.5-.29L47 9.17l2.23 1.28 3.88 2.24.77.45 3.88 2.24.4.23z"/><path class="cls-6" d="M56.43 16.6v2.47l.29-.62.29.29.28-.62.29.29.29-.62.29.28v-2.46l-1.73.99z"/><path class="cls-6" d="M46.25 9.6l-.16.09s-.09.08 11.11 6.47l.19-.11c-3.01-1.72-10.9-6.24-11.14-6.45z"/><path class="cls-7" d="M43.11 21.79v4.47l8 4.63v-4.47zm7.81 8.74l-7.6-4.39v-4l7.6 4.39zm-7.06-6.66v-.81l.38.22.2.86.12-.68 1.19.69V25c0 .56-.37.8-.84.59v.83l.67.39V27L44 26.12v-.24l.67.39v-.83a2.1 2.1 0 01-.81-1.57zm6.79 6.06L49.11 29v-.2l1.54.89zm-1.23-2.32l-.17-.1.28-1 .28 1.29-.17-.1v1.13l-.1-.06-.1-.06zm.71.41l-.17-.1.28-1 .28 1.29-.17-.1v1.13l-.1-.06-.1-.06zM46 25.1h.45a2.16 2.16 0 01.85.26v-.28l.21.12v.28a4.19 4.19 0 01.84.71l.46.5s0 .06 0 0L47.46 26v1.18c0 .42-.05.86-.47.62a.87.87 0 01-.32-.34 1.14 1.14 0 01-.14-.58l.21.14a.73.73 0 00.09.37.44.44 0 00.17.17c.13.08.26.1.26-.5v-1.17L46 25.15s-.06-.06 0-.05zm.18-.68a.94.94 0 01.18-.34 3.13 3.13 0 01.18.55c0 .11-.08.16-.18.1a.39.39 0 01-.22-.31zm.68.39a.94.94 0 01.18-.34 3.14 3.14 0 01.18.55c0 .11-.08.16-.18.1a.39.39 0 01-.22-.31zm.75.43a.94.94 0 01.18-.34 3.13 3.13 0 01.18.55c0 .11-.08.16-.18.1a.39.39 0 01-.22-.31zm.68.39a.94.94 0 01.18-.34 3.14 3.14 0 01.18.55c0 .11-.08.16-.18.1a.39.39 0 01-.22-.31z"/><path class="cls-2" d="M28.63 19.43v12.88l-1.08-.61-2.27-1.32-7.81-4.51V12.99l11.16 6.44z"/><path class="cls-3" d="M39.78 12.99v12.89l-.29.17-3.26 1.89-.78.44-1.82 1.04-.97.57-.37.2-.43.25v.01l-3.23 1.86V19.43l4.51-2.6.45-.26.3-.17.01-.02.2-.11.1-.06.59-.34.07-.03v-.01h.01l.44-.26 4.47-2.58z"/><path class="cls-4" d="M39.78 12.99l-4.46 2.58-1.73 1-4.96 2.87-11.16-6.45 4.96-2.86 1.74-1 4.46-2.57 11.15 6.43z"/><path class="cls-5" d="M34.87 15.83l-1.73 1-2.13-1.23-3.88-2.24-.77-.44-3.88-2.24-.5-.29 1.73-1 2.22 1.29 3.89 2.24.77.44 3.88 2.24.4.23z"/><path class="cls-6" d="M33.14 16.83v2.47l.29-.62.28.28.29-.61.29.28.29-.61.29.28v-2.47l-1.73 1z"/><path class="cls-6" d="M23 9.83l-.16.09s-.07.08 11.11 6.47l.19-.11C31.09 14.56 23.2 10 23 9.83z"/><path class="cls-7" d="M19.82 22v4.47l8 4.63v-4.45zm7.81 8.74L20 26.37v-4l7.6 4.39zm-7.06-6.64v-.81l.38.22.2.86.12-.68 1.19.69v.81c0 .56-.37.8-.84.59v.83l.67.39v.24l-1.54-.89v-.25l.67.39v-.83a2.1 2.1 0 01-.85-1.56zm6.79 6.06l-1.54-.89V29l1.54.89zm-1.23-2.32l-.17-.1.28-1 .28 1.29-.17-.1v1.13l-.1-.06-.1-.06zm.71.41l-.17-.1.28-1 .28 1.29-.17-.1v1.16l-.1-.06-.1-.06zm-4.17-2.92h.45a2.16 2.16 0 01.85.26v-.28l.21.12v.28a4.19 4.19 0 01.84.71l.46.5s0 .06 0 0l-1.3-.75v1.18c0 .41-.05.86-.47.62a.87.87 0 01-.32-.34 1.14 1.14 0 01-.14-.58l.21.14a.73.73 0 00.09.37.44.44 0 00.17.17c.13.08.26.1.26-.5v-1.11l-1.29-.74s-.05-.06-.02-.06zm.18-.68a.94.94 0 01.15-.35 3.13 3.13 0 01.18.55c0 .11-.08.16-.18.1a.39.39 0 01-.15-.3zm.68.39a.94.94 0 01.18-.34 3.14 3.14 0 01.18.55c0 .11-.08.16-.18.1a.39.39 0 01-.18-.35zm.75.43a.94.94 0 01.18-.34 3.14 3.14 0 01.18.55c0 .11-.08.16-.18.1a.39.39 0 01-.18-.31zm.68.39a.94.94 0 01.18-.34 3.14 3.14 0 01.18.55c0 .11-.08.16-.18.1a.39.39 0 01-.14-.31z"/><path class="cls-8" d="M36.62 74.19l-4.36-2.52v-5.03l4.36 2.52v5.03z"/><path class="cls-9" d="M75.52 51.73l-38.9 22.46v-5.03l38.9-22.46v5.03z"/><path class="cls-10" d="M75.52 46.69l-38.9 22.47-4.36-2.52 38.9-22.46 4.36 2.51z"/><path class="cls-8" d="M20.76 65.03l-4.36-2.52v-5.03L20.76 60v5.03z"/><path class="cls-9" d="M59.66 42.57l-38.9 22.46V60l38.9-22.46v5.03z"/><path class="cls-10" d="M59.66 37.54L20.76 60l-4.36-2.52 38.9-22.46 4.36 2.52z"/><path class="cls-8" d="M4.9 55.87L.54 53.36v-5.03l4.36 2.51v5.03z"/><path class="cls-9" d="M43.8 33.41L4.9 55.87v-5.03l38.9-22.46v5.03z"/><path class="cls-10" d="M43.8 28.38L4.9 50.84.54 48.33l38.9-22.47 4.36 2.52z"/><path class="cls-11" d="M71.85 49.85l4.36-2.52V46.3l-4.36 2.52v1.03z"/><path class="cls-9" d="M32.95 27.39l38.9 22.46v-1.03l-38.9-22.46v1.03z"/><path class="cls-10" d="M32.95 26.36l38.9 22.46 4.36-2.52L37.3 23.84l-4.35 2.52z"/><path class="cls-11" d="M66.36 53.02l4.36-2.52v-1.03l-4.36 2.51v1.04z"/><path class="cls-9" d="M27.46 30.56l38.9 22.46v-1.04l-38.9-22.46v1.04z"/><path class="cls-10" d="M27.46 29.52l38.9 22.46 4.36-2.51-38.91-22.46-4.35 2.51z"/><path class="cls-11" d="M60.87 56.19l4.35-2.52v-1.03l-4.35 2.51v1.04z"/><path class="cls-9" d="M21.96 33.73l38.91 22.46v-1.04L21.96 32.7v1.03z"/><path class="cls-10" d="M21.96 32.69l38.91 22.46 4.35-2.51-38.9-22.46-4.36 2.51z"/><path class="cls-11" d="M55.38 59.36l4.35-2.52v-1.03l-4.35 2.51v1.04z"/><path class="cls-9" d="M16.47 36.9l38.91 22.46v-1.04L16.47 35.86v1.04z"/><path class="cls-10" d="M16.47 35.86l38.91 22.46 4.35-2.51-38.9-22.46-4.36 2.51z"/><path class="cls-11" d="M49.88 62.52l4.36-2.51v-1.03l-4.36 2.51v1.03z"/><path class="cls-9" d="M10.98 40.06l38.9 22.46v-1.03l-38.9-22.46v1.03z"/><path class="cls-10" d="M10.98 39.03l38.9 22.46 4.36-2.51-38.9-22.46-4.36 2.51z"/><path class="cls-11" d="M44.39 65.69l4.36-2.51v-1.03l-4.36 2.51v1.03z"/><path class="cls-9" d="M5.49 43.23l38.9 22.46v-1.03L5.49 42.2v1.03z"/><path class="cls-10" d="M5.49 42.2l38.9 22.46 4.36-2.51-38.9-22.46-4.36 2.51z"/><path class="cls-11" d="M38.9 68.86l4.36-2.51v-1.04l-4.36 2.52v1.03z"/><path class="cls-8" d="M0 46.4l38.9 22.46v-1.03L0 45.37v1.03z"/><path class="cls-10" d="M0 45.37l38.9 22.46 4.36-2.52-38.9-22.46L0 45.37z"/><path class="cls-2" d="M40.46 39.22V52.1l-1.07-.62-2.27-1.32-7.81-4.5V32.78l11.15 6.44z"/><path class="cls-3" d="M51.62 32.78v12.88l-.29.17-3.26 1.89-.78.45-1.82 1.04-.98.56-.36.21-.43.25-3.24 1.87V39.22l4.52-2.6.45-.27.3-.16.01-.02.2-.11.1-.06.59-.34.07-.04v-.01h.01l.44-.26 4.47-2.57z"/><path class="cls-4" d="M51.62 32.78l-4.46 2.58-1.73.99-4.97 2.87-11.15-6.44 4.96-2.87 1.73-.99 4.46-2.58 11.16 6.44z"/><path class="cls-5" d="M46.7 35.62l-1.72 1-2.13-1.23-3.88-2.24-.77-.45-3.89-2.24-.49-.28 1.73-1 2.22 1.28 3.88 2.24.78.45 3.88 2.24.39.23z"/><path class="cls-6" d="M44.98 36.61v2.47l.28-.61.29.28.29-.62.29.29.29-.62.28.29v-2.47l-1.72.99z"/><path class="cls-6" d="M34.8 29.61l-.16.09s-.07.08 11.11 6.47l.19-.11C42.93 34.34 35 29.82 34.8 29.61z"/><path class="cls-7" d="M31.66 41.8v4.47l8 4.63v-4.47zm7.81 8.74l-7.6-4.39v-4l7.6 4.39zm-7.06-6.66v-.81l.38.22.2.86.12-.68 1.19.69V45c0 .56-.37.8-.84.59v.83l.67.39V47l-1.54-.89v-.24l.67.39v-.83a2.1 2.1 0 01-.85-1.55zm6.79 6.06l-1.54-.89v-.24l1.54.89zM38 47.62l-.17-.1.28-1 .28 1.29-.17-.1v1.13l-.1-.06-.1-.06zm.71.41l-.17-.1.28-1 .28 1.29-.17-.1v1.13l-.1-.06-.1-.06zm-4.21-2.92h.45a2.17 2.17 0 01.85.26v-.28l.21.12v.28a4.19 4.19 0 01.84.71l.46.5s0 .06 0 0L36 46v1.2c0 .41-.05.86-.47.62a.87.87 0 01-.32-.34 1.14 1.14 0 01-.14-.58l.21.14a.73.73 0 00.09.37.44.44 0 00.17.17c.13.08.26.1.26-.5V45.9l-1.29-.74s-.03-.05-.01-.05zm.18-.68a.94.94 0 01.18-.34 3.14 3.14 0 01.18.55c0 .11-.08.16-.18.1a.39.39 0 01-.17-.31zm.68.39a.94.94 0 01.18-.34 3.13 3.13 0 01.18.55c0 .11-.08.16-.18.1a.39.39 0 01-.18-.31zm.75.43a.94.94 0 01.18-.34 3.14 3.14 0 01.18.55c0 .11-.08.16-.18.1a.39.39 0 01-.17-.3zm.68.39a.94.94 0 01.21-.34 3.13 3.13 0 01.18.55c0 .11-.08.16-.18.1a.39.39 0 01-.21-.3z"/><path class="cls-2" d="M40.46 25.87v12.88l-1.07-.62-2.27-1.32-7.81-4.51V19.43l11.15 6.44z"/><path class="cls-3" d="M51.62 19.43v12.88l-.29.17-3.26 1.89-.78.45-1.82 1.04-.98.56-.36.21-.43.24v.01l-3.24 1.87V25.87l4.52-2.61.45-.26.3-.17.01-.01.2-.11.1-.06.59-.34.07-.04v-.01h.01l.44-.26 4.47-2.57z"/><path class="cls-4" d="M51.62 19.43L47.16 22l-1.73 1-4.97 2.87-11.15-6.44 4.96-2.87 1.73-1 4.46-2.57 11.16 6.44z"/><path class="cls-5" d="M46.7 22.27l-1.72.99-2.13-1.22-3.88-2.24-.77-.45-3.89-2.24-.49-.29 1.73-.99 2.22 1.28 3.88 2.24.78.45 3.88 2.24.39.23z"/><path class="cls-6" d="M44.98 23.26v2.47l.28-.62.29.29.29-.62.29.28.29-.61.28.28v-2.47l-1.72 1z"/><path class="cls-6" d="M34.8 16.26l-.16.09s-.07.08 11.11 6.47l.19-.11C42.93 21 35 16.47 34.8 16.26z"/><path class="cls-7" d="M31.66 28.45v4.47l8 4.63v-4.47zm7.81 8.74l-7.6-4.39v-4l7.6 4.39zm-7.06-6.66v-.81l.38.22.2.86.12-.68 1.19.69v.81c0 .56-.37.8-.84.59V33l.67.39v.24l-1.54-.89v-.24l.67.39v-.83a2.1 2.1 0 01-.85-1.53zm6.79 6.06l-1.54-.89v-.24l1.54.89zM38 34.27l-.17-.1.28-1 .28 1.29-.17-.1v1.13l-.1-.06-.1-.06zm.71.41l-.17-.1.28-1 .28 1.29-.17-.1v1.13l-.1-.06-.1-.06zm-4.21-2.92h.45a2.16 2.16 0 01.85.26v-.28l.21.12v.28a4.19 4.19 0 01.84.71l.46.5s0 .06 0 0L36 32.67v1.18c0 .41-.05.86-.47.62a.87.87 0 01-.32-.34 1.14 1.14 0 01-.14-.58l.21.13a.73.73 0 00.09.37.44.44 0 00.17.17c.13.08.26.1.26-.5v-1.17l-1.29-.74s-.03-.06-.01-.05zm.18-.68a.94.94 0 01.18-.34 3.14 3.14 0 01.18.55c0 .11-.08.16-.18.1a.39.39 0 01-.17-.31zm.68.39a.94.94 0 01.18-.34 3.14 3.14 0 01.18.55c0 .11-.08.16-.18.1a.39.39 0 01-.18-.31zm.75.43a.94.94 0 01.18-.34 3.14 3.14 0 01.18.55c0 .11-.08.16-.18.1a.39.39 0 01-.17-.31zm.68.39a.94.94 0 01.18-.34 3.13 3.13 0 01.18.55c0 .11-.08.16-.18.1a.39.39 0 01-.18-.31z"/><path class="cls-2" d="M16.97 39.18v12.88l-1.07-.62-2.27-1.32-7.81-4.5V32.74l11.15 6.44z"/><path class="cls-3" d="M28.12 32.74v12.88l-.28.17-3.26 1.89-.78.45-1.82 1.04-.98.56-.36.21-.43.25-3.24 1.87V39.18l4.52-2.6.44-.27.3-.17.02-.01.19-.11.11-.06.59-.34.06-.04v-.01h.01l.45-.26 4.46-2.57z"/><path class="cls-4" d="M28.12 32.74l-4.46 2.57-1.73 1-4.96 2.87-11.15-6.44 4.96-2.87 1.73-.99 4.46-2.58 11.15 6.44z"/><path class="cls-5" d="M23.21 35.58l-1.73 1-2.12-1.23-3.89-2.24-.76-.45-3.89-2.24-.49-.28 1.73-1 2.22 1.28 3.88 2.24.77.45 3.88 2.24.4.23z"/><path class="cls-6" d="M21.48 36.57v2.47l.29-.61.29.28.29-.62.28.29.29-.62.29.28v-2.46l-1.73.99z"/><path class="cls-6" d="M11.31 29.57l-.16.09s-.07.08 11.11 6.47l.19-.11c-3.02-1.72-10.91-6.24-11.14-6.45z"/><path class="cls-7" d="M8.17 41.76v4.47l8 4.63v-4.47zM16 50.5l-7.6-4.39v-4l7.6 4.4zm-7.08-6.66V43l.38.22.2.86.12-.68 1.19.69v.81c0 .56-.37.8-.84.59v.83l.67.39V47l-1.54-.89v-.24l.67.39v-.83a2.1 2.1 0 01-.85-1.59zm6.79 6.06l-1.55-.9v-.24l1.54.89zm-1.23-2.32l-.17-.1.28-1 .28 1.29-.17-.1v1.13l-.1-.06-.1-.06zm.71.41l-.17-.1.28-1 .28 1.29-.17-.1v1.13l-.1-.06-.1-.06zM11 45.07h.45a2.16 2.16 0 01.85.26v-.28l.21.12v.28a4.19 4.19 0 01.84.71l.46.5s0 .06 0 0l-1.3-.66v1.18c0 .41-.05.86-.47.62a.87.87 0 01-.32-.34 1.14 1.14 0 01-.14-.58l.21.14a.73.73 0 00.09.37.44.44 0 00.17.17c.13.08.26.1.26-.5v-1.2L11 45.12v-.05zm.18-.68a.94.94 0 01.18-.34 3.13 3.13 0 01.18.55c0 .11-.08.16-.18.1a.39.39 0 01-.17-.31zm.68.39a.94.94 0 01.18-.34 3.14 3.14 0 01.18.55c0 .11-.08.16-.18.1a.39.39 0 01-.17-.31zm.75.43a.94.94 0 01.18-.34 3.14 3.14 0 01.18.55c0 .11-.08.16-.18.1a.39.39 0 01-.17-.3zm.68.39a.94.94 0 01.18-.34 3.13 3.13 0 01.18.55c0 .11-.08.16-.18.1a.39.39 0 01-.17-.3z"/><path class="cls-2" d="M28.39 45.7v12.88l-1.08-.62-2.27-1.32-7.81-4.51V39.26l11.16 6.44z"/><path class="cls-3" d="M39.54 39.26v12.88l-.29.17-3.26 1.89-.78.45-1.81 1.04-.98.56-.37.21-.43.24v.01l-3.23 1.87V45.7l4.51-2.61.45-.26.3-.17.01-.01.2-.11.11-.06.58-.34.07-.04v-.01h.01l.45-.26 4.46-2.57z"/><path class="cls-4" d="M39.54 39.26l-4.46 2.57-1.73 1-4.96 2.87-11.16-6.44 4.97-2.87 1.73-.99 4.46-2.58 11.15 6.44z"/><path class="cls-5" d="M34.63 42.1l-1.73.99-2.13-1.22-3.88-2.24-.77-.45-3.88-2.24-.5-.29 1.73-.99 2.23 1.28 3.88 2.24.77.45 3.88 2.24.4.23z"/><path class="cls-6" d="M32.9 43.09v2.47l.29-.62.28.29.29-.62.29.28.29-.61.29.28v-2.47l-1.73 1z"/><path class="cls-6" d="M22.72 36.09l-.16.09s-.07.08 11.11 6.47l.19-.11C30.85 40.82 23 36.3 22.72 36.09z"/><path class="cls-7" d="M19.58 48.28v4.47l8 4.63v-4.47zM27.39 57l-7.6-4.39v-4l7.6 4.39zm-7.06-6.66v-.81l.38.22.2.86L21 50l1.19.69v.81c0 .56-.37.8-.84.59v.83l.67.39v.24l-1.54-.89v-.24l.67.39v-.83a2.1 2.1 0 01-.82-1.62zm6.79 6.06l-1.54-.89v-.24l1.54.89zm-1.23-2.3l-.17-.1.28-1 .28 1.29-.17-.1v1.14L26 55.3l-.1-.06zm.71.41l-.17-.1.28-1 .29 1.32-.17-.1v1.13l-.1-.06-.1-.06zm-4.17-2.92h.45a2.16 2.16 0 01.85.26v-.25l.21.12V52a4.19 4.19 0 01.84.71l.46.5s0 .06 0 0l-1.3-.75v1.18c0 .41-.05.86-.47.62a.87.87 0 01-.32-.34 1.14 1.14 0 01-.14-.58l.21.14a.73.73 0 00.09.37.44.44 0 00.17.17c.13.08.26.1.26-.5v-1.14l-1.29-.74s-.05-.06-.02-.05zm.18-.68a.94.94 0 01.18-.34 3.13 3.13 0 01.18.55c0 .11-.08.16-.18.1a.39.39 0 01-.18-.31zm.68.39a.94.94 0 01.18-.34 3.14 3.14 0 01.18.55c0 .11-.08.16-.18.1a.39.39 0 01-.18-.31zm.75.43a.94.94 0 01.18-.34 3.14 3.14 0 01.18.55c0 .11-.08.16-.18.1a.39.39 0 01-.22-.31zm.68.39a.94.94 0 01.18-.34 3.13 3.13 0 01.18.55c0 .11-.08.16-.18.1a.39.39 0 01-.19-.31z"/><path class="cls-2" d="M63.96 38.84v12.88l-1.07-.62-2.28-1.31-7.81-4.51V32.4l11.16 6.44z"/><path class="cls-3" d="M75.11 32.4v12.88l-.29.17-3.26 1.89-.77.45-1.82 1.04-.98.56-.36.21-.44.25-3.23 1.87V38.84l4.51-2.6.45-.26.3-.18.02-.01.19-.11.11-.06.58-.34.07-.04v-.01h.01l.45-.26 4.46-2.57z"/><path class="cls-4" d="M75.11 32.4l-4.46 2.58-1.73.99-4.96 2.87L52.8 32.4l4.97-2.86 1.73-1 4.46-2.58 11.15 6.44z"/><path class="cls-5" d="M70.2 35.24l-1.73 1-2.12-1.23-3.89-2.24-.77-.44-3.88-2.25-.5-.28 1.74-1 2.22 1.28 3.88 2.25.77.44 3.88 2.24.4.23z"/><path class="cls-6" d="M68.47 36.23v2.47l.29-.61.29.28.28-.61.29.28.29-.62.29.29v-2.47l-1.73.99z"/><path class="cls-6" d="M58.29 29.23l-.16.09s-.07.08 11.11 6.47l.19-.11c-3.01-1.68-10.9-6.24-11.14-6.45z"/><path class="cls-7" d="M55.15 41.42v4.48l8 4.63v-4.48zM63 50.16l-7.6-4.39v-4l7.6 4.41zm-7.1-6.66v-.8l.38.22.2.86.12-.68 1.19.69v.81c0 .56-.37.8-.84.59V46l.67.39v.24l-1.54-.89v-.24l.67.39v-.83a2.1 2.1 0 01-.85-1.56zm6.79 6.06l-1.54-.89v-.24l1.54.89zm-1.23-2.32l-.17-.1.28-1 .28 1.29-.17-.1v1.17l-.1-.06-.1-.06zm.71.41l-.17-.1.28-1 .28 1.29-.17-.1v1.13l-.1-.06-.1-.06zM58 44.73h.45a2.16 2.16 0 01.85.26v-.28l.21.12v.28a4.19 4.19 0 01.84.71l.46.5s0 .06 0 0l-1.3-.75v1.18c0 .41-.05.86-.47.62a.87.87 0 01-.32-.34 1.14 1.14 0 01-.14-.58l.21.14a.73.73 0 00.09.37.44.44 0 00.17.17c.13.08.26.1.26-.5v-1.11L58 44.78v-.05zm.18-.68a.94.94 0 01.18-.34 3.13 3.13 0 01.18.55c0 .11-.08.16-.18.1a.39.39 0 01-.18-.31zm.68.39a.94.94 0 01.14-.34 3.14 3.14 0 01.18.55c0 .11-.08.16-.18.1a.39.39 0 01-.14-.31zm.75.43a.94.94 0 01.18-.34 3.13 3.13 0 01.18.55c0 .11-.08.16-.18.1a.39.39 0 01-.18-.3zm.68.39a.94.94 0 01.18-.34 3.14 3.14 0 01.18.55c0 .11-.08.16-.18.1a.39.39 0 01-.18-.3z"/><path class="cls-2" d="M52.09 45.69v12.88l-1.07-.62-2.27-1.32-7.81-4.5V39.25l11.15 6.44z"/><path class="cls-3" d="M63.24 39.25v12.88l-.28.17-3.26 1.89-.78.45-1.82 1.04-.98.56-.36.21-.43.25-3.24 1.87V45.69l4.52-2.6.45-.27.3-.16.01-.02.19-.11.11-.06.59-.34.07-.04v-.01h.01l.44-.26 4.46-2.57z"/><path class="cls-4" d="M63.25 39.25l-4.46 2.58-1.73.99-4.97 2.87-11.15-6.44 4.96-2.87 1.73-.99 4.46-2.58 11.16 6.44z"/><path class="cls-5" d="M58.33 42.09l-1.72 1-2.13-1.23-3.88-2.24-.77-.45-3.88-2.24-.5-.28 1.73-1 2.22 1.28 3.88 2.24.78.45 3.88 2.24.39.23z"/><path class="cls-6" d="M56.61 43.08v2.47l.29-.61.28.28.29-.62.29.29.29-.62.28.28v-2.46l-1.72.99z"/><path class="cls-6" d="M46.43 36.08l-.16.09s-.07.08 11.11 6.47l.19-.11c-3.01-1.72-10.9-6.24-11.14-6.45z"/><path class="cls-7" d="M43.29 48.27v4.47l8 4.63V52.9zM51.1 57l-7.6-4.39v-4L51.1 53zM44 50.35v-.81l.38.22.2.86.12-.68 1.19.69v.81c0 .56-.37.8-.84.59v.83l.67.39v.24l-1.54-.89v-.24l.67.39v-.83a2.1 2.1 0 01-.85-1.57zm6.79 6.06l-1.54-.89v-.24l1.54.89zm-1.19-2.32l-.17-.1.28-1 .29 1.32-.17-.1v1.13l-.1-.06-.1-.06zm.71.41l-.17-.1.28-1 .28 1.29-.17-.1v1.13l-.1-.06-.1-.06zm-4.17-2.92h.45a2.16 2.16 0 01.85.26v-.28l.21.12V52a4.19 4.19 0 01.84.71l.46.5s0 .06 0 0l-1.3-.75v1.18c0 .41-.05.86-.47.62a.87.87 0 01-.32-.34 1.14 1.14 0 01-.14-.58l.21.14a.73.73 0 00.09.37.44.44 0 00.17.17c.13.08.26.1.26-.5v-1.15l-1.29-.74s-.05-.05-.03-.05zm.18-.68a.94.94 0 01.18-.34 3.14 3.14 0 01.18.55c0 .11-.08.16-.18.1a.39.39 0 01-.18-.31zm.68.39a.94.94 0 01.18-.34 3.14 3.14 0 01.18.55c0 .11-.08.16-.18.1a.39.39 0 01-.18-.31zm.75.43a.94.94 0 01.18-.34 3.14 3.14 0 01.18.55c0 .11-.08.16-.18.1a.39.39 0 01-.18-.3zm.68.39a.94.94 0 01.18-.34 3.14 3.14 0 01.18.55c0 .11-.08.16-.18.1a.39.39 0 01-.19-.3z"/><path class="cls-2" d="M40.23 52.54v12.88l-1.07-.62-2.28-1.32-7.8-4.5V46.1l11.15 6.44z"/><path class="cls-3" d="M51.38 46.1v12.88l-.28.17-3.26 1.89-.78.45-1.82 1.04-.98.56-.36.21-.43.25-3.24 1.87V52.54l4.52-2.6.44-.27.3-.17.02-.01.19-.11.11-.06.59-.34.07-.04v-.01l.45-.26 4.46-2.57z"/><path class="cls-4" d="M51.38 46.1l-4.46 2.58-1.72.99-4.97 2.87-11.15-6.44 4.96-2.87 1.73-.99 4.46-2.58 11.15 6.44z"/><path class="cls-5" d="M46.47 48.94l-1.73 1-2.12-1.23-3.89-2.24-.76-.45-3.89-2.24-.49-.28 1.73-1 2.22 1.28 3.88 2.24.77.45 3.88 2.24.4.23z"/><path class="cls-6" d="M44.74 49.93v2.47l.29-.61.29.28.29-.62.28.29.29-.62.29.29v-2.47l-1.73.99zm-10.17-7l-.17.07s-.07.08 11.11 6.46l.19-.11c-3.01-1.69-10.9-6.21-11.13-6.42z"/><path class="cls-7" d="M31.43 55.12v4.47l8 4.63v-4.47zm7.81 8.74l-7.6-4.39v-4l7.6 4.39zm-7.06-6.66v-.8l.38.22.2.86.12-.68 1.19.69v.81c0 .56-.37.8-.84.59v.83l.67.39v.24l-1.54-.89v-.24l.67.39v-.83a2.1 2.1 0 01-.85-1.58zM39 63.27l-1.54-.89v-.24L39 63zm-1.23-2.32l-.17-.1.28-1 .28 1.29-.17-.1v1.16l-.1-.06-.1-.06zm.71.41l-.17-.1.28-1 .28 1.29-.17-.1v1.13l-.1-.06-.1-.06zm-4.17-2.92h.45a2.17 2.17 0 01.85.26v-.28l.21.12v.28a4.19 4.19 0 01.84.71l.46.5s0 .06 0 0l-1.3-.75v1.18c0 .41-.05.86-.47.62a.87.87 0 01-.35-.28 1.14 1.14 0 01-.14-.58l.21.13a.73.73 0 00.09.37.44.44 0 00.17.17c.13.08.26.1.26-.5v-1.17l-1.29-.74s-.05-.05-.03-.05zm.18-.68a.94.94 0 01.18-.34 3.14 3.14 0 01.18.55c0 .11-.08.16-.18.1a.39.39 0 01-.22-.32zm.68.39a.94.94 0 01.18-.34 3.14 3.14 0 01.18.55c0 .11-.08.16-.18.1a.39.39 0 01-.22-.32zm.75.43a.94.94 0 01.18-.34 3.14 3.14 0 01.18.55c0 .11-.08.16-.18.1a.39.39 0 01-.22-.31zm.68.39a.94.94 0 01.18-.34 3.13 3.13 0 01.18.55c0 .11-.08.16-.18.1a.39.39 0 01-.22-.28z"/><path class="cls-2" d="M16.97 26.01v12.87l-1.07-.61-2.27-1.32-7.81-4.51V19.56l11.15 6.45z"/><path class="cls-3" d="M28.12 19.56v12.89l-.28.17-3.26 1.89-.78.44-1.82 1.04-.98.57-.36.21-.43.24v.01l-3.24 1.86V26.01l4.52-2.61.44-.26.3-.17.02-.02.19-.1.11-.06.59-.34.06-.04v-.01h.01l.45-.26 4.46-2.58z"/><path class="cls-4" d="M28.12 19.57l-4.46 2.57-1.73 1-4.96 2.87-11.15-6.44 4.96-2.87 1.73-1 4.46-2.57 11.15 6.44z"/><path class="cls-5" d="M23.21 22.4l-1.73 1-2.12-1.22-3.89-2.25-.76-.44-3.89-2.24-.49-.29 1.73-.99 2.22 1.28 3.88 2.24.77.44 3.88 2.25.4.22z"/><path class="cls-6" d="M21.48 23.4v2.47l.29-.62.29.29.29-.62.28.28.29-.61.29.28V22.4l-1.73 1z"/><path class="cls-6" d="M11.31 16.4l-.16.09s-.07.08 11.11 6.47l.19-.11c-3.02-1.72-10.91-6.24-11.14-6.45z"/><path class="cls-7" d="M8.17 28.59v4.47l8 4.63v-4.47zM16 37.33l-7.6-4.39V29l7.6 4.34zm-7.08-6.66v-.81l.38.22.2.86.12-.68 1.19.69v.81c0 .56-.37.8-.84.59v.83l.67.39v.24l-1.54-.89v-.24l.67.39v-.83a2.1 2.1 0 01-.85-1.57zm6.79 6.06l-1.54-.89v-.24l1.54.89zm-1.23-2.32l-.17-.1.28-1 .28 1.29-.17-.1v1.13l-.1-.06-.1-.06zm.71.41l-.17-.1.28-1 .26 1.28-.17-.1v1.13l-.1-.06-.1-.06zM11 31.89h.45a2.16 2.16 0 01.85.26v-.28l.21.12v.28a4.19 4.19 0 01.84.71l.46.5s0 .06 0 0l-1.3-.75V34c0 .41-.05.86-.47.62a.87.87 0 01-.32-.34 1.14 1.14 0 01-.14-.58l.21.14a.73.73 0 00.09.37.44.44 0 00.17.17c.13.08.26.1.26-.5v-1.19L11 31.95v-.06zm.18-.68a.94.94 0 01.18-.34 3.14 3.14 0 01.18.55c0 .11-.08.16-.18.1a.39.39 0 01-.17-.3zm.68.39a.94.94 0 01.18-.34 3.14 3.14 0 01.18.55c0 .11-.08.16-.18.1a.39.39 0 01-.17-.3zm.75.43a.94.94 0 01.18-.34 3.13 3.13 0 01.18.55c0 .11-.08.16-.18.1a.39.39 0 01-.17-.34zm.68.39a.94.94 0 01.18-.34 3.13 3.13 0 01.18.55c0 .11-.08.16-.18.1a.39.39 0 01-.17-.3z"/><path class="cls-2" d="M28.63 32.74v12.88L27.55 45l-2.27-1.32-7.81-4.51V26.3l11.16 6.44z"/><path class="cls-3" d="M39.78 26.3v12.88l-.29.17-3.26 1.89-.78.45-1.82 1.04-.97.56-.37.21-.43.24v.01l-3.23 1.87V32.74l4.51-2.61.45-.26.3-.17.01-.01.2-.11.1-.06.59-.34.07-.04v-.01h.01l.44-.26 4.47-2.57z"/><path class="cls-4" d="M39.78 26.3l-4.46 2.57-1.73 1-4.96 2.87-11.16-6.44 4.96-2.87 1.74-1 4.46-2.57 11.15 6.44z"/><path class="cls-5" d="M34.87 29.14l-1.73.99-2.13-1.22-3.88-2.24-.77-.45-3.88-2.24-.5-.29 1.73-.99 2.22 1.28 3.89 2.24.77.45 3.88 2.24.4.23z"/><path class="cls-6" d="M33.14 30.13v2.47l.29-.62.28.29.29-.62.29.28.29-.61.29.28v-2.47l-1.73 1z"/><path class="cls-6" d="M23 23.13l-.16.09s-.07.08 11.11 6.47l.19-.11C31.09 27.86 23.2 23.34 23 23.13z"/><path class="cls-7" d="M19.82 35.32v4.47l8 4.63V40zm7.81 8.74L20 39.67v-4l7.6 4.39zm-7.06-6.66v-.81l.38.22.2.86.12-.68 1.19.69v.81c0 .56-.37.8-.84.59v.83l.67.39v.24l-1.54-.89v-.25l.67.39V39a2.1 2.1 0 01-.85-1.6zm6.79 6.06l-1.54-.89v-.24l1.54.89zm-1.23-2.32L26 41l.28-1 .28 1.29-.17-.1v1.21l-.1-.06-.1-.06zm.71.41l-.17-.1.28-1 .28 1.29-.17-.1v1.14l-.1-.06-.1-.06zm-4.17-2.92h.45a2.16 2.16 0 01.85.26v-.28l.21.12V39a4.19 4.19 0 01.84.71l.46.5s0 .06 0 0l-1.3-.75v1.18c0 .41-.05.86-.47.62a.87.87 0 01-.32-.34 1.14 1.14 0 01-.14-.58l.21.14a.73.73 0 00.09.37.44.44 0 00.17.17c.13.08.26.1.26-.5v-1.1l-1.29-.74s-.05-.06-.02-.06zm.18-.68a.94.94 0 01.15-.35 3.13 3.13 0 01.18.55c0 .11-.08.16-.18.1a.39.39 0 01-.15-.3zm.68.39a.94.94 0 01.17-.34 3.14 3.14 0 01.18.55c0 .11-.08.16-.18.1a.39.39 0 01-.17-.31zm.75.43a.94.94 0 01.18-.34 3.14 3.14 0 01.18.55c0 .11-.08.16-.18.1a.39.39 0 01-.18-.31zm.68.39a.94.94 0 01.18-.34 3.14 3.14 0 01.18.55c0 .11-.08.16-.18.1a.39.39 0 01-.14-.31z"/><path class="cls-2" d="M63.78 25.76v12.88l-1.07-.62-2.27-1.32-7.81-4.51V19.32l11.15 6.44z"/><path class="cls-3" d="M74.93 19.32V32.2l-.28.17-3.26 1.89-.78.45-1.82 1.04-.98.56-.36.21-.43.24v.01l-3.24 1.87V25.76l4.52-2.61.44-.26.3-.17.02-.01.19-.11.11-.06.59-.34.07-.04v-.01l.45-.26 4.46-2.57z"/><path class="cls-4" d="M74.93 19.32l-4.46 2.57-1.72 1-4.97 2.87-11.15-6.44 4.96-2.87 1.73-.99 4.46-2.58 11.15 6.44z"/><path class="cls-5" d="M70.02 22.16l-1.73.99-2.12-1.22-3.89-2.24-.76-.45L57.63 17l-.49-.29 1.73-.99L61.09 17l3.88 2.24.77.45 3.89 2.24.39.23z"/><path class="cls-6" d="M68.29 23.15v2.47l.29-.62.29.29.29-.62.28.28.29-.61.29.28v-2.47l-1.73 1z"/><path class="cls-6" d="M58.12 16.15l-.16.09s-.07.08 11.11 6.47l.19-.11c-3.02-1.72-10.91-6.24-11.14-6.45z"/><path class="cls-7" d="M55 28.34v4.47l8 4.63V33zm7.81 8.74l-7.6-4.39v-4l7.6 4.39zm-7.06-6.66v-.81l.38.22.2.86.12-.68 1.19.69v.81c0 .56-.37.8-.84.59v.83l.67.39v.24l-1.54-.89v-.24l.67.39V32a2.1 2.1 0 01-.87-1.58zm6.79 6.06L61 35.59v-.24l1.54.89zm-1.23-2.32l-.17-.1.28-1 .28 1.29-.17-.1v1.13l-.1-.06-.1-.06zm.71.41l-.17-.1.28-1 .28 1.29-.17-.1v1.13l-.1-.06-.14-.03zm-4.17-2.92h.45a2.16 2.16 0 01.85.26v-.28l.21.12v.28a4.19 4.19 0 01.84.71l.46.5s0 .06 0 0l-1.3-.75v1.18c0 .41-.05.86-.47.62a.87.87 0 01-.32-.34 1.14 1.14 0 01-.14-.58l.21.14a.73.73 0 00.09.37.44.44 0 00.17.17c.13.08.26.1.26-.5v-1.11l-1.29-.74s-.07-.06-.05-.06zM58 31a.94.94 0 01.18-.34 3.14 3.14 0 01.18.55c0 .11-.08.16-.18.1A.39.39 0 0158 31zm.68.39a.94.94 0 01.18-.34 3.14 3.14 0 01.18.55c0 .11-.08.16-.18.1a.39.39 0 01-.18-.34zm.75.43a.94.94 0 01.18-.34 3.13 3.13 0 01.18.55c0 .11-.08.16-.18.1a.39.39 0 01-.18-.34zm.68.39a.94.94 0 01.18-.34 3.14 3.14 0 01.18.55c0 .11-.08.16-.18.1a.39.39 0 01-.18-.34z"/><path class="cls-2" d="M52.2 32.09v12.88l-1.07-.62-2.28-1.32-7.81-4.51V25.64l11.16 6.45z"/><path class="cls-3" d="M63.35 25.64v12.89l-.29.17-3.26 1.89-.78.44-1.81 1.05-.98.56-.36.21-.44.24v.01l-3.23 1.87V32.09l4.51-2.61.45-.26.3-.17.02-.01.19-.11.11-.06.58-.34.07-.04v-.01h.01l.45-.26 4.46-2.58z"/><path class="cls-4" d="M63.35 25.65l-4.46 2.57-1.73 1-4.96 2.87-11.16-6.44 4.97-2.87 1.73-.99 4.46-2.58 11.15 6.44z"/><path class="cls-5" d="M58.44 28.48l-1.73 1-2.12-1.22-3.89-2.24-.77-.45-3.88-2.24-.5-.29 1.73-.99 2.23 1.28 3.88 2.24.77.45 3.88 2.24.4.22z"/><path class="cls-6" d="M56.71 29.48v2.47l.29-.62.28.29.29-.62.29.28.29-.61.29.28v-2.47l-1.73 1z"/><path class="cls-6" d="M46.53 22.48l-.16.09s-.07.08 11.11 6.47l.19-.11c-3.01-1.72-10.9-6.24-11.14-6.45z"/><path class="cls-7" d="M43.39 34.67v4.47l8 4.63V39.3zm7.81 8.74L43.6 39v-4l7.6 4.39zm-7.06-6.66v-.81l.38.22.2.86.12-.68L46 37v.81c0 .56-.37.8-.84.59v.83l.67.39v.24L44.31 39v-.24l.67.39v-.83a2.1 2.1 0 01-.84-1.57zm6.79 6.06l-1.54-.89v-.24l1.54.89zm-1.23-2.32l-.17-.1.28-1 .28 1.29-.17-.1v1.13l-.1-.06-.1-.06zm.71.41l-.17-.1.28-1 .28 1.29-.17-.1v1.13l-.1-.06-.1-.06zM46.24 38h.45a2.17 2.17 0 01.85.26V38l.21.12v.28a4.19 4.19 0 01.84.71l.46.5s0 .06 0 0l-1.3-.75v1.18c0 .42-.05.86-.47.62a.87.87 0 01-.32-.34 1.14 1.14 0 01-.14-.58l.21.14a.73.73 0 00.09.37.44.44 0 00.17.17c.13.08.26.1.26-.5v-1.15l-1.3-.77h-.01zm.18-.68a.94.94 0 01.18-.32 3.13 3.13 0 01.18.55c0 .11-.08.16-.18.1a.39.39 0 01-.18-.35zm.68.39a.94.94 0 01.18-.34 3.14 3.14 0 01.18.55c0 .11-.08.16-.18.1a.39.39 0 01-.18-.33zm.75.43a.94.94 0 01.18-.34 3.13 3.13 0 01.18.55c0 .11-.08.16-.18.1a.39.39 0 01-.18-.33zm.68.39a.94.94 0 01.18-.34 3.14 3.14 0 01.18.55c0 .11-.08.16-.18.1a.39.39 0 01-.19-.33z"/><path class="cls-12" d="M28.39 58.58l.69.04v-.44l-.69.4zm-11.42-6.52h.26v-.15l-.26.15zm11.66-6.44h14.05L48 42.54v-7.08l-6.96-7.76-1.26-.94-11.15 5.98v12.88z"/><path class="cls-12" d="M74.82 45.45l.29-.17V32.4l-.26-.15.08-.05V19.32l-11.15 6.44v.54l-.43-.65-11.15 6.44v12.88l1.23-.05-1.34.77v1.23l-.71-.82-11.35 6.73.2 12.59h2.86L76.21 46.3l-1.39-.85z"/></g></g></g></svg>