<svg xmlns="http://www.w3.org/2000/svg" viewBox="0 0 79.68 66.14"><defs><style>.cls-2{fill:#295acf}.cls-3{fill:#47a147}.cls-4{fill:#a19c47}.cls-7{fill:#ebe4d3;mix-blend-mode:multiply}.cls-15{fill:#ba8552}</style></defs><g style="isolation:isolate"><g id="Слой_2" data-name="Слой 2"><g id="Layer_3" data-name="Layer 3"><path class="cls-2" d="M64.9 32.45a32.5 32.5 0 01-16.61 28.33c-.67.37-1.35.72-2 1A32.45 32.45 0 014.13 48.29L4 48.15A32.47 32.47 0 0140.83 1.09c.7.19 1.39.4 2.07.62a33.77 33.77 0 015.64 2.55 31.16 31.16 0 013.55 2.35l.47.37c.79.63 1.56 1.3 2.3 2a32.48 32.48 0 019.21 16.16c.11.52.22 1 .31 1.56a31.69 31.69 0 01.52 5.75z"/><path class="cls-3" d="M54.07 27.43a4.23 4.23 0 01-1.2 2.33 4.53 4.53 0 01-1.51.89l-.67.26a3.47 3.47 0 00-1.59 1.14 9.28 9.28 0 01-1.56 2 5.77 5.77 0 00-.63.68 3.82 3.82 0 01-1.3.78 3.57 3.57 0 01-3.66-.35c-.39-.36-.5-1-1.12-.87-1 .2-1.07 1.5-1.21 2.27-.1.52-.15 1.61-.67 1.94s-1.23-.19-1.65.17-.07 1-.2 1.44a.86.86 0 01-.38.4 4 4 0 00-.94.76 3.28 3.28 0 01-.94.84 6.08 6.08 0 01-1.38.47 3.49 3.49 0 01-1.29.09 4.71 4.71 0 01-1.7-.75c-.93-.5-2.14-1.34-3.2-.69a8.68 8.68 0 00-1.15.87c-.21.17-.42.34-.64.5a2.14 2.14 0 00-1 1.06c-.12.35-.44.35-.75.44a1 1 0 00-.84.74 6.75 6.75 0 000 1.19c0 .55.36.82.64 1.22s-.09.44-.28.69a1.69 1.69 0 00-.25 1.14c0 .57.44.64.91.84.21.09.43.17.64.27s.36.31.58.36.67-.19 1-.07.36.79.39 1.29v.44a4 4 0 00.32 1 2.15 2.15 0 001.15 1c.34.16.48.46.71.72a2.13 2.13 0 001 .59c.8.32 1.54.76 2.35 1 .36.12.72.23 1.07.37s.8.18 1.21.3a6.46 6.46 0 01.81.36 2.12 2.12 0 01.74.47 3 3 0 01.69 1.39c0 .14.08.38.24.46s.22 0 .31 0a3.08 3.08 0 01.67.09 4.68 4.68 0 00.65 0c.74 0 1.46.27 2.21.19.34 0 .65-.18 1-.19a4.31 4.31 0 011.85.25c.2.08.42.12.62.21a6 6 0 00.73.45 1.32 1.32 0 00.56 0c.88-.12 2-.83 2.88-.25h.08a2.06 2.06 0 01.59.73 1.19 1.19 0 01.07.23 1.71 1.71 0 01-.47 1.4c-.25.26-.5.49-.74.75-.09.09-.2.14-.29.23s-.1.18-.18.26a1.29 1.29 0 01-.75.31 16 16 0 00-1.67.36 21 21 0 01-2.58.61c-1.18.18-2.35.24-3.53.35s-2.2.07-3.3.07c-.65 0-1.28-.09-1.93-.09h-1.71c-.26 0-.52-.09-.78-.1s-.59 0-.89 0-.88-.1-1.33-.1h-1.12a14 14 0 01-1.59-.12 16 16 0 01-1.83-.21c-.45-.1-.89-.14-1.34-.23s-1-.24-1.53-.34a7.84 7.84 0 01-1.19-.24 6 6 0 00-.83-.33 6.59 6.59 0 01-1.21-.47 8.19 8.19 0 01-1.3-.63 4.46 4.46 0 01-1.09-1 6.1 6.1 0 01-.49-1.33 3.07 3.07 0 00-.17-.31c-.09-.17-.18-.31-.25-.48s-.14-.32-.2-.49a4.22 4.22 0 01-.31-1.33 1.68 1.68 0 000-.39c0-.07-.08-.1-.08-.19a1.1 1.1 0 01.28-.72c.25-.34.53-.63.79-1s.23-.27.24-.54a1.83 1.83 0 010-.47.37.37 0 01.12-.19c.06-.07.14-.12.2-.2s.12-.39.23-.52a.31.31 0 01.37-.1c.19 0 .35.2.56.25a4.1 4.1 0 00.7 0 1.62 1.62 0 001-.46 2.52 2.52 0 00.45-.47c.16-.22.22-.53.39-.74l.2-.22a2.23 2.23 0 00.22-.21c.14-.14.21-.14.23-.33a3.68 3.68 0 000-.47c0-.31.18-.27.36-.46a1.06 1.06 0 00.2-.56c.09-.34.55-.49.57-.84a5.06 5.06 0 01.27-1.35 2.6 2.6 0 00.09-.78v-.22a2.74 2.74 0 00-.2-.73c-.1-.32-.32-.63-.45-.94a7.73 7.73 0 01-.25-1.2 10 10 0 00-.3-1.07c-.31-.83-.81-1.57-1.09-2.39-.15-.46-.43-.85-.6-1.29a4.87 4.87 0 01-.39-1 5.52 5.52 0 00-.45-1.39 10.14 10.14 0 01-.7-1.3 5.67 5.67 0 01.06-1.79 1.81 1.81 0 000-.57c0-.13-.14-.22-.17-.35a1.71 1.71 0 01.11-.78c.07-.21.19-.36.34-.34a1.82 1.82 0 01.17.56 4.44 4.44 0 01.4.82 6.44 6.44 0 000 .77.52.52 0 001 0c0-.14-.06-.21-.08-.32s0-.11.05-.21c.14-.29.43-.48.23-.82s-.34-.27-.43-.48a2 2 0 01-.15-.49c-.05-.48.28-.91.36-1.37s-.2-.73-.28-1.07c-.21-.84-.26-1.69-.42-2.53A6.35 6.35 0 0018 25a7.92 7.92 0 01-.28-.82 2.31 2.31 0 01-.21-.66 7.46 7.46 0 01-.07-1.33c0-.34-.06-.63-.09-1a1.58 1.58 0 01.2-1c.14-.26.36-.46.52-.71s.6-1.07.94-.88c.1.38 0 .78.29 1.06a.64.64 0 00.48.13 1.84 1.84 0 001.14-.63 2.86 2.86 0 00.64-1.16c0-.12.06-.25.08-.38a7.3 7.3 0 00-.09-1 7.71 7.71 0 01.08-1.07c0-.25.08-.44.09-.72a2.8 2.8 0 01.38-1.25 2.47 2.47 0 01.65-.64l.13-.12a3.54 3.54 0 00.74-.85 10.66 10.66 0 01.81-1c.14-.19.22-.43.36-.62s.4-.59.62-.88S26 9 26.43 9c.75-.11 1.4-.91 1.83-1.48a1.59 1.59 0 00.26-.43 5.69 5.69 0 01.27-.86c.22-.53.42-1.08.67-1.61s.84-1.32 1.42-1c.3.19.26.5.26.79a3.2 3.2 0 00.11 1.38.81.81 0 00.63.39 1.17 1.17 0 011.12.65 9 9 0 01.5 2.11 2.5 2.5 0 00.84 1.3 10.47 10.47 0 001.44 1.12 6.93 6.93 0 011.4 1.07 2.37 2.37 0 001.28.73 4.92 4.92 0 00.94 0 .52.52 0 01.48.23 1.78 1.78 0 00.66.52c.15.08.31.16.36.32s-.09.54.06.76.41.22.58.28a5.19 5.19 0 001.52.13h1.29c.24 0 .32 0 .45.19a3.07 3.07 0 00.6.65 2.57 2.57 0 00.44.29c.31.15.56.06.79.36a4.1 4.1 0 01.6 1.65 4.16 4.16 0 01.12.72c0 .46-.17.91-.19 1.37s.33.43.61.56a4.23 4.23 0 011.1.61c.51.47.72 1.19 1.4 1.44.4.14 1 .13 1.08.6a1.37 1.37 0 00.25.68 5.64 5.64 0 00.56.53l.29.25c.22.17.44.35.65.54a2.87 2.87 0 01.54.75c.21.34.48.41.43.84z"/><path class="cls-4" d="M65.93 30.17v2.16a19 19 0 01-.08 2.13c0 .35 0 .69-.08 1.06a1.41 1.41 0 01-.47.88.85.85 0 00-.3.6 1 1 0 01-.09.3 1.74 1.74 0 01-.38.51l-.09.08a.52.52 0 01-.11.1 2.43 2.43 0 00-.26.29c-.08.09-.14.2-.22.28a.33.33 0 01-.1.06s-.22.15-.32.23a1.68 1.68 0 01-.37.33.74.74 0 01-.5.11c-.08 0-.16-.1-.24-.13s-.17 0-.26 0a6.55 6.55 0 01-.82-.27.64.64 0 01-.27-.22 2.36 2.36 0 01-.5-1 4.59 4.59 0 00-.4-1.09c-.21-.39-.41-.81-.62-1.2a6 6 0 01-.34-.61c-.14-.27 0-.32.21-.51a1.88 1.88 0 00.5-.72.69.69 0 000-.25 2 2 0 01.1-.6c0-.15 0-.28.06-.42s.02-.18.02-.27 0-.49.15-.7c.35-.37 1.18-.57 1.17-1.17a2.65 2.65 0 01.25-.86 1.8 1.8 0 00.14-.54 1.4 1.4 0 01.05-.5c.07-.14.09-.4.25-.45s.23 0 .32 0a.75.75 0 00.48-.23 2.13 2.13 0 01.45-.45c.15-.09.22-.11.24-.29a1.08 1.08 0 01.1-.35c0-.1.14-.24.13-.34s-.07-.05-.07-.1.06-.15.1-.23a3.76 3.76 0 01.23-.55.17.17 0 01.08-.07c.1-.07.21 0 .34 0h.53a.28.28 0 01.1.09 1.21 1.21 0 01.11.37c.1.4.22.76.31 1.16 0 .15 0 .29.08.44a.67.67 0 01.07.17v.23c0 .07.07.21.08.33a2.92 2.92 0 000 .51 1 1 0 010 .31 1.89 1.89 0 00.08.4 6.12 6.12 0 01.16.99z"/><path d="M46.42 9.89c-.16.13-.58 0-.77 0a4.59 4.59 0 01-1.1-.24A7.94 7.94 0 0143 8.7a3.81 3.81 0 00-1.61-.79A17.87 17.87 0 0038.4 8c-.49 0-1.49.18-1.66-.46s.11-1.09 0-1.61-.53-.33-.78-.6c-.41-.42-.1-1.18-.47-1.59s-1.22 0-1.28-.68A2.87 2.87 0 0134.45 2c0-.11.1-.29.23-.3.3-.33.35-.46.47-.51a.63.63 0 01.33 0 3.35 3.35 0 011 .18c.43.15.88.19 1.31.32a1.16 1.16 0 00.37.07 1.48 1.48 0 01.65.1 10.43 10.43 0 01.91.66 2.62 2.62 0 01.88 1 6.44 6.44 0 01.2.68c.07.19.14.92.38.9s.49-.46.65-.61.29-.3.52-.24.33.24.47.35l.64.48a5.93 5.93 0 00.75.38 2.41 2.41 0 01.56.47 10 10 0 011.53 2.24 1.93 1.93 0 01.25 1c-.02.11.01.59-.13.72zM60.1 19a5.92 5.92 0 01-.1 1.19 11.38 11.38 0 01-.2 1.81 3.27 3.27 0 01-.62.94c-.61.73-.93 1.59-1.54 2.3a3.28 3.28 0 01-.42.41.76.76 0 01-.79.24c0-.17.13-.33.17-.51s.18-.63.06-.77-.14 0-.23-.05a.89.89 0 01-.4-.12 3.66 3.66 0 01-1-.75 3 3 0 01-.6-1 8.66 8.66 0 00-1.26-2.34 5.12 5.12 0 00-.63-.5 6.21 6.21 0 01-.95-.74 12.86 12.86 0 01-1.47-2 13.23 13.23 0 01-.89-1.36 1 1 0 01-.13-.43 9.62 9.62 0 00-.4-1.42 4.76 4.76 0 00-.29-.65 1.15 1.15 0 01-.17-.33 1.7 1.7 0 01.2-.77 2.61 2.61 0 00.19-1.14 5.82 5.82 0 00-.2-1.25c0-.12-.22-.46 0-.48-.43-.89-.22-1.19 0-1.28a.86.86 0 01.26 0 4.21 4.21 0 011.62 0h.21a6.94 6.94 0 001.44 0 3 3 0 011.77.53 4.09 4.09 0 00.46.25 4.83 4.83 0 00.66.14 5.16 5.16 0 011.69 1.09 11.84 11.84 0 011.8 1.44 4.85 4.85 0 011.37 3.35v1.55a3.7 3.7 0 00.23 1A5.6 5.6 0 0160.1 19zM52.57 7a.35.35 0 010 .13c-.12.28-.56.23-.82.19a1 1 0 01-.36-.15 11.51 11.51 0 00-1.82-.92 3.8 3.8 0 00-.57-.14 6 6 0 01-.71-.11l-.64-.18a1.62 1.62 0 00-.58 0c-.2 0-.44.35-.61.36-.68-1.36-2.25-1.91-3.08-3.18a.29.29 0 01.16 0 1.62 1.62 0 01-.75-.58 3.16 3.16 0 00-.58-.42 5.59 5.59 0 00-.91-.54c-.28-.13-.5-.07-.47-.36a.45.45 0 010-.11 2.38 2.38 0 00.73-.39 1 1 0 01.3-.11h.72a3 3 0 011.71.51 18.45 18.45 0 002.6 1.49c.32.16.65.32 1 .5a10.62 10.62 0 011.7 1.12c.51.4 1.1.68 1.61 1.08a3.82 3.82 0 01.88 1 4.28 4.28 0 00.41.45.47.47 0 01.08.36z" fill="#abd9ce"/><path class="cls-3" d="M65.93 30.17v2.16a19 19 0 01-.08 2.13c0 .35 0 .69-.08 1.06a1.41 1.41 0 01-.47.88.85.85 0 00-.3.6 1 1 0 01-.09.3 1.74 1.74 0 01-.38.51l-.09.08a.52.52 0 01-.11.1c0 .19-.25.36-.37.49l-.11.08a.33.33 0 01-.1.06l-.29.16a1.31 1.31 0 01-.84.19 1 1 0 01-.45-.23c-.09-.09-.15-.22-.25-.32s-.21-.26-.33-.38a2.55 2.55 0 01-.4-.47 3.62 3.62 0 01-.22-.63 6.86 6.86 0 00-.49-1.26c-.05-.14-.12-.3-.18-.44s-.17-.19-.24-.3 0-.25.07-.36a1.35 1.35 0 00.3-.46 7.9 7.9 0 00.11-.85c0-.07.05-.1.07-.16a.81.81 0 000-.22 2.68 2.68 0 01.11-.49 1.55 1.55 0 01.59-1.1 1.44 1.44 0 00.38-.36 1.72 1.72 0 00.31-.54 3 3 0 01.23-.66.74.74 0 00.08-.29v-.27l.13-.49c.05-.15 0-.26.15-.37s.25-.09.39-.15a1.36 1.36 0 00.44-.35c.17-.16.27-.4.47-.5a1 1 0 00.28-.16c.07-.07 0-.08.07-.16s.14-.2.17-.33v-.26a.73.73 0 00.06-.21 1.74 1.74 0 010-.51c0-.07.12-.16.16-.24s.06-.1.2-.13a.52.52 0 00.22-.07 1.21 1.21 0 01.11.37c.1.4.22.76.31 1.16 0 .15 0 .29.08.44a.67.67 0 01.07.17v.23c0 .07.07.21.08.33a2.92 2.92 0 000 .51 1 1 0 010 .31 1.89 1.89 0 00.08.4 6.12 6.12 0 01.15 1z"/><path class="cls-4" d="M21.9 47.41a3.92 3.92 0 01.16 1.18 4.45 4.45 0 01-.23 1.36 7.77 7.77 0 01-.29.87c-.14.32-.18.64-.34.93s-.25.5-.39.75a3.93 3.93 0 01-.59.92c-.14.15-.32.24-.45.39a2.45 2.45 0 01-.28.31c-.21.16-.5.25-.7.43s-.16.23-.32.29A2.62 2.62 0 0018 55a2.35 2.35 0 01-.41.2 2.93 2.93 0 01-1.8-.31 2.25 2.25 0 00.2-.2c.11-.13.12-.39.23-.52a.3.3 0 01.37-.1c.2 0 .35.2.56.25a4 4 0 00.7 0 1.64 1.64 0 001-.46 2.26 2.26 0 00.45-.47c.16-.22.23-.53.39-.73s.29-.29.42-.43.2-.14.23-.33a4.58 4.58 0 000-.47c0-.31.18-.27.36-.47a1.06 1.06 0 00.2-.56c.09-.34.55-.49.57-.84a5.4 5.4 0 01.28-1.36 2.76 2.76 0 00.15-.79zm.98-34.67v.11c-.13.49-.48.88-.62 1.36a3.52 3.52 0 00-.18 1c0 .38-.11.73-.11 1.13a3.12 3.12 0 01-.1 1.13 1.2 1.2 0 01-.29.47 3 3 0 00.07-.38 7.51 7.51 0 00-.08-1 6.72 6.72 0 01.07-1.07 6.39 6.39 0 00.09-.72 2.76 2.76 0 01.38-1.25 2.46 2.46 0 01.65-.64zM49 61.56l-.18-.05a1.85 1.85 0 00-.62 0l-.79.19a4.66 4.66 0 01-1.13.11h-.98a10.65 10.65 0 00-1.78.19 1.46 1.46 0 01-1.14-.25 6.65 6.65 0 00-1.53-.82A8.83 8.83 0 0038 60.8h-.83a2.42 2.42 0 00-.66.05 1.32 1.32 0 01-.59 0c-.26-.08-.45-.62-.63-.84a4.56 4.56 0 01-.73-1 2.21 2.21 0 00-.36-.76 2.28 2.28 0 00-.76-.39 16.76 16.76 0 00-2-.67 4.21 4.21 0 01-.58-.11 3.18 3.18 0 00-.53-.24 4.51 4.51 0 01-1.2-.84 8.81 8.81 0 00-.92-.72c-.29-.17-.57-.31-.85-.48a2.69 2.69 0 01-1.1-2c0-.14 0-.33-.05-.45s-.08-.06-.1-.11a1.08 1.08 0 010-.36.26.26 0 000-.15c0-.12-.11-.24-.14-.36s0-.16 0-.19h-.13c-.16 0-.31-.09-.47-.11a.68.68 0 01-.15 0 1.92 1.92 0 00-.31-.11l-.24-.07a1.39 1.39 0 00-.43-.12 4.08 4.08 0 01-.6-.16 1.24 1.24 0 01-.49-.2 2.48 2.48 0 01-.39-.27.85.85 0 01-.11-.34 1.24 1.24 0 010-.47v-1.37a1.3 1.3 0 010-.22 1.08 1.08 0 010-.4c.16 0 .5.09.54-.17s-.18-.26-.24-.35-.19-.36-.3-.55a2 2 0 01-.17-.59.75.75 0 000-.16.56.56 0 010-.22v-.51c0-.17.08-.38.08-.57a.39.39 0 01.09-.26l.16-.22c.07-.09.11-.08.21-.08H23a2.63 2.63 0 00.63-.23 3.94 3.94 0 01.69-.21c.33-.09.33-.56.64-.69s.37-.1.54-.19l.36-.17.25-.07c-.21.17-.42.34-.64.5a2.14 2.14 0 00-1 1.06c-.12.35-.44.35-.75.44a1 1 0 00-.84.74 6.75 6.75 0 000 1.19c0 .55.36.82.64 1.22s-.09.44-.28.69a1.69 1.69 0 00-.24 1.14c0 .57.44.64.91.84.21.09.43.17.64.27s.36.31.58.36.67-.19 1-.07.36.79.39 1.29v.44a4 4 0 00.32 1 2.15 2.15 0 001.15 1c.34.16.48.46.71.72a2.13 2.13 0 001 .59c.8.32 1.54.76 2.35 1 .36.12.72.23 1.07.37s.8.18 1.21.3a6.46 6.46 0 01.81.36 2.12 2.12 0 01.74.47 3 3 0 01.69 1.39c0 .14.08.38.24.46s.22 0 .31 0a3.08 3.08 0 01.67.09 4.68 4.68 0 00.65 0c.74 0 1.46.27 2.21.19.34 0 .65-.18 1-.19a4.31 4.31 0 011.85.25c.2.08.42.12.62.21a6 6 0 00.73.45 1.32 1.32 0 00.56 0c.88-.12 2-.83 2.88-.25h.08a2.06 2.06 0 01.63.94z"/><path d="M46.53 9.1a2.51 2.51 0 00-.24.26c0 .07 0 .07-.12.08a2.28 2.28 0 01-.33 0 3 3 0 01-.47 0c-.24 0-.47-.07-.71-.13a2.88 2.88 0 01-.57-.23c-.12 0-.2-.16-.31-.22a.87.87 0 01-.2-.15 4.56 4.56 0 01-.49-.4.94.94 0 00-.64-.31c-.18 0-.36-.11-.54-.16s-.52-.12-.78-.19a3.77 3.77 0 00-.91-.15 3.9 3.9 0 01-.54 0h-.38c-.12 0-.47-.08-.7-.08H38a1.06 1.06 0 01-.42 0 .42.42 0 01-.3-.27 2.3 2.3 0 01-.11-.7V5.9a.38.38 0 000-.17.88.88 0 00-.17-.28c-.08-.09-.16-.19-.25-.27L36.5 5l-.14-.16a1.27 1.27 0 01-.1-.18 1.33 1.33 0 01-.2-.37c0-.13 0-.29-.07-.42a.79.79 0 00-.21-.37.79.79 0 00-.34-.24L35 3.11a.51.51 0 00-.19 0 .77.77 0 01-.15 0c-.15 0-.2 0-.24-.17a.55.55 0 010-.34v-.44a3.24 3.24 0 01.17-.38c.3-.33.35-.46.47-.51a.63.63 0 01.33 0 3.35 3.35 0 011 .18c.43.15.88.19 1.31.32a1.16 1.16 0 00.37.07 1.48 1.48 0 01.65.1 10.43 10.43 0 01.91.66 2.62 2.62 0 01.88 1 6.44 6.44 0 01.2.68c.07.19.14.92.38.9s.49-.46.65-.61.29-.3.52-.24.33.24.47.35l.64.48a5.93 5.93 0 00.75.38 2.41 2.41 0 01.56.47 10 10 0 011.53 2.24 1.93 1.93 0 01.32.85zm5.92-2.5a.75.75 0 01-.21 0h-.15a4 4 0 01-1.37-.29l-.57-.26a2.6 2.6 0 01-.36-.13c-.11-.05-.23-.06-.34-.12l-.15-.08h-.12l-.31-.11c-.13 0-.29 0-.43-.09a2.59 2.59 0 00-.37-.11h-.43a1.94 1.94 0 00-.68 0 1.47 1.47 0 00-.28.08.29.29 0 01-.16 0 .23.23 0 01-.18 0s0-.09-.09-.13A2.76 2.76 0 0146 5c-.24-.29-.51-.58-.74-.88a8.94 8.94 0 00-.67-.71c-.13-.12-.25-.26-.38-.38s-.25-.16-.35-.25a10.69 10.69 0 01-.71-.8l-.27-.27a2.32 2.32 0 01-.35-.35A3.18 3.18 0 0042 .78a1.35 1.35 0 00-.44-.18 1 1 0 01.3-.11h.72a3 3 0 011.71.51 18.45 18.45 0 002.6 1.49c.32.16.65.32 1 .5a10.62 10.62 0 011.7 1.12c.51.4 1.1.68 1.61 1.08a3.82 3.82 0 01.88 1 4.28 4.28 0 00.37.41zM60.1 19a5.92 5.92 0 01-.1 1.19 11.38 11.38 0 01-.2 1.81 3.27 3.27 0 01-.62.94c-.61.73-.93 1.59-1.54 2.3a.92.92 0 01-.24 0c-.08 0-.06-.17-.09-.23a5.62 5.62 0 01-.23-.77A1.2 1.2 0 0057 24c0-.05-.1-.06-.15-.1a1.06 1.06 0 00-.21-.11.9.9 0 01-.22-.06l-.27-.1a.5.5 0 01-.14-.08 2.06 2.06 0 01-.37-.29 2.8 2.8 0 01-.38-.47 3.5 3.5 0 01-.26-.51.81.81 0 00-.16-.32.3.3 0 01-.12-.13c-.07-.19-.07-.39-.15-.57a2.39 2.39 0 00-.39-.72l-.26-.23c-.12-.09-.19-.19-.31-.27s-.3-.22-.45-.33-.21-.14-.32-.22l-.24-.17-.2-.16a1.2 1.2 0 01-.21-.17 1 1 0 01-.14-.21 4.28 4.28 0 00-.4-.45 2 2 0 01-.35-.47 3.56 3.56 0 01-.34-.6c-.07-.16-.12-.33-.2-.5a1.23 1.23 0 01-.11-.23 1.05 1.05 0 00-.06-.24l-.06-.16a1.46 1.46 0 00-.07-.19c-.05-.08-.13-.1-.18-.15a1.49 1.49 0 01-.12-.14l-.16-.16a5.05 5.05 0 01-.37-1 1.92 1.92 0 01-.09-.4 1.94 1.94 0 00-.05-.2c0-.07-.08-.09-.12-.15l-.17-.27a.84.84 0 01-.17-.4 1.76 1.76 0 01.09-.5 4.51 4.51 0 00.09-.53 2.52 2.52 0 01.18-.61 4.26 4.26 0 00.2-.8 3.19 3.19 0 00.08-.7.69.69 0 00-.13-.38 2.08 2.08 0 00-.13-.3c0-.1-.13-.18-.18-.27a2.44 2.44 0 00-.32-.4c-.1-.09-.21-.13-.22-.27V8a4.21 4.21 0 011.62 0h.21a6.94 6.94 0 001.44 0 3 3 0 011.77.53 4.09 4.09 0 00.46.25 4.83 4.83 0 00.66.14 5.16 5.16 0 011.69 1.09 11.84 11.84 0 011.8 1.44 4.85 4.85 0 011.37 3.35v1.55a3.7 3.7 0 00.23 1A5.6 5.6 0 0160.1 19z" fill="#c6efed"/><path class="cls-7" d="M65.84 29.21a1.89 1.89 0 01-.08-.4 1 1 0 000-.31 2.92 2.92 0 010-.51c0-.12-.06-.2-.08-.33s0-.16 0-.23a.67.67 0 00-.07-.17c0-.15 0-.29-.08-.44-.09-.4-.21-.76-.31-1.16a1.21 1.21 0 00-.11-.37.28.28 0 00-.1-.09c-.15-.07-.37 0-.53 0s-.24-.09-.34 0a32.5 32.5 0 00-4.35-10.28 4.85 4.85 0 00-1.37-3.35 11.84 11.84 0 00-1.8-1.44A5.16 5.16 0 0054.87 9c-.74-.7-1.51-1.37-2.3-2a.47.47 0 00-.12-.39 4.28 4.28 0 01-.45-.46 3.82 3.82 0 00-.88-1c-.51-.4-1.1-.68-1.61-1.08A10.62 10.62 0 0047.85 3c.3.21.4.62.77 1.16 0 0 .88 1.32 1.12 1.82l-.2.31c.28.58.53 1.17.77 1.76.21 0 .42 0 .5.2a34.88 34.88 0 011.28 4.12 28 28 0 00-25.5-.74 10.33 10.33 0 001.21 2.24c-1.57-1-3.09-2-3.58-2.25l-5.33 13.2 8.14 4 8-4.22-2.52-6.9a45.37 45.37 0 0113.59-.9.9.9 0 01.68.26 29.19 29.19 0 013.78.69l.54-.24c.6.18 1.42.82 2 1 0 .39 0 .77.05 1.15 0 .19-.55 0-.55.19V20a32.91 32.91 0 01-.4 5.1c0 .14.28.47.26.61a29.47 29.47 0 01-.78 4.47c-.08.26-.88.51-1 .76a32.5 32.5 0 01-24.14 20.83c-.15 0-.21.68-.37.7a33.08 33.08 0 01-5.31.55c-.24 0-.49-.08-.73-.08l-.13-.53a32.32 32.32 0 01-16-4.26l.08.14a32.58 32.58 0 0010.67 11.36c.06.17.13.33.2.49s.16.31.25.48a3.07 3.07 0 01.17.31 6.1 6.1 0 00.49 1.33 4.46 4.46 0 001.09 1 8.19 8.19 0 001.3.63 6.59 6.59 0 001.21.47 6 6 0 01.83.33 7.85 7.85 0 001.19.24c.51.1 1 .24 1.53.34s.89.13 1.34.23a16 16 0 001.83.21 14 14 0 001.59.12h1.12c.37 0 .88.09 1.33.1s.6 0 .89 0 .52.09.78.1h1.71c.57 0 1.28.09 1.93.09 1.1 0 2.19 0 3.3-.07s2.35-.17 3.53-.35a21 21 0 002.58-.61 16 16 0 011.67-.36 1.29 1.29 0 00.75-.31c.08-.08.11-.18.18-.26s.2-.14.29-.23c.24-.26.49-.49.74-.75A1.71 1.71 0 0049 61.8a1.19 1.19 0 00-.07-.23 2.06 2.06 0 00-.59-.73h-.08a32.46 32.46 0 0016.15-22.9l.09-.08a1.74 1.74 0 00.38-.51A1 1 0 0065 37a.85.85 0 01.3-.59 1.41 1.41 0 00.47-.88c.07-.37 0-.71.08-1.06a19 19 0 00.08-2.13v-2.17a6.12 6.12 0 00-.09-.96z"/><path d="M30.81 15.16a45.83 45.83 0 00-4.21-3.58c-.27-.21-1.46-4.67-1.2-4.79 20.76-9.36 30.37-.45 39.79 13.36a4 4 0 00.61-1.26l1.3-.83c.88 4.38.7 6.41-.52 10.1l-2 .21a14.18 14.18 0 00-4.11-5.1 18 18 0 011.76-1.37c-4.81-7.35-18-16.27-30.62-6.85-.33.32-.67.28-.8.11z" fill="#329dd1"/><path d="M31.33 12.93c-1.54-1.09-4.78-3.49-5.9-5.52-.19-.41-.11-1 .15-1.14 20.82-8.94 30.8-2 41.18 13.92 0-.77.39-1.11.34-2.11 1 5.17.91 6.5-.52 10.1a16.93 16.93 0 00-3.38-5.26c.72-.22 1-.31 1.57-.44C58.23 13 46.08 3.84 32.3 12.78c-.3.31-.67.43-.97.15z" fill="#3bbaf7"/><path d="M79.47 32.48a2.64 2.64 0 00-.29-.79c-.23-.39-1.06.15-1.6-.06a36.78 36.78 0 00-6.3-1.22 59.24 59.24 0 00-6.62-.56c-.13 0-.2.13-.23.32a3.27 3.27 0 00.29 1.57 25 25 0 004 5.08 4.66 4.66 0 001.29.83 9.26 9.26 0 008.28-1.26 3 3 0 001.35-2.62 12.75 12.75 0 00-.17-1.29zm-3.2 3.12a5.08 5.08 0 01-4.53.69c-1-.39-1.36-1.12-1-1.84a2 2 0 01.62-.77 5 5 0 014.51-.68 2 2 0 01.82.54c.54.58.42 1.39-.42 2.06z" fill="#0d2b86"/><path class="cls-2" d="M79.31 32a2.13 2.13 0 00-.1-.21v-.07h-.05a3.51 3.51 0 00-1.75-1.32 25.07 25.07 0 00-6-.68c-2.47-.09-5-.07-6.35-.06a.57.57 0 00-.56.59.62.62 0 00.09.26 25 25 0 004 5.07 4.7 4.7 0 001.32.86 9.26 9.26 0 008.28-1.27 3 3 0 001.36-2.61 2.91 2.91 0 00-.24-.56zm-8.17.41a5.08 5.08 0 014.53-.69c1 .39 1.36 1.13 1 1.85a2 2 0 01-.62.76 5.05 5.05 0 01-4.53.7 2.13 2.13 0 01-.82-.54c-.52-.64-.4-1.49.44-2.12z"/><path class="cls-7" d="M71.28 30.4c-.48 1.77-2.82 4.85-2.82 4.85v.25c.06.3.16.84.23 1.32a25 25 0 01-4-5.08 3.27 3.27 0 01-.29-1.57.57.57 0 01.56-.59c1.35 0 3.88 0 6.35.06a1.64 1.64 0 01-.03.76z"/><path fill="#f7b880" d="M26.7 20.61l-7.81 4.15-6.29-.18 9.62-4.91 4.48.94z"/><path fill="#eda86a" d="M24.23 11.57l2.47 9.04-4.48-.94-3.59-10.8 5.6 2.7z"/><path fill="#f7c68d" d="M18.63 8.87l1.23 3.65.75 1.97 1.62 5.19-9.63 4.9-1.08-4.8-.64-2.06-1.16-4.42 8.91-4.43z"/><path fill="#d69e67" d="M20.07 13.07l.74 2.05-9.16 5.22-.6-2.09 9.02-5.18z"/><path class="cls-15" d="M20.81 15.12l1.5.78.25.16-.39-.48.13-.16-.42-.5.13-.15-.44-.5.13-.14-.29-.17-1.34-.9.74 2.06z"/><path class="cls-15" d="M11.32 19.15l.06.19s.18.33 9.15-5l-.1-.31c-1.69 1.38-8.87 5.03-9.11 5.12z"/><path d="M18.67 23.83h1.86l5.3-2.76h-1.66zm6.9-2.65l-5 2.56H19l5.15-2.56zM20 23.53h-.33l.32-.15.46-.07h-.2l.9-.42h.26c.17 0 .07.13-.23.3h.26l.42-.24H22l-1 .57h-.08l.46-.25h-.26a3 3 0 01-1.12.26zm5.15-2.2l-1.08.54H24l1.06-.52zm-1.41.4h-.1l-.15-.11h.5-.11.38-.14zm.45-.2l-.11.05-.18-.12.53-.07-.11.06h.42-.14zm-2.63 1.26l.22-.15a5.22 5.22 0 01.46-.28h-.07l.12-.07h.07l.53-.25.32-.13-.73.38h.31c.11 0 .22 0 0 .15l-.23.1a.65.65 0 01-.22 0l.13-.07h.14l.12-.05c.08 0 .14-.08 0-.08h-.31l-.79.43zm-.12-.06v-.06l.25-.06-.05.06a.53.53 0 01-.17.04zm.44-.23v-.06l.23-.06-.05.06a.48.48 0 01-.15.04zm.46-.24v-.06l.22-.05-.05.06a.43.43 0 01-.15.03zm.39-.21v-.06h.21v.06a.4.4 0 01-.19-.05z" fill="#453224"/></g></g></g></svg>