<svg xmlns="http://www.w3.org/2000/svg" viewBox="0 0 91.62 50.09"><defs><style>.cls-3{fill:#e0ddc3}.cls-4{fill:#59ab59}.cls-5{fill:#d4d1ae}.cls-6{fill:#47a147}.cls-7{fill:#ebe4d3;mix-blend-mode:multiply}.cls-8{fill:#f2c79a}.cls-18{fill:#edb983}.cls-19{fill:#dead7a}.cls-20{fill:#0d2b86}.cls-21{fill:#295acf}</style></defs><g style="isolation:isolate"><g id="Слой_2" data-name="Слой 2"><g id="Layer_3" data-name="Layer 3"><path d="M84.51 22.53c-4-3.22-6.37-5.44-10.12-8.85-4.47-.55-5.2-.82-9.81-1.67C61 8.39 58 5.68 54.86 2.42 51.24 2 50 1.74 45.81 1.19 30.66 9.94 15.15 18.27 0 27v.62c3.62.5 5.43.7 9.05 1.23 3.41 3 6.44 6.37 9.71 9.61 3.53.5 5.89.92 9.81 1.67 3.93 3.15 6.58 6.23 10.13 8.87a46.71 46.71 0 017.11 1.11l45.81-26.47V23c-2.62-.73-4.4.21-7.11-.47z" fill="#c7c1a1"/><path class="cls-3" d="M45.81.57L0 27c3.62.5 5.43.7 9.05 1.23L54.86 1.79c-3.62-.4-4.86-.68-9.05-1.22z"/><path class="cls-4" d="M27 17.36c-1 .38-.83.88-1.54 1.34a7.18 7.18 0 01-2.44.74c-.86.13-1.7.21-2.57.43a7 7 0 00-2.81 1.39c-1.08 1-1.09 1.74-.38 2.27l11.16-6.44a5.38 5.38 0 00-1.42.27zM38.89 9c-1.86.35-3.94 1.24-4.31 2-.23.46.19.78.43 1.13a1.36 1.36 0 01.21 1l7.36-4.25a10.92 10.92 0 00-3.69.12z"/><path class="cls-3" d="M64.57 11.4L18.76 37.85c3.53.5 5.89.92 9.81 1.67l45.82-26.45c-4.48-.55-5.2-.82-9.82-1.67z"/><path class="cls-4" d="M60 20.26a24 24 0 01-4.82 1 2.77 2.77 0 01-2.24-.69 3.09 3.09 0 01-.47-1.41 3.57 3.57 0 00-.21-.63L28.17 32.42c.18.07.29.16.28.3s-.23.38-.47.57c-1.26 1-3.58 2.08-3.72 3s2.09 1.14 4.4.77a20.39 20.39 0 006.22-2.15 5.17 5.17 0 011.43.17l26.56-15.36a21.1 21.1 0 00-2.87.54zm5.77-5.08c-1.6.14-3.35.27-4.13-.18-.54-.3-.62-.86-1.51-1l-3.45 2a5.46 5.46 0 002.92 1.18 39.06 39.06 0 006.65.63l5.07-2.93c-1.93.01-3.75.12-5.55.3z"/><path class="cls-5" d="M54.86 1.79L9.05 28.24c3.41 3 6.44 6.37 9.71 9.61L64.57 11.4C61 7.77 58 5.05 54.86 1.79z"/><path class="cls-6" d="M51.6 14.79a1.33 1.33 0 00-.6-.89c-.58-.3-1 .13-1.46.35-1 .53-2.89-.28-4-1.31a18.26 18.26 0 01-2.31-3.21 7.89 7.89 0 00-.68-.85l-7.36 4.25a7.14 7.14 0 01-1 2.51 4.5 4.5 0 01-5.15 1.74c-.24-.09-.48-.2-.72-.29l-11.1 6.44c.89 2.27 4.38 5.4 7.75 6.92a17.39 17.39 0 012.3 1.1 2.94 2.94 0 01.9.87l24.1-13.92a17.42 17.42 0 00-.67-3.71zm8.02-1.22a2 2 0 00-3 1.23 3.14 3.14 0 000 1.16l3.45-2a2 2 0 00-.45-.39z"/><path class="cls-5" d="M74.39 13.07L28.58 39.52c3.92 3.15 6.57 6.22 10.12 8.85l45.81-26.46c-4.05-3.22-6.38-5.43-10.12-8.84z"/><path class="cls-6" d="M53.68 27.55a1.4 1.4 0 01-.34-1.38c.27-.52 1.13-.7 1.94-.68 3.37.08 7 2.65 10.26 2.37 1-.09 1.92-.44 3-.51 1.54-.09 3.2.44 4.77.46a7 7 0 001.18-.09l3.78-2.19a3.41 3.41 0 00.64-1.93c0-2.28-2-4.88-4.48-6.8a21.53 21.53 0 00-2.84-1.8l-.27-.14-5.07 2.93c.82.51 1.68 1 2.57 1.53a18.19 18.19 0 012.88 1.83 3.09 3.09 0 011.36 2.46c-.11.77-.86 1.31-1.69 1.68-1.42.64-3.71.79-5-.41s-.71-2.86-1.77-4.1a3.67 3.67 0 00-1.69-1L36.3 35.06a3 3 0 01.84 1.58c.11.69-.08 1.42.42 2.11.91 1.26 3.19 1.38 4.64 1 .51-.15 1-.36 1.15-.78.16-.61-.64-1.33-1.45-1.74A15.22 15.22 0 0139.5 36a1.59 1.59 0 01-.67-2 2.31 2.31 0 012.29-.77c2 .32 3 2.25 3.91 3.8a8.76 8.76 0 002.9 3.11 5.79 5.79 0 003.66.8l9.93-5.74a5.51 5.51 0 00-1.82-2.91c-1.82-1.65-4.7-2.9-6.02-4.74z"/><path class="cls-6" d="M66.78 29.47c-1 0-2 .33-3 .25h-.18a7.64 7.64 0 01-2.35-.85 7.51 7.51 0 00-2.36-.87c-3.57-.41-.3 3.23 1.27 4 1.25.61 2.9 1 3.33 1.88a1 1 0 010 .13l6.4-3.7a8.76 8.76 0 00-3.11-.84z"/><path class="cls-3" d="M38.7 48.36a46.69 46.69 0 017.11 1.11L91.62 23c-2.84-.91-4.27-.4-7.11-1.11z"/><path class="cls-4" d="M78.24 25.53l-3.78 2.19a8.89 8.89 0 003.78-2.19zM52.21 40.71c3.46-1.36 7.74-2.37 9.14-4.2a1.07 1.07 0 00.16-1.31l-9.93 5.74zm17.73-10.38L63.54 34c.16.17.12.39.22.57.28.52 2.06.5 3.55 0a8.52 8.52 0 002.16-1.16q1.17-.82 2.18-1.64c.54-.43 1.06-.91.76-1.19a4.57 4.57 0 00-2.15-.26z"/><path class="cls-7" d="M54.52 18.08l1.99.46-19.7 11.37.57 1.9.39.16-5.31 5.13h.31l10.05 3.28 7.64-7.83-6.64-1.84h-.67l18.9-10.91.48.11 1.19 1.11.57-2.13.54-2.92-10.31 2.11z"/><path class="cls-8" d="M32.46 37.1l-8.18-1.12L22.23 28l8.29.97 1.94 8.13z"/><path fill="#e3b788" d="M29.78 29.59l1.51 6.29-6.36-.75-1.57-6.2.48.06 5.94.6z"/><path fill="#edc397" d="M29.78 29.59l1.39 5.79-5.89-.7-1.44-5.69 5.94.6z"/><path fill="#deb081" d="M39.4 31.99l-6.94 5.11-1.94-8.13 6.86-4.96 2.02 7.98z"/><path fill="#c99b6d" d="M36.85 25.41l1.54 6.17-5.44 3.85-1.51-6.28 5.05-3.47.36-.27z"/><path fill="#d9ac7e" d="M36.49 25.68l1.43 5.7-5.08 3.59-1.4-5.82 5.05-3.47z"/><path fill="#f7cfa2" d="M37.38 24.01l-6.86 4.96-8.29-.97 6.84-5.07 8.31 1.08z"/><path fill="#edc091" d="M35.72 24.42l-.43.33-4.95 3.49-5.91-.61-.53-.07 5.33-3.99 6.49.85z"/><path fill="#f2ca9f" d="M35.29 24.75l-4.95 3.49-5.91-.61 4.89-3.69 5.97.81z"/><path d="M24.15 29.53l-.06-.24h.15l.13.23v-.21h.47l.06.24a.23.23 0 01-.25.29l.06.25h.26v.07l-.61-.06v-.07h.26l-.06-.25a.54.54 0 01-.41-.25zm2.81.88h-.6v-.07h.6zm-.6-.52h-.06v-.32l.19.34h-.07l.08.34h-.08zm.27 0h-.07v-.32l.19.34h-.07l.08.34h-.08zM25 29.62l.16-.05a.89.89 0 01.32 0v-.08h.08v.08a1.3 1.3 0 01.34.09l.2.08h-.5l.09.35c0 .12 0 .27-.12.25a.24.24 0 01-.14-.06.28.28 0 01-.09-.15h.08a.18.18 0 00.06.1h.07c.05 0 .1 0 .05-.19l-.09-.35h-.5l-.01-.07zm0-.22v-.12a.72.72 0 01.1.14s0 .06-.05.05a.1.1 0 01-.05-.07zm.26 0v-.12a.71.71 0 01.1.13s0 .06-.05.05a.1.1 0 01-.06-.04zm.29 0v-.12a.7.7 0 01.1.13s0 .06-.05.05a.1.1 0 01-.05-.01zm.26 0v-.12a.7.7 0 01.1.13s0 .06-.05.05a.1.1 0 01-.05.01z" fill="#453224"/><path class="cls-8" d="M31.24 30.1l.62.14.17.68-.63-.16-.16-.66z"/><path class="cls-18" d="M31.24 30.1l6.27-4.37.63.17-6.28 4.34-.62-.14z"/><path class="cls-18" d="M31.24 30.1l.38.08.16.68-.38-.1-.16-.66z"/><path class="cls-19" d="M31.86 30.24l6.28-4.34.18.7-6.29 4.32-.17-.68z"/><path class="cls-8" d="M32.23 34.2l.63.2.19.78-.64-.19-.18-.79z"/><path class="cls-18" d="M32.23 34.2l6.3-4.44.66.25-6.33 4.39-.63-.2z"/><path class="cls-18" d="M32.23 34.2l.38.12.19.78-.39-.11-.18-.79z"/><path class="cls-19" d="M32.86 34.4l6.33-4.39.19.76-6.33 4.41-.19-.78z"/><path class="cls-20" d="M36.43 24.6c-1-.27-2.37-.7-3-.87a4.67 4.67 0 01-.92-1.38c5.11-8 13.13-11.66 23.24-12.17a13.39 13.39 0 01-1.18-.9l-.21-1.38a61.55 61.55 0 018.12 2.79L62.9 12a10.66 10.66 0 00-2.9 1 13.41 13.41 0 00-1.18-.9C50.69 13 41.34 18 37 24.38a.54.54 0 01-.57.22z"/><path class="cls-21" d="M35.63 23.33c-1-.27-2.37-.7-3-.87a.18.18 0 01-.1-.28c5.11-8 12.32-12.76 23.14-13.39-.49-.31-.75-.48-1.3-.88a40.27 40.27 0 018.12 2.79 9.55 9.55 0 00-2.7 1 10.44 10.44 0 00-1.06-.92c-8.65 1-18.16 5.95-22.47 12.34a.54.54 0 01-.63.21z"/><path class="cls-7" d="M64.88 15.78a23.06 23.06 0 004.31.28s7.07 3.74 8 3.75 1.91-.48 1.72-1S71.08 15 71.08 15l-4.89-.14z"/><path class="cls-20" d="M66 .57a3 3 0 00-2.92-.31 5.89 5.89 0 00-1.78 1.21c-.28.36.53.93.53 1.51 0 2.18 2 10.14 3 12.68.17.41 1.48-.39 1.75-.74 1.16-1.56 3.59-5.06 3.59-7.1A9.26 9.26 0 0066 .57zm0 7.48a5.06 5.06 0 01-2.29-4c0-1.46 1-2.05 2.29-1.32a5.06 5.06 0 012.29 4c.02 1.46-1 2.06-2.29 1.33z"/><path class="cls-21" d="M64.88 1.23C62.56-.1 60.69 1 60.69 3.65c0 2.18 2.79 9.27 3.82 11.81a.56.56 0 001 .13c1.16-1.56 3.59-5.06 3.59-7.1a9.26 9.26 0 00-4.22-7.26zm0 7.48a5.06 5.06 0 01-2.29-4c0-1.46 1-2.05 2.29-1.32a5.06 5.06 0 012.29 4c0 1.46-1.03 2.06-2.29 1.33z"/></g></g></g></svg>