<svg xmlns="http://www.w3.org/2000/svg" viewBox="0 0 85.5 88.32"><defs><style>.cls-3{fill:#383431}.cls-4{fill:#2044d6}.cls-5{fill:#48433f}.cls-6{fill:#0d2b86}.cls-7{fill:#575245}.cls-8{fill:#302d2a}.cls-9{fill:#8db0a1}.cls-10{fill:#1c1a19}.cls-11{fill:#6e6757}.cls-14{fill:#7a7361}.cls-15{fill:#ff7d19}.cls-16{fill:#ffa536}.cls-18{fill:#2148a5}.cls-20{fill:#d1ccc0;mix-blend-mode:multiply}</style></defs><g style="isolation:isolate"><g id="Слой_2" data-name="Слой 2"><g id="Layer_3" data-name="Layer 3"><path fill="#13287d" d="M62.76 61.25l-7.38-4.42 2.61-1.65 4.77-1.44 2.43 3.6-2.43 3.91z"/><path class="cls-3" d="M38.92 61.28l6.9-11.59-4.17-2.39a2.27 2.27 0 00-.36-.2 3.47 3.47 0 00-3.18.43 10.55 10.55 0 00-4.77 8.27 3.43 3.43 0 001.28 3l.23.14z"/><path class="cls-4" d="M58 45a12.84 12.84 0 015.6-9.91.35.35 0 00.19-.33c0-2.73 0-5-1.23-6.73a2.1 2.1 0 00-1-.59 1.5 1.5 0 00-1.82.89c-5.56 9.79.71 7.58-18.43 19.32a6.11 6.11 0 001 .59c3.79-.35 4.33.77 4.53 3.67l1 .59 9.84-7A.57.57 0 0058 45z"/><path class="cls-5" d="M47.19 52.76A10.55 10.55 0 0142.42 61c-2.64 1.52-4.77.29-4.77-2.76A10.55 10.55 0 0142.42 50c2.63-1.51 4.77-.28 4.77 2.76z"/><path class="cls-6" d="M59 45.58a12.84 12.84 0 015.6-9.91.35.35 0 00.19-.33c-.06-3.18-.48-5.52-2.25-7.32-.43-.44-1.3 0-1.82.89-5.56 9.79.71 7.58-18.43 19.32 4.12-.51 5.34 1.26 5.55 4.26l10.86-6.41a.57.57 0 00.3-.5z"/><path class="cls-4" d="M78.48 37.37c-3-1.76-12.71-7.79-15.93-9.42s-2.61 7.82-2.61 7.82l14.59 9.78z"/><path class="cls-3" d="M54.72 70.41l6.9-11.59-4.17-2.39a2.28 2.28 0 00-.36-.2 3.47 3.47 0 00-3.18.43 10.55 10.55 0 00-4.77 8.27 3.43 3.43 0 001.28 3l.23.14z"/><path class="cls-7" d="M74.78 46.7l-1.53.9-15.73 9.2-.04.03-.28.16-14.9-8.76 15.92-13.89 1.67-.62 13.78 7.95.17.77.94 4.26z"/><path class="cls-8" d="M73.91 41.81l-.07.62-.59 5.17-9.85 5.76-1.55.91-4.33 2.53-.04.02 2.52-2.5 1.63-1.62 10.24-10.16 1.8-.87.24.14z"/><path class="cls-3" d="M77.23 57.35l6.9-11.59-4.13-2.4a2.27 2.27 0 00-.36-.2 3.47 3.47 0 00-3.18.43 10.55 10.55 0 00-4.77 8.27 3.43 3.43 0 001.28 3l.23.14z"/><path class="cls-4" d="M73.92 54.33a12.84 12.84 0 015.6-9.91.35.35 0 00.19-.33c0-2.73 0-5-1.23-6.73a2.09 2.09 0 00-1-.59 1.5 1.5 0 00-1.82.89c-5.56 9.79.71 7.58-18.43 19.32a6.11 6.11 0 001 .59c3.79-.35 4.33.77 4.53 3.67l1 .59 9.84-7a.57.57 0 00.32-.5z"/><path class="cls-6" d="M74.94 54.92a12.84 12.84 0 015.6-9.92.35.35 0 00.19-.33c-.06-3.18-.48-5.52-2.25-7.32-.43-.44-1.3 0-1.82.89-5.56 9.79.71 7.58-18.43 19.32 4.12-.51 5.34 1.26 5.55 4.26l10.86-6.41a.57.57 0 00.3-.49z"/><path class="cls-5" d="M85.5 48.83a10.55 10.55 0 01-4.77 8.27c-2.64 1.52-4.77.29-4.77-2.76a10.55 10.55 0 014.77-8.27c2.64-1.52 4.77-.29 4.77 2.76z"/><path class="cls-8" d="M83.73 50.52a5.32 5.32 0 01-2.4 4.16c-1.22.71-2.23.24-2.39-1v-.37a5.32 5.32 0 012.41-4.16 1.67 1.67 0 01.33-.16c1.15-.51 2.05.13 2.05 1.53z"/><path class="cls-9" d="M82.06 50.09a4.29 4.29 0 01-1.94 3.36 1.45 1.45 0 01-1.18.21v-.37a5.32 5.32 0 012.41-4.16 1.67 1.67 0 01.33-.16 1.48 1.48 0 01.38 1.12z"/><path class="cls-5" d="M63 61.89a10.55 10.55 0 01-4.77 8.27c-2.64 1.52-4.77.29-4.77-2.76a10.55 10.55 0 014.77-8.27c2.63-1.52 4.77-.28 4.77 2.76z"/><path class="cls-8" d="M61.23 63.59a5.32 5.32 0 01-2.4 4.16c-1.22.71-2.23.24-2.39-1v-.37a5.32 5.32 0 012.41-4.16 1.66 1.66 0 01.33-.16c1.15-.51 2.05.13 2.05 1.53z"/><path class="cls-9" d="M59.56 63.16a4.29 4.29 0 01-1.94 3.36 1.45 1.45 0 01-1.18.21v-.37a5.32 5.32 0 012.41-4.16 1.66 1.66 0 01.33-.16 1.48 1.48 0 01.38 1.12z"/><path class="cls-6" d="M34.06 52.83l-.29-.5a11 11 0 015.89-5.62l2.65 1.53L59.56 58l.3.5a12.64 12.64 0 00-5.59 6.12z"/><path class="cls-4" d="M33.76 52.33a12.64 12.64 0 015.59-6.12L42 47.74l14.9 8.76 2.66 1.5A12.64 12.64 0 0054 64.15z"/><path class="cls-7" d="M37.68 53.48l-1.45-.84 4.29-33.07c.69-5.35 4.34-11 8.68-13.55L59.63 0l1.45.84-1.59 34.34-1.49-.69V2.75l-8.22 5.1c-3.56 2.05-6.64 7-7.2 11.42z"/><path class="cls-10" d="M40.35 16.31l-2.67 30.4a17.13 17.13 0 01-.54-2.05c0-.18 2.55-28 2.55-28z"/><path class="cls-8" d="M36.23 16.67c0 1.13.79 1.59 1.77 1a3.91 3.91 0 001.77-3.06c0-1.13-.79-1.59-1.77-1a3.91 3.91 0 00-1.77 3.06z"/><path class="cls-8" d="M37.37 17.33c0 1.13.79 1.59 1.77 1a3.91 3.91 0 001.77-3.06c0-1.13-.79-1.59-1.77-1a3.91 3.91 0 00-1.77 3.06z"/><path class="cls-10" d="M36.73 17.81a1.25 1.25 0 01-.51-1.13A3.91 3.91 0 0138 13.61a1.27 1.27 0 011.12-.15h.13l1.08.62-.71 1.24a4.14 4.14 0 01-1 1.82l-.73 1.28-1.13-.65z"/><path class="cls-8" d="M37.37 17.33c0 1.13.79 1.59 1.77 1a3.91 3.91 0 001.77-3.06c0-1.13-.79-1.59-1.77-1a3.91 3.91 0 00-1.77 3.06z"/><path class="cls-10" d="M38.32 16.78c0 .52.36.73.81.47a1.8 1.8 0 00.87-1.41c0-.52-.36-.73-.81-.47a1.8 1.8 0 00-.87 1.41z"/><path class="cls-8" d="M39.24 52.87l-1.57.61L42 20.41c.69-5.35 4.34-11 8.68-13.55l10.43-6v33.55l-1.59.92V3.58l-8.84 5.1a16.07 16.07 0 00-7.14 11.12z"/><path class="cls-8" d="M68.45 42.07s-5.8 4.23-7.63 6.3l-8.08-4.77v-1.93a14.59 14.59 0 016.29-5c-1.08-3.88 1.2-10.71 2-10.92s8.88 3.67 9 5-1.58 11.32-1.58 11.32z"/><path class="cls-7" d="M50.27 60.74l-1.45-.84 4.29-33.07c.69-5.35 4.34-11 8.68-13.55l10.43-6 1.45.84-1.58 34.32-1.45-.69V10l-8.22 5.1c-3.56 2.05-6.64 7-7.2 11.42z"/><path class="cls-8" d="M73.67 8.1v33.57l-1.59.92V10.84L63.24 16a13.22 13.22 0 00-3.69 3.29 16.46 16.46 0 00-3.43 7.82l-4.29 33.02-1.57.61 4.3-33.07a20 20 0 013.88-9.15c.22-.3.46-.59.71-.88a15.7 15.7 0 014.09-3.53z"/><path class="cls-8" d="M53.17 16.57v54.05l-5.81 3.35V19.93l5.81-3.36z"/><path class="cls-7" d="M44.46 72.3l2.91 1.67-.01-54.04-2.9-1.68V72.3z"/><path class="cls-11" d="M50.27 14.9l-5.81 3.35 2.9 1.68 5.81-3.36-2.9-1.67z"/><path class="cls-8" d="M37.68 61.68l-5.81 3.36-.01-54.05 5.82-3.35v54.04z"/><path class="cls-7" d="M28.96 63.36l2.91 1.68-.01-54.05-2.9-1.68v54.05z"/><path class="cls-11" d="M34.77 5.96l-5.81 3.35 2.9 1.68 5.82-3.35-2.91-1.68z"/><path fill="#595447" d="M37.68 10.08l10.47 6.05-1.97 1.13-10.34-5.97 1.84-1.21z"/><path fill="#403c33" d="M35.84 11.29l10.34 5.97-1.48.86L35.84 13v-1.71z"/><path class="cls-7" d="M45.86 11.26L57 17.69c2.55-3.46 7.08-5.45 15.23-10.43L61.08.84C54 4.9 48.09 7.23 45.86 11.26z"/><path class="cls-8" d="M58.22 18.25l-2.04 1.18-2.04-1.18v-.99l2.04-.19 2.04.19v.99z"/><path class="cls-14" d="M58.22 17.26l-2.04 1.18-2.04-1.18 2.04-1.18 2.04 1.18z"/><path class="cls-15" d="M57.64 17.17l-.31-2.65H55l-.31 2.65a.7.7 0 00.42.64 2.3 2.3 0 002.08 0 .7.7 0 00.45-.64z"/><path class="cls-16" d="M57 14a.5.5 0 010 1 1.8 1.8 0 01-1.63 0 .5.5 0 010-.94A1.8 1.8 0 0157 14z"/><path class="cls-8" d="M47.2 11.89l-2.04 1.18-2.04-1.18v-.99l2.04-.19 2.04.19v.99z"/><path class="cls-14" d="M47.2 10.9l-2.04 1.18-2.04-1.18 2.04-1.18 2.04 1.18z"/><path class="cls-15" d="M46.62 10.81l-.31-2.65H44l-.31 2.65a.7.7 0 00.42.64 2.3 2.3 0 002.08 0 .7.7 0 00.43-.64z"/><path class="cls-16" d="M46 7.69a.5.5 0 010 .94 1.81 1.81 0 01-1.63 0 .5.5 0 010-.94 1.81 1.81 0 011.63 0z"/><path d="M26 35.89v26.44l22.2 12.82V48.71zm1.36 9.3l19.51 11.25v6.26L27.39 51.46zm19.48 27.6L27.39 61.55V53l19.48 11.28zM27.39 43.62v-5.37l19.48 11.24v5.38z" fill="#1a1816"/><path class="cls-7" d="M25.05 36.46V62.9l22.2 12.82V49.27zm1.36 9.3L45.89 57v6.26L26.42 52zm19.48 27.6L26.41 62.11v-8.52l19.48 11.25zM26.42 44.19v-5.38l19.47 11.25v5.38z"/><path class="cls-11" d="M48.23 48.71l-.98.56-22.2-12.81.98-.57 22.2 12.82zm-21.82-4.52l.98-.56 18.52 10.69-.02 1.11-19.48-11.24zm0 7.83l.98-.56 18.52 10.69-.02 1.12-19.48-11.25zm0 10.09l.98-.56 18.52 10.69-.02 1.12-19.48-11.25z"/><path class="cls-18" d="M16.27 88.31c-.47.15-2.77-1.54-2.83-1.58-.5-.4 12.39-7.37 20.09-11.56a7.33 7.33 0 003.37-5.3l2-20.29 2.46-1.42 2.71 1.57L42.3 53l-1.53 16.6c-.39 3.3-1.5 6.13-4.19 7.68l-7.29 4.39z"/><path class="cls-6" d="M16.93 88.14c-4.42 1.45 10.7-6.72 19.31-11.4a7.33 7.33 0 003.37-5.3l2-20.29 2.46-1.42 1.16 3.38-1.42 1.12-1.91 16a12.16 12.16 0 01-5.37 8.45l-5 3.06z"/><path class="cls-18" d="M2.84 80.56C2.37 80.72.07 79 0 79c-.5-.4 12.39-7.37 20.09-11.56a7.33 7.33 0 003.37-5.3l2-20.29 2.46-1.42L30.63 42l-1.75 3.3-1.53 16.6c-.39 3.3-1.5 6.13-4.19 7.68L15.87 74z"/><path class="cls-6" d="M3.51 80.39C-.91 81.84 14.2 73.67 22.82 69a7.33 7.33 0 003.37-5.3l2-20.29L30.63 42l1.16 3.38-1.42 1.12-1.91 16a12.16 12.16 0 01-5.37 8.45l-5 3.06z"/><path d="M68.45 42.07s-5.8 4.23-7.63 6.3a20.87 20.87 0 01.41-3.1l5.29-4.06L59 36.7l7.49 4s1-10 3.54-10c.14 1.35-1.58 11.37-1.58 11.37z" fill="#0a0909"/><path class="cls-20" d="M23.72 70.48a12.67 12.67 0 003.84-4.87 7.85 7.85 0 00.44-1l3.35 1.93V65l2.09.08-1.57-.89v-7.45l-.52-.3v-1.57l2.11.09-1.59-.96v-5.09l-.37-.25v-1.54h2l-1.59-.92V42L29 40.28V41l1.67 1-2.5 1.4-.8 8.19s-1 11.08-1.34 13.06a7.41 7.41 0 01-3 4.25c-.82.47-2 1.17-8.83 4.81S3.74 79.7 3.1 80.13s-.55.6.12.35 14.83-6.54 14.83-6.54a59.8 59.8 0 005.67-3.46zM29 58.09v4.36l-.45-.27c0-.31.07-.64.11-1 .11-1.65.34-3.09.34-3.09z"/><path class="cls-20" d="M45.91 62.7V57l-1.08-.62v-1.6h1.12v-4.72l-1.43-.83v1.68l-.41-1.18-2.46 1.42-2 20.29a7.33 7.33 0 01-3.37 5.3c-8.62 4.69-23.73 12.85-19.31 11.4l14.54-6.45 5-3.06a12 12 0 004.87-6.36v.07l3.41 2v-1.61h1.1v-8.08l-1.1-.5V62.7zm-1.45 8.7l-2.14-1.24-.45.13v-.11l.87-7.18 1.72 1zM43 60.5l.57-4.8.84.49v5.14zm-5.33-48.15l1.87-1.2-1.87-1.07-1.84 1.21V13l1.84 1.06v-1.71zm8.79-2.97l.09.82v.34l.61.36v1l-.13.07 1 .61v-1.5l-.41-.22c.15-.81 1.48-1.6 1.73-1.6L48 8.37a2.49 2.49 0 00-1.54 1.01zm11.15 7.52l.61.36v1l-.13.07.35.2c.22-.3.46-.59.71-.88v-.21l-.41-.23c.15-.81 1.47-1.59 1.73-1.59L59 14.73a2.49 2.49 0 00-1.5 1l.09.82zm6.17 33.68l1.61-1.61-12.14.26-.12.91.05.72 10.6-.28zm-10.61 3.93l6.83-.19 1.63-1.62-8.46.18v1.63z"/><path class="cls-20" d="M78.48 37.37s-.73-.59-1.59.55l-3.21 1.75v2a15.4 15.4 0 01-4.27 7.14c-3.07 2.7-11.42 7.71-11.88 8l-1.21-.65a4.38 4.38 0 00-3.18.85v6.69l.8.47A12.81 12.81 0 0159.56 58l-1-.68-1-.54 7.86-3.74-6.85 4.28.26.15a4.21 4.21 0 015 4.34l10.86-6.41a.57.57 0 00.3-.51 11.89 11.89 0 012.94-7.56A15.63 15.63 0 0180.54 45a.31.31 0 00.19-.33c0-.25.27-4.89-2.25-7.3z"/><path d="M44 8.3c0 .53.83.66 1 .53a2.64 2.64 0 01-1-.53zm11.05 6.35c0 .53.83.66 1 .53a2.64 2.64 0 01-1-.53zM29.18 9.44a7.71 7.71 0 012.31 1.33 11.79 11.79 0 01-2.31-1.33zm15.52 9a7.71 7.71 0 012.3 1.33 11.79 11.79 0 01-2.3-1.33zm-5.02-4.95s4.45 2.53 5.19 3.09c0-.01-4.38-2.41-5.19-3.09zm-8.94 26.25c0-.07 4.42 2.44 5.28 3a34.47 34.47 0 01-5.28-3zm1.05 7.59c0-.07 4.42 2.44 5.28 3a34.47 34.47 0 01-5.28-3zM31.57 55c0-.07 4.42 2.44 5.28 3a34.47 34.47 0 01-5.28-3zm-.11 10c0-.07 4.42 2.44 5.28 3a34.47 34.47 0 01-5.28-3zm20.95-52.67c.32.22 1.4.84 1.4 1.31a7.6 7.6 0 01-2.72-1.34c-.42-.31-.8-.67-1.21-1a5.43 5.43 0 01-.77-.82 2.5 2.5 0 011.11.49c.78.44 1.49.87 2.19 1.36zM27.07 43.06a5.25 5.25 0 01-1.56-1 5.89 5.89 0 011.45.68c.27.12.86.29 1 .58a1.45 1.45 0 01-.89-.26zm13.46 7.58h.06a2.79 2.79 0 01.64.39c-.72-.21-2-.57-2.27-1.34a4.57 4.57 0 01.53.17 4 4 0 01.6.38c.17.16.28.29.44.4zM23.77 66.69c-.38-.29-1.23-.8-1.28-1.3.57-.09 1 .36 1.42.7.18.15.58.33.57.6a3.63 3.63 0 01-.71 0zm13.35 7.48c-.29-.2-1.23-.73-1.21-1.2.56-.2 2.32 1 2.41 1.62a1.7 1.7 0 01-1.2-.42z" style="mix-blend-mode:soft-light" fill="#c9fffb"/></g></g></g></svg>