<svg xmlns="http://www.w3.org/2000/svg" viewBox="0 0 90.05 72.17"><defs><style>.cls-2{fill:#383431}.cls-3{fill:#1c1a19}.cls-4{fill:#48433f}.cls-5{fill:#302d2a}.cls-7{fill:#1a1816}.cls-8{fill:#8db0a1}.cls-9{fill:#afbab0}.cls-10{fill:#c5cfc7}.cls-11{fill:#244fb5}.cls-13{fill:#0d2b86}.cls-16{fill:#c9d6ca}.cls-17{fill:#d1dbd3}.cls-20{fill:#bbc7bc}.cls-26{fill:#f9b233}.cls-27{fill:#c8d1c9}.cls-28{fill:#cfe8dc}</style></defs><g style="isolation:isolate"><g id="Слой_2" data-name="Слой 2"><g id="Layer_3" data-name="Layer 3"><path class="cls-2" d="M59 27.8l6-10.13-1.8-1a2 2 0 00-.31-.18 3 3 0 00-2.78.37 9.22 9.22 0 00-4.11 7.2 3 3 0 001.12 2.63l.2.12z"/><path class="cls-3" d="M66.22 20.36a9.22 9.22 0 01-4.17 7.22c-2.3 1.33-4.17.25-4.17-2.41A9.22 9.22 0 0162.05 18c2.31-1.37 4.17-.3 4.17 2.36z"/><path class="cls-2" d="M61.56 29.29l6-10.13-1.8-1a2 2 0 00-.31-.18 3 3 0 00-2.78.37 9.22 9.22 0 00-4.17 7.22 3 3 0 001.12 2.63l.2.12z"/><path class="cls-4" d="M68.79 21.85a9.22 9.22 0 01-4.17 7.22c-2.3 1.33-4.17.25-4.17-2.41a9.22 9.22 0 014.17-7.22c2.3-1.33 4.17-.25 4.17 2.41z"/><path class="cls-5" d="M67.24 23.33a4.64 4.64 0 01-2.1 3.67c-1.07.62-1.95.21-2.09-.89v-.32a4.64 4.64 0 012.1-3.63 1.46 1.46 0 01.29-.14c1.02-.47 1.8.09 1.8 1.31z"/><path d="M69 20.44l-14.64 8.45 7.34 14 21.94-14zm3.35 9.43a6.4 6.4 0 01-5.78 0c-.16-.1-.31-.2-.44-.3a3.8 3.8 0 01.44-.31 6.4 6.4 0 015.78 0 3.8 3.8 0 01.44.31 2.84 2.84 0 01-.44.3z" fill="#59534b"/><path class="cls-7" d="M83.63 31.36L62.81 43.38v-2.47l20.82-12.02v2.47z"/><path class="cls-2" d="M80.26 40.07l6-10.13-1.8-1a2 2 0 00-.31-.18 3 3 0 00-2.78.37 9.22 9.22 0 00-4.17 7.22A3 3 0 0078.34 39l.2.12z"/><path class="cls-3" d="M87.49 32.63a9.22 9.22 0 01-4.17 7.22c-2.3 1.33-4.17.25-4.17-2.41a9.22 9.22 0 014.17-7.22c2.3-1.32 4.17-.22 4.17 2.41z"/><path class="cls-2" d="M82.82 41.56l6-10.13-1.8-1a2 2 0 00-.31-.18 3 3 0 00-2.78.37 9.22 9.22 0 00-4.17 7.22 3 3 0 001.12 2.63l.2.12z"/><path class="cls-4" d="M90.05 34.12a9.22 9.22 0 01-4.17 7.22c-2.3 1.33-4.17.25-4.17-2.41a9.22 9.22 0 014.17-7.22c2.3-1.33 4.17-.25 4.17 2.41z"/><path class="cls-5" d="M88.5 35.6a4.64 4.64 0 01-2.1 3.63c-1.07.62-1.95.21-2.09-.89v-.32a4.64 4.64 0 012.1-3.63 1.45 1.45 0 01.29-.14c1.02-.43 1.8.13 1.8 1.35z"/><path class="cls-8" d="M87 35.23a3.75 3.75 0 01-1.69 2.93 1.26 1.26 0 01-1 .18v-.32a4.64 4.64 0 012.1-3.63 1.45 1.45 0 01.29-.14 1.29 1.29 0 01.3.98z"/><path class="cls-2" d="M70.62 45.63l6-10.13-1.8-1a2 2 0 00-.31-.18 3 3 0 00-2.78.37 9.22 9.22 0 00-4.17 7.22 3 3 0 001.12 2.63l.2.12z"/><path class="cls-3" d="M77.85 38.19a9.22 9.22 0 01-4.17 7.22c-2.3 1.33-4.17.25-4.17-2.41a9.22 9.22 0 014.17-7.22c2.32-1.32 4.17-.24 4.17 2.41z"/><path class="cls-9" d="M34.39 16.09c-1.26-.32-5.18-2.3-5.47.16-.13 1 0 14.85 0 15.9v3.34c.05 2.4 5.15 2.58 5.43.25a27.61 27.61 0 000-3.18V18.37c.04-.53.1-1.37.04-2.28z"/><path class="cls-10" d="M33.59 15.12a1.18 1.18 0 010 2.24 4.28 4.28 0 01-3.87 0 1.18 1.18 0 010-2.24 4.28 4.28 0 013.87 0z"/><path class="cls-9" d="M30.78 16.26l-.29-7.68a2.7 2.7 0 01.68-1.85l2.57-2.88C34.93 2.51 36.23 3.67 35 5l-2.45 2.8a1.23 1.23 0 00-.31.84l.28 7.57c.02.72-1.73.79-1.74.05z"/><path class="cls-11" d="M62.81 8.29L33.49 43.38V17.13c0-4.23 3.69-9.84 9.67-13.3l6-3.45z"/><path d="M68.1 33.77c1.14.72 3.44 2.26 4.17 2.75a.18.18 0 010 .29c-1.42 1.56-2.76 3.07-2.86 6a.24.24 0 01-.37.21l-3.81-2.39a.82.82 0 01-.39-.61c-.1-1 0-3.49 2.78-6.22a.37.37 0 01.48-.03z" fill="#0f3199"/><path class="cls-13" d="M62.81 35a1.91 1.91 0 002.59 2l2.19 1.43c1.27.73.93 2.16-.34 1.42C67 39.66 65 38.39 65 38.39s-2.5.42-2.59-.23a18 18 0 01.4-3.16z"/><path class="cls-13" d="M62.81 42.25l-15.64 9V25c0-4.23 3.69-9.84 9.67-13.3l6-3.45z"/><path d="M54.83 54.77A47.63 47.63 0 0059.58 52l4.56-2.63c1.41-.81 3.4-1.47 3.74-3.25a7.67 7.67 0 00-1.81-5.75c-1.24-1.59-3.19-3-5.16-1.87l-4.56 2.63-4.57 2.67-2.28 1.31a4.41 4.41 0 00-1.92 1.49c-1.07 2 .15 4.78 1.36 6.42a6.68 6.68 0 002.76 2.31 3.05 3.05 0 003.13-.56z" fill="#a5b0a6"/><path d="M55 52.8c0 2.49-1.75 3.5-3.91 2.26a8.63 8.63 0 01-3.91-6.76c0-2.49 1.75-3.5 3.91-2.26A8.63 8.63 0 0155 52.8zm3.69-.01a1 1 0 01-.35.15l-.42.1a3.57 3.57 0 001.26-2.77 8.41 8.41 0 00-3.8-6.58 2.55 2.55 0 00-2.54-.27l-.21-.42c1.38-.8 3.48 0 5.34 2.44a7.81 7.81 0 011.65 4.79 2.88 2.88 0 01-.93 2.56zm5.19-3.85a2.14 2.14 0 01-1.48 1.47 3.47 3.47 0 001.18-2.67 8.4 8.4 0 00-3.8-6.58 3.38 3.38 0 00-3.05-.23 1.25 1.25 0 01.37-.39c.9-.54 1.9-.39 3.2.46a9 9 0 013.7 7.18 4.21 4.21 0 01-.12.76z" fill="#929c93"/><path class="cls-9" d="M53 26.33c-1.26-.32-5.18-2.3-5.47.16-.13 1 0 14.85 0 15.9v3.34c.05 2.4 5.15 2.58 5.43.25a27.61 27.61 0 000-3.18V28.61c.04-.53.13-1.37.04-2.28z"/><path class="cls-10" d="M52.22 25.36a1.18 1.18 0 010 2.24 4.28 4.28 0 01-3.87 0 1.18 1.18 0 010-2.24 4.28 4.28 0 013.87 0z"/><path class="cls-9" d="M21.42 30.81l-.75-.74a2.92 2.92 0 01-.77-1.74l.47-4.16c.07-.57.86-1.18 1.11-.93l.75.74a2.07 2.07 0 01.33 1.49L22 30.23c-.07.57-.33.83-.58.58z"/><path class="cls-16" d="M20.79 29.86l-.61-.61a1.69 1.69 0 01-.27-1.25l.46-3.87c.06-.47.27-.68.47-.48l.61.61a1.69 1.69 0 01.27 1.21l-.46 3.87c-.05.51-.26.72-.47.52z"/><path class="cls-16" d="M20.79 33.9l-.65-2.27a1.75 1.75 0 010-.75l1.22-7.78a1.23 1.23 0 011.64-.93l1.77.81-.18.4-1.77-.81a.8.8 0 00-1.12.6l-1.22 7.78a1.3 1.3 0 000 .56l.65 2.27z"/><path class="cls-2" d="M6.61 60l6-10.13L9 47.79a2 2 0 00-.31-.18 3 3 0 00-2.78.39 9.22 9.22 0 00-4.17 7.2 3 3 0 001.12 2.63l.2.12z"/><path class="cls-4" d="M13.84 52.56a9.22 9.22 0 01-4.17 7.22c-2.3 1.33-4.17.22-4.17-2.4a9.22 9.22 0 014.17-7.22c2.33-1.33 4.17-.26 4.17 2.4z"/><path class="cls-10" d="M13.7 46.77l-.94-.65c-2.28-1.52-8.17-1.3-12.13 5.33A4.62 4.62 0 000 54.24c1.1.64 4.51 2.51 4.51 2.51 1.19.69 1.54-.08 1.9-1.69s2.9-5.58 6.34-6.07a6.91 6.91 0 01.94-.06z"/><path class="cls-17" d="M13.7 46.77l-.94-.65c-2.43-1.62-8.23-1.94-12 5.06 1.62.9 5.37 2.82 5.24 2.15s3.75-6.26 7.39-5.55h.3z"/><path class="cls-13" d="M19.34 53.68c2.84-2.81 14.88-9.6 15.95-10.46l4.57-14.07 8-4.61v23.2l-12.73 7.17-1 .2v4.13l-14.79 5.41z"/><path d="M36.09 53V42.41l4.07-12.48 7.33-4.23v20.88zm.22-10.54v10.16l11-6.17V26.07l-6.93 4z" fill="#181f33"/><path d="M4 44.83C6.88 42 18.77 35.56 19.83 34.7l4.28-13.2a2.39 2.39 0 011.08-1.33L32 16.23a.78.78 0 01.76 0l15.07 8.31-7.2 4.16a2.32 2.32 0 00-1 1.29l-4.34 13.23-15.95 10.46-15.46 2.45z" fill="#2148a5"/><path class="cls-20" d="M37.27 56.14l-3.14-1.81v4.9l3.14 2.71v-5.8z"/><path class="cls-9" d="M34.13 58.57s3 2.07 3.14 2.75-3.14-2.09-3.14-2.09z"/><path d="M37.39 63.38c-.43.25-3.62-2.32-3.62-2.32l.15-1.31a2.13 2.13 0 011.65.43 3.78 3.78 0 011.82 3.2z" fill="#98ab9d"/><path class="cls-4" d="M34.64 59.75h.27l.96 7.18-.3.14-.93-7.32z"/><path class="cls-7" d="M34.64 59.75l.93 7.32-5.43-2.97-.21-6.01 4.71 1.66z"/><path class="cls-2" d="M27.08 71.82l6-10.13-3.62-2.09a2 2 0 00-.31-.18 3 3 0 00-2.78.37A9.22 9.22 0 0022.2 67a3 3 0 001.12 2.63l.2.12z"/><path class="cls-4" d="M34.3 64.38a9.22 9.22 0 01-4.17 7.22c-2.3 1.33-4.17.25-4.17-2.41A9.22 9.22 0 0130.13 62c2.31-1.36 4.17-.28 4.17 2.38z"/><path class="cls-5" d="M32.76 65.86a4.64 4.64 0 01-2.1 3.63c-1.07.62-1.95.21-2.09-.89v-.32a4.64 4.64 0 012.1-3.63 1.45 1.45 0 01.33-.15c1-.42 1.76.14 1.76 1.36z"/><path class="cls-8" d="M31.3 65.48a3.75 3.75 0 01-1.69 2.93 1.26 1.26 0 01-1 .18v-.32a4.64 4.64 0 012.1-3.63 1.45 1.45 0 01.29-.14 1.29 1.29 0 01.3.98z"/><path class="cls-2" d="M73.19 47.12l6-10.13-1.8-1a2 2 0 00-.31-.18 3 3 0 00-2.78.37 9.22 9.22 0 00-4.17 7.22 3 3 0 001.14 2.6l.2.12z"/><path class="cls-4" d="M80.42 39.68a9.22 9.22 0 01-4.17 7.22c-2.3 1.33-4.17.25-4.17-2.41a9.22 9.22 0 014.17-7.22c2.3-1.32 4.17-.27 4.17 2.41z"/><path class="cls-5" d="M78.87 41.17a4.64 4.64 0 01-2.1 3.63c-1.07.62-1.95.21-2.09-.89v-.32A4.64 4.64 0 0176.77 40a1.46 1.46 0 01.29-.14c1.02-.48 1.81.08 1.81 1.31z"/><path class="cls-8" d="M77.41 40.79a3.75 3.75 0 01-1.69 2.93 1.26 1.26 0 01-1 .18v-.32A4.64 4.64 0 0176.77 40a1.46 1.46 0 01.29-.14 1.29 1.29 0 01.35.93z"/><path d="M11.27 47.51l-6.89-2.75a.41.41 0 00-.5.4l-.1 11.18.36.22L18.56 65l.78.45V53.68a.41.41 0 00-.17-.33s-7.17-5.67-7.9-5.84z" fill="#1d4091"/><path class="cls-17" d="M18.55 63.59c0 .19-.18.23-.39.11l-6.82-3.94-6.81-3.93a.78.78 0 01-.39-.56V47c0-1.25 5.26 1.6 6.8 3.38a1.25 1.25 0 00.83.48c1.53 0 6.8 3.22 6.8 4.47v8.27z"/><path d="M11.18 50.78a2.22 2.22 0 01-.38-.34 13.49 13.49 0 00-3.06-2.27c-1.9-1.1-3.38-1.57-3.38-1.07v8a.33.33 0 00.17.24l6.65 3.84zm3.77 1.55a8.58 8.58 0 00-3.06-1.26.88.88 0 01-.25 0v8.42l6.53 3.77c.09.05.17 0 .17 0v-8c-.01-.59-1.5-1.84-3.39-2.93z" fill="#979e98"/><path class="cls-17" d="M18.43 62.89L4.24 54.7v-.5l14.19 8.19v.5zm0-1.2L4.24 53.5V53l14.19 8.19v.5zm0-1.2L4.24 52.3v-.5l14.19 8.19v.5zm0-1.2L4.24 51.1v-.5l14.19 8.19v.5zm0-1.2L4.24 49.9v-.5l14.19 8.19v.5zm0-1.21L4.24 48.69v-.5l14.19 8.19v.5zm0-1.2L4.24 47.49l.1-.44 13.99 8.07.1.56z"/><path class="cls-10" d="M51.83 55.22l-14.44 8.16a5.34 5.34 0 00-6.1-3.62c-3.44.49-6 4.45-6.34 6.07s-.71 2.38-1.9 1.69c0 0-3.41-1.87-4.51-2.51l-.13-1.41c3.92-8 10.45-8.32 12.87-6.71.81.53 1.74 1.2 2.62 1.86 1.77 1.31 3.35 2.58 3.35 2.58L50 54.15z"/><path class="cls-17" d="M33.92 58.75c-.46-.06-1.13 0-2-.2-3.64-.71-7.51 4.9-7.4 5.55s-3.63-1.25-5.21-2.16c3.73-7 9.53-6.67 12-5 .39.25.81.54 1.23.84s.92.62 1.38.97z"/><path class="cls-9" d="M37.27 61.32v-5.18l12.71-7.16v5.17l-12.71 7.17z"/><path class="cls-16" d="M46.84 47.16l-12.71 7.17 3.14 1.81 12.71-7.16-3.14-1.82z"/><path class="cls-10" d="M35.58 44.34L19.34 54.2c-.17-.12-.32-.78-.49-.9A51.15 51.15 0 004 45.21s-.12.21-.15.41c-.2-1 .59-1.5 2.42-2.81 3.07-2.19 12-7.27 13.22-7.94a.65.65 0 01.62 0l10.88 6 .1.05h.08l.19.1.12.07L34.89 43a1 1 0 01.51.66z"/><path class="cls-9" d="M19.34 54.2c.25-.15-.1-1 0-1.21S34.67 43.65 35 43.43s-2.36-1.66-3.46-2.28L34.89 43a1 1 0 01.51.66l.18.69z"/><path d="M24.59 70.67c-.26.14-.94.68-1.62.26l-.73-.43C18.49 68.32 3 59.29 1.74 58.58S0 57.59 0 57.13v-2.89L3.16 56c.71.39.62-.95.62-.95l.35.2c.34.66 6.86 4.28 6.86 4.28s7.17 4.15 7.56 4v.8a1.07 1.07 0 00.53.92 33.83 33.83 0 004.59 2.41c.48 0 1-.82 1-.82s.17 3.69-.08 3.83z" fill="#54695e"/><path d="M24.59 70.67c-.26.14-.94.68-1.62.26l-.73-.43c1.91.8 1.44-1.66 1.44-2.78.48 0 1-.82 1-.82s.16 3.63-.09 3.77z" fill="#475950"/><path class="cls-10" d="M12.2 50.09c0 .46-.32.65-.72.42a1.59 1.59 0 01-.72-1.25c0-.46.32-.65.72-.42a1.59 1.59 0 01.72 1.25z"/><path class="cls-9" d="M19.11 64.5c.14-1.29.41-1.75.53-1.84s3.77 1.93 4.23 2 .6 0 .54.55-.35 1.68-.73 1.7-4.68-1.58-4.57-2.41zM.8 51.55a13.8 13.8 0 002.66 1.59 4 4 0 01-.17 2.27 11 11 0 01-3.11-1.67c-.36-.54.42-2.47.62-2.19z"/><path class="cls-26" d="M.43 53.66C.2 53.52 0 53.1.25 52.42s.51-.61.72-.5 0 .38 0 .38z"/><path class="cls-27" d="M21.6 64.63a.85.85 0 01-1.18.68 1.36 1.36 0 01-.83-1.43.84.84 0 011.18-.68 1.36 1.36 0 01.83 1.43z"/><path class="cls-28" d="M21.16 64.46a.47.47 0 01-.66.38.76.76 0 01-.5-.84.47.47 0 01.66-.38.76.76 0 01.5.84z"/><path class="cls-27" d="M23.63 65.74a.77.77 0 01-1.08.62 1.24 1.24 0 01-.76-1.31.77.77 0 011.08-.62 1.24 1.24 0 01.76 1.31z"/><path class="cls-28" d="M23.24 65.59a.44.44 0 01-.61.35.71.71 0 01-.43-.75.44.44 0 01.61-.35.71.71 0 01.43.75z"/><path class="cls-27" d="M3.3 54.06c0 .59-.3 1-.76 1a1.24 1.24 0 01-.9-1.18c0-.59.3-1 .76-1a1.24 1.24 0 01.9 1.18z"/><path class="cls-28" d="M2.94 54c0 .33-.17.57-.42.53a.69.69 0 01-.5-.66c0-.33.17-.57.42-.53a.69.69 0 01.5.66z"/><path class="cls-27" d="M1.42 53.89c-.28.28-.72.17-1-.23a1 1 0 010-1.24c.28-.28.72-.17 1 .23a1 1 0 010 1.24z"/><path class="cls-28" d="M1.22 53.58c-.16.16-.41.1-.57-.13a.59.59 0 010-.71c.16-.16.41-.1.57.13a.59.59 0 010 .71z"/><path class="cls-26" d="M23.38 64.5c.32.24.75 1.8-.39 2.07 0 0 .93.45 1.14-.27s.63-1.36-.75-1.8z"/><path class="cls-20" d="M36.6 45.41l-1.19-.69a.63.63 0 00-.73 0 2.11 2.11 0 00-1 1.65.63.63 0 00.35.64l1.21.7a.63.63 0 00.73 0 2.11 2.11 0 001-1.65.62.62 0 00-.37-.65z"/><path class="cls-9" d="M39.55 43.48c-1.05-.27-4.31-1.92-4.56.14a19.4 19.4 0 000 2.76v2.78c0 2 4.29 2.15 4.52.2a23 23 0 000-2.65v-1.33c.04-.45.1-1.14.04-1.9z"/><path class="cls-10" d="M38.89 42.67a1 1 0 010 1.86 3.57 3.57 0 01-3.23 0 1 1 0 010-1.86 3.57 3.57 0 013.23 0z"/><path d="M39 29.71l-4 12.57c-2.65-1.21-5-2.35-7.08-3.41l-1.31-.69-1.67-.91c-.88-.5-1.67-1-2.38-1.42-.29-.17-.55-.35-.8-.52-.5-.33-.93-.66-1.33-1l-.43-.28 4.12-12.55 10.89 6 2.3 1.27 1.27.7z" fill="#47cded"/><path d="M37.29 40.89l2.88-9.41a3.42 3.42 0 011.56-2l4.59-2.65a.43.43 0 01.65.37v8.42a.88.88 0 01-.44.76l-8.61 5a.43.43 0 01-.63-.49z" fill="#23293b"/><path d="M40.59 31.6a3 3 0 011.36-1.71l4.59-2.65v8.42a.45.45 0 01-.22.39l-8.6 5z" fill="#2ea9c7"/><path class="cls-9" d="M44.77 40.78a.72.72 0 01-.93.72l-1.55-.35a1.29 1.29 0 01-.95-1.15v-4.46a.73.73 0 01.93-.76l1.55.35a1.22 1.22 0 01.33.14 1.28 1.28 0 01.61 1z"/><path class="cls-16" d="M44.12 40.49a.6.6 0 01-.76.62l-1.27-.29a1 1 0 01-.76-.88.24.24 0 010-.08v-3.64a.17.17 0 010-.07.59.59 0 01.75-.54l1 .22.3.07a1 1 0 01.77 1v2.79z"/><path class="cls-16" d="M41.55 42.59h-.25l-5-.9a.22.22 0 11.08-.43l5 .9a.95.95 0 001.12-.93v-7.55a1 1 0 00-.54-.86l-2.62-1.15c-.24-.11 0-.51.19-.39l2.62 1.15a1.39 1.39 0 01.79 1.25v7.52a1.39 1.39 0 01-1.38 1.39z"/><path class="cls-11" d="M40.63 28.7a4.33 4.33 0 00-1 1.29c-.43 1-.43 2.49-1.36 2.19-.35-.11-1-.4-1.9-.79l-1.23-.59c-.72-.34-1.52-.72-2.36-1.14l-2.16-1.09c-.4-.2-.8-.41-1.2-.63-.57-.29-1.13-.59-1.66-.87-2.89-1.57-5.24-3-5.28-3.44-.09-1.07 1.28-2.6 2.75-3.46z"/><path class="cls-26" d="M24.24 24.36L23 23.62a.49.49 0 01-.2-.57.31.31 0 01.47-.17l1.23.74a.49.49 0 01.2.57.31.31 0 01-.46.17zm3.62 2.2l-1.23-.74a.49.49 0 01-.2-.57.31.31 0 01.47-.17l1.23.74a.49.49 0 01.2.57.31.31 0 01-.47.17zm5 2.77l-1.27-.65a.46.46 0 01-.21-.55.34.34 0 01.48-.2l1.27.65a.46.46 0 01.21.55.34.34 0 01-.48.2zm4.78 1.93l-1.27-.65a.46.46 0 01-.21-.55.34.34 0 01.48-.2l1.27.65a.46.46 0 01.21.55.34.34 0 01-.48.2z"/><path class="cls-9" d="M49.41 26.49l-.29-7.68a2.7 2.7 0 01.69-1.81l2.57-2.88c1.19-1.33 2.49-.17 1.3 1.16L51.19 18a1.23 1.23 0 00-.31.84l.28 7.57c.02.75-1.73.79-1.75.08z"/><path class="cls-10" d="M61.26 7.39a56.91 56.91 0 00-7.18 4c-5.81 3.78-8 12.18-8 12.18a5.35 5.35 0 01-2.91 1h-.14c-2 .12-10-4.21-9.55-5.42S33.81 16.8 37 11C39.53 6.36 47.19 2 50.32.32a2.68 2.68 0 012.6 0c1.65.93 4.52 2.59 6.31 3.65A4.5 4.5 0 0161 5.77a2.3 2.3 0 01.26 1.62z"/><path class="cls-9" d="M61.26 7.39a56.91 56.91 0 00-7.18 4c-5.81 3.78-8 12.18-8 12.18a5.35 5.35 0 01-2.91 1c1.45-.3 2.24-5.07 4.22-8.39C51.64 9 57.64 7.18 61 5.77a2.3 2.3 0 01.26 1.62z"/><path class="cls-7" d="M72.79 29.57a3.8 3.8 0 00-.44-.31 6.4 6.4 0 00-5.78 0 3.8 3.8 0 00-.44.31c-1.13-.93-1-2.22.44-3a6.4 6.4 0 015.78 0c1.44.79 1.58 2.08.44 3z"/><path d="M32.53 57.73a3.84 3.84 0 00-1.23-.15 8.54 8.54 0 00-5.78 2.81s-4.36.5-6.18 1.55c3.73-7 9.53-6.67 12-5 .35.2.77.49 1.19.79z" style="mix-blend-mode:multiply" fill="#d8e5eb"/></g></g></g></svg>