<svg xmlns="http://www.w3.org/2000/svg" viewBox="0 0 88.59 79.1"><defs><style>.cls-2{fill:#2148a5}.cls-4{fill:#051238}.cls-5{fill:#121110}.cls-6{fill:#48433f}.cls-7{fill:#0d2b86}.cls-8{fill:#302d2a}.cls-9{fill:#211f1d}.cls-10{fill:#929c93}.cls-11{fill:#a5b0a6}.cls-14{fill:#272a2f}.cls-15{fill:#47cded}.cls-16{fill:#474d57}.cls-20{fill:#535b66}.cls-21{fill:#353940}.cls-22{fill:#afbab0}.cls-23{fill:#c8d1c9}.cls-24{fill:#cfe8dc}.cls-28{fill:#2ea9c7}.cls-30{fill:#081d59}.cls-31{fill:#0b2573}</style></defs><g style="isolation:isolate"><g id="Слой_2" data-name="Слой 2"><g id="Layer_3" data-name="Layer 3"><path class="cls-2" d="M72.93 0L39.14 19.5l15.05 8.69 33.79-19.5L72.93 0z"/><path fill="#040d29" d="M54.49 53.97l-6.01-3.6 1.2-4.42 3.09.57 2.09 1.78.84 4.02-1.21 1.65z"/><path class="cls-4" d="M54.09 51.3l.1-23.11-15.05-8.69 10.11 28.67 4.84 3.13z"/><path class="cls-5" d="M67.87 46.24a2.63 2.63 0 01-.54 1.93l-.12.07a.7.7 0 01-.66-.16l-.84-.6zm7.92-4.56a2.47 2.47 0 01-.58 2h-.09a.66.66 0 01-.67-.14l-.84-.61z"/><path class="cls-6" d="M59.38 53.33a5 5 0 01-2.26 3.92c-1.25.72-2.26.14-2.26-1.31A5 5 0 0157.12 52c1.25-.7 2.26-.12 2.26 1.33zM67 49a5 5 0 01-2.26 3.92c-1.25.72-2.26.14-2.26-1.31a5 5 0 012.26-3.92c1.2-.76 2.26-.18 2.26 1.31z"/><path class="cls-5" d="M59.38 53.46a4.75 4.75 0 01-2.15 3.72c-1.19.69-2.15.13-2.15-1.24a4.75 4.75 0 012.15-3.72c1.19-.69 2.15-.13 2.15 1.24zm7.57-4.37a4.75 4.75 0 01-2.15 3.72c-1.19.69-2.15.13-2.15-1.24a4.75 4.75 0 012.15-3.72c1.2-.69 2.15-.13 2.15 1.24z"/><path class="cls-4" d="M60.28 51.77l.83.48v-2.46l-.83-.48v2.46z"/><path class="cls-7" d="M62.91 51.21l-1.8 1.04v-2.46l1.8-1.04v2.46z"/><path class="cls-8" d="M64.42 47.88l-.85-.49-4.82 2.78a.92.92 0 00.42.88l.84.49 2.21-1.83a2.35 2.35 0 00.56-.47z"/><path class="cls-6" d="M63.09 50.18l-2.16 1.25c-.74.42-1.33.08-1.33-.77l4.82-2.78a2.94 2.94 0 01-1.33 2.3zM60 53.68a5 5 0 01-2.3 3.92c-1.25.72-2.26.14-2.26-1.31a5 5 0 012.26-3.92c1.25-.72 2.3-.14 2.3 1.31z"/><path class="cls-8" d="M60.05 53.71a5 5 0 01-2.26 3.92c-1.25.72-2.26.14-2.26-1.31a5 5 0 012.26-3.92c1.21-.71 2.26-.13 2.26 1.31z"/><path class="cls-6" d="M59.88 53.81a4.62 4.62 0 01-2.09 3.62 1.41 1.41 0 01-1.56.09 1.52 1.52 0 01-.53-1.3 4.61 4.61 0 012.09-3.62 1.52 1.52 0 011.4-.19 1.42 1.42 0 01.69 1.4zm7.65-4.5a5 5 0 01-2.26 3.92c-1.27.72-2.27.13-2.27-1.31A5 5 0 0165.27 48c1.25-.72 2.26-.14 2.26 1.31z"/><path class="cls-8" d="M67.62 49.34a5 5 0 01-2.26 3.92c-1.25.74-2.26.14-2.26-1.26a5 5 0 012.26-4c1.25-.68 2.26-.1 2.26 1.34z"/><path class="cls-6" d="M67.45 49.44a4.62 4.62 0 01-2.09 3.62 1.42 1.42 0 01-1.55.1 1.5 1.5 0 01-.55-1.31 4.62 4.62 0 012.09-3.62 1.52 1.52 0 011.4-.23 1.41 1.41 0 01.7 1.44z"/><path class="cls-9" d="M59.73 53.72a4.62 4.62 0 01-2.09 3.62 1.16 1.16 0 01-1.94-1.12 4.61 4.61 0 012.09-3.62 1.52 1.52 0 011.4-.19 1.53 1.53 0 01.54 1.31zm7.57-4.37A4.63 4.63 0 0165.21 53a1.52 1.52 0 01-1.39.19 1.5 1.5 0 01-.55-1.31 4.62 4.62 0 012.09-3.62 1.52 1.52 0 011.39-.26 1.5 1.5 0 01.55 1.35z"/><path class="cls-8" d="M66.59 49.21c-.2-.14-.49-.34-.74-.28a4 4 0 00-.81.3c-.37.17-.73.42-1.08.62l-2.56 1.48c-1.07.62-2.15 1.22-3.2 1.85a3.54 3.54 0 00-.36.26 3.74 3.74 0 00-.75.66c-.23.31-.47.88-.21 1.25a1.64 1.64 0 00.4.39c.07 0 .37.27.44.17s0-.31 0-.38a4.12 4.12 0 010-.57c0-.13 0-.11.16-.19l.41-.23v.73l.44.25a2.45 2.45 0 00.32-.18c.1-.08.07-.11.08-.25s.1-.45.28-.49.2.08.29.13l.47.27a1 1 0 001 0c.38-.21.75-.43 1.13-.65a5.62 5.62 0 00.73-.45 2.94 2.94 0 00.68-.84l.48-.84c.08-.13.18-.43.31-.51l.37.24c.12-.07.35-.15.39-.26a1 1 0 000-.3v-.92c0-.09.21-.12.29-.17l.26-.15v.55l.44.25c.17-.05.28-.49.34-.64s.41-.88 0-1.1zm-7.11 4.72c-.3-.17.1-.63.27-.73l.66-.38a5.83 5.83 0 01-.2.83c0 .17-.17.41-.36.44s-.26-.09-.37-.15zM61 52.4l1.55-.89v1.78c0 .05-.25.15-.32.19l-.54.31-.68.39zm3.08-1.64l-.38.65a2.73 2.73 0 01-.43.69 2.22 2.22 0 01-.12-.38.79.79 0 01.37-.71c.2-.13.41-.24.61-.35z"/><path class="cls-4" d="M62.83 52.52a1.32 1.32 0 01-.45.31 8.67 8.67 0 01-1.07.62c-.13 0-.2 0-.3-.09l-.14-.07v-.11c0-.18 0-.33-.09-.39a.2.2 0 00-.1 0 .75.75 0 01.07-.23 1 1 0 01.4-.3l.66-.38a4.32 4.32 0 01.47-.27.21.21 0 01.23 0l.15.09s.12.05.14.11c.2-.06.1.6.03.71z"/><path class="cls-10" d="M62.59 53.3c0-.07-.07-.05-.1 0s.18-.35 0-.22c0 0 .18-.35 0-.22 0 0 .18-.35 0-.22 0-.07 0-.09-.09-.05s0-.09-.09-.05 0-.09-.09-.05c0-.17-.33.09-.38.11a.8.8 0 00-.15.09c-.06.06-.1.25 0 .15 0 .06-.1.22-.15.24s0-.09-.09-.05 0-.09-.09-.05c0-.17-.33.09-.38.11a.79.79 0 00-.15.09c-.06.06-.1.25 0 .15s-.18.35 0 .22c0 0-.18.35 0 .22 0 0-.18.35 0 .22 0 0-.18.35 0 .22 0 .07 0 .09.09.05s0 .09.09.05 0 .09.09.05c0 .17.33-.09.38-.11a.8.8 0 00.15-.09c.06-.06.1-.25 0-.15 0-.06.1-.22.15-.24s0 .09.09.05 0 .09.09.05c0 .17.33-.09.38-.11a.8.8 0 00.15-.09c.06-.06.1-.25 0-.15.01-.11.1-.14.1-.22zm-.89 0h-.05s0-.06.06-.08a.05.05 0 00-.01.08zm0 .2h.05s0 .06-.06.08a.05.05 0 00-.04-.09zm0-.5s0 .06-.06.08.01-.02.06-.08zm-.06.72s0-.06.06-.08-.01.09-.06.12z"/><path class="cls-11" d="M61.67 53.26l-.47.27h-.07a.16.16 0 01.07-.13l.47-.27h.07a.16.16 0 01-.07.13zm.07.09s0-.07-.07 0l-.47.27a.16.16 0 00-.07.13s0 .07.07 0l.47-.27a.16.16 0 00.07-.13zm0 .22s0-.07-.07 0l-.47.27a.16.16 0 00-.07.13s0 .07.07 0l.47-.27a.16.16 0 00.07-.13zm0 .22s0-.07-.07 0l-.47.21a.16.16 0 00-.07.13s0 .07.07 0l.47-.27a.16.16 0 00.07-.08zm0 .22s0-.07-.07 0l-.47.27a.16.16 0 00-.07.13s0 .07.07 0l.47-.27a.16.16 0 00.07-.14zm.84-1.35s0-.07-.07 0l-.47.27A.16.16 0 0062 53s0 .07.07 0l.47-.27a.16.16 0 00.05-.08zm0 .22s0-.07-.07 0l-.47.27a.16.16 0 00-.07.13s0 .07.07 0l.47-.27a.16.16 0 00.08-.14zm0 .22s0-.07-.07 0l-.47.27a.16.16 0 00-.07.13s0 .07.07 0l.47-.27a.16.16 0 00.08-.15zm0 .22s0-.07-.07 0l-.47.27a.16.16 0 00-.07.13s0 .07.07 0l.47-.27a.16.16 0 00.08-.15zm0 .22s0-.07-.07 0l-.47.27a.16.16 0 00-.07.13s0 .07.07 0l.47-.27a.16.16 0 00.08-.16z"/><path class="cls-7" d="M62.71 52.64l-1.39.8c-.11.07-.21 0-.21-.12V53a.46.46 0 01.21-.36l1.39-.8c.11-.07.21 0 .21.12v.36a.45.45 0 01-.21.32z"/><path class="cls-5" d="M58.73 55.09a1.52 1.52 0 01-.47.74.44.44 0 01-.53 0l-.13-.08-.31-.17a1.36 1.36 0 01.41-1.38l.22.13c.12.07.28.13.41.21a.82.82 0 01.18.14.28.28 0 01.21.17.5.5 0 01.01.24z"/><path class="cls-6" d="M58.73 55a1.11 1.11 0 01-.5.87c-.28.16-.5 0-.5-.29a1.11 1.11 0 01.5-.87c.27-.18.5-.05.5.29z"/><path class="cls-10" d="M58.13 54.92l-.21.54a.14.14 0 00.2.17l.42-.24a.14.14 0 000-.2l-.21-.3a.14.14 0 00-.2.03z"/><path class="cls-11" d="M58.35 54.94a.15.15 0 01-.07.12h-.07a.15.15 0 01.07-.12s.07-.04.07 0zm-.22.56a.15.15 0 01-.07.12h-.07a.15.15 0 01.07-.12s.07-.04.07 0zm.43-.25a.15.15 0 01-.07.12h-.07a.15.15 0 01.07-.12s.07-.04.07 0z"/><path class="cls-9" d="M66.29 50.73a1.5 1.5 0 01-.47.74.44.44 0 01-.53 0l-.13-.08-.57-.39c.15-.28 0-.53-.17-.45a1.16 1.16 0 01.35-.63l.26-.15c.17 0 .31.06.49.16s.28.13.41.21a.81.81 0 01.18.14.27.27 0 01.21.17.47.47 0 01-.03.28z"/><path class="cls-6" d="M66.29 50.61a1.11 1.11 0 01-.5.87c-.28.16-.5 0-.5-.29a1.11 1.11 0 01.5-.87c.28-.16.5-.03.5.29z"/><path class="cls-10" d="M65.7 50.55l-.21.54a.14.14 0 00.2.17l.42-.24a.14.14 0 000-.2l-.21-.3a.14.14 0 00-.2.03z"/><path class="cls-11" d="M65.92 50.57a.15.15 0 01-.07.12h-.07a.15.15 0 01.07-.12s.07-.04.07 0zm-.22.56a.15.15 0 01-.07.12h-.07a.15.15 0 01.07-.12s.07-.04.07 0zm.43-.25a.15.15 0 01-.07.12H66a.15.15 0 01.07-.12s.06-.04.06 0z"/><path class="cls-6" d="M66.21 49.2l-.74.28-.47.27-.26.15L62 51.48l-3.46 2-.74.58-.12.1a1.36 1.36 0 00-.41 1.38.37.37 0 00.06.09l.3.32h.08v-1l.61-.35.39-.23v1.24l.39-.23v-.22a.63.63 0 01.28-.48l.9.52a.88.88 0 00.92-.2l.81-.47.81-.47a2.51 2.51 0 00.87-.91l.9-1.55c.15-.09.28 0 .28.16v.22l.39-.23v-1.27l.61-.35.39-.23V51h.08l.3-.67c.36-.76.09-1.33-.43-1.13zm-5.56 4.71c-.07.28-.33.51-.49.41l-.68-.39c-.18-.11-.06-.55.21-.7l.79-.46a.4.4 0 01.16-.05.2.2 0 01.1 0c.1.06.13.21.09.39v.11zm2.35-.32l-2 1.14V52.4l1.45-.83.54-.31zM64.55 51l-.68 1.17c-.15.27-.42.35-.49.15l-.19-.55a.64.64 0 01.09-.49.77.77 0 01.27-.28l.79-.46h.06c.2-.08.3.16.15.46zm15.81-9.78a5 5 0 01-2.26 3.92c-1.25.72-2.26.14-2.26-1.31a5 5 0 012.26-3.92c1.24-.72 2.25-.13 2.26 1.31zm7.56-4.37a5 5 0 01-2.26 3.92c-1.25.72-2.26.14-2.26-1.31a5 5 0 012.26-3.92c1.25-.72 2.26-.13 2.26 1.31z"/><path class="cls-5" d="M80.35 41.35a4.75 4.75 0 01-2.15 3.72c-1.19.69-2.15.13-2.15-1.24a4.75 4.75 0 012.15-3.72c1.19-.69 2.15-.11 2.15 1.24zM87.92 37a4.75 4.75 0 01-2.15 3.72c-1.19.69-2.15.13-2.15-1.24a4.75 4.75 0 012.15-3.72c1.23-.71 2.15-.15 2.15 1.24z"/><path class="cls-4" d="M81.26 39.67l.82.47v-2.46l-.82-.47v2.46z"/><path class="cls-7" d="M83.89 39.1l-1.81 1.04v-2.46l1.81-1.04v2.46z"/><path class="cls-8" d="M85.39 35.77l-.85-.49-4.82 2.78a.92.92 0 00.42.88l.84.49 2.21-1.83a2.34 2.34 0 00.56-.47z"/><path class="cls-6" d="M84.06 38.08l-2.16 1.24c-.74.42-1.33.08-1.33-.77l4.82-2.78a2.94 2.94 0 01-1.33 2.31zm-3.13 3.49a5 5 0 01-2.26 3.92c-1.25.72-2.26.14-2.26-1.31a5 5 0 012.26-3.92c1.25-.72 2.26-.13 2.26 1.31z"/><path class="cls-8" d="M81 41.61a5 5 0 01-2.26 3.92c-1.25.72-2.26.14-2.26-1.31a5 5 0 012.26-3.92C80 39.58 81 40.16 81 41.61z"/><path class="cls-6" d="M80.85 41.7a4.62 4.62 0 01-2.09 3.62 1.41 1.41 0 01-1.56.09 1.52 1.52 0 01-.53-1.3 4.61 4.61 0 012.09-3.62 1.52 1.52 0 011.4-.19 1.42 1.42 0 01.69 1.4zm7.65-4.5a5 5 0 01-2.26 3.92c-1.24.72-2.24.13-2.24-1.31a5 5 0 012.26-3.92c1.23-.72 2.24-.13 2.24 1.31z"/><path class="cls-8" d="M88.59 37.24a5 5 0 01-2.26 3.92c-1.25.72-2.26.14-2.26-1.31a5 5 0 012.26-3.92c1.25-.72 2.26-.14 2.26 1.31z"/><path class="cls-6" d="M88.42 37.34A4.62 4.62 0 0186.33 41a1.42 1.42 0 01-1.55.1 1.5 1.5 0 01-.55-1.31 4.62 4.62 0 012.09-3.62 1.52 1.52 0 011.39-.19 1.41 1.41 0 01.71 1.36z"/><path class="cls-9" d="M80.7 41.62a4.62 4.62 0 01-2.09 3.62 1.16 1.16 0 01-1.94-1.12 4.61 4.61 0 012.09-3.62 1.52 1.52 0 011.4-.19 1.53 1.53 0 01.54 1.31zm7.57-4.38a4.63 4.63 0 01-2.09 3.62 1.53 1.53 0 01-1.39.19 1.5 1.5 0 01-.55-1.31 4.62 4.62 0 012.09-3.62 1.52 1.52 0 011.39-.19 1.5 1.5 0 01.55 1.31z"/><path class="cls-8" d="M87.56 37.1c-.2-.14-.49-.34-.74-.28a4 4 0 00-.81.3c-.37.17-.73.42-1.08.62l-2.56 1.48c-1.07.62-2.15 1.22-3.2 1.85a3.54 3.54 0 00-.36.26 3.74 3.74 0 00-.75.66c-.23.31-.47.88-.21 1.25a1.64 1.64 0 00.4.39c.07 0 .37.27.44.17s0-.31 0-.38a4.12 4.12 0 010-.57c0-.13 0-.11.16-.19l.41-.23v.73l.44.25a2.44 2.44 0 00.32-.18c.1-.08.07-.11.08-.25s.1-.45.28-.49.2.08.29.13l.47.27a1 1 0 001 0c.38-.21.75-.43 1.13-.65a5.61 5.61 0 00.73-.45 2.94 2.94 0 00.68-.84l.48-.84c.08-.13.18-.43.31-.51l.37.24c.12-.07.35-.15.39-.26a1 1 0 000-.3v-.92c0-.09.21-.12.29-.17l.26-.15v.55l.44.25c.17-.05.28-.49.34-.64s.38-.88 0-1.1zm-7.11 4.72c-.3-.17.1-.63.27-.73l.66-.38a5.83 5.83 0 01-.2.83c0 .17-.17.41-.36.44s-.25-.09-.36-.15zM82 40.3l1.55-.89v1.82c0 .05-.25.15-.32.19l-.54.31-.68.39zm3.08-1.64l-.38.65a2.73 2.73 0 01-.43.69 2.22 2.22 0 01-.12-.38.79.79 0 01.37-.71c.2-.13.41-.24.61-.35z"/><path class="cls-4" d="M83.8 40.41a1.32 1.32 0 01-.45.31 8.67 8.67 0 01-1.07.62c-.13 0-.2 0-.3-.09l-.14-.07v-.11c0-.18 0-.33-.09-.39a.2.2 0 00-.1 0 .75.75 0 01.07-.23 1 1 0 01.4-.3l.66-.38a4.32 4.32 0 01.47-.27.21.21 0 01.23 0l.15.09s.12.05.14.11c.23-.06.1.6.03.71z"/><path class="cls-10" d="M83.56 41.19c0-.07-.07-.05-.1 0s.18-.35 0-.22c0 0 .18-.35 0-.22 0 0 .18-.35 0-.22 0-.07 0-.09-.09-.05s0-.09-.09-.05 0-.09-.09-.05c0-.17-.33.09-.38.11a.8.8 0 00-.15.09c-.06.06-.1.25 0 .15 0 .06-.1.22-.15.24s0-.09-.09-.05 0-.09-.09-.05c0-.17-.33.09-.38.11a.79.79 0 00-.15.09c-.06.06-.1.25 0 .15s-.18.35 0 .22c0 0-.18.35 0 .22 0 0-.18.35 0 .22 0 0-.18.35 0 .22 0 .07 0 .09.09.05s0 .09.09.05 0 .09.09.05c0 .17.33-.09.38-.11a.8.8 0 00.15-.09c.06-.06.1-.25 0-.15 0-.06.1-.22.15-.24s0 .09.09.05 0 .09.09.05c0 .17.33-.09.38-.11a.8.8 0 00.15-.09c.06-.06.1-.25 0-.15.01-.11.1-.14.1-.22zm-.89 0h-.05s0-.06.06-.08a.05.05 0 00-.01.08zm0 .2h.05s0 .06-.06.08a.05.05 0 00-.04-.09zm.05-.46s0 .06-.06.08-.03-.06.01-.09zm-.06.72s0-.06.06-.08-.06.05-.1.08z"/><path class="cls-11" d="M82.64 41.15l-.47.27h-.07a.16.16 0 01.07-.13l.47-.27h.07a.16.16 0 01-.07.13zm.07.09s0-.07-.07 0l-.47.27a.16.16 0 00-.07.13s0 .07.07 0l.47-.27a.16.16 0 00.08-.13zm0 .22s0-.07-.07 0l-.47.27a.16.16 0 00-.07.13s0 .07.07 0l.47-.27a.16.16 0 00.08-.13zm0 .22s0-.07-.07 0l-.47.27a.16.16 0 00-.07.13s0 .07.07 0l.47-.27a.16.16 0 00.08-.14zm0 .22s0-.07-.07 0l-.47.27a.16.16 0 00-.07.13s0 .07.07 0l.47-.27a.16.16 0 00.08-.14zm.84-1.35s0-.07-.07 0l-.47.27a.16.16 0 00-.07.13s0 .07.07 0l.47-.27a.16.16 0 00.08-.14zm0 .22s0-.07-.07 0L83 41a.16.16 0 00-.07.13s0 .07.07 0l.47-.27a.16.16 0 00.09-.1zm0 .22s0-.07-.07 0l-.48.21a.16.16 0 00-.07.13s0 .07.07 0l.47-.27a.16.16 0 00.09-.06zm0 .22s0-.07-.07 0l-.47.27a.16.16 0 00-.07.13s0 .07.07 0l.47-.27a.16.16 0 00.08-.15zm0 .22s0-.07-.07 0l-.47.27a.16.16 0 00-.07.13s0 .07.07 0l.47-.27a.16.16 0 00.08-.16z"/><path class="cls-7" d="M83.68 40.53l-1.39.8c-.11.07-.21 0-.21-.12v-.36a.46.46 0 01.21-.36l1.39-.8c.11-.07.21 0 .21.12v.36a.46.46 0 01-.21.36z"/><path class="cls-5" d="M79.7 43a1.52 1.52 0 01-.47.74.44.44 0 01-.53 0l-.13-.08-.31-.17a1.36 1.36 0 01.41-1.49l.22.13c.12.07.28.13.41.21a.81.81 0 01.18.14.28.28 0 01.21.17.5.5 0 01.01.35z"/><path class="cls-6" d="M79.7 42.87a1.11 1.11 0 01-.5.87c-.28.16-.5 0-.5-.29a1.11 1.11 0 01.5-.87c.28-.16.5-.03.5.29z"/><path class="cls-10" d="M79.1 42.81l-.21.54a.14.14 0 00.2.17l.42-.24a.14.14 0 000-.2l-.21-.3a.14.14 0 00-.2.03z"/><path class="cls-11" d="M79.33 42.83a.15.15 0 01-.07.12h-.07a.15.15 0 01.07-.12s.07-.04.07 0zm-.22.56a.15.15 0 01-.07.12h-.07a.15.15 0 01.07-.12s.07-.04.07 0zm.43-.25a.15.15 0 01-.07.12h-.07a.15.15 0 01.07-.12s.07-.04.07 0z"/><path class="cls-9" d="M87.27 38.62a1.5 1.5 0 01-.47.74.44.44 0 01-.53 0l-.13-.08-.57-.33c.15-.28 0-.53-.17-.45a1.16 1.16 0 01.35-.63l.26-.15c.17 0 .31.06.49.16s.28.13.41.21a.81.81 0 01.18.14.27.27 0 01.21.17.47.47 0 01-.03.22z"/><path class="cls-6" d="M87.27 38.5a1.11 1.11 0 01-.5.87c-.28.16-.5 0-.5-.29a1.11 1.11 0 01.5-.87c.23-.16.5-.03.5.29z"/><path class="cls-10" d="M86.67 38.44l-.21.54a.14.14 0 00.2.17l.42-.24a.14.14 0 000-.2l-.21-.3a.14.14 0 00-.2.03z"/><path class="cls-11" d="M86.89 38.46a.15.15 0 01-.07.12h-.07a.15.15 0 01.07-.12s.07-.04.07 0zm-.21.54a.15.15 0 01-.07.12h-.07a.15.15 0 01.07-.12h.07zm.43-.23a.15.15 0 01-.07.12h-.07a.15.15 0 01.07-.12s.07-.04.07 0z"/><path class="cls-6" d="M87.18 37.1l-.74.28-.47.27-.26.15L83 39.37l-3.46 2-.74.58-.12.1a1.36 1.36 0 00-.41 1.38.38.38 0 00.06.09l.3.32h.08v-1l.61-.35.39-.23v1.14l.39-.23v-.22a.63.63 0 01.28-.48l.9.52a.88.88 0 00.87-.09l.81-.47.81-.47a2.51 2.51 0 00.87-.91l.9-1.55c.15-.09.28 0 .28.16v.22l.39-.23v-1.28l.61-.35.39-.23v1.05h.08l.3-.67c.41-.71.11-1.27-.41-1.07zm-5.56 4.71c-.07.28-.33.51-.49.41l-.68-.39c-.18-.11-.06-.55.21-.7l.79-.46a.4.4 0 01.16-.05.2.2 0 01.1 0c.1.06.13.21.09.39v.11zm2.38-.33l-2 1.14v-2.33l1.45-.83.54-.31zm1.55-2.6l-.68 1.17c-.15.27-.42.35-.49.15l-.19-.55a.64.64 0 01.09-.49.77.77 0 01.27-.28l.79-.46h.06c.18-.07.27.17.13.46z"/><path class="cls-4" d="M54.49 53.97l33.15-19.14v-3.41L54.19 49.74l.3 4.23z"/><path class="cls-7" d="M54.19 28.19l-.1 23.11 33.89-19.56V8.69l-33.79 19.5z"/><path class="cls-8" d="M75.79 38.77v2.91a2.47 2.47 0 01-.58 2h-.09l-7.24 4.18-.54.31a2.63 2.63 0 00.54-1.93v-2.9z"/><path class="cls-5" d="M31.23 67.4a2.63 2.63 0 01-.54 1.93l-.12.07a.7.7 0 01-.66-.16l-.84-.6zm7.91-4.56a2.47 2.47 0 01-.58 2h-.09a.66.66 0 01-.67-.14l-.8-.61z"/><path class="cls-6" d="M22.73 74.49a5 5 0 01-2.26 3.92c-1.25.72-2.26.14-2.26-1.31a5 5 0 012.26-3.92c1.25-.72 2.26-.18 2.26 1.31zm7.57-4.37A5 5 0 0128 74c-1.25.72-2.26.14-2.26-1.31A5 5 0 0128 68.81c1.29-.72 2.3-.14 2.3 1.31z"/><path class="cls-5" d="M22.73 74.61a4.75 4.75 0 01-2.15 3.72c-1.19.69-2.15.13-2.15-1.24a4.75 4.75 0 012.15-3.72c1.19-.68 2.15-.13 2.15 1.24zm7.57-4.37A4.75 4.75 0 0128.15 74c-1.15.65-2.15.1-2.15-1.27A4.75 4.75 0 0128.15 69c1.19-.68 2.15-.13 2.15 1.24z"/><path class="cls-4" d="M23.64 72.93l.82.48v-2.46l-.82-.48v2.46z"/><path class="cls-7" d="M26.26 72.37l-1.8 1.04v-2.46l1.8-1.04v2.46z"/><path class="cls-8" d="M27.77 69l-.85-.49-4.82 2.82a.92.92 0 00.42.88l.84.49 2.21-1.83a2.34 2.34 0 00.56-.47z"/><path class="cls-6" d="M26.44 71.34l-2.16 1.25c-.74.42-1.33.08-1.33-.77L27.77 69a2.94 2.94 0 01-1.33 2.34zm-3.13 3.5A5 5 0 0121 78.76c-1.25.72-2.26.14-2.26-1.31A5 5 0 0121 73.53c1.3-.72 2.31-.14 2.31 1.31z"/><path class="cls-8" d="M23.4 74.87a5 5 0 01-2.26 3.92c-1.25.72-2.26.14-2.26-1.31a5 5 0 012.26-3.92c1.25-.71 2.26-.13 2.26 1.31z"/><path class="cls-6" d="M23.23 75a4.62 4.62 0 01-2.09 3.62 1.41 1.41 0 01-1.56.09 1.52 1.52 0 01-.53-1.3 4.61 4.61 0 012.09-3.62 1.52 1.52 0 011.4-.19 1.42 1.42 0 01.69 1.4zm7.65-4.53a5 5 0 01-2.26 3.92c-1.25.72-2.26.14-2.26-1.31a5 5 0 012.26-3.92c1.25-.72 2.26-.16 2.26 1.31z"/><path class="cls-8" d="M31 70.5a5 5 0 01-2.26 3.92c-1.25.72-2.26.14-2.26-1.31a5 5 0 012.26-3.92C30 68.48 31 69.06 31 70.5z"/><path class="cls-6" d="M30.8 70.6a4.62 4.62 0 01-2.09 3.62 1.42 1.42 0 01-1.55.1 1.5 1.5 0 01-.54-1.32 4.62 4.62 0 012.09-3.62 1.52 1.52 0 011.39-.19 1.41 1.41 0 01.7 1.41z"/><path class="cls-9" d="M23.08 74.88A4.62 4.62 0 0121 78.5a1.51 1.51 0 01-1.4.18 1.52 1.52 0 01-.53-1.3 4.61 4.61 0 012.09-3.62 1.52 1.52 0 011.4-.19 1.53 1.53 0 01.52 1.31zm7.57-4.37a4.63 4.63 0 01-2.09 3.62 1.53 1.53 0 01-1.39.19 1.5 1.5 0 01-.55-1.32 4.62 4.62 0 012.09-3.62 1.52 1.52 0 011.39-.19 1.5 1.5 0 01.55 1.32z"/><path class="cls-8" d="M29.94 70.37c-.2-.14-.49-.34-.74-.28a4 4 0 00-.81.3c-.37.17-.73.42-1.08.62l-2.56 1.48c-1.07.62-2.15 1.22-3.2 1.85a3.54 3.54 0 00-.36.26 3.74 3.74 0 00-.75.66c-.23.31-.47.88-.21 1.25a1.64 1.64 0 00.4.39c.07 0 .37.27.44.17s0-.31 0-.38a4.12 4.12 0 010-.57c0-.13 0-.11.16-.19l.41-.23v.73l.44.25a2.44 2.44 0 00.32-.18c.1-.08.07-.11.08-.25s.1-.45.28-.49.2.08.29.13l.47.27a1 1 0 001 0c.38-.21.75-.43 1.13-.65a5.61 5.61 0 00.73-.45 2.94 2.94 0 00.68-.84l.48-.84c.08-.13.18-.43.31-.51l.37.24c.12-.07.35-.15.39-.26a1 1 0 000-.3v-.92c0-.09.21-.12.29-.17l.26-.15v.55l.44.25c.17-.05.28-.49.34-.64s.38-.88 0-1.1zm-7.11 4.73c-.3-.17.1-.63.27-.73l.66-.38a5.83 5.83 0 01-.2.83c0 .17-.17.41-.36.44s-.25-.1-.37-.16zm1.54-1.53l1.55-.89v1.81c0 .05-.25.15-.32.19L25 75l-.68.39zm3.08-1.64l-.38.65a2.73 2.73 0 01-.43.69 2.22 2.22 0 01-.12-.38.79.79 0 01.37-.71c.2-.13.41-.24.61-.35z"/><path class="cls-4" d="M26.18 73.68a1.32 1.32 0 01-.45.31 8.67 8.67 0 01-1.07.62c-.13 0-.2 0-.3-.09l-.14-.07v-.11c0-.18 0-.33-.09-.39a.2.2 0 00-.1 0 .75.75 0 01.07-.23 1 1 0 01.4-.3l.66-.38a4.32 4.32 0 01.47-.27.21.21 0 01.23 0l.15.09s.12.05.14.11c.22-.06.1.6.03.71z"/><path class="cls-10" d="M25.94 74.46c0-.07-.07-.05-.1 0s.18-.35 0-.22c0 0 .18-.35 0-.22 0 0 .18-.35 0-.22 0-.07 0-.09-.09-.05s0-.09-.09-.05 0-.09-.09-.05c0-.17-.33.09-.38.11a.8.8 0 00-.15.09c-.06.06-.1.25 0 .15 0 .06-.1.22-.15.24s0-.09-.09-.05 0-.09-.09-.05c0-.17-.33.09-.38.11a.79.79 0 00-.15.09c-.06.06-.1.25 0 .15s-.18.35 0 .22c0 0-.18.35 0 .22 0 0-.18.35 0 .22 0 0-.18.35 0 .22 0 .07 0 .09.09.05s0 .09.09.05 0 .09.09.05c0 .17.33-.09.38-.11a.8.8 0 00.15-.09c.06-.06.1-.25 0-.15 0-.06.1-.22.15-.24s0 .09.09.05 0 .09.09.05c0 .17.33-.09.38-.11a.8.8 0 00.15-.09c.06-.06.1-.25 0-.15.01-.11.1-.14.1-.22zm-.89 0H25s0-.06.06-.08a.05.05 0 00-.06.07zm0 .2h.05s0 .06-.06.08a.05.05 0 00-.04-.09zm.05-.46s0 .06-.06.08-.04-.07.01-.09zm-.06.72s0-.06.06-.08-.1.05-.1.07z"/><path class="cls-11" d="M25 74.42l-.47.27h-.07a.16.16 0 01.07-.13l.47-.27h.07a.16.16 0 01-.07.13zm.07.09s0-.07-.07 0l-.47.27a.16.16 0 00-.07.13s0 .07.07 0l.47-.27a.16.16 0 00.1-.13zm0 .22s0-.07-.07 0l-.47.27a.16.16 0 00-.07.13s0 .07.07 0l.47-.27a.16.16 0 00.1-.13zm0 .22s0-.07-.07 0l-.47.27a.16.16 0 00-.07.13s0 .07.07 0l.47-.27a.16.16 0 00.1-.14zm0 .22s0-.07-.07 0l-.47.27a.16.16 0 00-.07.13s0 .07.07 0l.47-.27a.16.16 0 00.1-.14zm.84-1.35s0-.07-.07 0l-.44.18a.16.16 0 00-.07.13s0 .07.07 0l.47-.27a.16.16 0 00.07-.05zm0 .22s0-.07-.07 0l-.47.27a.16.16 0 00-.07.13s0 .07.07 0l.47-.27a.16.16 0 00.1-.17zm0 .22s0-.07-.07 0l-.47.27a.16.16 0 00-.07.13s0 .07.07 0l.47-.27a.16.16 0 00.1-.15zm0 .22s0-.07-.07 0l-.47.27a.16.16 0 00-.07.13s0 .07.07 0l.47-.27a.16.16 0 00.1-.15zm0 .22s0-.07-.07 0l-.47.27a.16.16 0 00-.07.13s0 .07.07 0l.47-.27a.16.16 0 00.1-.16z"/><path class="cls-7" d="M26.06 73.8l-1.39.8c-.11.07-.21 0-.21-.12v-.36a.46.46 0 01.21-.36l1.39-.8c.11-.07.21 0 .21.12v.36a.46.46 0 01-.21.36z"/><path class="cls-5" d="M22.08 76.25a1.52 1.52 0 01-.47.74.44.44 0 01-.53 0l-.13-.08-.31-.17a1.36 1.36 0 01.36-1.42l.22.13c.12.07.28.13.41.21a.81.81 0 01.18.14.28.28 0 01.21.17.5.5 0 01.06.28z"/><path class="cls-6" d="M22.08 76.14a1.11 1.11 0 01-.5.87c-.28.16-.5 0-.5-.29a1.11 1.11 0 01.5-.87c.27-.16.5-.03.5.29z"/><path class="cls-10" d="M21.48 76.08l-.21.54a.14.14 0 00.2.17l.42-.24a.14.14 0 000-.2l-.21-.3a.14.14 0 00-.2.03z"/><path class="cls-11" d="M21.7 76.1a.15.15 0 01-.07.12h-.07a.15.15 0 01.07-.12s.07-.04.07 0zm-.22.56a.15.15 0 01-.07.12h-.07a.15.15 0 01.07-.12s.07-.04.07 0zm.44-.25a.15.15 0 01-.07.12h-.07a.15.15 0 01.07-.12s.07-.04.07 0z"/><path class="cls-9" d="M29.65 71.88a1.5 1.5 0 01-.47.74.44.44 0 01-.53 0l-.13-.08-.57-.33c.15-.28 0-.53-.17-.45a1.16 1.16 0 01.35-.63l.26-.15c.17 0 .31.06.49.16s.28.13.41.21a.81.81 0 01.18.14.27.27 0 01.21.17.47.47 0 01-.03.22z"/><path class="cls-6" d="M29.65 71.77a1.11 1.11 0 01-.5.87c-.28.16-.5 0-.5-.29a1.11 1.11 0 01.5-.87c.27-.16.5-.03.5.29z"/><path class="cls-10" d="M29.05 71.71l-.21.54a.14.14 0 00.2.17l.42-.24a.14.14 0 000-.2l-.21-.3a.14.14 0 00-.2.03z"/><path class="cls-11" d="M29.27 71.73a.15.15 0 01-.07.12h-.07a.15.15 0 01.07-.12s.07-.04.07 0zm-.22.56a.15.15 0 01-.07.12h-.07a.15.15 0 01.07-.12s.07-.04.07 0zm.44-.29a.15.15 0 01-.07.12h-.07a.15.15 0 01.07-.12h.07z"/><path class="cls-6" d="M29.56 70.36l-.74.28-.47.27-.26.15-2.73 1.57-3.46 2-.74.58-.12.1a1.36 1.36 0 00-.41 1.38.37.37 0 00.06.09l.3.32h.08V76l.61-.35.39-.23v1.24l.39-.23v-.22a.63.63 0 01.28-.48l.9.52a.88.88 0 00.87-.09l.81-.47.81-.47a2.51 2.51 0 00.87-.92l.9-1.55c.15-.09.28 0 .28.16v.22l.39-.23v-1.26l.61-.35.39-.23v1.05h.08l.3-.67c.38-.72.13-1.27-.39-1.08zM24 75.07c-.07.28-.33.51-.49.41l-.68-.39c-.18-.11-.06-.55.21-.7l.79-.46a.4.4 0 01.16-.05.2.2 0 01.1 0c.1.06.13.21.09.39v.11zm2.35-.33l-2 1.14v-2.32l1.45-.83.54-.31zm1.55-2.6l-.68 1.17c-.15.27-.42.35-.49.15l-.19-.55a.64.64 0 01.09-.49.77.77 0 01.27-.28l.79-.46h.06c.25-.06.3.18.16.46zm15.81-9.76a5 5 0 01-2.26 3.92c-1.25.72-2.26.14-2.26-1.31a5 5 0 012.26-3.92c1.24-.72 2.26-.14 2.26 1.31zM51.28 58A5 5 0 0149 61.93c-1.25.72-2.26.14-2.26-1.31A5 5 0 0149 56.7c1.26-.7 2.28-.14 2.28 1.3z"/><path class="cls-5" d="M43.7 62.51a4.75 4.75 0 01-2.15 3.72c-1.19.69-2.15.13-2.15-1.24a4.75 4.75 0 012.15-3.72c1.19-.69 2.15-.14 2.15 1.24zm7.57-4.37a4.75 4.75 0 01-2.15 3.72c-1.18.68-2.12.14-2.12-1.24a4.75 4.75 0 012.15-3.72c1.16-.69 2.12-.13 2.12 1.24z"/><path class="cls-4" d="M44.61 60.83l.82.47v-2.46l-.82-.47v2.46z"/><path class="cls-7" d="M47.24 60.26l-1.81 1.04v-2.46l1.81-1.04v2.46z"/><path class="cls-8" d="M48.75 56.93l-.85-.49-4.82 2.78a.92.92 0 00.42.88l.84.49 2.21-1.83a2.34 2.34 0 00.56-.47z"/><path class="cls-6" d="M47.41 59.23l-2.16 1.25c-.74.42-1.33.08-1.33-.77l4.82-2.78a2.94 2.94 0 01-1.33 2.3zm-3.12 3.5A5 5 0 0142 66.65c-1.25.72-2.26.14-2.26-1.31A5 5 0 0142 61.42c1.27-.72 2.29-.14 2.29 1.31z"/><path class="cls-8" d="M44.38 62.76a5 5 0 01-2.26 3.92c-1.25.72-2.26.14-2.26-1.31a5 5 0 012.26-3.92c1.24-.71 2.26-.13 2.26 1.31z"/><path class="cls-6" d="M44.2 62.86a4.62 4.62 0 01-2.09 3.62 1.41 1.41 0 01-1.56.09 1.52 1.52 0 01-.53-1.3 4.61 4.61 0 012.09-3.62 1.52 1.52 0 011.4-.19 1.42 1.42 0 01.69 1.4zm7.65-4.5a5 5 0 01-2.26 3.92c-1.25.72-2.26.14-2.26-1.31a5 5 0 012.26-3.92c1.25-.72 2.26-.14 2.26 1.31z"/><path class="cls-8" d="M51.95 58.39a5 5 0 01-2.26 3.92c-1.25.72-2.26.14-2.26-1.31a5 5 0 012.26-3.92c1.24-.71 2.26-.08 2.26 1.31z"/><path class="cls-6" d="M51.77 58.49a4.62 4.62 0 01-2.09 3.62 1.42 1.42 0 01-1.55.1 1.5 1.5 0 01-.55-1.31 4.62 4.62 0 012.09-3.62 1.52 1.52 0 011.39-.19 1.41 1.41 0 01.71 1.4z"/><path class="cls-9" d="M44.05 62.77A4.62 4.62 0 0142 66.4a1.51 1.51 0 01-1.4.18 1.52 1.52 0 01-.53-1.3 4.61 4.61 0 012.09-3.62 1.52 1.52 0 011.4-.19 1.53 1.53 0 01.49 1.3zm7.57-4.37a4.63 4.63 0 01-2.09 3.6 1.53 1.53 0 01-1.39.19 1.5 1.5 0 01-.55-1.31 4.62 4.62 0 012.09-3.62 1.52 1.52 0 011.39-.19 1.5 1.5 0 01.55 1.33z"/><path class="cls-8" d="M50.92 58.26a1.12 1.12 0 00-.74-.28 4 4 0 00-.81.3c-.37.17-.73.42-1.08.62l-2.56 1.48c-1.07.62-2.15 1.22-3.2 1.85a3.54 3.54 0 00-.36.26 3.74 3.74 0 00-.75.66c-.23.31-.47.88-.21 1.25a1.64 1.64 0 00.4.39c.07 0 .37.27.44.17s0-.31 0-.38A4.12 4.12 0 0142 64c0-.13 0-.11.16-.19l.41-.23v.73l.44.25a2.45 2.45 0 00.32-.18c.1-.08.07-.11.08-.25s.1-.45.28-.49.2.08.29.13l.47.27a1 1 0 001 0c.38-.21.75-.43 1.13-.65a5.62 5.62 0 00.73-.45 2.94 2.94 0 00.68-.84l.48-.84c.08-.13.18-.43.31-.51l.37.24c.12-.07.35-.15.39-.26a1 1 0 000-.3v-.91c0-.09.21-.12.29-.17l.26-.15v.55l.44.25c.17-.05.28-.49.34-.64s.42-.88.05-1.1zM43.81 63c-.3-.17.1-.63.27-.73l.66-.38a5.83 5.83 0 01-.2.83c0 .17-.16.41-.36.44s-.26-.11-.37-.16zm1.54-1.53l1.55-.89v1.82c0 .05-.25.15-.32.19l-.54.31-.68.39zm3.08-1.64l-.38.65a2.73 2.73 0 01-.43.69 2.22 2.22 0 01-.12-.38.79.79 0 01.37-.71c.2-.13.41-.24.61-.35z"/><path class="cls-4" d="M47.16 61.57a1.32 1.32 0 01-.45.31 8.67 8.67 0 01-1.07.62c-.13 0-.2 0-.3-.09l-.14-.07v-.11c0-.18 0-.33-.09-.39a.2.2 0 00-.1 0 .75.75 0 01.07-.24 1 1 0 01.4-.3l.66-.38a4.32 4.32 0 01.47-.27.21.21 0 01.23 0l.15.09s.12.05.14.11c.22-.05.1.61.03.72z"/><path class="cls-10" d="M46.91 62.35c0-.07-.07-.05-.1 0s.18-.35 0-.22c0 0 .18-.35 0-.22 0 0 .18-.35 0-.22 0-.07 0-.09-.09-.05s0-.09-.09-.05 0-.09-.09-.05c0-.17-.33.09-.38.11a.8.8 0 00-.15.09c-.06.06-.1.25 0 .15 0 .06-.1.22-.15.24s0-.09-.09-.05 0-.09-.09-.05c0-.17-.33.09-.38.11a.8.8 0 00-.15.09c-.06.06-.1.25 0 .15s-.18.35 0 .22c0 0-.18.35 0 .22 0 0-.18.35 0 .22 0 0-.18.35 0 .22 0 .07 0 .09.09.05s0 .09.09.05 0 .09.09.05c0 .17.33-.09.38-.11a.8.8 0 00.15-.09c.06-.06.1-.25 0-.15 0-.06.1-.22.15-.24s0 .09.09.05 0 .09.09.05c0 .17.33-.09.38-.11a.8.8 0 00.15-.09c.06-.06.1-.25 0-.15.02-.11.1-.14.1-.22zm-.89 0h-.05s0-.06.06-.08a.05.05 0 00-.03.08zm0 .2h.05s0 .06-.06.08a.05.05 0 00-.01-.09zm.05-.46s0 .06-.06.08-.01-.06-.01-.09zm-.06.72s0-.06.06-.08-.07.05-.07.08z"/><path class="cls-11" d="M46 62.31l-.47.27h-.07a.16.16 0 01.07-.13l.47-.27h.07a.16.16 0 01-.07.13zm.07.09s0-.07-.07 0l-.47.27a.16.16 0 00-.07.13s0 .07.07 0l.47-.27a.16.16 0 00.07-.13zm0 .22s0-.07-.07 0l-.47.27a.16.16 0 00-.07.13s0 .07.07 0l.47-.27a.16.16 0 00.07-.13zm0 .22s0-.07-.07 0l-.47.27a.16.16 0 00-.07.13s0 .07.07 0L46 63a.16.16 0 00.07-.17zm0 .22L46 63l-.47.27a.16.16 0 00-.07.13s0 .07.07 0l.47-.27a.16.16 0 00.07-.13zm.84-1.35s0-.07-.07 0l-.47.27a.16.16 0 00-.07.13s0 .07.07 0l.47-.27a.16.16 0 00.07-.14zm0 .22s0-.07-.07 0l-.47.27a.16.16 0 00-.07.13s0 .07.07 0l.47-.27a.16.16 0 00.07-.14zm0 .22s0-.07-.07 0l-.47.27a.16.16 0 00-.07.13s0 .07.07 0l.47-.27a.16.16 0 00.07-.15zm0 .22s0-.07-.07 0l-.47.27a.16.16 0 00-.07.13s0 .07.07 0l.47-.27a.16.16 0 00.07-.15zm0 .22s0-.07-.07 0l-.47.27a.16.16 0 00-.07.13s0 .07.07 0l.47-.27a.16.16 0 00.07-.16z"/><path class="cls-7" d="M47 61.69l-1.39.8c-.11.07-.21 0-.21-.12V62a.46.46 0 01.21-.36l1.39-.8c.11-.07.21 0 .21.12v.36a.46.46 0 01-.21.37z"/><path class="cls-5" d="M43.05 64.14a1.52 1.52 0 01-.47.74.44.44 0 01-.53 0l-.13-.08-.31-.17a1.36 1.36 0 01.39-1.42l.22.13c.12.07.28.13.41.21a.81.81 0 01.18.14.28.28 0 01.21.17.5.5 0 01.03.28z"/><path class="cls-6" d="M43.05 64a1.11 1.11 0 01-.5.87c-.28.16-.5 0-.5-.29a1.11 1.11 0 01.5-.87c.28-.13.5 0 .5.29z"/><path class="cls-10" d="M42.45 64l-.21.54a.14.14 0 00.2.17l.42-.24a.14.14 0 000-.2l-.21-.3a.14.14 0 00-.2.03z"/><path class="cls-11" d="M42.68 64a.15.15 0 01-.07.12h-.07a.15.15 0 01.07-.12s.07-.05.07 0zm-.22.55a.15.15 0 01-.07.12h-.07a.15.15 0 01.07-.12s.07-.04.07 0zm.43-.25a.15.15 0 01-.07.12h-.07a.15.15 0 01.07-.12s.07-.04.07 0z"/><path class="cls-9" d="M50.62 59.78a1.5 1.5 0 01-.47.74.44.44 0 01-.53 0l-.13-.08-.57-.33c.15-.28 0-.53-.17-.45a1.16 1.16 0 01.35-.63l.26-.15c.17 0 .31.06.49.16s.28.13.41.21a.81.81 0 01.18.14.27.27 0 01.21.17.47.47 0 01-.03.22z"/><path class="cls-6" d="M50.62 59.66a1.11 1.11 0 01-.5.87c-.28.16-.5 0-.5-.29a1.11 1.11 0 01.5-.87c.28-.16.5-.03.5.29z"/><path class="cls-10" d="M50 59.6l-.21.54a.14.14 0 00.2.17l.42-.24a.14.14 0 000-.2l-.21-.3a.14.14 0 00-.2.03z"/><path class="cls-11" d="M50.25 59.62a.15.15 0 01-.07.12h-.07a.15.15 0 01.07-.12s.07-.04.07 0zm-.25.56a.15.15 0 01-.07.12h-.07a.15.15 0 01.07-.12s.07-.04.07 0zm.46-.25a.15.15 0 01-.07.12h-.07a.15.15 0 01.07-.12s.07-.04.07 0z"/><path class="cls-6" d="M50.53 58.25l-.74.28-.47.27-.26.15-2.73 1.57-3.46 2-.74.58-.12.1a1.36 1.36 0 00-.41 1.38.38.38 0 00.06.09L42 65h.08v-1l.61-.35.39-.23v1.24l.39-.23v-.22a.63.63 0 01.28-.48l.9.52a.88.88 0 00.87-.09l.81-.47.81-.47a2.51 2.51 0 00.87-.91l.9-1.55c.15-.09.28 0 .28.16V61l.39-.23v-1.24l.61-.35.39-.23V60h.08l.3-.67c.34-.71.09-1.27-.43-1.08zM45 63c-.07.28-.33.51-.49.41l-.7-.41c-.18-.11-.06-.55.21-.7l.79-.46a.4.4 0 01.16-.05.2.2 0 01.1 0c.1.06.13.21.09.39v.11zm2.35-.33l-2 1.14v-2.36l1.45-.83.54-.31zM48.88 60l-.68 1.17c-.15.27-.42.35-.49.15l-.19-.55a.64.64 0 01.09-.49.77.77 0 01.27-.28l.79-.46h.06c.2-.03.27.21.15.46z"/><path class="cls-4" d="M17.84 75.13l33.15-19.14v-3.41L17.54 70.9l.3 4.23z"/><path fill="#1f4399" d="M18.09 78.75L4.97 71.17.96 63.58l15.93 9.2 1.2 5.97z"/><path class="cls-8" d="M17.43 78.94L4.55 71.5v-1.43l12.88 7.44v1.43z"/><path class="cls-8" d="M17.43 77.5l-5.21 1.56-1.08-.63 3.09-.93-8.75-5.05-.1 2.66-1-.58.17-4.46 12.88 7.43z"/><path fill="#295acf" d="M1.6 49.37l-1.04.6 15.94 9.19 1.04-.6L1.6 49.37z"/><path class="cls-2" d="M17.54 58.56L1.6 49.37v-9.22l15.94 9.2v9.21z"/><path class="cls-14" d="M9.57 45.29v8.14L2.06 49.1v-8.14l7.51 4.33z"/><path class="cls-15" d="M9.11 45.56v7.07l-.24-.14-2.63-1.52-1.19-.67-2.42-1.4-.1-.07v-7.07l3.21 1.85 2.56 1.48.81.47z"/><path class="cls-14" d="M17.07 49.62v8.14l-7.5-4.33v-8.14l7.5 4.33z"/><path class="cls-15" d="M16.61 49.89v7.07L13 54.88l-1.62-.94-1.35-.78v-7.07l1.93 1.11 2.79 1.61 1.6.93.26.15z"/><path class="cls-16" d="M10.11 72.52l-2.9-1.67a.91.91 0 01-.41-.71l-.61-3c0-.26.18-.37.41-.24l2.9 1.67a.91.91 0 01.41.71l.61 3c0 .26-.19.37-.41.24z"/><path d="M9.87 72l-2.42-1.37a.76.76 0 01-.34-.63l-.62-2.4c0-.22.15-.31.34-.2l2.42 1.4a.76.76 0 01.34.59l.61 2.44c.01.17-.15.3-.33.17z" fill="#2c2f36"/><path class="cls-16" d="M7.3 71.79l-1.12-.64a.35.35 0 01-.18-.28v-1.29c0-.1.07-.14.16-.09l1.12.64a.35.35 0 01.16.27v1.3c.02.1-.05.14-.14.09z"/><path class="cls-2" d="M16.5 59.16v13.85L.56 63.81V49.96l15.94 9.2z"/><path d="M5.98 56.53v2.28L.56 55.68v-2.27l5.42 3.12zM16.5 62.6v2.28l-5.88-3.4v-2.27l5.88 3.39zM5.98 60.23v2.28L.56 59.38v-2.27l5.42 3.12zM16.5 66.3v2.28l-5.88-3.39v-2.28l5.88 3.39z" fill="#c5cfc7"/><path d="M8.3 45.09c-1.11 1.72-2.19 3.47-3.25 5.2L2.63 48.9c.39-.71.81-1.43 1.22-2.14.61-1.07 1.24-2.12 1.89-3.15zm8.05 4.65c-1.2 1.69-2.35 3.42-3.35 5.14l-1.62-.93c1.05-1.68 2.17-3.41 3.37-5.13zM6.24 51c.93-1.48 1.89-3 2.87-4.49v5.57c-.08.14-.16.29-.24.44zM12 47.2c-.67 1-1.3 2.08-1.92 3.17v-4.28z" style="mix-blend-mode:soft-light" fill="#c9fffb" opacity=".3"/><path class="cls-20" d="M51.82 29l-.46.27-34.75 20.08-15.93-9.2 35.2-20.32q7.97-1.31 15.94 9.17z"/><path class="cls-21" d="M51.82 29.03v.54L16.61 49.89v-.54l35.21-20.32z"/><path class="cls-21" d="M43 34.34a.23.23 0 01-.18-.09c-5.23-6.9-10.52-10-15.71-9.11a.23.23 0 01-.27-.19.23.23 0 01.19-.27c5.38-.88 10.82 2.24 16.17 9.32a.23.23 0 01-.18.37zm-8.79 5.08a.23.23 0 01-.18-.09c-5.23-6.9-10.52-10-15.71-9.11a.23.23 0 01-.07-.46C23.62 28.88 29 32 34.39 39a.23.23 0 01-.18.37zm-8.8 5.08a.23.23 0 01-.18-.09c-5.23-6.9-10.52-10-15.71-9.11a.23.23 0 01-.27-.19.23.23 0 01.19-.27c5.37-.88 10.81 2.24 16.16 9.29a.23.23 0 01-.18.37z"/><path class="cls-16" d="M16.61 49.89L.67 40.69v-.54q8-1.31 15.93 9.2z"/><path class="cls-7" d="M17.54 49.35v9.21l-1.04.6V73l.39-.22 1.2 5.97 1.01-.59-1.19-5.97L51.33 52.9V29.85l-33.79 19.5z"/><path class="cls-20" d="M15.65 73l-4-2.82c-.32-.19-.18-2.44-.07-2.71 0 0 .39-.25.46-.27a.34.34 0 01.27 0l3.57 2.09a1.31 1.31 0 01.5.93l-.15 2.23c0 .19-.48.62-.58.55z"/><path class="cls-16" d="M15.35 72.91l-3.55-2.15a1 1 0 01-.43-1l.12-2.2c.06-.17.22-.21.41-.1l3.57 2.09a1.31 1.31 0 01.5.93l-.15 2.23c-.04.29-.24.37-.47.2z"/><path class="cls-22" d="M11.89 70.43a.55.55 0 01-.2-.27.26.26 0 010-.15l.13-2.21 3.6 2.11a.82.82 0 01.26.5l-.15 2.2z"/><path class="cls-23" d="M13.83 70.45c0 .58-.53.74-1.09.36a2.2 2.2 0 01-.95-1.73c0-.58.53-.74 1.09-.36a2.2 2.2 0 01.95 1.73z"/><path class="cls-24" d="M13.38 70.14c0 .32-.29.41-.61.2a1.22 1.22 0 01-.53-1c0-.32.29-.41.61-.2a1.23 1.23 0 01.53 1z"/><path class="cls-23" d="M15.49 71c0 .44-.41.57-.84.27a1.69 1.69 0 01-.73-1.27c0-.44.41-.57.84-.27a1.69 1.69 0 01.73 1.27z"/><path class="cls-24" d="M15.15 70.79c0 .25-.23.31-.47.15a.94.94 0 01-.41-.74c0-.25.23-.32.47-.15a.94.94 0 01.41.74z"/><path class="cls-20" d="M4.31 66.45l-4-2.82C0 63.44.16 61.19.26 60.92c0 0 .39-.25.46-.27a.34.34 0 01.27 0l3.57 2.09a1.31 1.31 0 01.5.93l-.15 2.23c-.02.19-.49.63-.6.55z"/><path class="cls-16" d="M4 66.37L.46 64.22a1 1 0 01-.43-1l.12-2.2c.06-.17.22-.21.41-.1L4.14 63a1.31 1.31 0 01.5.93l-.15 2.23c-.04.3-.24.38-.49.21z"/><path class="cls-22" d="M.56 63.89a.55.55 0 01-.2-.27.26.26 0 010-.15l.13-2.21L4 63.37a.82.82 0 01.26.5l-.15 2.2z"/><path class="cls-23" d="M4.09 64.82c0 .58-.53.74-1.09.36a2.2 2.2 0 01-1-1.73c0-.58.53-.74 1.09-.36a2.2 2.2 0 011 1.73z"/><path class="cls-24" d="M3.63 64.52c0 .32-.29.41-.61.2a1.23 1.23 0 01-.53-1c0-.32.29-.41.61-.2a1.22 1.22 0 01.53 1z"/><path class="cls-23" d="M2 63.24c0 .44-.41.57-.84.27a1.69 1.69 0 01-.73-1.33c0-.44.41-.57.84-.27A1.69 1.69 0 012 63.24z"/><path class="cls-24" d="M1.66 63c0 .25-.23.31-.47.15a.94.94 0 01-.41-.74c0-.25.23-.31.47-.15a.94.94 0 01.41.74z"/><path d="M8.76 69.66a.48.48 0 00-.16-.27l-1.12-.64a.1.1 0 00-.12 0l-1.29.75 1.34 2.3 1.73-1a.11.11 0 000-.1z" fill="#3c404a"/><path class="cls-16" d="M7.52 72.25L6 71.35a.49.49 0 01-.26-.35v-1.84c0-.14.1-.2.22-.13l1.56.9a.49.49 0 01.22.38v1.81c.01.14-.09.2-.22.13z"/><path class="cls-16" d="M7.11 72.49l-1.56-.9a.49.49 0 01-.22-.38V69.4c0-.14.1-.2.22-.13l1.56.9a.49.49 0 01.22.38v1.81c0 .15-.1.2-.22.13z"/><path class="cls-16" d="M7.52 69.93L6 69a.13.13 0 00-.17 0l-.43.25.38.64v1a.49.49 0 00.22.38l1 .55.37.62.33-.26a.12.12 0 00.14-.14v-1.72a.49.49 0 00-.32-.39z"/><path d="M7.11 72.49l-1.56-.9a.49.49 0 01-.22-.38V69.4c0-.14.1-.2.22-.13l1.56.9a.49.49 0 01.22.38v1.81c0 .15-.1.2-.22.13z" fill="#555d69"/><path d="M8.21 55.12a1.85 1.85 0 00-2.51 1.45 3.38 3.38 0 001.88 3c1.08.41 2.21-.75 2.3-1.78a2.67 2.67 0 00-1.67-2.67z" fill="#1b1e21"/><path class="cls-21" d="M8.89 58.41c0 1-.69 1.39-1.55.89a3.42 3.42 0 01-1.55-2.68c0-1 .69-1.39 1.55-.89a3.42 3.42 0 011.55 2.68z"/><path class="cls-22" d="M8.63 58.39c0 .89-.62 1.25-1.39.81a3.08 3.08 0 01-1.39-2.42c0-.89.62-1.25 1.39-.81a3.08 3.08 0 011.39 2.42z"/><path class="cls-23" d="M8.18 57.56c.26.7 0 1.29-.48 1.31a1.76 1.76 0 01-1.42-1.24c-.26-.7 0-1.29.48-1.31a1.76 1.76 0 011.42 1.24z"/><path class="cls-24" d="M7.76 57.57c.14.39 0 .72-.27.73a1 1 0 01-.79-.69c-.14-.39 0-.72.27-.73a1 1 0 01.79.69z"/><path class="cls-14" d="M19.96 49.02v5.77l5.32-3.07v-5.77l-5.32 3.07z"/><path class="cls-28" d="M20.29 49.21v5.01l2.56-1.47 1.15-.67.95-.55v-5.01l-1.36.78-1.98 1.15-1.14.65-.18.11z"/><path class="cls-14" d="M35.94 39.79v5.78l5.32-3.07v-5.78l-5.32 3.07z"/><path class="cls-28" d="M36.26 39.98V45l2.56-1.48 1.15-.66.96-.55v-5.02l-1.36.79-1.99 1.14-1.13.66-.19.1z"/><path class="cls-14" d="M43.92 35.18v5.78l5.33-3.07v-5.78l-5.33 3.07z"/><path class="cls-28" d="M44.25 35.37v5.02l2.56-1.48 1.15-.66.96-.55v-5.02l-1.37.79-1.98 1.14-1.13.66-.19.1z"/><path class="cls-4" d="M35.32 57.63a.24.24 0 01-.12 0 .29.29 0 01-.13-.27V39.88a.69.69 0 01.31-.54l6.32-3.65a.3.3 0 01.3 0 .29.29 0 01.13.27v17.42a.68.68 0 01-.31.54l-6.33 3.65a.35.35 0 01-.17.06zm6.55-21.76h-.06l-6.32 3.65a.45.45 0 00-.2.34V57.4c0 .01 0 0 .06 0l6.33-3.65a.45.45 0 00.2-.34V35.87z"/><path class="cls-8" d="M39.14 59.93v2.91a2.47 2.47 0 01-.58 2h-.09L31.23 69l-.54.31a2.63 2.63 0 00.54-1.93V64.5z"/><path class="cls-5" d="M17.43 77.5l-5.21 1.56 5.21-.12V77.5zM5.38 75.11l.36-1.7-.26-.96-.1 2.66z"/><path fill="#47433e" d="M5.48 72.45l8.75 5.05-.92.28-7.57-4.37-.26-.96z"/><path class="cls-8" d="M8.53 74.22l-.98 2.14 1.21.7 1.86-1.64-2.09-1.2z"/><path class="cls-5" d="M10.62 75.42v.81l-1.86.83 1.86-1.64z"/><path class="cls-30" d="M56.56 28.2v20.63l-1.25.72V28.93l.86-.51.39-.22z"/><path class="cls-31" d="M56.17 28.42V48.6l-.86.5V28.93l.86-.51z"/><path class="cls-30" d="M58.89 26.86v20.62l-1.26.73V27.58l.87-.5.39-.22z"/><path class="cls-31" d="M58.5 27.08v20.18l-.87.5V27.58l.87-.5z"/><path class="cls-30" d="M61.21 25.52v20.62l-1.26.73V26.24l.87-.5.39-.22z"/><path class="cls-31" d="M60.82 25.74v20.18l-.87.5V26.24l.87-.5z"/><path class="cls-30" d="M63.53 24.18V44.8l-1.26.73V24.9l.87-.5.39-.22z"/><path class="cls-31" d="M63.14 24.4v20.18l-.87.5V24.9l.87-.5z"/><path class="cls-30" d="M65.86 22.84v20.62l-1.26.73V23.56l.87-.5.39-.22z"/><path class="cls-31" d="M65.47 23.06v20.18l-.87.5V23.56l.87-.5z"/><path class="cls-30" d="M68.18 21.49v20.63l-1.26.72V22.22l.87-.5.39-.23z"/><path class="cls-31" d="M67.79 21.72V41.9l-.87.5V22.22l.87-.5z"/><path class="cls-30" d="M70.5 20.15v20.63l-1.26.72V20.88l.87-.5.39-.23z"/><path class="cls-31" d="M70.11 20.38v20.17l-.87.5V20.88l.87-.5z"/><path class="cls-30" d="M72.82 18.81v20.63l-1.25.72V19.54l.87-.5.38-.23z"/><path class="cls-31" d="M72.44 19.04v20.17l-.87.5V19.54l.87-.5z"/><path class="cls-30" d="M75.15 17.47V38.1l-1.26.72V18.2l.87-.5.39-.23z"/><path class="cls-31" d="M74.76 17.7v20.17l-.87.5V18.2l.87-.5z"/><path class="cls-30" d="M77.47 16.13v20.63l-1.26.72V16.85l.87-.5.39-.22z"/><path class="cls-31" d="M77.08 16.35v20.18l-.87.5V16.85l.87-.5z"/><path class="cls-30" d="M79.79 14.79v20.62l-1.25.73V15.51l.86-.5.39-.22z"/><path class="cls-31" d="M79.4 15.01v20.18l-.86.5V15.51l.86-.5z"/><path class="cls-30" d="M82.12 13.45v20.62l-1.26.73V14.17l.87-.5.39-.22z"/><path class="cls-31" d="M81.73 13.67v20.18l-.87.5V14.17l.87-.5z"/><path class="cls-30" d="M84.44 12.11v20.62l-1.26.73V12.83l.87-.5.39-.22z"/><path class="cls-31" d="M84.05 12.33v20.18l-.87.5V12.83l.87-.5z"/><path class="cls-30" d="M86.76 10.76v20.63l-1.26.73V11.49l.87-.5.39-.23z"/><path class="cls-31" d="M86.37 10.99v20.17l-.87.51V11.49l.87-.5z"/></g></g></g></svg>