<svg xmlns="http://www.w3.org/2000/svg" viewBox="0 0 45.58 24.22"><g data-name="Слой 2"><g data-name="1"><path d="M14.46 24.22a3.74 3.74 0 113.74-3.74 3.74 3.74 0 01-3.74 3.74zm0-6.31A2.58 2.58 0 1017 20.48a2.58 2.58 0 00-2.54-2.57zm23.27 6.31a3.74 3.74 0 113.74-3.74 3.74 3.74 0 01-3.74 3.74zm0-6.31a2.58 2.58 0 102.58 2.58 2.58 2.58 0 00-2.58-2.58z"/><path d="M45 21.06h-4.12a.58.58 0 110-1.16h3.54v-9l-2.3-6.79h-9V19.9h1.48a.58.58 0 010 1.16h-2.09a.58.58 0 01-.58-.58v-17a.58.58 0 01.58-.48h10a.58.58 0 01.55.39l2.47 7.27a.58.58 0 010 .19v9.68a.58.58 0 01-.53.53z"/><path d="M32.51 21.06H17.62a.58.58 0 110-1.16h14.89a.58.58 0 110 1.16z"/><path d="M11.31 21.06H6.23a.58.58 0 01-.58-.58V.58A.58.58 0 016.23 0h23.53a.58.58 0 01.58.58v16.35h2.17a.58.58 0 110 1.16h-2.75a.58.58 0 01-.58-.58V1.16H6.81V19.9h4.5a.58.58 0 110 1.16zM45 11.39h-8.51a.58.58 0 01-.58-.58V3.53a.58.58 0 111.16 0v6.69H45a.58.58 0 010 1.16zm0 6.52h-.86a2.26 2.26 0 010-4.52H45a.58.58 0 01.58.58v3.36a.58.58 0 01-.58.58zm-.86-3.36a1.1 1.1 0 100 2.2h.28v-2.2z"/><path d="M29.76 18.1H15.53a.58.58 0 110-1.16h14.23a.58.58 0 110 1.16zm-16.37 0H6.23a.58.58 0 110-1.16h7.16a.58.58 0 110 1.16zm-5.04 6.12H6.61a.58.58 0 010-1.16h1.74a.58.58 0 010 1.16zm-6.03 0H.58a.58.58 0 010-1.16h1.74a.58.58 0 010 1.16z"/><path d="M45 24.22H8.35a.58.58 0 010-1.16H45a.58.58 0 010 1.16zM38.93 9.09a.58.58 0 01-.41-1l2.68-2.67a.58.58 0 01.82.82l-2.68 2.68a.58.58 0 01-.41.17z"/></g></g></svg>