<svg xmlns="http://www.w3.org/2000/svg" viewBox="0 0 42.96 45.87"><g data-name="Слой 2"><g data-name="1"><path d="M39.38 45.87H3.55a.58.58 0 01-.55-.58V10.74a.58.58 0 111.16 0v34H38.8v-34a.58.58 0 111.16 0v34.55a.58.58 0 01-.58.58z"/><path d="M35.35 45.87H7.58a.58.58 0 01-.58-.58V16.73a.58.58 0 01.58-.58h27.77a.58.58 0 01.58.58v28.56a.58.58 0 01-.58.58zM8.16 44.71h26.61v-27.4H8.16zm34.22-31.77a.58.58 0 01-.28-.07L21.48 1.24.87 12.86a.58.58 0 01-.57-1L21.18.07a.64.64 0 01.6 0l20.88 11.78a.58.58 0 01-.29 1.09z"/><path d="M3.55 15.08A.58.58 0 013.27 14L21.18 3.89a.64.64 0 01.6 0L39.66 14a.58.58 0 01-.57 1L21.48 5.06 3.84 15a.58.58 0 01-.29.08zm31.8 6.61H7.58a.58.58 0 01-.58-.58v-4.38a.58.58 0 01.58-.58h27.77a.58.58 0 01.58.58v4.38a.58.58 0 01-.58.58zM8.16 20.53h26.61v-3.22H8.16z"/><path d="M35.35 26.07H7.58a.58.58 0 01-.58-.58v-4.38a.58.58 0 01.58-.58h27.77a.58.58 0 01.58.58v4.38a.58.58 0 01-.58.58zM8.16 24.9h26.61v-3.21H8.16zM20.5 45.87H11a.58.58 0 01-.58-.58V36.7a.58.58 0 01.58-.58h9.5a.58.58 0 01.58.58v8.59a.58.58 0 01-.58.58zm-8.91-1.16h8.33v-7.42h-8.33z"/><path d="M16.95 39.67h-2.39a.58.58 0 01-.58-.58V36.7a.58.58 0 01.58-.58h2.39a.58.58 0 01.58.58v2.39a.58.58 0 01-.58.58zm-1.81-1.16h1.22v-1.22h-1.22zM32 45.87h-9.5a.58.58 0 01-.58-.58V36.7a.58.58 0 01.58-.58H32a.58.58 0 01.58.58v8.59a.58.58 0 01-.58.58zm-8.9-1.16h8.33v-7.42H23.1z"/><path d="M28.46 39.67h-2.39a.58.58 0 01-.58-.58V36.7a.58.58 0 01.58-.58h2.39a.58.58 0 01.58.58v2.39a.58.58 0 01-.58.58zm-1.81-1.16h1.22v-1.22h-1.22z"/><path d="M26.21 37.29h-9.5a.58.58 0 01-.58-.58v-8.59a.58.58 0 01.58-.58h9.5a.58.58 0 01.58.58v8.58a.58.58 0 01-.58.59zm-8.91-1.17h8.33V28.7H17.3z"/><path d="M22.66 31.09h-2.39a.58.58 0 01-.58-.58v-2.39a.58.58 0 01.58-.58h2.39a.58.58 0 01.58.58v2.38a.58.58 0 01-.58.59zm-1.81-1.16h1.23V28.7h-1.23z"/></g></g></svg>