<svg xmlns="http://www.w3.org/2000/svg" viewBox="0 0 42.96 42.96"><g data-name="Слой 2"><g data-name="1"><path d="M17.89 43h-.08a.58.58 0 01-.43-.29l-3.76-6.55a18.35 18.35 0 00-6.78-6.78l-6.55-3.8a.58.58 0 01-.12-.91l3.48-3.48a.58.58 0 01.61-.14l9.17 3.32C23.82 7.21 32.07 1.75 37.17.2a4.42 4.42 0 014.48 1.11 4.42 4.42 0 011.11 4.49c-1.55 5.1-7 13.34-24.17 23.74l3.32 9.17a.58.58 0 01-.14.61l-3.47 3.47a.58.58 0 01-.41.21zM1.53 25l5.89 3.38a19.51 19.51 0 017.21 7.21L18 41.44l2.68-2.68-3.35-9.28a.58.58 0 01.25-.7C34.75 18.47 40.15 10.41 41.65 5.46a3.32 3.32 0 00-4.15-4.15c-4.95 1.5-13 6.9-23.32 24.06a.58.58 0 01-.7.25l-9.27-3.35z"/><path d="M20.73 15.2a.58.58 0 01-.28-.07L3.94 5.94a.58.58 0 010-1l7-4.35a.58.58 0 01.47-.06l17.1 5.17a.58.58 0 01-.34 1.11l-16.85-5.1-6 3.69L21 14.11a.58.58 0 01-.28 1.09zm12.64-6.54a.58.58 0 01-.37-.17l-1.91-1.87a.58.58 0 010-.85 23.91 23.91 0 013.5-2.23.58.58 0 01.68.1l1.28 1.26a.58.58 0 010 .82l-2.77 2.77a.58.58 0 01-.41.17zm-1-2.4l1 1 1.94-1.94-.54-.54a26.17 26.17 0 00-2.39 1.48zM36.76 12a.58.58 0 01-.41-.17L34.48 10a.58.58 0 010-.82l2.77-2.77a.58.58 0 01.82 0l1.25 1.25a.58.58 0 01.1.68 23.9 23.9 0 01-2.23 3.5.58.58 0 01-.42.2zm-1-2.45l1 1a26.23 26.23 0 001.48-2.41l-.54-.54z"/><path d="M17.39 5.69a.58.58 0 01-.41-1L21.4.28a.58.58 0 11.82.82L17.8 5.52a.58.58 0 01-.41.17zm4.52 1.66a.58.58 0 01-.41-1l4.42-4.42a.58.58 0 01.82.82l-4.42 4.43a.58.58 0 01-.41.17zm15.63 31.98A.59.59 0 0137 39l-9.16-16.48a.58.58 0 111-.57l8.72 15.65 3.69-6-5.1-16.85a.58.58 0 111.11-.34l5.18 17.11a.58.58 0 01-.06.47l-4.35 7a.58.58 0 01-.49.34z"/><path d="M37.86 26.15a.58.58 0 01-.41-1l4.42-4.42a.58.58 0 11.82.82L38.27 26a.58.58 0 01-.41.15zm-1.66-4.52a.58.58 0 01-.41-1l4.42-4.42A.58.58 0 1141 17l-4.42 4.42a.58.58 0 01-.38.21zM18 25.54a.58.58 0 01-.41-1l13.5-13.5a.58.58 0 11.82.82l-13.5 13.5a.58.58 0 01-.41.18z"/></g></g></svg>