<svg xmlns="http://www.w3.org/2000/svg" viewBox="0 0 42.95 33.4"><g data-name="Слой 2"><g data-name="1"><path d="M14.25 29.68H4.11a.58.58 0 010-1.16h10.14a.58.58 0 110 1.16zm-6.11-7.97a.58.58 0 01-.41-.17l-1.41-1.41-1.38 1.38a.58.58 0 01-.82-.82L5.9 18.9a.58.58 0 01.82 0l1.82 1.82a.58.58 0 01-.41 1z"/><path d="M6.32 27a.58.58 0 01-.58-.58v-7.11a.58.58 0 011.16 0v7.16a.58.58 0 01-.58.53zm7.52-5.29a.58.58 0 01-.41-.17L12 20.13l-1.38 1.38a.58.58 0 01-.82-.82l1.79-1.79a.58.58 0 01.82 0l1.82 1.82a.58.58 0 01-.41 1z"/><path d="M12 27a.58.58 0 01-.58-.58v-7.11a.58.58 0 011.16 0v7.16A.58.58 0 0112 27zm14-10.84a6.48 6.48 0 114.59-1.9 6.47 6.47 0 01-4.59 1.9zm0-11.8a5.32 5.32 0 103.76 1.56A5.31 5.31 0 0026 4.35z"/><path d="M40.62 26.66A2.32 2.32 0 0139 26l-8-8a9.68 9.68 0 113.29-3.29l8 8a2.33 2.33 0 01-1.65 4zM31 16.64a.58.58 0 01.41.17l8.34 8.34a1.19 1.19 0 001.65 0 1.17 1.17 0 000-1.65l-8.3-8.34a.58.58 0 01-.07-.74 8.52 8.52 0 10-2.31 2.31.58.58 0 01.28-.09z"/><path d="M29.62 33.4H.58a.58.58 0 01-.58-.58V3.27a.58.58 0 01.58-.58h18.93a.58.58 0 01.41 1 8.51 8.51 0 009.46 13.8.58.58 0 01.81.53v14.8a.58.58 0 01-.57.58zM1.16 32.23H29V18.85a9.68 9.68 0 01-10.8-15H1.16z"/><path d="M5.85 8.29H4.11a.58.58 0 010-1.16h1.74a.58.58 0 010 1.16zm3.72 0H7.71a.58.58 0 010-1.16h1.86a.58.58 0 010 1.16zm3.6 0h-1.74a.58.58 0 110-1.16h1.74a.58.58 0 010 1.16z"/></g></g></svg>