<svg xmlns="http://www.w3.org/2000/svg" viewBox="0 0 26.36 45.38"><g data-name="Слой 2"><g data-name="1"><path d="M22.38 34.07H4a4 4 0 01-4-4V7.35a5.05 5.05 0 012-4L6.25.12A.58.58 0 016.6 0h13.17a.58.58 0 01.35.12l4.26 3.23a5.05 5.05 0 012 4v22.74a4 4 0 01-4 3.98zM6.79 1.16l-4.1 3.12a3.88 3.88 0 00-1.53 3.07v22.74A2.83 2.83 0 004 32.91h18.38a2.83 2.83 0 002.82-2.82V7.35a3.88 3.88 0 00-1.53-3.08l-4.1-3.11z"/><path d="M23.06 17h-8.62a.58.58 0 01-.58-.58V8.17a.58.58 0 01.58-.58h8.62a.58.58 0 01.58.58v8.28a.58.58 0 01-.58.55zm-8-1.16h7.46V8.75H15zM11.92 17H3.3a.58.58 0 01-.58-.58V8.17a.58.58 0 01.58-.58h8.62a.58.58 0 01.58.58v8.28a.58.58 0 01-.58.55zm-8-1.16h7.46V8.75h-7.5zM25.23 5.73H1.17a.58.58 0 110-1.16h24.06a.58.58 0 110 1.16zm.55 14.08H.58a.58.58 0 010-1.16h25.2a.58.58 0 010 1.16zm0 2.6H.58a.58.58 0 010-1.16h25.2a.58.58 0 010 1.16zM6.53 31.08a2.59 2.59 0 112.59-2.59 2.6 2.6 0 01-2.59 2.59zm0-4A1.43 1.43 0 108 28.49a1.43 1.43 0 00-1.47-1.43zm13.31 4a2.59 2.59 0 112.59-2.59 2.6 2.6 0 01-2.59 2.59zm0-4a1.43 1.43 0 101.43 1.43 1.43 1.43 0 00-1.43-1.45zm2.01 10.6H4.51a.58.58 0 01-.58-.58v-3.61a.58.58 0 01.58-.58h17.34a.58.58 0 01.58.58v3.61a.58.58 0 01-.58.58zM5.09 36.52h16.18v-2.45H5.09z"/><path d="M2.39 45.38h-.15a.58.58 0 01-.41-.71L4 36.94a.58.58 0 111.12.31L2.95 45a.58.58 0 01-.56.38zm21.61 0a.58.58 0 01-.56-.43l-2.13-7.71a.58.58 0 011.12-.31l2.13 7.71a.58.58 0 01-.41.71z"/></g></g></svg>