<svg xmlns="http://www.w3.org/2000/svg" viewBox="0 0 42.64 42.64"><g data-name="Слой 2"><g data-name="1"><path d="M42.06 42.64H.58a.58.58 0 01-.58-.58V.58A.58.58 0 01.58 0h41.48a.58.58 0 01.58.58v41.48a.58.58 0 01-.58.58zm-40.9-1.17h40.31V1.16H1.16z"/><path d="M8.4 34.82H.58a.58.58 0 01-.58-.58V8.4a.58.58 0 01.58-.58H8.4a.58.58 0 01.6.58v25.84a.58.58 0 01-.6.58zm-7.24-1.16h6.66V9H1.16z"/><path d="M34.24 17.59H8.4a.58.58 0 01-.58-.59V8.4a.58.58 0 01.58-.58h25.84a.58.58 0 01.58.58V17a.58.58 0 01-.58.59zM9 16.43h24.66V9H9z"/><path d="M34.24 26.21H8.4a.58.58 0 01-.58-.58V17a.58.58 0 01.58-.58h25.84a.58.58 0 01.58.58v8.61a.58.58 0 01-.58.6zM9 25h24.66v-7.41H9z"/><path d="M34.24 34.82H8.4a.58.58 0 01-.58-.58v-8.61A.58.58 0 018.4 25h25.84a.58.58 0 01.58.58v8.61a.58.58 0 01-.58.63zM9 33.66h24.66v-7.45H9z"/><path d="M42.06 34.82h-7.82a.58.58 0 01-.58-.58V8.4a.58.58 0 01.58-.58h7.82a.58.58 0 01.58.58v25.84a.58.58 0 01-.58.58zm-7.23-1.16h6.65V9h-6.66zM4.72 6.7a2.21 2.21 0 112.22-2.21A2.22 2.22 0 014.72 6.7zm0-3.27a1.05 1.05 0 101.05 1.06 1.05 1.05 0 00-1.05-1.05zM37.91 6.7a2.21 2.21 0 112.21-2.21 2.22 2.22 0 01-2.21 2.21zm0-3.27A1.05 1.05 0 1039 4.49a1.05 1.05 0 00-1.09-1.05zM4.72 40.36a2.21 2.21 0 112.21-2.21 2.22 2.22 0 01-2.21 2.21zm0-3.27a1.05 1.05 0 101.05 1.05 1.05 1.05 0 00-1.05-1.04zm33.19 3.27a2.21 2.21 0 112.21-2.21 2.22 2.22 0 01-2.21 2.21zm0-3.27A1.05 1.05 0 1039 38.15a1.05 1.05 0 00-1.09-1.05zM3.09 15.19a.58.58 0 01-.58-.58v-1.74a.58.58 0 111.16 0v1.74a.58.58 0 01-.58.58zm0 8.95a.58.58 0 01-.58-.58v-4.48a.58.58 0 111.16 0v4.47a.58.58 0 01-.58.59zm0 6.21a.58.58 0 01-.58-.58V28a.58.58 0 111.16 0v1.74a.58.58 0 01-.58.61z"/></g></g></svg>