<svg xmlns="http://www.w3.org/2000/svg" viewBox="0 0 90.4 93.48"><defs><clipPath id="clip-path"><path class="cls-1" d="M81.16 51.74a5 5 0 00-.72 2.41 1.28 1.28 0 002.13 1.23A5.45 5.45 0 0085 51.14a1.28 1.28 0 00-2.13-1.23 5 5 0 00-1.71 1.83z"/></clipPath><clipPath id="clip-path-2"><path class="cls-1" d="M69.94 58.21a5 5 0 00-.72 2.41 1.28 1.28 0 002.13 1.23 5.45 5.45 0 002.45-4.24 1.28 1.28 0 00-2.13-1.23 5 5 0 00-1.73 1.83z"/></clipPath><clipPath id="clip-path-3"><path class="cls-1" d="M88.52 13.86v24.78L22.66 76.66V51.88l44.39-25.63 21.47-12.39z"/></clipPath><clipPath id="clip-path-4"><path class="cls-1" d="M74.74 75.73a.93.93 0 00-.13.45.24.24 0 00.4.23 1 1 0 00.46-.79.24.24 0 00-.4-.23.93.93 0 00-.33.34z"/></clipPath><clipPath id="clip-path-5"><path class="cls-1" d="M68.24 72a.93.93 0 00-.13.45.24.24 0 00.4.23 1 1 0 00.46-.79.24.24 0 00-.4-.23.93.93 0 00-.33.34z"/></clipPath><clipPath id="clip-path-6"><path class="cls-1" d="M83.74 70.53a.93.93 0 00-.13.45.24.24 0 00.4.23 1 1 0 00.46-.79.24.24 0 00-.4-.23.93.93 0 00-.33.34z"/></clipPath><linearGradient id="linear-gradient" x1="19.64" y1="61.06" x2="87.76" y2="36.58" gradientUnits="userSpaceOnUse"><stop offset="0" stop-color="#a3a3a3"/><stop offset=".02" stop-color="#a4a4a4"/><stop offset=".34" stop-color="#b8b8b8"/><stop offset=".66" stop-color="#c3c3c3"/><stop offset="1" stop-color="#c7c7c7"/></linearGradient><style>.cls-1{fill:none}.cls-2{fill:#c7c7c7}.cls-3{fill:#ddd}.cls-4{fill:#afafaf}.cls-5{fill:#999}.cls-6{fill:#3e3e3e}.cls-7{fill:#6b6b6b}.cls-8{fill:#545454}.cls-9{fill:#2a2a2a}.cls-10{fill:#b3b3b3}.cls-11{fill:#828282}.cls-13{fill:#3a3a3a}.cls-17{fill:#5e96ff}.cls-18{fill:#4e8bff}.cls-19{fill:#f4f4f4}.cls-22{fill:#e3c97f}.cls-23{fill:#f3e396}.cls-24{fill:#c5a666}.cls-25{fill:#d2b372}.cls-26{fill:#a07f4c}.cls-27{fill:#bb9d5f}.cls-28{fill:#9c7a4c}.cls-29{fill:#d6b975}.cls-30{fill:#c7a65f}.cls-31{fill:#7d633b}.cls-32{fill:#a18853}.cls-33{fill:#f2c799}.cls-34{fill:#c29a77}.cls-35{fill:#94765a}.cls-36{fill:#d9b389}.cls-37{fill:#e6bd91}.cls-38{fill:#858585}.cls-39{fill:#ecb68f}.cls-40{fill:#d23530}.cls-41{fill:#3b66c2}.cls-42{fill:#477beb}.cls-43{fill:#e3af8a}.cls-44{fill:#484848}.cls-46{fill:#feb891}.cls-50{fill:#cfcfcf}.cls-51{fill:#4e4e4e}.cls-52{fill:#323232}.cls-53{fill:#9d9d9d}.cls-54{fill:#5f5f5f}.cls-56{fill:#b5b5b5}.cls-57{fill:#717171}.cls-58{fill:#e8e8e8}.cls-62{fill:#b89565}.cls-63{fill:#dbaf70}.cls-64{fill:#8f744e}.cls-65{fill:#dbb681}.cls-66{fill:#d4ac74}</style></defs><g id="Слой_2" data-name="Слой 2"><g id="Layer_2" data-name="Layer 2"><path class="cls-2" d="M33.65 79.76l.65.38V72.8l-.65-.37v7.33zm1.3 0l-.65.38V72.8l.65-.37v7.33z"/><path class="cls-2" d="M34.3 80.14v-.75l-12.35 7.12v.75l12.35-7.12z"/><path class="cls-3" d="M33.65 79.01l.65.38-12.35 7.12-.65-.37 12.35-7.13z"/><path class="cls-2" d="M34.3 76.23v-.75L21.95 82.6v.75l12.35-7.12z"/><path class="cls-3" d="M33.65 75.1l.65.38-12.35 7.12-.65-.37 12.35-7.13z"/><path class="cls-4" d="M19.65 91.64v.62l2.1 1.22v-.62l-2.1-1.22z"/><path class="cls-2" d="M24.26 91.41v.62l-2.51 1.45v-.62l2.51-1.45z"/><path class="cls-3" d="M21.75 92.86l2.51-1.45-2.1-1.21-2.51 1.44 2.1 1.22z"/><path class="cls-4" d="M21.3 91.74l.65.37V79.93l-.65-.38v12.19z"/><path class="cls-2" d="M22.61 91.74l-.66.37V79.93l.66-.38v12.19zm-8.62-23.32l.65.38v-7.34l-.65-.37v7.33z"/><path class="cls-4" d="M15.29 68.42l-.65.38v-7.34l.65-.37v7.33z"/><path class="cls-5" d="M14.64 68.8v-.75L2.3 75.17v.75l12.34-7.12z"/><path class="cls-2" d="M13.99 67.67l.65.38L2.3 75.17l-.65-.37 12.34-7.13z"/><path class="cls-5" d="M14.64 64.89v-.75L2.3 71.26v.75l12.34-7.12z"/><path class="cls-3" d="M13.99 63.76l.65.38L2.3 71.26l-.65-.37 12.34-7.13z"/><path class="cls-4" d="M0 80.3v.62l2.1 1.22v-.62L0 80.3z"/><path class="cls-2" d="M4.61 80.07v.62L2.1 82.14v-.62l2.51-1.45z"/><path class="cls-3" d="M2.1 81.52l2.51-1.45-2.11-1.21L0 80.3l2.1 1.22z"/><path class="cls-4" d="M1.65 80.4l.65.37V68.59l-.65-.38V80.4z"/><path class="cls-5" d="M2.95 80.4l-.65.37V68.59l.65-.38V80.4z"/><path class="cls-6" d="M66.07 31.14l23.42 13.52v-1.88L66.07 29.27v1.87z"/><path class="cls-7" d="M89.49 44.66l.23-.13v-1.88l-.23.13v1.88z"/><path class="cls-8" d="M89.72 42.65l-.23.13-23.42-13.51.23-.13 23.42 13.51z"/><path class="cls-9" d="M79.27 58.63a2.5 2.5 0 01-.84-.81 4.31 4.31 0 01-.59-2.36A10.82 10.82 0 0182.72 47a4.29 4.29 0 012.34-.66 2.47 2.47 0 011.12.32l-3.76-2.17a3.44 3.44 0 00-3.46.34 10.82 10.82 0 00-4.89 8.47 3.43 3.43 0 001.43 3.17z"/><path class="cls-6" d="M82.72 58.29a10.82 10.82 0 004.89-8.47 3.44 3.44 0 00-1.43-3.17 2.47 2.47 0 00-1.12-.32 4.29 4.29 0 00-2.34.66 10.82 10.82 0 00-4.89 8.47 4.31 4.31 0 00.59 2.36 2.5 2.5 0 00.84.81 3.44 3.44 0 003.46-.34z"/><path class="cls-10" d="M85.48 51.05c0-1.76-1.24-2.47-2.76-1.59A6.1 6.1 0 0080 54.23c0 1.76 1.24 2.47 2.76 1.59a6.1 6.1 0 002.72-4.77z"/><path class="cls-11" d="M84.41 49.73a1.13 1.13 0 00-.74-.12 2.33 2.33 0 00-.78.3 5.47 5.47 0 00-2.45 4.24 2.33 2.33 0 00.13.82 1.13 1.13 0 00.47.59 1.53 1.53 0 001.52-.18A5.44 5.44 0 0085 51.14a1.53 1.53 0 00-.59-1.41z"/><path class="cls-5" d="M83.66 49.61a2.33 2.33 0 00-.78.3 5.47 5.47 0 00-2.45 4.24 2.33 2.33 0 00.13.82 2.23 2.23 0 00.78-.3 5.44 5.44 0 002.45-4.24 2.23 2.23 0 00-.13-.82z"/><g clip-path="url(#clip-path)"><path class="cls-9" d="M81.44 53.85a.61.61 0 01-.2-.2 1.05 1.05 0 01-.14-.57A2.64 2.64 0 0182.29 51a1 1 0 01.57-.16.6.6 0 01.27.08l-.92-.53a.84.84 0 00-.84.08 2.64 2.64 0 00-1.19 2.07.84.84 0 00.35.77z"/><path class="cls-13" d="M82.29 53.77a2.64 2.64 0 001.19-2.07.84.84 0 00-.35-.77.6.6 0 00-.27-.08 1 1 0 00-.57.16 2.64 2.64 0 00-1.19 2.07 1.05 1.05 0 00.14.57.61.61 0 00.2.2.84.84 0 00.85-.08z"/><path class="cls-8" d="M82.83 51.44a.39.39 0 00-.18-.05.72.72 0 00-.33.1 1.72 1.72 0 00-.78 1.34.69.69 0 00.08.34.42.42 0 00.13.13.55.55 0 00.55-.05 1.72 1.72 0 00.78-1.34.54.54 0 00-.25-.47z"/><path class="cls-7" d="M82.62 51.39a.72.72 0 00-.33.1 1.72 1.72 0 00-.78 1.34.69.69 0 00.08.34.7.7 0 00.33-.1 1.71 1.71 0 00.78-1.34.71.71 0 00-.08-.34z"/></g><path class="cls-9" d="M68 65.11a2.5 2.5 0 01-.84-.81 4.31 4.31 0 01-.59-2.36 10.82 10.82 0 014.89-8.47 4.29 4.29 0 012.34-.66 2.47 2.47 0 011.12.32L71.21 51a3.44 3.44 0 00-3.46.34 10.82 10.82 0 00-4.89 8.47 3.43 3.43 0 001.43 3.17z"/><path class="cls-6" d="M71.51 64.77a10.82 10.82 0 004.89-8.47 3.44 3.44 0 00-1.4-3.17 2.47 2.47 0 00-1.12-.32 4.29 4.29 0 00-2.34.66 10.82 10.82 0 00-4.89 8.47 4.31 4.31 0 00.59 2.36 2.5 2.5 0 00.84.81 3.44 3.44 0 003.43-.34z"/><path class="cls-10" d="M74.27 57.53c0-1.76-1.24-2.47-2.76-1.59a6.1 6.1 0 00-2.76 4.78c0 1.76 1.24 2.47 2.76 1.59a6.1 6.1 0 002.76-4.78z"/><path class="cls-11" d="M73.19 56.2a1.13 1.13 0 00-.74-.12 2.33 2.33 0 00-.78.3 5.47 5.47 0 00-2.45 4.24 2.33 2.33 0 00.13.82 1.13 1.13 0 00.47.59 1.53 1.53 0 001.52-.18 5.44 5.44 0 002.45-4.24 1.53 1.53 0 00-.6-1.41z"/><path class="cls-5" d="M72.45 56.09a2.33 2.33 0 00-.78.3 5.47 5.47 0 00-2.45 4.24 2.33 2.33 0 00.13.82 2.23 2.23 0 00.78-.3 5.44 5.44 0 002.45-4.24 2.23 2.23 0 00-.13-.82z"/><g clip-path="url(#clip-path-2)"><path class="cls-9" d="M70.23 60.33a.61.61 0 01-.2-.2 1.05 1.05 0 01-.14-.57 2.64 2.64 0 011.19-2.07 1 1 0 01.57-.16.6.6 0 01.27.08l-.92-.53a.84.84 0 00-.84.08A2.64 2.64 0 0069 59a.84.84 0 00.35.77z"/><path class="cls-13" d="M71.07 60.24a2.64 2.64 0 001.19-2.07.84.84 0 00-.35-.77.6.6 0 00-.27-.08 1 1 0 00-.57.16 2.64 2.64 0 00-1.19 2.07 1.05 1.05 0 00.14.57.61.61 0 00.2.2.84.84 0 00.85-.08z"/><path class="cls-8" d="M71.62 57.92a.39.39 0 00-.18-.05.72.72 0 00-.33.1 1.72 1.72 0 00-.78 1.34.69.69 0 00.08.34.42.42 0 00.13.13.55.55 0 00.55-.05 1.72 1.72 0 00.78-1.34.54.54 0 00-.25-.47z"/><path class="cls-7" d="M71.4 57.87a.72.72 0 00-.33.1 1.72 1.72 0 00-.78 1.34.69.69 0 00.08.34.7.7 0 00.33-.1 1.71 1.71 0 00.78-1.34.71.71 0 00-.08-.34z"/></g><path d="M90.4 47.12l-1.3.75c-.8-1.69-2.5-2.31-4.56-1.54-.18.06-.44.19-.67.3l-.41.21-11.56 6.68s-.73.46-1.08.73a14.22 14.22 0 00-4.56 6.81l-1.3.75a17 17 0 015.86-9c.35-.26 1.08-.71 1.08-.71l11.56-6.67s.73-.39 1.08-.53a4.6 4.6 0 014.12 0 4.05 4.05 0 011.74 2.22z" fill="#373737"/><path d="M88.66 44.93a4.6 4.6 0 00-4.12 0c-.35.14-1.08.53-1.08.53L71.9 52.12s-.73.45-1.08.71a17 17 0 00-5.86 9l-5.44-3.14a17 17 0 015.86-9c.35-.26 1.08-.71 1.08-.71L78 42.31s.73-.39 1.08-.53a4.6 4.6 0 014.12 0z" fill="#262626"/><path class="cls-11" d="M38.46 69.09l8.17 4.72v-6.72l-8.17-4.72v6.72z"/><path class="cls-4" d="M62.96 64.38l-16.33 9.43v-6.72l16.33-9.43v6.72z"/><path class="cls-8" d="M49.01 65.71l-1.19.69v6.72l1.19-.69v-6.72zm4.25-2.45l-1.19.69v6.72l1.19-.69v-6.72zm4.26-2.46l-1.19.69v6.72l1.19-.69V60.8zm4.25-2.45l-1.19.68v6.72l1.19-.68v-6.72z"/><path class="cls-17" d="M89.72 39.33l-68.26 39.4v2.88l68.26-39.4v-2.88z"/><path class="cls-18" d="M21.46 81.61v-2.88L1.29 67.09v2.88l20.17 11.64z"/><path class="cls-3" d="M21.46 51.19v27.54l68.26-39.4V11.79zm1.2 25.47V53.23l45.56-26.3 20.3 11.71z"/><path class="cls-5" d="M88.52 13.86v24.78L22.66 76.66V51.88l44.39-25.63 21.47-12.39z"/><path class="cls-19" d="M21.46 51.19l68.26-39.41L69.54 0 1.29 39.41l20.17 11.78z"/><path fill="url(#linear-gradient)" d="M88.52 38.64L22.66 76.66V53.23l45.56-26.3 20.3 11.71z"/><path class="cls-11" d="M68.22 26.93l-45.56 26.3v-1.35l45.56-26.3v1.35z"/><g clip-path="url(#clip-path-3)"><path class="cls-22" d="M38.77 44.57l5.55-3.2-3.87-2.23-5.54 3.2 3.86 2.23z"/><path class="cls-23" d="M34.91 42.34l3.86 2.23 5.55-3.2-3.86-2.23zm1.08.17l-.3-.17 4.77-2.75 3.08 1.78-4.77 2.75z"/><path class="cls-24" d="M38.77 49.02l5.55-3.2v-4.45l-5.55 3.2v4.45z"/><path class="cls-25" d="M43.93 42v3.6l-4.77 2.75v-3.56L43.93 42zm.39-.67l-5.55 3.2V49l5.55-3.2v-4.43z"/><path class="cls-26" d="M34.91 46.8l3.86 2.22v-4.45l-3.86-2.23v4.46z"/><path class="cls-27" d="M35.3 43l3.08 1.78v3.56l-3.08-1.77V43zm-.39-.67v4.47l3.86 2.2v-4.43l-3.86-2.23z"/><path class="cls-28" d="M35.69 42.34l.3.17 4.46-2.58v-.34l-4.76 2.75z"/><path class="cls-29" d="M43.54 41.37l-.3.17-2.79-1.61v-.34l3.09 1.78z"/><path class="cls-28" d="M43.93 42.04l-.3.17v3.21l.3.18v-3.56z"/><path class="cls-29" d="M39.16 48.35V48l4.47-2.58.3.18-4.77 2.75z"/><path class="cls-30" d="M35.3 43.01l.3.18v3.21l-.3.17v-3.56z"/><path class="cls-29" d="M38.38 48.35V48l-2.78-1.6-.3.17 3.08 1.78z"/><path class="cls-31" d="M37.71 46.98l-.19-.11v-.83l.19.11v.83z"/><path class="cls-31" d="M37.38 45.96l.24-.54.24.82-.48-.28z"/><path class="cls-19" d="M40.18 42.07l1.22-.7-.63-.37-1.23.71.64.36z"/><path class="cls-31" d="M36.81 46.67l.03.01v-.66l-.03-.02v.67zm-.1-.06l.07.04v-.67l-.07-.04v.67zm-.07-.04l.05.03v-.67l-.05-.03v.67zm-.09-.05l.07.04v-.67l-.07-.04v.67zm-.08-.05l.07.04v-.67l-.07-.04v.67zm-.07-.04l.06.03v-.66l-.06-.04v.67zm-.08-.05l.05.03v-.66l-.05-.03v.66zm-.07-.04l.03.02v-.67l-.03-.01v.66zm-.09-.05l.05.03v-.67l-.05-.02v.66zm-.07-.04l.03.02v-.67l-.03-.01v.66zM36 46.2l.05.03v-.67l-.05-.03v.67zm-.07-.04l.03.01v-.66l-.03-.02v.67z"/><path class="cls-32" d="M42.25 44.08l1.1-.63v-.11l-1.1.63v.11zm0 .22l1.1-.63v-.11l-1.1.63v.11zm.39-.01l.71-.41v-.1l-.71.4v.11z"/><path class="cls-33" d="M72.31 30.39l-5.84-3.37 2.92-1.69 5.85 3.37-2.93 1.69z"/><path class="cls-34" d="M73.58 29.66l-5.85-3.37.4-.23 5.84 3.37-.39.23z"/><path class="cls-35" d="M73.76 29.55l-5.84-3.37.02-.01 5.85 3.37-.03.01z"/><path class="cls-36" d="M72.31 34.85v-4.46l2.93-1.69v4.46l-2.93 1.69z"/><path class="cls-34" d="M73.59 34.11v-4.45l.39-.23v4.45l-.39.23z"/><path class="cls-35" d="M73.77 34.01v-4.46l.03-.02v4.46l-.03.02z"/><path class="cls-37" d="M72.31 34.85l-5.84-3.37v-4.46l5.84 3.37v4.46z"/><path class="cls-6" d="M67.76 31.75l-.49-.29v-.07l.49.29v.07z"/><path class="cls-6" d="M67.44 31.49l-.04-.02v-.39l.04.02v.39zm.22.13l-.03-.02v-.39l.03.02v.39z"/><path class="cls-6" d="M67.42 30.88l.05.24-.1-.06.05-.18zm.18.31l.04-.18.05.24-.09-.06zm3.79 2.6l.03.01v-.66l-.03-.01v.66zm-.1-.06l.07.04v-.66l-.07-.05v.67zm-.07-.04l.05.03v-.67l-.05-.03v.67zm-.09-.05l.07.04v-.67l-.07-.04v.67zm-.08-.05l.07.04v-.66l-.07-.04v.66zm-.08-.04l.06.03v-.66l-.06-.04v.67zm-.07-.04l.05.02v-.66l-.05-.03v.67zm-.07-.04l.03.01v-.67l-.03-.01v.67zm-.09-.06l.05.03v-.66l-.05-.03v.66zm-.07-.04l.03.02v-.67l-.03-.01v.66zm-.09-.05l.05.03v-.66l-.05-.04v.67zm-.07-.04l.03.02v-.67l-.03-.01v.66zm3.96-.48h.11l.1-.26v-.05l-.14.08a.13.13 0 000 .05zm.19-.17l.11-.07.06-.15zm.09.12l.06.09h.06a.09.09 0 000-.07l-.06-.07zm-.07.25l.06.09h.07l.06-.16-.13.07zm-.18 0v.08l.12-.07V33z"/><path class="cls-6" d="M74.38 32.93v.14l.07.1a.12.12 0 010-.06l.07-.17-.06-.08z"/><path class="cls-19" d="M68.53 29.75l-1.22-.71v-.73l1.22.7v.74z"/><path class="cls-38" d="M68.47 29.18l-1.1-.63v-.11l1.1.63v.11zm0 .22l-1.1-.63v-.11l1.1.63v.11zm-.4-.01l-.7-.41v-.1l.7.4v.11z"/><path class="cls-22" d="M68.07 40.66l5.54-3.2-3.86-2.23-5.54 3.2 3.86 2.23z"/><path class="cls-23" d="M64.21 38.43l3.86 2.23 5.55-3.2-3.86-2.23zm1.08.17l-.3-.17 4.77-2.75 3.08 1.78-4.77 2.75z"/><path class="cls-24" d="M68.07 45.12l5.54-3.2v-4.46l-5.54 3.2v4.46z"/><path class="cls-25" d="M73.23 38.13v3.56l-4.77 2.75v-3.55l4.77-2.75zm.39-.67l-5.55 3.2v4.46l5.55-3.2v-4.46z"/><path class="cls-26" d="M64.21 42.89l3.86 2.23v-4.46l-3.86-2.23v4.46z"/><path class="cls-27" d="M64.6 39.11l3.08 1.78v3.56l-3.08-1.78v-3.56zm-.39-.67v4.46l3.86 2.23v-4.47l-3.86-2.23z"/><path class="cls-28" d="M64.99 38.43l.3.18 4.46-2.58v-.35l-4.76 2.75z"/><path class="cls-29" d="M72.84 37.46l-.3.17-2.79-1.6v-.35l3.09 1.78z"/><path class="cls-28" d="M73.23 38.13l-.3.18v3.21l.3.17v-3.56z"/><path class="cls-29" d="M68.46 44.44v-.34l4.47-2.58.3.17-4.77 2.75z"/><path class="cls-30" d="M64.6 39.11l.3.17v3.21l-.3.17v-3.55z"/><path class="cls-29" d="M67.68 44.44v-.34l-2.78-1.61-.3.17 3.08 1.78z"/><path class="cls-31" d="M67.01 43.07l-.19-.11v-.82l.19.11v.82zm-.33-1.02l.24-.53.24.81-.48-.28z"/><path class="cls-19" d="M69.48 38.17l1.22-.71-.64-.36-1.22.7.64.37z"/><path class="cls-31" d="M66.11 42.76l.03.01v-.66l-.03-.01v.66zm-.1-.06l.07.04v-.66l-.07-.04v.66zm-.07-.04l.05.03v-.67l-.05-.02v.66zm-.09-.05l.07.04v-.66l-.07-.05v.67zm-.08-.05l.07.04v-.66l-.07-.04v.66zm-.07-.04l.05.03v-.66l-.05-.04v.67zm-.08-.04l.05.03v-.67l-.05-.03v.67zm-.07-.04l.03.01v-.66l-.03-.02v.67zm-.09-.06l.05.03v-.66l-.05-.03v.66zm-.07-.04l.03.02v-.67l-.03-.01v.66zm-.09-.05l.06.03v-.66l-.06-.04v.67zm-.07-.04l.03.02v-.67l-.03-.01v.66z"/><path class="cls-32" d="M71.55 40.17l1.1-.63v-.11l-1.1.63v.11zm0 .22l1.1-.63v-.11l-1.1.63v.11zm.39-.01l.71-.4v-.11l-.71.41v.1z"/><path class="cls-33" d="M49.38 39.94l-3.86-2.23 3.86-2.23 3.86 2.23-3.86 2.23z"/><path class="cls-34" d="M51.12 38.94l-3.86-2.23.39-.23 3.86 2.23-.39.23z"/><path class="cls-35" d="M51.3 38.83l-3.86-2.23.02-.01 3.86 2.22-.02.02z"/><path class="cls-37" d="M49.38 44.39l-3.86-2.23v-4.45l3.86 2.23v4.45z"/><path class="cls-36" d="M53.24 42.16l-3.86 2.23v-4.45l3.86-2.23v4.45z"/><path class="cls-34" d="M51.51 38.71v4.45l-.39.23v-4.45l.39-.23z"/><path class="cls-35" d="M51.32 38.81v4.46l-.02.01v-4.45l.02-.02z"/><path class="cls-6" d="M46.52 42.25l-.5-.29v-.08l.5.29v.08z"/><path class="cls-6" d="M46.19 41.98l-.04-.02v-.39l.04.02v.39zm.23.13l-.04-.02v-.39l.04.03v.38z"/><path class="cls-6" d="M46.17 41.38l.05.23-.1-.05.05-.18zm.18.31l.05-.18.05.23-.1-.05zm2.4 1.79l.03.01v-.67l-.03-.01v.67zm-.1-.07l.07.05v-.67l-.07-.04v.66zm-.07-.03l.05.02v-.66l-.05-.03v.67zm-.09-.06l.07.04v-.66l-.07-.04v.66zm-.08-.04l.07.04v-.67l-.07-.04v.67zm-.07-.05l.06.04v-.67l-.06-.03v.66zm-.08-.04l.05.03v-.67l-.05-.02v.66zm-.07-.04l.03.02v-.67l-.03-.01v.66zm-.09-.05l.05.03v-.67l-.05-.03v.67zm-.07-.04l.03.01v-.66l-.03-.02v.67zm-.09-.06l.05.04v-.67l-.05-.03V43zm-.07-.03l.03.01v-.66l-.03-.02v.67zm4.45-1.07h.11l.1-.26v-.05l-.14.08a.12.12 0 000 .05zm.2-.17l.11-.07.06-.15zm.09.12l.06.09h.06a.09.09 0 000-.07l-.06-.07zm-.07.27l.06.09h.07l.06-.16-.13-.05zm-.18.03v.08l.12-.07v-.15zm-.13-.15v.14l.07.1a.12.12 0 010-.06l.07-.17-.02-.01z"/><path class="cls-19" d="M47.13 40.17l-1.22-.71v-.73l1.22.7v.74z"/><path class="cls-38" d="M47.07 39.6l-1.1-.63v-.11l1.1.63v.11zm0 .22l-1.1-.63v-.11l1.1.63v.11zm-.4-.01l-.7-.4v-.11l.7.4v.11z"/><path class="cls-33" d="M77.89 35.68l-3.86-2.23 3.86-2.23 3.86 2.23-3.86 2.23z"/><path class="cls-34" d="M79.63 34.68l-3.86-2.23.39-.23 3.86 2.23-.39.23z"/><path class="cls-35" d="M79.81 34.57l-3.86-2.23.02-.01 3.86 2.23-.02.01z"/><path class="cls-37" d="M77.89 40.14l-3.86-2.23v-4.46l3.86 2.23v4.46z"/><path class="cls-36" d="M81.75 37.91l-3.86 2.23v-4.46l3.86-2.23v4.46z"/><path class="cls-34" d="M80.02 34.45v4.46l-.39.23v-4.46l.39-.23z"/><path class="cls-35" d="M79.83 34.56v4.46l-.02.01v-4.46l.02-.01z"/><path class="cls-6" d="M75.03 37.99l-.5-.29v-.07l.5.29v.07z"/><path class="cls-6" d="M74.7 37.73l-.04-.03v-.38l.04.02v.39zm.23.13l-.04-.02v-.39l.04.02v.39z"/><path class="cls-6" d="M74.68 37.12l.05.24-.09-.06.04-.18zm.18.31l.05-.18.05.24-.1-.06zm2.41 1.79l.02.01v-.66l-.02-.01v.66zm-.11-.06l.07.04v-.66l-.07-.05v.67zm-.07-.04l.05.03v-.67l-.05-.02v.66zm-.09-.05l.07.04v-.66L77 38.4v.67zm-.08-.05l.07.04v-.66l-.07-.04v.66zm-.07-.04l.06.03v-.66l-.06-.04v.67zm-.08-.04l.05.02v-.66l-.05-.03v.67zm-.07-.04l.03.01v-.66l-.03-.02v.67zm-.09-.06l.05.03v-.66l-.05-.03v.66zm-.07-.04l.03.02v-.67l-.03-.01v.66zm-.09-.05l.06.03v-.66l-.06-.04v.67zm-.07-.04l.03.02v-.67l-.03-.01v.66zm4.45-1.06h.11l.1-.26v-.05l-.14.08a.13.13 0 000 .05z"/><path class="cls-6" d="M81 37.48l.11-.07.06-.15zm.12.12l.06.09h.06a.09.09 0 000-.07l-.06-.07zm-.12.26l.06.09h.07l.06-.16-.13.07zm-.13.04v.08L81 38v-.15zm-.13-.12v.14l.07.1a.12.12 0 010-.06l.07-.17-.06-.08z"/><path class="cls-19" d="M75.64 35.91l-1.22-.7v-.74l1.22.71v.73z"/><path class="cls-38" d="M75.58 35.35l-1.1-.64v-.11l1.1.64v.11zm0 .21l-1.1-.63v-.11l1.1.63v.11zm-.39 0l-.71-.41v-.11l.71.41v.11z"/><path class="cls-33" d="M64.6 31.79l-3.86-2.23 3.86-2.23 3.86 2.23-3.86 2.23z"/><path class="cls-34" d="M66.33 30.79l-3.86-2.23.4-.23 3.85 2.23-.39.23z"/><path class="cls-35" d="M66.52 30.68l-3.86-2.23.02-.01 3.86 2.22-.02.02z"/><path class="cls-37" d="M64.6 36.24l-3.86-2.23v-4.45l3.86 2.23v4.45z"/><path class="cls-36" d="M68.46 34.01l-3.86 2.23v-4.45l3.86-2.23v4.45z"/><path class="cls-34" d="M66.72 30.56v4.45l-.39.23v-4.45l.39-.23z"/><path class="cls-35" d="M66.54 30.66v4.46l-.02.01v-4.45l.02-.02z"/><path class="cls-6" d="M61.73 34.1l-.49-.29v-.08l.49.29v.08z"/><path class="cls-6" d="M61.41 33.83l-.04-.02v-.39l.04.02v.39zm.22.13l-.03-.02v-.39l.03.03v.38z"/><path class="cls-6" d="M61.39 33.23l.05.23-.1-.05.05-.18zm.18.31l.05-.18.04.23-.09-.05zm2.4 1.79l.02.01v-.67l-.02-.01v.67zm-.11-.06l.08.04v-.67l-.08-.04v.67zm-.06-.04l.04.02v-.66l-.04-.03v.67zm-.1-.06l.08.05v-.67l-.08-.04v.66zm-.08-.04l.08.04v-.67l-.08-.04v.67zm-.07-.05l.06.04v-.67l-.06-.03v.66zm-.07-.04l.04.03v-.67l-.04-.02v.66zm-.07-.04l.02.02v-.67l-.02-.01V35zm-.1-.05l.05.03v-.67l-.05-.03v.67zm-.06-.04l.02.01v-.66l-.02-.02v.67zm-.1-.06l.06.04v-.67l-.06-.03v.66zm-.06-.03l.02.01v-.66l-.02-.02v.67zm4.45-1.07h.11l.1-.26v-.05l-.14.08a.13.13 0 000 .05zm.19-.17l.11-.07.06-.15zm.09.12l.06.09h.06a.09.09 0 000-.07l-.06-.07zm-.07.3l.06.09h.07l.06-.16-.13.07zm-.18 0v.08l.12-.07v-.15zm-.12-.11v.14l.07.1a.12.12 0 010-.06l.07-.17-.06-.08z"/><path class="cls-19" d="M62.34 32.02l-1.22-.71v-.73l1.22.7v.74z"/><path class="cls-38" d="M62.28 31.45l-1.09-.63v-.11l1.09.63v.11zm0 .22l-1.09-.63v-.11l1.09.63v.11zm-.39-.01l-.7-.41v-.1l.7.4v.11z"/><path class="cls-22" d="M58.73 35.13l-3.86-2.22 3.86-2.23 3.86 2.23-3.86 2.22z"/><path class="cls-23" d="M58.73 30.68l-3.86 2.23 3.86 2.23 3.86-2.23zm0 4l-3.08-1.78 3.08-1.78 3.08 1.78-.3.17z"/><path class="cls-24" d="M58.73 39.59l-3.86-2.23v-4.45l3.86 2.22v4.46z"/><path class="cls-25" d="M55.26 33.58l3.08 1.78v3.56l-3.08-1.78v-3.56zm-.39-.67v4.46l3.86 2.23v-4.47l-3.86-2.23z"/><path class="cls-26" d="M62.59 37.36l-3.86 2.23v-4.46l3.86-2.22v4.45z"/><path class="cls-27" d="M62.2 33.58v3.56l-3.08 1.78v-3.56l3.08-1.78zm.39-.67l-3.86 2.23v4.46l3.86-2.23v-4.46z"/><path class="cls-28" d="M61.81 32.91l-.3.17-2.78-1.61v-.34l3.08 1.78z"/><path class="cls-29" d="M55.65 32.91l.3.17 2.78-1.61v-.34l-3.08 1.78z"/><path class="cls-28" d="M55.26 33.58l.29.17v3.22l-.29.17v-3.56z"/><path class="cls-29" d="M58.34 38.92v-.35l-2.79-1.6-.29.17 3.08 1.78z"/><path class="cls-30" d="M62.2 33.58l-.3.17v3.22l.3.17v-3.56z"/><path class="cls-29" d="M59.12 38.92v-.35l2.78-1.6.3.17-3.08 1.78z"/><path class="cls-31" d="M59.78 37.55l.19-.11v-.83l-.19.11v.83z"/><path class="cls-31" d="M60.12 36.53l-.24-.54-.24.81.48-.27z"/><path class="cls-19" d="M59 33.61l-1.22-.7.64-.37 1.22.71-.64.36z"/><path class="cls-31" d="M60.68 37.23l-.02.02v-.67l.02-.01v.66zm.1-.06l-.07.05v-.67l.07-.04v.66zm.07-.04l-.05.03v-.66l.05-.03v.66zm.1-.05l-.08.04v-.66l.08-.04v.66zm.07-.05l-.07.05v-.67l.07-.04v.66zm.08-.04l-.06.04v-.67l.06-.03v.66zm.07-.04l-.05.03v-.67l.05-.03v.67zm.07-.04l-.02.01v-.66l.02-.02v.67zm.09-.05l-.05.02v-.66l.05-.03v.67zm.07-.04l-.02.01v-.66l.02-.02v.67zm.1-.06l-.06.04v-.67l.06-.03v.66zm.06-.03l-.02.01v-.67l.02-.01v.67z"/><path class="cls-32" d="M56.93 35.62l-1.1-.63v-.11l1.1.63v.11zm0 .22l-1.1-.63v-.11l1.1.63v.11zm-.39-.01l-.71-.4v-.11l.71.4v.11z"/></g><path class="cls-39" d="M58.27 40.8a8.88 8.88 0 00.28 3.39c.52 1.1 1.32 1 1 1.29a.7.7 0 01-.57-.15c-.34-.23.1 1 .1 1s-.15.36-.43.11c0 0-.22.07-.32-.24 0 0-.22 0-.32-.41s-.27-.61-.15-1.09a13.19 13.19 0 01-.86-1.88 4.09 4.09 0 01.4-2.93z"/><path class="cls-40" d="M58.34 38.29s1.19.89 0 3.83a2.38 2.38 0 00-1.53-.64z"/><path class="cls-6" d="M56.43 53.8a4 4 0 001.32 1.09c.59.19.64.59.52.69-.75.66-3.31-.41-3.55-.65s.12-1.1.12-1.1z"/><path class="cls-41" d="M56.9 54.16s-1.95.67-2.34.18-1.26-11-1.26-11 2.65 0 2.68.41c.38 5.54-.24 8.73.92 10.41z"/><path class="cls-6" d="M53.81 55a3.33 3.33 0 00.65 1.13c.37.33.15.83-.75.68a1.82 1.82 0 01-1.62-1.86z"/><path class="cls-42" d="M54.09 55.29a1.93 1.93 0 01-2 0c-.9-.65-.64-7-1.16-9.94s.6-4.08.6-4.08L54 42.94s.07 8-.07 9.16a17 17 0 00.16 3.19z"/><path class="cls-40" d="M57.12 36.6a3.82 3.82 0 00-4.41 1.57 12.82 12.82 0 00-1.77 4.25c.39 1 2.19 1.87 5.16 2.47a6.21 6.21 0 00.08-1.27 4.22 4.22 0 01.45-1.6c.34-.74 1-.66 1.73-1.69.64-.85.4-1.85-1.24-3.73z"/><path class="cls-43" d="M57.41 35.6a4 4 0 01-.4 1c-.14.15.41 1.48.63 1.52a.76.76 0 00.9-.59 2.86 2.86 0 01.53-.79z"/><path class="cls-39" d="M57.73 34.67a2.07 2.07 0 00.2 2.7 1.08 1.08 0 001.33.13 4 4 0 001.22-1.37 1.4 1.4 0 00-.78-1.88 1.53 1.53 0 00-1.97.42z"/><path class="cls-44" d="M60.44 36.33s-1 .55-1.68-.83c0-.08-.39.19-.42.13-.6-1-1 .72-1 .72s-.38-.25.21-1.38 1.68-1.89 2.84-.6a1.39 1.39 0 01.05 1.96z"/><path class="cls-33" d="M56.18 44.72l3.55-.32-2.06-2.91-3.54.32 2.05 2.91z"/><path class="cls-34" d="M55.26 43.42l3.55-.33-.21-.29-3.55.32.21.3z"/><path class="cls-35" d="M55.16 43.27l3.55-.32-.01-.01-3.55.32.01.01z"/><path class="cls-37" d="M54.69 47.95l3.54-.32 1.5-3.23-3.55.32-1.49 3.23z"/><path fill="#d1ac84" d="M52.64 45.05l2.05 2.9 1.49-3.23-2.05-2.91-1.49 3.24z"/><path class="cls-34" d="M55.05 43.12l-1.49 3.23.21.3 1.49-3.23-.21-.3z"/><path class="cls-35" d="M55.15 43.26l-1.49 3.23.01.02 1.49-3.24-.01-.01z"/><path class="cls-6" d="M57.48 47.36l.46-.05.03-.05-.46.04-.03.06zm.33-.09h.04l.13-.28h-.04l-.13.28z"/><path class="cls-6" d="M57.6 47.29h.04l.13-.28h-.04l-.13.28zm.43-.45l-.12.16.09-.01.03-.15z"/><path class="cls-6" d="M57.79 47.01l.03-.15-.12.16.09-.01zm-2.34.49h-.02l.22-.48h.02l-.22.48zm.1-.01l-.07.01.22-.48.07-.01-.22.48zm.06-.01l-.04.01.22-.48.04-.01-.22.48zm.09 0h-.07l.22-.48.07-.01-.22.49z"/><path class="cls-6" d="M55.77 47.47l-.07.01.22-.49h.07l-.22.48zm.07-.01l-.06.01.23-.48.05-.01-.22.48zm.07 0h-.05l.22-.48h.05l-.22.48zm.06-.01h-.02l.22-.48h.02l-.22.48zm.08-.01l-.04.01.22-.48.04-.01-.22.48zm.07 0h-.03l.23-.48h.02l-.22.48zm.08-.01l-.05.01.22-.49h.06l-.23.48zm.06-.01l-.02.01.22-.48.02-.01-.22.48zM53.4 45l-.07-.11v.22h.08z"/><path class="cls-6" d="M53.31 44.91V45l.06.09zm-.14-.01h-.06a.07.07 0 000 .06h.08zm0 .22l-.07-.1v.19h.07zm.05.12v.11l.06.09v-.1zm.13-.04h-.07v.14h.08v-.06z"/><path class="cls-19" d="M57.74 45.65l1.12-.11.24-.53-1.12.1-.24.54z"/><path class="cls-38" d="M57.97 45.25l1.01-.09.04-.08-1.01.09-.04.08zm-.07.16l1.01-.09.03-.08-1 .09-.04.08zm.29.13l.64-.06.04-.08-.64.06-.04.08z"/><path class="cls-39" d="M53.13 40a9.67 9.67 0 00.62 3.65c.67 1.14 1.53.92 1.24 1.3a.76.76 0 01-.63-.11c-.39-.21.21 1.13.21 1.13s-.13.4-.45.16c0 0-.23.1-.37-.23 0 0-.24 0-.38-.42s-.35-.64-.26-1.16c0 0-.94-1.57-1.32-2.44a2.82 2.82 0 01.3-2.79z"/><path class="cls-40" d="M55.48 38.29a5.78 5.78 0 01-2 2.34s-1.53-1-1.69-1.49 2.06-3.12 3.3-2.55c-.04 0 .82.34.39 1.7z"/><path class="cls-46" d="M50.22 65.25a.14.14 0 00-.1.17v.15l-.23.38a.14.14 0 00.05.19c.07 0 .3.09.34 0 .28-.45.15-.53.13-.61l-.05-.21a.14.14 0 00-.14-.07z"/><path class="cls-46" d="M50 65.08a.14.14 0 00-.13.15v.19l-.2.36a.14.14 0 10.25.13c.28-.52.25-.36.22-.71a.14.14 0 00-.14-.12z"/><path class="cls-46" d="M49.7 65a.14.14 0 00-.13.2l.09.18-.09.36a.14.14 0 10.27.07c.1-.42.12-.44.09-.51l-.11-.23a.14.14 0 00-.12-.07zm-2.54-.5l-.51.65.74.77a2.87 2.87 0 001.11-1s-.28-.12-.25-.29c0 0-.31-.14-.29-.34z"/><path class="cls-46" d="M48.87 64.61a.15.15 0 01-.11.21h-.17l-.31.21a.15.15 0 01-.17-.24l.34-.23h.27a.15.15 0 01.15.05z"/><path class="cls-46" d="M48.69 64.4a.15.15 0 01-.15.14h-.17l-.32.29a.15.15 0 01-.2-.22l.36-.33a.15.15 0 01.11 0h.23a.15.15 0 01.14.12z"/><path class="cls-46" d="M48.25 64.17a.18.18 0 01-.16.2h-.25l-.42.35a.18.18 0 11-.24-.28c.45-.38.47-.42.56-.43h.31a.18.18 0 01.2.16z"/><path d="M51.19 64.2l-2.51 2.55a.15.15 0 01-.15 0l-2.12-.93a.08.08 0 010-.06l2.51-2.55a.15.15 0 01.15 0l2.12.93a.06.06 0 010 .06z" fill="#598bb8"/><path d="M51.19 64.2v.07a.08.08 0 010 .06l-2.51 2.55a.15.15 0 01-.15 0L46.39 66v-.07l2.12.93a.15.15 0 00.15 0l2.51-2.55a.06.06 0 00.02-.11z" fill="#456c8f"/><path fill="#f5f2e9" d="M48.57 66.67l-1.98-.86 2.37-2.41 1.98.87-2.37 2.4z"/><path class="cls-50" d="M50.68 64.36l-.71-.31.02-.02.72.31-.03.02zm-.11.12l-.71-.31.02-.03.71.31-.02.03zm-.11.11l-.71-.31.02-.03.71.32-.02.02zm-.11.11l-.71-.31.02-.02.71.31-.02.02zm-1.65 1.68l-.36-.16.03-.02.36.15-.03.03zm-1.04-.46l-.71-.31.02-.02.72.31-.03.02zm2.45-.97l-1.76-.77.03-.02 1.75.76-.02.03zm-.15.15l-1.75-.77.02-.02 1.75.77-.02.02zm-.96.99l-1.79-.78.84-.86 1.79.78zm-1.72-.79L49 66l.79-.8-1.72-.75z"/><path class="cls-50" d="M47.74 65.51l-.04-.01.82-.84.03.02-.81.83zm.62.27l-.03-.01.81-.83.04.01-.82.83z"/><path class="cls-50" d="M49.68 65.38l-1.75-.76.02-.03 1.76.77-.03.02zm-.28.29l-1.75-.77.03-.03 1.75.77-.03.03zm-.27.27l-1.76-.76.03-.03 1.76.77-.03.02zm-1.01-1.04l-.19-.09.03-.03.19.09-.03.03zm.25.54l-.2-.08.03-.03.2.08-.03.03zm1.17-.22l-.2-.08.03-.03.2.08-.03.03z"/><path class="cls-51" d="M50.56 63.79l-.13-.06a.18.18 0 00-.1-.25.45.45 0 00-.39 0l-.16-.07a.14.14 0 00-.15 0l-.14.14v.1l.78.34a.14.14 0 00.15 0l.14-.14s.04-.04 0-.06zm-.3-.24a.12.12 0 01.08.15l-.34-.15a.31.31 0 01.26-.01z"/><path class="cls-46" d="M47.88 64.61a2.15 2.15 0 01-.68.27.21.21 0 11-.07-.41h.29l.33-.12a.16.16 0 01.13.26z"/><path class="cls-52" d="M46.49 82.24c-.1.48-2.65 1.48-3.37 1A.25.25 0 0143 83a3.11 3.11 0 01.09-.8.32.32 0 01.13-.18c.14-.09.58-.44.74-.54s-.09.46 1.36.34c1.02-.24 1.25-.04 1.17.42z"/><path class="cls-52" d="M48.66 83c-.1.48-2.65 1.48-3.37 1a.25.25 0 01-.09-.25 3.11 3.11 0 01.09-.8.32.32 0 01.13-.18c.14-.09.58-.44.74-.54s-.09.46 1.36.34c.99-.22 1.22-.02 1.14.43z"/><path class="cls-39" d="M42.11 65.65s.06 1.23 1 .9l.75-.36-.86-.63z"/><path class="cls-40" d="M43 62.77a9.53 9.53 0 00-.92 2.94 1.06 1.06 0 001 .46z"/><path class="cls-41" d="M43.06 69.17a6.36 6.36 0 00-.19 3.62c.6 2 .25 8.13.19 9.47 0 0 .77.74 1.85-.22a30.14 30.14 0 00.28-6.54 28.72 28.72 0 01.1-6z"/><path class="cls-39" d="M43.56 59.74A3.84 3.84 0 0144 62a5.84 5.84 0 001.82.35 1 1 0 01.47-1.08c.63-.45.29-1.33.29-1.33s.28.08.06-.28a.7.7 0 01-.12-.39 1.46 1.46 0 00-.24-.59s-1.76-1.39-2.72 1.06z"/><path class="cls-42" d="M44.28 69.87s-1 1.41 0 4.1.9 9 .9 9a1.59 1.59 0 002.08-.4s0-5.85.21-7.23a11.36 11.36 0 00-.19-4.86z"/><path class="cls-40" d="M44.05 61.84a3.37 3.37 0 00-1.63 3.86 14.65 14.65 0 01.28 4.72 4.4 4.4 0 004.76.76 50.71 50.71 0 01.14-5.48 3 3 0 00-1.45-2.79 1.89 1.89 0 01-.3-.69s-1.85.03-1.8-.38z"/><path class="cls-44" d="M44 61.08a1 1 0 001-.18s-.33-.91.37-.86a1.8 1.8 0 01.15-.64 1.49 1.49 0 01.88-.49s-.41-1.66-2.31-.56c.01 0-1.32.85-.09 2.73z"/><path class="cls-41" d="M42.8 59.29l1 .76s1.62-.62 1.84-1.25c0 0 1.41-.14 1.45-.75s-.15-.72-.15-.72l-1.08.42-1.18-.59a3.35 3.35 0 00-1.23.52 2.41 2.41 0 00-.65 1.61z"/><path class="cls-46" d="M49.1 66.09a1.47 1.47 0 01.08-.65 1.24 1.24 0 01.19-.25.13.13 0 01.18 0c.06.06.08.09 0 .34a3.41 3.41 0 00-.05.52.17.17 0 01-.34 0z"/><path class="cls-46" d="M48.8 66.38l.63.56c.47-.42.69-.37.88-.77 0 0-.23-.06-.22-.2s-.25-.07-.25-.23c0 0-.4.17-.43-.25-.2.2-.41.61-.61.89z"/><path class="cls-46" d="M46.92 65.14a8.89 8.89 0 01.72 2.1l1.17-.85c.18-.19.39-.24.58-.05a.42.42 0 01.1.57l-1.26 1.46a1.1 1.1 0 01-.55.35c-.73.19-1.53-.43-2.37-2.92z"/><path class="cls-40" d="M45.86 67.76s-1.47-3.19-.07-3.57 1.53.79 1.53.79a5.52 5.52 0 00.4 1.83 2 2 0 00-1.86.95z"/><path class="cls-6" d="M86.18 65.64a3.26 3.26 0 01.9 1c.08.2-.45.43-.82.82-.64.68-1.83 1.08-2.32.67a1.18 1.18 0 01.59-.75c.77-.46.53-.7.53-.7z"/><path class="cls-6" d="M84.51 68.34s.39 1.69-.05 1.92-2.45-.59-3-1.24 1.81 0 2.25-1z"/><path class="cls-41" d="M82.8 56.32s-1.87 5.84-.34 7.22a10.6 10.6 0 012.36 3.34 2.28 2.28 0 001.64-1.19S85 62.59 84.26 62c0 0 2.18-3.89 1.17-5.55z"/><path class="cls-42" d="M84.57 55.89s-1 6-.69 7 .22 4-.73 5.22c0 0 1 1.33 2 1 0 0 1.73-4.17 1.19-6 0 0 2.16-4.86 1-7z"/><path class="cls-50" d="M74 74.51v1.17c0 .28.19.39.43.25a1 1 0 00.43-.75v-1.15z"/><path class="cls-53" d="M74 74.54v1.17c0 .28.19.39.43.25a1 1 0 00.43-.75V74z"/><path class="cls-54" d="M74.29 75.56a.41.41 0 01.19-.32c.1-.06.19 0 .19.11a.41.41 0 01-.19.32c-.11.06-.19.01-.19-.11z"/><path class="cls-9" d="M74.51 76.8a.38.38 0 01-.13-.12.65.65 0 01-.09-.35A1.63 1.63 0 0175 75a.65.65 0 01.35-.1.37.37 0 01.17 0l-.52-.23a.52.52 0 00-.52.05 1.63 1.63 0 00-.75 1.28.52.52 0 00.22.48z"/><path class="cls-13" d="M75 76.75a1.63 1.63 0 00.74-1.28.52.52 0 00-.22-.48.37.37 0 00-.17 0A.65.65 0 0075 75a1.63 1.63 0 00-.74 1.28.65.65 0 00.09.35.38.38 0 00.13.12.52.52 0 00.52 0z"/><path class="cls-10" d="M75.55 75.6c0-.33-.23-.46-.52-.3a1.14 1.14 0 00-.52.89c0 .33.23.46.52.3a1.14 1.14 0 00.52-.89z"/><path class="cls-11" d="M75.35 75.35a.21.21 0 00-.14 0 .44.44 0 00-.15.06 1 1 0 00-.46.79.43.43 0 000 .15.21.21 0 00.09.11.29.29 0 00.28 0 1 1 0 00.46-.79.29.29 0 00-.08-.32z"/><path class="cls-5" d="M75.21 75.33a.44.44 0 00-.15.06 1 1 0 00-.46.79.43.43 0 000 .15.42.42 0 00.15-.06 1 1 0 00.46-.79.42.42 0 000-.15z"/><g clip-path="url(#clip-path-4)"><path class="cls-9" d="M74.79 76.12a.2.2 0 010-.11.49.49 0 01.22-.39.2.2 0 01.11 0h.05l-.17-.1a.16.16 0 00-.16 0 .49.49 0 00-.22.39.16.16 0 00.07.14z"/><path class="cls-13" d="M75 76.11a.49.49 0 00.22-.39.16.16 0 00-.07-.14h-.05a.2.2 0 00-.11 0 .49.49 0 00-.22.39.2.2 0 000 .11.16.16 0 00.23.03z"/><path class="cls-8" d="M75.05 75.67h-.06a.32.32 0 00-.15.25.13.13 0 000 .06.1.1 0 00.1 0 .32.32 0 00.15-.25.1.1 0 00-.04-.06z"/><path class="cls-7" d="M75 75.66h-.06a.32.32 0 00-.15.25.13.13 0 000 .06h.06a.32.32 0 00.15-.25.13.13 0 000-.06z"/></g><path class="cls-50" d="M74.71 74.92v1.17c0 .28.19.39.43.25a1 1 0 00.43-.75v-1.15z"/><path class="cls-56" d="M74.75 74.94v1.17c0 .28.19.39.43.25a1 1 0 00.43-.75v-1.17z"/><path class="cls-57" d="M75.22 76.13l.18-.23v-.25l-.06-.01-.12-.01-.19.24v.25l.19.01z"/><path class="cls-51" d="M75.21 76a.25.25 0 00.11-.2c0-.07-.05-.1-.11-.07a.25.25 0 00-.11.2c0 .07.05.12.11.07z"/><path class="cls-54" d="M75.25 76a.25.25 0 00.11-.2c0-.07-.05-.1-.11-.07a.25.25 0 00-.11.2c-.01.07.04.14.11.07z"/><path class="cls-54" d="M75.03 76.12v-.25l.19-.24.12.01.06.01-.06-.04-.19-.01-.19.23v.25l.07.04z"/><path class="cls-50" d="M74 74.51v.05l.75.43v-.05l-.75-.43z"/><path class="cls-58" d="M75.61 74.44l-.86.5-.74-.43.86-.5.74.43z"/><path class="cls-50" d="M67.5 70.76v1.17c0 .28.19.39.43.25a1 1 0 00.43-.75v-1.15z"/><path class="cls-53" d="M67.54 70.78V72c0 .28.19.39.43.25a1 1 0 00.43-.75v-1.22z"/><path class="cls-54" d="M67.79 71.81a.41.41 0 01.19-.32c.1-.06.19 0 .19.11a.41.41 0 01-.19.32c-.11.08-.19.01-.19-.11z"/><path class="cls-9" d="M68 73a.38.38 0 01-.13-.12.65.65 0 01-.09-.35 1.63 1.63 0 01.74-1.28.65.65 0 01.35-.1.37.37 0 01.17 0l-.57-.33A.52.52 0 0068 71a1.63 1.63 0 00-.74 1.28.52.52 0 00.22.48z"/><path class="cls-13" d="M68.53 73a1.63 1.63 0 00.74-1.28.52.52 0 00-.22-.48.37.37 0 00-.17 0 .65.65 0 00-.35.1 1.63 1.63 0 00-.74 1.28.65.65 0 00.09.35.38.38 0 00.12.03.52.52 0 00.53 0z"/><path class="cls-10" d="M69 71.85c0-.33-.23-.46-.52-.3a1.14 1.14 0 00-.52.89c0 .33.23.46.52.3a1.14 1.14 0 00.52-.89z"/><path class="cls-11" d="M68.85 71.6a.21.21 0 00-.14 0 .43.43 0 00-.15.06 1 1 0 00-.46.79.44.44 0 000 .15.21.21 0 00.09.11.29.29 0 00.28 0 1 1 0 00.46-.79.29.29 0 00-.08-.32z"/><path class="cls-5" d="M68.71 71.58a.43.43 0 00-.15.06 1 1 0 00-.46.79.44.44 0 000 .15.42.42 0 00.15-.06 1 1 0 00.46-.79.42.42 0 000-.15z"/><g clip-path="url(#clip-path-5)"><path class="cls-9" d="M68.29 72.37a.2.2 0 010-.11.49.49 0 01.22-.39.2.2 0 01.11 0h.05l-.17-.1a.16.16 0 00-.16 0 .49.49 0 00-.22.39.16.16 0 00.07.14z"/><path class="cls-13" d="M68.45 72.36a.49.49 0 00.22-.39.16.16 0 00-.07-.14h-.05a.2.2 0 00-.11 0 .49.49 0 00-.22.39.2.2 0 000 .11.16.16 0 00.23.03z"/><path class="cls-8" d="M68.55 71.92h-.06a.32.32 0 00-.15.25.13.13 0 000 .06.1.1 0 00.1 0 .32.32 0 00.16-.23.1.1 0 00-.05-.08z"/><path class="cls-7" d="M68.51 71.91h-.06a.32.32 0 00-.15.25.13.13 0 000 .06h.06a.32.32 0 00.15-.25.13.13 0 000-.06z"/></g><path class="cls-50" d="M68.21 71.17v1.17c0 .28.19.39.43.25a1 1 0 00.43-.75v-1.15z"/><path class="cls-56" d="M68.25 71.19v1.17c0 .28.19.39.43.25a1 1 0 00.43-.75v-1.17z"/><path class="cls-57" d="M68.71 72.38l.19-.23v-.25l-.06-.01-.13-.01-.18.23v.25l.18.02z"/><path class="cls-51" d="M68.71 72.26a.25.25 0 00.11-.2c0-.07-.05-.1-.11-.07a.25.25 0 00-.11.2c0 .08.05.11.11.07z"/><path class="cls-54" d="M68.75 72.28a.25.25 0 00.11-.2c0-.07-.05-.1-.11-.07a.25.25 0 00-.11.2c-.01.08.04.11.11.07z"/><path class="cls-54" d="M68.53 72.36v-.25l.18-.23.13.01.06.01-.06-.04-.19-.02-.19.24v.25l.07.03z"/><path class="cls-50" d="M67.5 70.76v.05l.75.43v-.05l-.75-.43z"/><path class="cls-58" d="M69.11 70.69l-.86.5-.75-.43.87-.5.74.43z"/><path class="cls-50" d="M83 69.32v1.17c0 .28.19.39.43.25a1 1 0 00.43-.75v-1.15z"/><path class="cls-53" d="M83 69.34v1.17c0 .28.19.39.43.25a1 1 0 00.43-.75v-1.17z"/><path class="cls-54" d="M83.29 70.37a.41.41 0 01.19-.32c.1-.06.19 0 .19.11a.41.41 0 01-.19.32c-.11.05-.19 0-.19-.11z"/><path class="cls-9" d="M83.51 71.6a.38.38 0 01-.13-.12.65.65 0 01-.09-.35 1.63 1.63 0 01.71-1.28.65.65 0 01.35-.1.37.37 0 01.17 0l-.52-.28a.52.52 0 00-.52.05 1.63 1.63 0 00-.74 1.28.52.52 0 00.22.48z"/><path class="cls-13" d="M84 71.55a1.63 1.63 0 00.74-1.28.52.52 0 00-.22-.48.37.37 0 00-.17 0 .65.65 0 00-.35.1 1.63 1.63 0 00-.74 1.28.65.65 0 00.09.35.38.38 0 00.13.12.52.52 0 00.52-.09z"/><path class="cls-10" d="M84.55 70.4c0-.33-.23-.46-.52-.3a1.14 1.14 0 00-.52.89c0 .33.23.46.52.3a1.14 1.14 0 00.52-.89z"/><path class="cls-11" d="M84.35 70.16a.21.21 0 00-.14 0 .44.44 0 00-.15.06 1 1 0 00-.46.79.43.43 0 000 .15.21.21 0 00.09.11.29.29 0 00.28 0 1 1 0 00.46-.79.29.29 0 00-.08-.32z"/><path class="cls-5" d="M84.21 70.13a.44.44 0 00-.15.06 1 1 0 00-.46.79.43.43 0 000 .15.42.42 0 00.15-.06 1 1 0 00.46-.79.42.42 0 000-.15z"/><g clip-path="url(#clip-path-6)"><path class="cls-9" d="M83.79 70.93a.2.2 0 010-.11.49.49 0 01.21-.42.2.2 0 01.11 0h.05l-.17-.1a.16.16 0 00-.16 0 .49.49 0 00-.22.39.16.16 0 00.07.14z"/><path class="cls-13" d="M84 70.91a.49.49 0 00.22-.39.16.16 0 00-.07-.14h-.05a.2.2 0 00-.11 0 .49.49 0 00-.22.39.2.2 0 000 .11.16.16 0 00.23.03z"/><path class="cls-8" d="M84.05 70.48h-.06a.32.32 0 00-.15.25.13.13 0 000 .06.1.1 0 00.1 0 .32.32 0 00.15-.25.1.1 0 00-.04-.06z"/><path class="cls-7" d="M84 70.47h-.06a.32.32 0 00-.15.25.13.13 0 000 .06h.06a.32.32 0 00.15-.25.13.13 0 000-.06z"/></g><path class="cls-50" d="M83.71 69.72v1.18c0 .28.19.39.43.25a1 1 0 00.43-.75v-1.15z"/><path class="cls-56" d="M83.75 69.75v1.17c0 .28.19.39.43.25a1 1 0 00.43-.75v-1.17z"/><path class="cls-57" d="M84.22 70.94l.18-.24v-.25h-.06l-.12-.01-.19.23v.25l.19.02z"/><path class="cls-51" d="M84.22 70.82a.25.25 0 00.11-.2c0-.07-.05-.1-.11-.07a.25.25 0 00-.11.2c-.01.08.04.1.11.07z"/><path class="cls-54" d="M84.25 70.84a.25.25 0 00.11-.2c0-.07-.05-.1-.11-.07a.25.25 0 00-.11.2c-.01.07.04.1.11.07z"/><path class="cls-54" d="M84.03 70.92v-.25l.19-.23.12.01h.06l-.06-.03-.19-.02-.19.23v.25l.07.04z"/><path class="cls-50" d="M83.01 69.32v.05l.74.43v-.05l-.74-.43z"/><path class="cls-58" d="M84.62 69.25l-.87.5-.74-.43.86-.5.75.43z"/><path class="cls-18" d="M66.93 70.99v.34l7.1 4.1v-.34l-7.1-4.1z"/><path fill="#457ce3" d="M85 68.76v.34l-10.97 6.33v-.34L85 68.76z"/><path class="cls-17" d="M74.03 75.09L85 68.76l-7.11-4.1-10.96 6.33 7.1 4.1z"/><path class="cls-11" d="M84.24 68.95a.22.22 0 01-.22-.22V61.6a.22.22 0 01.07-.16L86 59.57a.22.22 0 01.32.32l-1.86 1.81v7a.22.22 0 01-.22.25zM78 65.32a.22.22 0 01-.22-.22V58a.22.22 0 01.07-.16l1.87-1.87a.22.22 0 01.32.32l-1.81 1.81v7a.22.22 0 01-.23.22z"/><path class="cls-11" d="M86.11 60a.22.22 0 01-.11 0l-6.28-3.7a.22.22 0 11.22-.39l6.28 3.63a.22.22 0 01-.11.42zm-1.87 4.44a.22.22 0 01-.11 0l-6.28-3.63a.22.22 0 01.22-.39L84.35 64a.22.22 0 01-.11.42z"/><path class="cls-11" d="M81.1 67.14a.22.22 0 01-.22-.22V62.4a.22.22 0 01.45 0v4.51a.22.22 0 01-.23.23z"/><path class="cls-39" d="M82.28 51.48s-1.48 3.68-1.87 4.19-.51.68-.24 1.15a.6.6 0 00.59.3.21.21 0 00.2-.24c0-.24.09-.38.27-.19 0 0 .27.22.22-.05-.1-.56-.33-.7-.12-1.25s2.45-3 2.12-3.74z"/><path class="cls-40" d="M82 51.77a4.6 4.6 0 011.49.56c.24.26 1.07-3.81 1.07-3.81a3 3 0 00-2 1.52 4.92 4.92 0 00-.56 1.73z"/><path class="cls-40" d="M87.69 57c0 .28-3.53 1.34-5-.68a7.9 7.9 0 00.1-4.41 2.75 2.75 0 01.64-2.65 2.36 2.36 0 012.43-.78A3.75 3.75 0 0188 49.84c1.08 1.54-.14 3.89-.31 7.16z"/><path class="cls-43" d="M86.65 47.93a2.62 2.62 0 000 .87c0 .2-1.05.83-1.24.74a.77.77 0 01-.53-.85 2.47 2.47 0 00.12-.89z"/><path class="cls-39" d="M87.39 46.5a2 2 0 01-1.62 2 1 1 0 01-1.12-.62 3.82 3.82 0 01-.22-1.74 1.34 1.34 0 011.63-1.05 1.46 1.46 0 011.33 1.41z"/><path class="cls-44" d="M84.36 46.35s.52-.29 1.77.26c.08 0 .2.36.26.33 1-.49.39 1.11.39 1.11s.43 0 .58-1.21-.31-2.4-1.91-2a1.33 1.33 0 00-1.09 1.51z"/><path class="cls-39" d="M86.57 52.19a4.75 4.75 0 00-.07 1.27.35.35 0 010 .23c-.33.61-1.92 3.46-2.54 3.81s-1 1.09-.28 1.41c.45.21.55-.07.57-.28a.34.34 0 01.19-.29.69.69 0 00.45-.63c0-.55 3.64-2.56 3.19-5.61a.35.35 0 00-.06-.14c-.12-.18-.51-.58-1.29 0a.34.34 0 00-.16.23z"/><path class="cls-40" d="M86.27 52.52s1.52 0 1.95.58c0 0 .4-2.29-.14-2.87-.94-1.02-1.81.68-1.81 2.29z"/><path class="cls-62" d="M34.05 62.26l10.39-6v-.27l-10.39 6v.27z"/><path class="cls-63" d="M34.05 61.99l10.39-6-.88-.5-10.39 6 .88.5z"/><path class="cls-64" d="M33.17 61.75l.88.51v-.27l-.88-.5v.26z"/><path class="cls-62" d="M30 59.91l10.39-6v-.26l-10.39 6v.26z"/><path class="cls-63" d="M30 59.65l10.39-6-.88-.51-10.4 6 .89.51z"/><path class="cls-64" d="M29.11 59.41l.89.5v-.26l-.89-.51v.27z"/><path class="cls-62" d="M25.94 57.57l10.39-6v-.26l-10.39 6v.26z"/><path class="cls-63" d="M25.94 57.31l10.39-6-.88-.51-10.39 6 .88.51z"/><path class="cls-64" d="M25.06 57.06l.88.51v-.26l-.88-.51v.26z"/><path class="cls-62" d="M34.05 61.99l.6-.34v-1.54l-.6.35v1.53z"/><path class="cls-64" d="M33.17 61.49l.88.5v-1.53l-.88-.51v1.54z"/><path class="cls-64" d="M33.17 59.95l.6-.35.88.51-.6.35-.88-.51z"/><path class="cls-62" d="M38.82 59.24l.86-.49v-1.54l-.86.5v1.53z"/><path class="cls-64" d="M37.94 58.74l.88.51v-1.54l-.88-.51v1.54zm.13-1.62l.6-.34.88.5-.6.35-.88-.51z"/><path class="cls-62" d="M43.84 56.34l.6-.35v-1.53l-.6.35v1.53z"/><path class="cls-64" d="M42.96 55.83l.88.51v-1.53l-.88-.51v1.53z"/><path class="cls-64" d="M42.96 54.3l.6-.35.88.51-.6.35-.88-.51z"/><path class="cls-62" d="M30 59.65l.6-.34v-1.54l-.6.35v1.53z"/><path class="cls-64" d="M29.11 59.14l.89.51v-1.53l-.89-.51v1.53z"/><path class="cls-64" d="M29.11 57.61l.6-.35.89.51-.6.35-.89-.51z"/><path class="cls-62" d="M34.76 56.9l.86-.49v-1.54l-.86.5v1.53z"/><path class="cls-64" d="M33.88 56.4l.88.51v-1.54l-.88-.51v1.54zm.13-1.62l.6-.34.88.5-.6.35-.88-.51z"/><path class="cls-62" d="M39.79 54l.6-.35v-1.53l-.6.34V54z"/><path class="cls-64" d="M38.91 53.49l.88.51v-1.54l-.88-.51v1.54z"/><path class="cls-64" d="M38.91 51.95l.6-.34.88.51-.6.34-.88-.51z"/><path class="cls-62" d="M25.94 57.31l.6-.35v-1.53l-.6.34v1.54z"/><path class="cls-64" d="M25.06 56.8l.88.51v-1.54l-.88-.5v1.53z"/><path class="cls-64" d="M25.06 55.27l.6-.35.88.51-.6.34-.88-.5z"/><path class="cls-62" d="M30.71 54.56l.86-.5v-1.53l-.86.49v1.54z"/><path class="cls-64" d="M29.82 54.06l.89.5v-1.53l-.89-.51v1.54zm.13-1.62l.6-.35.89.51-.6.35-.89-.51z"/><path class="cls-62" d="M35.73 51.66l.6-.35v-1.54l-.6.35v1.54z"/><path class="cls-64" d="M34.85 51.15l.88.51v-1.54l-.88-.51v1.54z"/><path class="cls-64" d="M34.85 49.61l.6-.34.88.5-.6.35-.88-.51z"/><path class="cls-62" d="M34.05 60.72l10.39-6v-.26l-10.39 6v.26z"/><path class="cls-65" d="M34.05 60.46l10.39-6-.88-.51-10.39 6 .88.51z"/><path class="cls-64" d="M33.17 60.21l.88.51v-.26l-.88-.51v.26z"/><path class="cls-62" d="M30 58.38l10.39-6v-.26l-10.39 6v.26z"/><path class="cls-65" d="M30 58.12l10.39-6-.88-.51-10.4 6 .89.51z"/><path class="cls-64" d="M29.11 57.87l.89.51v-.26l-.89-.51v.26z"/><path class="cls-62" d="M25.94 56.04l10.39-6v-.27l-10.39 6v.27z"/><path class="cls-65" d="M25.94 55.77l10.39-6-.88-.5-10.39 6 .88.5z"/><path class="cls-64" d="M25.06 55.53l.88.51v-.27l-.88-.5v.26z"/><path class="cls-62" d="M34.05 60.46l-8.99-5.19v-.41l8.99 5.19v.41z"/><path class="cls-65" d="M34.05 60.05l-8.99-5.19.88-.51 8.99 5.19-.88.51z"/><path class="cls-66" d="M34.93 59.95l-.88.51v-.41l.88-.51v.41z"/><path class="cls-62" d="M36.43 59.09l-8.99-5.2v-.4l8.99 5.19v.41z"/><path class="cls-65" d="M36.43 58.68l-8.99-5.19.88-.51 8.99 5.19-.88.51z"/><path class="cls-66" d="M37.31 58.58l-.88.51v-.41l.88-.51v.41z"/><path class="cls-62" d="M38.81 57.71l-9-5.19v-.41l9 5.2v.4z"/><path class="cls-65" d="M38.81 57.31l-9-5.2.89-.5 8.99 5.19-.88.51z"/><path class="cls-66" d="M39.69 57.2l-.88.51v-.4l.88-.51v.4z"/><path class="cls-62" d="M41.19 56.34l-9-5.19v-.41l9 5.19v.41z"/><path class="cls-65" d="M41.19 55.93l-9-5.19.88-.51 9 5.19-.88.51z"/><path class="cls-66" d="M42.07 55.83l-.88.51v-.41l.88-.51v.41z"/><path class="cls-62" d="M43.56 54.97l-8.99-5.2v-.4l8.99 5.19v.41z"/><path class="cls-65" d="M43.56 54.56l-8.99-5.19.88-.51 8.99 5.19-.88.51z"/><path class="cls-66" d="M44.44 54.46l-.88.51v-.41l.88-.51v.41z"/><path class="cls-4" d="M21.46 51.05v27.68l-10-5.76-.17-.11-10-5.77V39.41l10 5.77.17.1 10 5.77z"/></g></g></svg>