<svg xmlns="http://www.w3.org/2000/svg" viewBox="0 0 74.54 77.1"><defs><style>.cls-3{fill:#3c6bc4}.cls-4{fill:#3e3e3e}.cls-6{fill:#f4f4f4}.cls-8{fill:#c29a77}.cls-9{fill:#94765a}</style></defs><g id="Слой_2" data-name="Слой 2"><g id="Layer_2" data-name="Layer 2"><path d="M74.54 45.18c0 2.11-1.54 4.34-4.56 6.08L50.83 62.31c-5.51 3.18-13.84 3.53-18.61.77l-29-16.74C1.06 45.09 0 43.42 0 41.67c0-2.11 1.54-4.34 4.56-6.08L23.7 24.54c5.51-3.18 13.84-3.52 18.61-.77l29 16.74c2.17 1.25 3.23 2.92 3.23 4.67z" fill="#5e96ff"/><path d="M74.54 45.18V57c0 2.08-1.54 4.31-4.54 6L50.83 74.1c-5.51 3.18-13.84 3.53-18.61.77l-29-16.74C1.06 56.88 0 55.21 0 53.46V41.67c0 1.75 1.06 3.42 3.22 4.67l29 16.74c4.77 2.75 13.1 2.41 18.61-.77L70 51.26c3-1.74 4.54-3.97 4.54-6.08z" fill="#457ce3"/><path class="cls-3" d="M0 41.67a4.47 4.47 0 00.92 2.55c1.25 1.71.11.55 26.25 15.36 5.31 3 6.66 4.09 9.83 4.55a21.71 21.71 0 0013.16-2s12.17-6.88 19.37-10.83c2.43-1.31 4.89-3.33 5-6.09.06 2.83-2.34 5-4.79 6.45-4.4 2.67-18.47 11.1-20.39 12-3.27 1.57-10.07 3-16 .62-2.21-1-26.19-15.28-30.54-18.02a7.11 7.11 0 01-2-1.94A4.56 4.56 0 010 41.67z"/><path class="cls-3" d="M0 45.55a4.47 4.47 0 00.92 2.55c1 1.44 2.11 1.83 6.9 4.47 21.79 12.09 24.44 14.06 26.59 14.8a21.28 21.28 0 0013.29-.31c3.08-1.09 3-1.55 21.85-11.9 2.44-1.32 4.89-3.33 5-6.09.06 2.84-2.36 5-4.79 6.45-4.39 2.66-18.47 11.1-20.39 12a22.09 22.09 0 01-15.3.89c-2.41-.84-27.72-16-31.25-18.24A5.43 5.43 0 010 45.55z"/><path class="cls-3" d="M0 49.43a5.43 5.43 0 003 4.34c4.46 2.51 2.11 1 24.22 13.57L32 70.1c4.43 2.65 10.78 2.54 15.7.83 2.37-.84 1.07-.39 19.41-10.57a30.52 30.52 0 004.74-2.83 6.5 6.5 0 002.69-4.6c.08 3.91-4.28 6.14-7.17 7.89C49.38 71.62 49.49 71.36 48 71.89a21.51 21.51 0 01-14.61.11C31.25 71.08 7.6 57 2.81 54A5.43 5.43 0 010 49.43z"/><path class="cls-3" d="M0 53.31a4.47 4.47 0 00.92 2.55C2.32 57.77 1 56.21 32 74c5 3 12.79 2.56 18.18-.24.8-.41 1.61-.9 2.41-1.35 18.58-10.5 17.81-9.8 19.26-11a8.51 8.51 0 001.84-2 5.12 5.12 0 00.86-2.59A6.47 6.47 0 0172 61.63a30.54 30.54 0 01-4.66 3.07C49.38 75.5 49.5 75.23 48 75.77a22.87 22.87 0 01-11.2 1.06 17.06 17.06 0 01-2.78-.7c-1.48-.52-1.18-.38-17-9.66C1.66 57.35 1.69 57.32.79 55.95A4.56 4.56 0 010 53.31z"/><path class="cls-4" d="M33.11 61.54l-29-16.74c-3.93-2.27-2.45-5.46 1.34-7.65L24.6 26.09c5.05-2.92 12.7-3.16 16.83-.77l29 16.74c3.93 2.27 2.45 5.47-1.34 7.65L49.94 60.76c-5.05 2.92-12.7 3.16-16.83.78z"/><path d="M33.4 60L7.05 44.83c-1.44-.83-2.2-1.87-2.2-3 0-1.45 1.25-3 3.42-4.26l17.4-10c4.52-2.61 11.61-2.93 15.47-.7L67.48 42c1.44.83 2.2 1.87 2.2 3 0 1.45-1.24 3-3.42 4.26l-17.4 10C44.35 62 37.27 62.27 33.4 60zm.19-.32c3.76 2.17 10.68 1.85 15.1-.7l17.4-10c2.05-1.18 3.23-2.62 3.23-3.94 0-1-.68-1.92-2-2.69L41 27.13c-3.76-2.17-10.68-1.85-15.1.7l-17.4 10c-2.1 1.23-3.28 2.67-3.28 3.98 0 1 .68 1.92 2 2.69z" fill="#545454"/><path class="cls-6" d="M8.63 57.78l-4.79-2.76v-2.46l4.79 2.77v2.45zm23.68 13.68l-4.79-2.77v-2.45L32.31 69v2.46z"/><path fill="#f2c799" d="M38.23 28.86L13.24 14.43 38.23 0l25 14.43-25 14.43z"/><path class="cls-8" d="M49.45 22.39L24.46 7.95l2.55-1.47 25 14.43-2.56 1.48z"/><path class="cls-9" d="M50.66 21.69L25.67 7.25l.13-.07 25 14.43-.14.08z"/><path fill="#e6bd91" d="M38.23 57.73L13.24 43.29V14.43l24.99 14.43v28.87z"/><path fill="#d9b389" d="M63.23 43.29l-25 14.44V28.86l25-14.43v28.86z"/><path class="cls-8" d="M52.01 20.91v28.86l-2.56 1.48V22.39l2.56-1.48z"/><path class="cls-9" d="M50.8 21.61v28.86l-.14.08V21.69l.14-.08z"/><path class="cls-4" d="M19.68 43.83l-3.22-1.86v-.49l3.22 1.86v.49z"/><path class="cls-4" d="M17.56 42.12l-.24-.15v-2.5l.24.14v2.51zm1.48.85l-.25-.14v-2.51l.25.14v2.51z"/><path class="cls-4" d="M17.44 38.2l.31 1.53-.62-.36.31-1.17zm1.17 2.01l.31-1.16.31 1.52-.62-.36zm15.55 11.58l.15.09v-4.31l-.15-.09v4.31zm-.68-.39l.47.27v-4.3l-.47-.28v4.31zm-.44-.26l.31.19v-4.31l-.31-.18v4.3zm-.59-.34l.46.27v-4.3l-.46-.28v4.31zm-.52-.3l.47.27v-4.3l-.47-.27v4.3zm-.48-.27l.39.22v-4.31l-.39-.22v4.31zm-.48-.28l.31.18v-4.31l-.31-.18v4.31zm-.44-.26l.15.09v-4.3l-.15-.09v4.3zm-.6-.34l.31.18v-4.31l-.31-.18v4.31zm-.44-.26l.15.09v-4.3l-.15-.09v4.3zm-.63-.36l.38.22v-4.31l-.38-.22v4.31zm-.41-.24l.16.09v-4.3l-.16-.09v4.3zm28.81-6.88l.7.06.65-1.67a1.21 1.21 0 01.2-.33c-.25.15-.8.46-.91.54a.82.82 0 00-.22.34zm1.27-1.1l.2.29-.19.23.74-.43.36-.95-.17.21-.17-.22a.15.15 0 00-.12-.06.43.43 0 00-.29.21 1 1 0 00-.12.21zm.57.78l.42.58.38-.22a.68.68 0 00.18-.15.6.6 0 00.16-.43.34.34 0 00-.06-.18l-.36-.48z"/><path class="cls-4" d="M58.65 43l.38.61v-.33l.47-.27a.45.45 0 00.13-.14 1 1 0 00.1-.19l.4-1.05a.76.76 0 01-.22.18l-.86.48V42zm-1.16.21l-.2.5a.73.73 0 00-.06.27c0 .09 0 .15.07.17s.24 0 .24 0l.76-.44v-.94zm-.82-.73h.21l-.19.49c-.12.3-.05.38-.05.38l.46.65a.75.75 0 01.06-.39l.44-1.08h.22l-.35-.53z"/><path class="cls-6" d="M23.64 30.37l-7.91-4.57v-4.75l7.91 4.57v4.75z"/><path d="M23.24 26.7l-7.11-4.1v-.71l7.11 4.1v.71zm0 1.41l-7.11-4.09v-.71l7.11 4.1v.7zm-2.55-.05l-4.56-2.63v-.7l4.56 2.62v.71z" fill="#858585"/></g></g></svg>