<svg xmlns="http://www.w3.org/2000/svg" viewBox="0 0 59.99 89.54"><defs><clipPath id="clip-path"><path class="cls-1" d="M21.79 86.42a2.6 2.6 0 00-.38 1.26.67.67 0 001.11.64 2.85 2.85 0 001.28-2.22.67.67 0 00-1.11-.64 2.6 2.6 0 00-.9.96z"/></clipPath><clipPath id="clip-path-2"><path class="cls-1" d="M3.66 75.95a2.6 2.6 0 00-.38 1.26.8.8 0 00.32.74.8.8 0 00.8-.09 2.6 2.6 0 00.9-1 2.6 2.6 0 00.38-1.26.8.8 0 00-.32-.74.8.8 0 00-.8.09 2.6 2.6 0 00-.9 1z"/></clipPath><clipPath id="clip-path-3"><path class="cls-1" d="M46.91 71.92a2.6 2.6 0 00-.38 1.26.67.67 0 001.11.64 2.84 2.84 0 001.28-2.21.67.67 0 00-1.11-.61 2.6 2.6 0 00-.9.92z"/></clipPath><style>.cls-1{fill:none}.cls-2{fill:#3e3e3e}.cls-5{fill:#cfcfcf}.cls-6{fill:#9d9d9d}.cls-7{fill:#5f5f5f}.cls-8{fill:#2a2a2a}.cls-9{fill:#3a3a3a}.cls-10{fill:#b3b3b3}.cls-11{fill:#828282}.cls-12{fill:#999}.cls-14{fill:#545454}.cls-15{fill:#6b6b6b}.cls-16{fill:#b5b5b5}.cls-17{fill:#717171}.cls-18{fill:#4e4e4e}.cls-19{fill:#e8e8e8}.cls-25{fill:#ecb68f}.cls-26{fill:#d23530}</style></defs><g id="Слой_2" data-name="Слой 2"><g id="Layer_2" data-name="Layer 2"><path class="cls-2" d="M53.72 58.26a9.08 9.08 0 012.51 2.84c.23.55-1.27 1.2-2.3 2.3-1.78 1.9-5.1 3-6.47 1.88a3.29 3.29 0 011.64-2.09c2.16-1.27 1.47-2 1.47-2z"/><path class="cls-2" d="M49.06 65.8s1.08 4.72-.15 5.36-6.84-1.64-8.27-3.47 5.06.07 6.28-2.84z"/><path d="M44.29 32.27s-5.23 16.28-.94 20.13a29.57 29.57 0 016.57 9.31 6.35 6.35 0 004.57-3.32s-4-8.62-6.14-10.18c0 0 6.08-10.86 3.26-15.5z" fill="#3b66c2"/><path d="M49.23 31.08s-2.76 16.65-1.94 19.42.63 11.19-2 14.56c0 0 2.7 3.72 5.56 2.71 0 0 4.82-11.62 3.31-16.84 0 0 6-13.55 2.84-19.41z" fill="#477beb"/><path class="cls-5" d="M19.74 83v3.27c0 .77.54 1.08 1.21.7a2.67 2.67 0 001.21-2.09l.11-3.21-.11-.06z"/><path class="cls-6" d="M19.85 83.09v3.27c0 .77.54 1.08 1.21.7a2.67 2.67 0 001.2-2.06v-3.31z"/><path class="cls-7" d="M20.54 86a1.14 1.14 0 01.52-.9c.29-.16.52 0 .52.3a1.14 1.14 0 01-.52.9c-.29.12-.52-.02-.52-.3z"/><path class="cls-8" d="M21.16 89.41a1 1 0 01-.35-.34 1.81 1.81 0 01-.25-1 4.54 4.54 0 012.05-3.56 1.8 1.8 0 011-.28 1 1 0 01.47.14l-1.58-.91a1.44 1.44 0 00-1.45.14A4.54 4.54 0 0019 87.16a1.44 1.44 0 00.6 1.33z"/><path class="cls-9" d="M22.61 89.26a4.54 4.54 0 002.05-3.56 1.45 1.45 0 00-.6-1.33 1 1 0 00-.47-.14 1.8 1.8 0 00-1 .28 4.54 4.54 0 00-2.05 3.56 1.81 1.81 0 00.25 1 1 1 0 00.35.34 1.44 1.44 0 001.47-.15z"/><path class="cls-10" d="M24 86.06c0-.92-.65-1.29-1.44-.83a3.19 3.19 0 00-1.44 2.49c0 .92.65 1.29 1.44.83A3.19 3.19 0 0024 86.06z"/><path class="cls-11" d="M23.49 85.37a.59.59 0 00-.39-.06 1.21 1.21 0 00-.41.16 2.85 2.85 0 00-1.28 2.21 1.22 1.22 0 00.07.43.59.59 0 00.25.31.8.8 0 00.8-.09 2.84 2.84 0 001.28-2.21.8.8 0 00-.32-.75z"/><path class="cls-12" d="M23.1 85.31a1.21 1.21 0 00-.41.16 2.85 2.85 0 00-1.28 2.21 1.22 1.22 0 00.07.43 1.16 1.16 0 00.41-.16 2.84 2.84 0 001.28-2.21 1.16 1.16 0 00-.07-.43z"/><g clip-path="url(#clip-path)"><path class="cls-8" d="M21.94 87.52a.32.32 0 01-.11-.1.55.55 0 01-.08-.3 1.38 1.38 0 01.63-1.12.55.55 0 01.3-.08.31.31 0 01.14 0l-.48-.28a.44.44 0 00-.44 0 1.38 1.38 0 00-.62 1.08.44.44 0 00.18.4z"/><path class="cls-9" d="M22.38 87.48A1.38 1.38 0 0023 86.4a.44.44 0 00-.18-.4.31.31 0 00-.14 0 .55.55 0 00-.3.08 1.38 1.38 0 00-.62 1.08.55.55 0 00.08.3.32.32 0 00.11.1.44.44 0 00.43-.08z"/><path class="cls-14" d="M22.67 86.26h-.09a.37.37 0 00-.17.05.9.9 0 00-.41.69.36.36 0 000 .18.22.22 0 00.07.07.29.29 0 00.29 0 .9.9 0 00.41-.7.28.28 0 00-.1-.29z"/><path class="cls-15" d="M22.55 86.24a.37.37 0 00-.17.05.9.9 0 00-.38.71.36.36 0 000 .18.37.37 0 00.17-.05.89.89 0 00.41-.7.37.37 0 00-.03-.19z"/></g><path class="cls-5" d="M21.72 84.16v3.27c0 .77.54 1.08 1.21.7a2.67 2.67 0 001.2-2.13l.11-3.21-.11-.06z"/><path class="cls-16" d="M21.82 84.22v3.27c0 .77.54 1.08 1.21.7a2.67 2.67 0 001.21-2.09v-3.27z"/><path class="cls-17" d="M23.12 87.55l.52-.66v-.7l-.18-.01-.34-.03-.53.65v.7l.53.05z"/><path class="cls-18" d="M23.12 87.22a.71.71 0 00.32-.55c0-.2-.14-.29-.32-.18a.71.71 0 00-.32.55c0 .19.14.28.32.18z"/><path class="cls-7" d="M23.21 87.27a.71.71 0 00.32-.55c0-.2-.14-.29-.32-.18a.71.71 0 00-.32.55c0 .2.11.28.32.18z"/><path class="cls-7" d="M22.59 87.5v-.7l.53-.65.34.03.18.01-.18-.1-.52-.04-.52.65v.69l.17.11z"/><path class="cls-5" d="M19.74 83.03v.13l2.08 1.2v-.14l-2.08-1.19z"/><path class="cls-19" d="M24.24 82.83l-2.42 1.39-2.07-1.19 2.41-1.4 2.08 1.2z"/><path class="cls-5" d="M1.61 72.55v3.27c0 .77.54 1.08 1.21.7A2.67 2.67 0 004 74.43l.11-3.21-.11-.06z"/><path class="cls-6" d="M1.71 72.61v3.27c0 .77.54 1.08 1.21.7a2.67 2.67 0 001.21-2.09v-3.27z"/><path class="cls-7" d="M2.4 75.48a1.14 1.14 0 01.52-.9c.29-.17.52 0 .52.3a1.14 1.14 0 01-.52.9c-.29.17-.52.03-.52-.3z"/><path class="cls-8" d="M3 78.93a1.05 1.05 0 01-.35-.34 1.81 1.81 0 01-.25-1A4.54 4.54 0 014.47 74a1.8 1.8 0 011-.28 1 1 0 01.47.14L4.35 73a1.44 1.44 0 00-1.45.14 4.54 4.54 0 00-2.06 3.55 1.44 1.44 0 00.6 1.31z"/><path class="cls-9" d="M4.47 78.79a4.54 4.54 0 002.05-3.56 1.45 1.45 0 00-.6-1.33 1 1 0 00-.47-.14 1.8 1.8 0 00-1 .28 4.54 4.54 0 00-2.03 3.56 1.81 1.81 0 00.25 1 1.05 1.05 0 00.35.34 1.44 1.44 0 001.45-.15z"/><path class="cls-10" d="M5.91 75.59c0-.92-.65-1.29-1.44-.83A3.19 3.19 0 003 77.25c0 .92.65 1.29 1.44.83a3.19 3.19 0 001.47-2.49z"/><path class="cls-11" d="M5.35 74.9a.59.59 0 00-.35-.06 1.21 1.21 0 00-.41.16 2.61 2.61 0 00-.9 1 2.6 2.6 0 00-.38 1.26 1.21 1.21 0 00.07.43.59.59 0 00.25.31.8.8 0 00.8-.09 2.6 2.6 0 00.9-1 2.6 2.6 0 00.38-1.26.8.8 0 00-.36-.75z"/><path class="cls-12" d="M5 74.84a1.21 1.21 0 00-.41.16 2.61 2.61 0 00-.9 1 2.6 2.6 0 00-.38 1.26 1.21 1.21 0 00.07.43 1.16 1.16 0 00.41-.16 2.58 2.58 0 00.9-1A2.59 2.59 0 005 75.27a1.16 1.16 0 000-.43z"/><g clip-path="url(#clip-path-2)"><path class="cls-8" d="M3.81 77a.32.32 0 01-.11-.1.55.55 0 01-.08-.3 1.38 1.38 0 01.62-1.08.55.55 0 01.3-.08.31.31 0 01.14 0l-.48-.28a.44.44 0 00-.44 0 1.38 1.38 0 00-.62 1.08.44.44 0 00.18.4z"/><path class="cls-9" d="M4.24 77a1.38 1.38 0 00.62-1.08.44.44 0 00-.18-.4.31.31 0 00-.14 0 .55.55 0 00-.3.08 1.38 1.38 0 00-.62 1.08.55.55 0 00.08.3.32.32 0 00.11.1.44.44 0 00.43-.08z"/><path class="cls-14" d="M4.53 75.79h-.09a.37.37 0 00-.17.05.9.9 0 00-.41.7.36.36 0 000 .18.22.22 0 00.07.07.29.29 0 00.29 0 .9.9 0 00.4-.7.28.28 0 00-.09-.3z"/><path class="cls-15" d="M4.42 75.76a.37.37 0 00-.17.05.9.9 0 00-.41.7.36.36 0 000 .18.37.37 0 00.17-.05.89.89 0 00.41-.7.37.37 0 000-.18z"/></g><path class="cls-5" d="M3.58 73.69V77c0 .77.54 1.08 1.21.7A2.67 2.67 0 006 75.57l.11-3.21L6 72.3z"/><path class="cls-16" d="M3.68 73.75V77c0 .77.54 1.08 1.21.7a2.67 2.67 0 001.21-2.07v-3.27z"/><path class="cls-17" d="M4.98 77.07l.52-.65v-.7l-.17-.01-.35-.03-.52.65v.7l.52.04z"/><path class="cls-18" d="M5 76.74a.71.71 0 00.32-.55c0-.2-.14-.29-.32-.18a.71.71 0 00-.32.55c-.02.2.12.29.32.18z"/><path class="cls-7" d="M5.07 76.79a.71.71 0 00.32-.55c0-.2-.14-.29-.32-.18a.71.71 0 00-.32.55c0 .2.14.29.32.18z"/><path class="cls-7" d="M4.46 77.03v-.7l.52-.65.35.03.17.01-.17-.1-.53-.05-.52.65v.7l.18.11z"/><path class="cls-5" d="M1.61 72.55v.14l2.07 1.2v-.14l-2.07-1.2z"/><path class="cls-19" d="M6.1 72.36l-2.42 1.39-2.07-1.2 2.41-1.39 2.08 1.2z"/><path class="cls-5" d="M44.86 68.53v3.27c0 .77.54 1.08 1.21.7a2.67 2.67 0 001.21-2.09l.11-3.21-.11-.06z"/><path class="cls-6" d="M45 68.59v3.27c0 .77.54 1.08 1.21.7a2.67 2.67 0 001.21-2.09v-3.28z"/><path class="cls-7" d="M45.65 71.46a1.14 1.14 0 01.52-.9c.29-.16.52 0 .52.3a1.14 1.14 0 01-.52.9c-.29.16-.52.03-.52-.3z"/><path class="cls-8" d="M46.27 74.91a1 1 0 01-.35-.34 1.81 1.81 0 01-.25-1A4.54 4.54 0 0147.72 70a1.8 1.8 0 011-.28 1 1 0 01.47.14L47.6 69a1.44 1.44 0 00-1.45.14 4.54 4.54 0 00-2.05 3.56 1.44 1.44 0 00.6 1.33z"/><path class="cls-9" d="M47.72 74.76a4.54 4.54 0 002.05-3.56 1.45 1.45 0 00-.6-1.33 1 1 0 00-.47-.14 1.8 1.8 0 00-1 .28 4.54 4.54 0 00-2.05 3.56 1.81 1.81 0 00.25 1 1 1 0 00.35.34 1.44 1.44 0 001.47-.15z"/><path class="cls-10" d="M49.16 71.56c0-.92-.65-1.29-1.44-.83a3.19 3.19 0 00-1.44 2.49c0 .92.65 1.29 1.44.83a3.19 3.19 0 001.44-2.49z"/><path class="cls-11" d="M48.6 70.87a.59.59 0 00-.39-.06 1.21 1.21 0 00-.41.16 2.85 2.85 0 00-1.28 2.21 1.22 1.22 0 00.07.43.59.59 0 00.25.31.8.8 0 00.79-.09 2.84 2.84 0 001.28-2.21.8.8 0 00-.31-.75z"/><path class="cls-12" d="M48.21 70.81a1.21 1.21 0 00-.41.16 2.85 2.85 0 00-1.28 2.21 1.22 1.22 0 00.07.43 1.16 1.16 0 00.41-.16 2.84 2.84 0 001.28-2.21 1.16 1.16 0 00-.07-.43z"/><g clip-path="url(#clip-path-3)"><path class="cls-8" d="M47.06 73a.32.32 0 01-.11-.1.55.55 0 01-.08-.3 1.38 1.38 0 01.62-1.08.55.55 0 01.3-.08.31.31 0 01.14 0l-.48-.28a.44.44 0 00-.44 0 1.38 1.38 0 00-.62 1.08.44.44 0 00.18.4z"/><path class="cls-9" d="M47.5 73a1.38 1.38 0 00.62-1.08.44.44 0 00-.18-.4.31.31 0 00-.14 0 .55.55 0 00-.3.08 1.38 1.38 0 00-.62 1.08.55.55 0 00.08.3.32.32 0 00.11.1.44.44 0 00.43-.08z"/><path class="cls-14" d="M47.78 71.76h-.09a.37.37 0 00-.17.05.9.9 0 00-.41.7.36.36 0 000 .18.22.22 0 00.07.07.29.29 0 00.29 0 .9.9 0 00.41-.7.28.28 0 00-.1-.3z"/><path class="cls-15" d="M47.67 71.74a.37.37 0 00-.17.05.9.9 0 00-.41.7.36.36 0 000 .18.37.37 0 00.17-.05.89.89 0 00.4-.7.37.37 0 00.01-.18z"/></g><path class="cls-5" d="M46.83 69.66v3.27c0 .77.54 1.08 1.21.7a2.67 2.67 0 001.21-2.09l.11-3.21-.11-.06z"/><path class="cls-16" d="M46.93 69.73V73c0 .77.54 1.08 1.21.7a2.67 2.67 0 001.21-2.09v-3.28z"/><path class="cls-17" d="M48.23 73.05l.53-.66v-.7l-.18-.01-.35-.03-.52.65v.7l.52.05z"/><path class="cls-18" d="M48.23 72.72a.71.71 0 00.32-.55c0-.2-.14-.29-.32-.18a.71.71 0 00-.32.55c0 .2.14.28.32.18z"/><path class="cls-7" d="M48.32 72.77a.71.71 0 00.32-.55c0-.2-.14-.29-.32-.18a.71.71 0 00-.32.55c0 .2.14.28.32.18z"/><path class="cls-7" d="M47.71 73v-.7l.52-.65.35.03.18.01-.18-.1-.53-.04-.52.65v.7l.18.1z"/><path class="cls-5" d="M44.86 68.53v.13l2.08 1.2v-.14l-2.08-1.19z"/><path class="cls-19" d="M49.35 68.33l-2.42 1.4-2.07-1.2 2.41-1.4 2.08 1.2z"/><path fill="#4e8bff" d="M0 73.19v.96l19.81 11.44v-.96L0 73.19z"/><path fill="#457ce3" d="M50.4 66.97v.95L19.81 85.59v-.96L50.4 66.97z"/><path fill="#5e96ff" d="M19.81 84.63L50.4 66.97 30.59 55.53 0 73.19l19.81 11.44z"/><path class="cls-11" d="M48.3 67.5a.62.62 0 01-.62-.62V47a.62.62 0 01.18-.44l5.23-5.23a.62.62 0 01.88.88l-5 5v19.67a.62.62 0 01-.67.62zM30.78 57.39a.62.62 0 01-.62-.62V36.89a.62.62 0 01.18-.44l5.23-5.23a.62.62 0 11.88.88l-5 5v19.67a.62.62 0 01-.67.62z"/><path class="cls-11" d="M53.52 42.41a.62.62 0 01-.31-.08L35.69 32.21a.62.62 0 01.62-1.08l17.53 10.11a.62.62 0 01-.31 1.16zm-5.22 12.5a.62.62 0 01-.31-.08L30.47 44.71a.62.62 0 01.62-1.08l17.52 10.12a.62.62 0 01-.31 1.16z"/><path class="cls-11" d="M39.54 62.45a.62.62 0 01-.62-.62v-12.6a.62.62 0 011.25 0v12.59a.62.62 0 01-.63.63z"/><path class="cls-25" d="M42.82 18.77S38.7 29 37.62 30.48c-1.23 1.62-1.42 1.91-.66 3.2a1.68 1.68 0 001.64.83.6.6 0 00.56-.67c-.09-.66.25-1.07.77-.54 0 0 .76.61.62-.15-.28-1.55-.93-2-.33-3.5s6.84-8.34 5.92-10.43z"/><path class="cls-26" d="M42.16 19.58s3.42.75 4.16 1.56 3-10.62 3-10.62a8.41 8.41 0 00-5.64 4.24 13.74 13.74 0 00-1.52 4.82z"/><path class="cls-26" d="M57.92 34.26c0 .78-9.84 3.74-14-1.9 0 0 2.2-6.45.29-12.3A7.68 7.68 0 0146 12.67a6.59 6.59 0 016.79-2.17 10.48 10.48 0 015.93 3.7c3.08 4.27-.31 10.8-.8 20.06z"/><path d="M55 8.87a7.3 7.3 0 00.1 2.42c.09.55-2.93 2.31-3.47 2.07A2.15 2.15 0 0150.18 11a6.89 6.89 0 00.21-2.49z" fill="#e3af8a"/><path class="cls-25" d="M57.09 4.88s.15 4.87-4.51 5.64a2.89 2.89 0 01-3.14-1.72 10.66 10.66 0 01-.63-4.8 3.75 3.75 0 014.56-3c3.8.78 3.72 3.88 3.72 3.88z"/><path d="M48.62 4.44s1.45-.8 4.95.72c.22.1.55 1 .73.93 2.89-1.38 1.09 3.1 1.09 3.1s1.2 0 1.62-3.37-.85-6.7-5.33-5.6a3.7 3.7 0 00-3.06 4.22z" fill="#484848"/><path class="cls-25" d="M54.8 20.74a13.24 13.24 0 00-.21 3.55 1 1 0 01-.1.64c-.93 1.7-5.36 9.65-7.1 10.62-2 1.08-2.72 3-.78 3.92 1.26.57 1.55-.19 1.59-.79a1 1 0 01.53-.81A1.93 1.93 0 0050 36.1c0-1.54 10.15-7.15 8.91-15.66a1 1 0 00-.16-.4c-.35-.51-1.43-1.61-3.6.11a1 1 0 00-.35.59z"/><path class="cls-26" d="M54 21.66s4.25 0 5.43 1.63c0 0 1.11-6.4-.39-8-2.65-2.86-5.04 1.89-5.04 6.37z"/></g></g></svg>