<svg xmlns="http://www.w3.org/2000/svg" viewBox="0 0 90.81 81.85"><defs><style>.cls-3{fill:#8a0101}.cls-4{fill:#6998ff}.cls-5{fill:#3b65c2}.cls-6{fill:#999}.cls-7{fill:#f4f4f4}.cls-8{fill:#ddd}.cls-9{fill:#afafaf}.cls-10{fill:#828282}.cls-11{fill:#fff}.cls-13{fill:#495255}.cls-14{fill:#71767c}.cls-15{fill:#62666a}</style></defs><g id="Слой_2" data-name="Слой 2"><g id="Layer_2" data-name="Layer 2"><path d="M43 52.8v29.05l-7.78-4.49L8.43 61.91l-7.78-4.5V28.36Q21.82 23.24 43 52.8z" fill="#d23530"/><path d="M90.81 25.2l-.37.21-1.52.89-.37.21-22.9 13.21L43 52.8Q21.82 23.24.65 28.36L45.92 2.23l.65-.37 1.26-.73.64-.37Q69.64-4.36 90.81 25.2z" fill="#477beb"/><path class="cls-3" d="M90.81 25.2v29.05L43 81.85V52.8l22.65-13.08L90.81 25.2z"/><path class="cls-4" d="M44.89 51.7L43 52.8a97.22 97.22 0 00-10.59-12.61 53 53 0 00-10.59-8.28Q11.24 25.8.65 28.36l1.9-1.1q10.58-2.56 21.17 3.55a53 53 0 0110.58 8.28A97.28 97.28 0 0144.89 51.7z"/><path class="cls-4" d="M6.39 25l1.9-1.1q10.58-2.56 21.17 3.55A53 53 0 0140 35.78a97.27 97.27 0 0110.63 12.61l-1.9 1.1a97.22 97.22 0 00-10.58-12.62 53 53 0 00-10.59-8.27Q17 22.49 6.39 25z"/><path class="cls-4" d="M12.13 21.73l1.9-1.1q10.58-2.56 21.17 3.55a53 53 0 0110.58 8.28 97.25 97.25 0 0110.59 12.61l-1.9 1.1a97.21 97.21 0 00-10.58-12.61 53 53 0 00-10.59-8.28q-10.58-6.11-21.17-3.55z"/><path class="cls-4" d="M17.87 18.42l1.9-1.1q10.58-2.56 21.17 3.55a53 53 0 0110.58 8.28 97.23 97.23 0 0110.59 12.61l-1.9 1.1a97.2 97.2 0 00-10.58-12.61A53 53 0 0039 22q-10.54-6.14-21.13-3.58z"/><path class="cls-5" d="M88.91 26.29l-.37.21a96 96 0 00-10.21-12.09 58.49 58.49 0 00-10.59-8.28 29.34 29.34 0 00-21.82-3.9l.65-.37Q57.15-.7 67.74 5.4a52.83 52.83 0 0110.59 8.28 97.38 97.38 0 0110.58 12.61z"/><path class="cls-5" d="M83.17 29.61l-.37.21a96 96 0 00-10.21-12.09A58.48 58.48 0 0062 9.45a29.34 29.34 0 00-21.82-3.9l.65-.37Q51.41 2.61 62 8.71A52.82 52.82 0 0172.59 17a97.38 97.38 0 0110.58 12.61z"/><path class="cls-5" d="M77.43 32.92l-.37.21A96 96 0 0066.85 21a58.49 58.49 0 00-10.59-8.28 29.34 29.34 0 00-21.82-3.9l.65-.37Q45.67 5.92 56.26 12a52.83 52.83 0 0110.59 8.28 97.38 97.38 0 0110.58 12.64z"/><path class="cls-5" d="M71.69 36.23l-.37.21a96 96 0 00-10.21-12.09 58.48 58.48 0 00-10.59-8.28 29.34 29.34 0 00-21.82-3.9l.65-.37q10.58-2.56 21.17 3.55a52.83 52.83 0 0110.59 8.28 97.38 97.38 0 0110.58 12.6z"/><path class="cls-5" d="M66 39.55l-.37.21a96 96 0 00-10.26-12.1 58.48 58.48 0 00-10.59-8.28A29.34 29.34 0 0023 15.48l.65-.37q10.58-2.56 21.17 3.55a52.82 52.82 0 0110.59 8.28A97.37 97.37 0 0166 39.55z"/><path class="cls-5" d="M60.22 42.86l-.37.21A96 96 0 0049.63 31 58.48 58.48 0 0039 22.7a29.34 29.34 0 00-21.82-3.9l.65-.37Q28.45 15.86 39 22a52.83 52.83 0 0110.59 8.28 97.38 97.38 0 0110.63 12.58z"/><path class="cls-5" d="M54.48 46.17l-.37.21a96 96 0 00-10.22-12.09A58.48 58.48 0 0033.3 26a29.34 29.34 0 00-21.82-3.9l.65-.37q10.58-2.56 21.17 3.55a52.82 52.82 0 0110.59 8.28 97.39 97.39 0 0110.59 12.61z"/><path class="cls-5" d="M48.74 49.49l-.37.21a96 96 0 00-10.22-12.1 58.48 58.48 0 00-10.59-8.28 29.34 29.34 0 00-21.82-3.9l.65-.42Q17 22.49 27.56 28.59a52.82 52.82 0 0110.59 8.28 97.37 97.37 0 0110.59 12.62z"/><path class="cls-5" d="M43 52.8l-.37.21a96 96 0 00-10.22-12.09 58.48 58.48 0 00-10.59-8.28A29.34 29.34 0 000 28.73l.65-.37q10.58-2.56 21.17 3.55a52.83 52.83 0 0110.59 8.28A97.38 97.38 0 0143 52.8z"/><path class="cls-4" d="M23.61 15.11l1.9-1.1q10.58-2.56 21.17 3.55a53 53 0 0110.58 8.28 97.22 97.22 0 0110.59 12.61L66 39.55a97.19 97.19 0 00-10.63-12.62 53 53 0 00-10.59-8.28q-10.58-6.1-21.17-3.54z"/><path class="cls-4" d="M29.35 11.8l1.9-1.1q10.58-2.56 21.17 3.55A53 53 0 0163 22.52a97.2 97.2 0 0110.59 12.62l-1.9 1.1a97.17 97.17 0 00-10.58-12.62 53 53 0 00-10.59-8.28Q39.94 9.23 29.35 11.8z"/><path class="cls-4" d="M35.09 8.48L37 7.38q10.58-2.56 21.17 3.55a53 53 0 0110.59 8.28 97.17 97.17 0 0110.57 12.61l-1.9 1.1a97.16 97.16 0 00-10.58-12.61A53 53 0 0056.26 12Q45.68 5.92 35.09 8.48z"/><path class="cls-4" d="M40.83 5.17l1.9-1.1Q53.32 1.51 63.9 7.62a52.94 52.94 0 0110.59 8.28 97.15 97.15 0 0110.58 12.61l-1.9 1.1A97.15 97.15 0 0072.59 17 52.94 52.94 0 0062 8.72Q51.42 2.61 40.83 5.17z"/><path class="cls-4" d="M90.81 25.2l-.37.21-1.52.89a97.38 97.38 0 00-10.59-12.62A52.83 52.83 0 0067.74 5.4Q57.16-.71 46.57 1.86l1.27-.73.63-.37Q59.05-1.8 69.64 4.3a52.82 52.82 0 0110.59 8.28A97.36 97.36 0 0190.81 25.2z"/><path class="cls-6" d="M35.22 51.69v25.67L8.43 61.91V36.24l1.45.83 25.34 14.62z"/><path class="cls-3" d="M9.88 37.07v24l-1.45.84V36.24l1.45.83z"/><path class="cls-7" d="M35.22 75.69L9.88 61.07l-1.45.84 26.79 15.45v-1.67z"/><path class="cls-8" d="M35.22 75.69L9.88 61.07v-8.98l13.01-7.51 12.33 7.11v24z"/><path class="cls-9" d="M9.88 61.07l5.68-3.25-2.15-7.77-3.53 2.04v8.98z"/><path class="cls-10" d="M13.41 50.05V39.11l-3.53-2.04v15.02l3.53-2.04z"/><path class="cls-11" d="M35.22 51.69v3l-28-16.13v-3z"/><path class="cls-8" d="M8.7 34.73l-1.44.83 27.96 16.13 1.44-.83L8.7 34.73z"/><path fill="#c7c7c7" d="M36.66 53.84l-1.44.83v-2.98l1.44-.83v2.98z"/><path class="cls-13" d="M51.38 59.5l9.6-5.54v-7.58l-9.6 5.54v7.58z"/><path class="cls-10" d="M60.4 47.38v6.25l-4.94 2.84-2.92 1.7-.58.33v-6.25l4.29-2.47 2.92-1.69 1.23-.71z"/><path class="cls-14" d="M51.38 51.92l-.48-.28 9.59-5.54.49.28-9.6 5.54zm.58 6.02v.56l8.44-4.87-.48-.28-7.96 4.59z"/><path class="cls-9" d="M51.96 57.39v.55l7.96-4.59-.48-.28-7.48 4.32z"/><path class="cls-15" d="M51.38 59.5l-.48-.28v-7.58l.48.28v7.58zm8.54-11.85v5.7l.48.28v-6.25l-.48.27z"/><path class="cls-6" d="M59.44 47.93v5.14l.48.28v-5.7l-.48.28z"/><path class="cls-13" d="M64.07 52.18l9.6-5.55v-7.58l-9.6 5.54v7.59z"/><path class="cls-10" d="M73.09 40.05v6.25l-5.2 3-2.91 1.68-.33.19v-6.24l4.04-2.34 2.9-1.68 1.5-.86z"/><path class="cls-14" d="M64.07 44.59l-.48-.28 9.59-5.54.49.28-9.6 5.54zm.58 6.03v.55l8.44-4.87-.48-.28-7.96 4.6z"/><path class="cls-9" d="M64.65 50.06v.56l7.96-4.6-.49-.28-7.47 4.32z"/><path class="cls-15" d="M64.07 52.18l-.48-.28v-7.59l.48.28v7.59zm8.54-11.85v5.69l.48.28v-6.25l-.48.28z"/><path class="cls-6" d="M72.12 40.61v5.13l.49.28v-5.69l-.49.28z"/><path class="cls-13" d="M76.76 44.85l9.59-5.54v-7.59l-9.59 5.54v7.59z"/><path class="cls-10" d="M85.77 32.73v6.25l-5.34 3.08-2.92 1.68-.17.1V37.6l3.88-2.24 2.92-1.69 1.63-.94z"/><path class="cls-14" d="M76.76 37.26l-.48-.27 9.59-5.54.48.27-9.59 5.54zm.58 6.03v.56l8.44-4.87-.49-.28-7.95 4.59z"/><path class="cls-9" d="M77.34 42.74v.55l7.95-4.59-.48-.28-7.47 4.32z"/><path class="cls-15" d="M76.76 44.85l-.48-.28v-7.58l.48.27v7.59zM85.29 33v5.7l.49.28v-6.25l-.49.27z"/><path class="cls-6" d="M84.81 33.28v5.14l.48.28V33l-.48.28z"/><path class="cls-11" d="M11.23 33.43l-.58-3.16.51.29.37 2.15L12 31l.59.34.41 2.25.38-1.76.5.29-.59 2.48-.52-.3-.49-2.39-.49 1.83zm4.89 2.83l-.54-.31-.21-.77-1-.56-.2.53-.52-.3 1-2.28.52.3zm-.91-1.64l-.34-1.24-.33.86zm1.18 1.79v-2.83l1 .6a2.8 2.8 0 01.57.4 1.33 1.33 0 01.28.43 1.31 1.31 0 01.11.51.5.5 0 01-.16.43.51.51 0 01-.48 0 2.77 2.77 0 01.26.39 6.7 6.7 0 01.28.62l.3.72-.55-.34-.36-.82q-.19-.44-.26-.57a.9.9 0 00-.15-.2 1.28 1.28 0 00-.25-.18l-.1-.06v1.18zm.49-1.35l.37.21a2.25 2.25 0 00.44.22.14.14 0 00.14 0 .27.27 0 00.05-.18.57.57 0 00-.07-.27.66.66 0 00-.19-.22l-.36-.22-.39-.22zm1.98 2.77V35l1.81 1v.48l-1.32-.76v.63l1.23.71v.48l-1.23-.71v.77l1.37.79v.48zm2.28 1.32v-2.83l.49.29v1.11l1 .56v-1.11l.49.29v2.83L22.6 40v-1.24l-1-.56v1.24zm2.36-.03a1.54 1.54 0 01.11-.66.61.61 0 01.23-.26.5.5 0 01.32-.07 1.32 1.32 0 01.53.19 2.31 2.31 0 01.87.89 2.53 2.53 0 01.32 1.26q0 .68-.32.88a.83.83 0 01-.86-.11 2.31 2.31 0 01-.87-.89 2.49 2.49 0 01-.33-1.23zm.51.27a1.75 1.75 0 00.19.84 1.29 1.29 0 00.49.53.43.43 0 00.48 0q.19-.14.19-.63a1.74 1.74 0 00-.18-.83 1.28 1.28 0 00-.49-.52.44.44 0 00-.49 0q-.2.13-.2.62zm2.25-.11l.49.29v1.53a4 4 0 000 .48.9.9 0 00.15.37 1 1 0 00.33.29.42.42 0 00.32.08.2.2 0 00.13-.17 3.35 3.35 0 000-.47v-1.56l.49.29v1.48a3.92 3.92 0 010 .7.44.44 0 01-.15.27.39.39 0 01-.29.06 1.28 1.28 0 01-.47-.19 2.25 2.25 0 01-.53-.4 1.82 1.82 0 01-.29-.41 1.48 1.48 0 01-.14-.39 4.45 4.45 0 010-.74zm2.35 3.26l.48.22a1.27 1.27 0 00.18.51 1 1 0 00.36.34.46.46 0 00.36.09.19.19 0 00.12-.2.44.44 0 00-.05-.2.92.92 0 00-.18-.23l-.4-.35a2.85 2.85 0 01-.56-.6 1.33 1.33 0 01-.23-.7.52.52 0 01.11-.34.34.34 0 01.31-.11 1.21 1.21 0 01.48.18 2 2 0 01.69.63 1.49 1.49 0 01.24.76l-.52-.25a.82.82 0 00-.45-.67.48.48 0 00-.34-.09c-.05 0-.08.06-.08.13a.4.4 0 00.07.21 2.63 2.63 0 00.45.45 4.72 4.72 0 01.53.51 1.65 1.65 0 01.27.44 1.32 1.32 0 01.1.51.6.6 0 01-.12.39.35.35 0 01-.33.12 1.4 1.4 0 01-.53-.2 2 2 0 01-.71-.66 2 2 0 01-.25-.89zM31 44.85V42l1.81 1v.48l-1.32-.76v.63l1.23.71v.48l-1.23-.71v.77l1.37.79v.48z"/><path class="cls-9" d="M35.22 66.32v2.9L11.65 55.55l.76-2.38 22.81 13.15z"/><path class="cls-7" d="M35.22 54.67v11.65L12.41 53.17l-3.25-1.89V39.63l26.06 15.04z"/><path class="cls-8" transform="rotate(-60.01 22.188 47.15)" d="M22.1 32.1h.18v30.09h-.18z"/><path class="cls-8" transform="rotate(-60.01 22.183 49.48)" d="M22.1 34.43h.18v30.09h-.18z"/><path class="cls-8" transform="rotate(-60.01 22.19 51.805)" d="M22.1 36.76h.18v30.09h-.18z"/><path class="cls-8" transform="rotate(-60.01 22.185 54.134)" d="M22.1 39.1h.18v30.09h-.18z"/><path class="cls-8" transform="rotate(-60.01 22.188 56.468)" d="M22.1 41.43h.18v30.09h-.18z"/><path class="cls-8" transform="rotate(-60.01 22.183 58.797)" d="M22.1 43.76h.18v30.09h-.18z"/></g></g></svg>