<svg xmlns="http://www.w3.org/2000/svg" viewBox="0 0 288.64 223.48"><defs><clipPath id="clip-path"><path class="cls-1" d="M220.66 124.48l-1.23 27.54 19.39-11.27.21-26.88-18.37 10.61z"/></clipPath><clipPath id="clip-path-2"><path class="cls-1" d="M178.52 148.82l-1.23 27.54 19.39-11.27.21-26.88-18.37 10.61z"/></clipPath><clipPath id="clip-path-3"><path class="cls-1" d="M209.29 19.46L105.25 79.58 52.24 62.09 156.33 1.97l52.96 17.49z"/></clipPath><clipPath id="clip-path-4"><path class="cls-1" d="M257.12 60.8l-104.04 60.12-47.83-41.34 104.04-60.12 47.83 41.34z"/></clipPath><linearGradient id="linear-gradient" x1="144.83" y1="149.47" x2="149.54" y2="149.47" gradientUnits="userSpaceOnUse"><stop offset="0" stop-color="#b8cbe0"/><stop offset=".12" stop-color="#bdcfe2"/><stop offset=".26" stop-color="#cddae9"/><stop offset=".43" stop-color="#e7edf4"/><stop offset=".55" stop-color="#fff"/></linearGradient><linearGradient id="linear-gradient-2" x1="146.32" y1="147.4" x2="148.03" y2="147.4" gradientUnits="userSpaceOnUse"><stop offset="0" stop-color="#99a8ba"/><stop offset=".17" stop-color="#9dadbf"/><stop offset=".39" stop-color="#aabbcf"/><stop offset=".55" stop-color="#b8cbe0"/></linearGradient><linearGradient id="linear-gradient-3" x1="151.53" y1="144.83" x2="150.33" y2="142.36" gradientUnits="userSpaceOnUse"><stop offset="0" stop-color="#9babbd"/><stop offset=".09" stop-color="#a0b0c1"/><stop offset=".2" stop-color="#b0bece"/><stop offset=".32" stop-color="#cad5e2"/><stop offset=".44" stop-color="#e9f1fa"/></linearGradient><style>.cls-1{fill:none}.cls-2{isolation:isolate}.cls-3{fill:#e4ecf5}.cls-4{fill:#fff}.cls-5{fill:#bdf291}.cls-6{fill:#d2e4f7;mix-blend-mode:multiply}.cls-7{fill:#b8cbe0}.cls-11{fill:#cedef0}.cls-13{fill:#6788ab}.cls-14{fill:#4d637a}.cls-16{fill:#596e85}.cls-17{fill:#2b3845}.cls-18{fill:#5c7a99}.cls-19{fill:#738fad}.cls-20{fill:#3e4d5d}.cls-21{fill:#f2f6fa}.cls-23{fill:#ccdbeb}.cls-24{fill:#ffc936}.cls-25{fill:#25303b}.cls-26{fill:#3f546e}.cls-28{fill:#a9bed6}.cls-29{fill:#89a8c7}.cls-86{fill:#84a1bf}.cls-87{fill:#465f7a}.cls-89{fill:#577391}</style></defs><g class="cls-2"><g id="Слой_2" data-name="Слой 2"><g id="_лой_1" data-name="—лой_1"><g id="building"><path class="cls-3" d="M288.64 127.99l-165.49 95.49L0 152.76l165.49-95.5 123.15 70.73z"/><path class="cls-4" d="M84.89 183.68l28.55-16.35 1.2.7-28.55 16.35-1.2-.7zm18.78 10.71l28.56-16.35 1.2.69-28.55 16.35-1.21-.69zm18.69 10.67l28.56-16.35 1.2.7-28.56 16.35-1.2-.7zM120 179.91a1.06 1.06 0 00-.4-.38l-8.06-4.65a1.79 1.79 0 00-1.68 0l-8 4.66a.81.81 0 00-.39 1.12 1.07 1.07 0 00.4.38l8.13 4.66a1.73 1.73 0 001.62 0l8.07-4.66a.83.83 0 00.31-1.13zm-.67.61l-8.07 4.66a1.13 1.13 0 01-1 0l-8.09-4.67a.49.49 0 01-.18-.16c-.07-.13.08-.24.18-.3l8-4.65a1.2 1.2 0 011.08 0l8.06 4.65a.49.49 0 01.18.16c.08.12-.05.25-.15.31z"/><path class="cls-4" d="M114.2 178.3l-1.9-1.1-6.88 4 1.17.67 1.94-1.12.73.42c3.79 2.17 8.74-.68 4.94-2.87zm-3.93 2.27l-.74-.42 2.92-1.68.74.42c2.24 1.29-.68 2.97-2.92 1.68z"/><path class="cls-5" d="M73.8 121.53L26.08 149.5l-10.1-5.83 47.72-27.98 10.1 5.84z"/><path class="cls-6" d="M152.12 189.41l-24.47-9.14-34.91-20.12-11.6 6.91 10.65 6.55-1.8 1.05-2.7-1.01-51.66-29.74 14.6-8.56-10.16-5.8 124.1-73.21-12.05 133.07z"/><path class="cls-5" d="M216.2 105.5l47.72 27.98 17.56-9.81-47.72-27.97-17.56 9.8z"/><path class="cls-7" d="M152.12 120.07v69.34L108.3 164.4v-5.02l-41.44-23.89-4.83 2.26-8.05-4.56V63.86l8.05 2.91 43.22 15.62 3.05 2.46 43.82 35.22z"/><path fill="#ff624d" d="M66.86 135.49l-4.83 2.26V67.17l4.83 2.16v66.16z"/><path fill="#8daccc" d="M108.3 83.11v76.27l-41.44-23.89V69.33l41.44 13.78z"/><path fill="#7b99b8" d="M67.46 135.1V69.53l-.6-.2v66.16l41.44 23.89v-.74L67.46 135.1z"/><path class="cls-6" d="M108.3 83.11v6.26l-4.36-3.3-37.08-12.48v-4.26l41.44 13.78z"/><path class="cls-11" d="M256.16 129.28l-104.04 60.13v-69.34l104.04-60.12v69.33z"/><path fill="#7996b5" d="M256.16 129.28l-104.04 60.13v-8.13l104.04-60.12v8.12z"/><path class="cls-13" d="M77.33 141.53l-.63.41-1.03-72.23 1.66.96v70.86z"/><path class="cls-14" d="M76.7 141.94l-1.67-.97V69.71l1.67.96v71.27z"/><path class="cls-13" d="M98.46 153.73l-.64.4-1.03-74.95 1.67.97v73.58z"/><path class="cls-14" d="M97.82 154.13l-1.67-.96.22-74.23 1.67.96-.22 74.23z"/><path class="cls-13" d="M88.18 108.28l-1.66-.96V75.61l1.66.96v31.71z"/><path class="cls-14" d="M87.58 107.77l-1.67-.96V75.1l1.67.96v31.71z"/><path d="M152.12 120.07v69.34L108.3 164.4V84.85l43.82 35.22zm-90.09-53.3v70.98l-8.05-4.56V63.86l8.05 2.91z" fill="#ba3e2f"/><path class="cls-6" d="M108.3 126.14l-7.45 28.95-2.38-1.38-.65.42-1.67-.96-.01-.8-18.81-10.84-.63.41-1.67-.97v-.77l-8.17-4.71-4.83 2.26-8.05-4.56L66.86 99.3l41.44 26.84z"/><path class="cls-16" d="M257.12 64.33l-104.04 60.12v-3.53L257.12 60.8v3.53z"/><path class="cls-17" d="M105.25 79.58l.56.48-.56 3.05-53.01-17.49v-3.53l53.01 17.49z"/><path class="cls-17" d="M153.08 120.92v3.53L105.1 83.06l.15-3.48 47.83 41.34z"/><path class="cls-18" d="M209.29 19.46L105.25 79.58 52.24 62.09 156.33 1.97l52.96 17.49z"/><path class="cls-19" d="M257.12 60.8l-104.04 60.12-47.83-41.34 104.04-60.12 47.83 41.34zm-10.68 43.24l-3.67-2.14-30.47 17.59 3.62 3.25 30.52-18.7z"/><path class="cls-20" d="M214.41 155.93l-2.11-1.24v-35.2l3.9 2.3-1.79 34.14z"/><path class="cls-16" d="M244.87 138.34l-4.87 2.82-1.17-.81-19.39 11.35-.1 1.38-4.93 2.85 1.56-34.3 30.47-17.59-1.57 34.3z"/><path class="cls-20" d="M241.23 112.61l-2.63 1.51.22 26.63 1.18.41 1.23-28.55z"/><path class="cls-21" d="M220.66 124.48l-1.23 27.54 19.39-11.27.21-26.88-18.37 10.61z"/><g clip-path="url(#clip-path)"><path class="cls-4" transform="rotate(-29.96 229.765 123.154)" d="M217.36 122.99h24.72v.3h-24.72z"/><path class="cls-4" transform="rotate(-29.96 229.502 127.73)" d="M217.11 127.56h24.72v.3h-24.72z"/><path class="cls-4" d="M218.66 138.56l-.15-.26 21.43-12.33.15.26-21.43 12.33zm-.16 4.54l-.15-.26 21.42-12.33.15.26-21.42 12.33z"/><path class="cls-4" transform="rotate(-29.97 228.956 141.317)" d="M216.58 141.15h24.72v.3h-24.72z"/><path class="cls-23" d="M219.16 129.7l-.15-.26 21.42-12.33.15.26-21.42 12.33zm-.25 4.58l-.15-.27 21.42-12.32.15.26-21.42 12.33zm-.17 4.55l-.15-.26 21.42-12.33.15.26-21.42 12.33zm-.17 4.54l-.15-.26 21.43-12.33.15.26-21.43 12.33zm-.19 4.5l-.15-.26 21.42-12.33.15.26-21.42 12.33z"/></g><path class="cls-24" d="M219.36 128.8l-.83.48.09-1.95.83-.48-.09 1.95zm-.13 3.1l-.83.48.08-1.95.83-.48-.08 1.95zm-.13 3.11l-.84.48.09-1.96.83-.47-.08 1.95zm-.13 3.1l-.84.48.09-1.95.83-.48-.08 1.95zm-.14 3.11l-.83.48.09-1.96.83-.48-.09 1.96zm-.13 3.1l-.83.48.09-1.95.83-.48-.09 1.95zm-.13 3.1l-.83.48.08-1.95.84-.48-.09 1.95zm-.13 3.11l-.83.48.08-1.95.84-.48-.09 1.95zm24.58-35.11l-.83.48.08-1.96.83-.47-.08 1.95zm-.13 3.1l-.83.48.08-1.95.83-.48-.08 1.95zm-.14 3.11l-.83.48.09-1.96.83-.48-.09 1.96zm-.13 3.1l-.83.48.09-1.95.83-.48-.09 1.95zm-.13 3.1l-.83.48.09-1.95.83-.48-.09 1.95zm-.13 3.11l-.83.48.08-1.95.84-.48-.09 1.95zm-.13 3.1l-.83.48.08-1.95.83-.48-.08 1.95zm-.13 3.11l-.84.48.09-1.96.83-.48-.08 1.96z"/><path class="cls-25" d="M233.53 117.3s0 .56-1 1.15a3.44 3.44 0 01-2.84.14l-.13-.08a3.16 3.16 0 011.66-2.24c.83-.47 2.31.18 2.31 1.03z"/><path class="cls-26" d="M232.9 116.64c.05.11-.63.16-1.07.36s-1 .63-1.06.52.41-.78.87-.93a1.53 1.53 0 011.26.05z"/><path class="cls-19" d="M204.3 128.38l-3.67-2.14-30.47 17.59 3.62 3.24 30.52-18.69z"/><path class="cls-20" d="M172.27 180.27l-2.11-1.24v-35.2l3.9 2.3-1.79 34.14z"/><path class="cls-16" d="M202.73 162.68l-4.87 2.82-1.17-1.21-19.4 11.09-.09 2.05-4.93 2.84 1.56-34.3 30.47-17.59-1.57 34.3z"/><path class="cls-20" d="M199.09 136.94l-2.63 1.52.22 26.63 1.18.41 1.23-28.56z"/><path class="cls-21" d="M178.52 148.82l-1.23 27.54 19.39-11.27.21-26.88-18.37 10.61z"/><g clip-path="url(#clip-path-2)"><path class="cls-4" d="M176.81 153.83l-.15-.26 21.43-12.32.15.26-21.43 12.32zm-.25 4.58l-.15-.26 21.43-12.33.15.26-21.43 12.33z"/><path class="cls-4" transform="rotate(-29.96 187.072 156.685)" d="M174.67 156.52h24.72v.3h-24.72z"/><path class="cls-4" d="M176.23 167.5l-.15-.26 21.42-12.33.15.27-21.42 12.32zm-.2 4.5l-.15-.26 21.43-12.33.15.27L176.03 172z"/><path class="cls-23" d="M177.02 154.04l-.15-.26 21.42-12.33.15.26-21.42 12.33zm-.25 4.58l-.15-.27 21.42-12.32.15.26-21.42 12.33zm-.17 4.55l-.15-.26 21.43-12.33.15.26-21.43 12.33zm-.17 4.54l-.15-.26 21.43-12.33.15.26-21.43 12.33zm-.19 4.5l-.15-.26 21.42-12.33.15.26-21.42 12.33z"/></g><path class="cls-24" d="M177.18 153.01l-.83.48.09-1.96.83-.47-.09 1.95zm-.13 3.1l-.83.48.09-1.95.83-.48-.09 1.95zm-.13 3.11l-.83.48.08-1.96.83-.48-.08 1.96zm-.13 3.1l-.83.48.08-1.95.83-.48-.08 1.95zm-.13 3.1l-.84.48.09-1.95.83-.48-.08 1.95zm-.14 3.11l-.83.48.09-1.95.83-.48-.09 1.95zm-.13 3.1l-.83.48.09-1.95.83-.48-.09 1.95zm-.13 3.11l-.83.48.08-1.96.84-.48-.09 1.96zm24.58-35.11l-.83.47.08-1.95.84-.48-.09 1.96zm-.13 3.1l-.83.48.08-1.95.83-.48-.08 1.95zm-.13 3.1l-.83.48.08-1.95.83-.48-.08 1.95zm-.14 3.11l-.83.48.09-1.95.83-.48-.09 1.95zm-.13 3.1l-.83.48.09-1.95.83-.48-.09 1.95zm-.13 3.11l-.83.48.09-1.95.83-.49-.09 1.96zm-.13 3.1l-.83.48.09-1.95.83-.48-.09 1.95zm-.13 3.1l-.83.49.08-1.96.83-.48-.08 1.95z"/><path class="cls-25" d="M190.75 142s0 .56-1 1.15a3.44 3.44 0 01-2.84.14l-.13-.08a3.16 3.16 0 011.66-2.24c.83-.48 2.31.17 2.31 1.03z"/><path class="cls-26" d="M190.09 141.31c.05.11-.61.18-1 .38s-1.14.66-1.19.55.56-.8 1-1a1.28 1.28 0 011.19.07z"/><path class="cls-28" d="M89.99 174.66l-1.81-1.05v-47.3h1.81v48.35z"/><path class="cls-11" d="M91.79 173.61l-1.8 1.05v-48.35h1.8v47.3z"/><path class="cls-29" d="M89.99 136.26l-1.81-1.05v-8.9l3.28.04-1.47 9.91z"/><path class="cls-28" d="M91.79 135.21l-1.8 1.05v-9.95h1.8v8.9zm-42.75 15.81l-1.81-1.05v-41.14h1.81v42.19z"/><path class="cls-11" d="M50.84 150l-1.8 1.02v-42.19h1.8V150z"/><path class="cls-29" d="M49.04 112.6l-1.81-1.05v-2.72h2.41l-.6 3.77z"/><path class="cls-28" d="M50.84 111.58l-1.8 1.02v-3.77h1.8v2.75z"/><g class="cls-2"><path class="cls-16" d="M92.01 133.55l-.01 2.82 16.29-9.47.01-2.81-16.29 9.46z"/><path class="cls-19" d="M66.87 94.28L45.5 106.7l46.51 26.85 16.29-9.46v-5.9L66.87 94.28z"/><path style="mix-blend-mode:multiply" fill="#d9e8f7" d="M66.87 94.28l-6.92 4.02 37.14 21.44 11.21 4.35v-5.83L66.87 94.28z"/><path class="cls-20" d="M45.5 106.7l-.01 2.81L92 136.37l.01-2.82L45.5 106.7z"/></g><path fill="#99bbde" d="M249.61 83.38l-90.94 52.56v-7.31l90.94-52.56v7.31z"/><path class="cls-20" d="M249.61 83.38v-7.31l-2.26 1.3v4.76l2.26 1.25z"/><path class="cls-19" d="M247.35 82.13l-88.68 51.26v2.55l90.94-52.56-2.26-1.25z"/><path class="cls-19" d="M176.25 123.64l-.96.56v-5.18l.96-.56v5.18zm18.19-10.5l-.96.55v-5.18l.96-.55v5.18zm18.19-10.53l-.95.56v-5.19l.95-.55v5.18zm18.2-10.5l-.96.56v-5.19l.96-.55v5.18z"/><g style="mix-blend-mode:multiply"><path d="M114.32 111.29l-.66 5.11-.6-5.84-.97-.55-.65 5.1-.61-5.83-1.12-.65 1.09 8.9 1.11.64.65-4.55.61 5.28 1.11.64 1.13-7.62-1.09-.63zm2.68 6.81l.45-3.23.46 3.75zm1.17-4.58l-1.39-.8-1.26 7.54 1.09.63.24-1.74 1.2.69.23 2 1.11.64zm4.32 5.09c0 .7-.24.88-.76.58l-.44-.25v-2.45l.44.25a1.5 1.5 0 01.76 1.45zm.31 2.09c.5 0 .77-.5.78-1.37v-.59a3.46 3.46 0 00-1.8-3.13l-1.57-.91v8.26l1.09.63v-3.49l.5.29.85 4 1.15.67zm4.87-.54V119l-3.06-1.77-.02 8.26 3.06 1.77v-1.16l-1.97-1.13.01-2.46 1.59.92v-1.15l-1.59-.92.01-2.34 1.97 1.14zm3.31.75l-.01 3.48-1.29-.75.01-3.48-1.09-.63-.03 8.26 1.09.63.01-3.59 1.3.75-.01 3.59 1.09.63.02-8.26-1.09-.63zm4.56 8.92c0 .61-.24.81-.67.56a1.44 1.44 0 01-.67-1.33v-4.3c0-.61.24-.81.67-.56a1.44 1.44 0 01.67 1.33zm-.65-6.78c-1.09-.63-1.76-.23-1.76 1.07v4.32a3.54 3.54 0 001.75 3.1c1.09.63 1.76.22 1.76-1.07v-4.32a3.54 3.54 0 00-1.75-3.15zm5.03 3.02v6.37c0 .6-.24.69-.62.47a1.24 1.24 0 01-.62-1.19v-6.37l-1-.61v6.41a3.29 3.29 0 001.67 2.94c1 .61 1.7.31 1.7-1v-6.41zm3.85 5.7a4.05 4.05 0 01-.91-2.14v-.11c0-.47.2-.61.56-.4a1.12 1.12 0 01.55 1v.31l1 .49v-.21a3.13 3.13 0 00-1.57-2.71c-1-.6-1.63-.27-1.63.92v.18a6.07 6.07 0 001.33 3.39 4.18 4.18 0 01.94 2.19v.27c0 .52-.21.66-.62.42a1.21 1.21 0 01-.61-1.14v-.59l-1-.49v.56a3.19 3.19 0 001.68 2.83c1.08.62 1.68.3 1.69-.88v-.41a6.23 6.23 0 00-1.41-3.48zm5.09.62v-1.16l-3.06-1.76-.02 8.26 3.06 1.76v-1.15l-1.97-1.14v-2.45l1.6.91v-1.15l-1.59-.92v-2.34l1.98 1.14z" fill="#fdf8f8" opacity=".04"/><path d="M114.32 111.2l-.66 5.11-.6-5.84-.97-.55-.65 5.1-.61-5.83-1.12-.65 1.09 8.9 1.11.64.65-4.55.61 5.28 1.11.64 1.13-7.62-1.09-.63zM117 118l.45-3.23.46 3.75zm1.17-4.58l-1.39-.8-1.26 7.54 1.09.63.24-1.74 1.2.69.23 2 1.11.64zm4.32 5.1c0 .7-.24.88-.76.58l-.44-.25v-2.45l.44.26a1.5 1.5 0 01.76 1.45zm.31 2.09c.5 0 .77-.5.78-1.37v-.59a3.46 3.46 0 00-1.8-3.13l-1.57-.91v8.26l1.09.63V120l.5.29.85 4 1.15.67zm4.87-.55v-1.15l-3.06-1.77-.02 8.26 3.06 1.77v-1.16l-1.97-1.13.01-2.46 1.59.92v-1.16l-1.59-.91.01-2.34 1.97 1.13zm3.31.76l-.01 3.48-1.29-.75.01-3.48-1.09-.63-.03 8.26 1.09.63.01-3.59 1.3.74-.01 3.6 1.09.63.02-8.26-1.09-.63zm4.56 8.92c0 .61-.24.81-.67.56a1.44 1.44 0 01-.67-1.33v-4.3c0-.61.24-.81.67-.56a1.44 1.44 0 01.67 1.33zm-.65-6.78c-1.09-.63-1.76-.23-1.76 1.07v4.32a3.54 3.54 0 001.75 3.1c1.09.63 1.76.22 1.76-1.07v-4.32a3.54 3.54 0 00-1.75-3.06zm5.03 3.04v6.37c0 .6-.24.69-.62.47a1.24 1.24 0 01-.62-1.19v-6.37l-1-.61v6.41a3.29 3.29 0 001.67 2.94c1 .61 1.7.31 1.7-1v-6.41zm3.85 5.67a4.05 4.05 0 01-.91-2.14v-.11c0-.47.2-.61.56-.4a1.12 1.12 0 01.55 1v.31l1 .49v-.21a3.13 3.13 0 00-1.62-2.79c-1-.6-1.63-.27-1.63.92v.26a6.07 6.07 0 001.33 3.39 4.18 4.18 0 01.94 2.19v.27c0 .52-.21.66-.62.42a1.21 1.21 0 01-.61-1.14v-.59l-1-.49v.56a3.19 3.19 0 001.68 2.83c1.08.62 1.68.3 1.69-.88v-.41a6.23 6.23 0 00-1.36-3.48zm5.09.63v-1.16l-3.06-1.76-.02 8.25 3.06 1.77v-1.15l-1.97-1.14v-2.46l1.6.92v-1.15l-1.59-.92v-2.34l1.98 1.14z" fill="#fcf1f0" opacity=".08"/><path d="M114.32 111.11l-.66 5.1-.6-5.83-.97-.56-.65 5.11-.61-5.84-1.12-.64 1.09 8.9 1.11.64.65-4.55.61 5.28 1.11.64 1.13-7.62-1.09-.63zm2.68 6.81l.45-3.23.46 3.75zm1.17-4.58l-1.39-.8-1.26 7.54 1.09.63.24-1.74 1.2.69.23 2 1.11.64zm4.32 5.09c0 .7-.24.88-.76.58l-.44-.26v-2.45l.44.25a1.5 1.5 0 01.76 1.45zm.31 2.09c.5 0 .77-.5.78-1.37v-.59a3.46 3.46 0 00-1.8-3.13l-1.57-.91v8.26l1.09.63v-3.49l.5.29.85 4 1.15.67zm4.87-.55v-1.15l-3.06-1.77-.02 8.26 3.06 1.77v-1.16l-1.97-1.14.01-2.45 1.59.92v-1.16l-1.59-.92.01-2.33 1.97 1.13zm3.31.76l-.01 3.48-1.29-.75.01-3.48-1.09-.63-.03 8.26 1.09.63.01-3.6 1.3.75-.01 3.6 1.09.63.02-8.26-1.09-.63zm4.56 8.92c0 .61-.24.81-.67.56a1.44 1.44 0 01-.67-1.33v-4.3c0-.61.24-.81.67-.56a1.44 1.44 0 01.67 1.33zm-.65-6.78c-1.09-.63-1.76-.23-1.76 1.07v4.32a3.54 3.54 0 001.75 3.1c1.09.63 1.76.22 1.76-1.07V126a3.54 3.54 0 00-1.75-3.14zm5.03 3.02v6.37c0 .6-.24.69-.62.47a1.24 1.24 0 01-.62-1.19v-6.37l-1-.61v6.41a3.29 3.29 0 001.67 2.94c1 .61 1.7.31 1.7-1v-6.41zm3.85 5.69a4.05 4.05 0 01-.91-2.14v-.11c0-.47.2-.61.56-.4a1.12 1.12 0 01.55 1v.31l1 .49v-.21a3.13 3.13 0 00-1.62-2.79c-1-.6-1.63-.27-1.63.92v.18a6.07 6.07 0 001.33 3.39 4.18 4.18 0 01.94 2.19v.27c0 .52-.21.66-.62.42a1.21 1.21 0 01-.61-1.14v-.59l-1-.49v.56a3.19 3.19 0 001.68 2.83c1.08.62 1.68.3 1.69-.88V135a6.23 6.23 0 00-1.36-3.42zm5.09.63v-1.16l-3.06-1.77-.02 8.26 3.06 1.77v-1.15l-1.97-1.15v-2.45l1.6.92v-1.15l-1.59-.92v-2.34l1.98 1.14z" fill="#faeae9" opacity=".12"/><path d="M114.32 111.02l-.66 5.1-.6-5.83-.97-.56-.65 5.11-.61-5.84-1.12-.64 1.09 8.9 1.11.64.65-4.55.61 5.28 1.11.64 1.13-7.62-1.09-.63zm2.68 6.81l.45-3.23.46 3.75zm1.17-4.58l-1.39-.8-1.24 7.55 1.09.63.24-1.74 1.2.69.23 2 1.11.64zm4.32 5.09c0 .7-.24.88-.76.58l-.44-.25v-2.47l.44.25a1.5 1.5 0 01.76 1.45zm.31 2.09c.5 0 .77-.5.78-1.37v-.59a3.46 3.46 0 00-1.8-3.13l-1.57-.91v8.26l1.09.63v-3.49l.5.29.85 4 1.15.67zm4.87-.55v-1.16l-3.06-1.76-.02 8.26 3.06 1.77v-1.16l-1.97-1.14.01-2.45 1.59.92V122l-1.59-.92.01-2.34 1.97 1.14zm3.31.76l-.01 3.48-1.29-.75.01-3.48-1.09-.63-.03 8.26 1.09.63.01-3.6 1.3.75-.01 3.6 1.09.63.02-8.26-1.09-.63zm4.56 8.92c0 .61-.24.81-.67.56a1.44 1.44 0 01-.67-1.33v-4.3c0-.61.24-.81.67-.56a1.44 1.44 0 01.67 1.33zm-.65-6.78c-1.09-.63-1.76-.23-1.76 1.07v4.32a3.54 3.54 0 001.75 3.1c1.09.63 1.76.22 1.76-1.07v-4.32a3.54 3.54 0 00-1.75-3.11zm5.03 3.02v6.37c0 .6-.24.69-.62.47a1.24 1.24 0 01-.62-1.19v-6.37l-1-.61v6.41a3.29 3.29 0 001.67 2.94c1 .61 1.7.31 1.7-1v-6.41zm3.85 5.69a4.05 4.05 0 01-.91-2.14v-.11c0-.47.2-.61.56-.4a1.12 1.12 0 01.55 1v.31l1 .49v-.21a3.13 3.13 0 00-1.62-2.79c-1-.6-1.63-.27-1.63.92v.18a6.07 6.07 0 001.33 3.39 4.18 4.18 0 01.94 2.19v.27c0 .52-.21.66-.62.42a1.21 1.21 0 01-.61-1.14v-.59l-1-.49v.56a3.19 3.19 0 001.68 2.83c1.08.62 1.68.3 1.69-.88v-.41a6.23 6.23 0 00-1.36-3.4zm5.09.63v-1.16l-3.06-1.77-.02 8.26 3.06 1.77v-1.16l-1.97-1.14v-2.45l1.6.92v-1.15l-1.59-.93v-2.33l1.98 1.14z" fill="#f8e3e1" opacity=".15"/><path d="M114.32 110.93l-.66 5.1-.6-5.83-.97-.56-.65 5.11-.61-5.84-1.12-.64 1.09 8.9 1.11.64.65-4.55.61 5.28 1.11.64 1.13-7.62-1.09-.63zm2.68 6.81l.45-3.23.46 3.75zm1.17-4.58l-1.39-.8-1.26 7.54 1.09.63.24-1.74 1.2.69.23 2 1.11.64zm4.32 5.08c0 .7-.24.88-.76.58l-.44-.25v-2.45l.44.25a1.5 1.5 0 01.76 1.45zm.31 2.09c.5 0 .77-.5.78-1.37v-.59a3.46 3.46 0 00-1.8-3.13l-1.57-.91v8.26l1.09.63v-3.49l.5.29.85 4 1.15.67zm4.87-.54v-1.16l-3.06-1.76-.02 8.26 3.06 1.76v-1.15l-1.97-1.14.01-2.45 1.59.92v-1.16l-1.59-.92.01-2.34 1.97 1.14zm3.31.76l-.01 3.48-1.29-.75.01-3.48-1.09-.63-.03 8.26 1.09.63.01-3.6 1.3.75-.01 3.6 1.09.63.02-8.27-1.09-.62zm4.56 8.92c0 .61-.24.81-.67.56a1.44 1.44 0 01-.67-1.33v-4.3c0-.61.24-.81.67-.56a1.44 1.44 0 01.67 1.33zm-.65-6.78c-1.09-.63-1.76-.23-1.76 1.07v4.32a3.54 3.54 0 001.75 3.1c1.09.63 1.76.22 1.76-1.07v-4.32a3.54 3.54 0 00-1.75-3.11zm5.03 3.02v6.37c0 .6-.24.69-.62.47a1.24 1.24 0 01-.62-1.19v-6.37l-1-.61v6.41a3.29 3.29 0 001.67 2.94c1 .61 1.7.31 1.7-1v-6.41zm3.85 5.69a4.05 4.05 0 01-.91-2.14v-.11c0-.47.2-.61.56-.4a1.12 1.12 0 01.55 1v.31l1 .49v-.21a3.13 3.13 0 00-1.62-2.79c-1-.6-1.63-.27-1.63.92v.18a6.07 6.07 0 001.33 3.39 4.18 4.18 0 01.94 2.19v.27c0 .52-.21.66-.62.42a1.21 1.21 0 01-.61-1.14v-.59l-1-.49v.56a3.19 3.19 0 001.68 2.83c1.08.62 1.68.3 1.69-.88v-.41a6.23 6.23 0 00-1.36-3.4zm5.09.62v-1.15l-3.06-1.77-.02 8.26 3.06 1.77v-1.16l-1.97-1.14v-2.45l1.6.92v-1.16l-1.59-.92v-2.34l1.98 1.14z" fill="#f7ddda" opacity=".19"/><path d="M114.32 110.84l-.66 5.1-.6-5.83-.97-.56-.65 5.11-.61-5.84-1.12-.65 1.09 8.91 1.11.64.65-4.55.61 5.27 1.11.65 1.13-7.62-1.09-.63zm2.68 6.81l.45-3.23.46 3.75zm1.17-4.58l-1.39-.8-1.26 7.54 1.09.63.24-1.74 1.2.69.23 2 1.11.64zm4.32 5.08c0 .7-.24.88-.76.58l-.44-.25V116l.44.25a1.5 1.5 0 01.76 1.45zm.31 2.09c.5 0 .77-.5.78-1.37v-.59a3.46 3.46 0 00-1.8-3.13l-1.57-.91v8.26l1.09.63v-3.49l.5.29.85 4 1.15.67zm4.87-.54v-1.16l-3.06-1.76-.02 8.26 3.06 1.76v-1.15l-1.97-1.14.01-2.45 1.59.91v-1.15l-1.59-.92.01-2.34 1.97 1.14zm3.31.75l-.01 3.49-1.29-.75.01-3.48-1.09-.63-.03 8.26 1.09.63.01-3.6 1.3.75-.01 3.6 1.09.62.02-8.26-1.09-.63zm4.56 8.92c0 .61-.24.81-.67.56a1.44 1.44 0 01-.67-1.33v-4.3c0-.61.24-.81.67-.56a1.44 1.44 0 01.67 1.33zm-.65-6.78c-1.09-.63-1.76-.23-1.76 1.07V128a3.54 3.54 0 001.75 3.1c1.09.63 1.76.22 1.76-1.07v-4.32a3.54 3.54 0 00-1.75-3.12zm5.03 3.03v6.37c0 .6-.24.69-.62.47a1.24 1.24 0 01-.62-1.19v-6.37l-1-.61v6.41a3.29 3.29 0 001.67 2.94c1 .61 1.7.31 1.7-1v-6.41zm3.85 5.69a4.05 4.05 0 01-.91-2.14v-.11c0-.47.2-.61.56-.4a1.12 1.12 0 01.55 1v.34l1 .49v-.21a3.13 3.13 0 00-1.62-2.79c-1-.6-1.63-.27-1.63.92v.18a6.07 6.07 0 001.33 3.39 4.18 4.18 0 01.94 2.19v.27c0 .52-.21.66-.62.42a1.21 1.21 0 01-.61-1.14v-.59l-1-.49v.56a3.19 3.19 0 001.68 2.83c1.08.62 1.68.3 1.69-.88v-.41a6.23 6.23 0 00-1.36-3.43zm5.09.62v-1.15l-3.06-1.77-.02 8.26 3.06 1.77v-1.16l-1.97-1.14v-2.45l1.6.92v-1.16l-1.59-.92v-2.34l1.98 1.14z" fill="#f5d6d2" opacity=".23"/><path d="M114.32 110.75l-.66 5.1-.6-5.83-.97-.56-.65 5.11-.61-5.84-1.12-.65 1.09 8.9 1.11.64.65-4.54.61 5.27 1.11.64 1.13-7.61-1.09-.63zm2.68 6.81l.45-3.23.46 3.75zm1.17-4.58l-1.39-.8-1.26 7.54 1.09.63.24-1.74 1.2.69.23 2 1.11.64zm4.32 5.08c0 .7-.24.88-.76.58l-.44-.26v-2.45l.44.26a1.5 1.5 0 01.76 1.45zm.31 2.09c.5 0 .77-.5.78-1.37v-.59a3.46 3.46 0 00-1.8-3.13l-1.57-.91v8.26l1.09.63v-3.49l.5.29.85 4 1.15.67zm4.87-.54v-1.16l-3.06-1.76-.02 8.25 3.06 1.77v-1.15l-1.97-1.14.01-2.45 1.59.91v-1.15l-1.59-.92.01-2.34 1.97 1.14zm3.31.75l-.01 3.48-1.29-.74.01-3.48-1.09-.63-.03 8.26 1.09.63.01-3.6 1.3.75-.01 3.59 1.09.63.02-8.26-1.09-.63zm4.56 8.92c0 .61-.24.81-.67.56a1.44 1.44 0 01-.67-1.33v-4.3c0-.61.24-.81.67-.56a1.44 1.44 0 01.67 1.33zm-.65-6.78c-1.09-.63-1.76-.23-1.76 1.07v4.32a3.54 3.54 0 001.75 3.1c1.09.63 1.76.22 1.76-1.07v-4.32a3.54 3.54 0 00-1.75-3.1zm5.03 3.02v6.37c0 .6-.24.69-.62.47a1.24 1.24 0 01-.62-1.19v-6.37l-1-.61v6.41a3.29 3.29 0 001.67 2.94c1 .61 1.7.31 1.7-1v-6.41zm3.85 5.7a4.05 4.05 0 01-.91-2.14V129c0-.47.2-.61.56-.4a1.12 1.12 0 01.55 1v.31l1 .49v-.21a3.13 3.13 0 00-1.62-2.79c-1-.6-1.63-.27-1.63.92v.18a6.07 6.07 0 001.33 3.39 4.18 4.18 0 01.94 2.19v.27c0 .52-.21.66-.62.42a1.21 1.21 0 01-.61-1.14v-.59l-1-.49v.56a3.19 3.19 0 001.68 2.83c1.08.62 1.68.3 1.69-.88v-.41a6.23 6.23 0 00-1.36-3.43zm5.09.62v-1.15l-3.06-1.77-.02 8.26 3.06 1.77v-1.16l-1.97-1.14v-2.45l1.6.92v-1.16l-1.59-.92v-2.34l1.98 1.14z" fill="#f3cfcb" opacity=".27"/><path d="M114.32 110.65l-.66 5.11-.6-5.84-.97-.55-.65 5.11-.61-5.84-1.12-.65 1.09 8.9 1.11.64.65-4.55.61 5.28 1.11.64 1.13-7.62-1.09-.63zm2.68 6.82l.45-3.23.46 3.75zm1.17-4.58l-1.39-.8-1.26 7.54 1.09.63.24-1.74 1.2.69.23 2 1.11.64zm4.32 5.11c0 .7-.24.88-.76.58l-.44-.25v-2.45l.44.25a1.5 1.5 0 01.76 1.45zm.31 2.09c.5 0 .77-.5.78-1.37v-.59a3.46 3.46 0 00-1.8-3.13l-1.57-.91v8.26l1.09.63v-3.49l.5.29.85 4 1.15.67zm4.87-.57v-1.16l-3.06-1.77-.02 8.26 3.06 1.77v-1.15l-1.97-1.14.01-2.46 1.59.92v-1.15l-1.59-.92.01-2.34 1.97 1.14zm3.31.75l-.01 3.48-1.29-.74.01-3.49-1.09-.63-.03 8.27 1.09.62.01-3.59 1.3.75-.01 3.59 1.09.63.02-8.26-1.09-.63zm4.56 8.92c0 .61-.24.81-.67.56a1.44 1.44 0 01-.67-1.33v-4.3c0-.61.24-.81.67-.56a1.44 1.44 0 01.67 1.33zm-.65-6.78c-1.09-.63-1.76-.23-1.76 1.07v4.32a3.54 3.54 0 001.75 3.1c1.09.63 1.76.22 1.76-1.07v-4.32a3.54 3.54 0 00-1.75-3.1zm5.03 3.02v6.37c0 .6-.24.69-.62.47a1.24 1.24 0 01-.62-1.19v-6.37l-1-.61v6.41a3.29 3.29 0 001.67 2.94c1 .61 1.7.31 1.7-1v-6.41zm3.85 5.7a4.05 4.05 0 01-.91-2.14v-.11c0-.47.2-.61.56-.4a1.12 1.12 0 01.55 1v.31l1 .49v-.21a3.13 3.13 0 00-1.62-2.79c-1-.6-1.63-.27-1.63.92v.18a6.07 6.07 0 001.33 3.39A4.18 4.18 0 01144 134v.27c0 .52-.21.66-.62.42a1.21 1.21 0 01-.61-1.14V133l-1-.49v.49a3.19 3.19 0 001.68 2.83c1.08.62 1.68.3 1.69-.88v-.41a6.23 6.23 0 00-1.37-3.41zm5.09.62v-1.16l-3.06-1.76-.02 8.26 3.06 1.76v-1.15l-1.97-1.14v-2.45l1.6.92v-1.16l-1.59-.92v-2.34l1.98 1.14z" fill="#f2c8c4" opacity=".31"/><path d="M114.32 110.56l-.66 5.11-.6-5.84-.97-.55-.65 5.11-.61-5.84-1.12-.65 1.09 8.9 1.11.64.65-4.55.61 5.28 1.11.64 1.13-7.62-1.09-.63zm2.68 6.81l.45-3.23.46 3.75zm1.17-4.58l-1.39-.8-1.26 7.54 1.09.63.24-1.74 1.2.69.23 2 1.11.64zm4.32 5.09c0 .7-.24.88-.76.58l-.44-.25v-2.45l.44.25a1.5 1.5 0 01.76 1.45zm.31 2.09c.5 0 .77-.5.78-1.37v-.6a3.46 3.46 0 00-1.8-3.13l-1.57-.91v8.26l1.09.63v-3.49l.5.29.85 4 1.15.67zm4.87-.55v-1.15l-3.06-1.77-.02 8.26 3.06 1.77v-1.16l-1.97-1.13.01-2.46 1.59.92v-1.16l-1.59-.91.01-2.34 1.97 1.13zm3.31.76l-.01 3.48-1.29-.74.01-3.49-1.09-.63-.03 8.26 1.09.63.01-3.59 1.3.74-.01 3.6 1.09.63.02-8.26-1.09-.63zm4.56 8.92c0 .61-.24.81-.67.56a1.44 1.44 0 01-.67-1.33V124c0-.61.24-.81.67-.56a1.44 1.44 0 01.67 1.33zm-.65-6.78c-1.09-.63-1.76-.23-1.76 1.07v4.32a3.54 3.54 0 001.75 3.1c1.09.63 1.76.22 1.76-1.07v-4.32a3.54 3.54 0 00-1.75-3.1zm5.03 3.02v6.37c0 .6-.24.69-.62.47a1.24 1.24 0 01-.62-1.19v-6.37l-1-.61v6.41a3.29 3.29 0 001.67 2.94c1 .61 1.7.31 1.7-1v-6.41zm3.85 5.66a4.05 4.05 0 01-.91-2.14v-.11c0-.47.2-.61.56-.4a1.12 1.12 0 01.55 1v.31l1 .49V130a3.13 3.13 0 00-1.62-2.79c-1-.6-1.63-.27-1.63.92v.18a6.07 6.07 0 001.33 3.39 4.18 4.18 0 01.94 2.19v.27c0 .52-.21.66-.62.42a1.21 1.21 0 01-.61-1.14v-.59l-1-.49v.56a3.19 3.19 0 001.68 2.83c1.08.62 1.68.3 1.69-.88v-.41a6.23 6.23 0 00-1.36-3.46zm5.09.66v-1.16l-3.06-1.76-.02 8.26 3.06 1.76v-1.15l-1.97-1.14v-2.46l1.6.92v-1.15l-1.59-.92v-2.34l1.98 1.14z" fill="#f0c1bc" opacity=".35"/><path d="M114.32 110.47l-.66 5.11-.6-5.84-.97-.55-.65 5.1-.61-5.83-1.12-.65 1.09 8.9 1.11.64.65-4.55.61 5.28 1.11.64 1.13-7.62-1.09-.63zm2.68 6.81l.45-3.23.46 3.75zm1.17-4.58l-1.39-.8-1.26 7.54 1.09.63.24-1.74 1.2.69.23 2 1.11.64zm4.32 5.09c0 .7-.24.88-.76.58l-.44-.25v-2.45l.44.26a1.5 1.5 0 01.76 1.45zm.31 2.09c.5 0 .77-.5.78-1.37v-.59a3.46 3.46 0 00-1.8-3.13l-1.57-.91v8.26l1.09.63v-3.49l.5.29.85 4 1.15.67zm4.87-.55v-1.15l-3.06-1.77-.02 8.26 3.06 1.77v-1.16l-1.97-1.14.01-2.45 1.59.92v-1.16l-1.59-.92.01-2.33 1.97 1.13zm3.31.76l-.01 3.48-1.29-.75.01-3.48-1.09-.63-.03 8.26 1.09.63.01-3.59 1.3.74-.01 3.6 1.09.63.02-8.26-1.09-.63zm4.56 8.91c0 .61-.24.81-.67.56a1.44 1.44 0 01-.67-1.33v-4.3c0-.61.24-.81.67-.56a1.44 1.44 0 01.67 1.33zm-.65-6.78c-1.09-.63-1.76-.23-1.76 1.07v4.32a3.54 3.54 0 001.75 3.1c1.09.63 1.76.22 1.76-1.07v-4.32a3.54 3.54 0 00-1.75-3.1zm5.03 3.03v6.37c0 .6-.24.69-.62.47a1.24 1.24 0 01-.62-1.19v-6.37l-1-.61v6.41a3.29 3.29 0 001.67 2.94c1 .61 1.7.31 1.7-1v-6.41zm3.85 5.69a4.05 4.05 0 01-.91-2.14v-.11c0-.47.2-.61.56-.4a1.12 1.12 0 01.55 1v.31l1 .49v-.21a3.13 3.13 0 00-1.62-2.79c-1-.6-1.63-.27-1.63.92v.18a6.07 6.07 0 001.33 3.39 4.18 4.18 0 01.94 2.19v.27c0 .52-.21.66-.62.42a1.21 1.21 0 01-.61-1.14v-.59l-1-.49v.56a3.19 3.19 0 001.68 2.83c1.08.62 1.68.3 1.69-.88v-.41a6.23 6.23 0 00-1.36-3.4zm5.09.63v-1.16l-3.06-1.76-.02 8.26 3.06 1.76v-1.15l-1.97-1.14v-2.46l1.6.92v-1.15l-1.59-.92v-2.34l1.98 1.14z" fill="#eebab5" opacity=".38"/><path d="M114.32 110.38l-.66 5.1-.6-5.83-.97-.56-.65 5.11-.61-5.84-1.12-.64 1.09 8.9 1.11.64.65-4.55.61 5.28 1.11.64 1.13-7.62-1.09-.63zm2.68 6.81l.45-3.23.46 3.75zm1.17-4.58l-1.39-.8-1.26 7.54 1.09.63.24-1.74 1.2.69.23 2 1.11.64zm4.32 5.09c0 .7-.24.88-.76.58l-.44-.26v-2.45l.44.25a1.5 1.5 0 01.76 1.45zm.31 2.09c.5 0 .77-.5.78-1.37v-.59a3.46 3.46 0 00-1.8-3.13l-1.57-.91v8.26l1.09.63v-3.49l.5.29.85 4 1.15.67zm4.87-.55v-1.15l-3.06-1.77-.02 8.26 3.06 1.77v-1.16l-1.97-1.14.01-2.45 1.59.92v-1.16l-1.59-.92.01-2.33 1.97 1.13zm3.31.76l-.01 3.48-1.29-.75.01-3.48-1.09-.63-.03 8.26 1.09.63.01-3.59 1.3.74-.01 3.6 1.09.63.02-8.26-1.09-.63zm4.56 8.92c0 .61-.24.81-.67.56a1.44 1.44 0 01-.67-1.33v-4.3c0-.61.24-.81.67-.56a1.44 1.44 0 01.67 1.33zm-.65-6.78c-1.09-.63-1.76-.23-1.76 1.07v4.32a3.54 3.54 0 001.75 3.1c1.09.63 1.76.22 1.76-1.07v-4.32a3.54 3.54 0 00-1.75-3.11zm5.03 3.02v6.37c0 .6-.24.69-.62.47a1.24 1.24 0 01-.62-1.19v-6.37l-1-.61v6.41a3.29 3.29 0 001.67 2.94c1 .61 1.7.31 1.7-1v-6.41zm3.85 5.69a4.05 4.05 0 01-.91-2.14v-.11c0-.47.2-.61.56-.4a1.12 1.12 0 01.55 1v.31l1 .49v-.21a3.13 3.13 0 00-1.57-2.79c-1-.6-1.63-.27-1.63.92v.18a6.07 6.07 0 001.33 3.39 4.18 4.18 0 01.94 2.19v.32c0 .52-.21.66-.62.42a1.21 1.21 0 01-.61-1.14v-.59l-1-.49v.56a3.19 3.19 0 001.68 2.83c1.08.62 1.68.3 1.69-.88v-.41a6.23 6.23 0 00-1.41-3.45zm5.09.63v-1.16l-3.06-1.77-.02 8.26 3.06 1.77v-1.15l-1.97-1.15v-2.45l1.6.92v-1.15l-1.59-.92v-2.34l1.98 1.14z" fill="#edb3ad" opacity=".42"/><path d="M114.32 110.29l-.66 5.1-.6-5.83-.97-.56-.65 5.11-.61-5.84-1.12-.64 1.09 8.9 1.11.64.65-4.55.61 5.28 1.11.64 1.13-7.62-1.09-.63zm2.68 6.81l.45-3.23.46 3.75zm1.17-4.58l-1.39-.8-1.26 7.54 1.09.63.24-1.74 1.2.69.23 2 1.11.64zm4.32 5.09c0 .7-.24.88-.76.58l-.44-.25v-2.45l.44.25a1.5 1.5 0 01.76 1.45zm.31 2.09c.5 0 .77-.5.78-1.37v-.59a3.46 3.46 0 00-1.8-3.13l-1.57-.91v8.26l1.09.63v-3.49l.5.29.85 4 1.15.67zm4.87-.55V118l-3.06-1.77-.02 8.26 3.06 1.77v-1.16l-1.97-1.14.01-2.45 1.59.92v-1.16l-1.59-.92.01-2.34 1.97 1.14zm3.31.76l-.01 3.48-1.29-.75.01-3.48-1.09-.63-.03 8.26 1.09.63.01-3.6 1.3.75-.01 3.6 1.09.63.02-8.26-1.09-.63zm4.56 8.92c0 .61-.24.81-.67.56a1.44 1.44 0 01-.67-1.33v-4.3c0-.61.24-.81.67-.56a1.44 1.44 0 01.67 1.33zm-.65-6.78c-1.09-.63-1.76-.23-1.76 1.07v4.32a3.54 3.54 0 001.75 3.1c1.09.63 1.76.22 1.76-1.07v-4.32a3.54 3.54 0 00-1.75-3.15zm5.03 3.02v6.37c0 .6-.24.69-.62.47a1.24 1.24 0 01-.62-1.19v-6.37l-1-.61v6.41a3.29 3.29 0 001.67 2.94c1 .61 1.7.31 1.7-1v-6.41zm3.85 5.69a4.05 4.05 0 01-.91-2.14v-.11c0-.47.2-.61.56-.4a1.12 1.12 0 01.55 1v.31l1 .49v-.21a3.13 3.13 0 00-1.57-2.7c-1-.6-1.63-.27-1.63.92v.08a6.07 6.07 0 001.33 3.39 4.18 4.18 0 01.94 2.19v.27c0 .52-.21.66-.62.42a1.21 1.21 0 01-.61-1.14v-.59l-1-.49v.56a3.19 3.19 0 001.68 2.83c1.08.62 1.68.3 1.69-.88v-.41a6.23 6.23 0 00-1.41-3.39zm5.09.62v-1.15l-3.06-1.77-.02 8.26 3.06 1.77v-1.16l-1.97-1.14v-2.45l1.6.92v-1.16l-1.59-.92v-2.33l1.98 1.13z" fill="#ebaca6" opacity=".46"/><path d="M114.32 110.2l-.66 5.1-.6-5.83-.97-.56-.65 5.11-.61-5.84-1.12-.65 1.09 8.91 1.11.64.65-4.55.61 5.28 1.11.64 1.13-7.62-1.09-.63zM117 117l.45-3.23.46 3.75zm1.17-4.58l-1.39-.8-1.26 7.54 1.09.63.24-1.74 1.2.69.23 2 1.11.64zm4.32 5.09c0 .7-.24.88-.76.58l-.44-.25v-2.45l.44.26a1.5 1.5 0 01.76 1.45zm.31 2.09c.5 0 .77-.5.78-1.37v-.59a3.46 3.46 0 00-1.8-3.13l-1.57-.91v8.26l1.09.63V119l.5.29.85 4 1.15.67zm4.87-.54v-1.16l-3.06-1.76-.02 8.26 3.06 1.76v-1.15l-1.97-1.14.01-2.45 1.59.91v-1.15l-1.59-.92.01-2.34 1.97 1.14zm3.31.75l-.01 3.49-1.29-.75.01-3.48-1.09-.63-.03 8.26 1.09.63.01-3.6 1.3.75-.01 3.59 1.09.64.02-8.27-1.09-.63zm4.56 8.92c0 .61-.24.81-.67.56a1.44 1.44 0 01-.67-1.33v-4.3c0-.61.24-.81.67-.56a1.44 1.44 0 01.67 1.33zm-.65-6.78c-1.09-.63-1.76-.23-1.76 1.07v4.32a3.54 3.54 0 001.75 3.1c1.09.63 1.76.22 1.76-1.07v-4.32a3.54 3.54 0 00-1.75-3.05zm5.03 3.05v6.37c0 .6-.24.69-.62.47a1.24 1.24 0 01-.62-1.19v-6.37l-1-.61v6.41a3.29 3.29 0 001.67 2.94c1 .61 1.7.31 1.7-1v-6.41zm3.85 5.67a4.05 4.05 0 01-.91-2.14v-.11c0-.47.2-.61.56-.4a1.12 1.12 0 01.55 1v.31l1 .49v-.21a3.13 3.13 0 00-1.62-2.79c-1-.6-1.63-.27-1.63.92v.26a6.07 6.07 0 001.33 3.39 4.18 4.18 0 01.94 2.19v.27c0 .52-.21.66-.62.42a1.21 1.21 0 01-.61-1.14v-.59l-1-.49v.56a3.19 3.19 0 001.68 2.83c1.08.62 1.68.3 1.69-.88v-.41a6.23 6.23 0 00-1.36-3.48zm5.09.62v-1.15l-3.06-1.77-.02 8.26 3.06 1.77v-1.16l-1.97-1.14v-2.45l1.6.92v-1.16l-1.59-.92v-2.34l1.98 1.14z" fill="#eaa69f" opacity=".5"/><path d="M114.32 110.11l-.66 5.1-.6-5.83-.97-.56-.65 5.11-.61-5.84-1.12-.65 1.09 8.9 1.11.64.65-4.54.61 5.28 1.11.64 1.13-7.62-1.09-.63zm2.68 6.81l.45-3.23.46 3.75zm1.17-4.58l-1.39-.8-1.26 7.54 1.09.63.24-1.74 1.2.69.23 2 1.11.64zm4.32 5.08c0 .7-.24.88-.76.58l-.44-.25v-2.45l.44.25a1.5 1.5 0 01.76 1.45zm.31 2.09c.5 0 .77-.5.78-1.37v-.59a3.46 3.46 0 00-1.8-3.13l-1.57-.91v8.26l1.09.63v-3.5l.5.29.85 4 1.15.67zm4.87-.54v-1.16l-3.06-1.76-.02 8.26 3.06 1.76v-1.15l-1.97-1.14.01-2.45 1.59.91v-1.15l-1.59-.92.01-2.34 1.97 1.14zm3.31.75l-.01 3.48-1.29-.74.01-3.48-1.09-.63-.03 8.26 1.09.63.01-3.6 1.3.75-.01 3.59 1.09.63.02-8.26-1.09-.63zm4.56 8.92c0 .61-.24.81-.67.56a1.44 1.44 0 01-.67-1.33v-4.3c0-.61.24-.81.67-.56a1.44 1.44 0 01.67 1.33zm-.65-6.78c-1.09-.63-1.76-.23-1.76 1.07v4.32a3.54 3.54 0 001.75 3.1c1.09.63 1.76.22 1.76-1.07V125a3.54 3.54 0 00-1.75-3.14zm5.03 3.03v6.37c0 .6-.24.69-.62.47a1.24 1.24 0 01-.62-1.19v-6.37l-1-.61v6.41a3.29 3.29 0 001.67 2.94c1 .61 1.7.31 1.7-1v-6.41zm3.85 5.69a4.05 4.05 0 01-.91-2.14v-.11c0-.47.2-.61.56-.4a1.12 1.12 0 01.55 1v.31l1 .49v-.21a3.13 3.13 0 00-1.62-2.79c-1-.6-1.63-.27-1.63.92v.18a6.07 6.07 0 001.33 3.39 4.18 4.18 0 01.94 2.19v.27c0 .52-.21.66-.62.42a1.21 1.21 0 01-.61-1.14v-.59l-1-.49v.56a3.19 3.19 0 001.68 2.83c1.08.62 1.68.3 1.69-.88V134a6.23 6.23 0 00-1.36-3.42zm5.09.62v-1.15l-3.06-1.77-.02 8.26 3.06 1.77v-1.16l-1.97-1.14v-2.45l1.6.92v-1.16l-1.59-.92v-2.34l1.98 1.14z" fill="#e89f97" opacity=".54"/><path d="M114.32 110.02l-.66 5.1-.6-5.84-.97-.55-.65 5.11-.61-5.84-1.12-.65 1.09 8.9 1.11.64.65-4.54.61 5.27 1.11.64 1.13-7.62-1.09-.62zm2.68 6.81l.45-3.23.46 3.75zm1.17-4.58l-1.39-.8-1.24 7.55 1.09.63.24-1.74 1.2.69.23 2 1.11.64zm4.32 5.08c0 .7-.24.88-.76.58l-.44-.26v-2.45l.44.26a1.5 1.5 0 01.76 1.45zm.31 2.09c.5 0 .77-.5.78-1.37v-.59a3.46 3.46 0 00-1.8-3.13l-1.57-.91v8.26l1.09.63v-3.49l.5.29.85 4 1.15.67zm4.87-.54v-1.16l-3.06-1.77-.02 8.27 3.06 1.76v-1.15l-1.97-1.14.01-2.46 1.59.92V121l-1.59-.92.01-2.34 1.97 1.14zm3.31.75l-.01 3.48-1.29-.74.01-3.48-1.09-.63-.03 8.26 1.09.63.01-3.6 1.3.75-.01 3.59 1.09.63.02-8.26-1.09-.63zm4.56 8.92c0 .61-.24.81-.67.56a1.44 1.44 0 01-.67-1.33v-4.3c0-.61.24-.81.67-.56a1.44 1.44 0 01.67 1.33zm-.65-6.78c-1.09-.63-1.76-.23-1.76 1.07v4.32a3.54 3.54 0 001.75 3.1c1.09.63 1.76.22 1.76-1.07v-4.32a3.54 3.54 0 00-1.75-3.1zm5.03 3.02v6.37c0 .6-.24.69-.62.47a1.24 1.24 0 01-.62-1.19v-6.37l-1-.61v6.41a3.29 3.29 0 001.67 2.94c1 .61 1.7.31 1.7-1v-6.41zm3.85 5.7a4.05 4.05 0 01-.91-2.14v-.11c0-.47.2-.61.56-.4a1.12 1.12 0 01.55 1v.31l1 .49v-.21a3.13 3.13 0 00-1.62-2.79c-1-.6-1.63-.27-1.63.92v.18a6.07 6.07 0 001.33 3.39 4.18 4.18 0 01.94 2.19v.27c0 .52-.21.66-.62.42a1.21 1.21 0 01-.61-1.14v-.59l-1-.49v.56a3.19 3.19 0 001.68 2.83c1.08.62 1.68.3 1.69-.88v-.41a6.23 6.23 0 00-1.36-3.4zm5.09.62v-1.15l-3.06-1.77-.02 8.26 3.06 1.77v-1.16l-1.97-1.14v-2.45l1.6.92v-1.16l-1.59-.92v-2.34l1.98 1.14z" fill="#e69890" opacity=".58"/><path d="M114.32 109.92l-.66 5.11-.6-5.84-.97-.55-.65 5.11-.61-5.84-1.12-.65 1.09 8.9 1.11.64.65-4.55.61 5.28 1.11.64 1.13-7.62-1.09-.63zm2.68 6.82l.45-3.23.46 3.75zm1.17-4.58l-1.39-.8-1.26 7.54 1.09.63.24-1.74 1.2.69.23 2 1.11.64zm4.32 5.08c0 .7-.24.88-.76.58l-.44-.25v-2.45l.44.25a1.5 1.5 0 01.76 1.45zm.31 2.09c.5 0 .77-.5.78-1.37v-.59a3.46 3.46 0 00-1.8-3.13l-1.57-.91v8.26l1.09.63v-3.49l.5.29.85 4 1.15.67zm4.87-.54v-1.16l-3.06-1.77-.02 8.26 3.06 1.77v-1.16l-1.97-1.13.01-2.46 1.59.92v-1.15l-1.59-.92.01-2.34 1.97 1.14zm3.31.75l-.01 3.48-1.29-.74.01-3.49-1.09-.63-.03 8.26 1.09.63.01-3.59 1.3.74-.01 3.6 1.09.63.02-8.26-1.09-.63zm4.56 8.92c0 .61-.24.81-.67.56a1.44 1.44 0 01-.67-1.33v-4.3c0-.61.24-.81.67-.56a1.44 1.44 0 01.67 1.33zm-.65-6.78c-1.09-.63-1.76-.23-1.76 1.07v4.32a3.54 3.54 0 001.75 3.1c1.09.63 1.76.22 1.76-1.07v-4.32a3.54 3.54 0 00-1.75-3.1zm5.03 3.02v6.37c0 .6-.24.69-.62.47a1.24 1.24 0 01-.62-1.19v-6.37l-1-.61v6.41a3.29 3.29 0 001.67 2.94c1 .61 1.7.31 1.7-1v-6.41zm3.85 5.7a4.05 4.05 0 01-.91-2.14v-.11c0-.47.2-.61.56-.4a1.12 1.12 0 01.55 1v.31l1 .49v-.21a3.13 3.13 0 00-1.62-2.79c-1-.6-1.63-.27-1.63.92v.18a6.07 6.07 0 001.33 3.39 4.18 4.18 0 01.94 2.19v.27c0 .52-.21.66-.62.42a1.21 1.21 0 01-.61-1.14v-.59l-1-.49v.56a3.19 3.19 0 001.68 2.83c1.08.62 1.68.3 1.69-.88v-.41a6.23 6.23 0 00-1.36-3.4zm5.09.62v-1.16l-3.06-1.76-.02 8.26 3.06 1.76v-1.15l-1.97-1.14v-2.45l1.6.91v-1.15l-1.59-.92v-2.34l1.98 1.14z" fill="#e59188" opacity=".62"/><path d="M114.32 109.83l-.66 5.11-.6-5.84-.97-.55-.65 5.1-.61-5.83-1.12-.65 1.09 8.9 1.11.64.65-4.55.61 5.28 1.11.64 1.13-7.62-1.09-.63zm2.68 6.81l.45-3.23.46 3.75zm1.17-4.58l-1.39-.8-1.26 7.54 1.09.63.24-1.74 1.2.69.23 2 1.11.64zm4.32 5.09c0 .7-.24.88-.76.58l-.44-.25V115l.44.25a1.5 1.5 0 01.76 1.45zm.31 2.09c.5 0 .77-.5.78-1.37v-.59a3.46 3.46 0 00-1.8-3.13l-1.57-.91v8.26l1.09.63v-3.49l.5.29.85 4 1.15.67zm4.87-.55v-1.15l-3.06-1.77-.02 8.26 3.06 1.77v-1.16l-1.97-1.13.01-2.46 1.59.92v-1.16l-1.59-.91.01-2.34 1.97 1.13zm3.31.76l-.01 3.48-1.29-.75.01-3.48-1.09-.63-.03 8.26 1.09.63.01-3.59 1.3.74-.01 3.6 1.09.63.02-8.26-1.09-.63zm4.56 8.92c0 .61-.24.81-.67.56a1.44 1.44 0 01-.67-1.33v-4.3c0-.61.24-.81.67-.56a1.44 1.44 0 01.67 1.33zm-.65-6.78c-1.09-.63-1.76-.23-1.76 1.07V127a3.54 3.54 0 001.75 3.1c1.09.63 1.76.22 1.76-1.07v-4.32a3.54 3.54 0 00-1.75-3.12zm5.03 3.02v6.37c0 .6-.24.69-.62.47a1.24 1.24 0 01-.62-1.19v-6.37l-1-.61v6.41a3.29 3.29 0 001.67 2.94c1 .61 1.7.31 1.7-1v-6.41zm3.85 5.7a4.05 4.05 0 01-.91-2.14v-.11c0-.47.2-.61.56-.4a1.12 1.12 0 01.55 1v.34l1 .49v-.21a3.13 3.13 0 00-1.62-2.79c-1-.6-1.63-.27-1.63.92v.18a6.07 6.07 0 001.33 3.39 4.18 4.18 0 01.94 2.19v.27c0 .52-.21.66-.62.42a1.21 1.21 0 01-.61-1.14v-.59l-1-.49v.56a3.19 3.19 0 001.68 2.83c1.08.62 1.68.3 1.69-.88v-.41a6.23 6.23 0 00-1.36-3.43zm5.09.62v-1.16l-3.06-1.76-.02 8.26 3.06 1.76v-1.15l-1.97-1.14v-2.46l1.6.92v-1.15l-1.59-.92v-2.34l1.98 1.14z" fill="#e38a81" opacity=".65"/><path d="M114.32 109.74l-.66 5.1-.6-5.83-.97-.56-.65 5.11-.61-5.84-1.12-.64 1.09 8.9 1.11.64.65-4.55.61 5.28 1.11.64 1.13-7.62-1.09-.63zm2.68 6.81l.45-3.23.46 3.75zm1.17-4.58l-1.39-.8-1.26 7.54 1.09.63.24-1.74 1.2.69.23 2 1.11.64zm4.32 5.09c0 .7-.24.88-.76.58l-.44-.25v-2.45l.44.26a1.5 1.5 0 01.76 1.45zm.31 2.09c.5 0 .77-.5.78-1.37v-.59a3.46 3.46 0 00-1.8-3.13l-1.57-.91v8.26l1.09.63v-3.49l.5.29.85 4 1.15.67zm4.87-.55v-1.15l-3.06-1.77-.02 8.26 3.06 1.77v-1.16l-1.97-1.14.01-2.45 1.59.92v-1.16l-1.59-.91.01-2.34 1.97 1.13zm3.31.76l-.01 3.48-1.29-.75.01-3.48-1.09-.63-.03 8.26 1.09.63.01-3.59 1.3.74-.01 3.6 1.09.63.02-8.26-1.09-.63zm4.56 8.92c0 .61-.24.81-.67.56a1.44 1.44 0 01-.67-1.33v-4.3c0-.61.24-.81.67-.56a1.44 1.44 0 01.67 1.33zm-.65-6.78c-1.09-.63-1.76-.23-1.76 1.07v4.32a3.54 3.54 0 001.75 3.1c1.09.63 1.76.22 1.76-1.07v-4.32a3.54 3.54 0 00-1.75-3.11zm5.03 3.02v6.37c0 .6-.24.69-.62.47a1.24 1.24 0 01-.62-1.19v-6.37l-1-.61v6.41a3.29 3.29 0 001.67 2.94c1 .61 1.7.31 1.7-1v-6.41zm3.85 5.69a4.05 4.05 0 01-.91-2.14V128c0-.47.2-.61.56-.4a1.12 1.12 0 01.55 1v.31l1 .49v-.21a3.13 3.13 0 00-1.62-2.79c-1-.6-1.63-.27-1.63.92v.18a6.07 6.07 0 001.33 3.39 4.18 4.18 0 01.94 2.19v.27c0 .52-.21.66-.62.42a1.21 1.21 0 01-.61-1.14V132l-1-.49v.56a3.19 3.19 0 001.68 2.83c1.08.62 1.68.3 1.69-.88v-.41a6.23 6.23 0 00-1.36-3.4zm5.09.63v-1.16l-3.06-1.77-.02 8.27 3.06 1.76v-1.15l-1.97-1.14v-2.46l1.6.92v-1.15l-1.59-.92v-2.34l1.98 1.14z" fill="#e18379" opacity=".69"/><path d="M114.32 109.65l-.66 5.1-.6-5.83-.97-.56-.65 5.11-.61-5.84-1.12-.64 1.09 8.9 1.11.64.65-4.55.61 5.28 1.11.64 1.13-7.62-1.09-.63zm2.68 6.81l.45-3.23.46 3.75zm1.17-4.58l-1.39-.8-1.26 7.54 1.09.63.24-1.74 1.2.69.23 2 1.11.64zm4.32 5.12c0 .7-.24.88-.76.58l-.44-.26v-2.45l.44.25a1.5 1.5 0 01.76 1.45zm.31 2.09c.5 0 .77-.5.78-1.37v-.59a3.46 3.46 0 00-1.8-3.13l-1.57-.91v8.26l1.09.63v-3.49l.5.29.85 4 1.15.67zm4.87-.58v-1.15l-3.06-1.77-.02 8.26 3.06 1.77v-1.16l-1.97-1.14.01-2.45 1.59.92v-1.16l-1.59-.92.01-2.33 1.97 1.13zm3.31.76l-.01 3.48-1.29-.75.01-3.48-1.09-.63-.03 8.26 1.09.63.01-3.6 1.3.75-.01 3.6 1.09.63.02-8.26-1.09-.63zm4.56 8.92c0 .61-.24.81-.67.56a1.44 1.44 0 01-.67-1.33v-4.3c0-.61.24-.81.67-.56a1.44 1.44 0 01.67 1.33zm-.65-6.78c-1.09-.63-1.76-.23-1.76 1.07v4.32a3.54 3.54 0 001.75 3.1c1.09.63 1.76.22 1.76-1.07v-4.33a3.54 3.54 0 00-1.75-3.1zm5.03 3.02v6.37c0 .6-.24.69-.62.47a1.24 1.24 0 01-.62-1.19v-6.37l-1-.61v6.41a3.29 3.29 0 001.67 2.94c1 .61 1.7.31 1.7-1v-6.41zm3.85 5.69a4.05 4.05 0 01-.91-2.14v-.11c0-.47.2-.61.56-.4a1.12 1.12 0 01.55 1v.31l1 .49v-.21a3.13 3.13 0 00-1.62-2.79c-1-.6-1.63-.27-1.63.92v.18a6.07 6.07 0 001.33 3.39A4.18 4.18 0 01144 133v.27c0 .52-.21.66-.62.42a1.21 1.21 0 01-.61-1.14V132l-1-.49v.49a3.19 3.19 0 001.68 2.83c1.08.62 1.68.3 1.69-.88v-.41a6.23 6.23 0 00-1.37-3.42zm5.09.63v-1.16l-3.06-1.77-.02 8.26 3.06 1.77v-1.16l-1.97-1.13v-2.46l1.6.92v-1.15l-1.59-.93v-2.33l1.98 1.14z" fill="#e07c72" opacity=".73"/><path d="M114.32 109.56l-.66 5.1-.6-5.83-.97-.56-.65 5.11-.61-5.84-1.12-.65 1.09 8.91 1.11.64.65-4.55.61 5.28 1.11.64 1.13-7.62-1.09-.63zm2.68 6.81l.45-3.23.46 3.75zm1.17-4.58l-1.39-.8-1.26 7.54 1.09.63.24-1.74 1.2.69.23 2 1.11.64zm4.32 5.09c0 .7-.24.88-.76.58l-.44-.25v-2.45l.44.25a1.5 1.5 0 01.76 1.45zm.31 2.09c.5 0 .77-.5.78-1.37v-.6a3.46 3.46 0 00-1.8-3.13l-1.57-.91v8.26l1.09.63v-3.49l.5.29.85 4 1.15.67zm4.87-.55v-1.15l-3.06-1.77-.02 8.26 3.06 1.77v-1.16l-1.97-1.14.01-2.45 1.59.92v-1.16l-1.59-.92.01-2.34 1.97 1.14zm3.31.76l-.01 3.48-1.29-.75.01-3.48-1.09-.63-.03 8.26 1.09.63.01-3.6 1.3.75-.01 3.6 1.09.63.02-8.26-1.09-.63zm4.56 8.92c0 .61-.24.81-.67.56a1.44 1.44 0 01-.67-1.33V123c0-.61.24-.81.67-.56a1.44 1.44 0 01.67 1.33zm-.65-6.78c-1.09-.63-1.76-.23-1.76 1.07v4.32a3.54 3.54 0 001.75 3.1c1.09.63 1.76.22 1.76-1.07v-4.32a3.54 3.54 0 00-1.75-3.11zm5.03 3.02v6.37c0 .6-.24.69-.62.47a1.24 1.24 0 01-.62-1.19v-6.37l-1-.61v6.41a3.29 3.29 0 001.67 2.94c1 .61 1.7.31 1.7-1v-6.41zm3.85 5.66a4.05 4.05 0 01-.91-2.14v-.11c0-.47.2-.61.56-.4a1.12 1.12 0 01.55 1v.31l1 .49V129a3.13 3.13 0 00-1.62-2.79c-1-.6-1.63-.27-1.63.92v.18a6.07 6.07 0 001.33 3.39 4.18 4.18 0 01.94 2.19v.27c0 .52-.21.66-.62.42a1.21 1.21 0 01-.61-1.14v-.59l-1-.49v.56a3.19 3.19 0 001.68 2.83c1.08.62 1.68.3 1.69-.88v-.41a6.23 6.23 0 00-1.36-3.46zm5.09.66v-1.16l-3.06-1.77-.02 8.26 3.06 1.77v-1.16l-1.97-1.14v-2.45l1.6.92v-1.16l-1.59-.92v-2.34l1.98 1.15z" fill="#de756b" opacity=".77"/><path d="M114.32 109.47l-.66 5.1-.6-5.83-.97-.56-.65 5.11-.61-5.84-1.12-.65 1.09 8.9 1.11.65.65-4.55.61 5.28 1.11.64 1.13-7.62-1.09-.63zm2.68 6.81l.45-3.23.46 3.75zm1.17-4.58l-1.39-.8-1.26 7.54 1.09.63.24-1.74 1.2.69.23 2 1.11.64zm4.32 5.08c0 .7-.24.88-.76.58l-.44-.25v-2.45l.44.25a1.5 1.5 0 01.76 1.45zm.31 2.09c.5 0 .77-.5.78-1.37v-.59a3.46 3.46 0 00-1.8-3.13l-1.57-.91v8.26l1.09.63v-3.49l.5.29.85 4 1.15.67zm4.87-.54v-1.16l-3.06-1.76-.02 8.26 3.06 1.76v-1.15l-1.97-1.14.01-2.45 1.59.92v-1.16l-1.59-.92.01-2.34 1.97 1.14zm3.31.75l-.01 3.49-1.29-.75.01-3.48-1.09-.63-.03 8.26 1.09.63.01-3.6 1.3.75-.01 3.59 1.09.63.02-8.26-1.09-.63zm4.56 8.92c0 .61-.24.81-.67.56a1.44 1.44 0 01-.67-1.33v-4.3c0-.61.24-.81.67-.56a1.44 1.44 0 01.67 1.33zm-.65-6.78c-1.09-.63-1.76-.23-1.76 1.07v4.32a3.54 3.54 0 001.75 3.1c1.09.63 1.76.22 1.76-1.07v-4.32a3.54 3.54 0 00-1.75-3.1zm5.03 3.03v6.37c0 .6-.24.69-.62.47a1.24 1.24 0 01-.62-1.19v-6.37l-1-.61v6.41a3.29 3.29 0 001.67 2.94c1 .61 1.7.31 1.7-1v-6.41zm3.85 5.69a4.05 4.05 0 01-.91-2.14v-.11c0-.47.2-.61.56-.4a1.12 1.12 0 01.55 1v.31l1 .49v-.21a3.13 3.13 0 00-1.62-2.79c-1-.6-1.63-.27-1.63.92v.18a6.07 6.07 0 001.33 3.39 4.18 4.18 0 01.94 2.19v.27c0 .52-.21.66-.62.42a1.21 1.21 0 01-.61-1.14v-.59l-1-.49v.56a3.19 3.19 0 001.68 2.83c1.08.62 1.68.3 1.69-.88v-.41a6.23 6.23 0 00-1.36-3.4zm5.09.62v-1.15l-3.06-1.77-.02 8.26 3.06 1.77v-1.16l-1.97-1.14v-2.45l1.6.92v-1.16l-1.59-.92v-2.34l1.98 1.14z" fill="#dc6e63" opacity=".81"/><path d="M114.32 109.38l-.66 5.1-.6-5.83-.97-.56-.65 5.11-.61-5.84-1.12-.65 1.09 8.9 1.11.64.65-4.54.61 5.27 1.11.65 1.13-7.63-1.09-.62zm2.68 6.81l.45-3.23.46 3.75zm1.17-4.58l-1.39-.8-1.26 7.54 1.09.63.24-1.74 1.2.69.23 2 1.11.64zm4.32 5.08c0 .7-.24.88-.76.58l-.44-.25v-2.45l.44.25a1.5 1.5 0 01.76 1.45zm.31 2.09c.5 0 .77-.5.78-1.37v-.59a3.46 3.46 0 00-1.8-3.13l-1.57-.91v8.26l1.09.63v-3.49l.5.29.85 4 1.15.67zm4.87-.54v-1.16l-3.06-1.77-.02 8.27 3.06 1.76v-1.15l-1.97-1.14.01-2.45 1.59.91v-1.15l-1.59-.92.01-2.34 1.97 1.14zm3.31.75l-.01 3.48-1.29-.74.01-3.48-1.09-.63-.03 8.26 1.09.63.01-3.6 1.3.75-.01 3.59 1.09.63.02-8.26-1.09-.63zm4.56 8.92c0 .61-.24.81-.67.56a1.44 1.44 0 01-.67-1.33v-4.3c0-.61.24-.81.67-.56a1.44 1.44 0 01.67 1.33zm-.65-6.78c-1.09-.63-1.76-.23-1.76 1.07v4.32a3.54 3.54 0 001.75 3.1c1.09.63 1.76.22 1.76-1.07v-4.32a3.54 3.54 0 00-1.75-3.1zm5.03 3.02v6.37c0 .6-.24.69-.62.47a1.24 1.24 0 01-.62-1.19v-6.37l-1-.61v6.41a3.29 3.29 0 001.67 2.94c1 .61 1.7.31 1.7-1v-6.41zm3.85 5.7a4.05 4.05 0 01-.91-2.14v-.11c0-.47.2-.61.56-.4a1.12 1.12 0 01.55 1v.31l1 .49v-.21a3.13 3.13 0 00-1.57-2.79c-1-.6-1.63-.27-1.63.92v.18a6.07 6.07 0 001.33 3.39 4.18 4.18 0 01.94 2.19v.32c0 .52-.21.66-.62.42a1.21 1.21 0 01-.61-1.14v-.59l-1-.49v.56a3.19 3.19 0 001.68 2.83c1.08.62 1.68.3 1.69-.88v-.41a6.23 6.23 0 00-1.41-3.45zm5.09.62v-1.15l-3.06-1.77-.02 8.26 3.06 1.77v-1.16l-1.97-1.14v-2.45l1.6.92v-1.16l-1.59-.92v-2.34l1.98 1.14z" fill="#db685c" opacity=".85"/><path d="M114.32 109.28l-.66 5.11-.6-5.83-.97-.56-.65 5.11-.61-5.84-1.12-.65 1.09 8.9 1.11.64.65-4.54.61 5.27 1.11.64 1.13-7.62-1.09-.63zm2.68 6.82l.45-3.23.46 3.75zm1.17-4.58l-1.39-.8-1.26 7.54 1.09.63.24-1.74 1.2.69.23 2 1.11.64zm4.32 5.08c0 .7-.24.88-.76.58l-.44-.26v-2.45l.44.26a1.5 1.5 0 01.76 1.45zm.31 2.09c.5 0 .77-.5.78-1.37v-.59a3.46 3.46 0 00-1.8-3.13l-1.57-.91v8.26l1.09.63v-3.49l.5.29.85 4 1.15.67zm4.87-.54v-1.16l-3.06-1.77-.02 8.26 3.06 1.77v-1.16l-1.97-1.13.01-2.46 1.59.92v-1.15l-1.59-.92.01-2.34 1.97 1.14zm3.31.75l-.01 3.48-1.29-.74.01-3.48-1.09-.63-.03 8.26 1.09.63.01-3.6 1.3.75-.01 3.59 1.09.63.02-8.26-1.09-.63zm4.56 8.92c0 .61-.24.81-.67.56a1.44 1.44 0 01-.67-1.33v-4.3c0-.61.24-.81.67-.56a1.44 1.44 0 01.67 1.33zm-.65-6.78c-1.09-.63-1.76-.23-1.76 1.07v4.32a3.54 3.54 0 001.75 3.1c1.09.63 1.76.22 1.76-1.07v-4.32a3.54 3.54 0 00-1.75-3.14zm5.03 3.02v6.37c0 .6-.24.69-.62.47a1.24 1.24 0 01-.62-1.19v-6.37l-1-.61v6.41a3.29 3.29 0 001.67 2.94c1 .61 1.7.31 1.7-1v-6.41zm3.85 5.7a4.05 4.05 0 01-.91-2.14v-.11c0-.47.2-.61.56-.4a1.12 1.12 0 01.55 1v.31l1 .49v-.21a3.13 3.13 0 00-1.57-2.7c-1-.6-1.63-.27-1.63.92v.08a6.07 6.07 0 001.33 3.39 4.18 4.18 0 01.94 2.19v.27c0 .52-.21.66-.62.42a1.21 1.21 0 01-.61-1.14v-.59l-1-.49v.56a3.19 3.19 0 001.68 2.83c1.08.62 1.68.3 1.69-.88v-.41a6.23 6.23 0 00-1.41-3.39zm5.09.62v-1.16l-3.06-1.76-.02 8.26 3.06 1.77v-1.16l-1.97-1.14v-2.45l1.6.92v-1.16l-1.59-.92v-2.34l1.98 1.14z" fill="#d96154" opacity=".88"/><path d="M114.32 109.19l-.66 5.11-.6-5.84-.97-.55-.65 5.11-.61-5.84-1.12-.65 1.09 8.9 1.11.64.65-4.54.61 5.27 1.11.64 1.13-7.62-1.09-.63zM117 116l.45-3.23.46 3.75zm1.17-4.58l-1.39-.8-1.26 7.54 1.09.63.24-1.74 1.2.69.23 2 1.11.64zm4.32 5.09c0 .7-.24.88-.76.58l-.44-.25v-2.45l.44.25a1.5 1.5 0 01.76 1.45zm.31 2.09c.5 0 .77-.5.78-1.37v-.59a3.46 3.46 0 00-1.8-3.13l-1.57-.91v8.26l1.09.63V118l.5.29.85 4 1.15.67zm4.87-.54v-1.16l-3.06-1.77-.02 8.26 3.06 1.77V124l-1.97-1.13.01-2.46 1.59.92v-1.16l-1.59-.91.01-2.34 1.97 1.14zm3.31.75l-.01 3.48-1.29-.74.01-3.49-1.09-.63-.03 8.26 1.09.63.01-3.59 1.3.74-.01 3.6 1.09.63.02-8.26-1.09-.63zm4.56 8.92c0 .61-.24.81-.67.56a1.44 1.44 0 01-.67-1.33v-4.3c0-.61.24-.81.67-.56a1.44 1.44 0 01.67 1.33zm-.65-6.78c-1.09-.63-1.76-.23-1.76 1.07v4.32a3.54 3.54 0 001.75 3.1c1.09.63 1.76.22 1.76-1.07V124a3.54 3.54 0 00-1.75-3.05zm5.03 3.05v6.37c0 .6-.24.69-.62.47a1.24 1.24 0 01-.62-1.19v-6.37l-1-.61v6.41a3.29 3.29 0 001.67 2.94c1 .61 1.7.31 1.7-1v-6.41zm3.85 5.67a4.05 4.05 0 01-.91-2.14v-.11c0-.47.2-.61.56-.4a1.12 1.12 0 01.55 1v.31l1 .49v-.21a3.13 3.13 0 00-1.62-2.79c-1-.6-1.63-.27-1.63.92v.26a6.07 6.07 0 001.33 3.39 4.18 4.18 0 01.94 2.19v.27c0 .52-.21.66-.62.42a1.21 1.21 0 01-.61-1.14v-.59l-1-.49v.56a3.19 3.19 0 001.68 2.83c1.08.62 1.68.3 1.69-.88v-.41a6.23 6.23 0 00-1.36-3.48zm5.09.62v-1.16l-3.06-1.76-.02 8.26 3.06 1.76v-1.15l-1.97-1.14v-2.45l1.6.91v-1.15l-1.59-.92v-2.34l1.98 1.14z" fill="#d75a4d" opacity=".92"/><path d="M114.32 109.1l-.66 5.1-.6-5.83-.97-.55-.65 5.1-.61-5.83-1.12-.65 1.09 8.9 1.11.64.65-4.55.61 5.28 1.11.64 1.13-7.62-1.09-.63zm2.68 6.81l.45-3.23.46 3.75zm1.17-4.58l-1.39-.8-1.26 7.54 1.09.63.24-1.74 1.2.69.23 2 1.11.64zm4.32 5.09c0 .7-.24.88-.76.58l-.44-.25v-2.45l.44.25a1.5 1.5 0 01.76 1.45zm.31 2.09c.5 0 .77-.5.78-1.37v-.59a3.46 3.46 0 00-1.8-3.13l-1.57-.91v8.26l1.09.63v-3.5l.5.29.85 4 1.15.67zm4.87-.54v-1.16l-3.06-1.77-.02 8.26 3.06 1.77v-1.16l-1.97-1.13.01-2.46 1.59.92v-1.16l-1.59-.91.01-2.34 1.97 1.14zm3.31.75l-.01 3.48-1.29-.75.01-3.48-1.09-.63-.03 8.26 1.09.63.01-3.59 1.3.74-.01 3.6 1.09.63.02-8.26-1.09-.63zm4.56 8.92c0 .61-.24.81-.67.56a1.44 1.44 0 01-.67-1.33v-4.3c0-.61.24-.81.67-.56a1.44 1.44 0 01.67 1.33zm-.65-6.78c-1.09-.63-1.76-.23-1.76 1.07v4.32a3.54 3.54 0 001.75 3.1c1.09.63 1.76.22 1.76-1.07V124a3.54 3.54 0 00-1.75-3.14zm5.03 3.02v6.37c0 .6-.24.69-.62.47a1.24 1.24 0 01-.62-1.19v-6.37l-1-.61v6.41a3.29 3.29 0 001.67 2.94c1 .61 1.7.31 1.7-1v-6.41zm3.85 5.7a4.05 4.05 0 01-.91-2.14v-.11c0-.47.2-.61.56-.4a1.12 1.12 0 01.55 1v.31l1 .49v-.21a3.13 3.13 0 00-1.62-2.79c-1-.6-1.63-.27-1.63.92v.18a6.07 6.07 0 001.33 3.39 4.18 4.18 0 01.94 2.19v.27c0 .52-.21.66-.62.42a1.21 1.21 0 01-.61-1.14v-.59l-1-.49v.56a3.19 3.19 0 001.68 2.83c1.08.62 1.68.3 1.69-.88V133a6.23 6.23 0 00-1.36-3.42zm5.09.62v-1.16l-3.06-1.76-.02 8.26 3.06 1.76v-1.15l-1.97-1.14v-2.46l1.6.92v-1.15l-1.59-.92v-2.34l1.98 1.14z" fill="#d65345" opacity=".96"/><path d="M114.32 109.01l-.66 5.1-.6-5.83-.97-.56-.65 5.11-.61-5.83-1.12-.65 1.09 8.9 1.11.64.65-4.55.61 5.28 1.11.64 1.13-7.62-1.09-.63zm2.68 6.81l.45-3.23.46 3.75zm1.17-4.58l-1.39-.8-1.24 7.56 1.09.63.24-1.74 1.2.69.23 2 1.11.64zm4.32 5.09c0 .7-.24.88-.76.58l-.44-.25v-2.46l.44.26a1.5 1.5 0 01.76 1.45zm.31 2.09c.5 0 .77-.5.78-1.37v-.59a3.46 3.46 0 00-1.8-3.13l-1.57-.91v8.26l1.09.63v-3.49l.5.29.85 4 1.15.67zm4.87-.55v-1.15l-3.06-1.77-.02 8.26 3.06 1.77v-1.16l-1.97-1.14.01-2.45 1.59.92v-1.16l-1.59-.91.01-2.34 1.97 1.13zm3.31.76l-.01 3.48-1.29-.75.01-3.48-1.09-.63-.03 8.26 1.09.63.01-3.59 1.3.74-.01 3.6 1.09.63.02-8.26-1.09-.63zm4.56 8.92c0 .61-.24.81-.67.56a1.44 1.44 0 01-.67-1.33v-4.3c0-.61.24-.81.67-.56a1.44 1.44 0 01.67 1.33zm-.65-6.78c-1.09-.63-1.76-.23-1.76 1.07v4.32a3.54 3.54 0 001.75 3.1c1.09.63 1.76.22 1.76-1.07v-4.32a3.54 3.54 0 00-1.75-3.11zm5.03 3.02v6.37c0 .6-.24.69-.62.47a1.24 1.24 0 01-.62-1.19v-6.37l-1-.61v6.41a3.29 3.29 0 001.67 2.94c1 .61 1.7.31 1.7-1v-6.41zm3.85 5.69a4.05 4.05 0 01-.91-2.14v-.11c0-.47.2-.61.56-.4a1.12 1.12 0 01.55 1v.31l1 .49v-.21a3.13 3.13 0 00-1.62-2.79c-1-.6-1.63-.27-1.63.92v.18a6.07 6.07 0 001.33 3.39 4.18 4.18 0 01.94 2.19v.27c0 .52-.21.66-.62.42a1.21 1.21 0 01-.61-1.14v-.59l-1-.49v.56a3.19 3.19 0 001.68 2.83c1.08.62 1.68.3 1.69-.88v-.41a6.23 6.23 0 00-1.36-3.4zm5.09.63v-1.16l-3.06-1.77-.02 8.26 3.06 1.77v-1.15l-1.97-1.14v-2.46l1.6.92v-1.15l-1.59-.92v-2.34l1.98 1.14z" fill="#d44c3e"/></g><g class="cls-2"><path class="cls-3" d="M112.21 111.07l-.3 4.82.84-.49.66-4.55-1.2.22z"/><path class="cls-4" d="M110.56 105.86l-.85.49.89.96 1.08-.81-1.12-.64z"/><path class="cls-3" d="M111.68 106.5l-.85.5.14 6.37 1.32-1.03-.61-5.84z"/><path class="cls-4" d="M112.94 107.23l-.85.49.97.9.85-.83-.97-.56z"/><path class="cls-3" d="M113.91 107.79l-.85.49.38 6.07 1.07-.73-.6-5.83z"/><path class="cls-4" d="M115.17 108.52l-.85.49 1.05.94.89-.8-1.09-.63z"/><path class="cls-3" d="M115.12 109.81l-.84 7.45.85-.49 1.13-7.62-1.14.66z"/><path class="cls-7" d="M114.32 109.01l-.66 5.1-.6-5.83-.97-.56-.65 5.11-.61-5.83-1.12-.65 1.09 8.9 1.11.64.65-4.55.61 5.28 1.11.64 1.13-7.62-1.09-.63z"/></g><g class="cls-2"><path class="cls-3" d="M116.62 116.6v2.01l.85-.49.24-1.74-1.09.22z"/><path class="cls-4" d="M117.86 115.33l-1.34.49 1.4.53.85-.49-.91-.53z"/><path class="cls-3" d="M117.01 112.41v3.41l.85-.49.45-3.23-1.3.31z"/><path class="cls-4" d="M117.65 109.95l-.85.49 1.39 1.03.84-.72-1.38-.8z"/><path class="cls-3" d="M119.03 110.75l-1.11.65 1.49 8.82.84-.49-1.22-8.98z"/><path class="cls-7" d="M118.19 111.24l-1.39-.8-1.26 7.56 1.09.63.24-1.74 1.2.69.23 2 1.11.64zm-1.19 4.58l.45-3.23.46 3.75z"/></g><g class="cls-2"><path class="cls-3" d="M120.98 117.5l.3 3.8.84-.49.01-3.49-1.15.18zm2.68.42l-1.16.36 1.3 4.47.84-.49-.98-4.34z"/><path class="cls-4" d="M122.58 116.41l-.44-.25-.85.49.27.4a1.3 1.3 0 00.85.13l.72-.66c-.13.07-.31.03-.55-.11z"/><path class="cls-3" d="M120.98 114.12l.31 2.53.85-.49v-2.46l-1.16.42z"/><path class="cls-4" d="M122.63 112.83l-1.57-.91-.85.49 1.43 1a3.3 3.3 0 011.83 3v.65c0 .68 0 1-.32 1.2l.85-.49c.31-.18.47-.6.47-1.28V116a3.46 3.46 0 00-1.84-3.17z"/><path class="cls-7" d="M122.81 118.41c.5 0 .77-.5.78-1.37v-.59a3.46 3.46 0 00-1.8-3.13l-1.57-.91v8.26l1.09.63v-3.49l.5.29.85 4 1.15.67zm-.31-2.09c0 .7-.24.88-.76.58l-.44-.25v-2.45l.44.26a1.5 1.5 0 01.76 1.45z"/></g><g class="cls-2"><path class="cls-3" d="M127.27 124.02l.38.96.85-.5v-1.15l-1.23.69z"/><path class="cls-4" d="M126.53 122.19l-.85.49 1.74 1.25 1.08-.6-1.97-1.14z"/><path class="cls-3" d="M125.31 120.09l.37 2.59.85-.49v-2.45l-1.22.35z"/><path class="cls-4" d="M126.54 118.58l-.85.5 1.4 1.26 1.04-.84-1.59-.92z"/><path class="cls-3" d="M126.91 120.22l.37.93.85-.49v-1.16l-1.22.72zm-1.49-3.69l.27 2.55.85-.5.01-2.34-1.13.29z"/><path class="cls-4" d="M125.46 114.46l-.85.49 3.04 2.1.87-.83-3.06-1.76z"/><path class="cls-3" d="M127.42 116.85l.25 1.02.84-.49.01-1.16-1.1.63z"/><path class="cls-7" d="M127.67 117.87v-1.15l-3.06-1.77-.02 8.26 3.06 1.77v-1.16l-1.97-1.14.01-2.45 1.59.92v-1.16l-1.59-.91.01-2.34 1.97 1.13z"/></g><g class="cls-2"><path class="cls-3" d="M129.44 122.39l.22 3.75.85-.49.01-3.6-1.08.34z"/><path class="cls-4" d="M130.52 120.87l-1.24.62 1.69.62.85-.49-1.3-.75zm-1.08-4.11l-.84.49 1.09.81.84-.67-1.09-.63z"/><path class="cls-3" d="M129.38 118.06l.3 3.3.84-.49.01-3.48-1.15.67z"/><path class="cls-4" d="M131.83 118.14l-.85.49 1.09.83.85-.69-1.09-.63z"/><path class="cls-3" d="M131.82 119.38l.23 8.14.85-.49.02-8.26-1.1.61z"/><path class="cls-7" d="M130.98 118.63l-.01 3.48-1.29-.75.01-3.48-1.09-.63-.03 8.26 1.09.63.01-3.59 1.3.74-.01 3.6 1.09.63.02-8.26-1.09-.63z"/></g><g class="cls-2"><path class="cls-3" d="M135.71 127.61a1.44 1.44 0 01-.67-1.33V122c0-.34.07-.55.21-.63l-1.07.46c-.14.08-.22.43-.22.77l.09 4.31a1.47 1.47 0 00.73 1.32c.19.11.51.21.62.14l.75-.67a.46.46 0 01-.44-.09z"/><path class="cls-4" d="M135.73 120.27a1.3 1.3 0 00-1.28-.19l-.85.49c.3-.18.62 0 1.16.3a3.3 3.3 0 011.67 3l.06 4.35c0 .66 0 1.06-.36 1.24l.87-.46c.31-.18.48-.61.49-1.27v-4.32a3.54 3.54 0 00-1.76-3.14z"/><path class="cls-7" d="M134.89 120.76c-1.09-.63-1.76-.23-1.76 1.07v4.32a3.54 3.54 0 001.75 3.1c1.09.63 1.76.22 1.76-1.07v-4.32a3.54 3.54 0 00-1.75-3.1zm.65 6.78c0 .61-.24.81-.67.56a1.44 1.44 0 01-.67-1.33v-4.3c0-.61.24-.81.67-.56a1.44 1.44 0 01.67 1.33z"/></g><g class="cls-2"><path class="cls-4" d="M138.49 121.98l-.85.49 1.05.86.84-.75-1.04-.6z"/><path class="cls-3" d="M140.13 130.14a1.24 1.24 0 01-.62-1.19v-6.37l-1.09.64.1 6.28a1.39 1.39 0 00.7 1.24.59.59 0 00.52.05l.8-.58c-.07.07-.22.04-.41-.07z"/><path class="cls-4" d="M140.77 123.3l-.85.49 1.09.85.85-.71-1.09-.63z"/><path class="cls-3" d="M140.76 124.56l.23 6.27c0 .64-.16 1-.45 1.2l.85-.49c.29-.17.44-.56.45-1.2v-6.41z"/><path class="cls-7" d="M139.92 123.79v6.37c0 .6-.24.69-.62.47a1.24 1.24 0 01-.62-1.19v-6.37l-1-.61v6.41a3.29 3.29 0 001.67 2.94c1 .61 1.7.31 1.7-1v-6.41z"/></g><g class="cls-2"><path class="cls-4" d="M142.6 130.34l-.85.49 1.05.69.85-.69-1.05-.49z"/><path class="cls-3" d="M144.26 132.55a1.21 1.21 0 01-.61-1.14v-.59l-1 .59.07.49a1.44 1.44 0 00.67 1.25.52.52 0 00.49.06l.85-.58q-.17.09-.47-.08z"/><path class="cls-3" d="M144.61 129a4.05 4.05 0 01-.91-2.14v-.11c0-.25.06-.4.16-.46l-1 .43a.54.54 0 00-.22.47v.48c0 .49.29.94 1 2.07 1 1.54 1.34 2.11 1.34 3.1v.6c0 .58 0 .83-.29 1l.85-.49c.27-.16.42-.53.42-1.11v-.41a6.23 6.23 0 00-1.35-3.43z"/><path class="cls-4" d="M144.24 125.18c-.52-.3-.93-.37-1.21-.21l-.85.49c.28-.16.61.05 1.14.36a2.69 2.69 0 011.55 2.53l.13.32.85-.49V128a3.13 3.13 0 00-1.61-2.82z"/><path class="cls-7" d="M143.77 129.48a4.05 4.05 0 01-.91-2.14v-.11c0-.47.2-.61.56-.4a1.12 1.12 0 01.55 1v.31l1 .49v-.21a3.13 3.13 0 00-1.62-2.79c-1-.6-1.63-.27-1.63.92v.18a6.07 6.07 0 001.33 3.39 4.18 4.18 0 01.94 2.19v.27c0 .52-.21.66-.62.42a1.21 1.21 0 01-.61-1.14v-.59l-1-.49v.56a3.19 3.19 0 001.68 2.83c1.08.62 1.68.3 1.69-.88v-.41a6.23 6.23 0 00-1.36-3.4z"/></g><g class="cls-2"><path class="cls-4" d="M147.71 134.42l-.99.57 2.12 1.2.85-.63-1.98-1.14z"/><path class="cls-3" d="M148.59 136.19l.25 1.02.85-.49v-1.16l-1.1.63zm-1.95-3.8l.08 2.6.99-.57.01-2.45-1.08.42z"/><path class="cls-4" d="M147.72 130.81l-1.15.66 1.9.92.85-.66-1.6-.92z"/><path class="cls-3" d="M148.3 132.33l.17 1.05.84-.49.01-1.16-1.02.6zm-1.66-3.37v2.48l1.08-.63.01-2.34-1.09.49z"/><path class="cls-4" d="M146.65 126.69l-.85.49 3.06 1.97.85-.69-3.06-1.77z"/><path class="cls-3" d="M148.65 129.07l.21 1.04.85-.5v-1.15l-1.06.61z"/><path class="cls-7" d="M148.86 130.11v-1.16l-3.06-1.77-.02 8.26 3.06 1.77v-1.15l-1.97-1.14v-2.46l1.6.92v-1.15l-1.59-.92v-2.34l1.98 1.14z"/></g><g clip-path="url(#clip-path-3)"><path class="cls-86" transform="rotate(-30.02 114.437 34.043)" d="M47.23 33.74h134.39v.6H47.23z"/><path class="cls-86" transform="matrix(.87 -.5 .5 .87 -2.06 66.59)" d="M55.92 36.83h134.39v.6H55.92z"/><path class="cls-86" transform="rotate(-29.9 132 40.09)" d="M64.62 39.91h134.39v.6H64.62z"/><path class="cls-86" transform="rotate(-30.02 140.538 43.3)" d="M73.32 43h134.39v.6H73.32z"/><path class="cls-86" transform="rotate(-30.03 149.19 46.391)" d="M82.01 46.09H216.4v.6H82.01z"/><path class="cls-87" transform="rotate(-30.02 113.844 33.944)" d="M46.64 33.64h134.39v.6H46.64z"/><path class="cls-87" transform="rotate(-30.02 122.554 37.019)" d="M55.34 36.72h134.39v.6H55.34z"/><path class="cls-87" transform="matrix(.87 -.5 .5 .87 -2.46 71.04)" d="M64.03 39.81h134.39v.6H64.03z"/><path class="cls-87" transform="rotate(-30.02 139.926 43.196)" d="M72.73 42.9h134.39v.6H72.73z"/><path class="cls-87" transform="rotate(-30.02 148.63 46.29)" d="M81.42 45.98h134.39v.6H81.42z"/></g><g clip-path="url(#clip-path-4)"><path class="cls-86" transform="rotate(-30.02 177.97 65.909)" d="M110.75 65.6h134.39v.6H110.75z"/><path class="cls-86" transform="rotate(-30.03 172.993 59.71)" d="M105.82 59.4h134.39v.6H105.82z"/><path class="cls-86" transform="rotate(-30.03 168.061 53.511)" d="M100.89 53.21h134.39v.6H100.89z"/><path class="cls-86" transform="rotate(-30.02 183.519 70.855)" d="M116.29 70.56h134.39v.6H116.29z"/><path class="cls-86" transform="rotate(-30.02 189.842 75.229)" d="M122.62 74.93h134.39v.6H122.62z"/><path class="cls-86" transform="rotate(-30.02 194.943 80.354)" d="M127.73 80.04h134.39v.6H127.73z"/><path class="cls-86" transform="rotate(-30.02 200.856 85.138)" d="M133.63 84.84h134.39v.6H133.63z"/><path class="cls-89" transform="rotate(-30.02 178.324 66.224)" d="M111.15 65.93h134.39v.6H111.15z"/><path class="cls-89" d="M115.42 93.97l-.3-.52 116.3-67.35.3.52-116.3 67.35zm-4.93-6.19l-.3-.52 116.3-67.35.3.52-116.3 67.35z"/><path class="cls-89" transform="rotate(-30.02 183.925 71.204)" d="M116.7 70.89h134.39v.6H116.7z"/><path class="cls-89" transform="rotate(-30.02 190.253 75.559)" d="M123.02 75.26h134.39v.6H123.02z"/><path class="cls-89" transform="rotate(-30.02 195.354 80.684)" d="M128.13 80.37h134.39v.6H128.13z"/><path class="cls-89" transform="rotate(-30.02 201.262 85.487)" d="M134.03 85.17h134.39v.6H134.03z"/></g><g class="cls-2"><path fill="#45596e" d="M207.86 116.78l-4.65 2.3 1.1 1.79 4.32-2.49-.77-1.6z"/><path fill="#3a4a5d" d="M208.63 120.52l-.45.27-.32-.16.32-.18-3.41 1.98.01.32-.47.27-.29-1.99 4.61-2.65v2.14z"/><path class="cls-4" d="M204.77 121.13l3.41-1.97v1.29l-3.41 1.98v-1.3z"/><path class="cls-7" d="M204.77 121.13l3.41-1.97v.33l-3.41 1.98v-.34z"/><path class="cls-25" d="M203.54 119.27l-.76-.45v3.27l1.53.93v-2.15l-.77-1.6z"/><path fill="#516c8a" d="M207.09 116.33l-4.31 2.49.76.45 4.32-2.49-.77-.45z"/></g><path class="cls-25" d="M145.17 151c0-.36.9-.55 2-.55s2 .12 2 .55a2 2 0 01-2 2 1.94 1.94 0 01-2-2z"/><path d="M147.43 152.89c-.69 0-.82-1.25-.82-1.42s2.43-.12 2.45-.09a1.63 1.63 0 01-1.63 1.51z" fill="#3d4f61"/><path d="M147.19 150.49c-1.11 0-2 .19-2 .55a1.55 1.55 0 00.14.87 3.09 3.09 0 001.63.37 5.48 5.48 0 002.08-.41 2 2 0 00.18-.83c-.02-.43-.92-.55-2.03-.55z" style="mix-blend-mode:multiply" fill="#45596e"/><path d="M144.87 150.45c.15-1.36.93-3.38 2.27-3.38s2.33 2.1 2.38 3.47v.15a3.23 3.23 0 010 .34c-.05.42-1.19.84-2.48.84s-2.21-.42-2.21-.93a1.57 1.57 0 010-.22z" fill="url(#linear-gradient)"/><path d="M149.53 150.56a3.77 3.77 0 01-2.49.78c-1.23 0-2.15-.36-2.15-.84v.23c.22.42 1.08.72 2.19.72a4.16 4.16 0 002.5-.74l-.05-.15z" fill="#8a99a8"/><g class="cls-2"><path class="cls-18" d="M147.83 147.14a1.44 1.44 0 00-1.31 0c-.37.22-.36.56 0 .77a1.44 1.44 0 001.32 0c.37-.22.36-.56-.01-.77z"/><path d="M147.79 147.18a1.32 1.32 0 01-1.21 0 .43.43 0 01-.25-.35v.64a.43.43 0 00.25.35 1.32 1.32 0 001.21 0 .41.41 0 00.24-.34v-.64a.41.41 0 01-.24.34z" fill="url(#linear-gradient-2)"/><path class="cls-3" d="M147.78 146.48a1.32 1.32 0 00-1.2 0c-.34.2-.33.51 0 .7a1.32 1.32 0 001.21 0c.33-.18.32-.51-.01-.7z"/></g><g class="cls-2"><path d="M151.16 144.57a2.05 2.05 0 00-.43-1.83.67.67 0 00-.63-.26l.56-.12a.67.67 0 01.63.26 2.05 2.05 0 01.43 1.83.64.64 0 01-.43.49l-.56.12a.64.64 0 00.43-.49z" fill="url(#linear-gradient-3)"/><path d="M150.1 144.79a2 2 0 01-.44-1.81c.18-.59.65-.68 1.06-.24a2.05 2.05 0 01.43 1.83c-.15.57-.64.66-1.05.22z" fill="#899eb5"/></g><g class="cls-2"><path d="M150.88 143.43h-.3c-.08 0-2 1.23-2.14 1.39a3.68 3.68 0 00-.89.91 7 7 0 00-.37.81 2.54 2.54 0 01-.22.45.86.86 0 00.43.08c.21 0 .37-.31.37-.31a3.4 3.4 0 01.27-.58 2.23 2.23 0 01.59-.59 23.56 23.56 0 012.26-1.2z" fill="#b0c2d6"/><path class="cls-3" d="M150.06 143l-.15.09-.41.26-.89.57-.45.29a3.69 3.69 0 00-.51.37 1.84 1.84 0 00-.69.94c-.09.35-.2.73-.25 1-.11.61.5.68.61.52s.19-.75.35-1.08a3.2 3.2 0 01.81-.9 3.68 3.68 0 01.51-.37l.45-.29.89-.57.41-.26.15-.09z"/></g></g></g></g></g></svg>