<?xml version="1.0"?>
<svg xmlns="http://www.w3.org/2000/svg" xmlns:xlink="http://www.w3.org/1999/xlink" xmlns:svgjs="http://svgjs.com/svgjs" version="1.1" width="512" height="512" x="0" y="0" viewBox="0 0 480.003 480.003" style="enable-background:new 0 0 512 512" xml:space="preserve" class=""><g>
<g xmlns="http://www.w3.org/2000/svg">
	<g>
		<g>
			<path d="M296.001,320.003h-24v-72c-0.026-22.08-17.92-39.974-40-40h-160c-22.08,0.026-39.974,17.92-40,40v72h-24     c-4.418,0-8,3.582-8,8v112c0,4.418,3.582,8,8,8h8v24c0,4.418,3.582,8,8,8h32c4.418,0,8-3.582,8-8v-24h176v24c0,4.418,3.582,8,8,8     h32c4.418,0,8-3.582,8-8v-24h8c4.418,0,8-3.582,8-8v-112C304.001,323.585,300.42,320.003,296.001,320.003z M48.001,464.003h-16     v-16h16V464.003z M64.001,432.003h-48v-96h48V432.003z M224.001,432.003h-144v-48h144V432.003z M232.001,320.003     c-4.418,0-8,3.582-8,8v40h-144v-40c0-4.418-3.582-8-8-8h-24v-72c0-13.255,10.745-24,24-24h160c13.255,0,24,10.745,24,24v72     H232.001z M272.001,464.003h-16v-16h16V464.003z M288.001,432.003h-48v-96h48V432.003z" fill="#ffffff" data-original="#000000" style="" class=""/>
			<path d="M479.633,133.603l-40-128c-1.048-3.333-4.138-5.6-7.632-5.6h-64c-3.494,0-6.584,2.267-7.632,5.6l-40,128     c-1.326,4.215,1.017,8.706,5.232,10.032c0.777,0.244,1.586,0.369,2.4,0.368h64v288h-56c-4.418,0-8,3.582-8,8v32     c0,4.418,3.582,8,8,8h128c4.418,0,8-3.582,8-8v-32c0-4.418-3.582-8-8-8h-56v-288h64c4.418,0,8-3.581,8-8     C480.002,135.189,479.878,134.38,479.633,133.603z M456.001,448.003v16h-112v-16H456.001z M338.881,128.003l35-112h52.24l35,112     H338.881z" fill="#ffffff" data-original="#000000" style="" class=""/>
			<path d="M264.001,32.003h-69.184L157.001,1.755c-2.923-2.34-7.077-2.34-10,0l-37.816,30.248H40.001v144h224V32.003z      M152.001,18.243l17.192,13.76h-34.4L152.001,18.243z M248.001,160.003h-192v-112h192V160.003z" fill="#ffffff" data-original="#000000" style="" class=""/>
			<path d="M240.001,56.003h-176v96h176V56.003z M224.001,136.003h-144v-64h144V136.003z" fill="#ffffff" data-original="#000000" style="" class=""/>
		</g>
	</g>
</g>
<g xmlns="http://www.w3.org/2000/svg">
</g>
<g xmlns="http://www.w3.org/2000/svg">
</g>
<g xmlns="http://www.w3.org/2000/svg">
</g>
<g xmlns="http://www.w3.org/2000/svg">
</g>
<g xmlns="http://www.w3.org/2000/svg">
</g>
<g xmlns="http://www.w3.org/2000/svg">
</g>
<g xmlns="http://www.w3.org/2000/svg">
</g>
<g xmlns="http://www.w3.org/2000/svg">
</g>
<g xmlns="http://www.w3.org/2000/svg">
</g>
<g xmlns="http://www.w3.org/2000/svg">
</g>
<g xmlns="http://www.w3.org/2000/svg">
</g>
<g xmlns="http://www.w3.org/2000/svg">
</g>
<g xmlns="http://www.w3.org/2000/svg">
</g>
<g xmlns="http://www.w3.org/2000/svg">
</g>
<g xmlns="http://www.w3.org/2000/svg">
</g>
</g></svg>
