<svg xmlns="http://www.w3.org/2000/svg" viewBox="0 0 82.5 82.5"><defs><style>.cls-1{fill:none;stroke:#0f0f0f;stroke-linecap:round;stroke-linejoin:round;stroke-width:2.5px}</style></defs><g id="Слой_2" data-name="Слой 2"><g id="Layer_2" data-name="Layer 2"><path class="cls-1" d="M41.25 15.24V1.25M20.44 20.44l-4.23-4.23m45.85 45.85l4.23 4.23m-45.85-4.23l-4.23 4.23m45.85-45.85l4.23-4.23m-20.6-9.53l-4.44-5.43-4.44 5.43m4.44 60.58v13.99m-4.44-5.43l4.44 5.43 4.44-5.43M15.24 41.25H1.25m5.43-4.44l-5.43 4.44 5.43 4.44m60.58-4.44h13.99m-5.43 4.44l5.43-4.44-5.43-4.44M58.09 40.7v9.57l-16.56 8.29-17.6-8.29v-9.48m0-9.15l17.6 7.24 16.56-7.24m-16.56 7.25v19.67"/><path class="cls-1" d="M41.53 38.88l-5.18 7.77-17.6-8.28 5.18-6.73m0 0l17.08-5.7 17.08 5.7m0 0l4.66 6.73-15.53 7.76-5.69-7.25m-.52-12.94v7.25"/></g></g></svg>