<svg xmlns="http://www.w3.org/2000/svg" viewBox="0 0 82.5 51.74"><defs><style>.cls-1{fill:none;stroke:#0f0f0f;stroke-linecap:round;stroke-linejoin:round;stroke-width:2.5px}</style></defs><g id="Слой_2" data-name="Слой 2"><g id="Layer_2" data-name="Layer 2"><path class="cls-1" d="M12.02 27.54V15.28m10.59 29.51h-8.48a2.1 2.1 0 01-2.1-2.1V37m47.23 7.79H34.01M12 6V3.35a2.1 2.1 0 012.1-2.1h39a2.1 2.1 0 012.1 2.1V23.2a8.55 8.55 0 008.55 8.55h17.5v7.06a6 6 0 01-6 6h-4.59M55.19 8.83c12.43.49 26.06 10.57 26.06 22.92"/><circle class="cls-1" cx="28.31" cy="44.79" r="5.7"/><circle class="cls-1" cx="64.96" cy="44.79" r="5.7"/><path class="cls-1" d="M73.92 35.83V36a2.29 2.29 0 002.29 2.29h1M29.76 10.44H1.25m35.21 11.17H18.6m14.51 10.42H6.32"/></g></g></svg>