<svg xmlns="http://www.w3.org/2000/svg" viewBox="0 0 85.83 81.57"><defs><style>.cls-2{fill:#a6d6d2}.cls-3{fill:#2148a5}.cls-6{fill:#163070}.cls-8{fill:#959e96}.cls-9{fill:#b9c4ba}.cls-10{fill:#abb5ac}.cls-11{fill:#2ea9c7}</style></defs><g id="Слой_2" data-name="Слой 2"><g id="Layer_3" data-name="Layer 3"><path fill="#c1e8e5" d="M30.55 48.81v32.76l-6.16-3.55v-.89L7.24 67.22l-.78.45-4.29-2.48V32.42l.77-.06 13.42-1.13 11.71 14.51 2.48 3.07z"/><path class="cls-2" d="M30.55 50.51v1.85l-15.4-19.53-12.98 1.35v-.87l.77-.95 13.42-1.13 11.71 14.51 2.48 4.77zm50.77 1.75L30.55 81.57V48.81l50.77-29.32v32.77z"/><path class="cls-3" d="M83.49 19.19L56.71 34.65 29.93 50.11 14.97 30.92 0 32.83l26.78-15.46L53.55 1.91 68.52 0l14.97 19.19z"/><path fill="#295acf" d="M14.97 30.92L68.52 0 53.55 1.91 0 32.83l14.97-1.91z"/><path fill="#1a3982" d="M29.93 50.87L14.97 31.68 0 33.58v-.75l14.97-1.91 14.96 19.19v.76z"/><path class="cls-6" d="M29.93 50.11v.76l53.56-30.92v-.76L29.93 50.11z"/><path class="cls-2" d="M24.39 52.32v24.81L7.24 67.22l-.78.45.01-25.7.77.44 17.15 9.91z"/><path fill="#afbab0" d="M24.39 52.32v24.8l-17.15-9.9V42.41l17.15 9.91z"/><path class="cls-8" d="M7.24 42.41v.38l17.15 9.91v-.38L7.24 42.41zm0 2.07v.38l17.15 9.91v-.38L7.24 44.48zm0 2.07v.38l17.15 9.91v-.38L7.24 46.55zm0 2.07V49l17.15 9.91v-.38L7.24 48.62zm0 2.07v.38l17.15 9.91v-.38L7.24 50.69zm0 2.07v.38l17.15 9.91v-.38L7.24 52.76zm0 2.07v.38l17.15 9.91v-.38L7.24 54.83zm0 2.07v.38l17.15 9.91v-.38L7.24 56.9zm0 2.07v.38l17.15 9.91v-.38L7.24 58.97zm0 2.07v.38l17.15 9.91v-.38L7.24 61.04zm0 2.07v.38l17.15 9.91v-.38L7.24 63.11zm0 2.07v.38l17.15 9.91v-.38L7.24 65.18zm78.59-2.21L74.3 69.62v-4.06l11.53-6.65v4.06z"/><path class="cls-9" d="M85.83 58.91L74.3 65.56l-11.53-6.65 11.53-6.65 11.53 6.65z"/><path class="cls-10" d="M62.77 58.91v4.06l11.53 6.65v-4.06l-11.53-6.65z"/><path class="cls-8" d="M68.99 66.56l-1.45.83v-2.86l1.45-.83v2.86z"/><path class="cls-9" d="M68.99 63.7l-1.45.83-6.22-3.59 1.45-.83 6.22 3.59z"/><path class="cls-10" d="M61.32 60.94v2.86l6.22 3.59v-2.86l-6.22-3.59z"/><path class="cls-8" d="M67.54 67.39l-1.45.84v-1.86l1.45-.84v1.86z"/><path class="cls-9" d="M67.54 65.53l-1.45.84-6.22-3.59 1.45-.84 6.22 3.59z"/><path class="cls-10" d="M59.87 62.78v1.86l6.22 3.59v-1.86l-6.22-3.59z"/><path class="cls-8" d="M66.09 68.23l-1.46.84v-.86l1.46-.84v.86z"/><path class="cls-9" d="M66.09 67.37l-1.46.84-6.21-3.59 1.45-.84 6.22 3.59z"/><path class="cls-10" d="M58.42 64.62v.86l6.21 3.59v-.86l-6.21-3.59zm15-32.34v20.48l-9.05 5.22V37.5l8.31-4.79.74-.43z"/><path class="cls-3" d="M72.68 32.71v19.62l-8.31 4.81V37.5l8.31-4.79z"/><path class="cls-9" d="M72.69 52.34l.73.42-9.04 5.22v-.85l8.31-4.79zm-2.24-7.07a1.33 1.33 0 01-.75.1c0-.17.27-.32.38-.39.36-.25.77-.45 1.14-.69-.14-.21-.39-.3-.27-.6a.5.5 0 01.73-.23.78.78 0 01.49.65c0 .37-.31.56-.61.69a11.77 11.77 0 01-1.11.47z"/><path class="cls-6" d="M33.72 51.69v2.78l5.33-3.07v-2.78l-5.33 3.07z"/><path class="cls-11" d="M34.05 51.88v2.02l2.56-1.48 1.15-.66.96-.56v-2.01l-1.37.79-1.98 1.14-1.14.66-.18.1z"/><path class="cls-6" d="M42.57 46.58v2.78l5.32-3.07v-2.78l-5.32 3.07z"/><path class="cls-11" d="M42.9 46.77v2.02l2.55-1.48 1.15-.66.96-.55v-2.02l-1.36.79-1.98 1.14-1.14.66-.18.1z"/><path class="cls-6" d="M51.41 41.48v2.77l5.33-3.07v-2.77l-5.33 3.07z"/><path class="cls-11" d="M51.74 41.67v2.01l2.56-1.48 1.15-.66.96-.55v-2.01l-1.37.78-1.98 1.15-1.14.65-.18.11z"/></g></g></svg>