<svg xmlns="http://www.w3.org/2000/svg" viewBox="0 0 57.71 69.08"><defs><style>.cls-2{fill:#f2c79a}.cls-11{fill:#453224}.cls-12{fill:#edb983}.cls-13{fill:#dead7a}.cls-14{fill:#e8dfcc;mix-blend-mode:multiply}.cls-20{fill:#d4d1b6}.cls-22{fill:#e0ddc3}.cls-23{fill:#877f73}.cls-24{fill:#8db0a1}.cls-25{fill:#a5cfbd}.cls-26{fill:#1034a3}.cls-30{fill:#9aa39b}.cls-31{fill:#afbab0}</style></defs><g style="isolation:isolate"><g id="Слой_2" data-name="Слой 2"><g id="Layer_3" data-name="Layer 3"><path class="cls-2" d="M32.65 60.51l-20.79-12v-24l20.79 12v24z"/><path fill="#e3b788" d="M30.36 37.83v18.73l-16.22-9.37V28.46l1.19.68 15.03 8.69z"/><path fill="#edc397" d="M30.36 37.83v17.35l-15.03-8.67V29.14l15.03 8.69z"/><path fill="#deb081" d="M53.44 48.51l-20.79 12v-24l20.79-12v24z"/><path fill="#c99b6d" d="M51.16 28.46v18.73l-16.22 9.37V37.83l15.13-8.75 1.09-.62z"/><path fill="#d9ac7e" d="M50.07 29.08v17.49l-15.13 8.74V37.83l15.13-8.75z"/><path fill="#f7cfa2" d="M53.44 24.51l-20.79 12-5.74-3.31-15.01-8.66-.04-.03 20.79-12 20.79 12z"/><path fill="#edc091" d="M48.87 24.51l-1.32.76-14.9 8.61-14.91-8.61-1.32-.76 16.23-9.37 16.22 9.37z"/><path fill="#f2ca9f" d="M47.55 25.27l-14.9 8.61-14.91-8.61 14.91-8.61 14.9 8.61z"/><path class="cls-11" d="M15.79 31.14v-.8l.38.22.2.85.11-.67 1.17.68v.8c0 .55-.36.8-.83.59v.82l.66.38v.24L16 33.36v-.24l.66.38v-.82a2.08 2.08 0 01-.87-1.54zm6.71 6l-1.5-.89V36l1.53.88zm-1.21-2.3l-.17-.1.27-1 .27 1.28-.17-.1v1.12l-.1-.06-.1-.06zm.7.4l-.17-.1.27-1 .27 1.28-.17-.1v1.12l-.1-.06-.1-.06zm-4.13-2.89h.45a2.14 2.14 0 01.84.26v-.28l.21.12v.28a4.15 4.15 0 01.83.7l.46.49s0 .06 0 0l-1.28-.74v1.16c0 .41-.05.85-.47.61a.86.86 0 01-.31-.33 1.13 1.13 0 01-.14-.57l.21.13a.72.72 0 00.09.36.43.43 0 00.16.17c.13.08.26.1.26-.49v-1.09l-1.27-.73s-.06-.05-.04-.05zm.18-.67a.93.93 0 01.18-.34 3.1 3.1 0 01.18.54c0 .11-.08.16-.18.1a.39.39 0 01-.22-.3zm.67.39a.93.93 0 01.18-.34 3.1 3.1 0 01.18.54c0 .11-.08.16-.18.1a.39.39 0 01-.18-.31zm.74.43a.93.93 0 01.18-.34 3.1 3.1 0 01.18.54c0 .11-.08.16-.18.1a.39.39 0 01-.18-.31zm.67.39a.93.93 0 01.18-.34 3.1 3.1 0 01.18.54c0 .11-.08.16-.18.1a.39.39 0 01-.18-.31z"/><path class="cls-2" d="M33.84 40.72l1.52.88v2.16l-1.52-.88v-2.16z"/><path class="cls-12" d="M33.84 40.72l18.82-10.87 1.52.88L35.36 41.6l-1.52-.88z"/><path class="cls-12" d="M33.84 40.72l.92.53v2.17l-.92-.54v-2.16z"/><path class="cls-13" d="M35.36 41.6l18.82-10.87v2.16L35.36 43.76V41.6z"/><path class="cls-2" d="M33.84 52.93l1.52.88v2.17l-1.52-.88v-2.17z"/><path class="cls-12" d="M33.84 52.93l18.82-10.86 1.52.87-18.82 10.87-1.52-.88z"/><path class="cls-12" d="M33.84 52.93l.92.54v2.16l-.92-.53v-2.17z"/><path class="cls-13" d="M35.36 53.81l18.82-10.87v2.17L35.36 55.98v-2.17z"/><path class="cls-14" d="M32.65 42.35l-5.74-9.15-1.29-1.14s.62-.53.38-.91a19.85 19.85 0 00-2-2.08c1.12 0 2.35-.15 2.13-.48-.33-.5-1.51-.84-3.64-.79a8.14 8.14 0 00-3.86-1.89l-2.1-1.84-1.91-.4-2.68.87 3 1.73-.12 13.5L16 50.89l16.68 9.63zM22.91 28a4.5 4.5 0 011.88.16c.54.17.56.38.05.47a4.13 4.13 0 01-1.35 0c-.22-.19-.44-.38-.68-.57z"/><path fill="#f7b880" d="M32.58 16.72v16.71l-1.39-.8-2.95-1.71-3.3-1.91-.5-.29-1.22-.7-.38-.22h-.01l-4.72-2.73V8.36l14.47 8.36z"/><path fill="#eda86a" d="M47.05 8.35v16.72l-.37.22-4.23 2.45-1.01.58-2.36 1.35-1.27.73-.47.27-.56.32V31l-4.2 2.42V16.71l5.86-3.38.58-.34.39-.22.02-.02.25-.14.14-.08.76-.44.09-.05v-.01h.01l.58-.34 5.79-3.34z"/><path fill="#f7c68d" d="M47.05 8.35l-5.79 3.35-2.24 1.29-6.44 3.72-14.47-8.36 6.44-3.71 2.24-1.3L32.58 0l14.47 8.35z"/><path fill="#d69e67" d="M40.68 12.04l-2.24 1.29-2.76-1.59-5.04-2.91-1-.57-5.04-2.91-.64-.37 2.25-1.3 2.88 1.67 5.04 2.91 1 .57 5.03 2.91.52.3z"/><path d="M38.44 13.33v3.2l.37-.8.37.37.38-.8.37.37.37-.8.38.37v-3.2l-2.24 1.29zM25.23 4.24l-.23.12s-.09.1 14.41 8.39l.25-.14c-3.88-2.23-14.12-8.1-14.43-8.37z" fill="#ba8552"/><path class="cls-11" d="M21.16 20.06v5.8l10.41 6v-5.8zM31.29 31.4l-9.86-5.69v-5.18l9.86 5.69zm-9.16-8.64v-1l.5.29.26 1.12.15-.88 1.54.89v1c0 .73-.48 1-1.09.77V26l.87.5v.31l-2-1.16v-.31l.87.5v-1.05a2.73 2.73 0 01-1.1-2.03zm8.81 7.87l-2-1.16v-.31l2 1.16zm-1.59-3l-.22-.13.36-1.27.36 1.68-.22-.13v1.47l-.14-.08-.14-.08zm.92.53L30 28l.36-1.27.36 1.68-.22-.13v1.47l-.14-.08-.14-.08zm-5.41-3.8h.58a2.81 2.81 0 011.1.34v-.36l.27.16v.37a5.44 5.44 0 011.09.92l.6.65v.06l-1.68-1v1.53c0 .54-.07 1.12-.61.8a1.13 1.13 0 01-.41-.44 1.48 1.48 0 01-.19-.75l.27.18a1 1 0 00.11.47.57.57 0 00.21.23c.17.1.34.13.34-.65v-1.49l-1.67-1s-.05-.03-.02-.03zm.24-.88a1.22 1.22 0 01.23-.45 4.07 4.07 0 01.23.71c0 .15-.1.21-.23.13a.51.51 0 01-.24-.4zm.9.52a1.22 1.22 0 01.23-.45 4.07 4.07 0 01.23.71c0 .15-.1.21-.23.13A.51.51 0 0126 24zm1 .56a1.22 1.22 0 01.23-.45 4.07 4.07 0 01.23.71c0 .15-.1.21-.23.13a.51.51 0 01-.29-.41zm.88.51a1.22 1.22 0 01.12-.47 4.07 4.07 0 01.23.71c0 .15-.1.21-.23.13a.51.51 0 01-.18-.44z"/><path class="cls-14" d="M32.58 33.42h.85l1.97-1.13h4.56l13.48-7.78-6.39-3.69v4.25l-14.47 8.35z"/><path class="cls-20" d="M53.86 40.46L22.4 48.77l2.89 20.31 31.47-8.31-2.9-20.31z"/><path fill="#c4c09d" d="M54.25 40.46l-31.47 8.31 2.89 20.31 31.47-8.31-2.89-20.31z"/><path class="cls-20" d="M54.63 40.46l-31.47 8.31 2.89 20.31 31.47-8.31-2.89-20.31z"/><path class="cls-22" d="M54.82 40.46l-31.46 8.31 2.89 20.31 31.46-8.31-2.89-20.31z"/><path class="cls-23" d="M27.61 67.82l-2.34-16.48.22-.06 28.27-7.46L56.1 60.3l-.22.06zm-1.78-16.11L28 67.19l27.51-7.26-2.2-15.48z"/><path class="cls-24" d="M23.43 48.5l.77-.2s-.51-1.05 0-1.73 1.91.56 1.47 2.39 1.08 1.5.92.53.55-2.68-1.24-4-3.12 1.27-1.92 3.01z"/><path class="cls-25" d="M23.26 46.11a1 1 0 011-.85c.3 0 .8.18.49.51s-.53.11-.82.15a.87.87 0 00-.61.32.28.28 0 01-.06-.13z"/><path class="cls-24" d="M26.94 47.57l.77-.2s-.51-1.05 0-1.73 1.91.56 1.47 2.39 1.08 1.5.92.53.55-2.68-1.24-4-3.12 1.28-1.92 3.01z"/><path class="cls-25" d="M26.77 45.18a1 1 0 011-.85c.3 0 .8.18.49.51s-.53.11-.82.15a.87.87 0 00-.61.32.28.28 0 01-.06-.13z"/><path class="cls-24" d="M30.45 46.65l.77-.2s-.51-1.05 0-1.73 1.91.56 1.47 2.39 1.08 1.5.92.53.55-2.68-1.24-4-3.13 1.27-1.92 3.01z"/><path class="cls-25" d="M30.28 44.25a1 1 0 011-.85c.3 0 .8.18.49.51s-.53.11-.82.15a.87.87 0 00-.61.32.28.28 0 01-.06-.13z"/><path class="cls-24" d="M34 45.72l.77-.2s-.51-1.05 0-1.73 1.91.56 1.47 2.39 1.08 1.5.92.53.55-2.68-1.24-4S32.75 44 34 45.72z"/><path class="cls-25" d="M33.78 43.33a1 1 0 011-.85c.3 0 .8.18.49.51s-.53.11-.82.15a.87.87 0 00-.61.32.28.28 0 01-.06-.13z"/><path class="cls-24" d="M37.46 44.79l.77-.2s-.51-1.05 0-1.73 1.91.56 1.47 2.39 1.08 1.5.92.53.55-2.68-1.24-4-3.12 1.28-1.92 3.01z"/><path class="cls-25" d="M37.29 42.4a1 1 0 011-.85c.3 0 .8.18.49.51s-.53.11-.82.15a.87.87 0 00-.61.32.28.28 0 01-.06-.13z"/><path class="cls-24" d="M41 43.87l.77-.2s-.51-1.05 0-1.73 1.91.56 1.47 2.39 1.08 1.5.92.53.55-2.68-1.24-4-3.16 1.27-1.92 3.01z"/><path class="cls-24" d="M44.47 42.94l.77-.2s-.51-1.05 0-1.73 1.91.56 1.47 2.39 1.08 1.5.92.53.55-2.68-1.24-4-3.12 1.28-1.92 3.01z"/><path class="cls-24" d="M48 42l.77-.2s-.51-1.05 0-1.73 1.91.56 1.47 2.39 1.08 1.5.92.53.55-2.68-1.24-4S46.78 40.28 48 42z"/><path class="cls-24" d="M51.48 41.09l.77-.2s-.51-1.05 0-1.73 1.91.56 1.47 2.39 1.08 1.5.92.53.55-2.68-1.24-4-3.12 1.27-1.92 3.01z"/><path class="cls-23" d="M27.79 57.32v-.13l-.75-5 5.48-1.41v.13l.75 5zm-.49-5L28 57l5-1.28-.71-4.72zm6.78 3.38v-.13l-.75-5 5.48-1.41v.13l.75 5zm-.49-5l.7 4.68 5-1.28-.7-4.68zm6.78 3.37v-.13l-.75-5 5.48-1.41v.13l.75 5zm-.49-5l.7 4.68 5-1.28-.7-4.68zm6.78 3.38v-.13l-.75-5 5.48-1.41v.13l.75 5zm-.49-5l.7 4.68 5-1.28-.7-4.68zM28.74 63.1v-.13l-.75-5 5.48-1.41v.13l.75 5zm-.49-5l.7 4.68 5-1.28-.7-4.68zM35 61.48v-.13l-.75-5 5.48-1.41v.13l.75 5zm-.49-5l.7 4.68 5-1.28-.7-4.68zm6.81 3.37v-.13l-.75-5L46 53.27v.13l.75 5zm-.49-5l.7 4.68 5-1.28-.7-4.68zm6.78 3.38v-.13l-.75-5 5.48-1.41v.13l.75 5zm-.49-5l.7 4.68 5-1.28-.71-4.63z"/><path class="cls-26" d="M39.53 54.88a4.78 4.78 0 00-5.73 1.8c-1.25 2.21.36 4 2.42 4.72.15 0 .21-.18.06-.23a3.72 3.72 0 01-2.48-2A3 3 0 0135 55.8c1.45-1.07 3.9-1.38 5.27 0a3.12 3.12 0 01-.27 4.33 5 5 0 01-4.08 1.35c-.16 0-.2.25 0 .28a4.77 4.77 0 005.2-2.53 3.15 3.15 0 00-1.59-4.35z"/><path d="M28.37 53.02l-.04-.24 3.15-.81.03.24-3.14.81zm-.39.72l-.05-.25 3.66-.94.03.25-3.64.94zm.1.59l-.04-.25 3.66-.94.03.25-3.65.94zm.11.59l-.04-.25 3.66-.94.03.25-3.65.94zm.11.59l-.04-.25 3.13-.81.03.25-3.12.81zm.11.59l-.04-.25 2.58-.66.03.24-2.57.67zm6.5-4.76l-.04-.25 3.16-.81.02.25-3.14.81zm-.39.71l-.04-.24 3.65-.94.03.25-3.64.93zm.11.59l-.04-.24 3.65-.94.03.24-3.64.94zm.11.59l-.04-.24 3.65-.94.03.24-3.64.94zm.11.59l-.04-.24 3.13-.81.03.25-3.12.8zm.11.59l-.05-.25 2.59-.66.03.25-2.57.66zm6.29-4.69l-.04-.25 3.15-.81.03.25-3.14.81zm-.39.72l-.04-.25 3.65-.94.03.25-3.64.94zm.11.58l-.04-.24 3.65-.94.03.25-3.64.93zm.11.59l-.05-.24 3.66-.94.03.24-3.64.94zm.1.59l-.04-.24 3.14-.81.02.25-3.12.8zm.11.59l-.04-.24 2.59-.67.03.25-2.58.66zm6.2-4.68l-.04-.25 3.15-.81.03.25-3.14.81zm-.39.72l-.04-.25 3.65-.94.03.25-3.64.94zm.11.58l-.04-.24 3.65-.94.03.25-3.64.93zm.11.59l-.04-.24 3.65-.94.03.24-3.64.94zm.11.59l-.05-.24 3.14-.81.03.25-3.12.8zm.1.59l-.04-.24 2.59-.67.03.25-2.58.66zm-18.06 7.59l-.04-.25 3.15-.81.03.25-3.14.81zm-.39.72l-.04-.25 3.65-.94.03.25-3.64.94zm.11.59l-.04-.25 3.65-.94.03.25-3.64.94zm.11.59l-.04-.25 3.65-.94.03.25-3.64.94zm.11.59l-.05-.25 3.14-.81.03.25-3.12.81zm.1.58l-.04-.24 2.59-.67.03.25-2.58.66zm6.51-4.76l-.04-.24 3.15-.82.03.25-3.14.81zm-.39.72l-.04-.25 3.65-.94.03.25-3.64.94zm.1.59l-.04-.25 3.66-.94.03.25-3.65.94zm.11.59l-.04-.25 3.65-.94.03.25-3.64.94zm.11.59l-.04-.25 3.13-.81.03.25-3.12.81zm.11.59l-.04-.25 2.58-.67.03.25-2.57.67zm6.3-4.7l-.05-.24 3.16-.81.02.24-3.13.81zm-.4.72l-.04-.24 3.66-.95.02.25-3.64.94zm.11.59l-.04-.25 3.65-.94.03.25-3.64.94zm.11.59l-.04-.25 3.65-.94.03.25-3.64.94zm.11.59l-.04-.25 3.13-.8.03.24-3.12.81zm.11.59l-.04-.25 2.58-.66.03.25-2.57.66zm6.2-4.69l-.04-.24 3.15-.81.03.24-3.14.81zm-.4.72l-.04-.24 3.66-.95.03.25-3.65.94zm.11.59l-.04-.25 3.65-.94.03.25-3.64.94zm.11.59l-.04-.25 3.65-.94.03.25-3.64.94zm.11.59l-.04-.25 3.13-.81.03.25-3.12.81zm.11.59l-.04-.25 2.58-.66.03.25-2.57.66z" fill="#6e675d"/><path fill="#0d2b86" d="M19.06 29.91L9.52 16.23l-.95-.06L.95 50.68l8.59 13.63.95.06 8.57-34.46z"/><path fill="#295acf" d="M18.11 29.85L8.57 16.17 0 50.63l9.54 13.68 8.57-34.46z"/><path class="cls-22" d="M17.4 29.24L9.14 17.38 1.71 47.25l8.26 11.86 7.43-29.87z"/><path class="cls-23" d="M13.94 28.21v.01l-.16.62L10 23.41l.16-.62 3.78 5.42zm1.2 4.57l-6.39-9.17-.18.71 6.4 9.17.17-.71zm-.35 1.43L8.4 25.04l-.18.71 6.39 9.17.18-.71zm-.35 1.42l-6.4-9.17-.17.71 6.39 9.18.18-.72zm-2.18-1.18l-.18.71-4.57-6.56.18-.71 4.57 6.56zm1.29 4.75l-6.39-9.18-.18.72 6.39 9.17.18-.71zm-.36 1.42L6.8 31.45l-.18.71 6.4 9.18.17-.72zm-.35 1.43l-6.39-9.17-.18.71 6.39 9.17.18-.71zm-.36 1.42L6.09 34.3l-.17.72 6.39 9.17.17-.72zm-.35 1.43l-6.39-9.17-.18.71 6.39 9.17.18-.71zm-.35 1.43l-6.4-9.18-.17.72 6.39 9.17.18-.71zM9.6 45.14l-.18.71-4.57-6.56.18-.7 4.57 6.55zm-.71 2.85l-.18.71-4.57-6.56.18-.7 4.57 6.55z"/><path class="cls-30" d="M16.1 26.22c.39 0 1.31 1.31 1.31 1.31a5.81 5.81 0 00-.41-1.78c-.3-.6-4.53-7.6-5.71-6.92.71 1.59 4.81 7.39 4.81 7.39z"/><path class="cls-30" d="M15.89 21.19c-.47-.93-1.28-1.07-2.29.4l1.11 1.82s1.65-1.3 1.18-2.22zm-.43.61a.6.6 0 11-.28-.85.63.63 0 01.28.84z"/><path class="cls-31" d="M11.34 18.83A7.15 7.15 0 0012.41 25c1.22 1.73 3.71 2.25 4.08 1.18s-5.15-7.35-5.15-7.35z"/><path class="cls-31" d="M15.25 21.67a.6.6 0 11-.28-.85.63.63 0 01.28.85zm.43-.61c-.47-.93-1.28-1.07-2.29.4l1.11 1.82s1.65-1.28 1.18-2.21z"/><path class="cls-26" d="M10.64 48.95a5.42 5.42 0 00-2 2.35 2 2 0 00-.27.88c0 .3.59 0 .14.71-.08.13 0 .31.13.19s.19-.3.27-.46a4.44 4.44 0 00-.31 1.9.1.1 0 00.08.1c.16 0 .47-.27.61-.53a5.48 5.48 0 00-.13.77c0 1 .39 1.07.89.81.08 0 0-.24 0-.2-1.13.55-.45-1.64-.48-2 0-.07-.07-.1-.11-.07-.33.33-.78 1.24-.52.06 0-.08.17-.58.29-1a3.49 3.49 0 00.44-1.08c0-.07 0-.11-.08-.07a3.41 3.41 0 00-.43.74h-.08a2.65 2.65 0 00-.26.35v-.07c0-.07-.12-.13-.13-.2a2 2 0 01.5-1.32 8.49 8.49 0 011-1.3c.21-.22.34-.39.08 0A14.46 14.46 0 009 51.28c0 .07 0 .16.08.09.48-.76 1.33-1.32 1.67-2.25.02-.12-.04-.21-.11-.17z"/><path class="cls-14" d="M24.95 27.93a1.37 1.37 0 00-2.11-.13l.38.22a.77.77 0 01.82-.24.59.59 0 01.51.74.49.49 0 01-.11.2l.5.29a.85.85 0 00.01-1.08z"/></g></g></g></svg>