<svg xmlns="http://www.w3.org/2000/svg" viewBox="0 0 83.93 87.11"><defs><style>.cls-2{fill:#2846cd}.cls-3{fill:#1748ba}.cls-6{fill:#1c4ac3}.cls-7{fill:#b2e3df}.cls-8{fill:#9dd4ba}.cls-9{fill:#2ea9c7}.cls-11{fill:#c1e8e5}.cls-12{fill:#c6efed}.cls-13{fill:#48433f}.cls-16{fill:#39d1f6}.cls-24{fill:#6b635e}.cls-25{fill:#827872}.cls-30{fill:#d1ccc0;mix-blend-mode:multiply}</style></defs><g style="isolation:isolate"><g id="Слой_2" data-name="Слой 2"><g id="Layer_3" data-name="Layer 3"><path class="cls-2" d="M83.93 44.13L59.31 29.91 12.95 56.59l-.6.35v.58l.85-.5 46.11-26.53 23.62 13.64-.17.09 1.03-.01.14-.08z"/><path class="cls-3" d="M59.31 30.49l-5.17 3v-2l-8 4.61V38l-33 19-.85.5V55l-3.56 2.09v-2.72C1.39 58.92 0 64.64.66 68.54a12.88 12.88 0 001 3.31l.32.06C.93 66.42 3 61.46 8.43 58.18l1.82 1.05 2.32-1.34.85-.49 1.37.79 44.52-25.7L81.34 45l1.59-.91z"/><path class="cls-2" d="M46.17 38.05l-.51-.29v-1.93l.51.29v1.93z"/><path class="cls-2" d="M53.64 31.22l-7.98 4.61.51.29 7.97-4.61-.5-.29z"/><path d="M10.56 81.08c4.51 1.78 4 6.13 4.63 6A19.35 19.35 0 0024 84.63c4.48-2.38 43.06-24.83 49-28.31a1.51 1.51 0 00.76-1.15 5.81 5.81 0 012.05-3.65c2.54-2.32-65.25 29.56-65.25 29.56z" fill="#335abf"/><path class="cls-2" d="M36.97 68.62l-2.05 1.19-1.58.91v-.58l1.08-.62 2.13-1.23.42.33z"/><path fill="#1d1d1b" d="M34.42 69.52l-1.08.62v-1.25l1.08.63z"/><path class="cls-2" d="M12.35 54.98l-3.62 2.11v-.58l3.21-1.87.41.34z"/><path class="cls-2" d="M33.34 68q-.39.24-.78.45c-1.12.64-2.24 1.22-3.37 1.73-8.58 3.91-17.36 4.25-27.07 2.27l-.76-.15a12.21 12.21 0 01-1.19-3.68v-.09L.1 68.1v-.35a12.23 12.23 0 013.08-9.48 6.27 6.27 0 01.43-.49 21.13 21.13 0 014.5-3.62l.2-.12.45.33C1.39 58.92 0 64.64.66 68.54a12.88 12.88 0 001 3.31l.32.06h.21A53.55 53.55 0 0013 73.12a37.65 37.65 0 0015.65-3.26l.33-.15A33 33 0 0032 68.15l.27-.15.61-.35z"/><path class="cls-6" d="M37 70.57v-2l-.42-.33-2.13 1.23-1.08-.63V68l-.41-.34-.61.35-.27.15-17.26-10 44.52-25.7 22 12.54z"/><path class="cls-7" d="M79.07 25.12l-12.65 7.31v20.02l12.65-7.3V25.12z"/><path class="cls-8" d="M76.81 41.86v2.81l1.69-.98v-2.81l-.3.17-1.39.81z"/><path class="cls-9" d="M76.81 41.86v2.46l1.39-.8v-2.47l-1.39.81z"/><path class="cls-8" d="M67.85 47.05v2.8l1.69-.97v-2.82l-.3.17-1.39.82z"/><path class="cls-9" d="M67.85 47.05v2.46l1.39-.81v-2.47l-1.39.82z"/><path class="cls-6" d="M32 68.15a33 33 0 01-3 1.56l-.33.15-18.42-10.63 2.32-1.34.85-.49 1.37.79z"/><path class="cls-6" d="M28.65 69.86A37.65 37.65 0 0113 73.12a53.55 53.55 0 01-10.78-1.17h-.21C.93 66.42 3 61.46 8.43 58.18l1.82 1.05zm5.77-.34l-1.08.62v-1.25l1.08.63z"/><path d="M10.25 59.23l.31-.18 18.42 10.66-.33.15-18.4-10.63zm4.54-1.05l.32-.18 17.27 10-.33.15-17.26-9.97zm19.96 11.19l-.33.15-1.08-.62v-.35l1.41.82z" fill="#1943ae"/><path class="cls-11" d="M66.42 32.43l-18.36-10.6-3.48-2.01v2.97l3.48 4.66v14.41l18.36 10.59v-14.4l3.87-.68v-2.71l-3.87-2.23z"/><path class="cls-7" d="M70.29 37.37v-2.71l12.65-7.3-.01 2.71-12.64 7.3z"/><path class="cls-12" d="M57.43 12.63l-12.85 7.19 25.71 14.84 12.65-7.3-25.51-14.73z"/><path class="cls-2" d="M51.4 12.36l-1.01 2.62 18.39 10.59.77-2.73L51.4 12.36z"/><path class="cls-6" d="M60.09 9.63l-8.69 2.73 18.15 10.48 8.69-2.73L60.09 9.63z"/><path class="cls-11" d="M45.67 40.69c0 .23.5.23.5 0v-6.53h-.5zm22.02 13.14c0 .23.5.23.5 0V47.3h-.5zm7.22-10.5v6.53c0 .23.5.23.5 0v-6.53zm6.35-3.96v6.53c0 .23.5.23.5 0v-6.53z"/><path class="cls-2" d="M82.76 44.22l-1.42.82-44.37 25.53v.58l44.87-25.82 1.95-1.12-1.03.01z"/><path class="cls-13" d="M81.84 45.33l-3.58 2.06v-1.95l-8 4.61V52L37 71.15v-2.53l-2.05 1.19-1.58.91V68c-.16.1-.33.2-.49.28l-.29.17c-1.12.64-2.24 1.22-3.37 1.73-8.58 3.91-17.36 4.25-27.07 2.27l-.76-.15a12.21 12.21 0 01-1.22-3.68c.51 4.62 1 5.33 2.82 7.68s11.52 10.63 28.26 1.43c16.44-9 49.25-27.51 49.25-27.51a6.7 6.7 0 003.43-6.09z"/><path class="cls-2" d="M70.29 51.98l-.5-.29v-1.94l.5.29v1.94z"/><path class="cls-2" d="M77.76 45.15l-7.97 4.6.5.29 7.97-4.6-.5-.29z"/><path d="M30.68 72.84a3.34 3.34 0 01-1.87 2.35c-.66.29-1.18.18-1.39-.22a1.06 1.06 0 01-.09-.64A3.4 3.4 0 0129.19 72a1.31 1.31 0 011-.1.83.83 0 01.49.94z" fill="#292524"/><path d="M30.32 72.54a3.36 3.36 0 01-1.86 2.34 1.31 1.31 0 01-1 .09 1.06 1.06 0 01-.09-.64A3.4 3.4 0 0129.19 72a1.31 1.31 0 011-.1 1.05 1.05 0 01.13.64z" fill="#1a1716"/><path class="cls-3" d="M48.06 35.18l18.36 10.6 12.65-7.31v-1.56l3.73 2.15v.25l-14.78 8.53-23.39-13.5v-.25l3.43-.21v1.3z"/><path class="cls-2" d="M48.06 34.93l18.36 10.6 12.65-7.31v-1.31l3.73 2.15-14.78 8.53-23.39-13.5 3.43-1.98v2.82z"/><path class="cls-7" d="M55.37 41.05v2.81l-1.69-.98v-2.81l.3.17 1.39.81z"/><path class="cls-16" d="M55.37 41.05v2.46l-.97-.56-.42-.24v-2.47l1.23.72.16.09z"/><path class="cls-7" d="M64.33 46.23v2.81l-1.68-.98v-2.81l.3.17 1.38.81z"/><path class="cls-16" d="M64.33 46.23v2.46l-.95-.55-.44-.25v-2.47l1.25.73.14.08z"/><path class="cls-7" d="M50.89 31.69v2.81l-1.69-.98v-2.81l.3.17 1.39.81z"/><path class="cls-16" d="M50.89 31.69v2.46l-1.01-.58-.38-.22v-2.47l1.19.69.2.12z"/><path class="cls-7" d="M59.85 36.87v2.81l-1.69-.98v-2.81l.3.17 1.39.81z"/><path class="cls-16" d="M59.85 36.87v2.46l-.99-.57-.4-.23v-2.47l1.21.7.18.11z"/><path class="cls-8" d="M76.81 34.33v2.8l1.69-.97v-2.82l-.3.18-1.39.81z"/><path class="cls-9" d="M76.81 34.33v2.45l1.39-.8v-2.46l-1.39.81z"/><path class="cls-8" d="M72.33 36.92v2.81l1.69-.98v-2.81l-.3.17-1.39.81z"/><path class="cls-9" d="M72.33 36.92v2.46l1.39-.8v-2.47l-1.39.81z"/><path class="cls-7" d="M50.89 24.92v2.81l-1.69-.98v-2.81l.3.17 1.39.81z"/><path class="cls-16" d="M50.89 24.92v2.46l-1.04-.6-.35-.2v-2.47l1.16.67.23.14z"/><path class="cls-7" d="M55.37 27.51v2.81l-1.69-.98v-2.81l.3.17 1.39.81z"/><path class="cls-16" d="M55.37 27.51v2.46l-1.04-.6-.35-.2V26.7l1.17.68.22.13z"/><path class="cls-7" d="M64.33 32.69v2.81l-1.68-.98v-2.81l.3.17 1.38.81z"/><path class="cls-16" d="M64.33 32.69v2.46l-1.01-.58-.38-.22v-2.47l1.19.69.2.12z"/><path class="cls-11" d="M68.75 25.57L50.39 14.98v5.4l18.36 10.59v-5.4z"/><path class="cls-7" d="M68.75 25.57l9.45-5.46v5.41l-9.45 5.45v-5.4z"/><path class="cls-3" d="M68.75 25.57l.8-2.73 8.65-2.73-9.45 5.46z"/><path class="cls-7" d="M54.2 18.55v2.81l-2.99-1.73v-2.81l.3.17 2.69 1.56z"/><path class="cls-16" d="M54.2 18.55v2.46l-.76-.43-.58-.34-.99-.57-.35-.2V17l2.45 1.41.23.14z"/><path class="cls-7" d="M58.35 20.95v2.81l-2.98-1.73v-2.81l.3.17 2.68 1.56z"/><path class="cls-16" d="M58.36 20.95v2.46l-.76-.43-.58-.34-.99-.57-.35-.2V19.4l2.45 1.41.23.14z"/><path class="cls-7" d="M62.51 23.35v2.81l-2.98-1.73v-2.81l.3.17 2.68 1.56z"/><path class="cls-16" d="M62.51 23.35v2.46l-.76-.43-.58-.34-.99-.57-.35-.2V21.8l2.45 1.41.23.14z"/><path class="cls-7" d="M66.67 25.75v2.81l-2.99-1.73v-2.81l.3.17 2.69 1.56z"/><path class="cls-16" d="M66.67 25.75v2.46l-.76-.43-.58-.34-.99-.57-.35-.2V24.2l2.45 1.41.23.14z"/><path class="cls-8" d="M74.23 23.35v2.81l2.99-1.73v-2.81l-.3.17-2.69 1.56z"/><path class="cls-9" d="M74.23 23.35v2.46l.76-.43.58-.34.99-.57.35-.2V21.8l-2.45 1.41-.23.14z"/><path class="cls-8" d="M70.08 25.75v2.81l2.98-1.73v-2.81l-.3.17-2.68 1.56z"/><path class="cls-9" d="M70.07 25.75v2.46l.76-.43.58-.34.99-.57.35-.2V24.2l-2.45 1.41-.23.14z"/><path fill="#49a8f1" d="M67.85 6.6l-2.17-1.25-3.12 9.6L66.11 17l1.74-10.4z"/><path fill="#3f9cd3" d="M67.85 6.6l1.39-.8.83 9.6-3.96 1.6 1.74-10.4z"/><path fill="#4db2ff" d="M65.68 5.35l2.17 1.25 1.39-.8-2.17-1.25-1.39.8z"/><path class="cls-13" d="M65.06 4.62l2.92 1.68 1.88-1.08v-.37l-2.92-1.68-1.88 1.08v.37z"/><path fill="#527068" d="M65.06 4.25l2.92 1.69 1.88-1.09-2.92-1.68-1.88 1.08z"/><path class="cls-11" d="M68.34 4.87c0 .23.5.23.5 0V1.34c0-.61-.5-.61-.5 0zM66.82 4c0 .23.5.23.5 0V.46c0-.61-.5-.61-.5 0zm.64 1.34c0 .17.36.17.36 0V2.77c0-.44-.36-.44-.36 0z"/><path class="cls-11" d="M69.35 2.81l-1.82-1.05a.25.25 0 01.25-.43l1.82 1.05c.4.2.1.62-.25.43zM67.49 1.1l-1-.58a.14.14 0 01.14-.24l1 .58c.19.14.05.35-.14.24z"/><path fill="#1e840b" d="M51.59 55.13l-4.66 2.7v-5.75l4.66-2.69v5.74z"/><path fill="#17e715" d="M51.6 49.39l-2.39 1.37-.23.14-.09.05-1.66.96-.3.17-10.23-5.9 4.66-2.7 10.24 5.91z"/><path fill="#21b510" d="M46.93 57.83L36.7 51.92v-5.74l10.23 5.9v5.75z"/><path class="cls-7" d="M50.44 62.08v-4.94l1.45-.84v4.9l-1.45.88zM31.66 51.24V46.3l1.45-.84v4.9l-1.45.88z"/><path class="cls-11" d="M29.94 45.3v4.95l1.72.99v-2.73l17.06 9.84v2.74l1.72.99v-4.94L29.94 45.3z"/><path class="cls-12" d="M31.38 44.46l-1.44.84 20.5 11.84 1.45-.84-20.51-11.84z"/><path class="cls-7" d="M46.1 64.59v-4.95l1.45-.83v4.9l-1.45.88zM27.33 53.75V48.8l1.44-.83v4.9l-1.44.88z"/><path class="cls-11" d="M25.6 47.8v4.95l1.73 1v-2.74l17.05 9.84v2.74l1.72 1v-4.95L25.6 47.8z"/><path class="cls-12" d="M27.05 46.97l-1.45.83 20.5 11.84 1.45-.83-20.5-11.84z"/><path class="cls-12" d="M32.82 47.43l-2.49 1.44 1.22.7 2.5-1.44-1.23-.7z"/><path class="cls-7" d="M34.05 48.13v1.25l-1.41.82-1.09-.63 2.5-1.44z"/><path class="cls-12" d="M37.43 50.09l-2.49 1.43 1.22.71 2.49-1.44-1.22-.7z"/><path class="cls-7" d="M38.65 50.79v1.25l-1.41.82-1.08-.63 2.49-1.44z"/><path class="cls-12" d="M42.03 52.74l-2.49 1.44 1.23.71 2.49-1.44-1.23-.71z"/><path class="cls-7" d="M43.26 53.45v1.25l-1.41.82-1.08-.63 2.49-1.44z"/><path class="cls-12" d="M46.64 55.4l-2.49 1.44 1.22.71 2.49-1.44-1.22-.71z"/><path class="cls-7" d="M47.86 56.11v1.25l-1.41.81-1.08-.62 2.49-1.44z"/><path class="cls-13" d="M33.57 46.42l-4.34 2.5v-1.05l4.34-2.51v1.06z"/><path class="cls-24" d="M29.23 47.87v1.05l-2.14-1.23v-1.06l2.14 1.24z"/><path class="cls-25" d="M33.57 45.36l-4.34 2.51-2.14-1.24 4.34-2.5 2.14 1.23z"/><path class="cls-13" d="M30.95 45.64a.37.37 0 010 .71 1.36 1.36 0 01-1.23 0 .37.37 0 010-.71 1.36 1.36 0 011.23 0zm0-5.13a.37.37 0 010 .71 1.36 1.36 0 01-1.23 0 .37.37 0 010-.71 1.36 1.36 0 011.23 0z"/><path class="cls-13" d="M31.2 40.86V46a.43.43 0 01-.25.35 1.34 1.34 0 01-1.23 0 .42.42 0 01-.26-.35v-5.14a.45.45 0 01.26-.35 1.34 1.34 0 011.23 0 .45.45 0 01.25.35z"/><path class="cls-24" d="M39.17 46v.65l-1.31-.76-10.02-5.78v-.65L39.17 46z"/><path class="cls-25" d="M40.77 45.08l-1.6.92-11.33-6.54 1.6-.93 11.33 6.55z"/><path class="cls-13" d="M40.77 45.08v.64l-.79.46-.25.14-.56.33V46l1.6-.92z"/><path class="cls-24" d="M27.84 39.46l.64-4.96.75.43.23 5.46-1.62-.93z"/><path class="cls-13" d="M29.46 40.39l1.57-.93-1.33-4.8-.47.27.23 5.46z"/><path class="cls-25" d="M28.48 34.5l.75.43.47-.27-.75-.43-.47.27z"/><path class="cls-24" d="M29.69 34.25c0 .29-.21.41-.46.27a1 1 0 01-.46-.8c0-.29.21-.41.46-.27a1 1 0 01.46.8z"/><path class="cls-24" d="M29.39 34.42c0 .29-.21.41-.46.27a1 1 0 01-.46-.8c0-.29.21-.41.46-.27a1 1 0 01.46.8z"/><path class="cls-13" d="M29.56 34.54a.33.33 0 00.13-.3 1 1 0 00-.46-.8.33.33 0 00-.29 0l-.28.16.18.32a1.08 1.08 0 00.27.48l.19.33.3-.17z"/><path class="cls-24" d="M29.39 34.42c0 .29-.21.41-.46.27a1 1 0 01-.46-.8c0-.29.21-.41.46-.27a1 1 0 01.46.8z"/><path d="M29.14 34.28c0 .14-.09.19-.21.12a.47.47 0 01-.21-.37c0-.14.1-.19.21-.12a.47.47 0 01.21.37z" fill="#273531"/><path class="cls-13" d="M40.27 49.06h-.26c.12.39.22.92-.27.94-.32 0-.66-.51-.37-.74h.19a.44.44 0 00.08.25c.11.07.15 0 .16-.18a1.59 1.59 0 00-.1-.46l-.32-.4v-1h.45l.15.19.09.12.2.26z"/><path class="cls-13" d="M39.73 46.07h.25v1.73h-.25zm-.49-.49L29.18 33.75l.19-.17L40.28 45c.1.1-.08.28-.18.17l-8-8.33 7.3 8.58c.18.17-.01.33-.16.16z"/><path fill="#0d6b91" d="M40.79 65.22l-4.67 2.69v-5.74l4.67-2.7v5.75z"/><path fill="#168ef4" d="M36.12 62.17l-10.23-5.91 4.67-2.69 10.23 5.9-4.67 2.7z"/><path fill="#1184c2" d="M36.12 67.91L25.89 62v-5.74l10.23 5.91v5.74z"/><path class="cls-30" d="M4.52 72.38C3.85 68.71 5 63.46 11 59.64L13.33 61l2.45-1.42-.51-.29-1.27-.06 1.17-.68 1.35.64 1.48-.84-.6-.35h-.55l8.91-5.14-.16-.4v-2.58L12.89 57.2l-.54-.06V55l-2.92 1.7h-.7v-2.33a18 18 0 00-6.89 7.06 11.62 11.62 0 00-.15 10.42zm28.82-2.11h.79l-.79.45v-.45zm3.63.42h.79l-.79.46v-.46zm-.85-2.78h5.28l4.6-2.69-5.23-3.03.02-2.72-4.67 2.7v5.74z"/><path class="cls-30" d="M27.33 53.75l2.8.07.43-.25 10.23 5.9-.01.92 3.6 2.08v-1.62l-17.05-9.84v2.74zm2.13-13.36l2.84-.2-1.27-.73-1.57.93zm3.84 6.82h2.86l-1.1-.63h-.69l.27-.16-1.07-.62v-.45l-.34.19-2-.08V46a.43.43 0 01-.25.35 1.24 1.24 0 01-.62.15h1.24l-2.37 1.37v1.06h1.15l.65.37 2.49-1.44-.25-.61zm15.91 3.55l-.21.14c-1.55-1.58-4.3-4.35-5.21-5.27l-2.2 1.15 7.34 4.19-1.66 1-7.16-4.14-.11-.18v-1.47l.79-.46v-.37l2.48-.44 1 .45-.24.13zm-9.48-4.44v1.15l-.15.02-.45-.26h-.6l-1.02-.58h.61l-.81-.47.55-.29 1.31.76.56-.33zm17.37 8.81l-5.5-2.68v2.68l-.87.5 1.16.67-1.45.83v4.95l-1.18.63h-.75l1.54-.85-2.2-5.75-2.49 1.44 1.08.63 1-.57 1.28.74v2.74l-1.16.61v-2.89l-1.45.83v4.95h1.26l6-3.46-1.48.07v-1.64a2.77 2.77 0 00.73-.37c.53-.37.39-.29.53-.39s0-.1-.09-.16c.27-.19.71-.5 1-.72l.58.31 1.88-1.09-1.52-.8zm-4.21 3.44l-.15-.06h-.4s-.15 0-.45.17v-1h.8l.46-.26.76.4zm-9.63-5.12l1.23 2.46-1.66-.96-.98.57-1.08-.63 2.49-1.44zm-4.61-2.66l1.23 2.46-1.66-.96-.98.57-1.08-.63 2.49-1.44zm-4.6-2.66l1.23 2.46-1.66-.96-.98.57-1.09-.63 2.5-1.44zm44.21-.74l5.67-3.26-2.17-1.25v-2.97l-.5.29v2.41l-2.07-1.22-11 6.35v4.71h.26l1.01-.57h-.01.84v-.36h-.5v-.86h.5v-.62l7.97-4.6v1.95zm-11.84-1.86h5.18l11.2-6.47-3.73-2.15v-4.62l3.86-2.22.01-2.71-12.65 7.3-.01 2.69-3.86.7v7.48zm0 1.39l-18.36-10.6v.44L66.42 47.3v5.15h1.27v-4.79l-1.27-.74z"/><path class="cls-30" d="M35.46 46.81l-1.89-1.08v-.37l-.06-.03 1.7-.97 2.25 1.3-2 1.15zm4.23-2.44l6.11-3.53a.75.75 0 01-.13-.41v-2.09l-7.58 4.36zm-2.25-1.3l.43-.24 1.22 1.28-1.52-.88-.13-.16zm8.73-2.44l1.51-.87h.38v-3.44l-1.12-.65-.77.45v4.51zM66.11 17l6.43-.18-2.47-1.42-.83-9.6-1.39.8L66.11 17zm12.09 7.62v-4.51l-8.65 2.73-.77 2.73-.03 5.4h5.93l3.13-.65 4.61-3.26-4.22-2.44z"/><path d="M50.89 24.92v.6l-1.04 1.26-.35-.2v-.41l1.16-1.39.23.14zm4.48 2.59v.62l-1.04 1.24-.35-.2v-.39l1.17-1.4.22.13zm8.96 5.18v.66l-1.01 1.22-.38-.22v-.36l1.19-1.42.2.12zM52.91 17.8l.4.23-1.44 1.63-.35-.2v-.41l1.15-1.39.24.14zm1.29.84v1.07l-.76.87-.35-.2-.23-.14 1.34-1.6zm2.86 1.56l.4.23-1.44 1.63-.35-.2v-.41l1.16-1.39.23.14zm1.3.84v1.07l-.76.87-.35-.2-.23-.14 1.34-1.6zm2.86 1.56l.4.23-1.44 1.63-.35-.2v-.41l1.16-1.39.23.14zm1.29.84v1.07l-.76.87-.35-.2-.23-.14 1.34-1.6zM65.38 25l.4.23-1.44 1.63-.35-.2v-.41l1.16-1.39.23.14zm1.29.84v1.07l-.76.87-.35-.2-.23-.14 1.34-1.6zm-15.78 5.85v.66l-1.01 1.22-.38-.22V33l1.19-1.43.2.12zm8.96 5.18v.7l-.99 1.19-.4-.23v-.31l1.21-1.46.18.11zm-4.48 4.18v.73l-.97 1.17-.42-.24v-.27l1.23-1.48.16.09zm8.96 5.18V47l-.95 1.14-.44-.25v-.24l1.25-1.5.14.08z" style="mix-blend-mode:soft-light" fill="#c9fffb"/></g></g></g></svg>