<svg xmlns="http://www.w3.org/2000/svg" viewBox="0 0 70.8 90.52"><defs><style>.cls-2{fill:#202b96}.cls-3{fill:#3441ba}.cls-4{fill:#3a48ce}.cls-5{fill:#1f2a94}.cls-6{fill:#2835a8}.cls-7{fill:#151e75}.cls-8{fill:#404ece}.cls-9{fill:#182070}.cls-10{fill:#27329b}.cls-11{fill:#c5cfc7}.cls-12{fill:#f7b880}.cls-13{fill:#eda86a}.cls-14{fill:#f7c68d}.cls-15{fill:#d69e67}.cls-16{fill:#ba8552}.cls-17{fill:#453224}</style></defs><g style="isolation:isolate"><g id="Слой_2" data-name="Слой 2"><g id="Layer_3" data-name="Layer 3"><path class="cls-2" d="M22.22 0v50.83l2 1.53.3-.17V1.36zM24 49.32c0 .36-.26.51-.57.33a1.26 1.26 0 01-.57-1v-2c0-.36.26-.51.57-.33a1.26 1.26 0 01.57 1zm0-5c0 .36-.26.51-.57.33a1.26 1.26 0 01-.57-1v-2c0-.36.25-.51.57-.33a1.26 1.26 0 01.57 1zm0-5c0 .36-.25.51-.57.33a1.26 1.26 0 01-.57-1v-2c0-.36.26-.51.57-.33a1.26 1.26 0 01.57 1zm0-5c0 .36-.26.51-.57.33a1.26 1.26 0 01-.57-1v-2c0-.36.26-.51.57-.33a1.26 1.26 0 01.57 1zm0-5c0 .36-.26.51-.57.33a1.26 1.26 0 01-.57-1v-2c0-.36.26-.51.57-.33a1.26 1.26 0 01.57 1zm0-5c0 .36-.26.51-.57.33a1.26 1.26 0 01-.57-1v-2c0-.36.26-.51.57-.33a1.26 1.26 0 01.57 1zm0-5c0 .36-.26.51-.57.33a1.26 1.26 0 01-.57-1v-2c0-.36.26-.51.57-.33a1.26 1.26 0 01.57 1zm0-5c0 .36-.26.51-.57.33a1.26 1.26 0 01-.57-1v-2c0-.36.26-.51.57-.33a1.26 1.26 0 01.57 1zm0-5c0 .36-.26.51-.57.33a1.26 1.26 0 01-.57-1v-2c0-.36.25-.51.57-.33a1.26 1.26 0 01.57 1zm0-5c0 .36-.25.51-.57.33a1.26 1.26 0 01-.57-1v-2c0-.36.26-.51.57-.33a1.26 1.26 0 01.57 1z"/><path class="cls-3" d="M21.92.17V51l2.35 1.36V1.53zm1.74 49.32c0 .36-.26.51-.57.33a1.26 1.26 0 01-.57-1v-2c0-.36.26-.51.57-.33a1.26 1.26 0 01.57 1zm0-5c0 .36-.26.51-.57.33a1.26 1.26 0 01-.57-1v-2c0-.36.26-.51.57-.33a1.26 1.26 0 01.57 1zm0-5c0 .36-.26.51-.57.33a1.26 1.26 0 01-.57-1v-2c0-.36.26-.51.57-.33a1.26 1.26 0 01.57 1zm0-5c0 .36-.26.51-.57.33a1.26 1.26 0 01-.57-1v-2c0-.36.26-.51.57-.33a1.26 1.26 0 01.57 1zm0-5c0 .36-.26.51-.57.33a1.26 1.26 0 01-.57-1v-2c0-.36.25-.51.57-.33a1.26 1.26 0 01.57 1zm0-5c0 .36-.25.51-.57.33a1.26 1.26 0 01-.57-1V22c0-.36.26-.51.57-.33a1.26 1.26 0 01.57 1zm0-5c0 .36-.26.51-.57.33a1.26 1.26 0 01-.57-1V17c0-.36.26-.51.57-.33a1.26 1.26 0 01.57 1zm0-5c0 .36-.26.51-.57.33a1.26 1.26 0 01-.57-1V12c0-.36.26-.51.57-.33a1.26 1.26 0 01.57 1zm0-5c0 .36-.26.51-.57.33a1.26 1.26 0 01-.57-1v-2c0-.36.26-.51.57-.33a1.26 1.26 0 01.57 1zm0-5c0 .36-.26.51-.57.33a1.26 1.26 0 01-.57-1v-2c0-.36.25-.51.57-.33a1.26 1.26 0 01.57 1z"/><path class="cls-3" d="M19.87 1.36v50.82l.3.17 2-1.53V0zm1.74 47.3a1.26 1.26 0 01-.57 1c-.31.18-.57 0-.57-.33v-2a1.26 1.26 0 01.57-1c.31-.18.57 0 .57.33zm0-5a1.26 1.26 0 01-.57 1c-.31.18-.57 0-.57-.33v-2a1.26 1.26 0 01.57-1c.31-.18.57 0 .57.33zm0-5a1.26 1.26 0 01-.57 1c-.31.18-.57 0-.57-.33v-2a1.26 1.26 0 01.57-1c.31-.18.57 0 .57.33zm0-5a1.26 1.26 0 01-.57 1c-.31.18-.57 0-.57-.33v-2a1.26 1.26 0 01.57-1c.31-.18.57 0 .57.33zm0-5a1.26 1.26 0 01-.57 1c-.31.18-.57 0-.57-.33v-2a1.26 1.26 0 01.57-1c.31-.18.57 0 .57.33zm0-5a1.26 1.26 0 01-.57 1c-.31.18-.57 0-.57-.33v-2a1.26 1.26 0 01.57-1c.31-.18.57 0 .57.33zm0-5a1.26 1.26 0 01-.57 1c-.31.18-.57 0-.57-.33v-2a1.26 1.26 0 01.57-1c.31-.18.57 0 .57.33zm0-5a1.26 1.26 0 01-.57 1c-.31.18-.57 0-.57-.33v-2a1.26 1.26 0 01.57-1c.31-.18.57 0 .57.33zm0-5a1.26 1.26 0 01-.57 1c-.31.18-.57 0-.57-.33v-2a1.26 1.26 0 01.57-1c.31-.18.57 0 .57.33zm0-5a1.26 1.26 0 01-.57 1c-.31.18-.57 0-.57-.33v-2a1.26 1.26 0 01.57-1c.31-.18.57 0 .57.33z"/><path class="cls-4" d="M24.57 1.36l-.3.17L22.22.35l-2.04 1.18-.3-.17L22.22 0l2.35 1.36z"/><path class="cls-2" d="M22.22.35l-2 1.18v50.83l2-1.18zm-1.44 2.39a1.26 1.26 0 01.57-1c.31-.18.57 0 .57.33v2a1.26 1.26 0 01-.57 1c-.31.18-.57 0-.57-.33zm0 5a1.26 1.26 0 01.57-1c.31-.18.57 0 .57.33v2a1.26 1.26 0 01-.57 1c-.31.18-.57 0-.57-.33zm0 5a1.26 1.26 0 01.57-1c.31-.18.57 0 .57.33v2a1.26 1.26 0 01-.57 1c-.31.18-.57 0-.57-.33zM21.92 19a1.26 1.26 0 01-.57 1c-.31.18-.57 0-.57-.33v-2a1.26 1.26 0 01.57-1c.31-.18.57 0 .57.33zm-.57 2.65c.31-.18.57 0 .57.33v2a1.26 1.26 0 01-.57 1c-.31.18-.57 0-.57-.33v-2a1.26 1.26 0 01.57-1zm0 5c.31-.18.57 0 .57.33v2a1.26 1.26 0 01-.57 1c-.31.18-.57 0-.57-.33v-2a1.26 1.26 0 01.57-1.03zm0 5c.31-.18.57 0 .57.33v2a1.26 1.26 0 01-.57 1c-.31.18-.57 0-.57-.33v-2a1.26 1.26 0 01.57-1.06zm0 5c.31-.18.57 0 .57.33v2a1.26 1.26 0 01-.57 1c-.31.18-.57 0-.57-.33v-2a1.26 1.26 0 01.57-1.09zm0 5c.31-.18.57 0 .57.33v2a1.26 1.26 0 01-.57 1c-.31.18-.57 0-.57-.33v-2a1.26 1.26 0 01.57-1.11zm0 8.28c-.31.18-.57 0-.57-.33v-2a1.26 1.26 0 01.57-1c.31-.18.57 0 .57.33v2a1.26 1.26 0 01-.57.89z"/><path class="cls-5" d="M2.05 54.69l20.17-11.65v-3.92L2.05 50.77v3.92z"/><path class="cls-6" d="M2.79 51.2v2.19l18.68-10.78v-2.19l-.32.18L2.79 51.2z"/><path class="cls-7" d="M2.79 51.2v1.85l18.36-10.6V40.6L2.79 51.2z"/><path class="cls-5" d="M2.79 51.39v1.66l18.36-10.6v-1.66L2.79 51.39z"/><path class="cls-8" d="M21.57 38.75l.65.37L2.05 50.77l-.66-.37 20.18-11.65z"/><path class="cls-2" d="M68.45 26.69v50.83l2.35 1.36V28zM70.2 76c0 .36-.26.51-.57.33a1.26 1.26 0 01-.57-1v-2c0-.36.26-.51.57-.33a1.26 1.26 0 01.57 1zm0-5c0 .36-.26.51-.57.33a1.26 1.26 0 01-.57-1v-2c0-.36.26-.51.57-.33a1.26 1.26 0 01.57 1zm0-5c0 .36-.26.51-.57.33a1.26 1.26 0 01-.57-1v-2c0-.36.26-.51.57-.33a1.26 1.26 0 01.57 1zm0-5c0 .36-.26.51-.57.33a1.26 1.26 0 01-.57-1v-2c0-.36.25-.51.57-.33a1.26 1.26 0 01.57 1zm0-5c0 .36-.26.51-.57.33a1.26 1.26 0 01-.57-1v-2c0-.36.26-.51.57-.33a1.26 1.26 0 01.57 1zm0-5c0 .36-.26.51-.57.33a1.26 1.26 0 01-.57-1v-2c0-.36.26-.51.57-.33a1.26 1.26 0 01.57 1zm0-5c0 .36-.26.51-.57.33a1.26 1.26 0 01-.57-1v-2c0-.36.26-.51.57-.33a1.26 1.26 0 01.57 1zm0-5c0 .36-.26.51-.57.33a1.26 1.26 0 01-.57-1v-2c0-.36.26-.51.57-.33a1.26 1.26 0 01.57 1zm0-5c0 .36-.26.51-.57.33a1.26 1.26 0 01-.57-1v-2c0-.36.25-.51.57-.33a1.26 1.26 0 01.57 1zm0-5c0 .36-.26.51-.57.33a1.26 1.26 0 01-.57-1v-2c0-.36.26-.51.57-.33a1.26 1.26 0 01.57 1z"/><path class="cls-9" d="M68.15 26.87v50.82L70.5 79V28.22zm1.75 49.31c0 .36-.25.51-.57.33a1.26 1.26 0 01-.57-1v-2c0-.36.26-.51.57-.33a1.26 1.26 0 01.57 1zm0-5c0 .36-.26.51-.57.33a1.26 1.26 0 01-.57-1v-2c0-.36.26-.51.57-.33a1.26 1.26 0 01.57 1zm0-5c0 .36-.26.51-.57.33a1.26 1.26 0 01-.57-1v-2c0-.36.26-.51.57-.33a1.26 1.26 0 01.57 1zm0-5c0 .36-.26.51-.57.33a1.26 1.26 0 01-.57-1v-2c0-.36.26-.51.57-.33a1.26 1.26 0 01.57 1zm0-5c0 .36-.26.51-.57.33a1.26 1.26 0 01-.57-1v-2c0-.36.25-.51.57-.33a1.26 1.26 0 01.57 1zm0-5c0 .36-.25.51-.57.33a1.26 1.26 0 01-.57-1v-2c0-.36.26-.51.57-.33a1.26 1.26 0 01.57 1zm0-5c0 .36-.26.51-.57.33a1.26 1.26 0 01-.57-1v-2c0-.36.26-.51.57-.33a1.26 1.26 0 01.57 1zm0-5c0 .36-.26.51-.57.33a1.26 1.26 0 01-.57-1v-2c0-.36.26-.51.57-.33a1.26 1.26 0 01.57 1zm0-5c0 .36-.26.51-.57.33a1.26 1.26 0 01-.57-1v-2c0-.36.26-.51.57-.33a1.26 1.26 0 01.57 1zm0-5c0 .36-.26.51-.57.33a1.26 1.26 0 01-.57-1v-2c0-.36.26-.51.57-.33a1.26 1.26 0 01.57 1z"/><path class="cls-3" d="M0 10.47v50.82l2.35-1.36V9.11zm1.74 47.3a1.26 1.26 0 01-.57 1c-.31.18-.57 0-.57-.33v-2a1.26 1.26 0 01.57-1c.31-.18.57 0 .57.33zm0-5a1.26 1.26 0 01-.57 1c-.31.18-.57 0-.57-.33v-2a1.26 1.26 0 01.57-1c.31-.18.57 0 .57.33zm0-5a1.26 1.26 0 01-.57 1c-.31.18-.57 0-.57-.33v-2a1.26 1.26 0 01.57-1c.31-.18.57 0 .57.33zm0-5a1.26 1.26 0 01-.57 1c-.31.18-.57 0-.57-.33v-2a1.26 1.26 0 01.57-1c.31-.18.57 0 .57.33zm0-5a1.26 1.26 0 01-.57 1c-.31.18-.57 0-.57-.33v-2a1.26 1.26 0 01.57-1c.31-.18.57 0 .57.33zm0-5a1.26 1.26 0 01-.57 1c-.31.18-.57 0-.57-.33v-2a1.26 1.26 0 01.57-1c.31-.18.57 0 .57.33zm0-5a1.26 1.26 0 01-.57 1c-.31.18-.57 0-.57-.33v-2a1.26 1.26 0 01.57-1c.31-.18.57 0 .57.33zm0-5a1.26 1.26 0 01-.57 1c-.31.18-.57 0-.57-.33v-2a1.26 1.26 0 01.57-1c.31-.18.57 0 .57.33zm0-5a1.26 1.26 0 01-.57 1c-.31.18-.57 0-.57-.33v-2a1.26 1.26 0 01.57-1c.31-.18.57 0 .57.33zm0-5a1.26 1.26 0 01-.57 1c-.31.18-.57 0-.57-.33v-2a1.26 1.26 0 01.57-1c.31-.18.57 0 .57.33z"/><path class="cls-9" d="M.3 10.64v50.83l2.35-1.36V9.29zM2 57.94a1.26 1.26 0 01-.57 1c-.31.18-.57 0-.57-.33v-2a1.26 1.26 0 01.57-1c.31-.18.57 0 .57.33zm0-5a1.26 1.26 0 01-.57 1c-.31.18-.57 0-.57-.33v-2a1.26 1.26 0 01.57-1c.31-.18.57 0 .57.33zm0-5a1.26 1.26 0 01-.57 1c-.31.18-.57 0-.57-.33v-2a1.26 1.26 0 01.57-1c.31-.18.57 0 .57.33zm0-5a1.26 1.26 0 01-.57 1c-.31.18-.57 0-.57-.33v-2a1.26 1.26 0 01.57-1c.31-.18.57 0 .57.33zm0-5a1.26 1.26 0 01-.57 1c-.31.18-.57 0-.57-.33v-2a1.26 1.26 0 01.57-1c.31-.18.57 0 .57.33zm0-5a1.26 1.26 0 01-.57 1c-.31.18-.57 0-.57-.33v-2a1.26 1.26 0 01.57-1c.31-.18.57 0 .57.33zm0-5a1.26 1.26 0 01-.57 1c-.31.18-.57 0-.57-.33v-2a1.26 1.26 0 01.57-1c.31-.18.57 0 .57.33zm0-5a1.26 1.26 0 01-.57 1c-.31.18-.57 0-.57-.33v-2a1.26 1.26 0 01.57-1c.31-.18.57 0 .57.33zm0-5a1.26 1.26 0 01-.57 1c-.31.18-.57 0-.57-.33v-2a1.26 1.26 0 01.57-1c.31-.18.57 0 .57.33zm0-5a1.26 1.26 0 01-.57 1c-.31.18-.57 0-.57-.33v-2a1.26 1.26 0 01.57-1c.31-.18.57 0 .57.33z"/><path class="cls-3" d="M50.32 83.78L.33 54.91v-3.92l49.99 28.87v3.92z"/><path class="cls-8" d="M49.58 80.29v2.19l-48.5-28v-2.19l.32.18 48.18 27.82z"/><path class="cls-10" d="M49.58 80.29v1.85L1.4 54.32v-1.85l48.18 27.82z"/><path class="cls-3" d="M49.58 80.48v1.66L1.4 54.32v-1.66l48.18 27.82z"/><path class="cls-8" d="M.98 50.62l-.65.37 49.99 28.87.66-.37-50-28.87z"/><path class="cls-3" d="M69.85 71.28L21.57 43.41v-3.92l48.28 27.87v3.92z"/><path class="cls-8" d="M69.1 67.79v2.19l-46.78-27v-2.19l.32.18L69.1 67.79z"/><path class="cls-10" d="M69.1 67.79v1.85L22.64 42.82v-1.85L69.1 67.79z"/><path class="cls-3" d="M69.1 67.98v1.66L22.64 42.82v-1.66L69.1 67.98z"/><path class="cls-8" d="M22.22 39.12l-.65.37 48.28 27.87.65-.37-48.28-27.87z"/><path class="cls-5" d="M50.32 83.78L70.5 72.13v-3.92L50.32 79.86v3.92z"/><path class="cls-6" d="M51.07 80.29v2.19L69.75 71.7v-2.19l-.32.18-18.36 10.6z"/><path class="cls-7" d="M51.07 80.29v1.85l18.36-10.6v-1.85l-18.36 10.6z"/><path class="cls-5" d="M51.07 80.48v1.66l18.36-10.6v-1.66l-18.36 10.6z"/><path class="cls-8" d="M69.85 67.84l.65.37-20.18 11.65-.65-.37 20.18-11.65z"/><path class="cls-11" d="M21.57 39.49L70.2 67.65 50.36 79.12 1.62 50.99l19.95-11.5z"/><path class="cls-12" d="M43.66 71.32l-14.4-8.31V46.37l14.4 8.32v16.63z"/><path class="cls-13" d="M58.07 63.01l-14.41 8.31V54.69l14.4-8.32.01 16.64z"/><path class="cls-14" d="M58.06 46.37l-5.75 3.33-2.23 1.29-6.42 3.7-14.4-8.32 6.41-3.7 2.23-1.29 5.76-3.32 14.4 8.31z"/><path class="cls-15" d="M51.72 50.04l-2.23 1.29-2.74-1.59-5.02-2.89-.99-.58-5.02-2.89-.64-.37 2.24-1.29 2.87 1.66 5.01 2.89 1 .58 5.01 2.89.51.3z"/><path class="cls-16" d="M49.49 51.33v3.18l.37-.79.37.36.38-.79.37.36.37-.79.37.36v-3.18l-2.23 1.29z"/><path class="cls-16" d="M36.35 42.28l-.21.12s-.09.1 14.35 8.35l.25-.14c-3.9-2.22-14.08-8.06-14.39-8.33z"/><path class="cls-17" d="M32.29 58v5.8l10.36 6V64zm10.09 11.31l-9.82-5.67v-5.15l9.82 5.67zm-9.12-8.6v-1l.49.29.25 1.07.15-.88 1.53.88v1c0 .72-.48 1-1.08.77V64l.86.5v.31l-2-1.15v-.36l.86.5v-1.07a2.72 2.72 0 01-1.06-2.02zM42 68.54l-2-1.15v-.31l2 1.15zm-1.59-3l-.22-.13.36-1.26.36 1.67-.22-.13v1.47l-.14-.08-.11-.08zm.91.53l-.22-.13.36-1.26.36 1.67-.22-.13v1.47l-.14-.08-.14-.08zM36 62.29h.58a2.8 2.8 0 011.1.34v-.36l.27.16v.36a5.41 5.41 0 011.08.91l.6.65v.06l-1.67-1V65c0 .54-.07 1.11-.61.8a1.13 1.13 0 01-.41-.44 1.47 1.47 0 01-.19-.75l.27.17a.94.94 0 00.11.47.57.57 0 00.21.22c.17.1.34.13.34-.64v-1.51l-1.66-1s-.08-.03-.02-.03zm.24-.87a1.21 1.21 0 01.23-.44 4 4 0 01.23.71c0 .15-.1.21-.23.13a.51.51 0 01-.26-.4zm.87.5a1.21 1.21 0 01.23-.44 4.05 4.05 0 01.23.71c0 .15-.1.21-.23.13a.51.51 0 01-.26-.4zm1 .56a1.21 1.21 0 01.23-.44 4.05 4.05 0 01.23.71c0 .15-.1.21-.23.13a.51.51 0 01-.34-.39zm.87.5a1.21 1.21 0 01.23-.44 4 4 0 01.23.71c0 .15-.1.21-.23.13a.51.51 0 01-.29-.38z"/><path class="cls-5" d="M2.05 27.57l20.17-11.65V12L2.05 23.65v3.92z"/><path class="cls-6" d="M2.79 24.08v2.19l18.68-10.78V13.3l-.32.18-18.36 10.6z"/><path class="cls-7" d="M2.79 24.08v1.85l18.36-10.6v-1.85L2.79 24.08z"/><path class="cls-5" d="M2.79 24.27v1.66l18.36-10.6v-1.66L2.79 24.27z"/><path class="cls-8" d="M21.57 11.63l.65.37-20.6 11.87-.64-.37 20.59-11.87z"/><path class="cls-3" d="M50.32 56.66L.33 27.8v-3.93l49.99 28.87v3.92z"/><path class="cls-8" d="M49.58 53.17v2.19l-48.5-28v-2.19l.32.18 48.18 27.82z"/><path class="cls-10" d="M49.58 53.17v1.85L1.4 27.2v-1.85l48.18 27.82z"/><path class="cls-3" d="M49.58 53.36v1.66L1.4 27.2v-1.66l48.18 27.82z"/><path class="cls-8" d="M.98 23.5l-.65.37 49.99 28.87.66-.37-50-28.87z"/><path class="cls-3" d="M69.85 44.16L21.57 16.29v-3.92l48.28 27.87v3.92z"/><path class="cls-8" d="M69.1 40.67v2.2L22.32 15.86v-2.19l.32.18L69.1 40.67z"/><path class="cls-10" d="M69.1 40.67v1.85L22.64 15.7v-1.85L69.1 40.67z"/><path class="cls-3" d="M69.1 40.87v1.65L22.64 15.7v-1.66L69.1 40.87z"/><path class="cls-8" d="M22.22 12l-.65.37 48.28 27.87.65-.37L22.22 12z"/><path class="cls-5" d="M50.32 56.66L70.5 45.01v-3.92L50.32 52.74v3.92z"/><path class="cls-6" d="M51.07 53.17v2.19l18.68-10.78v-2.19l-.32.18-18.36 10.6z"/><path class="cls-7" d="M51.07 53.17v1.85l18.36-10.6v-1.85l-18.36 10.6z"/><path class="cls-5" d="M51.07 53.36v1.66l18.36-10.6v-1.66l-18.36 10.6z"/><path class="cls-8" d="M69.85 40.72l.65.37-20.18 11.65-.65-.37 20.18-11.65z"/><path class="cls-11" d="M21.57 12.37L70.2 40.53 50.36 52 1.62 23.87l19.95-11.5z"/><path class="cls-3" d="M50.32 39.52v50.83L52.67 89V38.17zm1.74 47.3a1.26 1.26 0 01-.57 1c-.31.18-.57 0-.57-.33v-2a1.26 1.26 0 01.57-1c.31-.18.57 0 .57.33zm0-5a1.26 1.26 0 01-.57 1c-.31.18-.57 0-.57-.33v-2a1.26 1.26 0 01.57-1c.31-.18.57 0 .57.33zm0-5a1.26 1.26 0 01-.57 1c-.31.18-.57 0-.57-.33v-2a1.26 1.26 0 01.57-1c.31-.18.57 0 .57.33zm0-5a1.26 1.26 0 01-.57 1c-.31.18-.57 0-.57-.33v-2a1.26 1.26 0 01.57-1c.31-.18.57 0 .57.33zm0-5a1.26 1.26 0 01-.57 1c-.31.18-.57 0-.57-.33v-2a1.26 1.26 0 01.57-1c.31-.18.57 0 .57.33zm0-5a1.26 1.26 0 01-.57 1c-.31.18-.57 0-.57-.33v-2a1.26 1.26 0 01.57-1c.31-.18.57 0 .57.33zm0-5a1.26 1.26 0 01-.57 1c-.31.18-.57 0-.57-.33v-2a1.26 1.26 0 01.57-1c.31-.18.57 0 .57.33zm0-5a1.26 1.26 0 01-.57 1c-.31.18-.57 0-.57-.33v-2a1.26 1.26 0 01.57-1c.31-.18.57 0 .57.33zm0-5a1.26 1.26 0 01-.57 1c-.31.18-.57 0-.57-.33v-2a1.26 1.26 0 01.57-1c.31-.18.57 0 .57.33zm0-5a1.26 1.26 0 01-.57 1c-.31.18-.57 0-.57-.33v-2a1.26 1.26 0 01.57-1c.31-.18.57 0 .57.33z"/><path class="cls-2" d="M48.58 38.17V89l2.35 1.36V39.52zm1.74 49.32c0 .36-.26.51-.57.33a1.26 1.26 0 01-.57-1v-2c0-.36.26-.51.57-.33a1.26 1.26 0 01.57 1zm0-5c0 .36-.26.51-.57.33a1.26 1.26 0 01-.57-1v-2c0-.36.26-.51.57-.33a1.26 1.26 0 01.57 1zm0-5c0 .36-.26.51-.57.33a1.26 1.26 0 01-.57-1v-2c0-.36.26-.51.57-.33a1.26 1.26 0 01.57 1zm0-5c0 .36-.26.51-.57.33a1.26 1.26 0 01-.57-1v-2c0-.36.26-.51.57-.33a1.26 1.26 0 01.57 1zm0-5c0 .36-.26.51-.57.33a1.26 1.26 0 01-.57-1v-2c0-.36.25-.51.57-.33a1.26 1.26 0 01.57 1zm0-5c0 .36-.25.51-.57.33a1.26 1.26 0 01-.57-1V60c0-.36.26-.51.57-.33a1.26 1.26 0 01.57 1zm0-5c0 .36-.26.51-.57.33a1.26 1.26 0 01-.57-1V55c0-.36.26-.51.57-.33a1.26 1.26 0 01.57 1zm0-5c0 .36-.26.51-.57.33a1.26 1.26 0 01-.57-1V50c0-.36.26-.51.57-.33a1.26 1.26 0 01.57 1zm0-5c0 .36-.26.51-.57.33a1.26 1.26 0 01-.57-1V45c0-.36.26-.51.57-.33a1.26 1.26 0 01.57 1zm0-5c0 .36-.26.51-.57.33a1.26 1.26 0 01-.57-1v-2c0-.36.26-.51.57-.33a1.26 1.26 0 01.57 1z"/><path class="cls-3" d="M48.28 38.34v50.83l2.35 1.36V39.7zM50 87.66c0 .36-.26.51-.57.33a1.26 1.26 0 01-.57-1V85c0-.36.25-.51.57-.33a1.26 1.26 0 01.57 1zm0-5c0 .36-.26.51-.57.33a1.26 1.26 0 01-.57-1V80c0-.36.26-.51.57-.33a1.26 1.26 0 01.57 1zm0-5c0 .36-.26.51-.57.33a1.26 1.26 0 01-.57-1v-2c0-.36.26-.51.57-.33a1.26 1.26 0 01.57 1zm0-5c0 .36-.26.51-.57.33a1.26 1.26 0 01-.57-1v-2c0-.36.26-.51.57-.33a1.26 1.26 0 01.57 1zm0-5c0 .36-.26.51-.57.33a1.26 1.26 0 01-.57-1v-2c0-.36.26-.51.57-.33a1.26 1.26 0 01.57 1zm0-5c0 .36-.26.51-.57.33a1.26 1.26 0 01-.57-1v-2c0-.36.26-.51.57-.33a1.26 1.26 0 01.57 1zm0-5c0 .36-.25.51-.57.33a1.26 1.26 0 01-.57-1v-2c0-.36.26-.51.57-.33a1.26 1.26 0 01.57 1zm0-5c0 .36-.26.51-.57.33a1.26 1.26 0 01-.57-1v-2c0-.36.26-.51.57-.33a1.26 1.26 0 01.57 1zm0-5c0 .36-.26.51-.57.33a1.26 1.26 0 01-.57-1v-2c0-.36.26-.51.57-.33a1.26 1.26 0 01.57 1zm0-5c0 .36-.26.51-.57.33a1.26 1.26 0 01-.57-1v-2c0-.36.26-.51.57-.33a1.26 1.26 0 01.57 1z"/><path class="cls-2" d="M50.62 39.7v50.82L53 89.17V38.34zM52.37 87a1.26 1.26 0 01-.57 1c-.31.18-.57 0-.57-.33v-2a1.26 1.26 0 01.57-1c.31-.18.57 0 .57.33zm0-5a1.26 1.26 0 01-.57 1c-.31.18-.57 0-.57-.33v-2a1.26 1.26 0 01.57-1c.31-.18.57 0 .57.33zm0-5a1.26 1.26 0 01-.57 1c-.31.18-.57 0-.57-.33v-2a1.26 1.26 0 01.57-1c.31-.18.57 0 .57.33zm0-5a1.26 1.26 0 01-.57 1c-.31.18-.57 0-.57-.33v-2a1.26 1.26 0 01.57-1c.31-.18.57 0 .57.33zm0-5a1.26 1.26 0 01-.57 1c-.31.18-.57 0-.57-.33v-2a1.26 1.26 0 01.57-1c.31-.18.57 0 .57.33zm0-5a1.26 1.26 0 01-.57 1c-.31.18-.57 0-.57-.33v-2a1.26 1.26 0 01.57-1c.31-.18.57 0 .57.33zm0-5a1.26 1.26 0 01-.57 1c-.31.18-.57 0-.57-.33v-2a1.26 1.26 0 01.57-1c.31-.18.57 0 .57.33zm0-5a1.26 1.26 0 01-.57 1c-.31.18-.57 0-.57-.33v-2a1.26 1.26 0 01.57-1c.31-.18.57 0 .57.33zm0-5a1.26 1.26 0 01-.57 1c-.31.18-.57 0-.57-.33v-2a1.26 1.26 0 01.57-1c.31-.18.57 0 .57.33zm0-5a1.26 1.26 0 01-.57 1c-.31.18-.57 0-.57-.33v-2a1.26 1.26 0 01.57-1c.31-.18.57 0 .57.33z"/><path class="cls-4" d="M48.28 38.34l.3-.17 2.05 1.18 2.04-1.18.3.17-2.34 1.36-2.35-1.36z"/><path class="cls-2" d="M.3 10.29v50.83l2 1.53.3-.17V11.65zM2 59.61c0 .36-.26.51-.57.33a1.26 1.26 0 01-.57-1V57c0-.36.26-.51.57-.33a1.26 1.26 0 01.57 1zm0-5c0 .36-.26.51-.57.33a1.26 1.26 0 01-.57-1V52c0-.36.26-.51.57-.33a1.26 1.26 0 01.57 1zm0-5c0 .36-.26.51-.57.33a1.26 1.26 0 01-.57-1V47c0-.36.25-.51.57-.33a1.26 1.26 0 01.57 1zm0-5c0 .36-.25.51-.57.33a1.26 1.26 0 01-.57-1V42c0-.36.26-.51.57-.33a1.26 1.26 0 01.57 1zm0-5c0 .36-.26.51-.57.33a1.26 1.26 0 01-.57-1v-2c0-.36.26-.51.57-.33a1.26 1.26 0 01.57 1zm0-5c0 .36-.26.51-.57.33a1.26 1.26 0 01-.57-1v-2c0-.36.26-.51.57-.33a1.26 1.26 0 01.57 1zm0-5c0 .36-.26.51-.57.33a1.26 1.26 0 01-.57-1v-2c0-.36.26-.51.57-.33a1.26 1.26 0 01.57 1zm0-5c0 .36-.26.51-.57.33a1.26 1.26 0 01-.57-1v-2c0-.36.26-.51.57-.33a1.26 1.26 0 01.57 1zm0-5c0 .36-.26.51-.57.33a1.26 1.26 0 01-.57-1v-2c0-.36.26-.51.57-.33a1.26 1.26 0 01.57 1zm0-5c0 .36-.26.51-.57.33a1.26 1.26 0 01-.57-1v-2c0-.36.25-.51.57-.33a1.26 1.26 0 01.57 1z"/><path class="cls-3" d="M0 10.47v50.82l2.35 1.36V11.82zm1.74 49.31c0 .36-.26.51-.57.33a1.26 1.26 0 01-.57-1v-2c0-.36.26-.51.57-.33a1.26 1.26 0 01.57 1zm0-5c0 .36-.26.51-.57.33a1.26 1.26 0 01-.57-1v-2c0-.36.26-.51.57-.33a1.26 1.26 0 01.57 1zm0-5c0 .36-.26.51-.57.33a1.26 1.26 0 01-.57-1v-2c0-.36.26-.51.57-.33a1.26 1.26 0 01.57 1zm0-5c0 .36-.26.51-.57.33a1.26 1.26 0 01-.57-1v-2c0-.36.26-.51.57-.33a1.26 1.26 0 01.57 1zm0-5c0 .36-.26.51-.57.33a1.26 1.26 0 01-.57-1v-2c0-.36.26-.51.57-.33a1.26 1.26 0 01.57 1zm0-5c0 .36-.26.51-.57.33a1.26 1.26 0 01-.57-1v-2c0-.36.26-.51.57-.33a1.26 1.26 0 01.57 1zm0-5c0 .36-.26.51-.57.33a1.26 1.26 0 01-.57-1v-2c0-.36.26-.51.57-.33a1.26 1.26 0 01.57 1zm0-5c0 .36-.26.51-.57.33a1.26 1.26 0 01-.57-1v-2c0-.36.26-.51.57-.33a1.26 1.26 0 01.57 1zm0-5c0 .36-.26.51-.57.33a1.26 1.26 0 01-.57-1v-2c0-.36.26-.51.57-.33a1.26 1.26 0 01.57 1zm0-5c0 .36-.26.51-.57.33a1.26 1.26 0 01-.57-1v-2c0-.36.26-.51.57-.33a1.26 1.26 0 01.57 1z"/><path class="cls-4" d="M2.35 9.11l.3.18L.6 10.47l2.05 1.18-.3.17L0 10.47l2.35-1.36z"/><path class="cls-3" d="M68.15 29.23v50.82l.3.17 2-1.53V27.87zm1.74 47.3a1.26 1.26 0 01-.57 1c-.31.18-.57 0-.57-.33v-2a1.26 1.26 0 01.57-1c.31-.18.57 0 .57.33zm0-5a1.26 1.26 0 01-.57 1c-.31.18-.57 0-.57-.33v-2a1.26 1.26 0 01.57-1c.31-.18.57 0 .57.33zm0-5a1.26 1.26 0 01-.57 1c-.31.18-.57 0-.57-.33v-2a1.26 1.26 0 01.57-1c.31-.18.57 0 .57.33zm0-5a1.26 1.26 0 01-.57 1c-.31.18-.57 0-.57-.33v-2a1.26 1.26 0 01.57-1c.31-.18.57 0 .57.33zm0-5a1.26 1.26 0 01-.57 1c-.31.18-.57 0-.57-.33v-2a1.26 1.26 0 01.57-1c.31-.18.57 0 .57.33zm0-5a1.26 1.26 0 01-.57 1c-.31.18-.57 0-.57-.33v-2a1.26 1.26 0 01.57-1c.31-.18.57 0 .57.33zm0-5a1.26 1.26 0 01-.57 1c-.31.18-.57 0-.57-.33v-2a1.26 1.26 0 01.57-1c.31-.18.57 0 .57.33zm0-5a1.26 1.26 0 01-.57 1c-.31.18-.57 0-.57-.33v-2a1.26 1.26 0 01.57-1c.31-.18.57 0 .57.33zm0-5a1.26 1.26 0 01-.57 1c-.31.18-.57 0-.57-.33v-2a1.26 1.26 0 01.57-1c.31-.18.57 0 .57.33zm0-5a1.26 1.26 0 01-.57 1c-.31.18-.57 0-.57-.33v-2a1.26 1.26 0 01.57-1c.31-.18.57 0 .57.33z"/><path class="cls-2" d="M68.45 29.4v50.83l2.35-1.36V28zm1.74 47.3a1.26 1.26 0 01-.57 1c-.31.18-.57 0-.57-.33v-2a1.26 1.26 0 01.57-1c.31-.18.57 0 .57.33zm0-5a1.26 1.26 0 01-.57 1c-.31.18-.57 0-.57-.33v-2a1.26 1.26 0 01.57-1c.31-.18.57 0 .57.33zm0-5a1.26 1.26 0 01-.57 1c-.31.18-.57 0-.57-.33v-2a1.26 1.26 0 01.57-1c.31-.18.57 0 .57.33zm0-5a1.26 1.26 0 01-.57 1c-.31.18-.57 0-.57-.33v-2a1.26 1.26 0 01.57-1c.31-.18.57 0 .57.33zm0-5a1.26 1.26 0 01-.57 1c-.31.18-.57 0-.57-.33v-2a1.26 1.26 0 01.57-1c.31-.18.57 0 .57.33zm0-5a1.26 1.26 0 01-.57 1c-.31.18-.57 0-.57-.33v-2a1.26 1.26 0 01.57-1c.31-.18.57 0 .57.33zm0-5a1.26 1.26 0 01-.57 1c-.31.18-.57 0-.57-.33v-2a1.26 1.26 0 01.57-1c.31-.18.57 0 .57.33zm0-5a1.26 1.26 0 01-.57 1c-.31.18-.57 0-.57-.33v-2a1.26 1.26 0 01.57-1c.31-.18.57 0 .57.33zm0-5a1.26 1.26 0 01-.57 1c-.31.18-.57 0-.57-.33v-2a1.26 1.26 0 01.57-1c.31-.18.57 0 .57.33zm0-5a1.26 1.26 0 01-.57 1c-.31.18-.57 0-.57-.33v-2a1.26 1.26 0 01.57-1c.31-.18.57 0 .57.33z"/><path class="cls-4" d="M68.45 29.4l-.3-.17 2.05-1.18-2.05-1.18.3-.18 2.35 1.36-2.35 1.35z"/><path class="cls-12" d="M33.69 37.04l-14.41-8.31V12.09l14.41 8.32v16.63z"/><path class="cls-13" d="M48.09 28.73l-14.4 8.31V20.41l14.4-8.32v16.64z"/><path class="cls-14" d="M48.09 12.09l-5.76 3.33-2.23 1.29-6.41 3.7-14.41-8.32 6.41-3.7 2.24-1.28 5.76-3.33 14.4 8.31z"/><path class="cls-15" d="M41.75 15.76l-2.23 1.29-2.75-1.59-5.01-2.89-1-.58-5.01-2.89-.64-.37 2.23-1.29 2.87 1.66 5.02 2.89.99.58 5.01 2.89.52.3z"/><path class="cls-16" d="M39.52 17.04v3.19l.37-.79.37.36.37-.79.37.36.38-.79.37.36v-3.18l-2.23 1.28z"/><path class="cls-16" d="M26.37 8l-.21.12s-.09.1 14.35 8.35l.25-.14C36.87 14.11 26.68 8.27 26.37 8z"/><path class="cls-17" d="M22.32 23.75v5.78l10.36 6v-5.8zM32.41 35l-9.82-5.67v-5.12l9.82 5.67zm-9.12-8.6v-1l.49.29.22 1.1.15-.88 1.53.89v1c0 .72-.48 1-1.08.77v1.07l.86.5v.31l-2-1.15V29l.86.5v-1.05a2.72 2.72 0 01-1.03-2.02zm8.77 7.83l-2-1.15v-.28l2 1.15zm-1.59-3l-.22-.13.36-1.26.39 1.71-.22-.13v1.47l-.14-.08-.14-.08zm.91.53l-.22-.13.36-1.26.36 1.67-.22-.13v1.47l-.14-.08-.14-.08zM26 28h.58a2.8 2.8 0 011.1.34V28l.27.16v.36a5.42 5.42 0 011.08.91l.6.65v.06l-1.67-1v1.52c0 .54-.07 1.11-.61.8a1.13 1.13 0 01-.41-.44 1.47 1.47 0 01-.19-.75l.27.17a.94.94 0 00.11.47.57.57 0 00.21.22c.17.1.34.13.34-.64V29l-1.66-1H26zm.24-.87a1.21 1.21 0 01.23-.44 4 4 0 01.23.71c0 .15-.1.21-.23.13a.51.51 0 01-.24-.39zm.87.5a1.21 1.21 0 01.23-.44 4 4 0 01.23.71c0 .15-.1.21-.23.13a.51.51 0 01-.24-.39zm1 .56a1.21 1.21 0 01.23-.44 4 4 0 01.23.71c0 .15-.1.21-.23.13a.51.51 0 01-.27-.38zm.87.5a1.21 1.21 0 01.23-.44 4 4 0 01.23.71c0 .15-.1.21-.23.13a.51.51 0 01-.26-.38z"/><path d="M28.02 49.67l1.24-1.24v4.54l-.78-.46H2.97l-.01.86.56.32v1.85l-.56.03v.86l-.31-.17v-6.59h25.37zM14.5 23.95l2.05 1.24-.3.18H2.97l-.01.86.56.32v1.85l-.56.03v.86l-.31-.17v-6.59h13.6l.3.18-2.05 1.24zM50 60.8a1.28 1.28 0 00-.57-1 .55.55 0 00-.23-.07.53.53 0 000 .23v2a1.24 1.24 0 00.57 1A.74.74 0 0050 63a.57.57 0 00.05-.24zm-.54 3.99a.58.58 0 00-.23-.08.53.53 0 000 .23v2a1.24 1.24 0 00.57 1 .54.54 0 00.2.06.52.52 0 00.05-.23v-2a1.26 1.26 0 00-.59-.98zM52.07 60a.53.53 0 000-.23.55.55 0 00-.23.07 1.28 1.28 0 00-.57 1v2a.57.57 0 000 .24.54.54 0 00.22-.08 1.24 1.24 0 00.57-1zM50 56.49l-.81-.49v1a1.27 1.27 0 00.57 1 .51.51 0 00.24 0 .52.52 0 00.05-.23zm1.23 9.28v2a.52.52 0 000 .23.54.54 0 00.22-.08 1.24 1.24 0 00.57-1v-2a.53.53 0 000-.23.58.58 0 00-.23.08 1.26 1.26 0 00-.56 1zm-1.77 3.99a.58.58 0 00-.23-.08.53.53 0 000 .23v1.37H50v-.53a1.26 1.26 0 00-.54-.99zm-20.2-23.38v1.07l14.41 8.32v15.55h4.61V55.5L30.9 45.44zm28.81 13.43v-7.62l-3.21 1.85-1.88 1.09h-.01v11.53h.01v4.62h8l2.09 1.22 5.08-2.94v-3.92l-10.08-5.83zm-6.84-1.99a.52.52 0 000 .23.51.51 0 00.27-.05 1.25 1.25 0 00.57-1v-1.35l-.84.49zM52 69.68a.58.58 0 00-.23.08 1.26 1.26 0 00-.57 1v.53h.84v-1.38a.53.53 0 00-.04-.23zM33.69 37.04h18.68l6.95-3.62-11.23-6.49V12.09l-14.4 8.32v16.63z" style="mix-blend-mode:multiply" fill="#d1ccc0"/></g></g></g></svg>