<svg xmlns="http://www.w3.org/2000/svg" viewBox="0 0 77.19 68.21"><defs><style>.cls-6{fill:#48433f}.cls-7{fill:#302d2a}.cls-8{fill:#8db0a1}.cls-9{fill:#051238}.cls-10{fill:#d1dbd3}.cls-11{fill:#c8d1c9}.cls-12{fill:#cfe8dc}</style></defs><g style="isolation:isolate"><g id="Слой_2" data-name="Слой 2"><g id="Layer_3" data-name="Layer 3"><path d="M36.76 54.34c0-4.68 6-3.13 4.7.94s-4.7-.94-4.7-.94zM69.7 35.09c0-4.68 6-3.13 4.7.94s-4.7-.94-4.7-.94z" fill="#112554"/><path d="M73.42 11q-5.32 4.1-10.61 8.22c-3.64 2.85-6.95 6.08-10.4 9.14-1.67 1.48-3.48 2.8-5.11 4.31-1.32 1.23-2 2.74-3.09 4.14a106.74 106.74 0 01-15.34 15.64c-.8.67-1.6 1.35-2.41 2-1.58 1.31-2.46 1.33-3.46 3.12a22.2 22.2 0 00-1.43 3.2A17.77 17.77 0 0020 65.41c0 .35.3 1-.24 1.17a1.09 1.09 0 01-.47 0 68.23 68.23 0 01-6.59-1.8 23.24 23.24 0 01-9.91-7.17 8.28 8.28 0 01-1-1.26C.13 52.53-.18 45.26 3.5 40.81c.15-.19.32-.38.49-.56 4.19-4.38 10.33-6.25 12.77-9.88s8.34-14.13 14-18.37S53-.51 54.35 0s11.42 4.78 19.07 11z" fill="#2148a5"/><path d="M32.82 67.76l7.77-13.05-2.69-1.53a2.56 2.56 0 00-.4-.23 3.91 3.91 0 00-3.58.48 11.88 11.88 0 00-5.37 9.31A3.86 3.86 0 0030 66.12l.26.15zm33.46-19.32L74 35.39l-2.68-1.53a2.55 2.55 0 00-.4-.23 3.91 3.91 0 00-3.58.48A11.88 11.88 0 0062 43.42a3.86 3.86 0 001.44 3.39l.26.15z" fill="#383431"/><path d="M77.18 25.68a35.4 35.4 0 01-1.06 7.74 8.54 8.54 0 01-2.12 3.2c-.59-2.61-2.86-3.56-5.57-2.08a12.14 12.14 0 00-5.72 9.63C56.63 48 48.58 53 41.63 57.19c-.36-3.06-2.75-4.3-5.65-2.74a12.35 12.35 0 00-5.77 9.78 25.12 25.12 0 01-4.26 2c-4 .7-5.09.53-6.21.39h-.19c-1-.12-1.35-1.61-1.21-3.66a21 21 0 011-4.94A18.15 18.15 0 0123 51.26c4.19-4.38 10.33-6.21 12.78-9.88s8.34-14.13 14-18.34 22.25-12.55 23.6-12c1.09.42 4.01 6.22 3.8 14.64z" fill="#0d2b86"/><path class="cls-6" d="M42.14 58.17a11.88 11.88 0 01-5.37 9.31c-3 1.71-5.38.32-5.38-3.1a11.88 11.88 0 015.37-9.31c2.97-1.72 5.38-.33 5.38 3.1z"/><path class="cls-7" d="M40.14 60.08a6 6 0 01-2.7 4.68c-1.37.8-2.51.27-2.69-1.15v-.42a6 6 0 012.71-4.68 1.87 1.87 0 01.37-.18c1.3-.55 2.31.18 2.31 1.75z"/><path class="cls-8" d="M38.26 59.6a4.83 4.83 0 01-2.18 3.78 1.63 1.63 0 01-1.33.24v-.42a6 6 0 012.71-4.68 1.87 1.87 0 01.37-.18 1.66 1.66 0 01.43 1.26z"/><path class="cls-6" d="M75.6 38.85a11.88 11.88 0 01-5.37 9.31c-3 1.71-5.38.32-5.38-3.1a11.88 11.88 0 015.37-9.31c2.97-1.75 5.38-.33 5.38 3.1z"/><path class="cls-7" d="M73.61 40.76a6 6 0 01-2.7 4.68c-1.37.8-2.51.27-2.69-1.15v-.42a6 6 0 012.68-4.67 1.88 1.88 0 01.37-.18c1.32-.55 2.34.17 2.34 1.74z"/><path class="cls-8" d="M71.73 40.28a4.83 4.83 0 01-2.18 3.78 1.63 1.63 0 01-1.33.24v-.42a6 6 0 012.68-4.68 1.88 1.88 0 01.37-.18 1.66 1.66 0 01.46 1.26z"/><path class="cls-9" d="M16.67 57.48c2.36-4.63 6.94-6.82 8.7-7.66s-.07 6.69-1.26 7.66-8.17 1.44-7.44 0z"/><path class="cls-10" d="M17.1 57.17c2.14-4.2 6.3-6.19 7.89-7s-.06 6.07-1.15 7-7.4 1.3-6.74 0z"/><path class="cls-11" d="M22.85 56.36a1.56 1.56 0 01-2.17 1.25A2.5 2.5 0 0119.15 55a1.56 1.56 0 012.17-1.25 2.5 2.5 0 011.53 2.61z"/><path class="cls-12" d="M22 56.06a.87.87 0 01-1.21.7 1.39 1.39 0 01-.79-1.48.87.87 0 011.21-.7 1.39 1.39 0 01.79 1.48z"/><path class="cls-11" d="M24.81 53.45a1 1 0 01-1.43.82 1.64 1.64 0 01-1-1.74 1 1 0 011.43-.82 1.64 1.64 0 011 1.74z"/><path class="cls-12" d="M24.29 53.26a.58.58 0 01-.81.47.94.94 0 01-.57-1 .58.58 0 01.81-.47.94.94 0 01.57 1z"/><path class="cls-9" d="M4.43 39.79a27.84 27.84 0 00-2.55 7c-.13.73-.62 2.33-1 1.27A4.94 4.94 0 01.67 47c-.27-2 1.73-4.78 2.94-6.24.39-.54.76-.91.82-.97z"/><path class="cls-12" d="M3.61 40.76a29.92 29.92 0 00-1.89 5.75c-.11.62-.48 1.87-.82 1.56A4.94 4.94 0 01.67 47c-.27-2 1.73-4.78 2.94-6.24z"/><path class="cls-10" d="M1.64 48.29c.46-1 .88-3.92 1.8-5.76a.34.34 0 01.48-.13c3.21 4 8.79 7.07 16.35 9.44a.34.34 0 01.07.54A26.47 26.47 0 0017.18 56a8.54 8.54 0 00-.75 1.37.34.34 0 01-.5.17c-6.41-2.17-11.36-5-14.16-8.78a.33.33 0 01-.13-.47z"/><path d="M19.8 52.22l-.09.09-.42.42-.42.45c-.13.13-.27.28-.4.43a6.14 6.14 0 00-.42.47c-.13.14-.26.29-.37.43l-.39.47q-.18.23-.33.45l-.19.28c-.07.11-.14.22-.22.33s-.18.31-.25.45-.2.37-.27.53c-6.75-2.29-11.28-5.1-13.86-8.59 0-.1.09-.22.13-.35s.11-.36.17-.57.08-.3.12-.46.09-.36.14-.54v-.07c0-.17.08-.35.13-.53l.14-.63c0-.16.09-.32.13-.48l.17-.56.15-.42c.06-.18.13-.36.2-.53l.12-.29c3.15 3.74 8.54 6.83 16.03 9.22z" fill="#979e98"/><path d="M15.89 58.16c-6.08-1.84-11.33-5-14.27-8.79l-.08 1.37C4 54.21 9.3 57.4 15.89 59.7z" fill="#5d615e"/><path class="cls-10" d="M17.29 55q-.18.23-.33.45A27 27 0 012.56 47c0-.18.09-.36.14-.54v-.07A26.8 26.8 0 0017.29 55z"/><path class="cls-10" d="M18 54.08c-.13.14-.26.29-.37.43a27.88 27.88 0 01-14.78-8.64l.15-.59a27.4 27.4 0 0015 8.8z"/><path class="cls-10" d="M18.87 53.18c-.13.13-.27.28-.4.43a28.14 28.14 0 01-15.34-8.8l.17-.56a27.41 27.41 0 0015.57 8.93z"/><path class="cls-10" d="M19.71 52.31l-.42.42a28.52 28.52 0 01-15.84-8.9c.06-.18.13-.36.2-.53a28.34 28.34 0 0016.06 9.01zM16.55 56c-.09.16-.18.31-.25.45C8.48 54.34 4.23 50.41 2.27 48c.06-.17.11-.36.17-.57 1.82 2.33 6.02 6.41 14.11 8.57z"/><path d="M.65 49.75c.06 2.25 3.72 5.48 5.78 6.74s9.25 4.76 12.18 4.51a30.51 30.51 0 006.11-1.3s.94.14.94 3.29c0 2.87-3.58 3.73-5.86 3.75-1.43 0-6.69-.68-13.52-5.1S0 53.26 0 52a5.57 5.57 0 01.65-2.25z" fill="#54695e"/><path d="M45.83 26.89a120.51 120.51 0 00-10 14.49c-2 .68-6.14-.64-10.06-2.59-.58-.28-1.16-.59-1.72-.9s-1.23-.7-1.81-1.06a33.12 33.12 0 01-2.9-2c-.3-.24-.59-.47-.85-.71a11 11 0 01-1.37-1.37c-.61-.74-.89-1.39-.74-1.88a72.78 72.78 0 019.38-13.8c0 1 1.38 2.24 3.55 3.58.59.37 1.25.74 1.94 1.11a51.093 51.093 0 004.41 2.07c.95.39 2.07.84 3.11 1.21.63.22 1.25.42 1.86.62a32.38 32.38 0 005.2 1.23z" fill="#47cded"/><path d="M35.66 23.84c-3.1 2.73-6.15 5.6-9.12 8.61-1.45 1.47-2.88 2.92-4.3 4.38a33.12 33.12 0 01-2.9-2c3.31-3 6.67-6.06 10-9.13 1.16-1.06 2.35-2.1 3.56-3.1.89.4 1.81.85 2.76 1.24zm-4.41-2.07C27 25.85 22.73 30 18.49 34.13a11 11 0 01-1.37-1.37q2.31-2.57 4.8-5c2.4-2.42 4.87-4.78 7.39-7.05.59.29 1.25.69 1.94 1.06zm9.38 3.89C35.5 30 30.6 34.39 25.77 38.78c-.58-.28-1.16-.59-1.72-.9 4.5-3.7 9-7.46 13.39-11.65.43-.42.88-.82 1.33-1.19.63.23 1.23.43 1.86.62z" style="mix-blend-mode:soft-light" fill="#c9fffb" opacity=".3"/><path class="cls-9" d="M43.43 54.66a.32.32 0 01-.21-.06 2.84 2.84 0 01-.4-.49 3.81 3.81 0 00-4.57-1.67 1.11 1.11 0 01-.94-.2 1.13 1.13 0 01-.44-.87l-.15-8.31a2.92 2.92 0 01.28-1.39C39.92 35.9 46.52 27.31 48.41 26a41.45 41.45 0 015.68-3.5h.07l.07.06c.63.64.77 23.18.16 25.94-.13.61-8.19 5.32-10.38 6.07a1.92 1.92 0 01-.58.09zm-.05-.25s.08 0 .45-.08c2.28-.72 10.06-5.41 10.33-5.93.64-2.92.33-24.26-.09-25.65a47.61 47.61 0 00-5.51 3.43c-1.67 1.18-8.24 9.5-11.32 15.6a2.68 2.68 0 00-.24 1.27l.15 8.31a.88.88 0 00.34.68.86.86 0 00.73.16A4.07 4.07 0 0143 54a2.82 2.82 0 00.36.44z"/><path d="M48.54 26.69c1-.7 4.82-2.72 5.11-2.86s.17 8 .24 10.46a2.7 2.7 0 01-.83 1.71l-13.78 6.27c-.77 0-1.47-.74-1.15-1.2 2.26-3.34 8.51-13.07 10.41-14.38z" fill="#23293b"/><path d="M38.84 41.71a.43.43 0 01-.19-.14.21.21 0 010-.25c2.82-3.79 8.43-13 10.11-14.18.8-.56 3.23-1.85 4.49-2.52 0 1.54 0 5.4.16 9.76a2.06 2.06 0 01-.6 1.3l-13.87 6.06z" fill="#2ea9c7"/><path class="cls-9" d="M73.23 15.16l-17.95 9.68-.23-2.18 18.01-9.87.17 2.37zm-4.76 6.29L55.4 28.4l-.04-2.19 13.13-6.95-.02 2.19zm-5.06 6.41l-8.02 4.31.02-2.34 8.01-4.15-.01 2.18z"/></g></g></g></svg>