<svg xmlns="http://www.w3.org/2000/svg" xmlns:xlink="http://www.w3.org/1999/xlink" viewBox="0 0 136.12 98.99"><defs><linearGradient id="Ѕезым_нный_градиент_27" x1="62.18" y1="64.67" x2="65.42" y2="59.91" gradientTransform="matrix(-1 0 0 1 178.01 0)" gradientUnits="userSpaceOnUse"><stop offset=".03" stop-color="#afc2de"/><stop offset=".54" stop-color="#b2c5e0"/><stop offset=".88" stop-color="#bbcde8"/><stop offset=".96" stop-color="#bed0eb"/></linearGradient><linearGradient id="linear-gradient" x1="28.95" y1="78.7" x2="28.12" y2="77.25" gradientUnits="userSpaceOnUse"><stop offset=".62" stop-color="#ff624d"/><stop offset="1" stop-color="#ff8d7d"/></linearGradient><linearGradient id="linear-gradient-2" x1="50.02" y1="90.93" x2="49.19" y2="89.48" xlink:href="#linear-gradient"/><linearGradient id="linear-gradient-3" x1="21.54" y1="39.23" x2="22.11" y2="39.23" gradientUnits="userSpaceOnUse"><stop offset="0" stop-color="#99a8ba"/><stop offset=".17" stop-color="#9dadbf"/><stop offset=".39" stop-color="#aabbcf"/><stop offset=".55" stop-color="#b8cbe0"/></linearGradient><linearGradient id="linear-gradient-4" x1="21.54" y1="50.94" x2="22.11" y2="50.94" xlink:href="#linear-gradient-3"/><linearGradient id="linear-gradient-5" x1="21.54" y1="62.72" x2="22.11" y2="62.72" xlink:href="#linear-gradient-3"/><style>.cls-1{isolation:isolate}.cls-17{fill:#e4ecf5}.cls-3{fill:#15202e}.cls-4{fill:#0c121a}.cls-5{fill:#dde8ff}.cls-6{fill:#798dab}.cls-8{fill:#ff624d}.cls-9{fill:#ba3e2f}.cls-10{fill:#de4d3a}.cls-11{fill:#25303b}.cls-13{fill:#b8cbe0}.cls-15{fill:#3a4a5d}.cls-18{fill:#1a2129}.cls-25{fill:#45596e}.cls-26{fill:#ff8d7d}.cls-28{fill:#ff4b33}.cls-30{fill:#8096b0}.cls-31{fill:#768ba3}.cls-32{fill:#e3eefc}.cls-33{fill:#bed3eb}.cls-34{fill:#91aac7}.cls-35{fill:#dfe8f0}.cls-38{fill:#fdbf00}.cls-39{fill:#de6f00}.cls-40{fill:#a3b7cf}</style></defs><g class="cls-1"><g id="Слой_2" data-name="Слой 2"><g id="_лой_1" data-name="—лой_1"><g id="truck_behind" data-name="truck behind"><path d="M1.12 71.8L38.8 93.36l18.53 3.28 8.57-1.69 7.1-4.11-1-2.61 29.22-16.8 9-1.95 5.91-3.4.1-3.29 9.48-5.45a.9.9 0 000-1.56L73.86 26.13 1.11 68a2.22 2.22 0 00.01 3.8z" style="mix-blend-mode:multiply" fill="#e4ecf5"/><g class="cls-1"><path class="cls-3" d="M109.57 54c1.58-.91 3-1 4-.4l4 2.29c-1-.6-9.07 13.25-8 13.85l-4-2.29a4 4 0 01-1.66-3.64 12.48 12.48 0 015.66-9.81z"/><path class="cls-4" d="M113.53 56.32c3.14-1.81 5.69-.36 5.7 3.25a12.49 12.49 0 01-5.67 9.81c-3.14 1.81-5.69.35-5.7-3.25a12.48 12.48 0 015.67-9.81z"/></g><path class="cls-5" d="M113.94 67.14a8.23 8.23 0 003.72-6.44c0-2.37-1.67-3.33-3.72-2.15a8.23 8.23 0 00-3.72 6.45c0 2.37 1.67 3.33 3.72 2.14z"/><path class="cls-6" d="M114.16 67.3a8.23 8.23 0 003.72-6.44c0-2.37-1.67-3.33-3.72-2.15a8.23 8.23 0 00-3.72 6.44c0 2.37 1.67 3.34 3.72 2.15z"/><path class="cls-5" d="M111.09 65.07a2.86 2.86 0 00.54 1.77c.36.48 1.69.41 1.69.41 4.46-1.82 4.72-4.55 4.22-7a2.9 2.9 0 00-.81-1.12 2.32 2.32 0 00-2.35.21 7.26 7.26 0 00-3.29 5.73zm1.54-.74a3.84 3.84 0 011.74-3c1-.55 1.74-.1 1.74 1a3.84 3.84 0 01-1.74 3c-.96.56-1.74.11-1.74-1z"/><path d="M112.13 65.22c0 1.86 1.31 2.62 2.93 1.69a6.48 6.48 0 002.94-5.07c0-1.86-1.31-2.62-2.93-1.69a6.48 6.48 0 00-2.94 5.07zm1.38-.66a3.43 3.43 0 011.55-2.69c.86-.49 1.55-.09 1.55.9a3.43 3.43 0 01-1.55 2.69c-.86.49-1.56.09-1.56-.9z" fill="url(#Ѕезым_нный_градиент_27)"/><path class="cls-5" d="M114.75 61.33c0 .2.14.28.31.18a.68.68 0 00.31-.53c0-.2-.14-.28-.31-.18a.68.68 0 00-.31.53zm-1.22 1.39c.1.1.29 0 .43-.17s.17-.43.07-.53-.29 0-.43.17-.17.43-.07.53zm-.64 1.75a.62.62 0 00.39-.45c.05-.22 0-.37-.2-.33a.62.62 0 00-.39.45c-.05.22.04.37.2.33zm.19 1.44a.62.62 0 00.2-.56c-.05-.16-.23-.16-.39 0a.62.62 0 00-.2.56c.06.16.23.16.39 0zm.92.59c.1-.22.07-.42-.07-.46s-.33.11-.43.33-.07.42.07.46.35-.12.43-.33zm2.58-1.89c-.1-.1-.29 0-.43.17s-.17.43-.07.53.29 0 .43-.17.17-.43.07-.53zm.63-1.76a.62.62 0 00-.39.45c-.05.22 0 .37.2.33a.62.62 0 00.39-.45c.05-.18-.03-.36-.2-.33zm-.21-1.44a.62.62 0 00-.2.56c.05.16.23.16.39 0a.62.62 0 00.2-.56c-.03-.15-.2-.15-.39 0zm-.92-.58c-.1.22-.07.42.07.46s.33-.11.43-.33.07-.42-.07-.46-.33.12-.43.33zm-.72 5.17c0-.2-.14-.28-.31-.18a.68.68 0 00-.31.53c0 .2.14.28.31.18a.68.68 0 00.31-.53z"/><path class="cls-8" d="M128.81 21.36l-19.9 9.27-33-19 13.9-8a8.23 8.23 0 018.26 0z"/><path class="cls-9" d="M109.03 57.66L75.94 38.64V11.67l32.97 18.95.12 27.04z"/><path class="cls-10" d="M130.79 38.87v13.59l-.28.16-10.66 6.12c-.3.17-.48.09-.46-.22 0-.09-.15-1.36-.16-1.44-.16-3.47-2.57-4.52-6.09-2.49-.2.12-.41.24-.61.38l-.23.15a14.66 14.66 0 00-2.26 2c-.4.43-1.13.92-1.13.14V30.62s8-4.29 14.52-7.91c3.69-2.05 5.85-2.86 6.63 1.2a32.67 32.67 0 01.56 5.81c.11 5.68.17 9.15.17 9.15z"/><path class="cls-10" d="M109.7 59.28l-.11-.62a11.59 11.59 0 013.41-3.49c2.06-1.21 3.63-1.68 5-.74s1.35 4.23 1.35 4.23-1-3.09-2.91-3.28c-2.16-.23-6.74 3.9-6.74 3.9z"/><path class="cls-8" d="M109.59 58.66l-1.62-.6s2.92-2.13 5-3.34 3.63-1.68 5-.74 1.41 4.42 1.41 4.42-.89-3.53-2.75-3.72c-2.23-.24-7.04 3.98-7.04 3.98z"/><path class="cls-10" d="M130.76 48.36l-3 1.66.38 4 3.15-1.75A1.57 1.57 0 00132 51v-3.53z"/><path class="cls-8" d="M131.66 46.87l-.87-.5V48L122 53.25l9.69-5.18a.69.69 0 00-.03-1.2z"/><path class="cls-11" d="M114.42 41.79c-.32 0-1.36-.13-1.36-1.82v-7.11a5 5 0 012.33-4.06c1.78-1 10.56-5.65 11.24-5.86a1.42 1.42 0 01.42-.06 2 2 0 011.74 1.56l.08.36a27.9 27.9 0 01.5 3.71 43 43 0 01.15 8 2.79 2.79 0 01-1.42 2.18l-13.21 3.09a1.72 1.72 0 01-.47.01z"/><path class="cls-8" d="M129.51 36.46a2.79 2.79 0 01-1.42 2.18l-13.21 3.09a1.72 1.72 0 01-.47.07c-.32 0-1.36-.13-1.36-1.82v1c0 1.69 1 1.82 1.36 1.82a1.72 1.72 0 00.47-.07l13.22-3.13a2.79 2.79 0 001.42-2.18c0-.09 0-1.03-.01-.96z"/><path d="M129 36.41a2.42 2.42 0 01-1 1.75l-13.19 3.07c-.77.23-1.22-.23-1.22-1.26v-7.11A4 4 0 01114 31a4.49 4.49 0 01.32-.56 4.44 4.44 0 011.32-1.26s10.45-5.6 11.12-5.8a1 1 0 01.28 0 1.09 1.09 0 01.8.4 1.9 1.9 0 01.45.76 25 25 0 01.56 4 42.76 42.76 0 01.15 7.87z" fill="#8ba8c7"/><path class="cls-13" d="M127.92 34.78a1.86 1.86 0 01-2.87 1.58l-10.72-5.88a4.44 4.44 0 011.32-1.26s10.45-5.6 11.12-5.8a1 1 0 01.28 0 .69.69 0 01.55.27 40.87 40.87 0 01.48 5.16c.05 3.15-.16 5.93-.16 5.93z"/><path d="M128.86 28.55a25.35 25.35 0 00-.56-4c-.07-.32-.56-1.17-1.27-1.16a1.87 1.87 0 01.44.76 25.12 25.12 0 01.57 4 42.91 42.91 0 01.15 7.86 2.41 2.41 0 01-1.06 1.75l-13.19 3.08h-.21a.81.81 0 001 .36L128 38.16a2.4 2.4 0 001-1.75 42.93 42.93 0 00-.14-7.86z" fill="#5c7a99"/><path class="cls-15" d="M117 49.69l-1.79 1c-.23.13-.42.05-.42-.18v-.91a.87.87 0 01.42-.66l1.79-1c.23-.13.42-.05.42.18V49a.87.87 0 01-.42.69z"/><path d="M116.84 49.63l-1.52.88c-.2.11-.36 0-.36-.15v-.77a.74.74 0 01.36-.56l1.52-.88c.2-.11.36 0 .36.15v.77a.74.74 0 01-.36.56z" fill="#12171c"/><path class="cls-11" d="M116.84 48.15h-.07v.74a.74.74 0 01-.36.56l-1.45.84c0 .23.16.29.36.18l1.52-.88a.74.74 0 00.36-.56v-.73c-.01-.19-.2-.3-.36-.15z"/><path class="cls-15" d="M116.51 48.57a.32.32 0 01-.16.28l-.8.46a.17.17 0 01-.26-.15V49l1.22-.71z"/><path class="cls-9" d="M130.77 52.53l-.27.15-.05-4-.35-.2a.17.17 0 01-.06-.11L130 29.5c0-2-.63-5.82-1.41-6.53a2 2 0 00-2.1-.32l-11.58 5.95a4.82 4.82 0 00-2.61 4.4l.22 22 1.21.6s.07.07 0 .34v.38l-.22.12v-.65l-1.21-.6a.11.11 0 010-.08L112.05 33a5.06 5.06 0 012.75-4.6l11.53-6a2.21 2.21 0 012.37.35c.86.78 1.52 4.62 1.5 6.72l.09 18.84.34.2a.12.12 0 01.07.1z"/><path class="cls-17" d="M130.64 48.11l.55-.37s0-5.81-.16-6.23a4.44 4.44 0 00-.39-.88z"/><path class="cls-18" d="M132.31 38.4a1.89 1.89 0 01-.95-.26l-.88-.56a.38.38 0 01.41-.63l.86.55a1.14 1.14 0 001.7-1v-5.3a.38.38 0 01.75 0v5.3a1.9 1.9 0 01-1.89 1.89z"/><g class="cls-1"><path class="cls-15" d="M135.58 27.92l-2.05-1.19a.38.38 0 00-.39 0l-.72.42a.38.38 0 01.39 0l2.05 1.19a1.19 1.19 0 01.54.93v5.47a.38.38 0 01-.16.35l.72-.42a.38.38 0 00.16-.35v-5.47a1.19 1.19 0 00-.54-.93z"/><path class="cls-11" d="M134.86 28.34l-2.05-1.19c-.3-.17-.54 0-.54.31v5.47a1.19 1.19 0 00.54.93l2.05 1.19c.3.17.54 0 .54-.31v-5.47a1.19 1.19 0 00-.54-.93z"/><path class="cls-17" d="M134.72 28.54l-1.77-1c-.26-.15-.47 0-.47.27v5.1a1 1 0 00.46.8l1.77 1c.26.15.47 0 .47-.27v-5.1a1 1 0 00-.46-.8z"/></g><path class="cls-18" d="M130.64 38.43a.38.38 0 01-.37-.37v-1.79a.38.38 0 01.75 0v1.79a.38.38 0 01-.38.37z"/><g class="cls-1"><path class="cls-8" d="M98.13 3.53L126 19.67c-1.1-.64-7.84-1.25-17.16 2.4L81.71 6.31C93.19 1.79 97 2.89 98.13 3.53z"/><path class="cls-10" d="M121.21 16.79L123.1 18c-1.1-.64-6.83-1.65-18.31 2.86L81.08 7.42c11.48-4.51 39.03 8.73 40.13 9.37z"/><path class="cls-8" d="M100 4.48l21.72 12.66c-1.1-.64-5.94-3.86-17.42.65L80.63 4.71c12.2-4.94 18.31-.87 19.37-.23z"/><path class="cls-9" d="M108.84 29.27L81.73 13.52l-.02-7.21 27.11 15.75.02 7.21z"/><path class="cls-10" d="M108.82 22.06c14.06-5.53 17.68-2.12 17.81-2-.09-.21-7.09 2.63-12.3 5.59a64.72 64.72 0 00-5.49 3.58z"/></g><g class="cls-1"><path class="cls-3" d="M65.51 79.74c1.58-.91 3-1 4-.4l4 2.29c-1-.6-9.07 13.25-8 13.85l-4-2.29a4 4 0 01-1.66-3.64 12.48 12.48 0 015.66-9.81z"/><path class="cls-4" d="M69.47 82c3.14-1.81 5.69-.36 5.7 3.25a12.49 12.49 0 01-5.67 9.81c-3.14 1.81-5.69.35-5.7-3.25A12.48 12.48 0 0169.47 82z"/></g><path class="cls-5" d="M69.88 92.86a8.23 8.23 0 003.72-6.44c0-2.37-1.67-3.33-3.72-2.15a8.23 8.23 0 00-3.72 6.44c0 2.37 1.67 3.29 3.72 2.15z"/><path class="cls-6" d="M70.1 93a8.23 8.23 0 003.72-6.44c0-2.37-1.67-3.33-3.72-2.15a8.23 8.23 0 00-3.72 6.44c0 2.39 1.67 3.35 3.72 2.15z"/><path d="M68.62 92.81a2.83 2.83 0 001.38-.43 7.12 7.12 0 003.22-5.57c0-1.34-.63-2.17-1.64-2.17a2.83 2.83 0 00-1.38.43 7.12 7.12 0 00-3.2 5.57c0 1.36.61 2.17 1.62 2.17z" fill="#bed0eb"/><path class="cls-5" d="M67.36 92.06a2.83 2.83 0 001.38-.43A7.12 7.12 0 0072 86.07a2.76 2.76 0 00-.34-1.42c1 0 1.6.84 1.6 2.16A7.12 7.12 0 0170 92.38a2.83 2.83 0 01-1.38.42 1.45 1.45 0 01-1.3-.75z"/><g class="cls-1"><path fill="#475f77" d="M73.13 81.04l-6.12-3.56 3.79-.14 6.12 3.56-3.79.14z"/><path fill="#4f6984" d="M67.63 84.22l-6.12-3.56 5.5-3.18 6.12 3.56-5.5 3.18z"/><path fill="#4b647d" d="M63.84 88.45l-6.12-3.55 3.79-4.24 6.12 3.56-3.79 4.23z"/><path fill="#314152" d="M63.85 89.08l-6.12-3.56-.01-.62 6.12 3.55.01.63z"/><path fill="#475e76" d="M73.13 81.04l3.79-.14v.62l-3.79.14-5.5 3.18-3.78 4.24-.01-.63 3.79-4.23 5.5-3.18z"/></g><path class="cls-15" d="M91.61 76.01l11.03-6.37v-7.65l-11.03 6.38v7.64z"/><path class="cls-25" d="M102.64 61.99l-11.03 6.38-6.28-3.63 11.04-6.37 6.27 3.62z"/><path class="cls-11" d="M91.61 76.01v-7.64l-6.28-3.63v7.65l6.28 3.62zm10.36-12.17l-9.35 5.39v.45l9.35-5.4v-.44zm0 2.24l-9.35 5.4v.45l9.35-5.4v-.45zm0 2.25l-9.35 5.39v.45l9.35-5.4v-.44z"/><g class="cls-1"><path class="cls-15" d="M51.58 89.8l1.08-.62-.01 2.18-1.08.63.01-2.19z"/><path class="cls-25" d="M23.55 73.64l1.08-.63 28.03 16.17-1.08.62-28.03-16.16z"/><path class="cls-11" d="M51.58 89.8l-.01 2.19-28.03-16.16.01-2.19L51.58 89.8z"/></g><g class="cls-1"><path class="cls-26" d="M25.63 75.14a.34.34 0 00-.34 0l-.77.45a.34.34 0 01.34 0l3.07 1.77.77-.45z"/><path d="M28.7 76.91l-.77.45a1.06 1.06 0 01.48.84v.59a.34.34 0 01-.14.31l.77-.45a.34.34 0 00.14-.31v-.59a1.06 1.06 0 00-.48-.84z" fill="url(#linear-gradient)"/><path class="cls-28" d="M27.93 77.36l-3.07-1.77c-.27-.15-.48 0-.48.28v.59a1.06 1.06 0 00.48.84l3.07 1.77c.27.15.48 0 .48-.28v-.59a1.06 1.06 0 00-.48-.84z"/></g><g class="cls-1"><path class="cls-26" d="M46.7 87.37a.34.34 0 00-.34 0l-.77.45a.34.34 0 01.34 0L49 89.59l.77-.45z"/><path d="M49.77 89.14l-.77.45a1.06 1.06 0 01.48.84V91a.34.34 0 01-.14.31l.77-.45a.34.34 0 00.14-.31V90a1.06 1.06 0 00-.48-.86z" fill="url(#linear-gradient-2)"/><path class="cls-28" d="M49 89.59l-3.07-1.77c-.27-.15-.48 0-.48.28v.59a1.06 1.06 0 00.48.84L49 91.29c.27.15.48 0 .48-.28v-.59a1.06 1.06 0 00-.48-.83z"/></g><g class="cls-1"><path class="cls-30" d="M81.65 75.5l-.57-.33.02 6.68.57.33-.02-6.68z"/><path class="cls-31" d="M81.65 75.5l-.57-.33.01 2.23.57.33-.01-2.23z"/><path class="cls-32" d="M81.58 74.89l-.5.28.57.33.49-.29-.56-.32z"/><path class="cls-33" d="M82.14 75.21l-.49.29.02 6.68.49-.29-.02-6.68z"/><path class="cls-34" d="M82.14 75.21l-.49.29.01 2.23.49-.29-.01-2.23z"/></g><g class="cls-1"><path class="cls-30" d="M92.01 69.52l-.56-.33.02 6.68.56.33-.02-6.68z"/><path class="cls-31" d="M92.01 69.52l-.56-.33.01 2.27.56.32-.01-2.26z"/><path class="cls-32" d="M91.94 68.91l-.49.28.56.33.49-.29-.56-.32z"/><path class="cls-33" d="M92.5 69.23l-.49.29.02 6.68.49-.29-.02-6.68z"/><path class="cls-34" d="M92.5 69.23l-.49.29.01 2.26.5-.28-.02-2.27z"/></g><g class="cls-1"><path class="cls-30" d="M102.38 63.54l-.56-.33.02 6.68.56.33-.02-6.68z"/><path class="cls-31" d="M102.38 63.54l-.56-.33.01 2.19.56.32-.01-2.18z"/><path class="cls-32" d="M102.31 62.93l-.49.28.56.33.49-.28-.56-.33z"/><path class="cls-33" d="M102.87 63.26l-.49.28.02 6.68.49-.28-.02-6.68z"/><path class="cls-34" d="M102.87 63.26l-.49.28.01 2.18.49-.28-.01-2.18z"/></g><g class="cls-1"><path class="cls-30" d="M79.02 80.59l-.46-.26.01.84.45.26v-.84z"/><path class="cls-35" d="M79.02 80.59l-.46-.26 26.48-15.2.46.27-26.48 15.19z"/><path class="cls-33" d="M105.5 65.4L79.02 80.59v.84l26.48-15.19v-.84z"/></g><g class="cls-1"><path class="cls-30" d="M79.02 83.09l-.46-.27.01.85.45.26v-.84z"/><path class="cls-35" d="M79.02 83.09l-.46-.27 26.48-15.19.46.26-26.48 15.2z"/><path class="cls-33" d="M105.5 67.89l-26.48 15.2v.84l26.48-15.19v-.85z"/></g><path class="cls-13" d="M55.91 91.88L20.29 71.32V31.3l35.62 20.56v40.02z"/><path class="cls-30" d="M54.38 52.75v36.47L21.83 70.43V33.95l31.55 18.22 1 .58z"/><path fill="#cedef0" d="M109.99 60.58l-54.08 31.3V51.86l54.08-31.3v40.02z"/><path class="cls-32" d="M109.99 20.56l-54.08 31.3L20.29 31.3 74.37 0l35.62 20.56z"/><path fill="#a3bad4" d="M54.38 52.75v36.47L21.83 70.43l31.55-18.26 1 .58z"/><g class="cls-1"><path class="cls-38" d="M67.48 82.39l1.18-.68a.11.11 0 01.11 0l.4.23a.11.11 0 00-.11 0l-1.18.68a.36.36 0 00-.16.28v.47a.11.11 0 000 .1l-.4-.23a.11.11 0 010-.1v-.47a.36.36 0 01.16-.28z"/><path class="cls-39" d="M67.89 82.62l1.18-.68c.09-.05.16 0 .16.09v.47a.36.36 0 01-.16.28l-1.18.68c-.09.05-.16 0-.16-.09v-.47a.36.36 0 01.16-.28z"/></g><g class="cls-1"><path class="cls-38" d="M82.68 73.53l1.18-.68a.11.11 0 01.11 0l.4.23a.11.11 0 00-.11 0l-1.18.68a.36.36 0 00-.16.28v.47a.11.11 0 000 .1l-.4-.23a.11.11 0 010-.1v-.47a.36.36 0 01.16-.28z"/><path class="cls-39" d="M83.08 73.76l1.18-.68c.09-.05.16 0 .16.09v.47a.36.36 0 01-.16.28l-1.18.68c-.09.05-.16 0-.16-.09V74a.36.36 0 01.16-.24z"/></g><g class="cls-1"><path class="cls-38" d="M54.48 51.51l-1.18-.68a.11.11 0 00-.11 0l-.4.23a.11.11 0 01.11 0l1.18.68a.36.36 0 01.16.28v.47a.11.11 0 010 .1l.4-.23a.11.11 0 000-.1v-.47a.36.36 0 00-.16-.28z"/><path class="cls-39" d="M54.07 51.74l-1.18-.68c-.09-.05-.16 0-.16.09v.47a.36.36 0 00.16.28l1.18.68c.09.05.16 0 .16-.09V52a.36.36 0 00-.16-.26z"/></g><g class="cls-1"><path class="cls-38" d="M23 33.35l-1.18-.68a.11.11 0 00-.11 0l-.4.23a.11.11 0 01.11 0l1.18.68a.36.36 0 01.16.28v.47a.11.11 0 010 .1l.4-.23a.11.11 0 000-.1v-.47a.36.36 0 00-.16-.28z"/><path class="cls-39" d="M22.64 33.59l-1.18-.68c-.09-.05-.16 0-.16.09v.47a.36.36 0 00.16.28l1.18.68c.09.05.16 0 .16-.09v-.47a.36.36 0 00-.16-.28z"/></g><g class="cls-1"><path class="cls-38" d="M97.88 64.67l1.17-.67a.11.11 0 01.11 0l.4.23a.11.11 0 00-.11 0l-1.18.68a.36.36 0 00-.16.28v.47a.11.11 0 000 .1l-.4-.23a.11.11 0 010-.1v-.47a.36.36 0 01.17-.29z"/><path class="cls-39" d="M98.28 64.91l1.18-.68c.09-.05.16 0 .16.09v.47a.36.36 0 01-.16.28l-1.18.68c-.09.05-.16 0-.16-.09v-.47a.36.36 0 01.16-.28z"/></g><path class="cls-17" d="M21.83 33.94L5.55 24.55l-.81.51 16.27 9.39.82-.51z"/><path class="cls-40" d="M21.01 34.45v36.48l.82-.5V33.94l-.82.51z"/><path class="cls-30" d="M4.74 25.06v36.48l16.27 9.39V34.45L4.74 25.06z"/><path d="M22 38.42a.44.44 0 01-.4 0 .14.14 0 01-.08-.12V40a.14.14 0 00.09.12.44.44 0 00.4 0 .14.14 0 00.08-.11v-1.7a.14.14 0 01-.09.11z" fill="url(#linear-gradient-3)"/><path class="cls-17" d="M22 38.19a.44.44 0 00-.4 0c-.11.07-.11.17 0 .23a.44.44 0 00.4 0c.14-.06.14-.17 0-.23z"/><path d="M22 50.13a.44.44 0 01-.4 0 .14.14 0 01-.09-.12v1.68a.14.14 0 00.08.12.44.44 0 00.4 0 .14.14 0 00.08-.11V50a.14.14 0 01-.07.13z" fill="url(#linear-gradient-4)"/><path class="cls-17" d="M22 49.9a.44.44 0 00-.4 0c-.11.07-.11.17 0 .23a.44.44 0 00.4 0c.14-.07.14-.13 0-.23z"/><path d="M22 61.92a.44.44 0 01-.4 0 .14.14 0 01-.08-.12v1.68a.14.14 0 00.09.12.44.44 0 00.4 0 .14.14 0 00.08-.11V61.8a.14.14 0 01-.09.12z" fill="url(#linear-gradient-5)"/><path class="cls-17" d="M22 61.68a.44.44 0 00-.4 0c-.11.07-.11.17 0 .23a.44.44 0 00.4 0c.14-.06.14-.16 0-.23zm48.65.32l-16.28-9.4-.81.51 16.27 9.4.82-.51z"/><path class="cls-40" d="M69.83 62.51v36.48l.82-.51V62l-.82.51z"/><path class="cls-30" d="M53.56 53.11v36.48l16.27 9.4V62.51l-16.27-9.4z"/></g></g></g></g></svg>