<svg xmlns="http://www.w3.org/2000/svg" viewBox="0 0 20.93 44.6"><defs><linearGradient id="linear-gradient" x1="-424.97" y1="116.81" x2="-424.97" y2="113.49" gradientTransform="rotate(5.13 999.786 4889.798)" gradientUnits="userSpaceOnUse"><stop offset=".13" stop-color="#fcd1a9"/><stop offset=".56" stop-color="#f2b98c"/></linearGradient><linearGradient id="linear-gradient-2" x1="-447.3" y1="133.84" x2="-446.75" y2="127.83" gradientTransform="rotate(5.77 1038.521 4596.475)" gradientUnits="userSpaceOnUse"><stop offset="0" stop-color="#f2b98c"/><stop offset=".41" stop-color="#f7c69b"/><stop offset=".91" stop-color="#fcd1a9"/></linearGradient><style>.cls-1{isolation:isolate}.cls-2{fill:#e4ecf5;mix-blend-mode:multiply}.cls-3{fill:#f5c59a}.cls-5{fill:#0d0d0d}.cls-6{fill:#151b21}.cls-7{fill:#fcd1a9}.cls-8{fill:#25303b}.cls-9{fill:#3a4a5d}.cls-15{fill:#de4d3a}</style></defs><g class="cls-1"><g id="Слой_2" data-name="Слой 2"><g id="_лой_1" data-name="—лой_1"><g id="male_back_with_tablet" data-name="male back with tablet"><path class="cls-2" d="M15.56 37.88c-1 1.5-3.8 2.33-6.34 2.9-3.57.81.78 1.22-1.32 2.85-1.53 1.22-5.09 1.21-6 .38-.7-.67 1.1-4.34 3.87-4.59 2.6-.23 3.85-2.91 5.27-3.34 1.96-.6 6.19-.71 4.52 1.8z"/><path class="cls-3" d="M5.09 6c-1-.4-1.62.61-1.87 1a67.48 67.48 0 00-3.14 6 1.24 1.24 0 00-.06.38c-.1 2 .23 6.76.23 6.76a5.51 5.51 0 00-.06 2.1c0 .13.15.12.2.23s.06.38.14.47.17.06.24.06.07.1.1.11a.52.52 0 00.27 0s.11-.11.15-.13.17 0 .23-.19a1.83 1.83 0 00.17-.53c0-.25.05-.71.07-1.05a.84.84 0 01.07.19 2.12 2.12 0 000 .33.32.32 0 00.17.22c.08 0 .22.05.19-.09a6.21 6.21 0 010-.74 2 2 0 00-.59-.83l.86-6.56S5.19 9.4 5.74 8.11A1.52 1.52 0 005.09 6z"/><path d="M4.79 10.09a22.37 22.37 0 001-2c.24-.55.48-1.79-.63-2.23s-1.82.68-2.06 1.06-.66 1.23-1 1.78a3.65 3.65 0 00.93.78c1.38.69 1.76.61 1.76.61z" fill="#ba3e2f"/><path class="cls-3" d="M9.9 38.42a1.43 1.43 0 00.92.15c.55-.1.68-.23 1-.26a12.85 12.85 0 001.42-.31c.34-.08.84-.19 1-.63s-.28-.51-.68-.59a7.81 7.81 0 01-1.05-.1 4.53 4.53 0 01-.63-.13c-.14 0 0-.56 0-.56-.82-.81-1.63-.49-1.68-.08-.2.98-1.12 1.97-.3 2.51z"/><path class="cls-5" d="M9.94 38.79a1.43 1.43 0 00.92.1c.54-.13.67-.27 1-.32s1.33-.23 1.55-.3a1.45 1.45 0 00.89-.8c.29-.69-.18-.78-.58-.84a5.27 5.27 0 00-1 .09 2 2 0 01-.89-.14c-.16 0-.36.66-.36.66-.15.35-.92.54-1.18.22s-.4-.58-.5-.31c-.19.68-.46 1.29.15 1.64z"/><path class="cls-6" d="M14.34 36.77c-.1-.24-.38-.23-.67-.23a6.83 6.83 0 01-.85 0 5.88 5.88 0 01-.87-.16c-.16 0-.35.58-.35.58a.44.44 0 01-.1.13.79.79 0 01-.24.15 1.09 1.09 0 01-.29.08.9.9 0 01-.31 0 .49.49 0 01-.25-.14c-.17-.21-.4-.58-.5-.31l-.14.37a3.46 3.46 0 00-.1.35v.34a1.53 1.53 0 00.36.22 1.25 1.25 0 00.87.14c.12 0 .24.26.33.23a3.74 3.74 0 01.72-.23c.2 0 .31 0 .5-.07l.24-.05c.43-.11.52-.48.59-.49a1.58 1.58 0 00.8-.38.65.65 0 00.26-.43z"/><path class="cls-7" d="M3 43.78a1.43 1.43 0 00.91.21c.55-.06.69-.19 1-.2s1.34-.08 1.57-.12a1.13 1.13 0 00.83-.51.85.85 0 00-.42-1.26c-.23-.06-.56.15-.88.15s-.6.18-.93.05c-.14-.06.06-.56.06-.56-.77-.86-1.69-.57-1.77-.16-.17 1.11-1.17 1.81-.37 2.4z"/><path class="cls-5" d="M2.87 44a1.43 1.43 0 00.91.21c.55-.06.69-.19 1-.2s1.39-.01 1.62-.07a1.45 1.45 0 001-.69c.37-.66-.18-1-.57-1.08-.23-.06-.56.15-.88.15a2 2 0 01-.86-.24c-.15-.06-.44.61-.44.61-.19.33-1 .43-1.2.09s-.33-.62-.46-.36c-.34.63-.69 1.2-.12 1.58z"/><path class="cls-6" d="M7.47 42.55a.82.82 0 00-.55-.65c-.23-.06-.56.15-.88.15a2 2 0 01-.86-.24c-.15-.06-.44.61-.44.61a.44.44 0 01-.11.12.79.79 0 01-.25.13 1.09 1.09 0 01-.3 0 .9.9 0 01-.31 0 .49.49 0 01-.23-.17 2 2 0 00-.29-.42h-.06s-.07 0-.1.08a6.73 6.73 0 00-.32.69c-.13.36-.06.34.29.6a1.25 1.25 0 00.84.24c.12 0 .21.28.3.27a3.76 3.76 0 01.74-.15 5.05 5.05 0 00.75 0c.44-.05.57-.42.64-.42a1.55 1.55 0 00.55-.14 1.85 1.85 0 00.3-.25.93.93 0 00.22-.21.35.35 0 00.09-.19.76.76 0 00-.02-.05z"/><path class="cls-8" d="M12.87 27.27a1.48 1.48 0 000-.26A3.8 3.8 0 0012 25l-5.55-5.91a18.21 18.21 0 00-2 1.25 2.43 2.43 0 00-.61 2.82 17.12 17.12 0 001.79 1.5l4.16 2.81a4.75 4.75 0 00-.39 1.31c0 1.63.59 4.91.35 7-.13 1.14-.06 1.56.38 1.69 1 .28 2.72-.43 2.64-.87a27 27 0 01-.17-7.72c.14-.51.23-1.22.27-1.61z"/><path class="cls-9" d="M9.8 21.72a6.16 6.16 0 00-4.5 1.12s.07 6.58.07 8.85a11.12 11.12 0 00-.74 1.74C4.22 35 3.28 40.35 2.87 42c-.13.51-.38.9 1.07 1 .45 0 1.84-.48 1.91-.92a53.38 53.38 0 011.81-8c.26-.78.63-2.26.63-2.26a3.38 3.38 0 00.12-.42s1.11-3.95 1.51-5.58c.21-.86.43-3.48.43-3.48s-.06-.56-.55-.62z"/><path class="cls-8" d="M6.66 19.42l-3-.74s-.38 1.45-.42 1.65a4 4 0 00.28 2.29c.46.81.92 1.14 1.71.44a6.73 6.73 0 011.43-3.64z"/><path class="cls-9" d="M10.54 21.28a3.23 3.23 0 000-.68l-4.7-1.29c-.64 1.89-1 3.64-.31 4.39a3.59 3.59 0 001.88.91c.7 0 1.33-.37 2.52-1.52a2 2 0 00.42-.59c.01-.13.14-.78.19-1.22z"/><path d="M11.34 13a55 55 0 00-.8 8.32 2.3 2.3 0 01-1.33.94 9.31 9.31 0 01-3.79-.29 4.21 4.21 0 01-1.63-.85 1.3 1.3 0 01-.5-1.2A27.81 27.81 0 003.64 15c0-.31-.53-3.54-.6-4.39a10.55 10.55 0 01.26-3.48 2 2 0 011.9-1.29 5.38 5.38 0 01.53.24c.74.39 2.18 1.16 2.72 1.55.14.1.35.27.58.47.57.49 2.19 2 2.19 2 .4.45.26 1 .26 2 0 .01-.03-.02-.14.9z" fill="#ff624d"/><g class="cls-1"><path class="cls-8" d="M20.8 6.26l-4-2.3a.17.17 0 00-.1 0h-.13a.17.17 0 01.1 0l4 2.3a.32.32 0 01.12.36l-2.2 7.07a.21.21 0 01-.17.16h.13a.21.21 0 00.17-.16l2.2-7.07a.32.32 0 00-.12-.36z"/><path class="cls-9" d="M20.67 6.27l-4-2.3a.19.19 0 00-.27.14l-2.2 7.07a.32.32 0 00.12.36l4 2.3a.19.19 0 00.27-.14l2.2-7.07a.32.32 0 00-.12-.36z"/><path fill="#fff" d="M20.52 7.16l-2 6.34-4.16-2.39 2-6.34 4.16 2.39z"/><path d="M18.95 7.11l-.08.21-1.8-1.04.08-.2 1.8 1.03zm.8 1.11l-.08.21-3.53-2.02.08-.21 3.53 2.02zm-.17.56l-.08.2-3.53-2.02.08-.21 3.53 2.03zm-.17.54l-.08.21-3.52-2.02.08-.21 3.52 2.02zm-.16.56l-.08.2-3.53-2.02.08-.21 3.53 2.03zm-.17.55l-.08.2-3.53-2.02.08-.21 3.53 2.03zm-1.54-.24l-.08.21-2.16-1.24.08-.21 2.16 1.24zm1.03 1.88l-.07.21-1-.58.08-.21.99.58z" fill="#e4ecf5"/></g><path class="cls-2" d="M16.72 5h-.07c-.12 0-.12.21-.12.21L19.7 7s.18.11.19 0z"/><path d="M19.94 6.65a1.9 1.9 0 00-.68-.81.79.79 0 00-.38-1 .63.63 0 00-.88.24A2.38 2.38 0 0016.83 5c-.12 0-.12.21-.12.21L19.88 7a.53.53 0 00.06-.35zm-1.18-1.53c.21.11.33.25.3.32s-.22 0-.43-.07-.32-.24-.29-.31.22-.06.42.06z" fill="#b8cbe0"/><path d="M19.27 6.39a6.64 6.64 0 00-2.56-1.19L19.88 7z" fill="#87a7c7"/><path class="cls-7" d="M19.6 13c-.08.06-.11.28-.15.32s-.28.32-.27.22.24-.31.32-.46a2.4 2.4 0 00.23-.58c0-.18-.16-.29-.25-.16s-.16.4-.22.49-.34.45-.35.36.26-.31.33-.48a3.63 3.63 0 00.22-.71c0-.2-.19-.35-.3-.19s-.18.55-.28.67-.3.41-.34.38.26-.41.3-.52.16-.23.16-.34 0-.23-.18-.2-.28.3-.41.5a2.23 2.23 0 01-.74.63c0-.09-.07-.32 0-.4a2.36 2.36 0 00.22-.29A.34.34 0 0018 12c0-.1 0-.17-.16-.05a5.46 5.46 0 01-.56.42 2 2 0 00-.36 1.12.51.51 0 00-.18.05l-4.29 2.13c-.14-1-.4-2.89-.52-3.87-.21-1.65-1.3-1.89-1.72-1.8-1.07.23-1.13 1.7-1.08 2.16a18.94 18.94 0 001.23 5.15 2 2 0 01.08.19 1.76 1.76 0 002.11 1c1.31-.39 4.06-2.94 4.76-3.6a1.07 1.07 0 00.78-.05 3.3 3.3 0 001-.7 4.18 4.18 0 00.5-.54 2.36 2.36 0 00.15-.36.13.13 0 00-.14-.25z"/><path class="cls-15" d="M12.25 13.06c-.06-.53-.18-1.07-.23-1.43-.21-1.65-1.37-1.88-1.79-1.78-1.07.23-1.18 1.73-1.13 2.19s.06 1 .13 1.45a3.08 3.08 0 001.24 0 8.28 8.28 0 001.78-.43z"/><path d="M6.57 5.08l-.23 2.6a.61.61 0 00.31.53 1.93 1.93 0 001.74.16.61.61 0 00.4-.47L9 5.31z" fill="url(#linear-gradient)"/><path d="M10.76 3.52a3.18 3.18 0 000-2.24c-.54-.34-2.4 1.54-2.59 2.16a1.88 1.88 0 000 1.12c0 .15.47.71.6 1a2.6 2.6 0 01.11 1.05v.42A.48.48 0 009.3 7a5 5 0 00.89-1 4.21 4.21 0 00.64-1.63 8 8 0 00-.07-.85z" fill="url(#linear-gradient-2)"/><path d="M9.58 4.47a1.53 1.53 0 00.2.53c.1.15 0 .33.17.33.29 0 .21-.7.27-1s0-.65-.27-.49a.68.68 0 00-.37.63z" fill="#e8b07d"/><path class="cls-8" d="M10.82 1.13A2 2 0 0010 .4 2.79 2.79 0 007.44.25 5 5 0 006.06 1a3 3 0 00-.8 1.33 8 8 0 00-.15 1A3.84 3.84 0 005.3 4.7a3.18 3.18 0 00.44 1 3.85 3.85 0 00.38.46 1.83 1.83 0 001.14.72 1.56 1.56 0 001.64-.66 5.93 5.93 0 01.69-2 1 1 0 01.4-.41c.14-.07.2.07.24.18s.22.2.22.2l.11.06s.07-.72.07-.76a1.44 1.44 0 01.15-.88c.08-.18.16-.35.24-.55a1.54 1.54 0 00-.2-.93z"/><path class="cls-15" d="M9.25 8.31s-3 .82-3.26-.69a.77.77 0 01.44-.86 1.05 1.05 0 00.86.76 4 4 0 001.56-.07z"/></g></g></g></g></svg>