<svg xmlns="http://www.w3.org/2000/svg" viewBox="0 0 28.34 46.25"><defs><linearGradient id="linear-gradient" x1="-1171.25" y1="55.88" x2="-1173.86" y2="51.99" gradientTransform="rotate(.44 5733.302 155261.492)" gradientUnits="userSpaceOnUse"><stop offset=".07" stop-color="#fcd1a9"/><stop offset=".13" stop-color="#facba1"/><stop offset=".31" stop-color="#f4bb8c"/><stop offset=".43" stop-color="#f2b585"/></linearGradient><style>.cls-1{isolation:isolate}.cls-2{fill:#e4ecf5;mix-blend-mode:multiply}.cls-4{fill:#0d0d0d}.cls-5{fill:#151b21}.cls-6{fill:#fcd1a9}.cls-7{fill:#25303b}.cls-8{fill:#3a4a5d}.cls-13{fill:#ba3e2f}.cls-14{fill:#ff624d}.cls-15{fill:#de4d3a}.cls-18{fill:#ebad77}</style></defs><g class="cls-1"><g id="Слой_2" data-name="Слой 2"><g id="_лой_1" data-name="—лой_1"><g id="male_with_tablet" data-name="male with tablet"><path class="cls-2" d="M9.56 45.29c0 1.22 4.26.93 8.82.93s9.95-.61 9.95-1.83-6.12-.35-10.51-1.6c-7.82-2.24-8.26 1.28-8.26 2.5z"/><path d="M15.48 43.82c0 .48-.42.54-.66.61a8 8 0 00-1.46.4 6.35 6.35 0 01-1.71.83c-.66.22-1.18 0-1.14-.53s.6-.57 1-.85A10.83 10.83 0 0013 43.21a3.61 3.61 0 00.79-1.36c.44-.48 1.68-.37 1.66.3s.07 1.18.03 1.67z" fill="#f5c59a"/><path class="cls-4" d="M15.54 43.92c0 .31-.14.75-.41.82a11.4 11.4 0 00-1.75.35 6.58 6.58 0 01-1.79.73c-.68.21-1.2-.08-1.15-.57s.34-.44.7-.76 1.12-.66 1.56-1a5.82 5.82 0 00.46-.43c.33-.34.63 0 .87.29a1.23 1.23 0 001-.19c.17-.18.35-.31.39-.19a4.84 4.84 0 01.12.95z"/><path class="cls-5" d="M11.44 44.22a5.48 5.48 0 001.33-.94 6.36 6.36 0 00.38-.76c.21-.39.77.23.94.45a1.61 1.61 0 00.94-.34c.18-.16.43-.42.54-.21a5.12 5.12 0 010 1.43c-.07.51-.45.52-.7.58l-.21.05a10.32 10.32 0 00-1.26.34 8 8 0 01-1.77.7c-.63.14-1.18.13-1.12-.6-.01-.36.56-.46.93-.7z"/><path class="cls-6" d="M25.62 42.59c-.05.45-.23 1.05-.22 1.39s0 .16-.13.29c-.2.31-.3.64-.61.77s-.48.36-.82.14A1.11 1.11 0 0123.4 44a10.13 10.13 0 01.33-1.81 3.13 3.13 0 00.42-1.24c.36-.36 1.48-.27 1.46.28s.07.91.01 1.36z"/><path class="cls-4" d="M25.65 42.86v.93a2.24 2.24 0 01-.42 1.27c-.67.79-1.77.8-2.1.12-.15-.3.08-.84.23-1.24s.44-1.62.47-1.76c.34-1.29 1.73-1.65 1.9-.42a4.79 4.79 0 01-.08 1.1z"/><path class="cls-5" d="M23.1 44.44v-.08a2.38 2.38 0 01.12-.29 10.05 10.05 0 00.39-2.23c.19-.71.64-.91 1.39-.55 0 0 .45.21.55.28s.07-.21.1-.06a2.76 2.76 0 010 .67c0 .26-.07.73-.07 1a4.92 4.92 0 01-.23 1.19 1.77 1.77 0 01-.6.84 1.24 1.24 0 01-1.6-.16.79.79 0 01-.05-.61z"/><path class="cls-7" d="M20.7 22.6c-.56-.25-2.49-.92-2.82-1.06a10.46 10.46 0 00-2.45-.94 28.28 28.28 0 00-1.23 5c-.26 1.38-.69 4.12-.8 5.62a1.39 1.39 0 000 .33v.38a.87.87 0 000 .25c0 .34.05.77.09 1.32.08 1.21-.74 7.54-1.08 9.74 0 .32 1.18.3 2.44 0a1.14 1.14 0 001-.88 75.38 75.38 0 00.82-8.15 9 9 0 00-.32-2.3 8.23 8.23 0 00.46-.86c.95-1.94 2.88-6.05 3.89-8.45z"/><path class="cls-8" d="M25.76 40.75c-.88-2.39-.76-5.21-1.42-7.67a10.85 10.85 0 00-1.15-2.31c.19-1.62.11-6.39.21-8.32a1.48 1.48 0 00-1.47-.34 21.49 21.49 0 00-3.84 1c.34 1.32 2.12 8.25 2.36 8.64a13 13 0 00.62 1.64c.46 1.12 1.49 7.39 2.21 9.51.11.31 1.11 0 1.68-.5.38-.32 1.04-1.03.8-1.65z"/><path class="cls-6" d="M7.26 13.74a.91.91 0 01-.8.32 3.1 3.1 0 01-1.17-.18c-.06 0-.65-.28-.78-.34s-.26 0-.35-.14 0-.22.12-.21a1.92 1.92 0 01.34.1c.06 0 .38.19.33.1s-.33-.22-.47-.3-.48-.09-.57-.27 0-.29.18-.24.43.14.52.19.5.29.48.19-.34-.22-.5-.32a7.33 7.33 0 01-.68-.35c-.17-.14 0-.34.2-.26s.57.22.71.28.43.27.46.22-.39-.3-.48-.37-.32-.13-.36-.23-.07-.23.1-.25a1.15 1.15 0 01.59.19c.22.11.8.27 1 .36a2.41 2.41 0 011.13.91c.2.33.16.35 0 .6z"/><g class="cls-1"><path class="cls-7" d="M.13 8.72l4-2.3a.17.17 0 01.1 0h.13a.17.17 0 00-.1 0l-4 2.3a.32.32 0 00-.12.36l2.2 7.07a.21.21 0 00.17.16h-.12a.21.21 0 01-.17-.16L0 9.08a.32.32 0 01.13-.36z"/><path class="cls-8" d="M.26 8.73l4-2.3a.19.19 0 01.27.14l2.2 7.07a.32.32 0 01-.13.36l-4 2.3a.19.19 0 01-.27-.14L.14 9.09a.32.32 0 01.12-.36z"/><path fill="#fff" d="M.4 9.63l2 6.34 4.17-2.39-2-6.34L.4 9.63z"/><path d="M1.98 9.57l.08.21 1.8-1.03-.08-.21-1.8 1.03zm-.8 1.12l.08.21 3.53-2.02-.08-.21-3.53 2.02zm.17.55l.08.21 3.53-2.02-.08-.21-3.53 2.02zm.17.55l.08.21 3.52-2.02-.08-.21-3.52 2.02zm.16.55l.08.21 3.53-2.02-.08-.21-3.53 2.02zm.17.55l.08.21 3.53-2.02-.08-.21-3.53 2.02zm1.54-.23l.08.21 2.16-1.24-.08-.21-2.16 1.24zm-1.04 1.88l.09.21.99-.59-.08-.21-1 .59z" fill="#e4ecf5"/></g><path class="cls-2" d="M1 9.42c0 .11.19 0 .19 0L4.4 7.66s0-.19-.12-.21h-.07z"/><path d="M1 9.42l3.21-1.76s0-.18-.12-.21a2.38 2.38 0 00-1.17.13.63.63 0 00-.92-.24.79.79 0 00-.38 1 1.9 1.9 0 00-.62.78.53.53 0 000 .3zm1.59-1.91c0 .07-.09.2-.29.31s-.39.14-.43.07.09-.2.3-.32.38-.12.42-.06z" fill="#b8cbe0"/><path d="M1.66 8.86a6.64 6.64 0 012.55-1.2L1 9.42z" fill="#87a7c7"/><path class="cls-6" d="M6.57 13.21c-.11-.11-.31-.79-.46-.91s-.21-.12-.3-.21a.32.32 0 01-.13-.27c0-.11 0-.23.19-.13s.5.26.69.35a2.86 2.86 0 01.67.66c.18.56-.23.94-.66.51z"/><path class="cls-6" d="M15.05 15.29a24.52 24.52 0 002.08-6.8c.09-1.25-.67-1.45-1.45-1.4-.59 0-1.07.85-1.3 1.37a22.13 22.13 0 00-1.57 5c-1.58-.33-3.88-.39-5.56-.68-.35.19-.33.35-.43.72a1 1 0 00-.06.52c1.8.76 4.24 1.86 5.92 2.39a1.94 1.94 0 002.32-1.1z"/><path class="cls-13" d="M13.56 10.24c.21-.61.48-1.26.74-1.86s.79-1.33 1.38-1.38c.78-.05 1.62.22 1.53 1.47a13.13 13.13 0 01-.55 3 10.84 10.84 0 01-1.66-.52 4.4 4.4 0 01-1.44-.71z"/><path class="cls-7" d="M18.09 19.32l-2.36-.39a6.57 6.57 0 00-.12.71c0 .34-.17.72-.08 1 .27.84 1.2 1.32 1.7 2a1.08 1.08 0 00.79.5 13.18 13.18 0 01.07-3.82z"/><path class="cls-8" d="M23.28 21.18a4.91 4.91 0 00-.4-1.43l-5.31-.51c.21 1.26-.27 2.83.59 4 .22.29 1.74 0 2.31-.22a11.6 11.6 0 011.78-.46c.24 0 1.08.28 1.09.24a3.9 3.9 0 00-.06-1.62z"/><path class="cls-14" d="M23.41 21.59c0 .27-.74.49-1.16.63a11 11 0 01-4.16.09 3.83 3.83 0 01-2.59-1.19c-.51-.68 0-1.45.08-2.11a17.77 17.77 0 00-.09-3.37c0-.32-.17-1.56-.26-2.06a23.7 23.7 0 01-.37-2.71 12.45 12.45 0 01.06-2.66c.15-.8.38-1.31 1.24-1.34a13.33 13.33 0 014.35.57A16.91 16.91 0 0123.71 9c.94.58.39 1.12.31 2.12 0 .23-.14.52-.29 1.19-.59 2.69-.4 6.32-.32 9.28z"/><path class="cls-15" d="M15.74 12.72l.61.08a.4.4 0 00.43-.44l.13-1.44-1.59-.25v1.49a.55.55 0 00.42.56z"/><path d="M18.06 3.73C18.05 5 18 6.18 18 7.41c0 .25.13.39.38.53a2 2 0 001.78 0 .6.6 0 00.39-.52c.14-1.28.29-2.56.48-3.83z" fill="url(#linear-gradient)"/><path class="cls-13" d="M18.07 7.07a5.93 5.93 0 00.34.74c.07.08 0 .23-.07.49-.15-.94-1.12.09-1.12.09s-.1-1.14.29-1.47c.14-.13.56.15.56.15z"/><path class="cls-6" d="M22.22 3.33c-.36.71-1.34 1-1.77 1.48s-.36.85-.58 1.18a1.53 1.53 0 01-.53.54 4.5 4.5 0 01-1 .46 1.74 1.74 0 01-.78.09.84.84 0 01-.56-.26c-.11-.12 0 0-.12-.15a.75.75 0 01-.15-.33c0-.19-.13-.67-.17-.88a6.33 6.33 0 01-.05-1.27 8.88 8.88 0 01.18-1 8.88 8.88 0 01.2-1.56A1.63 1.63 0 0118 .59a5.24 5.24 0 012.15-.44 2.24 2.24 0 011.64.85 3 3 0 01.48 2 1.11 1.11 0 01-.05.33z"/><path class="cls-13" d="M18.12 9.98l.56.12.34-2.02-.63-.14-.27 2.04z"/><circle class="cls-15" cx="18.51" cy="9.32" r=".1"/><circle class="cls-15" cx="18.67" cy="8.49" r=".1"/><path class="cls-13" d="M20.63 6.76a6.46 6.46 0 01-1.5 1.17c-.2.1-.21.76-.21.76s.38-.62.51-.53a1.44 1.44 0 01.7.83c0 .18.59-.56.78-1.1a3.81 3.81 0 00-.28-1.13z"/><path class="cls-7" d="M20.88 5.75s-.21.11-.2-.07 0-.43 0-.57c.06-.32.22-.83.07-1.07s-.41 0-.49.16-.16.45-.22.54-.23-.06-.29-.15a.65.65 0 010-.46c.05-.16-.12-.35-.16-.52 0-.09.08-.14.1-.22s.1-.25-.05-.25a5.53 5.53 0 01-.6.07 3.55 3.55 0 01-2.23-.89 1.05 1.05 0 010-.84A2.92 2.92 0 0119.89.06c1.47.36 2.56 1.09 2.49 2.94-.01.27-.69 2.44-1.5 2.75z"/><path d="M21.51 1.76l-.3-.24c.3-.07.35-.28.68-.1a1.55 1.55 0 00-.52-.79 2.16 2.16 0 00-1.2-.48h-.05a4.24 4.24 0 00-1.68.36l-.57.25h.43a2.82 2.82 0 00-1.41.83 3.82 3.82 0 011 .52c.21.16-.22.06-.22.09a1.87 1.87 0 001.8.07 5.25 5.25 0 01.73-.17l-.69-.1c.17 0 .66-.11.76-.14a2 2 0 011.24-.1z" fill="#87450f"/><path class="cls-18" d="M20.29 4.47a1.57 1.57 0 01-.2.62c-.1.21.08.43.27.35a1.28 1.28 0 00.73-1.07.53.53 0 00-.62-.6c-.33.04-.17.47-.18.7z"/><path class="cls-6" d="M20.23 4.39a1.45 1.45 0 01-.12.62c-.1.21.08.43.27.35a1.27 1.27 0 00.73-1.07.54.54 0 00-.62-.6c-.33.04-.25.48-.26.7z"/><path class="cls-18" d="M20.9 4.33a.55.55 0 00-.24-.39c-.11-.09-.19.13-.23.15s0-.14 0-.17 0-.16.2-.09a.59.59 0 01.31.57 1 1 0 01-.39.56 1.18 1.18 0 00.35-.63z"/><path class="cls-18" d="M20.47 4.51c0 .06-.16.23-.07.25s.26-.2.26-.31-.16-.23-.22-.17.05.18.03.23z"/><path class="cls-14" d="M16.38 3.41a9 9 0 001.36.5 2 2 0 001.82-.16l.51-.3A4.87 4.87 0 0019 2.56a3.23 3.23 0 00-2.4-.4l-.6.32c-.82.63-.07.71.38.93z"/><path class="cls-13" d="M21.1.4a5.43 5.43 0 00-3.74-.07l2.71 3.11s2 .37 2.22 0A2.67 2.67 0 0021.1.4z"/><path class="cls-15" d="M19.71.7C18.33 0 17 0 16.73 1.11a7.49 7.49 0 00-.11 1 4 4 0 011.18.33 21.56 21.56 0 012.27 1l.22-.76c.13-.68.32-1.51-.58-1.98z"/><ellipse class="cls-14" cx="20.24" cy=".15" rx=".21" ry=".09"/><path class="cls-6" d="M26.52 15.45a31.42 31.42 0 00-2.11-5.86c-.16-.41-1-1-1.5-.75-.88.55-.94 2.51-.77 3a25.1 25.1 0 001.62 3.94c-1.56.85-3.26 1.91-4.83 2.68a1.12 1.12 0 00-.33-.09 2 2 0 00-.93-.2c-.25 0-.57.1-.78.09s-.13.12-.09.21a.33.33 0 00.25.15h.36a.73.73 0 01.22.09 2.38 2.38 0 01-.82.14c-.24 0-.52-.09-.65 0s0 .19 0 .27.3.06.41.1.59 0 .6.08-.35 0-.51 0-.51-.18-.7-.19-.21.26 0 .35a3.64 3.64 0 00.7.26h.58c.06 0-.4.06-.5.05s-.36-.12-.52-.13-.2.21 0 .29a2.39 2.39 0 00.6.17h.56c.08 0-.29.07-.34.08s-.25-.1-.34-.07a.13.13 0 000 .24 2.37 2.37 0 00.38.1 4.18 4.18 0 00.73-.07 3.3 3.3 0 001.19-.22l.17-.12c1.73-.58 5-1.6 6.38-2a1.85 1.85 0 00.97-2.59z"/><path class="cls-15" d="M22.49 13.14c-.14-.38-.28-.86-.43-1.32s-.1-2.51.78-3.05c.47-.29 1.5.39 1.66.8.34.84.64 1.56.93 2.24 0 0-.15.48-1 .87a5.78 5.78 0 01-1.94.46z"/><path class="cls-7" d="M15.11 18.41l.32.12.02-.08-.34-.04z"/><path class="cls-8" d="M15.39 18.5a.13.13 0 00.09.14l2.07.59.89.25a.23.23 0 00.29-.17.24.24 0 00-.17-.3l-.94-.19-2.1-.42a.12.12 0 00-.13.1z"/><path d="M15.39 18.5a.13.13 0 00.09.14l2.07.59c.07 0-.07-.14.08-.4l-2.1-.42a.12.12 0 00-.14.09z" fill="#45596e"/><path d="M18 19.6a.18.18 0 00.11 0 .31.31 0 00.1-.18.07.07 0 00-.06-.09s-.08 0-.09.06a.16.16 0 010 .09 1.48 1.48 0 01-.45-.12.38.38 0 00-.25 0 .17.17 0 00-.1.09.07.07 0 000 .1.07.07 0 00.1 0 .18.18 0 01.16 0 1.58 1.58 0 00.48.05z" fill="#5c7a99"/></g></g></g></g></svg>