<svg xmlns="http://www.w3.org/2000/svg" xmlns:xlink="http://www.w3.org/1999/xlink" viewBox="0 0 68.42 78.75"><defs><linearGradient id="linear-gradient-11" x1="16.48" y1="77.25" x2="23.55" y2="64.99" xlink:href="#linear-gradient-10"/><linearGradient id="linear-gradient" x1="37.14" y1="32" x2="68.38" y2="32" gradientUnits="userSpaceOnUse"><stop offset="0" stop-color="#fa0"/><stop offset=".13" stop-color="#ffb615"/><stop offset=".35" stop-color="#ffc630"/><stop offset=".56" stop-color="#ffd144"/><stop offset=".78" stop-color="#ffd850"/><stop offset="1" stop-color="#ffda54"/></linearGradient><linearGradient id="linear-gradient-2" x1="18.88" y1="14.88" x2="32.64" y2="38.71" gradientUnits="userSpaceOnUse"><stop offset="0" stop-color="#5c7a99"/><stop offset=".18" stop-color="#4a627a"/><stop offset=".38" stop-color="#3a4c5f"/><stop offset=".59" stop-color="#2e3c4b"/><stop offset=".79" stop-color="#27333f"/><stop offset="1" stop-color="#25303b"/></linearGradient><linearGradient id="linear-gradient-3" x1="41.68" y1="33.97" x2="50.18" y2="33.97" gradientUnits="userSpaceOnUse"><stop offset=".61" stop-color="#25303b"/><stop offset=".96" stop-color="#45596e"/></linearGradient><linearGradient id="linear-gradient-4" x1="54.35" y1="26.79" x2="50.09" y2="19.42" gradientUnits="userSpaceOnUse"><stop offset="0" stop-color="#45596e"/><stop offset=".02" stop-color="#465a6f"/><stop offset=".37" stop-color="#526c86"/><stop offset=".71" stop-color="#597694"/><stop offset="1" stop-color="#5c7a99"/></linearGradient><linearGradient id="linear-gradient-5" x1="44.21" y1="15.15" x2="44.94" y2="15.15" gradientTransform="rotate(7.34 -138.122 -20.258)" gradientUnits="userSpaceOnUse"><stop offset=".5" stop-color="#3e4d5d"/><stop offset=".76" stop-color="#3f4f60"/><stop offset=".94" stop-color="#435568"/><stop offset="1" stop-color="#45596e"/></linearGradient><linearGradient id="linear-gradient-6" x1="29.64" y1="36.7" x2="35.48" y2="37.32" gradientUnits="userSpaceOnUse"><stop offset=".5" stop-color="#303c47"/><stop offset=".64" stop-color="#323f4b"/><stop offset=".78" stop-color="#384756"/><stop offset=".9" stop-color="#425568"/><stop offset=".93" stop-color="#45596e"/></linearGradient><linearGradient id="linear-gradient-7" x1="37.86" y1="25.89" x2="51.61" y2="49.72" gradientUnits="userSpaceOnUse"><stop offset="0" stop-color="#5c7a99"/><stop offset=".14" stop-color="#4f6883"/><stop offset=".37" stop-color="#3d5064"/><stop offset=".59" stop-color="#303e4d"/><stop offset=".81" stop-color="#283440"/><stop offset="1" stop-color="#25303b"/></linearGradient><linearGradient id="linear-gradient-8" x1="60.59" y1="10.3" x2="59.9" y2="9.1" gradientUnits="userSpaceOnUse"><stop offset=".62" stop-color="#ff624d"/><stop offset="1" stop-color="#ff8d7d"/></linearGradient><linearGradient id="linear-gradient-9" x1="50.88" y1="4.68" x2="50.19" y2="3.48" xlink:href="#linear-gradient-8"/><linearGradient id="linear-gradient-10" x1="9.61" y1="73.2" x2="16.68" y2="60.94" gradientUnits="userSpaceOnUse"><stop offset="0" stop-color="#5c7a99"/><stop offset=".3" stop-color="#5a7896"/><stop offset=".49" stop-color="#55718e"/><stop offset=".65" stop-color="#4d667f"/><stop offset=".79" stop-color="#41556a"/><stop offset=".92" stop-color="#31404f"/><stop offset="1" stop-color="#25303b"/></linearGradient><style>.cls-1{isolation:isolate}.cls-4{fill:#15202e}.cls-5{fill:#0c121a}.cls-6{fill:#dde8ff}.cls-7{fill:#798dab}.cls-8{fill:#bed0eb}.cls-9{fill:#59738f}.cls-10{fill:#3e4d5d}.cls-12{fill:#fa0}.cls-13{fill:#ffc936}.cls-14{fill:#25303b}.cls-15{fill:#5c7a99}.cls-17{fill:#45596e}.cls-18{fill:#ffde6e}.cls-22{fill:#3a4a5d}.cls-26{fill:#5d7794}.cls-29{fill:#ff8d7d}.cls-31{fill:#ff4b33}.cls-33{fill:#7597ba}.cls-35{fill:#ffc800}.cls-36{fill:#cedef0}.cls-37{fill:#fff}.cls-38{fill:#efd630}.cls-39{fill:#50667d}.cls-40{fill:#354555}.cls-42{fill:#4d637a}</style></defs><g class="cls-1"><g id="Слой_2" data-name="Слой 2"><g id="_лой_1" data-name="—лой_1"><g id="loader_3" data-name="loader 3"><path d="M0 73.11l1.62 1 2.07.61 15.39-9.79 4.5 2.63-16.71 9.56 1.68 1 2 .67 15.65-9.73 3.92 2.25L36 72.8l4.47-1.62 2.27-1.37L45 67.38 59.49 59l3.42-.75 1.79-1.1L66.86 55a.71.71 0 00-.15-1.13L39.88 38.81 8.21 57.09a.9.9 0 000 1.56l8.21 4.74z" style="mix-blend-mode:multiply" fill="#e4ecf5"/><path d="M25.51 44L46 55.92c1.18.69 1.92 2.15 1.93 4.23v5L27.46 53.24v-5c-.03-2.04-.76-3.51-1.95-4.24zm21.95-5.75l18.91 11a2.57 2.57 0 011.12 2l-18.91-11a2.57 2.57 0 00-1.12-2z" fill="#313e4a"/><g class="cls-1"><path class="cls-4" d="M61.57 48.82a2.36 2.36 0 012.38-.23l2.32 1.35c-.61-.35-5.33 7.79-4.73 8.13l-2.32-1.35a2.34 2.34 0 01-1-2.14 7.33 7.33 0 013.35-5.76z"/><path class="cls-5" d="M63.89 50.17c1.84-1.06 3.34-.21 3.35 1.91a7.34 7.34 0 01-3.33 5.76c-1.84 1.06-3.34.21-3.35-1.91a7.33 7.33 0 013.33-5.76z"/></g><path class="cls-6" d="M64.13 56.52a4.83 4.83 0 002.18-3.78c0-1.39-1-2-2.18-1.26a4.83 4.83 0 00-2.18 3.78c0 1.39.98 1.96 2.18 1.26z"/><path class="cls-7" d="M64.26 56.62a4.83 4.83 0 002.18-3.78c0-1.39-1-2-2.18-1.26a4.83 4.83 0 00-2.18 3.78c0 1.39.98 1.95 2.18 1.26z"/><path class="cls-8" d="M63.4 56.49a1.66 1.66 0 00.81-.25A4.18 4.18 0 0066.1 53c0-.79-.37-1.27-1-1.27a1.66 1.66 0 00-.81.25 4.18 4.18 0 00-1.89 3.27c.03.75.4 1.24 1 1.24z"/><path class="cls-6" d="M62.66 56.05a1.66 1.66 0 00.81-.25 4.18 4.18 0 001.89-3.27 1.62 1.62 0 00-.2-.83c.58 0 .94.5.94 1.27a4.18 4.18 0 01-1.89 3.27 1.66 1.66 0 01-.81.25.85.85 0 01-.76-.44z"/><g class="cls-1"><path class="cls-4" d="M37.6 55.13c1.6-.92 3-1 4.09-.4l4 2.32c-1-.61-9.17 13.4-8.14 14l-4-2.32A4 4 0 0131.88 65a12.61 12.61 0 015.72-9.87z"/><path class="cls-5" d="M41.6 57.45c3.17-1.83 5.76-.36 5.77 3.29a12.63 12.63 0 01-5.73 9.91c-3.17 1.83-5.75.36-5.76-3.28a12.61 12.61 0 015.72-9.92z"/></g><path class="cls-6" d="M42 68.39a8.32 8.32 0 003.76-6.51c0-2.39-1.69-3.37-3.76-2.17a8.32 8.32 0 00-3.76 6.51c.01 2.39 1.7 3.36 3.76 2.17z"/><path class="cls-7" d="M42.24 68.55A8.32 8.32 0 0046 62c0-2.39-1.69-3.37-3.76-2.17a8.32 8.32 0 00-3.76 6.51c0 2.43 1.69 3.4 3.76 2.21z"/><path class="cls-8" d="M40.74 68.33a2.86 2.86 0 001.39-.43 7.19 7.19 0 003.25-5.63c0-1.35-.63-2.19-1.66-2.19a2.86 2.86 0 00-1.39.43 7.19 7.19 0 00-3.25 5.63c.01 1.36.64 2.19 1.66 2.19z"/><path class="cls-6" d="M39.47 67.58a2.86 2.86 0 001.39-.43 7.19 7.19 0 003.25-5.63 2.79 2.79 0 00-.34-1.43c1 0 1.62.85 1.62 2.19a7.19 7.19 0 01-3.25 5.63 2.86 2.86 0 01-1.39.43 1.47 1.47 0 01-1.32-.76z"/><g class="cls-1"><path class="cls-4" d="M21.56 44.91c1.6-.92 3-1 4.09-.4l4 2.32c-1-.61-9.17 13.4-8.14 14l-4-2.32a4 4 0 01-1.68-3.68 12.61 12.61 0 015.73-9.92z"/><path class="cls-5" d="M25.56 47.23c3.17-1.83 5.76-.36 5.77 3.29a12.63 12.63 0 01-5.73 9.91c-3.17 1.83-5.75.36-5.76-3.28a12.61 12.61 0 015.72-9.92z"/></g><path class="cls-6" d="M26 58.17a8.32 8.32 0 003.76-6.51c0-2.39-1.69-3.37-3.76-2.17A8.32 8.32 0 0022.21 56c0 2.39 1.69 3.36 3.79 2.17z"/><path class="cls-7" d="M26.2 58.33a8.32 8.32 0 003.8-6.51c0-2.39-1.69-3.37-3.76-2.17a8.32 8.32 0 00-3.76 6.51c-.04 2.39 1.64 3.36 3.72 2.17z"/><path class="cls-8" d="M24.7 58.11a2.86 2.86 0 001.39-.43 7.19 7.19 0 003.25-5.63c0-1.35-.63-2.19-1.66-2.19a2.86 2.86 0 00-1.39.43A7.19 7.19 0 0023 55.92c0 1.35.68 2.19 1.7 2.19z"/><path class="cls-6" d="M23.43 57.36a2.86 2.86 0 001.39-.43 7.19 7.19 0 003.25-5.63 2.79 2.79 0 00-.34-1.43c1 0 1.62.85 1.62 2.19a7.19 7.19 0 01-3.25 5.63 2.86 2.86 0 01-1.39.43 1.47 1.47 0 01-1.32-.76z"/><path class="cls-9" d="M40.96 56.07L20.31 44.12l4.89-2.88 1.93 1.11 6.81-3.95-1.97-1.14 1.24-.74 20.53 11.89-12.78 7.66z"/><path class="cls-9" d="M20.31 44.12a4.91 4.91 0 00-.45.29A15.2 15.2 0 0016 48.63a3.07 3.07 0 00-.21.8V50l20.59 11.88v-.57a3.06 3.06 0 01.21-.8 15.2 15.2 0 013.8-4.22 4.92 4.92 0 01.45-.29z"/><path class="cls-10" d="M31.97 39.55l1.97-1.15-1.97-1.14v2.29z"/><path fill="url(#linear-gradient)" d="M57.68 41L37.15 29.12 47.84 23l20.54 11.87L57.68 41z"/><path class="cls-12" d="M57.68 41L37.14 29.12a8.67 8.67 0 00-3.94 6.82v.59l20.68 12 .05-.73a8.39 8.39 0 013.75-6.8z"/><path class="cls-13" d="M53.74 48.4v-.59A8.69 8.69 0 0157.68 41l10.7-6.12v10.14l-14.64 9.52z"/><g class="cls-1"><path class="cls-14" d="M45.33 2.56l-2.02-.64.03 23.74 1.46.85.53-23.95z"/><path class="cls-15" d="M44.36.11L28.24 9.47l1.47.85L45.82.96 44.36.11z"/><path d="M29.95 10.32l-1.71-.85A14.67 14.67 0 0021.6 21v22.39l1.46.85.17-22.38a14.72 14.72 0 016.72-11.54z" fill="url(#linear-gradient-2)"/><path class="cls-17" d="M45.82 1l-16.11 9.32a14.67 14.67 0 00-6.65 11.51v22.39l1.05-.61V21.22a12.35 12.35 0 015.6-9.7l15.06-8.75v23.74l1.05-.61z"/></g><path class="cls-13" d="M66.39 33.75V32l-12.78 7a7.73 7.73 0 00-3.81 8.38l.19.3 1.24-.7.05-1.2a6.79 6.79 0 013.88-5.87l.15-.09z"/><path class="cls-18" d="M53.98 38.89l-15.46-8.96L50.93 23l15.46 8.96-12.41 6.93z"/><path d="M54 38.89l-15.46-9c-1.7 1-4 4-4 5.94v2.84l15.46 9v-2.84c0-1.83 2.27-4.94 4-5.94z" fill="#fb0"/><g class="cls-1"><path d="M49.37 28.43l-7 4a1.24 1.24 0 000 2.34L46 36.86a4.45 4.45 0 004 0l6.21-3.56a.51.51 0 000-.89z" fill="#efab30"/><path class="cls-17" d="M49.92 34.51l.25 1.72 5.71-3.31a.78.78 0 00.39-.67V31z"/><path d="M46.16 34.39l-3.56-2.06c-.56-.33-.92-.67-.92-1.1V33a1.43 1.43 0 00.85 1.18l3.61 2.08a4.45 4.45 0 004 0v-1.84a4.41 4.41 0 01-3.98-.03z" fill="url(#linear-gradient-3)"/><path class="cls-22" d="M48.61 26.54l-6.1 3.53a1.24 1.24 0 000 2.34l3.61 2.08a4.45 4.45 0 004 0L56.28 31z"/></g><g class="cls-1"><path d="M54.27 22.15l-3.61-2.08a1.43 1.43 0 00-1.45-.14l-1.49.87c.37-.21.79 0 1.36.3l3.65 2a4.3 4.3 0 012 3.44l1.59-.93a4.46 4.46 0 00-2.05-3.46z" fill="url(#linear-gradient-4)"/><path class="cls-14" d="M52.78 23l-3.61-2.08c-1.12-.65-2-.13-2 1.16v3.82a2.59 2.59 0 01-1.29 2.23l-.5.29 1.81-.28a2.93 2.93 0 011.9.36l3.43 2a1.11 1.11 0 01.45 1.43l-.62 1.34L55 31.71l-.21-5.19A4.46 4.46 0 0052.78 23z"/><path class="cls-17" d="M54.79 26.3v3.35A4.69 4.69 0 0154 32l-.68.8 1.43-.49 1.48-.69V25.7z"/></g><circle class="cls-14" cx="29.56" cy="29.69" r=".95"/><path d="M27.13 35.68a.42.42 0 01-.42-.42v-2.34a3.74 3.74 0 011.18-2.79 3.82 3.82 0 011-.67.42.42 0 01.34.78 3 3 0 00-.82.53 2.9 2.9 0 00-.91 2.16v2.34a.42.42 0 01-.37.41z" fill="#5f7fa1"/><g class="cls-1"><path class="cls-22" d="M36.39 46.59l-.81 4.81 2.9-1.54-.6-3.73-1.49.46z"/><path class="cls-17" d="M40.31 44.52l.31 4.63 1.24-.72.02-4.62-1.57.71z"/><path class="cls-22" d="M24.32 33.66l-1.27.73 17.37 10.27 1-.6a.85.85 0 000-1.47L26 33.66a1.66 1.66 0 00-1.68 0z"/><path class="cls-14" d="M23.06 34.39l-.01 4.62 3.98 2.3 1.02 5.74 7.53 4.35 1.05-4.55 3.99 2.3.01-4.62-17.57-10.14z"/></g><g class="cls-1"><path class="cls-14" d="M38.51 42.22h-.07a.42.42 0 01-.35-.48l.52-3.35a.42.42 0 11.84.13l-.52 3.35a.42.42 0 01-.42.35z"/><path class="cls-17" d="M40.23 36l-1.18.34-.42 3.95.66-.22c.09 0 .15-.08.16-.14l1-4c0 .07-.12.07-.22.07z"/><path d="M38.79 36.28l-.22-.16c-.06 0-.12 0-.11-.08l-.41 4a.16.16 0 00.08.14l.08.07a.5.5 0 00.42.07l.52-4a.39.39 0 01-.36-.04z" fill="url(#linear-gradient-5)"/><path class="cls-26" d="M40.37 35.73l-.37-.26a.55.55 0 00-.53-.05l-.94.52c-.11.06-.11.17 0 .25l.19.15a.5.5 0 00.42.07L40.3 36c.18 0 .21-.16.07-.27z"/></g><g class="cls-1"><path class="cls-17" d="M36.33 35.6l-1 .28-.49 4.51.81-.27c.26-.09.41-.22.43-.37l.77-4.47c.02.16-.26.23-.52.32z"/><path d="M33.59 35.47l-2.69-1.55c-.34-.2-.64-.27-.61-.47l-.77 4.47c0 .2.12.42.47.62l2.72 1.57a3.07 3.07 0 002.18.29l.77-4.68a2.74 2.74 0 01-2.07-.25z" fill="url(#linear-gradient-6)"/><path class="cls-26" d="M36.43 34.66l-2.72-1.57a3.07 3.07 0 00-2.18-.29l-.81.27c-.6.2-.58.64 0 1l2.72 1.57a3.07 3.07 0 002.18.29l.81-.27c.63-.2.57-.66 0-1z"/></g><g class="cls-1"><path class="cls-14" d="M38.3 33.31L38 34a.58.58 0 000-.14 1.45 1.45 0 00-.76-1l.17-.81a1.75 1.75 0 01.85 1.06 1 1 0 01.04.2zm-1.49-1.54l-.15.76a7.36 7.36 0 00-1.92-.53 5.61 5.61 0 00-2.26 0 1.44 1.44 0 00-.77.44l.15-.76a1.3 1.3 0 01.72-.47 5.74 5.74 0 012.3-.07 7.59 7.59 0 011.93.63z"/><path class="cls-14" d="M37.68 32.01l-.41.86-1.41.39.06-.8 1.76-.45zm-3.9.46l-.32.76-1.89-.46.13-.81 2.08.51z"/><path class="cls-14" d="M34.74 33.04l-.19.81-1.09-.62.18-.84 1.1.65zm1.38-.25l-.7.25-.06.88.67-.33a.12.12 0 00.08-.08l.15-.76s-.09.02-.14.04z"/><path class="cls-14" d="M35.04 33.98l-.15.76-.34-.89.15-.93.34 1.06z"/><path class="cls-14" d="M37.88 34.22l-.25.06a5.65 5.65 0 01-1.94.11h-.3a8.55 8.55 0 01-3.23-1c-.92-.53-1.36-1.09-1.26-1.57l-.15.76c-.1.49.31 1.07 1.24 1.6a9 9 0 003.37 1 7 7 0 002.37-.18c.67-.19 1-.5 1.12-.87l.15-.76c-.07.42-.45.63-1.12.85z"/><path class="cls-22" d="M37.77 31.81A9 9 0 0032 30.9a1.51 1.51 0 00-1.08.74c-.2.52.2 1.16 1.2 1.73a9 9 0 003.43 1h.06a6.46 6.46 0 002.26-.13c1.58-.39 1.52-1.49-.1-2.43zM35 34a7 7 0 01-2.3-.77c-.64-.37-1-.78-1-1.13a.63.63 0 010-.07l1.89.46 1.08.63.33.88zm.3-1.87a1.1 1.1 0 00-.6-.13l-1 .14-1.8-.44a1.44 1.44 0 01.77-.44 5.61 5.61 0 012.26 0 7.36 7.36 0 011.92.57l-1.4.38zm2 1.83a4.7 4.7 0 01-1.42.13l-.35-.9.67-.33c.13-.06.1-.18-.07-.27l-.13-.08 1.41-.39a1.45 1.45 0 01.76 1c.04.34-.26.65-.88.82z"/></g><path class="cls-15" d="M44.17 24.65a.63.63 0 01-.32-.08l-17.3-9.9a.64.64 0 01.63-1.1l17.3 9.9a.64.64 0 01-.32 1.19z"/><g class="cls-1"><path class="cls-14" d="M64.09 13.59l-1.76-.68.03 23.74 1.46.85.27-23.91z"/><path class="cls-15" d="M63.38 11.09l-16.12 9.37 1.47.85 16.11-9.37-1.46-.85z"/><path d="M48.86 21.31l-1.59-.85A14.67 14.67 0 0040.62 32v22.39l1.46.85.32-22.42c.02-4.26 2.78-9.39 6.46-11.51z" fill="url(#linear-gradient-7)"/><path class="cls-17" d="M64.84 11.94l-16.11 9.37a14.67 14.67 0 00-6.65 11.51v22.39l1.05-.61V32.21a12.35 12.35 0 015.6-9.7l15.06-8.76v23.74l1.05-.61z"/></g><g class="cls-1"><path class="cls-29" d="M57.84 7.35a.28.28 0 00-.28 0l-.64.37a.28.28 0 01.28 0l2.55 1.47.64-.37z"/><path d="M60.39 8.82l-.64.37a.88.88 0 01.4.69v.49a.28.28 0 01-.12.26l.64-.37a.28.28 0 00.12-.26v-.49a.88.88 0 00-.4-.69z" fill="url(#linear-gradient-8)"/><path class="cls-31" d="M59.74 9.19l-2.55-1.47c-.22-.13-.4 0-.4.23v.49a.88.88 0 00.4.69l2.55 1.47c.22.13.4 0 .4-.23v-.49a.88.88 0 00-.4-.69z"/></g><g class="cls-1"><path class="cls-29" d="M48.12 1.73a.28.28 0 00-.28 0l-.64.37a.28.28 0 01.28 0L50 3.57l.64-.37z"/><path d="M50.67 3.2l-.67.37a.88.88 0 01.4.69v.49a.28.28 0 01-.12.26l.72-.37a.28.28 0 00.12-.26v-.49a.88.88 0 00-.45-.69z" fill="url(#linear-gradient-9)"/><path class="cls-31" d="M50 3.57L47.48 2.1c-.22-.13-.4 0-.4.23v.49a.88.88 0 00.4.69L50 5c.22.13.4 0 .4-.23v-.51a.88.88 0 00-.4-.69z"/></g><path class="cls-33" d="M48.73 21.31L28.29 9.45 44.47 0l20.37 11.94-16.11 9.37z"/><path class="cls-10" d="M48.73 21.31L28.29 9.45l1.3.94.27 1.06 16.6 9.53.5-.33 1.77.66z"/><path class="cls-15" d="M32 17.64a.64.64 0 01-.57-.92 9.85 9.85 0 013.12-3.15.64.64 0 11.68 1.07 8.74 8.74 0 00-2.66 2.64.64.64 0 01-.57.36zm6.84 3.83a.64.64 0 01-.57-.92 9.2 9.2 0 013.08-3.06.64.64 0 01.65 1.09 8 8 0 00-2.6 2.54.64.64 0 01-.56.35z"/><g class="cls-1"><path fill="#eb9c00" d="M41.17 40.27l-.94-.55v1.81l.95.55-.01-1.81z"/><path class="cls-18" d="M40.92 38.52l-.69 1.2.94.55.69-1.2-.94-.55z"/><path class="cls-35" d="M41.86 39.07l-.69 1.2.01 1.81.69.39-.01-3.4z"/></g><g class="cls-1"><path class="cls-12" d="M22.09 29.27l-.94-.55v1.82l.95.54-.01-1.81z"/><path class="cls-18" d="M21.84 27.53l-.69 1.19.94.55.69-1.19-.94-.55z"/><path class="cls-35" d="M22.78 28.08l-.69 1.19.01 1.81.69.4-.01-3.4z"/></g><path class="cls-10" d="M21.57 20.37a1.59 1.59 0 00.72 1.25c.4.23.72 0 .72-.42a1.59 1.59 0 00-.73-1.2c-.39-.27-.71-.08-.71.37z"/><path class="cls-36" d="M21.5 20a3.08 3.08 0 00.93 1.81l.23-.11a.5.5 0 00.21-.47 1.59 1.59 0 00-.72-1.23.58.58 0 00-.4-.09.44.44 0 00-.25.09z"/><path class="cls-37" d="M21.25 20.52a1.59 1.59 0 00.75 1.25c.4.23.72 0 .72-.42A1.59 1.59 0 0022 20.1c-.43-.23-.75-.04-.75.42z"/><path class="cls-10" d="M40.55 31.16a1.59 1.59 0 00.72 1.25c.4.23.72 0 .72-.42a1.59 1.59 0 00-.72-1.25c-.39-.23-.72-.04-.72.42z"/><path class="cls-36" d="M40.48 30.82a3.08 3.08 0 00.93 1.81l.23-.11a.5.5 0 00.21-.47 1.59 1.59 0 00-.72-1.25.58.58 0 00-.4-.09.44.44 0 00-.25.11z"/><path class="cls-37" d="M40.24 31.3a1.59 1.59 0 00.76 1.25c.4.23.72 0 .72-.42a1.59 1.59 0 00-.72-1.24c-.44-.23-.76-.05-.76.41z"/><path class="cls-17" d="M55.52 51.44l-1.78-3L40.84 56c-.15.09-.3.18-.45.29a15.24 15.24 0 00-3.8 4.22 3.15 3.15 0 00-.21.8v.57a13.71 13.71 0 015-5.49c2.63-1.52 4.89-1 6 .93a4.2 4.2 0 01.51 1.7c0 .27.08 1.33.08 1.37 0 1.91.09 4.58.09 4.74l11.58-6.75v-2a8.79 8.79 0 013.9-6.76c2-1.16 3.67-.42 4 1.63a11.2 11.2 0 00.79-2.52 8.16 8.16 0 00.14-1.48V44z"/><path class="cls-17" d="M50.56 51.33l-4.34 2.5-.45-.73-2.04-1.16 6.83-3.96v3.35z"/><path class="cls-9" d="M50.56 51.33l-4.34 2.5 1 1.68 5.3-3.05-1.96-1.13z"/><path class="cls-10" d="M50.56 51.33l1.96 1.13.01-3.34-1.97-1.14v3.35z"/><path class="cls-15" d="M38.91 8a1.15 1.15 0 010 2.17 4.16 4.16 0 01-3.76 0 1.15 1.15 0 010-2.17 4.15 4.15 0 013.76 0z"/><path class="cls-12" d="M39.49 8.68l-1-3.85h-3l-.91 3.63c-.21.48 0 1 .64 1.38a3.89 3.89 0 003.52 0 1.15 1.15 0 00.75-1.16z"/><path class="cls-13" d="M37 9.84a3.19 3.19 0 01-1.55-.36c-.2-.12-.65-.43-.46-.84l.85-3.38h2.32l.89 3.52c0 .22-.14.48-.5.69a3.2 3.2 0 01-1.55.37z"/><path class="cls-38" d="M37 8.56a2.34 2.34 0 01-.65-.09s.09-1.64.49-1.95a.39.39 0 01.34 0c.4.31.49 1.95.49 1.95a2.33 2.33 0 01-.67.09z"/><path class="cls-13" d="M38.09 4.22a.64.64 0 010 1.22 2.33 2.33 0 01-2.11 0 .64.64 0 010-1.22 2.33 2.33 0 012.11 0z"/><path class="cls-38" d="M37.94 4.31a.55.55 0 010 1 2 2 0 01-1.81 0 .55.55 0 010-1 2 2 0 011.81 0z"/><g class="cls-1"><path class="cls-39" d="M21.96 23.35l-3.44 1.7.35 39.08 3.2-1.85-.11-38.93z"/><path class="cls-10" d="M18.76 25.2l-.92-.54.11 38.93.92.54-.11-38.93z"/><path class="cls-33" d="M21.04 22.81l-3.2 1.85.92.54 3.2-1.85-.92-.54z"/></g><g class="cls-1"><path class="cls-39" d="M32.36 29.38l-3.45 1.7.36 39.07 3.2-1.85-.11-38.92z"/><path class="cls-10" d="M29.16 31.22l-.92-.54.11 38.93.92.54-.11-38.93z"/><path class="cls-33" d="M31.43 28.83l-3.19 1.85.92.54 3.2-1.84-.93-.55z"/></g><path class="cls-35" d="M36.91 51.94L13.48 38.41a.8.8 0 00-.86 0l-.73.42.26.39.32 6.14v1l.13 12.94.88-.51V46.93L36.9 60.45l.1 12.94.88-.51V53.53a2.08 2.08 0 00-.97-1.59zm-18.67-3.28l-4.76-2.75v-6.49l4.76 2.75zm6.44 3.72l-5.42-3.13v-6.49l5.42 3.13zm6.52 3.76L25.69 53v-6.52l5.51 3.18zm5.7 3.29l-4.68-2.7v-6.49l3.49 2a2.37 2.37 0 011.19 2.06z"/><g class="cls-1"><path class="cls-40" d="M36.38 70.63l-.01 1.7.6-.35v-1.7l-.59.35z"/><path class="cls-17" d="M13.33 56.65l-.6.35 23.65 13.63.59-.35-23.64-13.63z"/><path class="cls-14" d="M12.73 57l-.01 1.7 23.65 13.63.01-1.7L12.73 57z"/></g><g class="cls-1"><path class="cls-40" d="M36.39 65.18v1.7l.59-.35.01-1.7-.6.35z"/><path class="cls-17" d="M13.34 51.2l-.6.35 23.65 13.63.6-.35L13.34 51.2z"/><path class="cls-14" d="M12.74 51.55v1.7l23.65 13.63v-1.7L12.74 51.55z"/></g><path class="cls-12" d="M36 52.45L12.59 38.92c-.56-.33-1-.14-1 .42V58.7l1 .59V47.44L36 61v11.8l1 .59V54a2.08 2.08 0 00-1-1.55zm-18.64-3.27l-4.76-2.75v-6.49l4.76 2.75zm6.44 3.72l-5.42-3.13v-6.5l5.42 3.13zm6.52 3.76l-5.51-3.18V47l5.51 3.18zM36 59.95l-4.68-2.7v-6.5L36 53.46z"/><g class="cls-1"><path class="cls-14" d="M20.55 55.42l-1.73-1.01.02 7.79 1.88 1.39-.17-8.17z"/><path class="cls-15" d="M21.32 55l-1.73-1-.24.12-.52.3 1.73 1 .72-.41z"/><path d="M18.84 62.21a1.59 1.59 0 01-.72 1.25L5.44 70.77 7.55 72 20 64.55a1.66 1.66 0 00.73-1.28z" fill="url(#linear-gradient-10)"/><path class="cls-42" d="M5.44 70.77l-3.49 2.59 1.74 1.01 3.86-2.36-2.11-1.24z"/><path class="cls-10" d="M3.69 74.37l-1.74-1.01v.33l1.74 1.01v-.33z"/><path class="cls-17" d="M21.34 55s0-.06-.07 0l-.72.41v7.79a1.59 1.59 0 01-.72 1.25L7.18 71.78l-3.49 2.59v.34l16.44-9.49a2.72 2.72 0 001.23-2.14z"/></g><g class="cls-1"><path class="cls-14" d="M27.42 59.47l-1.73-1.01.02 7.8 1.88 1.38-.17-8.17z"/><path class="cls-15" d="M26.45 58a.54.54 0 00-.12 0l-.64.37 1.73 1 .72-.41-1.69-.96z"/><path d="M25.71 66.26A1.59 1.59 0 0125 67.5l-12.69 7.32 2.11 1.24 12.42-7.46a1.66 1.66 0 00.73-1.28z" fill="url(#linear-gradient-11)"/><path class="cls-42" d="M12.31 74.82l-3.49 2.59 1.74 1.01 3.86-2.36-2.11-1.24z"/><path class="cls-10" d="M10.56 78.42l-1.74-1.01v.34l1.74 1v-.33z"/><path class="cls-17" d="M28.21 59.1s0-.06-.07 0l-.72.41v7.79a1.59 1.59 0 01-.72 1.25L14 75.83l-3.49 2.59v.34L27 69.26a2.72 2.72 0 001.23-2.14z"/></g><path class="cls-14" d="M32.7 29.84L21.27 23.2v-3.04l11.41 6.61.02 3.07z"/><g class="cls-1"><path class="cls-22" d="M32.68 26.77l-4.34 2.14.45 3.32 4.03-2.33-.14-3.13z"/><path class="cls-14" d="M28.65 29.09l-1.17-.68.14 3.14 1.17.68-.14-3.14z"/><path class="cls-33" d="M31.51 26.08l-4.03 2.33 1.17.68 4.03-2.32-1.17-.69z"/></g><g class="cls-1"><path class="cls-22" d="M22.45 20.85L18.11 23l.45 3.31 4.03-2.32-.14-3.14z"/><path class="cls-14" d="M18.42 23.18l-1.17-.68.14 3.13 1.17.68-.14-3.13z"/><path class="cls-33" d="M21.29 20.17l-4.04 2.33 1.17.68 4.03-2.33-1.16-.68z"/></g><path class="cls-33" d="M31.51 26.08l-9.06-5.23-1.18.33 9.44 5.46.8-.56z"/></g></g></g></g></svg>