<svg xmlns="http://www.w3.org/2000/svg" viewBox="0 0 82.5 67.48"><defs><style>.cls-1{fill:none;stroke:#0f0f0f;stroke-linecap:round;stroke-linejoin:round;stroke-width:2.5px}</style></defs><g id="Слой_2" data-name="Слой 2"><g id="Layer_2" data-name="Layer 2"><path class="cls-1" d="M67.3 66.23s-14-10.95-14-25.25a14 14 0 0127.91 0c.04 14.3-13.91 25.25-13.91 25.25z"/><ellipse class="cls-1" cx="67.3" cy="40.98" rx="7.26" ry="6.98"/><path class="cls-1" d="M52.72 58.03l-16.4 8.2-35.07-16.5V12.6l35.07 14.44 33-14.44v9.1M1.25 12.6L35.29 1.25 69.32 12.6M18 19.49L50.49 6.32M36.32 27.03v39.2"/><path class="cls-1" d="M50.49 52.95l-14.17 7.09-35.07-16.5m5.16 8.61v-6.19m23.72 17.35v-6.18m12.38 6v-6.19"/></g></g></svg>