<svg xmlns="http://www.w3.org/2000/svg" viewBox="0 0 82.5 66.64"><defs><style>.cls-1{fill:none;stroke:#0f0f0f;stroke-linecap:round;stroke-linejoin:round;stroke-width:2.5px}</style></defs><g id="Слой_2" data-name="Слой 2"><g id="Layer_2" data-name="Layer 2"><path class="cls-1" d="M48.69 58.98l-12.83 6.41L1.25 49.1V12.45L35.86 26.7l32.58-14.25v8.99M1.25 12.45l33.59-11.2 33.6 11.2m-50.66 6.81L49.86 6.25m-14 20.45v38.69"/><path class="cls-1" d="M45.98 54.22l-10.12 5.06L1.25 42.99m5.09 8.5v-6.11m23.42 17.13V56.4m12.21 5.93v-6.11M63.72 64c-1.21-.8-7.17-4.74-9.28-6.3a10.61 10.61 0 01-4-8.61V32.57l4.16.29h.25c2.66 0 6.55-2.57 8.37-4.19l2.61-2.46 2.64 2.49c1.8 1.59 5.69 4.16 8.34 4.16h.25l4.16-.29v16.5a10.61 10.61 0 01-4 8.61c-2.05 1.55-8.01 5.5-9.22 6.32l-2.18 1.43z"/></g></g></svg>