<svg xmlns="http://www.w3.org/2000/svg" viewBox="0 0 72.67 82.5"><defs><style>.cls-1{fill:none;stroke:#0f0f0f;stroke-linecap:round;stroke-linejoin:round;stroke-width:2.5px}</style></defs><g id="Слой_2" data-name="Слой 2"><g id="Layer_2" data-name="Layer 2"><path class="cls-1" d="M7.74 61.12A35.09 35.09 0 0136.33 5.7c7.83 0 15.41 2.18 21.25 6.51m6.84 7.55a35.09 35.09 0 01-28.09 56.11 35.27 35.27 0 01-21.15-6.7"/><path class="cls-1" d="M45.57 14.03l12.06-1.82-5.61-10.96M27.67 67.12l-12.49 2.05 6.38 12.08m34.98-41.81V50.6l-19.3 9.65-20.51-9.65V39.55m0-10.66l20.51 8.44 19.3-8.44m-19.3 8.44v22.92"/><path class="cls-1" d="M37.24 37.33l-6.03 9.05-20.51-9.65 6.03-7.84"/><path class="cls-1" d="M16.73 28.89l19.9-6.64 19.91 6.64m0 0l5.43 7.84-18.1 9.04-6.63-8.44m-.6-15.08v8.44"/></g></g></svg>